<?xml version="1.0" encoding="utf-8" standalone="no"?>
<!DOCTYPE svg PUBLIC "-//W3C//DTD SVG 1.1//EN"
  "http://www.w3.org/Graphics/SVG/1.1/DTD/svg11.dtd">
<svg xmlns:xlink="http://www.w3.org/1999/xlink" width="401.950596pt" height="347.904844pt" viewBox="0 0 401.950596 347.904844" xmlns="http://www.w3.org/2000/svg" version="1.1">
 <metadata>
  <rdf:RDF xmlns:dc="http://purl.org/dc/elements/1.1/" xmlns:cc="http://creativecommons.org/ns#" xmlns:rdf="http://www.w3.org/1999/02/22-rdf-syntax-ns#">
   <cc:Work>
    <dc:type rdf:resource="http://purl.org/dc/dcmitype/StillImage"/>
    <dc:date>2024-08-29T16:42:54.436766</dc:date>
    <dc:format>image/svg+xml</dc:format>
    <dc:creator>
     <cc:Agent>
      <dc:title>Matplotlib v3.8.2, https://matplotlib.org/</dc:title>
     </cc:Agent>
    </dc:creator>
   </cc:Work>
  </rdf:RDF>
 </metadata>
 <defs>
  <style type="text/css">*{stroke-linejoin: round; stroke-linecap: butt}</style>
 </defs>
 <g id="figure_1">
  <g id="patch_1">
   <path d="M 0 347.904844 
L 401.950596 347.904844 
L 401.950596 0 
L 0 0 
z
" style="fill: #ffffff"/>
  </g>
  <g id="axes_1">
   <g id="patch_2">
    <path d="M 44.195313 306.03 
L 342.691346 306.03 
L 342.691346 7.2 
L 44.195313 7.2 
z
" style="fill: #ffffff"/>
   </g>
   <g id="matplotlib.axis_1">
    <g id="xtick_1">
     <g id="line2d_1">
      <path d="M 45.428767 306.03 
L 45.428767 7.2 
" clip-path="url(#p554d43f514)" style="fill: none; stroke: #cccccc; stroke-linecap: round"/>
     </g>
     <g id="text_1">
      <!-- 20 -->
      <g style="fill: #262626" transform="translate(39.311736 323.403594) scale(0.11 -0.11)">
       <defs>
        <path id="ArialMT-32" d="M 3222 541 
L 3222 0 
L 194 0 
Q 188 203 259 391 
Q 375 700 629 1000 
Q 884 1300 1366 1694 
Q 2113 2306 2375 2664 
Q 2638 3022 2638 3341 
Q 2638 3675 2398 3904 
Q 2159 4134 1775 4134 
Q 1369 4134 1125 3890 
Q 881 3647 878 3216 
L 300 3275 
Q 359 3922 746 4261 
Q 1134 4600 1788 4600 
Q 2447 4600 2831 4234 
Q 3216 3869 3216 3328 
Q 3216 3053 3103 2787 
Q 2991 2522 2730 2228 
Q 2469 1934 1863 1422 
Q 1356 997 1212 845 
Q 1069 694 975 541 
L 3222 541 
z
" transform="scale(0.015625)"/>
        <path id="ArialMT-30" d="M 266 2259 
Q 266 3072 433 3567 
Q 600 4063 929 4331 
Q 1259 4600 1759 4600 
Q 2128 4600 2406 4451 
Q 2684 4303 2865 4023 
Q 3047 3744 3150 3342 
Q 3253 2941 3253 2259 
Q 3253 1453 3087 958 
Q 2922 463 2592 192 
Q 2263 -78 1759 -78 
Q 1097 -78 719 397 
Q 266 969 266 2259 
z
M 844 2259 
Q 844 1131 1108 757 
Q 1372 384 1759 384 
Q 2147 384 2411 759 
Q 2675 1134 2675 2259 
Q 2675 3391 2411 3762 
Q 2147 4134 1753 4134 
Q 1366 4134 1134 3806 
Q 844 3388 844 2259 
z
" transform="scale(0.015625)"/>
       </defs>
       <use xlink:href="#ArialMT-32"/>
       <use xlink:href="#ArialMT-30" x="55.615234"/>
      </g>
     </g>
    </g>
    <g id="xtick_2">
     <g id="line2d_2">
      <path d="M 107.101501 306.03 
L 107.101501 7.2 
" clip-path="url(#p554d43f514)" style="fill: none; stroke: #cccccc; stroke-linecap: round"/>
     </g>
     <g id="text_2">
      <!-- 30 -->
      <g style="fill: #262626" transform="translate(100.98447 323.403594) scale(0.11 -0.11)">
       <defs>
        <path id="ArialMT-33" d="M 269 1209 
L 831 1284 
Q 928 806 1161 595 
Q 1394 384 1728 384 
Q 2125 384 2398 659 
Q 2672 934 2672 1341 
Q 2672 1728 2419 1979 
Q 2166 2231 1775 2231 
Q 1616 2231 1378 2169 
L 1441 2663 
Q 1497 2656 1531 2656 
Q 1891 2656 2178 2843 
Q 2466 3031 2466 3422 
Q 2466 3731 2256 3934 
Q 2047 4138 1716 4138 
Q 1388 4138 1169 3931 
Q 950 3725 888 3313 
L 325 3413 
Q 428 3978 793 4289 
Q 1159 4600 1703 4600 
Q 2078 4600 2393 4439 
Q 2709 4278 2876 4000 
Q 3044 3722 3044 3409 
Q 3044 3113 2884 2869 
Q 2725 2625 2413 2481 
Q 2819 2388 3044 2092 
Q 3269 1797 3269 1353 
Q 3269 753 2831 336 
Q 2394 -81 1725 -81 
Q 1122 -81 723 278 
Q 325 638 269 1209 
z
" transform="scale(0.015625)"/>
       </defs>
       <use xlink:href="#ArialMT-33"/>
       <use xlink:href="#ArialMT-30" x="55.615234"/>
      </g>
     </g>
    </g>
    <g id="xtick_3">
     <g id="line2d_3">
      <path d="M 168.774235 306.03 
L 168.774235 7.2 
" clip-path="url(#p554d43f514)" style="fill: none; stroke: #cccccc; stroke-linecap: round"/>
     </g>
     <g id="text_3">
      <!-- 40 -->
      <g style="fill: #262626" transform="translate(162.657204 323.403594) scale(0.11 -0.11)">
       <defs>
        <path id="ArialMT-34" d="M 2069 0 
L 2069 1097 
L 81 1097 
L 81 1613 
L 2172 4581 
L 2631 4581 
L 2631 1613 
L 3250 1613 
L 3250 1097 
L 2631 1097 
L 2631 0 
L 2069 0 
z
M 2069 1613 
L 2069 3678 
L 634 1613 
L 2069 1613 
z
" transform="scale(0.015625)"/>
       </defs>
       <use xlink:href="#ArialMT-34"/>
       <use xlink:href="#ArialMT-30" x="55.615234"/>
      </g>
     </g>
    </g>
    <g id="xtick_4">
     <g id="line2d_4">
      <path d="M 230.44697 306.03 
L 230.44697 7.2 
" clip-path="url(#p554d43f514)" style="fill: none; stroke: #cccccc; stroke-linecap: round"/>
     </g>
     <g id="text_4">
      <!-- 50 -->
      <g style="fill: #262626" transform="translate(224.329938 323.403594) scale(0.11 -0.11)">
       <defs>
        <path id="ArialMT-35" d="M 266 1200 
L 856 1250 
Q 922 819 1161 601 
Q 1400 384 1738 384 
Q 2144 384 2425 690 
Q 2706 997 2706 1503 
Q 2706 1984 2436 2262 
Q 2166 2541 1728 2541 
Q 1456 2541 1237 2417 
Q 1019 2294 894 2097 
L 366 2166 
L 809 4519 
L 3088 4519 
L 3088 3981 
L 1259 3981 
L 1013 2750 
Q 1425 3038 1878 3038 
Q 2478 3038 2890 2622 
Q 3303 2206 3303 1553 
Q 3303 931 2941 478 
Q 2500 -78 1738 -78 
Q 1113 -78 717 272 
Q 322 622 266 1200 
z
" transform="scale(0.015625)"/>
       </defs>
       <use xlink:href="#ArialMT-35"/>
       <use xlink:href="#ArialMT-30" x="55.615234"/>
      </g>
     </g>
    </g>
    <g id="xtick_5">
     <g id="line2d_5">
      <path d="M 292.119704 306.03 
L 292.119704 7.2 
" clip-path="url(#p554d43f514)" style="fill: none; stroke: #cccccc; stroke-linecap: round"/>
     </g>
     <g id="text_5">
      <!-- 60 -->
      <g style="fill: #262626" transform="translate(286.002672 323.403594) scale(0.11 -0.11)">
       <defs>
        <path id="ArialMT-36" d="M 3184 3459 
L 2625 3416 
Q 2550 3747 2413 3897 
Q 2184 4138 1850 4138 
Q 1581 4138 1378 3988 
Q 1113 3794 959 3422 
Q 806 3050 800 2363 
Q 1003 2672 1297 2822 
Q 1591 2972 1913 2972 
Q 2475 2972 2870 2558 
Q 3266 2144 3266 1488 
Q 3266 1056 3080 686 
Q 2894 316 2569 119 
Q 2244 -78 1831 -78 
Q 1128 -78 684 439 
Q 241 956 241 2144 
Q 241 3472 731 4075 
Q 1159 4600 1884 4600 
Q 2425 4600 2770 4297 
Q 3116 3994 3184 3459 
z
M 888 1484 
Q 888 1194 1011 928 
Q 1134 663 1356 523 
Q 1578 384 1822 384 
Q 2178 384 2434 671 
Q 2691 959 2691 1453 
Q 2691 1928 2437 2201 
Q 2184 2475 1800 2475 
Q 1419 2475 1153 2201 
Q 888 1928 888 1484 
z
" transform="scale(0.015625)"/>
       </defs>
       <use xlink:href="#ArialMT-36"/>
       <use xlink:href="#ArialMT-30" x="55.615234"/>
      </g>
     </g>
    </g>
    <g id="text_6">
     <!-- Age -->
     <g style="fill: #262626" transform="translate(182.768017 338.179219) scale(0.12 -0.12)">
      <defs>
       <path id="ArialMT-41" d="M -9 0 
L 1750 4581 
L 2403 4581 
L 4278 0 
L 3588 0 
L 3053 1388 
L 1138 1388 
L 634 0 
L -9 0 
z
M 1313 1881 
L 2866 1881 
L 2388 3150 
Q 2169 3728 2063 4100 
Q 1975 3659 1816 3225 
L 1313 1881 
z
" transform="scale(0.015625)"/>
       <path id="ArialMT-67" d="M 319 -275 
L 866 -356 
Q 900 -609 1056 -725 
Q 1266 -881 1628 -881 
Q 2019 -881 2231 -725 
Q 2444 -569 2519 -288 
Q 2563 -116 2559 434 
Q 2191 0 1641 0 
Q 956 0 581 494 
Q 206 988 206 1678 
Q 206 2153 378 2554 
Q 550 2956 876 3175 
Q 1203 3394 1644 3394 
Q 2231 3394 2613 2919 
L 2613 3319 
L 3131 3319 
L 3131 450 
Q 3131 -325 2973 -648 
Q 2816 -972 2473 -1159 
Q 2131 -1347 1631 -1347 
Q 1038 -1347 672 -1080 
Q 306 -813 319 -275 
z
M 784 1719 
Q 784 1066 1043 766 
Q 1303 466 1694 466 
Q 2081 466 2343 764 
Q 2606 1063 2606 1700 
Q 2606 2309 2336 2618 
Q 2066 2928 1684 2928 
Q 1309 2928 1046 2623 
Q 784 2319 784 1719 
z
" transform="scale(0.015625)"/>
       <path id="ArialMT-65" d="M 2694 1069 
L 3275 997 
Q 3138 488 2766 206 
Q 2394 -75 1816 -75 
Q 1088 -75 661 373 
Q 234 822 234 1631 
Q 234 2469 665 2931 
Q 1097 3394 1784 3394 
Q 2450 3394 2872 2941 
Q 3294 2488 3294 1666 
Q 3294 1616 3291 1516 
L 816 1516 
Q 847 969 1125 678 
Q 1403 388 1819 388 
Q 2128 388 2347 550 
Q 2566 713 2694 1069 
z
M 847 1978 
L 2700 1978 
Q 2663 2397 2488 2606 
Q 2219 2931 1791 2931 
Q 1403 2931 1139 2672 
Q 875 2413 847 1978 
z
" transform="scale(0.015625)"/>
      </defs>
      <use xlink:href="#ArialMT-41"/>
      <use xlink:href="#ArialMT-67" x="66.699219"/>
      <use xlink:href="#ArialMT-65" x="122.314453"/>
     </g>
    </g>
   </g>
   <g id="matplotlib.axis_2">
    <g id="ytick_1">
     <g id="line2d_6">
      <path d="M 44.195313 276.568617 
L 342.691346 276.568617 
" clip-path="url(#p554d43f514)" style="fill: none; stroke: #cccccc; stroke-linecap: round"/>
     </g>
     <g id="text_7">
      <!-- 8 -->
      <g style="fill: #262626" transform="translate(28.578281 280.505414) scale(0.11 -0.11)">
       <defs>
        <path id="ArialMT-38" d="M 1131 2484 
Q 781 2613 612 2850 
Q 444 3088 444 3419 
Q 444 3919 803 4259 
Q 1163 4600 1759 4600 
Q 2359 4600 2725 4251 
Q 3091 3903 3091 3403 
Q 3091 3084 2923 2848 
Q 2756 2613 2416 2484 
Q 2838 2347 3058 2040 
Q 3278 1734 3278 1309 
Q 3278 722 2862 322 
Q 2447 -78 1769 -78 
Q 1091 -78 675 323 
Q 259 725 259 1325 
Q 259 1772 486 2073 
Q 713 2375 1131 2484 
z
M 1019 3438 
Q 1019 3113 1228 2906 
Q 1438 2700 1772 2700 
Q 2097 2700 2305 2904 
Q 2513 3109 2513 3406 
Q 2513 3716 2298 3927 
Q 2084 4138 1766 4138 
Q 1444 4138 1231 3931 
Q 1019 3725 1019 3438 
z
M 838 1322 
Q 838 1081 952 856 
Q 1066 631 1291 507 
Q 1516 384 1775 384 
Q 2178 384 2440 643 
Q 2703 903 2703 1303 
Q 2703 1709 2433 1975 
Q 2163 2241 1756 2241 
Q 1359 2241 1098 1978 
Q 838 1716 838 1322 
z
" transform="scale(0.015625)"/>
       </defs>
       <use xlink:href="#ArialMT-38"/>
      </g>
     </g>
    </g>
    <g id="ytick_2">
     <g id="line2d_7">
      <path d="M 44.195313 213.661599 
L 342.691346 213.661599 
" clip-path="url(#p554d43f514)" style="fill: none; stroke: #cccccc; stroke-linecap: round"/>
     </g>
     <g id="text_8">
      <!-- 9 -->
      <g style="fill: #262626" transform="translate(28.578281 217.598395) scale(0.11 -0.11)">
       <defs>
        <path id="ArialMT-39" d="M 350 1059 
L 891 1109 
Q 959 728 1153 556 
Q 1347 384 1650 384 
Q 1909 384 2104 503 
Q 2300 622 2425 820 
Q 2550 1019 2634 1356 
Q 2719 1694 2719 2044 
Q 2719 2081 2716 2156 
Q 2547 1888 2255 1720 
Q 1963 1553 1622 1553 
Q 1053 1553 659 1965 
Q 266 2378 266 3053 
Q 266 3750 677 4175 
Q 1088 4600 1706 4600 
Q 2153 4600 2523 4359 
Q 2894 4119 3086 3673 
Q 3278 3228 3278 2384 
Q 3278 1506 3087 986 
Q 2897 466 2520 194 
Q 2144 -78 1638 -78 
Q 1100 -78 759 220 
Q 419 519 350 1059 
z
M 2653 3081 
Q 2653 3566 2395 3850 
Q 2138 4134 1775 4134 
Q 1400 4134 1122 3828 
Q 844 3522 844 3034 
Q 844 2597 1108 2323 
Q 1372 2050 1759 2050 
Q 2150 2050 2401 2323 
Q 2653 2597 2653 3081 
z
" transform="scale(0.015625)"/>
       </defs>
       <use xlink:href="#ArialMT-39"/>
      </g>
     </g>
    </g>
    <g id="ytick_3">
     <g id="line2d_8">
      <path d="M 44.195313 150.75458 
L 342.691346 150.75458 
" clip-path="url(#p554d43f514)" style="fill: none; stroke: #cccccc; stroke-linecap: round"/>
     </g>
     <g id="text_9">
      <!-- 10 -->
      <g style="fill: #262626" transform="translate(22.46125 154.691377) scale(0.11 -0.11)">
       <defs>
        <path id="ArialMT-31" d="M 2384 0 
L 1822 0 
L 1822 3584 
Q 1619 3391 1289 3197 
Q 959 3003 697 2906 
L 697 3450 
Q 1169 3672 1522 3987 
Q 1875 4303 2022 4600 
L 2384 4600 
L 2384 0 
z
" transform="scale(0.015625)"/>
       </defs>
       <use xlink:href="#ArialMT-31"/>
       <use xlink:href="#ArialMT-30" x="55.615234"/>
      </g>
     </g>
    </g>
    <g id="ytick_4">
     <g id="line2d_9">
      <path d="M 44.195313 87.847561 
L 342.691346 87.847561 
" clip-path="url(#p554d43f514)" style="fill: none; stroke: #cccccc; stroke-linecap: round"/>
     </g>
     <g id="text_10">
      <!-- 11 -->
      <g style="fill: #262626" transform="translate(23.2725 91.784358) scale(0.11 -0.11)">
       <use xlink:href="#ArialMT-31"/>
       <use xlink:href="#ArialMT-31" x="48.240234"/>
      </g>
     </g>
    </g>
    <g id="ytick_5">
     <g id="line2d_10">
      <path d="M 44.195313 24.940542 
L 342.691346 24.940542 
" clip-path="url(#p554d43f514)" style="fill: none; stroke: #cccccc; stroke-linecap: round"/>
     </g>
     <g id="text_11">
      <!-- 12 -->
      <g style="fill: #262626" transform="translate(22.46125 28.877339) scale(0.11 -0.11)">
       <use xlink:href="#ArialMT-31"/>
       <use xlink:href="#ArialMT-32" x="55.615234"/>
      </g>
     </g>
    </g>
    <g id="text_12">
     <!-- How informal you can be -->
     <g style="fill: #262626" transform="translate(15.935625 222.643125) rotate(-90) scale(0.12 -0.12)">
      <defs>
       <path id="ArialMT-48" d="M 513 0 
L 513 4581 
L 1119 4581 
L 1119 2700 
L 3500 2700 
L 3500 4581 
L 4106 4581 
L 4106 0 
L 3500 0 
L 3500 2159 
L 1119 2159 
L 1119 0 
L 513 0 
z
" transform="scale(0.015625)"/>
       <path id="ArialMT-6f" d="M 213 1659 
Q 213 2581 725 3025 
Q 1153 3394 1769 3394 
Q 2453 3394 2887 2945 
Q 3322 2497 3322 1706 
Q 3322 1066 3130 698 
Q 2938 331 2570 128 
Q 2203 -75 1769 -75 
Q 1072 -75 642 372 
Q 213 819 213 1659 
z
M 791 1659 
Q 791 1022 1069 705 
Q 1347 388 1769 388 
Q 2188 388 2466 706 
Q 2744 1025 2744 1678 
Q 2744 2294 2464 2611 
Q 2184 2928 1769 2928 
Q 1347 2928 1069 2612 
Q 791 2297 791 1659 
z
" transform="scale(0.015625)"/>
       <path id="ArialMT-77" d="M 1034 0 
L 19 3319 
L 600 3319 
L 1128 1403 
L 1325 691 
Q 1338 744 1497 1375 
L 2025 3319 
L 2603 3319 
L 3100 1394 
L 3266 759 
L 3456 1400 
L 4025 3319 
L 4572 3319 
L 3534 0 
L 2950 0 
L 2422 1988 
L 2294 2553 
L 1622 0 
L 1034 0 
z
" transform="scale(0.015625)"/>
       <path id="ArialMT-20" transform="scale(0.015625)"/>
       <path id="ArialMT-69" d="M 425 3934 
L 425 4581 
L 988 4581 
L 988 3934 
L 425 3934 
z
M 425 0 
L 425 3319 
L 988 3319 
L 988 0 
L 425 0 
z
" transform="scale(0.015625)"/>
       <path id="ArialMT-6e" d="M 422 0 
L 422 3319 
L 928 3319 
L 928 2847 
Q 1294 3394 1984 3394 
Q 2284 3394 2536 3286 
Q 2788 3178 2913 3003 
Q 3038 2828 3088 2588 
Q 3119 2431 3119 2041 
L 3119 0 
L 2556 0 
L 2556 2019 
Q 2556 2363 2490 2533 
Q 2425 2703 2258 2804 
Q 2091 2906 1866 2906 
Q 1506 2906 1245 2678 
Q 984 2450 984 1813 
L 984 0 
L 422 0 
z
" transform="scale(0.015625)"/>
       <path id="ArialMT-66" d="M 556 0 
L 556 2881 
L 59 2881 
L 59 3319 
L 556 3319 
L 556 3672 
Q 556 4006 616 4169 
Q 697 4388 901 4523 
Q 1106 4659 1475 4659 
Q 1713 4659 2000 4603 
L 1916 4113 
Q 1741 4144 1584 4144 
Q 1328 4144 1222 4034 
Q 1116 3925 1116 3625 
L 1116 3319 
L 1763 3319 
L 1763 2881 
L 1116 2881 
L 1116 0 
L 556 0 
z
" transform="scale(0.015625)"/>
       <path id="ArialMT-72" d="M 416 0 
L 416 3319 
L 922 3319 
L 922 2816 
Q 1116 3169 1280 3281 
Q 1444 3394 1641 3394 
Q 1925 3394 2219 3213 
L 2025 2691 
Q 1819 2813 1613 2813 
Q 1428 2813 1281 2702 
Q 1134 2591 1072 2394 
Q 978 2094 978 1738 
L 978 0 
L 416 0 
z
" transform="scale(0.015625)"/>
       <path id="ArialMT-6d" d="M 422 0 
L 422 3319 
L 925 3319 
L 925 2853 
Q 1081 3097 1340 3245 
Q 1600 3394 1931 3394 
Q 2300 3394 2536 3241 
Q 2772 3088 2869 2813 
Q 3263 3394 3894 3394 
Q 4388 3394 4653 3120 
Q 4919 2847 4919 2278 
L 4919 0 
L 4359 0 
L 4359 2091 
Q 4359 2428 4304 2576 
Q 4250 2725 4106 2815 
Q 3963 2906 3769 2906 
Q 3419 2906 3187 2673 
Q 2956 2441 2956 1928 
L 2956 0 
L 2394 0 
L 2394 2156 
Q 2394 2531 2256 2718 
Q 2119 2906 1806 2906 
Q 1569 2906 1367 2781 
Q 1166 2656 1075 2415 
Q 984 2175 984 1722 
L 984 0 
L 422 0 
z
" transform="scale(0.015625)"/>
       <path id="ArialMT-61" d="M 2588 409 
Q 2275 144 1986 34 
Q 1697 -75 1366 -75 
Q 819 -75 525 192 
Q 231 459 231 875 
Q 231 1119 342 1320 
Q 453 1522 633 1644 
Q 813 1766 1038 1828 
Q 1203 1872 1538 1913 
Q 2219 1994 2541 2106 
Q 2544 2222 2544 2253 
Q 2544 2597 2384 2738 
Q 2169 2928 1744 2928 
Q 1347 2928 1158 2789 
Q 969 2650 878 2297 
L 328 2372 
Q 403 2725 575 2942 
Q 747 3159 1072 3276 
Q 1397 3394 1825 3394 
Q 2250 3394 2515 3294 
Q 2781 3194 2906 3042 
Q 3031 2891 3081 2659 
Q 3109 2516 3109 2141 
L 3109 1391 
Q 3109 606 3145 398 
Q 3181 191 3288 0 
L 2700 0 
Q 2613 175 2588 409 
z
M 2541 1666 
Q 2234 1541 1622 1453 
Q 1275 1403 1131 1340 
Q 988 1278 909 1158 
Q 831 1038 831 891 
Q 831 666 1001 516 
Q 1172 366 1500 366 
Q 1825 366 2078 508 
Q 2331 650 2450 897 
Q 2541 1088 2541 1459 
L 2541 1666 
z
" transform="scale(0.015625)"/>
       <path id="ArialMT-6c" d="M 409 0 
L 409 4581 
L 972 4581 
L 972 0 
L 409 0 
z
" transform="scale(0.015625)"/>
       <path id="ArialMT-79" d="M 397 -1278 
L 334 -750 
Q 519 -800 656 -800 
Q 844 -800 956 -737 
Q 1069 -675 1141 -563 
Q 1194 -478 1313 -144 
Q 1328 -97 1363 -6 
L 103 3319 
L 709 3319 
L 1400 1397 
Q 1534 1031 1641 628 
Q 1738 1016 1872 1384 
L 2581 3319 
L 3144 3319 
L 1881 -56 
Q 1678 -603 1566 -809 
Q 1416 -1088 1222 -1217 
Q 1028 -1347 759 -1347 
Q 597 -1347 397 -1278 
z
" transform="scale(0.015625)"/>
       <path id="ArialMT-75" d="M 2597 0 
L 2597 488 
Q 2209 -75 1544 -75 
Q 1250 -75 995 37 
Q 741 150 617 320 
Q 494 491 444 738 
Q 409 903 409 1263 
L 409 3319 
L 972 3319 
L 972 1478 
Q 972 1038 1006 884 
Q 1059 663 1231 536 
Q 1403 409 1656 409 
Q 1909 409 2131 539 
Q 2353 669 2445 892 
Q 2538 1116 2538 1541 
L 2538 3319 
L 3100 3319 
L 3100 0 
L 2597 0 
z
" transform="scale(0.015625)"/>
       <path id="ArialMT-63" d="M 2588 1216 
L 3141 1144 
Q 3050 572 2676 248 
Q 2303 -75 1759 -75 
Q 1078 -75 664 370 
Q 250 816 250 1647 
Q 250 2184 428 2587 
Q 606 2991 970 3192 
Q 1334 3394 1763 3394 
Q 2303 3394 2647 3120 
Q 2991 2847 3088 2344 
L 2541 2259 
Q 2463 2594 2264 2762 
Q 2066 2931 1784 2931 
Q 1359 2931 1093 2626 
Q 828 2322 828 1663 
Q 828 994 1084 691 
Q 1341 388 1753 388 
Q 2084 388 2306 591 
Q 2528 794 2588 1216 
z
" transform="scale(0.015625)"/>
       <path id="ArialMT-62" d="M 941 0 
L 419 0 
L 419 4581 
L 981 4581 
L 981 2947 
Q 1338 3394 1891 3394 
Q 2197 3394 2470 3270 
Q 2744 3147 2920 2923 
Q 3097 2700 3197 2384 
Q 3297 2069 3297 1709 
Q 3297 856 2875 390 
Q 2453 -75 1863 -75 
Q 1275 -75 941 416 
L 941 0 
z
M 934 1684 
Q 934 1088 1097 822 
Q 1363 388 1816 388 
Q 2184 388 2453 708 
Q 2722 1028 2722 1663 
Q 2722 2313 2464 2622 
Q 2206 2931 1841 2931 
Q 1472 2931 1203 2611 
Q 934 2291 934 1684 
z
" transform="scale(0.015625)"/>
      </defs>
      <use xlink:href="#ArialMT-48"/>
      <use xlink:href="#ArialMT-6f" x="72.216797"/>
      <use xlink:href="#ArialMT-77" x="127.832031"/>
      <use xlink:href="#ArialMT-20" x="200.048828"/>
      <use xlink:href="#ArialMT-69" x="227.832031"/>
      <use xlink:href="#ArialMT-6e" x="250.048828"/>
      <use xlink:href="#ArialMT-66" x="305.664062"/>
      <use xlink:href="#ArialMT-6f" x="333.447266"/>
      <use xlink:href="#ArialMT-72" x="389.0625"/>
      <use xlink:href="#ArialMT-6d" x="422.363281"/>
      <use xlink:href="#ArialMT-61" x="505.664062"/>
      <use xlink:href="#ArialMT-6c" x="561.279297"/>
      <use xlink:href="#ArialMT-20" x="583.496094"/>
      <use xlink:href="#ArialMT-79" x="611.279297"/>
      <use xlink:href="#ArialMT-6f" x="661.279297"/>
      <use xlink:href="#ArialMT-75" x="716.894531"/>
      <use xlink:href="#ArialMT-20" x="772.509766"/>
      <use xlink:href="#ArialMT-63" x="800.292969"/>
      <use xlink:href="#ArialMT-61" x="850.292969"/>
      <use xlink:href="#ArialMT-6e" x="905.908203"/>
      <use xlink:href="#ArialMT-20" x="961.523438"/>
      <use xlink:href="#ArialMT-62" x="989.306641"/>
      <use xlink:href="#ArialMT-65" x="1044.921875"/>
     </g>
    </g>
   </g>
   <g id="PathCollection_1">
    <defs>
     <path id="mabfacbe50c" d="M 0 3 
C 0.795609 3 1.55874 2.683901 2.12132 2.12132 
C 2.683901 1.55874 3 0.795609 3 0 
C 3 -0.795609 2.683901 -1.55874 2.12132 -2.12132 
C 1.55874 -2.683901 0.795609 -3 0 -3 
C -0.795609 -3 -1.55874 -2.683901 -2.12132 -2.12132 
C -2.683901 -1.55874 -3 -0.795609 -3 0 
C -3 0.795609 -2.683901 1.55874 -2.12132 2.12132 
C -1.55874 2.683901 -0.795609 3 0 3 
z
" style="stroke: #443983; stroke-opacity: 0.8"/>
    </defs>
    <g clip-path="url(#p554d43f514)">
     <use xlink:href="#mabfacbe50c" x="261.283337" y="269.80051" style="fill: #443983; fill-opacity: 0.8; stroke: #443983; stroke-opacity: 0.8"/>
     <use xlink:href="#mabfacbe50c" x="242.781516" y="131.630316" style="fill: #443983; fill-opacity: 0.8; stroke: #443983; stroke-opacity: 0.8"/>
     <use xlink:href="#mabfacbe50c" x="248.94879" y="152.819992" style="fill: #443983; fill-opacity: 0.8; stroke: #443983; stroke-opacity: 0.8"/>
     <use xlink:href="#mabfacbe50c" x="255.116063" y="97.030068" style="fill: #443983; fill-opacity: 0.8; stroke: #443983; stroke-opacity: 0.8"/>
     <use xlink:href="#mabfacbe50c" x="150.272415" y="112.491131" style="fill: #443983; fill-opacity: 0.8; stroke: #443983; stroke-opacity: 0.8"/>
     <use xlink:href="#mabfacbe50c" x="187.276056" y="107.561663" style="fill: #443983; fill-opacity: 0.8; stroke: #443983; stroke-opacity: 0.8"/>
     <use xlink:href="#mabfacbe50c" x="316.788797" y="34.88067" style="fill: #443983; fill-opacity: 0.8; stroke: #443983; stroke-opacity: 0.8"/>
     <use xlink:href="#mabfacbe50c" x="322.956071" y="191.986605" style="fill: #443983; fill-opacity: 0.8; stroke: #443983; stroke-opacity: 0.8"/>
     <use xlink:href="#mabfacbe50c" x="255.116063" y="213.066502" style="fill: #443983; fill-opacity: 0.8; stroke: #443983; stroke-opacity: 0.8"/>
     <use xlink:href="#mabfacbe50c" x="205.777876" y="158.907808" style="fill: #443983; fill-opacity: 0.8; stroke: #443983; stroke-opacity: 0.8"/>
     <use xlink:href="#mabfacbe50c" x="255.116063" y="170.711857" style="fill: #443983; fill-opacity: 0.8; stroke: #443983; stroke-opacity: 0.8"/>
     <use xlink:href="#mabfacbe50c" x="248.94879" y="130.18055" style="fill: #443983; fill-opacity: 0.8; stroke: #443983; stroke-opacity: 0.8"/>
     <use xlink:href="#mabfacbe50c" x="88.599681" y="246.158065" style="fill: #443983; fill-opacity: 0.8; stroke: #443983; stroke-opacity: 0.8"/>
     <use xlink:href="#mabfacbe50c" x="242.781516" y="82.990012" style="fill: #443983; fill-opacity: 0.8; stroke: #443983; stroke-opacity: 0.8"/>
     <use xlink:href="#mabfacbe50c" x="230.44697" y="36.773702" style="fill: #443983; fill-opacity: 0.8; stroke: #443983; stroke-opacity: 0.8"/>
     <use xlink:href="#mabfacbe50c" x="88.599681" y="223.571202" style="fill: #443983; fill-opacity: 0.8; stroke: #443983; stroke-opacity: 0.8"/>
     <use xlink:href="#mabfacbe50c" x="218.112423" y="153.768126" style="fill: #443983; fill-opacity: 0.8; stroke: #443983; stroke-opacity: 0.8"/>
     <use xlink:href="#mabfacbe50c" x="144.105142" y="104.70193" style="fill: #443983; fill-opacity: 0.8; stroke: #443983; stroke-opacity: 0.8"/>
     <use xlink:href="#mabfacbe50c" x="329.123344" y="230.667881" style="fill: #443983; fill-opacity: 0.8; stroke: #443983; stroke-opacity: 0.8"/>
     <use xlink:href="#mabfacbe50c" x="248.94879" y="106.166934" style="fill: #443983; fill-opacity: 0.8; stroke: #443983; stroke-opacity: 0.8"/>
    </g>
   </g>
   <g id="PolyCollection_1">
    <defs>
     <path id="m3cd553950e" d="M 88.599681 -296.129559 
L 88.599681 -129.99278 
L 91.029213 -131.245174 
L 93.458745 -132.636238 
L 95.888277 -133.606858 
L 98.317809 -134.569161 
L 100.747341 -135.575135 
L 103.176873 -136.833048 
L 105.606405 -138.411355 
L 108.035937 -139.822636 
L 110.465469 -140.944817 
L 112.895001 -141.971359 
L 115.324533 -143.0603 
L 117.754064 -144.660249 
L 120.183596 -145.822138 
L 122.613128 -147.029202 
L 125.04266 -148.250148 
L 127.472192 -149.121196 
L 129.901724 -150.504198 
L 132.331256 -151.655033 
L 134.760788 -152.519328 
L 137.19032 -153.300829 
L 139.619852 -154.066644 
L 142.049384 -155.117694 
L 144.478916 -156.134055 
L 146.908448 -157.176925 
L 149.33798 -158.06905 
L 151.767512 -158.97851 
L 154.197044 -159.481226 
L 156.626576 -160.456771 
L 159.056108 -161.529716 
L 161.48564 -162.227663 
L 163.915172 -162.604798 
L 166.344703 -163.796967 
L 168.774235 -164.439376 
L 171.203767 -165.160086 
L 173.633299 -166.122652 
L 176.062831 -166.773602 
L 178.492363 -167.607529 
L 180.921895 -168.16916 
L 183.351427 -168.886707 
L 185.780959 -169.529788 
L 188.210491 -169.811616 
L 190.640023 -170.335535 
L 193.069555 -170.563962 
L 195.499087 -171.102083 
L 197.928619 -171.442839 
L 200.358151 -171.786382 
L 202.787683 -171.964013 
L 205.217215 -171.997826 
L 207.646747 -172.006732 
L 210.076279 -172.088232 
L 212.505811 -172.431967 
L 214.935342 -172.492264 
L 217.364874 -172.553237 
L 219.794406 -172.612047 
L 222.223938 -172.57953 
L 224.65347 -172.721101 
L 227.083002 -172.774971 
L 229.512534 -172.834853 
L 231.942066 -172.931044 
L 234.371598 -172.653736 
L 236.80113 -172.254043 
L 239.230662 -172.16768 
L 241.660194 -172.073991 
L 244.089726 -171.856757 
L 246.519258 -171.307183 
L 248.94879 -171.474852 
L 251.378322 -171.811902 
L 253.807854 -171.458629 
L 256.237386 -171.479182 
L 258.666918 -169.904227 
L 261.09645 -169.646162 
L 263.525982 -169.485738 
L 265.955513 -169.492893 
L 268.385045 -169.496395 
L 270.814577 -168.581154 
L 273.244109 -168.053939 
L 275.673641 -167.527897 
L 278.103173 -166.305692 
L 280.532705 -165.902858 
L 282.962237 -164.971745 
L 285.391769 -164.247879 
L 287.821301 -163.598943 
L 290.250833 -163.140487 
L 292.680365 -162.474596 
L 295.109897 -161.240064 
L 297.539429 -160.558505 
L 299.968961 -158.997086 
L 302.398493 -157.888568 
L 304.828025 -156.692421 
L 307.257557 -155.727126 
L 309.687089 -154.780605 
L 312.116621 -153.414485 
L 314.546152 -152.048365 
L 316.975684 -150.694255 
L 319.405216 -149.690559 
L 321.834748 -149.037833 
L 324.26428 -147.746898 
L 326.693812 -146.175751 
L 329.123344 -144.802607 
L 329.123344 -277.437341 
L 329.123344 -277.437341 
L 326.693812 -276.008911 
L 324.26428 -274.73785 
L 321.834748 -273.366681 
L 319.405216 -271.956428 
L 316.975684 -270.411618 
L 314.546152 -269.038604 
L 312.116621 -267.66559 
L 309.687089 -266.292575 
L 307.257557 -264.958071 
L 304.828025 -263.776027 
L 302.398493 -262.416659 
L 299.968961 -261.329858 
L 297.539429 -260.174731 
L 295.109897 -258.651445 
L 292.680365 -257.125906 
L 290.250833 -255.588042 
L 287.821301 -254.364298 
L 285.391769 -253.883537 
L 282.962237 -252.384684 
L 280.532705 -250.949467 
L 278.103173 -250.238306 
L 275.673641 -249.551883 
L 273.244109 -248.583477 
L 270.814577 -247.079838 
L 268.385045 -246.120307 
L 265.955513 -245.15354 
L 263.525982 -244.19968 
L 261.09645 -243.245439 
L 258.666918 -242.291961 
L 256.237386 -241.338101 
L 253.807854 -240.371907 
L 251.378322 -239.398289 
L 248.94879 -238.204244 
L 246.519258 -237.226555 
L 244.089726 -236.022897 
L 241.660194 -235.384009 
L 239.230662 -234.937883 
L 236.80113 -234.276027 
L 234.371598 -233.912083 
L 231.942066 -233.312006 
L 229.512534 -232.940472 
L 227.083002 -232.563951 
L 224.65347 -232.434479 
L 222.223938 -231.969211 
L 219.794406 -231.507639 
L 217.364874 -231.260426 
L 214.935342 -230.729113 
L 212.505811 -231.145321 
L 210.076279 -231.476087 
L 207.646747 -231.356529 
L 205.217215 -232.450041 
L 202.787683 -233.543552 
L 200.358151 -234.625829 
L 197.928619 -235.272441 
L 195.499087 -236.356451 
L 193.069555 -237.564041 
L 190.640023 -238.768046 
L 188.210491 -240.01574 
L 185.780959 -241.183832 
L 183.351427 -242.355317 
L 180.921895 -243.599054 
L 178.492363 -244.807511 
L 176.062831 -246.015404 
L 173.633299 -247.223297 
L 171.203767 -248.43119 
L 168.774235 -249.520253 
L 166.344703 -250.273624 
L 163.915172 -251.818813 
L 161.48564 -253.270636 
L 159.056108 -254.470308 
L 156.626576 -255.677899 
L 154.197044 -256.885489 
L 151.767512 -258.09308 
L 149.33798 -259.647564 
L 146.908448 -260.866796 
L 144.478916 -262.130643 
L 142.049384 -263.403351 
L 139.619852 -264.84525 
L 137.19032 -266.220964 
L 134.760788 -267.589433 
L 132.331256 -268.957746 
L 129.901724 -270.725514 
L 127.472192 -272.232359 
L 125.04266 -273.485552 
L 122.613128 -275.355416 
L 120.183596 -276.935587 
L 117.754064 -278.265547 
L 115.324533 -279.595507 
L 112.895001 -281.058671 
L 110.465469 -282.395815 
L 108.035937 -283.787177 
L 105.606405 -285.271425 
L 103.176873 -286.760704 
L 100.747341 -288.249984 
L 98.317809 -289.823287 
L 95.888277 -291.399855 
L 93.458745 -292.976423 
L 91.029213 -294.552991 
L 88.599681 -296.129559 
z
" style="stroke: #ffffff; stroke-opacity: 0.15"/>
    </defs>
    <g clip-path="url(#p554d43f514)">
     <use xlink:href="#m3cd553950e" x="0" y="347.904844" style="fill: #443983; fill-opacity: 0.15; stroke: #ffffff; stroke-opacity: 0.15"/>
    </g>
   </g>
   <g id="PathCollection_2">
    <defs>
     <path id="m55290dfe9b" d="M 0 3 
C 0.795609 3 1.55874 2.683901 2.12132 2.12132 
C 2.683901 1.55874 3 0.795609 3 0 
C 3 -0.795609 2.683901 -1.55874 2.12132 -2.12132 
C 1.55874 -2.683901 0.795609 -3 0 -3 
C -0.795609 -3 -1.55874 -2.683901 -2.12132 -2.12132 
C -2.683901 -1.55874 -3 -0.795609 -3 0 
C -3 0.795609 -2.683901 1.55874 -2.12132 2.12132 
C -1.55874 2.683901 -0.795609 3 0 3 
z
" style="stroke: #31688e; stroke-opacity: 0.8"/>
    </defs>
    <g clip-path="url(#p554d43f514)">
     <use xlink:href="#m55290dfe9b" x="88.599681" y="53.534713" style="fill: #31688e; fill-opacity: 0.8; stroke: #31688e; stroke-opacity: 0.8"/>
     <use xlink:href="#m55290dfe9b" x="242.781516" y="149.54038" style="fill: #31688e; fill-opacity: 0.8; stroke: #31688e; stroke-opacity: 0.8"/>
     <use xlink:href="#m55290dfe9b" x="131.770595" y="149.385558" style="fill: #31688e; fill-opacity: 0.8; stroke: #31688e; stroke-opacity: 0.8"/>
     <use xlink:href="#m55290dfe9b" x="193.443329" y="159.378841" style="fill: #31688e; fill-opacity: 0.8; stroke: #31688e; stroke-opacity: 0.8"/>
     <use xlink:href="#m55290dfe9b" x="310.621524" y="236.475636" style="fill: #31688e; fill-opacity: 0.8; stroke: #31688e; stroke-opacity: 0.8"/>
     <use xlink:href="#m55290dfe9b" x="174.941509" y="157.25908" style="fill: #31688e; fill-opacity: 0.8; stroke: #31688e; stroke-opacity: 0.8"/>
     <use xlink:href="#m55290dfe9b" x="205.777876" y="199.424936" style="fill: #31688e; fill-opacity: 0.8; stroke: #31688e; stroke-opacity: 0.8"/>
     <use xlink:href="#m55290dfe9b" x="242.781516" y="194.677808" style="fill: #31688e; fill-opacity: 0.8; stroke: #31688e; stroke-opacity: 0.8"/>
     <use xlink:href="#m55290dfe9b" x="63.930587" y="223.313806" style="fill: #31688e; fill-opacity: 0.8; stroke: #31688e; stroke-opacity: 0.8"/>
     <use xlink:href="#m55290dfe9b" x="298.286977" y="149.92146" style="fill: #31688e; fill-opacity: 0.8; stroke: #31688e; stroke-opacity: 0.8"/>
     <use xlink:href="#m55290dfe9b" x="119.436048" y="164.877137" style="fill: #31688e; fill-opacity: 0.8; stroke: #31688e; stroke-opacity: 0.8"/>
     <use xlink:href="#m55290dfe9b" x="94.766954" y="204.110153" style="fill: #31688e; fill-opacity: 0.8; stroke: #31688e; stroke-opacity: 0.8"/>
     <use xlink:href="#m55290dfe9b" x="174.941509" y="126.308946" style="fill: #31688e; fill-opacity: 0.8; stroke: #31688e; stroke-opacity: 0.8"/>
     <use xlink:href="#m55290dfe9b" x="70.097861" y="96.505864" style="fill: #31688e; fill-opacity: 0.8; stroke: #31688e; stroke-opacity: 0.8"/>
     <use xlink:href="#m55290dfe9b" x="261.283337" y="146.858397" style="fill: #31688e; fill-opacity: 0.8; stroke: #31688e; stroke-opacity: 0.8"/>
     <use xlink:href="#m55290dfe9b" x="242.781516" y="185.958735" style="fill: #31688e; fill-opacity: 0.8; stroke: #31688e; stroke-opacity: 0.8"/>
     <use xlink:href="#m55290dfe9b" x="236.614243" y="198.487276" style="fill: #31688e; fill-opacity: 0.8; stroke: #31688e; stroke-opacity: 0.8"/>
     <use xlink:href="#m55290dfe9b" x="70.097861" y="69.066259" style="fill: #31688e; fill-opacity: 0.8; stroke: #31688e; stroke-opacity: 0.8"/>
    </g>
   </g>
   <g id="PolyCollection_2">
    <defs>
     <path id="m67bf29f30d" d="M 63.930587 -268.301266 
L 63.930587 -161.676097 
L 66.422415 -161.939293 
L 68.914243 -162.202489 
L 71.40607 -162.465686 
L 73.897898 -162.728882 
L 76.389726 -162.985782 
L 78.881553 -163.153517 
L 81.373381 -163.321252 
L 83.865209 -163.477551 
L 86.357036 -163.562112 
L 88.848864 -163.646673 
L 91.340691 -163.731235 
L 93.832519 -163.815796 
L 96.324347 -163.900358 
L 98.816174 -163.984919 
L 101.308002 -164.069481 
L 103.79983 -164.154042 
L 106.291657 -164.249962 
L 108.783485 -164.419329 
L 111.275313 -164.588697 
L 113.76714 -164.758064 
L 116.258968 -164.92884 
L 118.750796 -165.101753 
L 121.242623 -165.102306 
L 123.734451 -165.290175 
L 126.226278 -165.507239 
L 128.718106 -165.725703 
L 131.209934 -165.946578 
L 133.701761 -166.124295 
L 136.193589 -166.302013 
L 138.685417 -166.459949 
L 141.177244 -166.642693 
L 143.669072 -166.812182 
L 146.1609 -166.987925 
L 148.652727 -167.014886 
L 151.144555 -166.992843 
L 153.636383 -167.165587 
L 156.12821 -167.310511 
L 158.620038 -167.652546 
L 161.111865 -167.612704 
L 163.603693 -167.460148 
L 166.095521 -166.96312 
L 168.587348 -166.709272 
L 171.079176 -167.108728 
L 173.571004 -166.878718 
L 176.062831 -166.6108 
L 178.554659 -166.618807 
L 181.046487 -166.692297 
L 183.538314 -166.478491 
L 186.030142 -166.219924 
L 188.521969 -165.947802 
L 191.013797 -165.417602 
L 193.505625 -165.312649 
L 195.997452 -165.143082 
L 198.48928 -164.941168 
L 200.981108 -164.600679 
L 203.472935 -164.305463 
L 205.964763 -163.816488 
L 208.456591 -163.580103 
L 210.948418 -162.942301 
L 213.440246 -162.640415 
L 215.932074 -161.983535 
L 218.423901 -161.317016 
L 220.915729 -160.659041 
L 223.407556 -160.118832 
L 225.899384 -159.296376 
L 228.391212 -158.4189 
L 230.883039 -157.246159 
L 233.374867 -156.292514 
L 235.866695 -155.541918 
L 238.358522 -154.201667 
L 240.85035 -152.713674 
L 243.342178 -151.335567 
L 245.834005 -150.098846 
L 248.325833 -148.851405 
L 250.817661 -147.611907 
L 253.309488 -146.277937 
L 255.801316 -145.131231 
L 258.293143 -143.900926 
L 260.784971 -142.980818 
L 263.276799 -142.016426 
L 265.768626 -140.802485 
L 268.260454 -139.511453 
L 270.752282 -138.220343 
L 273.244109 -136.921965 
L 275.735937 -135.940895 
L 278.227765 -134.725306 
L 280.719592 -133.498174 
L 283.21142 -132.290224 
L 285.703248 -130.92178 
L 288.195075 -129.553337 
L 290.686903 -128.184894 
L 293.17873 -126.81645 
L 295.670558 -125.384256 
L 298.162386 -124.083556 
L 300.654213 -122.83561 
L 303.146041 -121.593259 
L 305.637869 -120.350908 
L 308.129696 -118.963133 
L 310.621524 -117.562858 
L 310.621524 -189.04883 
L 310.621524 -189.04883 
L 308.129696 -188.915312 
L 305.637869 -188.701638 
L 303.146041 -188.475745 
L 300.654213 -188.247581 
L 298.162386 -188.019417 
L 295.670558 -187.792894 
L 293.17873 -187.717967 
L 290.686903 -187.775975 
L 288.195075 -187.832396 
L 285.703248 -187.87877 
L 283.21142 -187.820056 
L 280.719592 -187.952898 
L 278.227765 -188.035524 
L 275.735937 -188.026165 
L 273.244109 -188.081453 
L 270.752282 -188.128104 
L 268.260454 -188.081739 
L 265.768626 -188.041295 
L 263.276799 -188.304366 
L 260.784971 -188.471709 
L 258.293143 -188.812918 
L 255.801316 -189.223077 
L 253.309488 -189.56918 
L 250.817661 -189.8112 
L 248.325833 -189.960661 
L 245.834005 -190.482896 
L 243.342178 -190.894672 
L 240.85035 -191.334996 
L 238.358522 -192.087401 
L 235.866695 -192.165194 
L 233.374867 -192.781248 
L 230.883039 -193.210544 
L 228.391212 -193.475941 
L 225.899384 -193.746787 
L 223.407556 -194.311982 
L 220.915729 -194.488741 
L 218.423901 -195.167377 
L 215.932074 -195.622312 
L 213.440246 -196.359211 
L 210.948418 -197.062848 
L 208.456591 -197.850427 
L 205.964763 -198.593965 
L 203.472935 -199.268487 
L 200.981108 -200.054947 
L 198.48928 -200.846144 
L 195.997452 -201.790947 
L 193.505625 -202.939619 
L 191.013797 -204.142327 
L 188.521969 -205.170296 
L 186.030142 -206.188364 
L 183.538314 -207.093176 
L 181.046487 -207.994355 
L 178.554659 -208.797599 
L 176.062831 -210.0823 
L 173.571004 -211.293379 
L 171.079176 -212.418475 
L 168.587348 -213.341146 
L 166.095521 -214.377274 
L 163.603693 -215.40014 
L 161.111865 -216.423007 
L 158.620038 -217.445873 
L 156.12821 -218.964691 
L 153.636383 -220.214841 
L 151.144555 -221.301367 
L 148.652727 -222.366842 
L 146.1609 -223.41812 
L 143.669072 -224.574017 
L 141.177244 -225.626311 
L 138.685417 -226.587674 
L 136.193589 -227.984958 
L 133.701761 -229.483251 
L 131.209934 -230.921417 
L 128.718106 -232.148302 
L 126.226278 -233.328677 
L 123.734451 -234.73035 
L 121.242623 -235.8102 
L 118.750796 -237.160413 
L 116.258968 -238.540869 
L 113.76714 -239.948587 
L 111.275313 -241.158 
L 108.783485 -242.393095 
L 106.291657 -243.819906 
L 103.79983 -245.33397 
L 101.308002 -246.844248 
L 98.816174 -248.355451 
L 96.324347 -249.870159 
L 93.832519 -251.384866 
L 91.340691 -252.755506 
L 88.848864 -253.910011 
L 86.357036 -255.309933 
L 83.865209 -256.798587 
L 81.373381 -258.282022 
L 78.881553 -259.76263 
L 76.389726 -261.1217 
L 73.897898 -262.34252 
L 71.40607 -263.976969 
L 68.914243 -265.611102 
L 66.422415 -266.999759 
L 63.930587 -268.301266 
z
" style="stroke: #ffffff; stroke-opacity: 0.15"/>
    </defs>
    <g clip-path="url(#p554d43f514)">
     <use xlink:href="#m67bf29f30d" x="0" y="347.904844" style="fill: #31688e; fill-opacity: 0.15; stroke: #ffffff; stroke-opacity: 0.15"/>
    </g>
   </g>
   <g id="PathCollection_3">
    <defs>
     <path id="m655c794934" d="M 0 3 
C 0.795609 3 1.55874 2.683901 2.12132 2.12132 
C 2.683901 1.55874 3 0.795609 3 0 
C 3 -0.795609 2.683901 -1.55874 2.12132 -2.12132 
C 1.55874 -2.683901 0.795609 -3 0 -3 
C -0.795609 -3 -1.55874 -2.683901 -2.12132 -2.12132 
C -2.683901 -1.55874 -3 -0.795609 -3 0 
C -3 0.795609 -2.683901 1.55874 -2.12132 2.12132 
C -1.55874 2.683901 -0.795609 3 0 3 
z
" style="stroke: #21918c; stroke-opacity: 0.8"/>
    </defs>
    <g clip-path="url(#p554d43f514)">
     <use xlink:href="#m655c794934" x="162.606962" y="103.844732" style="fill: #21918c; fill-opacity: 0.8; stroke: #21918c; stroke-opacity: 0.8"/>
     <use xlink:href="#m655c794934" x="156.439689" y="210.224021" style="fill: #21918c; fill-opacity: 0.8; stroke: #21918c; stroke-opacity: 0.8"/>
     <use xlink:href="#m655c794934" x="174.941509" y="199.8752" style="fill: #21918c; fill-opacity: 0.8; stroke: #21918c; stroke-opacity: 0.8"/>
     <use xlink:href="#m655c794934" x="242.781516" y="195.69697" style="fill: #21918c; fill-opacity: 0.8; stroke: #21918c; stroke-opacity: 0.8"/>
     <use xlink:href="#m655c794934" x="137.937868" y="156.331553" style="fill: #21918c; fill-opacity: 0.8; stroke: #21918c; stroke-opacity: 0.8"/>
     <use xlink:href="#m655c794934" x="304.454251" y="222.149762" style="fill: #21918c; fill-opacity: 0.8; stroke: #21918c; stroke-opacity: 0.8"/>
     <use xlink:href="#m655c794934" x="218.112423" y="267.560627" style="fill: #21918c; fill-opacity: 0.8; stroke: #21918c; stroke-opacity: 0.8"/>
     <use xlink:href="#m655c794934" x="279.785157" y="202.763476" style="fill: #21918c; fill-opacity: 0.8; stroke: #21918c; stroke-opacity: 0.8"/>
     <use xlink:href="#m655c794934" x="298.286977" y="159.7213" style="fill: #21918c; fill-opacity: 0.8; stroke: #21918c; stroke-opacity: 0.8"/>
     <use xlink:href="#m655c794934" x="218.112423" y="212.097509" style="fill: #21918c; fill-opacity: 0.8; stroke: #21918c; stroke-opacity: 0.8"/>
     <use xlink:href="#m655c794934" x="125.603322" y="155.608096" style="fill: #21918c; fill-opacity: 0.8; stroke: #21918c; stroke-opacity: 0.8"/>
     <use xlink:href="#m655c794934" x="82.432408" y="208.269918" style="fill: #21918c; fill-opacity: 0.8; stroke: #21918c; stroke-opacity: 0.8"/>
     <use xlink:href="#m655c794934" x="144.105142" y="292.446818" style="fill: #21918c; fill-opacity: 0.8; stroke: #21918c; stroke-opacity: 0.8"/>
     <use xlink:href="#m655c794934" x="316.788797" y="212.821204" style="fill: #21918c; fill-opacity: 0.8; stroke: #21918c; stroke-opacity: 0.8"/>
     <use xlink:href="#m655c794934" x="76.265134" y="91.305538" style="fill: #21918c; fill-opacity: 0.8; stroke: #21918c; stroke-opacity: 0.8"/>
     <use xlink:href="#m655c794934" x="70.097861" y="34.851462" style="fill: #21918c; fill-opacity: 0.8; stroke: #21918c; stroke-opacity: 0.8"/>
     <use xlink:href="#m655c794934" x="57.763314" y="216.510864" style="fill: #21918c; fill-opacity: 0.8; stroke: #21918c; stroke-opacity: 0.8"/>
     <use xlink:href="#m655c794934" x="322.956071" y="177.702913" style="fill: #21918c; fill-opacity: 0.8; stroke: #21918c; stroke-opacity: 0.8"/>
     <use xlink:href="#m655c794934" x="76.265134" y="82.605098" style="fill: #21918c; fill-opacity: 0.8; stroke: #21918c; stroke-opacity: 0.8"/>
     <use xlink:href="#m655c794934" x="211.945149" y="231.969642" style="fill: #21918c; fill-opacity: 0.8; stroke: #21918c; stroke-opacity: 0.8"/>
     <use xlink:href="#m655c794934" x="144.105142" y="126.393023" style="fill: #21918c; fill-opacity: 0.8; stroke: #21918c; stroke-opacity: 0.8"/>
     <use xlink:href="#m655c794934" x="113.268775" y="115.876037" style="fill: #21918c; fill-opacity: 0.8; stroke: #21918c; stroke-opacity: 0.8"/>
    </g>
   </g>
   <g id="PolyCollection_3">
    <defs>
     <path id="m9006c91a3e" d="M 57.763314 -255.801489 
L 57.763314 -160.753319 
L 60.442029 -160.458921 
L 63.120743 -160.164524 
L 65.799458 -159.903345 
L 68.478173 -159.630235 
L 71.156888 -159.48621 
L 73.835602 -159.527824 
L 76.514317 -159.267864 
L 79.193032 -158.788604 
L 81.871746 -158.309345 
L 84.550461 -157.830085 
L 87.229176 -157.528006 
L 89.907891 -157.228894 
L 92.586605 -156.934802 
L 95.26532 -156.785539 
L 97.944035 -156.763265 
L 100.622749 -156.740992 
L 103.301464 -156.718719 
L 105.980179 -156.174178 
L 108.658894 -155.508921 
L 111.337608 -155.01907 
L 114.016323 -154.964581 
L 116.695038 -154.910091 
L 119.373752 -154.855601 
L 122.052467 -154.801111 
L 124.731182 -154.6804 
L 127.409897 -154.108048 
L 130.088611 -153.535696 
L 132.767326 -153.077394 
L 135.446041 -152.915634 
L 138.124755 -152.720542 
L 140.80347 -152.184875 
L 143.482185 -151.943787 
L 146.1609 -151.700603 
L 148.839614 -151.575508 
L 151.518329 -151.139087 
L 154.197044 -150.259336 
L 156.875758 -150.057714 
L 159.554473 -150.105915 
L 162.233188 -150.001208 
L 164.911903 -149.427708 
L 167.590617 -149.222488 
L 170.269332 -148.929374 
L 172.948047 -148.112063 
L 175.626761 -147.551434 
L 178.305476 -146.863912 
L 180.984191 -146.259854 
L 183.662906 -145.937716 
L 186.34162 -145.589491 
L 189.020335 -145.026302 
L 191.69905 -143.861001 
L 194.377764 -143.089785 
L 197.056479 -142.413811 
L 199.735194 -141.722542 
L 202.413909 -140.789957 
L 205.092623 -139.96576 
L 207.771338 -139.277816 
L 210.450053 -137.997887 
L 213.128767 -136.905549 
L 215.807482 -135.553355 
L 218.486197 -134.298694 
L 221.164912 -133.715956 
L 223.843626 -132.664937 
L 226.522341 -132.15515 
L 229.201056 -130.70975 
L 231.87977 -129.20656 
L 234.558485 -127.703371 
L 237.2372 -126.200645 
L 239.915915 -124.703837 
L 242.594629 -123.207028 
L 245.273344 -121.415113 
L 247.952059 -120.253383 
L 250.630773 -119.59132 
L 253.309488 -118.114028 
L 255.988203 -116.392177 
L 258.666918 -114.931305 
L 261.345632 -113.468596 
L 264.024347 -112.188668 
L 266.703062 -110.275211 
L 269.381776 -108.570068 
L 272.060491 -107.120059 
L 274.739206 -106.137838 
L 277.417921 -105.155618 
L 280.096635 -103.678025 
L 282.77535 -102.000799 
L 285.454065 -100.295577 
L 288.132779 -98.590355 
L 290.811494 -96.885133 
L 293.490209 -95.064632 
L 296.168924 -93.233903 
L 298.847638 -91.666255 
L 301.526353 -90.060521 
L 304.205068 -88.603749 
L 306.883782 -87.1511 
L 309.562497 -85.65963 
L 312.241212 -84.373494 
L 314.919927 -82.960778 
L 317.598641 -81.528671 
L 320.277356 -79.927662 
L 322.956071 -78.46063 
L 322.956071 -156.972081 
L 322.956071 -156.972081 
L 320.277356 -157.154569 
L 317.598641 -157.645899 
L 314.919927 -158.061172 
L 312.241212 -158.500411 
L 309.562497 -158.932193 
L 306.883782 -159.320446 
L 304.205068 -159.407415 
L 301.526353 -159.646048 
L 298.847638 -159.97284 
L 296.168924 -160.081601 
L 293.490209 -160.577082 
L 290.811494 -160.806478 
L 288.132779 -161.245955 
L 285.454065 -161.640901 
L 282.77535 -161.879537 
L 280.096635 -162.308125 
L 277.417921 -162.906478 
L 274.739206 -163.290047 
L 272.060491 -163.314031 
L 269.381776 -163.642025 
L 266.703062 -164.283083 
L 264.024347 -165.397473 
L 261.345632 -166.582693 
L 258.666918 -167.38292 
L 255.988203 -167.824809 
L 253.309488 -168.26256 
L 250.630773 -169.252675 
L 247.952059 -170.020832 
L 245.273344 -170.920045 
L 242.594629 -171.406467 
L 239.915915 -171.823868 
L 237.2372 -172.09355 
L 234.558485 -173.087193 
L 231.87977 -174.075826 
L 229.201056 -174.851756 
L 226.522341 -175.852636 
L 223.843626 -176.65156 
L 221.164912 -177.646218 
L 218.486197 -178.640137 
L 215.807482 -179.632599 
L 213.128767 -180.648132 
L 210.450053 -181.518111 
L 207.771338 -182.605605 
L 205.092623 -183.602449 
L 202.413909 -184.594912 
L 199.735194 -185.583774 
L 197.056479 -186.692956 
L 194.377764 -187.782909 
L 191.69905 -188.635583 
L 189.020335 -189.880231 
L 186.34162 -190.774449 
L 183.662906 -191.975603 
L 180.984191 -193.317768 
L 178.305476 -194.471892 
L 175.626761 -195.436245 
L 172.948047 -196.414745 
L 170.269332 -197.654629 
L 167.590617 -198.85411 
L 164.911903 -199.890671 
L 162.233188 -200.941778 
L 159.554473 -202.154837 
L 156.875758 -203.476218 
L 154.197044 -204.748599 
L 151.518329 -206.015222 
L 148.839614 -207.473094 
L 146.1609 -208.860169 
L 143.482185 -210.193745 
L 140.80347 -211.446727 
L 138.124755 -212.632186 
L 135.446041 -214.215924 
L 132.767326 -215.393507 
L 130.088611 -216.89083 
L 127.409897 -218.276377 
L 124.731182 -219.833617 
L 122.052467 -221.078936 
L 119.373752 -222.333045 
L 116.695038 -223.615011 
L 114.016323 -225.277279 
L 111.337608 -226.931037 
L 108.658894 -228.577328 
L 105.980179 -229.875578 
L 103.301464 -231.167813 
L 100.622749 -232.689551 
L 97.944035 -233.770628 
L 95.26532 -234.972146 
L 92.586605 -236.095181 
L 89.907891 -237.579587 
L 87.229176 -239.078021 
L 84.550461 -240.685896 
L 81.871746 -242.235269 
L 79.193032 -243.784642 
L 76.514317 -245.334016 
L 73.835602 -246.793664 
L 71.156888 -248.276381 
L 68.478173 -249.568936 
L 65.799458 -251.260746 
L 63.120743 -252.816196 
L 60.442029 -254.449411 
L 57.763314 -255.801489 
z
" style="stroke: #ffffff; stroke-opacity: 0.15"/>
    </defs>
    <g clip-path="url(#p554d43f514)">
     <use xlink:href="#m9006c91a3e" x="0" y="347.904844" style="fill: #21918c; fill-opacity: 0.15; stroke: #ffffff; stroke-opacity: 0.15"/>
    </g>
   </g>
   <g id="PathCollection_4">
    <defs>
     <path id="ma2930f0ed9" d="M 0 3 
C 0.795609 3 1.55874 2.683901 2.12132 2.12132 
C 2.683901 1.55874 3 0.795609 3 0 
C 3 -0.795609 2.683901 -1.55874 2.12132 -2.12132 
C 1.55874 -2.683901 0.795609 -3 0 -3 
C -0.795609 -3 -1.55874 -2.683901 -2.12132 -2.12132 
C -2.683901 -1.55874 -3 -0.795609 -3 0 
C -3 0.795609 -2.683901 1.55874 -2.12132 2.12132 
C -1.55874 2.683901 -0.795609 3 0 3 
z
" style="stroke: #35b779; stroke-opacity: 0.8"/>
    </defs>
    <g clip-path="url(#p554d43f514)">
     <use xlink:href="#ma2930f0ed9" x="181.108782" y="175.859396" style="fill: #35b779; fill-opacity: 0.8; stroke: #35b779; stroke-opacity: 0.8"/>
     <use xlink:href="#ma2930f0ed9" x="316.788797" y="261.785457" style="fill: #35b779; fill-opacity: 0.8; stroke: #35b779; stroke-opacity: 0.8"/>
     <use xlink:href="#ma2930f0ed9" x="150.272415" y="256.417422" style="fill: #35b779; fill-opacity: 0.8; stroke: #35b779; stroke-opacity: 0.8"/>
     <use xlink:href="#ma2930f0ed9" x="236.614243" y="126.466466" style="fill: #35b779; fill-opacity: 0.8; stroke: #35b779; stroke-opacity: 0.8"/>
     <use xlink:href="#ma2930f0ed9" x="273.617883" y="69.157876" style="fill: #35b779; fill-opacity: 0.8; stroke: #35b779; stroke-opacity: 0.8"/>
     <use xlink:href="#ma2930f0ed9" x="125.603322" y="113.918425" style="fill: #35b779; fill-opacity: 0.8; stroke: #35b779; stroke-opacity: 0.8"/>
     <use xlink:href="#ma2930f0ed9" x="218.112423" y="169.049018" style="fill: #35b779; fill-opacity: 0.8; stroke: #35b779; stroke-opacity: 0.8"/>
     <use xlink:href="#ma2930f0ed9" x="88.599681" y="160.299697" style="fill: #35b779; fill-opacity: 0.8; stroke: #35b779; stroke-opacity: 0.8"/>
     <use xlink:href="#ma2930f0ed9" x="168.774235" y="130.499958" style="fill: #35b779; fill-opacity: 0.8; stroke: #35b779; stroke-opacity: 0.8"/>
     <use xlink:href="#ma2930f0ed9" x="63.930587" y="38.203426" style="fill: #35b779; fill-opacity: 0.8; stroke: #35b779; stroke-opacity: 0.8"/>
     <use xlink:href="#ma2930f0ed9" x="156.439689" y="237.016779" style="fill: #35b779; fill-opacity: 0.8; stroke: #35b779; stroke-opacity: 0.8"/>
     <use xlink:href="#ma2930f0ed9" x="162.606962" y="79.089766" style="fill: #35b779; fill-opacity: 0.8; stroke: #35b779; stroke-opacity: 0.8"/>
     <use xlink:href="#ma2930f0ed9" x="107.101501" y="163.382887" style="fill: #35b779; fill-opacity: 0.8; stroke: #35b779; stroke-opacity: 0.8"/>
     <use xlink:href="#ma2930f0ed9" x="150.272415" y="184.188213" style="fill: #35b779; fill-opacity: 0.8; stroke: #35b779; stroke-opacity: 0.8"/>
     <use xlink:href="#ma2930f0ed9" x="236.614243" y="171.099592" style="fill: #35b779; fill-opacity: 0.8; stroke: #35b779; stroke-opacity: 0.8"/>
     <use xlink:href="#ma2930f0ed9" x="218.112423" y="76.603494" style="fill: #35b779; fill-opacity: 0.8; stroke: #35b779; stroke-opacity: 0.8"/>
     <use xlink:href="#ma2930f0ed9" x="298.286977" y="159.578457" style="fill: #35b779; fill-opacity: 0.8; stroke: #35b779; stroke-opacity: 0.8"/>
     <use xlink:href="#ma2930f0ed9" x="236.614243" y="109.395978" style="fill: #35b779; fill-opacity: 0.8; stroke: #35b779; stroke-opacity: 0.8"/>
     <use xlink:href="#ma2930f0ed9" x="230.44697" y="41.543741" style="fill: #35b779; fill-opacity: 0.8; stroke: #35b779; stroke-opacity: 0.8"/>
     <use xlink:href="#ma2930f0ed9" x="70.097861" y="169.767593" style="fill: #35b779; fill-opacity: 0.8; stroke: #35b779; stroke-opacity: 0.8"/>
     <use xlink:href="#ma2930f0ed9" x="82.432408" y="209.080745" style="fill: #35b779; fill-opacity: 0.8; stroke: #35b779; stroke-opacity: 0.8"/>
     <use xlink:href="#ma2930f0ed9" x="316.788797" y="136.678731" style="fill: #35b779; fill-opacity: 0.8; stroke: #35b779; stroke-opacity: 0.8"/>
    </g>
   </g>
   <g id="PolyCollection_4">
    <defs>
     <path id="m540e07f02f" d="M 63.930587 -247.488596 
L 63.930587 -145.394044 
L 66.484711 -146.464239 
L 69.038834 -147.261086 
L 71.592957 -148.160209 
L 74.147081 -149.118035 
L 76.701204 -149.888557 
L 79.255327 -150.813564 
L 81.809451 -152.116714 
L 84.363574 -153.249114 
L 86.917697 -154.271936 
L 89.471821 -155.389522 
L 92.025944 -156.546291 
L 94.580067 -157.699694 
L 97.134191 -158.78103 
L 99.688314 -159.375357 
L 102.242437 -160.383362 
L 104.796561 -161.304202 
L 107.350684 -162.148935 
L 109.904807 -162.864637 
L 112.458931 -163.537005 
L 115.013054 -164.286135 
L 117.567177 -165.324892 
L 120.121301 -165.914368 
L 122.675424 -166.76198 
L 125.229547 -167.564984 
L 127.783671 -168.191532 
L 130.337794 -168.702592 
L 132.891917 -169.25897 
L 135.446041 -169.825743 
L 138.000164 -170.431802 
L 140.554287 -170.97347 
L 143.108411 -171.535662 
L 145.662534 -171.841946 
L 148.216657 -172.553404 
L 150.770781 -173.166187 
L 153.324904 -173.127513 
L 155.879027 -173.662688 
L 158.433151 -173.575835 
L 160.987274 -173.516751 
L 163.541397 -173.404428 
L 166.095521 -173.307904 
L 168.649644 -173.30791 
L 171.203767 -174.244303 
L 173.757891 -174.364824 
L 176.312014 -174.60426 
L 178.866137 -174.641112 
L 181.420261 -174.345825 
L 183.974384 -174.613888 
L 186.528507 -174.540825 
L 189.082631 -174.621314 
L 191.636754 -174.388031 
L 194.190877 -174.168383 
L 196.745001 -174.026486 
L 199.299124 -173.66494 
L 201.853247 -173.399855 
L 204.407371 -172.886708 
L 206.961494 -172.93501 
L 209.515617 -172.982457 
L 212.069741 -172.814742 
L 214.623864 -172.169366 
L 217.177987 -171.738456 
L 219.732111 -171.583182 
L 222.286234 -171.251193 
L 224.840357 -171.041032 
L 227.394481 -170.712358 
L 229.948604 -170.017021 
L 232.502727 -169.647351 
L 235.056851 -169.321547 
L 237.610974 -168.388056 
L 240.165097 -167.656423 
L 242.719221 -167.012633 
L 245.273344 -166.378875 
L 247.827467 -166.212314 
L 250.381591 -166.093663 
L 252.935714 -165.913311 
L 255.489837 -165.382308 
L 258.043961 -164.48918 
L 260.598084 -164.035798 
L 263.152207 -163.410775 
L 265.706331 -163.00291 
L 268.260454 -162.367469 
L 270.814577 -161.691009 
L 273.368701 -161.014549 
L 275.922824 -160.338089 
L 278.476947 -159.607283 
L 281.031071 -158.97502 
L 283.585194 -158.289597 
L 286.139317 -157.604174 
L 288.693441 -156.690457 
L 291.247564 -155.735252 
L 293.801687 -154.785147 
L 296.355811 -153.903355 
L 298.909934 -153.31462 
L 301.464057 -152.729816 
L 304.018181 -151.996583 
L 306.572304 -151.197105 
L 309.126427 -150.571854 
L 311.680551 -149.89009 
L 314.234674 -149.095871 
L 316.788797 -148.296392 
L 316.788797 -271.373845 
L 316.788797 -271.373845 
L 314.234674 -270.174369 
L 311.680551 -268.974893 
L 309.126427 -267.775417 
L 306.572304 -266.575941 
L 304.018181 -265.447462 
L 301.464057 -264.522213 
L 298.909934 -263.596964 
L 296.355811 -262.671715 
L 293.801687 -261.651372 
L 291.247564 -260.499742 
L 288.693441 -259.44567 
L 286.139317 -258.759667 
L 283.585194 -257.159547 
L 281.031071 -255.670902 
L 278.476947 -254.37684 
L 275.922824 -253.334184 
L 273.368701 -252.291529 
L 270.814577 -251.231054 
L 268.260454 -250.044663 
L 265.706331 -248.671795 
L 263.152207 -247.449631 
L 260.598084 -246.600248 
L 258.043961 -246.001275 
L 255.489837 -245.016638 
L 252.935714 -243.912798 
L 250.381591 -242.598108 
L 247.827467 -241.893249 
L 245.273344 -240.867655 
L 242.719221 -239.826226 
L 240.165097 -238.784796 
L 237.610974 -237.743367 
L 235.056851 -237.036903 
L 232.502727 -236.10925 
L 229.948604 -235.795774 
L 227.394481 -235.325984 
L 224.840357 -234.218501 
L 222.286234 -233.047645 
L 219.732111 -232.223991 
L 217.177987 -231.375218 
L 214.623864 -230.362453 
L 212.069741 -230.103078 
L 209.515617 -229.872787 
L 206.961494 -229.420963 
L 204.407371 -229.004044 
L 201.853247 -228.660275 
L 199.299124 -227.73741 
L 196.745001 -227.337059 
L 194.190877 -227.794151 
L 191.636754 -228.029312 
L 189.082631 -227.829104 
L 186.528507 -227.849113 
L 183.974384 -227.937298 
L 181.420261 -227.740053 
L 178.866137 -228.340717 
L 176.312014 -228.407593 
L 173.757891 -227.846539 
L 171.203767 -227.786567 
L 168.649644 -227.978033 
L 166.095521 -228.639413 
L 163.541397 -228.590697 
L 160.987274 -229.256987 
L 158.433151 -229.990862 
L 155.879027 -230.396308 
L 153.324904 -230.676036 
L 150.770781 -230.966023 
L 148.216657 -231.218719 
L 145.662534 -231.943211 
L 143.108411 -232.421155 
L 140.554287 -232.701422 
L 138.000164 -232.965658 
L 135.446041 -233.226165 
L 132.891917 -233.408798 
L 130.337794 -234.013775 
L 127.783671 -234.584682 
L 125.229547 -235.157377 
L 122.675424 -235.523182 
L 120.121301 -235.708443 
L 117.567177 -235.845046 
L 115.013054 -236.102961 
L 112.458931 -236.577232 
L 109.904807 -237.051503 
L 107.350684 -237.522898 
L 104.796561 -237.985616 
L 102.242437 -238.448333 
L 99.688314 -238.782989 
L 97.134191 -238.859807 
L 94.580067 -239.476033 
L 92.025944 -240.139269 
L 89.471821 -240.757807 
L 86.917697 -241.173423 
L 84.363574 -241.761332 
L 81.809451 -242.235379 
L 79.255327 -243.081418 
L 76.701204 -244.008206 
L 74.147081 -244.814294 
L 71.592957 -245.489043 
L 69.038834 -246.159329 
L 66.484711 -246.823963 
L 63.930587 -247.488596 
z
" style="stroke: #ffffff; stroke-opacity: 0.15"/>
    </defs>
    <g clip-path="url(#p554d43f514)">
     <use xlink:href="#m540e07f02f" x="0" y="347.904844" style="fill: #35b779; fill-opacity: 0.15; stroke: #ffffff; stroke-opacity: 0.15"/>
    </g>
   </g>
   <g id="PathCollection_5">
    <defs>
     <path id="m2dc2f114b6" d="M 0 3 
C 0.795609 3 1.55874 2.683901 2.12132 2.12132 
C 2.683901 1.55874 3 0.795609 3 0 
C 3 -0.795609 2.683901 -1.55874 2.12132 -2.12132 
C 1.55874 -2.683901 0.795609 -3 0 -3 
C -0.795609 -3 -1.55874 -2.683901 -2.12132 -2.12132 
C -2.683901 -1.55874 -3 -0.795609 -3 0 
C -3 0.795609 -2.683901 1.55874 -2.12132 2.12132 
C -1.55874 2.683901 -0.795609 3 0 3 
z
" style="stroke: #90d743; stroke-opacity: 0.8"/>
    </defs>
    <g clip-path="url(#p554d43f514)">
     <use xlink:href="#m2dc2f114b6" x="279.785157" y="154.272" style="fill: #90d743; fill-opacity: 0.8; stroke: #90d743; stroke-opacity: 0.8"/>
     <use xlink:href="#m2dc2f114b6" x="119.436048" y="112.823849" style="fill: #90d743; fill-opacity: 0.8; stroke: #90d743; stroke-opacity: 0.8"/>
     <use xlink:href="#m2dc2f114b6" x="285.95243" y="140.837682" style="fill: #90d743; fill-opacity: 0.8; stroke: #90d743; stroke-opacity: 0.8"/>
     <use xlink:href="#m2dc2f114b6" x="150.272415" y="170.323263" style="fill: #90d743; fill-opacity: 0.8; stroke: #90d743; stroke-opacity: 0.8"/>
     <use xlink:href="#m2dc2f114b6" x="187.276056" y="20.783182" style="fill: #90d743; fill-opacity: 0.8; stroke: #90d743; stroke-opacity: 0.8"/>
     <use xlink:href="#m2dc2f114b6" x="329.123344" y="107.697189" style="fill: #90d743; fill-opacity: 0.8; stroke: #90d743; stroke-opacity: 0.8"/>
     <use xlink:href="#m2dc2f114b6" x="261.283337" y="173.736616" style="fill: #90d743; fill-opacity: 0.8; stroke: #90d743; stroke-opacity: 0.8"/>
     <use xlink:href="#m2dc2f114b6" x="292.119704" y="136.476938" style="fill: #90d743; fill-opacity: 0.8; stroke: #90d743; stroke-opacity: 0.8"/>
     <use xlink:href="#m2dc2f114b6" x="94.766954" y="131.773569" style="fill: #90d743; fill-opacity: 0.8; stroke: #90d743; stroke-opacity: 0.8"/>
     <use xlink:href="#m2dc2f114b6" x="267.45061" y="225.071624" style="fill: #90d743; fill-opacity: 0.8; stroke: #90d743; stroke-opacity: 0.8"/>
     <use xlink:href="#m2dc2f114b6" x="329.123344" y="205.451338" style="fill: #90d743; fill-opacity: 0.8; stroke: #90d743; stroke-opacity: 0.8"/>
     <use xlink:href="#m2dc2f114b6" x="236.614243" y="88.39155" style="fill: #90d743; fill-opacity: 0.8; stroke: #90d743; stroke-opacity: 0.8"/>
     <use xlink:href="#m2dc2f114b6" x="292.119704" y="159.250896" style="fill: #90d743; fill-opacity: 0.8; stroke: #90d743; stroke-opacity: 0.8"/>
     <use xlink:href="#m2dc2f114b6" x="236.614243" y="171.64452" style="fill: #90d743; fill-opacity: 0.8; stroke: #90d743; stroke-opacity: 0.8"/>
     <use xlink:href="#m2dc2f114b6" x="292.119704" y="179.296845" style="fill: #90d743; fill-opacity: 0.8; stroke: #90d743; stroke-opacity: 0.8"/>
     <use xlink:href="#m2dc2f114b6" x="322.956071" y="149.515427" style="fill: #90d743; fill-opacity: 0.8; stroke: #90d743; stroke-opacity: 0.8"/>
     <use xlink:href="#m2dc2f114b6" x="279.785157" y="152.415577" style="fill: #90d743; fill-opacity: 0.8; stroke: #90d743; stroke-opacity: 0.8"/>
     <use xlink:href="#m2dc2f114b6" x="137.937868" y="170.517334" style="fill: #90d743; fill-opacity: 0.8; stroke: #90d743; stroke-opacity: 0.8"/>
    </g>
   </g>
   <g id="PolyCollection_5">
    <defs>
     <path id="m60d84ec5f5" d="M 94.766954 -292.345191 
L 94.766954 -179.58801 
L 97.134191 -179.7428 
L 99.501427 -179.89759 
L 101.868663 -180.004769 
L 104.2359 -180.037837 
L 106.603136 -180.150074 
L 108.970372 -180.312597 
L 111.337608 -180.478263 
L 113.704845 -180.677162 
L 116.072081 -180.906757 
L 118.439317 -180.997057 
L 120.806553 -181.132756 
L 123.17379 -181.294508 
L 125.541026 -181.460532 
L 127.908262 -181.744162 
L 130.275498 -181.909861 
L 132.642735 -182.064651 
L 135.009971 -182.221951 
L 137.377207 -182.480272 
L 139.744443 -182.744228 
L 142.11168 -183.008183 
L 144.478916 -183.089377 
L 146.846152 -183.02542 
L 149.213388 -183.149245 
L 151.580625 -183.267573 
L 153.947861 -183.421574 
L 156.315097 -183.392682 
L 158.682333 -183.306298 
L 161.04957 -183.12319 
L 163.416806 -183.36202 
L 165.784042 -183.069498 
L 168.151279 -183.047814 
L 170.518515 -183.219015 
L 172.885751 -183.098594 
L 175.252987 -183.06866 
L 177.620224 -183.142325 
L 179.98746 -183.282299 
L 182.354696 -183.365363 
L 184.721932 -183.452986 
L 187.089169 -183.426721 
L 189.456405 -183.36197 
L 191.823641 -183.564182 
L 194.190877 -183.581512 
L 196.558114 -183.441596 
L 198.92535 -183.307857 
L 201.292586 -183.127282 
L 203.659822 -182.918345 
L 206.027059 -182.906642 
L 208.394295 -182.772903 
L 210.761531 -182.697177 
L 213.128767 -182.621476 
L 215.496004 -182.545775 
L 217.86324 -182.350453 
L 220.230476 -182.275923 
L 222.597712 -182.250003 
L 224.964949 -181.9327 
L 227.332185 -181.695927 
L 229.699421 -181.612835 
L 232.066658 -181.831806 
L 234.433894 -181.956103 
L 236.80113 -182.192299 
L 239.168366 -181.806733 
L 241.535603 -181.762197 
L 243.902839 -181.717081 
L 246.270075 -181.484514 
L 248.637311 -181.144316 
L 251.004548 -180.575207 
L 253.371784 -180.197262 
L 255.73902 -179.974274 
L 258.106256 -179.753798 
L 260.473493 -179.184626 
L 262.840729 -179.108173 
L 265.207965 -178.898903 
L 267.575201 -178.647066 
L 269.942438 -178.041486 
L 272.309674 -177.681401 
L 274.67691 -176.847683 
L 277.044146 -176.483617 
L 279.411383 -175.966297 
L 281.778619 -175.475729 
L 284.145855 -174.730728 
L 286.513091 -174.265185 
L 288.880328 -173.968854 
L 291.247564 -173.334099 
L 293.6148 -172.531337 
L 295.982037 -171.857455 
L 298.349273 -171.231138 
L 300.716509 -170.418974 
L 303.083745 -169.62123 
L 305.450982 -169.017426 
L 307.818218 -168.26672 
L 310.185454 -167.49993 
L 312.55269 -166.318868 
L 314.919927 -165.183641 
L 317.287163 -164.217964 
L 319.654399 -163.51941 
L 322.021635 -162.742537 
L 324.388872 -161.682711 
L 326.756108 -160.652497 
L 329.123344 -159.875981 
L 329.123344 -211.240294 
L 329.123344 -211.240294 
L 326.756108 -211.476145 
L 324.388872 -211.574386 
L 322.021635 -211.666513 
L 319.654399 -211.381042 
L 317.287163 -211.529667 
L 314.919927 -211.612209 
L 312.55269 -211.831863 
L 310.185454 -211.998514 
L 307.818218 -212.155507 
L 305.450982 -212.180558 
L 303.083745 -212.426032 
L 300.716509 -212.522916 
L 298.349273 -212.67113 
L 295.982037 -212.852989 
L 293.6148 -213.094027 
L 291.247564 -213.320924 
L 288.880328 -213.427429 
L 286.513091 -213.702863 
L 284.145855 -214.10067 
L 281.778619 -214.334042 
L 279.411383 -214.711282 
L 277.044146 -215.154324 
L 274.67691 -215.529238 
L 272.309674 -216.236174 
L 269.942438 -216.509448 
L 267.575201 -216.932431 
L 265.207965 -217.575 
L 262.840729 -218.019825 
L 260.473493 -218.500626 
L 258.106256 -219.396592 
L 255.73902 -220.051106 
L 253.371784 -220.722638 
L 251.004548 -221.531669 
L 248.637311 -222.658401 
L 246.270075 -223.74503 
L 243.902839 -224.543736 
L 241.535603 -225.48065 
L 239.168366 -226.413307 
L 236.80113 -227.29642 
L 234.433894 -228.197103 
L 232.066658 -229.009181 
L 229.699421 -229.798669 
L 227.332185 -230.646508 
L 224.964949 -231.758057 
L 222.597712 -232.758216 
L 220.230476 -233.735869 
L 217.86324 -234.624001 
L 215.496004 -235.823895 
L 213.128767 -237.016488 
L 210.761531 -238.16793 
L 208.394295 -239.298088 
L 206.027059 -240.130968 
L 203.659822 -240.785748 
L 201.292586 -241.827776 
L 198.92535 -243.12877 
L 196.558114 -243.821321 
L 194.190877 -244.669403 
L 191.823641 -245.220639 
L 189.456405 -245.926744 
L 187.089169 -246.850009 
L 184.721932 -247.796214 
L 182.354696 -248.737086 
L 179.98746 -249.677958 
L 177.620224 -250.618831 
L 175.252987 -251.775412 
L 172.885751 -252.968641 
L 170.518515 -254.161869 
L 168.151279 -255.355098 
L 165.784042 -256.54643 
L 163.416806 -257.737387 
L 161.04957 -258.928344 
L 158.682333 -260.119301 
L 156.315097 -261.31031 
L 153.947861 -262.827832 
L 151.580625 -264.345353 
L 149.213388 -265.862875 
L 146.846152 -267.380397 
L 144.478916 -268.897919 
L 142.11168 -270.306439 
L 139.744443 -271.370183 
L 137.377207 -272.433928 
L 135.009971 -273.490407 
L 132.642735 -274.544482 
L 130.275498 -275.598556 
L 127.908262 -276.652631 
L 125.541026 -277.706705 
L 123.17379 -278.760779 
L 120.806553 -279.814854 
L 118.439317 -280.868928 
L 116.072081 -281.923003 
L 113.704845 -282.977077 
L 111.337608 -284.031151 
L 108.970372 -285.185818 
L 106.603136 -286.379047 
L 104.2359 -287.572276 
L 101.868663 -288.765505 
L 99.501427 -289.958734 
L 97.134191 -291.151963 
L 94.766954 -292.345191 
z
" style="stroke: #ffffff; stroke-opacity: 0.15"/>
    </defs>
    <g clip-path="url(#p554d43f514)">
     <use xlink:href="#m60d84ec5f5" x="0" y="347.904844" style="fill: #90d743; fill-opacity: 0.15; stroke: #ffffff; stroke-opacity: 0.15"/>
    </g>
   </g>
   <g id="line2d_11">
    <path d="M 88.599681 166.324712 
L 91.029213 165.999533 
L 93.458745 165.674354 
L 95.888277 165.349176 
L 98.317809 165.023997 
L 100.747341 164.698818 
L 103.176873 164.373639 
L 105.606405 164.048461 
L 108.035937 163.723282 
L 110.465469 163.398103 
L 112.895001 163.072925 
L 115.324533 162.747746 
L 117.754064 162.422567 
L 120.183596 162.097388 
L 122.613128 161.77221 
L 125.04266 161.447031 
L 127.472192 161.121852 
L 129.901724 160.796673 
L 132.331256 160.471495 
L 134.760788 160.146316 
L 137.19032 159.821137 
L 139.619852 159.495958 
L 142.049384 159.17078 
L 144.478916 158.845601 
L 146.908448 158.520422 
L 149.33798 158.195244 
L 151.767512 157.870065 
L 154.197044 157.544886 
L 156.626576 157.219707 
L 159.056108 156.894529 
L 161.48564 156.56935 
L 163.915172 156.244171 
L 166.344703 155.918992 
L 168.774235 155.593814 
L 171.203767 155.268635 
L 173.633299 154.943456 
L 176.062831 154.618278 
L 178.492363 154.293099 
L 180.921895 153.96792 
L 183.351427 153.642741 
L 185.780959 153.317563 
L 188.210491 152.992384 
L 190.640023 152.667205 
L 193.069555 152.342026 
L 195.499087 152.016848 
L 197.928619 151.691669 
L 200.358151 151.36649 
L 202.787683 151.041311 
L 205.217215 150.716133 
L 207.646747 150.390954 
L 210.076279 150.065775 
L 212.505811 149.740597 
L 214.935342 149.415418 
L 217.364874 149.090239 
L 219.794406 148.76506 
L 222.223938 148.439882 
L 224.65347 148.114703 
L 227.083002 147.789524 
L 229.512534 147.464345 
L 231.942066 147.139167 
L 234.371598 146.813988 
L 236.80113 146.488809 
L 239.230662 146.163631 
L 241.660194 145.838452 
L 244.089726 145.513273 
L 246.519258 145.188094 
L 248.94879 144.862916 
L 251.378322 144.537737 
L 253.807854 144.212558 
L 256.237386 143.887379 
L 258.666918 143.562201 
L 261.09645 143.237022 
L 263.525982 142.911843 
L 265.955513 142.586664 
L 268.385045 142.261486 
L 270.814577 141.936307 
L 273.244109 141.611128 
L 275.673641 141.28595 
L 278.103173 140.960771 
L 280.532705 140.635592 
L 282.962237 140.310413 
L 285.391769 139.985235 
L 287.821301 139.660056 
L 290.250833 139.334877 
L 292.680365 139.009698 
L 295.109897 138.68452 
L 297.539429 138.359341 
L 299.968961 138.034162 
L 302.398493 137.708984 
L 304.828025 137.383805 
L 307.257557 137.058626 
L 309.687089 136.733447 
L 312.116621 136.408269 
L 314.546152 136.08309 
L 316.975684 135.757911 
L 319.405216 135.432732 
L 321.834748 135.107554 
L 324.26428 134.782375 
L 326.693812 134.457196 
L 329.123344 134.132017 
" clip-path="url(#p554d43f514)" style="fill: none; stroke: #443983; stroke-width: 2.25; stroke-linecap: round"/>
   </g>
   <g id="line2d_12">
    <path d="M 63.930587 128.508912 
L 66.422415 129.172602 
L 68.914243 129.836292 
L 71.40607 130.499982 
L 73.897898 131.163671 
L 76.389726 131.827361 
L 78.881553 132.491051 
L 81.373381 133.154741 
L 83.865209 133.818431 
L 86.357036 134.482121 
L 88.848864 135.145811 
L 91.340691 135.809501 
L 93.832519 136.473191 
L 96.324347 137.136881 
L 98.816174 137.800571 
L 101.308002 138.464261 
L 103.79983 139.127951 
L 106.291657 139.791641 
L 108.783485 140.455331 
L 111.275313 141.119021 
L 113.76714 141.782711 
L 116.258968 142.446401 
L 118.750796 143.110091 
L 121.242623 143.773781 
L 123.734451 144.437471 
L 126.226278 145.101161 
L 128.718106 145.764851 
L 131.209934 146.428541 
L 133.701761 147.092231 
L 136.193589 147.755921 
L 138.685417 148.419611 
L 141.177244 149.083301 
L 143.669072 149.746991 
L 146.1609 150.410681 
L 148.652727 151.07437 
L 151.144555 151.73806 
L 153.636383 152.40175 
L 156.12821 153.06544 
L 158.620038 153.72913 
L 161.111865 154.39282 
L 163.603693 155.05651 
L 166.095521 155.7202 
L 168.587348 156.38389 
L 171.079176 157.04758 
L 173.571004 157.71127 
L 176.062831 158.37496 
L 178.554659 159.03865 
L 181.046487 159.70234 
L 183.538314 160.36603 
L 186.030142 161.02972 
L 188.521969 161.69341 
L 191.013797 162.3571 
L 193.505625 163.02079 
L 195.997452 163.68448 
L 198.48928 164.34817 
L 200.981108 165.01186 
L 203.472935 165.67555 
L 205.964763 166.33924 
L 208.456591 167.00293 
L 210.948418 167.66662 
L 213.440246 168.33031 
L 215.932074 168.994 
L 218.423901 169.65769 
L 220.915729 170.32138 
L 223.407556 170.98507 
L 225.899384 171.648759 
L 228.391212 172.312449 
L 230.883039 172.976139 
L 233.374867 173.639829 
L 235.866695 174.303519 
L 238.358522 174.967209 
L 240.85035 175.630899 
L 243.342178 176.294589 
L 245.834005 176.958279 
L 248.325833 177.621969 
L 250.817661 178.285659 
L 253.309488 178.949349 
L 255.801316 179.613039 
L 258.293143 180.276729 
L 260.784971 180.940419 
L 263.276799 181.604109 
L 265.768626 182.267799 
L 268.260454 182.931489 
L 270.752282 183.595179 
L 273.244109 184.258869 
L 275.735937 184.922559 
L 278.227765 185.586249 
L 280.719592 186.249939 
L 283.21142 186.913629 
L 285.703248 187.577319 
L 288.195075 188.241009 
L 290.686903 188.904699 
L 293.17873 189.568389 
L 295.670558 190.232079 
L 298.162386 190.895769 
L 300.654213 191.559458 
L 303.146041 192.223148 
L 305.637869 192.886838 
L 308.129696 193.550528 
L 310.621524 194.214218 
" clip-path="url(#p554d43f514)" style="fill: none; stroke: #31688e; stroke-width: 2.25; stroke-linecap: round"/>
   </g>
   <g id="line2d_13">
    <path d="M 57.763314 138.114938 
L 60.442029 138.957582 
L 63.120743 139.800225 
L 65.799458 140.642869 
L 68.478173 141.485512 
L 71.156888 142.328156 
L 73.835602 143.170799 
L 76.514317 144.013443 
L 79.193032 144.856086 
L 81.871746 145.69873 
L 84.550461 146.541373 
L 87.229176 147.384017 
L 89.907891 148.22666 
L 92.586605 149.069303 
L 95.26532 149.911947 
L 97.944035 150.75459 
L 100.622749 151.597234 
L 103.301464 152.439877 
L 105.980179 153.282521 
L 108.658894 154.125164 
L 111.337608 154.967808 
L 114.016323 155.810451 
L 116.695038 156.653095 
L 119.373752 157.495738 
L 122.052467 158.338382 
L 124.731182 159.181025 
L 127.409897 160.023669 
L 130.088611 160.866312 
L 132.767326 161.708956 
L 135.446041 162.551599 
L 138.124755 163.394243 
L 140.80347 164.236886 
L 143.482185 165.07953 
L 146.1609 165.922173 
L 148.839614 166.764817 
L 151.518329 167.60746 
L 154.197044 168.450103 
L 156.875758 169.292747 
L 159.554473 170.13539 
L 162.233188 170.978034 
L 164.911903 171.820677 
L 167.590617 172.663321 
L 170.269332 173.505964 
L 172.948047 174.348608 
L 175.626761 175.191251 
L 178.305476 176.033895 
L 180.984191 176.876538 
L 183.662906 177.719182 
L 186.34162 178.561825 
L 189.020335 179.404469 
L 191.69905 180.247112 
L 194.377764 181.089756 
L 197.056479 181.932399 
L 199.735194 182.775043 
L 202.413909 183.617686 
L 205.092623 184.46033 
L 207.771338 185.302973 
L 210.450053 186.145617 
L 213.128767 186.98826 
L 215.807482 187.830904 
L 218.486197 188.673547 
L 221.164912 189.51619 
L 223.843626 190.358834 
L 226.522341 191.201477 
L 229.201056 192.044121 
L 231.87977 192.886764 
L 234.558485 193.729408 
L 237.2372 194.572051 
L 239.915915 195.414695 
L 242.594629 196.257338 
L 245.273344 197.099982 
L 247.952059 197.942625 
L 250.630773 198.785269 
L 253.309488 199.627912 
L 255.988203 200.470556 
L 258.666918 201.313199 
L 261.345632 202.155843 
L 264.024347 202.998486 
L 266.703062 203.84113 
L 269.381776 204.683773 
L 272.060491 205.526417 
L 274.739206 206.36906 
L 277.417921 207.211704 
L 280.096635 208.054347 
L 282.77535 208.89699 
L 285.454065 209.739634 
L 288.132779 210.582277 
L 290.811494 211.424921 
L 293.490209 212.267564 
L 296.168924 213.110208 
L 298.847638 213.952851 
L 301.526353 214.795495 
L 304.205068 215.638138 
L 306.883782 216.480782 
L 309.562497 217.323425 
L 312.241212 218.166069 
L 314.919927 219.008712 
L 317.598641 219.851356 
L 320.277356 220.693999 
L 322.956071 221.536643 
" clip-path="url(#p554d43f514)" style="fill: none; stroke: #21918c; stroke-width: 2.25; stroke-linecap: round"/>
   </g>
   <g id="line2d_14">
    <path d="M 63.930587 149.360803 
L 66.484711 149.316195 
L 69.038834 149.271588 
L 71.592957 149.22698 
L 74.147081 149.182372 
L 76.701204 149.137764 
L 79.255327 149.093156 
L 81.809451 149.048548 
L 84.363574 149.003941 
L 86.917697 148.959333 
L 89.471821 148.914725 
L 92.025944 148.870117 
L 94.580067 148.825509 
L 97.134191 148.780901 
L 99.688314 148.736293 
L 102.242437 148.691686 
L 104.796561 148.647078 
L 107.350684 148.60247 
L 109.904807 148.557862 
L 112.458931 148.513254 
L 115.013054 148.468646 
L 117.567177 148.424039 
L 120.121301 148.379431 
L 122.675424 148.334823 
L 125.229547 148.290215 
L 127.783671 148.245607 
L 130.337794 148.200999 
L 132.891917 148.156392 
L 135.446041 148.111784 
L 138.000164 148.067176 
L 140.554287 148.022568 
L 143.108411 147.97796 
L 145.662534 147.933352 
L 148.216657 147.888745 
L 150.770781 147.844137 
L 153.324904 147.799529 
L 155.879027 147.754921 
L 158.433151 147.710313 
L 160.987274 147.665705 
L 163.541397 147.621097 
L 166.095521 147.57649 
L 168.649644 147.531882 
L 171.203767 147.487274 
L 173.757891 147.442666 
L 176.312014 147.398058 
L 178.866137 147.35345 
L 181.420261 147.308843 
L 183.974384 147.264235 
L 186.528507 147.219627 
L 189.082631 147.175019 
L 191.636754 147.130411 
L 194.190877 147.085803 
L 196.745001 147.041196 
L 199.299124 146.996588 
L 201.853247 146.95198 
L 204.407371 146.907372 
L 206.961494 146.862764 
L 209.515617 146.818156 
L 212.069741 146.773548 
L 214.623864 146.728941 
L 217.177987 146.684333 
L 219.732111 146.639725 
L 222.286234 146.595117 
L 224.840357 146.550509 
L 227.394481 146.505901 
L 229.948604 146.461294 
L 232.502727 146.416686 
L 235.056851 146.372078 
L 237.610974 146.32747 
L 240.165097 146.282862 
L 242.719221 146.238254 
L 245.273344 146.193647 
L 247.827467 146.149039 
L 250.381591 146.104431 
L 252.935714 146.059823 
L 255.489837 146.015215 
L 258.043961 145.970607 
L 260.598084 145.925999 
L 263.152207 145.881392 
L 265.706331 145.836784 
L 268.260454 145.792176 
L 270.814577 145.747568 
L 273.368701 145.70296 
L 275.922824 145.658352 
L 278.476947 145.613745 
L 281.031071 145.569137 
L 283.585194 145.524529 
L 286.139317 145.479921 
L 288.693441 145.435313 
L 291.247564 145.390705 
L 293.801687 145.346098 
L 296.355811 145.30149 
L 298.909934 145.256882 
L 301.464057 145.212274 
L 304.018181 145.167666 
L 306.572304 145.123058 
L 309.126427 145.07845 
L 311.680551 145.033843 
L 314.234674 144.989235 
L 316.788797 144.944627 
" clip-path="url(#p554d43f514)" style="fill: none; stroke: #35b779; stroke-width: 2.25; stroke-linecap: round"/>
   </g>
   <g id="line2d_15">
    <path d="M 94.766954 123.058358 
L 97.134191 123.441518 
L 99.501427 123.824678 
L 101.868663 124.207837 
L 104.2359 124.590997 
L 106.603136 124.974156 
L 108.970372 125.357316 
L 111.337608 125.740475 
L 113.704845 126.123635 
L 116.072081 126.506795 
L 118.439317 126.889954 
L 120.806553 127.273114 
L 123.17379 127.656273 
L 125.541026 128.039433 
L 127.908262 128.422593 
L 130.275498 128.805752 
L 132.642735 129.188912 
L 135.009971 129.572071 
L 137.377207 129.955231 
L 139.744443 130.33839 
L 142.11168 130.72155 
L 144.478916 131.10471 
L 146.846152 131.487869 
L 149.213388 131.871029 
L 151.580625 132.254188 
L 153.947861 132.637348 
L 156.315097 133.020507 
L 158.682333 133.403667 
L 161.04957 133.786827 
L 163.416806 134.169986 
L 165.784042 134.553146 
L 168.151279 134.936305 
L 170.518515 135.319465 
L 172.885751 135.702624 
L 175.252987 136.085784 
L 177.620224 136.468944 
L 179.98746 136.852103 
L 182.354696 137.235263 
L 184.721932 137.618422 
L 187.089169 138.001582 
L 189.456405 138.384741 
L 191.823641 138.767901 
L 194.190877 139.151061 
L 196.558114 139.53422 
L 198.92535 139.91738 
L 201.292586 140.300539 
L 203.659822 140.683699 
L 206.027059 141.066859 
L 208.394295 141.450018 
L 210.761531 141.833178 
L 213.128767 142.216337 
L 215.496004 142.599497 
L 217.86324 142.982656 
L 220.230476 143.365816 
L 222.597712 143.748976 
L 224.964949 144.132135 
L 227.332185 144.515295 
L 229.699421 144.898454 
L 232.066658 145.281614 
L 234.433894 145.664773 
L 236.80113 146.047933 
L 239.168366 146.431093 
L 241.535603 146.814252 
L 243.902839 147.197412 
L 246.270075 147.580571 
L 248.637311 147.963731 
L 251.004548 148.34689 
L 253.371784 148.73005 
L 255.73902 149.11321 
L 258.106256 149.496369 
L 260.473493 149.879529 
L 262.840729 150.262688 
L 265.207965 150.645848 
L 267.575201 151.029007 
L 269.942438 151.412167 
L 272.309674 151.795327 
L 274.67691 152.178486 
L 277.044146 152.561646 
L 279.411383 152.944805 
L 281.778619 153.327965 
L 284.145855 153.711125 
L 286.513091 154.094284 
L 288.880328 154.477444 
L 291.247564 154.860603 
L 293.6148 155.243763 
L 295.982037 155.626922 
L 298.349273 156.010082 
L 300.716509 156.393242 
L 303.083745 156.776401 
L 305.450982 157.159561 
L 307.818218 157.54272 
L 310.185454 157.92588 
L 312.55269 158.309039 
L 314.919927 158.692199 
L 317.287163 159.075359 
L 319.654399 159.458518 
L 322.021635 159.841678 
L 324.388872 160.224837 
L 326.756108 160.607997 
L 329.123344 160.991156 
" clip-path="url(#p554d43f514)" style="fill: none; stroke: #90d743; stroke-width: 2.25; stroke-linecap: round"/>
   </g>
   <g id="patch_3">
    <path d="M 44.195313 306.03 
L 44.195313 7.2 
" style="fill: none; stroke: #cccccc; stroke-width: 1.25; stroke-linejoin: miter; stroke-linecap: square"/>
   </g>
   <g id="patch_4">
    <path d="M 44.195312 306.03 
L 342.691346 306.03 
" style="fill: none; stroke: #cccccc; stroke-width: 1.25; stroke-linejoin: miter; stroke-linecap: square"/>
   </g>
  </g>
  <g id="legend_1">
   <g id="text_13">
    <!-- seniority -->
    <g style="fill: #262626" transform="translate(347.369346 138.084687) scale(0.12 -0.12)">
     <defs>
      <path id="ArialMT-73" d="M 197 991 
L 753 1078 
Q 800 744 1014 566 
Q 1228 388 1613 388 
Q 2000 388 2187 545 
Q 2375 703 2375 916 
Q 2375 1106 2209 1216 
Q 2094 1291 1634 1406 
Q 1016 1563 777 1677 
Q 538 1791 414 1992 
Q 291 2194 291 2438 
Q 291 2659 392 2848 
Q 494 3038 669 3163 
Q 800 3259 1026 3326 
Q 1253 3394 1513 3394 
Q 1903 3394 2198 3281 
Q 2494 3169 2634 2976 
Q 2775 2784 2828 2463 
L 2278 2388 
Q 2241 2644 2061 2787 
Q 1881 2931 1553 2931 
Q 1166 2931 1000 2803 
Q 834 2675 834 2503 
Q 834 2394 903 2306 
Q 972 2216 1119 2156 
Q 1203 2125 1616 2013 
Q 2213 1853 2448 1751 
Q 2684 1650 2818 1456 
Q 2953 1263 2953 975 
Q 2953 694 2789 445 
Q 2625 197 2315 61 
Q 2006 -75 1616 -75 
Q 969 -75 630 194 
Q 291 463 197 991 
z
" transform="scale(0.015625)"/>
      <path id="ArialMT-74" d="M 1650 503 
L 1731 6 
Q 1494 -44 1306 -44 
Q 1000 -44 831 53 
Q 663 150 594 308 
Q 525 466 525 972 
L 525 2881 
L 113 2881 
L 113 3319 
L 525 3319 
L 525 4141 
L 1084 4478 
L 1084 3319 
L 1650 3319 
L 1650 2881 
L 1084 2881 
L 1084 941 
Q 1084 700 1114 631 
Q 1144 563 1211 522 
Q 1278 481 1403 481 
Q 1497 481 1650 503 
z
" transform="scale(0.015625)"/>
     </defs>
     <use xlink:href="#ArialMT-73"/>
     <use xlink:href="#ArialMT-65" x="50"/>
     <use xlink:href="#ArialMT-6e" x="105.615234"/>
     <use xlink:href="#ArialMT-69" x="161.230469"/>
     <use xlink:href="#ArialMT-6f" x="183.447266"/>
     <use xlink:href="#ArialMT-72" x="239.0625"/>
     <use xlink:href="#ArialMT-69" x="272.363281"/>
     <use xlink:href="#ArialMT-74" x="294.580078"/>
     <use xlink:href="#ArialMT-79" x="322.363281"/>
    </g>
   </g>
   <g id="PathCollection_6">
    <g>
     <use xlink:href="#mabfacbe50c" x="362.251455" y="151.096406" style="fill: #443983; fill-opacity: 0.8; stroke: #443983; stroke-opacity: 0.8"/>
    </g>
   </g>
   <g id="text_14">
    <!-- 0 -->
    <g style="fill: #262626" transform="translate(382.051455 153.983906) scale(0.11 -0.11)">
     <use xlink:href="#ArialMT-30"/>
    </g>
   </g>
   <g id="PathCollection_7">
    <g>
     <use xlink:href="#m55290dfe9b" x="362.251455" y="166.65625" style="fill: #31688e; fill-opacity: 0.8; stroke: #31688e; stroke-opacity: 0.8"/>
    </g>
   </g>
   <g id="text_15">
    <!-- 1 -->
    <g style="fill: #262626" transform="translate(382.051455 169.54375) scale(0.11 -0.11)">
     <use xlink:href="#ArialMT-31"/>
    </g>
   </g>
   <g id="PathCollection_8">
    <g>
     <use xlink:href="#m655c794934" x="362.251455" y="182.216094" style="fill: #21918c; fill-opacity: 0.8; stroke: #21918c; stroke-opacity: 0.8"/>
    </g>
   </g>
   <g id="text_16">
    <!-- 2 -->
    <g style="fill: #262626" transform="translate(382.051455 185.103594) scale(0.11 -0.11)">
     <use xlink:href="#ArialMT-32"/>
    </g>
   </g>
   <g id="PathCollection_9">
    <g>
     <use xlink:href="#ma2930f0ed9" x="362.251455" y="197.775937" style="fill: #35b779; fill-opacity: 0.8; stroke: #35b779; stroke-opacity: 0.8"/>
    </g>
   </g>
   <g id="text_17">
    <!-- 3 -->
    <g style="fill: #262626" transform="translate(382.051455 200.663437) scale(0.11 -0.11)">
     <use xlink:href="#ArialMT-33"/>
    </g>
   </g>
   <g id="PathCollection_10">
    <g>
     <use xlink:href="#m2dc2f114b6" x="362.251455" y="213.335781" style="fill: #90d743; fill-opacity: 0.8; stroke: #90d743; stroke-opacity: 0.8"/>
    </g>
   </g>
   <g id="text_18">
    <!-- 4 -->
    <g style="fill: #262626" transform="translate(382.051455 216.223281) scale(0.11 -0.11)">
     <use xlink:href="#ArialMT-34"/>
    </g>
   </g>
  </g>
 </g>
 <defs>
  <clipPath id="p554d43f514">
   <rect x="44.195313" y="7.2" width="298.496033" height="298.83"/>
  </clipPath>
 </defs>
</svg>
