<?xml version="1.0" encoding="utf-8" standalone="no"?>
<!DOCTYPE svg PUBLIC "-//W3C//DTD SVG 1.1//EN"
  "http://www.w3.org/Graphics/SVG/1.1/DTD/svg11.dtd">
<svg xmlns:xlink="http://www.w3.org/1999/xlink" width="712.801875pt" height="161.958125pt" viewBox="0 0 712.801875 161.958125" xmlns="http://www.w3.org/2000/svg" version="1.1">
 <metadata>
  <rdf:RDF xmlns:dc="http://purl.org/dc/elements/1.1/" xmlns:cc="http://creativecommons.org/ns#" xmlns:rdf="http://www.w3.org/1999/02/22-rdf-syntax-ns#">
   <cc:Work>
    <dc:type rdf:resource="http://purl.org/dc/dcmitype/StillImage"/>
    <dc:date>2024-12-04T21:42:57.135609</dc:date>
    <dc:format>image/svg+xml</dc:format>
    <dc:creator>
     <cc:Agent>
      <dc:title>Matplotlib v3.8.4, https://matplotlib.org/</dc:title>
     </cc:Agent>
    </dc:creator>
   </cc:Work>
  </rdf:RDF>
 </metadata>
 <defs>
  <style type="text/css">*{stroke-linejoin: round; stroke-linecap: butt}</style>
 </defs>
 <g id="figure_1">
  <g id="patch_1">
   <path d="M -0 161.958125 
L 712.801875 161.958125 
L 712.801875 -0 
L -0 -0 
z
" style="fill: #ffffff"/>
  </g>
  <g id="axes_1">
   <g id="patch_2">
    <path d="M 59.326563 96.813333 
L 683.806562 96.813333 
L 683.806562 69.946667 
L 59.326563 69.946667 
z
" style="fill: #ffffff"/>
   </g>
   <g id="patch_3">
    <path d="M 62.99066 94.126667 
L 69.911734 94.126667 
L 69.911734 69.946667 
L 62.99066 69.946667 
z
" clip-path="url(#pcf98b7c3a5)" style="fill: #d62728; opacity: 0.6"/>
   </g>
   <g id="patch_4">
    <path d="M 72.354465 94.126667 
L 73.575831 94.126667 
L 73.575831 69.946667 
L 72.354465 69.946667 
z
" clip-path="url(#pcf98b7c3a5)" style="fill: #d62728; opacity: 0.6"/>
   </g>
   <g id="patch_5">
    <path d="M 86.196612 94.126667 
L 86.603734 94.126667 
L 86.603734 69.946667 
L 86.196612 69.946667 
z
" clip-path="url(#pcf98b7c3a5)" style="fill: #d62728; opacity: 0.6"/>
   </g>
   <g id="patch_6">
    <path d="M 93.524807 94.126667 
L 93.931929 94.126667 
L 93.931929 69.946667 
L 93.524807 69.946667 
z
" clip-path="url(#pcf98b7c3a5)" style="fill: #d62728; opacity: 0.6"/>
   </g>
   <g id="patch_7">
    <path d="M 94.339051 94.126667 
L 99.631637 94.126667 
L 99.631637 69.946667 
L 94.339051 69.946667 
z
" clip-path="url(#pcf98b7c3a5)" style="fill: #d62728; opacity: 0.6"/>
   </g>
   <g id="patch_8">
    <path d="M 100.038759 94.126667 
L 101.260125 94.126667 
L 101.260125 69.946667 
L 100.038759 69.946667 
z
" clip-path="url(#pcf98b7c3a5)" style="fill: #d62728; opacity: 0.6"/>
   </g>
   <g id="patch_9">
    <path d="M 102.888613 94.126667 
L 106.55271 94.126667 
L 106.55271 69.946667 
L 102.888613 69.946667 
z
" clip-path="url(#pcf98b7c3a5)" style="fill: #d62728; opacity: 0.6"/>
   </g>
   <g id="patch_10">
    <path d="M 106.959832 94.126667 
L 115.102272 94.126667 
L 115.102272 69.946667 
L 106.959832 69.946667 
z
" clip-path="url(#pcf98b7c3a5)" style="fill: #d62728; opacity: 0.6"/>
   </g>
   <g id="patch_11">
    <path d="M 118.359247 94.126667 
L 118.766369 94.126667 
L 118.766369 69.946667 
L 118.359247 69.946667 
z
" clip-path="url(#pcf98b7c3a5)" style="fill: #d62728; opacity: 0.6"/>
   </g>
   <g id="patch_12">
    <path d="M 120.394857 94.126667 
L 120.801979 94.126667 
L 120.801979 69.946667 
L 120.394857 69.946667 
z
" clip-path="url(#pcf98b7c3a5)" style="fill: #d62728; opacity: 0.6"/>
   </g>
   <g id="patch_13">
    <path d="M 121.616223 94.126667 
L 122.837589 94.126667 
L 122.837589 69.946667 
L 121.616223 69.946667 
z
" clip-path="url(#pcf98b7c3a5)" style="fill: #d62728; opacity: 0.6"/>
   </g>
   <g id="patch_14">
    <path d="M 125.687443 94.126667 
L 128.130174 94.126667 
L 128.130174 69.946667 
L 125.687443 69.946667 
z
" clip-path="url(#pcf98b7c3a5)" style="fill: #d62728; opacity: 0.6"/>
   </g>
   <g id="patch_15">
    <path d="M 128.537296 94.126667 
L 131.38715 94.126667 
L 131.38715 69.946667 
L 128.537296 69.946667 
z
" clip-path="url(#pcf98b7c3a5)" style="fill: #d62728; opacity: 0.6"/>
   </g>
   <g id="patch_16">
    <path d="M 132.201394 94.126667 
L 135.865492 94.126667 
L 135.865492 69.946667 
L 132.201394 69.946667 
z
" clip-path="url(#pcf98b7c3a5)" style="fill: #d62728; opacity: 0.6"/>
   </g>
   <g id="patch_17">
    <path d="M 137.086858 94.126667 
L 137.49398 94.126667 
L 137.49398 69.946667 
L 137.086858 69.946667 
z
" clip-path="url(#pcf98b7c3a5)" style="fill: #d62728; opacity: 0.6"/>
   </g>
   <g id="patch_18">
    <path d="M 137.901102 94.126667 
L 141.158077 94.126667 
L 141.158077 69.946667 
L 137.901102 69.946667 
z
" clip-path="url(#pcf98b7c3a5)" style="fill: #d62728; opacity: 0.6"/>
   </g>
   <g id="patch_19">
    <path d="M 147.264907 94.126667 
L 148.079151 94.126667 
L 148.079151 69.946667 
L 147.264907 69.946667 
z
" clip-path="url(#pcf98b7c3a5)" style="fill: #d62728; opacity: 0.6"/>
   </g>
   <g id="patch_20">
    <path d="M 154.593102 94.126667 
L 160.699932 94.126667 
L 160.699932 69.946667 
L 154.593102 69.946667 
z
" clip-path="url(#pcf98b7c3a5)" style="fill: #d62728; opacity: 0.6"/>
   </g>
   <g id="patch_21">
    <path d="M 210.368811 94.126667 
L 210.775933 94.126667 
L 210.775933 69.946667 
L 210.368811 69.946667 
z
" clip-path="url(#pcf98b7c3a5)" style="fill: #d62728; opacity: 0.6"/>
   </g>
   <g id="patch_22">
    <path d="M 211.590177 94.126667 
L 229.910665 94.126667 
L 229.910665 69.946667 
L 211.590177 69.946667 
z
" clip-path="url(#pcf98b7c3a5)" style="fill: #d62728; opacity: 0.6"/>
   </g>
   <g id="patch_23">
    <path d="M 236.017495 94.126667 
L 242.938568 94.126667 
L 242.938568 69.946667 
L 236.017495 69.946667 
z
" clip-path="url(#pcf98b7c3a5)" style="fill: #d62728; opacity: 0.6"/>
   </g>
   <g id="patch_24">
    <path d="M 248.231154 94.126667 
L 263.701788 94.126667 
L 263.701788 69.946667 
L 248.231154 69.946667 
z
" clip-path="url(#pcf98b7c3a5)" style="fill: #d62728; opacity: 0.6"/>
   </g>
   <g id="patch_25">
    <path d="M 264.516032 94.126667 
L 265.737398 94.126667 
L 265.737398 69.946667 
L 264.516032 69.946667 
z
" clip-path="url(#pcf98b7c3a5)" style="fill: #d62728; opacity: 0.6"/>
   </g>
   <g id="patch_26">
    <path d="M 267.773008 94.126667 
L 271.029984 94.126667 
L 271.029984 69.946667 
L 267.773008 69.946667 
z
" clip-path="url(#pcf98b7c3a5)" style="fill: #d62728; opacity: 0.6"/>
   </g>
   <g id="patch_27">
    <path d="M 273.472716 94.126667 
L 284.872131 94.126667 
L 284.872131 69.946667 
L 273.472716 69.946667 
z
" clip-path="url(#pcf98b7c3a5)" style="fill: #d62728; opacity: 0.6"/>
   </g>
   <g id="patch_28">
    <path d="M 285.686375 94.126667 
L 286.093496 94.126667 
L 286.093496 69.946667 
L 285.686375 69.946667 
z
" clip-path="url(#pcf98b7c3a5)" style="fill: #d62728; opacity: 0.6"/>
   </g>
   <g id="patch_29">
    <path d="M 287.721984 94.126667 
L 288.129106 94.126667 
L 288.129106 69.946667 
L 287.721984 69.946667 
z
" clip-path="url(#pcf98b7c3a5)" style="fill: #d62728; opacity: 0.6"/>
   </g>
   <g id="patch_30">
    <path d="M 288.94335 94.126667 
L 290.571838 94.126667 
L 290.571838 69.946667 
L 288.94335 69.946667 
z
" clip-path="url(#pcf98b7c3a5)" style="fill: #d62728; opacity: 0.6"/>
   </g>
   <g id="patch_31">
    <path d="M 290.97896 94.126667 
L 291.793204 94.126667 
L 291.793204 69.946667 
L 290.97896 69.946667 
z
" clip-path="url(#pcf98b7c3a5)" style="fill: #d62728; opacity: 0.6"/>
   </g>
   <g id="patch_32">
    <path d="M 292.607448 94.126667 
L 294.643058 94.126667 
L 294.643058 69.946667 
L 292.607448 69.946667 
z
" clip-path="url(#pcf98b7c3a5)" style="fill: #d62728; opacity: 0.6"/>
   </g>
   <g id="patch_33">
    <path d="M 305.635351 94.126667 
L 306.449595 94.126667 
L 306.449595 69.946667 
L 305.635351 69.946667 
z
" clip-path="url(#pcf98b7c3a5)" style="fill: #d62728; opacity: 0.6"/>
   </g>
   <g id="patch_34">
    <path d="M 312.149302 94.126667 
L 313.370668 94.126667 
L 313.370668 69.946667 
L 312.149302 69.946667 
z
" clip-path="url(#pcf98b7c3a5)" style="fill: #d62728; opacity: 0.6"/>
   </g>
   <g id="patch_35">
    <path d="M 313.77779 94.126667 
L 314.184912 94.126667 
L 314.184912 69.946667 
L 313.77779 69.946667 
z
" clip-path="url(#pcf98b7c3a5)" style="fill: #d62728; opacity: 0.6"/>
   </g>
   <g id="patch_36">
    <path d="M 324.770083 94.126667 
L 329.655547 94.126667 
L 329.655547 69.946667 
L 324.770083 69.946667 
z
" clip-path="url(#pcf98b7c3a5)" style="fill: #d62728; opacity: 0.6"/>
   </g>
   <g id="patch_37">
    <path d="M 332.098278 94.126667 
L 334.54101 94.126667 
L 334.54101 69.946667 
L 332.098278 69.946667 
z
" clip-path="url(#pcf98b7c3a5)" style="fill: #d62728; opacity: 0.6"/>
   </g>
   <g id="patch_38">
    <path d="M 334.948132 94.126667 
L 339.426474 94.126667 
L 339.426474 69.946667 
L 334.948132 69.946667 
z
" clip-path="url(#pcf98b7c3a5)" style="fill: #d62728; opacity: 0.6"/>
   </g>
   <g id="patch_39">
    <path d="M 340.240718 94.126667 
L 342.276328 94.126667 
L 342.276328 69.946667 
L 340.240718 69.946667 
z
" clip-path="url(#pcf98b7c3a5)" style="fill: #d62728; opacity: 0.6"/>
   </g>
   <g id="patch_40">
    <path d="M 342.683449 94.126667 
L 343.497693 94.126667 
L 343.497693 69.946667 
L 342.683449 69.946667 
z
" clip-path="url(#pcf98b7c3a5)" style="fill: #d62728; opacity: 0.6"/>
   </g>
   <g id="patch_41">
    <path d="M 348.383157 94.126667 
L 348.790279 94.126667 
L 348.790279 69.946667 
L 348.383157 69.946667 
z
" clip-path="url(#pcf98b7c3a5)" style="fill: #d62728; opacity: 0.6"/>
   </g>
   <g id="patch_42">
    <path d="M 349.604523 94.126667 
L 351.640133 94.126667 
L 351.640133 69.946667 
L 349.604523 69.946667 
z
" clip-path="url(#pcf98b7c3a5)" style="fill: #d62728; opacity: 0.6"/>
   </g>
   <g id="patch_43">
    <path d="M 356.118474 94.126667 
L 357.33984 94.126667 
L 357.33984 69.946667 
L 356.118474 69.946667 
z
" clip-path="url(#pcf98b7c3a5)" style="fill: #d62728; opacity: 0.6"/>
   </g>
   <g id="patch_44">
    <path d="M 361.41106 94.126667 
L 364.260914 94.126667 
L 364.260914 69.946667 
L 361.41106 69.946667 
z
" clip-path="url(#pcf98b7c3a5)" style="fill: #d62728; opacity: 0.6"/>
   </g>
   <g id="patch_45">
    <path d="M 365.482279 94.126667 
L 365.889401 94.126667 
L 365.889401 69.946667 
L 365.482279 69.946667 
z
" clip-path="url(#pcf98b7c3a5)" style="fill: #d62728; opacity: 0.6"/>
   </g>
   <g id="patch_46">
    <path d="M 374.438963 94.126667 
L 375.253207 94.126667 
L 375.253207 69.946667 
L 374.438963 69.946667 
z
" clip-path="url(#pcf98b7c3a5)" style="fill: #d62728; opacity: 0.6"/>
   </g>
   <g id="patch_47">
    <path d="M 396.423549 94.126667 
L 396.830671 94.126667 
L 396.830671 69.946667 
L 396.423549 69.946667 
z
" clip-path="url(#pcf98b7c3a5)" style="fill: #d62728; opacity: 0.6"/>
   </g>
   <g id="patch_48">
    <path d="M 432.657404 94.126667 
L 433.064525 94.126667 
L 433.064525 69.946667 
L 432.657404 69.946667 
z
" clip-path="url(#pcf98b7c3a5)" style="fill: #d62728; opacity: 0.6"/>
   </g>
   <g id="patch_49">
    <path d="M 439.985599 94.126667 
L 443.649697 94.126667 
L 443.649697 69.946667 
L 439.985599 69.946667 
z
" clip-path="url(#pcf98b7c3a5)" style="fill: #d62728; opacity: 0.6"/>
   </g>
   <g id="patch_50">
    <path d="M 455.863355 94.126667 
L 456.677599 94.126667 
L 456.677599 69.946667 
L 455.863355 69.946667 
z
" clip-path="url(#pcf98b7c3a5)" style="fill: #d62728; opacity: 0.6"/>
   </g>
   <g id="patch_51">
    <path d="M 457.491843 94.126667 
L 457.898965 94.126667 
L 457.898965 69.946667 
L 457.491843 69.946667 
z
" clip-path="url(#pcf98b7c3a5)" style="fill: #d62728; opacity: 0.6"/>
   </g>
   <g id="patch_52">
    <path d="M 458.713209 94.126667 
L 460.748819 94.126667 
L 460.748819 69.946667 
L 458.713209 69.946667 
z
" clip-path="url(#pcf98b7c3a5)" style="fill: #d62728; opacity: 0.6"/>
   </g>
   <g id="patch_53">
    <path d="M 463.191551 94.126667 
L 464.005795 94.126667 
L 464.005795 69.946667 
L 463.191551 69.946667 
z
" clip-path="url(#pcf98b7c3a5)" style="fill: #d62728; opacity: 0.6"/>
   </g>
   <g id="patch_54">
    <path d="M 465.634283 94.126667 
L 468.484136 94.126667 
L 468.484136 69.946667 
L 465.634283 69.946667 
z
" clip-path="url(#pcf98b7c3a5)" style="fill: #d62728; opacity: 0.6"/>
   </g>
   <g id="patch_55">
    <path d="M 469.29838 94.126667 
L 470.112624 94.126667 
L 470.112624 69.946667 
L 469.29838 69.946667 
z
" clip-path="url(#pcf98b7c3a5)" style="fill: #d62728; opacity: 0.6"/>
   </g>
   <g id="patch_56">
    <path d="M 481.104917 94.126667 
L 488.433113 94.126667 
L 488.433113 69.946667 
L 481.104917 69.946667 
z
" clip-path="url(#pcf98b7c3a5)" style="fill: #d62728; opacity: 0.6"/>
   </g>
   <g id="patch_57">
    <path d="M 491.690088 94.126667 
L 496.16843 94.126667 
L 496.16843 69.946667 
L 491.690088 69.946667 
z
" clip-path="url(#pcf98b7c3a5)" style="fill: #d62728; opacity: 0.6"/>
   </g>
   <g id="patch_58">
    <path d="M 496.982674 94.126667 
L 499.018284 94.126667 
L 499.018284 69.946667 
L 496.982674 69.946667 
z
" clip-path="url(#pcf98b7c3a5)" style="fill: #d62728; opacity: 0.6"/>
   </g>
   <g id="patch_59">
    <path d="M 500.23965 94.126667 
L 500.646772 94.126667 
L 500.646772 69.946667 
L 500.23965 69.946667 
z
" clip-path="url(#pcf98b7c3a5)" style="fill: #d62728; opacity: 0.6"/>
   </g>
   <g id="patch_60">
    <path d="M 504.717991 94.126667 
L 505.532235 94.126667 
L 505.532235 69.946667 
L 504.717991 69.946667 
z
" clip-path="url(#pcf98b7c3a5)" style="fill: #d62728; opacity: 0.6"/>
   </g>
   <g id="patch_61">
    <path d="M 515.303162 94.126667 
L 516.117406 94.126667 
L 516.117406 69.946667 
L 515.303162 69.946667 
z
" clip-path="url(#pcf98b7c3a5)" style="fill: #d62728; opacity: 0.6"/>
   </g>
   <g id="patch_62">
    <path d="M 525.481211 94.126667 
L 533.623651 94.126667 
L 533.623651 69.946667 
L 525.481211 69.946667 
z
" clip-path="url(#pcf98b7c3a5)" style="fill: #d62728; opacity: 0.6"/>
   </g>
   <g id="patch_63">
    <path d="M 534.030773 94.126667 
L 535.252138 94.126667 
L 535.252138 69.946667 
L 534.030773 69.946667 
z
" clip-path="url(#pcf98b7c3a5)" style="fill: #d62728; opacity: 0.6"/>
   </g>
   <g id="patch_64">
    <path d="M 547.058675 94.126667 
L 549.501407 94.126667 
L 549.501407 69.946667 
L 547.058675 69.946667 
z
" clip-path="url(#pcf98b7c3a5)" style="fill: #d62728; opacity: 0.6"/>
   </g>
   <g id="patch_65">
    <path d="M 571.078871 94.126667 
L 575.150091 94.126667 
L 575.150091 69.946667 
L 571.078871 69.946667 
z
" clip-path="url(#pcf98b7c3a5)" style="fill: #d62728; opacity: 0.6"/>
   </g>
   <g id="patch_66">
    <path d="M 582.071164 94.126667 
L 582.478286 94.126667 
L 582.478286 69.946667 
L 582.071164 69.946667 
z
" clip-path="url(#pcf98b7c3a5)" style="fill: #d62728; opacity: 0.6"/>
   </g>
   <g id="patch_67">
    <path d="M 586.549506 94.126667 
L 587.36375 94.126667 
L 587.36375 69.946667 
L 586.549506 69.946667 
z
" clip-path="url(#pcf98b7c3a5)" style="fill: #d62728; opacity: 0.6"/>
   </g>
   <g id="patch_68">
    <path d="M 591.027848 94.126667 
L 601.613019 94.126667 
L 601.613019 69.946667 
L 591.027848 69.946667 
z
" clip-path="url(#pcf98b7c3a5)" style="fill: #d62728; opacity: 0.6"/>
   </g>
   <g id="patch_69">
    <path d="M 612.605312 94.126667 
L 613.826678 94.126667 
L 613.826678 69.946667 
L 612.605312 69.946667 
z
" clip-path="url(#pcf98b7c3a5)" style="fill: #d62728; opacity: 0.6"/>
   </g>
   <g id="patch_70">
    <path d="M 645.175069 94.126667 
L 645.582191 94.126667 
L 645.582191 69.946667 
L 645.175069 69.946667 
z
" clip-path="url(#pcf98b7c3a5)" style="fill: #d62728; opacity: 0.6"/>
   </g>
   <g id="patch_71">
    <path d="M 651.281898 94.126667 
L 658.202972 94.126667 
L 658.202972 69.946667 
L 651.281898 69.946667 
z
" clip-path="url(#pcf98b7c3a5)" style="fill: #d62728; opacity: 0.6"/>
   </g>
   <g id="patch_72">
    <path d="M 665.531167 94.126667 
L 666.345411 94.126667 
L 666.345411 69.946667 
L 665.531167 69.946667 
z
" clip-path="url(#pcf98b7c3a5)" style="fill: #d62728; opacity: 0.6"/>
   </g>
   <g id="patch_73">
    <path d="M 667.159655 94.126667 
L 673.673606 94.126667 
L 673.673606 69.946667 
L 667.159655 69.946667 
z
" clip-path="url(#pcf98b7c3a5)" style="fill: #d62728; opacity: 0.6"/>
   </g>
   <g id="patch_74">
    <path d="M 679.373314 94.126667 
L 683.444533 94.126667 
L 683.444533 69.946667 
L 679.373314 69.946667 
z
" clip-path="url(#pcf98b7c3a5)" style="fill: #d62728; opacity: 0.6"/>
   </g>
   <g id="matplotlib.axis_1">
    <g id="text_1">
     <!-- annot -->
     <g transform="translate(14.905469 81.300312) scale(0.1 -0.1)">
      <defs>
       <path id="DejaVuSans-61" d="M 2194 1759 
Q 1497 1759 1228 1600 
Q 959 1441 959 1056 
Q 959 750 1161 570 
Q 1363 391 1709 391 
Q 2188 391 2477 730 
Q 2766 1069 2766 1631 
L 2766 1759 
L 2194 1759 
z
M 3341 1997 
L 3341 0 
L 2766 0 
L 2766 531 
Q 2569 213 2275 61 
Q 1981 -91 1556 -91 
Q 1019 -91 701 211 
Q 384 513 384 1019 
Q 384 1609 779 1909 
Q 1175 2209 1959 2209 
L 2766 2209 
L 2766 2266 
Q 2766 2663 2505 2880 
Q 2244 3097 1772 3097 
Q 1472 3097 1187 3025 
Q 903 2953 641 2809 
L 641 3341 
Q 956 3463 1253 3523 
Q 1550 3584 1831 3584 
Q 2591 3584 2966 3190 
Q 3341 2797 3341 1997 
z
" transform="scale(0.015625)"/>
       <path id="DejaVuSans-6e" d="M 3513 2113 
L 3513 0 
L 2938 0 
L 2938 2094 
Q 2938 2591 2744 2837 
Q 2550 3084 2163 3084 
Q 1697 3084 1428 2787 
Q 1159 2491 1159 1978 
L 1159 0 
L 581 0 
L 581 3500 
L 1159 3500 
L 1159 2956 
Q 1366 3272 1645 3428 
Q 1925 3584 2291 3584 
Q 2894 3584 3203 3211 
Q 3513 2838 3513 2113 
z
" transform="scale(0.015625)"/>
       <path id="DejaVuSans-6f" d="M 1959 3097 
Q 1497 3097 1228 2736 
Q 959 2375 959 1747 
Q 959 1119 1226 758 
Q 1494 397 1959 397 
Q 2419 397 2687 759 
Q 2956 1122 2956 1747 
Q 2956 2369 2687 2733 
Q 2419 3097 1959 3097 
z
M 1959 3584 
Q 2709 3584 3137 3096 
Q 3566 2609 3566 1747 
Q 3566 888 3137 398 
Q 2709 -91 1959 -91 
Q 1206 -91 779 398 
Q 353 888 353 1747 
Q 353 2609 779 3096 
Q 1206 3584 1959 3584 
z
" transform="scale(0.015625)"/>
       <path id="DejaVuSans-74" d="M 1172 4494 
L 1172 3500 
L 2356 3500 
L 2356 3053 
L 1172 3053 
L 1172 1153 
Q 1172 725 1289 603 
Q 1406 481 1766 481 
L 2356 481 
L 2356 0 
L 1766 0 
Q 1100 0 847 248 
Q 594 497 594 1153 
L 594 3053 
L 172 3053 
L 172 3500 
L 594 3500 
L 594 4494 
L 1172 4494 
z
" transform="scale(0.015625)"/>
      </defs>
      <use xlink:href="#DejaVuSans-61"/>
      <use xlink:href="#DejaVuSans-6e" x="61.279297"/>
      <use xlink:href="#DejaVuSans-6e" x="124.658203"/>
      <use xlink:href="#DejaVuSans-6f" x="188.037109"/>
      <use xlink:href="#DejaVuSans-74" x="249.21875"/>
     </g>
    </g>
   </g>
  </g>
  <g id="axes_2">
   <g id="patch_75">
    <path d="M 59.326563 55.546667 
L 683.806562 55.546667 
L 683.806562 28.68 
L 59.326563 28.68 
z
" style="fill: #ffffff"/>
   </g>
   <g id="patch_76">
    <path d="M 138.865056 52.86 
L 139.273037 52.86 
L 139.273037 28.68 
L 138.865056 28.68 
z
" clip-path="url(#p209d911ae7)" style="fill: #1f77b4; opacity: 0.6"/>
   </g>
   <g id="patch_77">
    <path d="M 144.558311 52.86 
L 145.009956 52.86 
L 145.009956 28.68 
L 144.558311 28.68 
z
" clip-path="url(#p209d911ae7)" style="fill: #1f77b4; opacity: 0.6"/>
   </g>
   <g id="patch_78">
    <path d="M 206.79893 52.86 
L 207.611952 52.86 
L 207.611952 28.68 
L 206.79893 28.68 
z
" clip-path="url(#p209d911ae7)" style="fill: #1f77b4; opacity: 0.6"/>
   </g>
   <g id="patch_79">
    <path d="M 210.922232 52.86 
L 212.534814 52.86 
L 212.534814 28.68 
L 210.922232 28.68 
z
" clip-path="url(#p209d911ae7)" style="fill: #1f77b4; opacity: 0.6"/>
   </g>
   <g id="patch_80">
    <path d="M 260.919199 52.86 
L 262.945055 52.86 
L 262.945055 28.68 
L 260.919199 28.68 
z
" clip-path="url(#p209d911ae7)" style="fill: #1f77b4; opacity: 0.6"/>
   </g>
   <g id="patch_81">
    <path d="M 266.231583 52.86 
L 268.768393 52.86 
L 268.768393 28.68 
L 266.231583 28.68 
z
" clip-path="url(#p209d911ae7)" style="fill: #1f77b4; opacity: 0.6"/>
   </g>
   <g id="patch_82">
    <path d="M 278.777494 52.86 
L 279.607299 52.86 
L 279.607299 28.68 
L 278.777494 28.68 
z
" clip-path="url(#p209d911ae7)" style="fill: #1f77b4; opacity: 0.6"/>
   </g>
   <g id="patch_83">
    <path d="M 312.135208 52.86 
L 312.936468 52.86 
L 312.936468 28.68 
L 312.135208 28.68 
z
" clip-path="url(#p209d911ae7)" style="fill: #1f77b4; opacity: 0.6"/>
   </g>
   <g id="patch_84">
    <path d="M 347.935302 52.86 
L 348.992509 52.86 
L 348.992509 28.68 
L 347.935302 28.68 
z
" clip-path="url(#p209d911ae7)" style="fill: #1f77b4; opacity: 0.6"/>
   </g>
   <g id="patch_85">
    <path d="M 351.594397 52.86 
L 353.041752 52.86 
L 353.041752 28.68 
L 351.594397 28.68 
z
" clip-path="url(#p209d911ae7)" style="fill: #1f77b4; opacity: 0.6"/>
   </g>
   <g id="patch_86">
    <path d="M 361.987536 52.86 
L 363.184833 52.86 
L 363.184833 28.68 
L 361.987536 28.68 
z
" clip-path="url(#p209d911ae7)" style="fill: #1f77b4; opacity: 0.6"/>
   </g>
   <g id="patch_87">
    <path d="M 451.185321 52.86 
L 451.545917 52.86 
L 451.545917 28.68 
L 451.185321 28.68 
z
" clip-path="url(#p209d911ae7)" style="fill: #1f77b4; opacity: 0.6"/>
   </g>
   <g id="patch_88">
    <path d="M 499.743352 52.86 
L 501.295993 52.86 
L 501.295993 28.68 
L 499.743352 28.68 
z
" clip-path="url(#p209d911ae7)" style="fill: #1f77b4; opacity: 0.6"/>
   </g>
   <g id="patch_89">
    <path d="M 512.465038 52.86 
L 513.660588 52.86 
L 513.660588 28.68 
L 512.465038 28.68 
z
" clip-path="url(#p209d911ae7)" style="fill: #1f77b4; opacity: 0.6"/>
   </g>
   <g id="patch_90">
    <path d="M 564.476322 52.86 
L 564.879084 52.86 
L 564.879084 28.68 
L 564.476322 28.68 
z
" clip-path="url(#p209d911ae7)" style="fill: #1f77b4; opacity: 0.6"/>
   </g>
   <g id="patch_91">
    <path d="M 575.714309 52.86 
L 577.364961 52.86 
L 577.364961 28.68 
L 575.714309 28.68 
z
" clip-path="url(#p209d911ae7)" style="fill: #1f77b4; opacity: 0.6"/>
   </g>
   <g id="patch_92">
    <path d="M 582.086554 52.86 
L 583.29972 52.86 
L 583.29972 28.68 
L 582.086554 28.68 
z
" clip-path="url(#p209d911ae7)" style="fill: #1f77b4; opacity: 0.6"/>
   </g>
   <g id="patch_93">
    <path d="M 587.505917 52.86 
L 588.724783 52.86 
L 588.724783 28.68 
L 587.505917 28.68 
z
" clip-path="url(#p209d911ae7)" style="fill: #1f77b4; opacity: 0.6"/>
   </g>
   <g id="patch_94">
    <path d="M 673.289442 52.86 
L 674.95363 52.86 
L 674.95363 28.68 
L 673.289442 28.68 
z
" clip-path="url(#p209d911ae7)" style="fill: #1f77b4; opacity: 0.6"/>
   </g>
   <g id="matplotlib.axis_2">
    <g id="text_2">
     <!-- ECH90 -->
     <g transform="translate(12.553125 40.033646) scale(0.1 -0.1)">
      <defs>
       <path id="DejaVuSans-45" d="M 628 4666 
L 3578 4666 
L 3578 4134 
L 1259 4134 
L 1259 2753 
L 3481 2753 
L 3481 2222 
L 1259 2222 
L 1259 531 
L 3634 531 
L 3634 0 
L 628 0 
L 628 4666 
z
" transform="scale(0.015625)"/>
       <path id="DejaVuSans-43" d="M 4122 4306 
L 4122 3641 
Q 3803 3938 3442 4084 
Q 3081 4231 2675 4231 
Q 1875 4231 1450 3742 
Q 1025 3253 1025 2328 
Q 1025 1406 1450 917 
Q 1875 428 2675 428 
Q 3081 428 3442 575 
Q 3803 722 4122 1019 
L 4122 359 
Q 3791 134 3420 21 
Q 3050 -91 2638 -91 
Q 1578 -91 968 557 
Q 359 1206 359 2328 
Q 359 3453 968 4101 
Q 1578 4750 2638 4750 
Q 3056 4750 3426 4639 
Q 3797 4528 4122 4306 
z
" transform="scale(0.015625)"/>
       <path id="DejaVuSans-48" d="M 628 4666 
L 1259 4666 
L 1259 2753 
L 3553 2753 
L 3553 4666 
L 4184 4666 
L 4184 0 
L 3553 0 
L 3553 2222 
L 1259 2222 
L 1259 0 
L 628 0 
L 628 4666 
z
" transform="scale(0.015625)"/>
       <path id="DejaVuSans-39" d="M 703 97 
L 703 672 
Q 941 559 1184 500 
Q 1428 441 1663 441 
Q 2288 441 2617 861 
Q 2947 1281 2994 2138 
Q 2813 1869 2534 1725 
Q 2256 1581 1919 1581 
Q 1219 1581 811 2004 
Q 403 2428 403 3163 
Q 403 3881 828 4315 
Q 1253 4750 1959 4750 
Q 2769 4750 3195 4129 
Q 3622 3509 3622 2328 
Q 3622 1225 3098 567 
Q 2575 -91 1691 -91 
Q 1453 -91 1209 -44 
Q 966 3 703 97 
z
M 1959 2075 
Q 2384 2075 2632 2365 
Q 2881 2656 2881 3163 
Q 2881 3666 2632 3958 
Q 2384 4250 1959 4250 
Q 1534 4250 1286 3958 
Q 1038 3666 1038 3163 
Q 1038 2656 1286 2365 
Q 1534 2075 1959 2075 
z
" transform="scale(0.015625)"/>
       <path id="DejaVuSans-30" d="M 2034 4250 
Q 1547 4250 1301 3770 
Q 1056 3291 1056 2328 
Q 1056 1369 1301 889 
Q 1547 409 2034 409 
Q 2525 409 2770 889 
Q 3016 1369 3016 2328 
Q 3016 3291 2770 3770 
Q 2525 4250 2034 4250 
z
M 2034 4750 
Q 2819 4750 3233 4129 
Q 3647 3509 3647 2328 
Q 3647 1150 3233 529 
Q 2819 -91 2034 -91 
Q 1250 -91 836 529 
Q 422 1150 422 2328 
Q 422 3509 836 4129 
Q 1250 4750 2034 4750 
z
" transform="scale(0.015625)"/>
      </defs>
      <use xlink:href="#DejaVuSans-45"/>
      <use xlink:href="#DejaVuSans-43" x="63.183594"/>
      <use xlink:href="#DejaVuSans-48" x="133.007812"/>
      <use xlink:href="#DejaVuSans-39" x="208.203125"/>
      <use xlink:href="#DejaVuSans-30" x="271.826172"/>
     </g>
    </g>
   </g>
   <g id="text_3">
    <!-- chrX -->
    <g transform="translate(59.326563 22.68) scale(0.1 -0.1)">
     <defs>
      <path id="DejaVuSans-63" d="M 3122 3366 
L 3122 2828 
Q 2878 2963 2633 3030 
Q 2388 3097 2138 3097 
Q 1578 3097 1268 2742 
Q 959 2388 959 1747 
Q 959 1106 1268 751 
Q 1578 397 2138 397 
Q 2388 397 2633 464 
Q 2878 531 3122 666 
L 3122 134 
Q 2881 22 2623 -34 
Q 2366 -91 2075 -91 
Q 1284 -91 818 406 
Q 353 903 353 1747 
Q 353 2603 823 3093 
Q 1294 3584 2113 3584 
Q 2378 3584 2631 3529 
Q 2884 3475 3122 3366 
z
" transform="scale(0.015625)"/>
      <path id="DejaVuSans-68" d="M 3513 2113 
L 3513 0 
L 2938 0 
L 2938 2094 
Q 2938 2591 2744 2837 
Q 2550 3084 2163 3084 
Q 1697 3084 1428 2787 
Q 1159 2491 1159 1978 
L 1159 0 
L 581 0 
L 581 4863 
L 1159 4863 
L 1159 2956 
Q 1366 3272 1645 3428 
Q 1925 3584 2291 3584 
Q 2894 3584 3203 3211 
Q 3513 2838 3513 2113 
z
" transform="scale(0.015625)"/>
      <path id="DejaVuSans-72" d="M 2631 2963 
Q 2534 3019 2420 3045 
Q 2306 3072 2169 3072 
Q 1681 3072 1420 2755 
Q 1159 2438 1159 1844 
L 1159 0 
L 581 0 
L 581 3500 
L 1159 3500 
L 1159 2956 
Q 1341 3275 1631 3429 
Q 1922 3584 2338 3584 
Q 2397 3584 2469 3576 
Q 2541 3569 2628 3553 
L 2631 2963 
z
" transform="scale(0.015625)"/>
      <path id="DejaVuSans-58" d="M 403 4666 
L 1081 4666 
L 2241 2931 
L 3406 4666 
L 4084 4666 
L 2584 2425 
L 4184 0 
L 3506 0 
L 2194 1984 
L 872 0 
L 191 0 
L 1856 2491 
L 403 4666 
z
" transform="scale(0.015625)"/>
     </defs>
     <use xlink:href="#DejaVuSans-63"/>
     <use xlink:href="#DejaVuSans-68" x="54.980469"/>
     <use xlink:href="#DejaVuSans-72" x="118.359375"/>
     <use xlink:href="#DejaVuSans-58" x="159.472656"/>
    </g>
   </g>
  </g>
  <g id="axes_3">
   <g id="patch_95">
    <path d="M 59.326563 138.08 
L 683.806562 138.08 
L 683.806562 111.213333 
L 59.326563 111.213333 
z
" style="fill: #ffffff"/>
   </g>
   <g id="patch_96">
    <path d="M 138.865056 135.393333 
L 139.273037 135.393333 
L 139.273037 111.213333 
L 138.865056 111.213333 
z
" clip-path="url(#p1350ec7f0a)" style="fill: #2ca02c; opacity: 0.6"/>
   </g>
   <g id="patch_97">
    <path d="M 211.590177 135.393333 
L 212.534814 135.393333 
L 212.534814 111.213333 
L 211.590177 111.213333 
z
" clip-path="url(#p1350ec7f0a)" style="fill: #2ca02c; opacity: 0.6"/>
   </g>
   <g id="patch_98">
    <path d="M 260.919199 135.393333 
L 262.945055 135.393333 
L 262.945055 111.213333 
L 260.919199 111.213333 
z
" clip-path="url(#p1350ec7f0a)" style="fill: #2ca02c; opacity: 0.6"/>
   </g>
   <g id="patch_99">
    <path d="M 267.773008 135.393333 
L 268.768393 135.393333 
L 268.768393 111.213333 
L 267.773008 111.213333 
z
" clip-path="url(#p1350ec7f0a)" style="fill: #2ca02c; opacity: 0.6"/>
   </g>
   <g id="patch_100">
    <path d="M 278.777494 135.393333 
L 279.607299 135.393333 
L 279.607299 111.213333 
L 278.777494 111.213333 
z
" clip-path="url(#p1350ec7f0a)" style="fill: #2ca02c; opacity: 0.6"/>
   </g>
   <g id="patch_101">
    <path d="M 312.149302 135.393333 
L 312.936468 135.393333 
L 312.936468 111.213333 
L 312.149302 111.213333 
z
" clip-path="url(#p1350ec7f0a)" style="fill: #2ca02c; opacity: 0.6"/>
   </g>
   <g id="patch_102">
    <path d="M 348.383157 135.393333 
L 348.790279 135.393333 
L 348.790279 111.213333 
L 348.383157 111.213333 
z
" clip-path="url(#p1350ec7f0a)" style="fill: #2ca02c; opacity: 0.6"/>
   </g>
   <g id="patch_103">
    <path d="M 351.594397 135.393333 
L 351.640133 135.393333 
L 351.640133 111.213333 
L 351.594397 111.213333 
z
" clip-path="url(#p1350ec7f0a)" style="fill: #2ca02c; opacity: 0.6"/>
   </g>
   <g id="patch_104">
    <path d="M 361.987536 135.393333 
L 363.184833 135.393333 
L 363.184833 111.213333 
L 361.987536 111.213333 
z
" clip-path="url(#p1350ec7f0a)" style="fill: #2ca02c; opacity: 0.6"/>
   </g>
   <g id="patch_105">
    <path d="M 500.23965 135.393333 
L 500.646772 135.393333 
L 500.646772 111.213333 
L 500.23965 111.213333 
z
" clip-path="url(#p1350ec7f0a)" style="fill: #2ca02c; opacity: 0.6"/>
   </g>
   <g id="patch_106">
    <path d="M 582.086554 135.393333 
L 582.478286 135.393333 
L 582.478286 111.213333 
L 582.086554 111.213333 
z
" clip-path="url(#p1350ec7f0a)" style="fill: #2ca02c; opacity: 0.6"/>
   </g>
   <g id="patch_107">
    <path d="M 673.289442 135.393333 
L 673.673606 135.393333 
L 673.673606 111.213333 
L 673.289442 111.213333 
z
" clip-path="url(#p1350ec7f0a)" style="fill: #2ca02c; opacity: 0.6"/>
   </g>
   <g id="matplotlib.axis_3">
    <g id="xtick_1">
     <g id="line2d_1">
      <defs>
       <path id="ma34f8ee5e4" d="M 0 0 
L 0 3.5 
" style="stroke: #000000; stroke-width: 0.8"/>
      </defs>
      <g>
       <use xlink:href="#ma34f8ee5e4" x="59.326563" y="138.08" style="stroke: #000000; stroke-width: 0.8"/>
      </g>
     </g>
     <g id="text_4">
      <!-- 0 Mbp -->
      <g transform="translate(43.89375 152.678438) scale(0.1 -0.1)">
       <defs>
        <path id="DejaVuSans-20" transform="scale(0.015625)"/>
        <path id="DejaVuSans-4d" d="M 628 4666 
L 1569 4666 
L 2759 1491 
L 3956 4666 
L 4897 4666 
L 4897 0 
L 4281 0 
L 4281 4097 
L 3078 897 
L 2444 897 
L 1241 4097 
L 1241 0 
L 628 0 
L 628 4666 
z
" transform="scale(0.015625)"/>
        <path id="DejaVuSans-62" d="M 3116 1747 
Q 3116 2381 2855 2742 
Q 2594 3103 2138 3103 
Q 1681 3103 1420 2742 
Q 1159 2381 1159 1747 
Q 1159 1113 1420 752 
Q 1681 391 2138 391 
Q 2594 391 2855 752 
Q 3116 1113 3116 1747 
z
M 1159 2969 
Q 1341 3281 1617 3432 
Q 1894 3584 2278 3584 
Q 2916 3584 3314 3078 
Q 3713 2572 3713 1747 
Q 3713 922 3314 415 
Q 2916 -91 2278 -91 
Q 1894 -91 1617 61 
Q 1341 213 1159 525 
L 1159 0 
L 581 0 
L 581 4863 
L 1159 4863 
L 1159 2969 
z
" transform="scale(0.015625)"/>
        <path id="DejaVuSans-70" d="M 1159 525 
L 1159 -1331 
L 581 -1331 
L 581 3500 
L 1159 3500 
L 1159 2969 
Q 1341 3281 1617 3432 
Q 1894 3584 2278 3584 
Q 2916 3584 3314 3078 
Q 3713 2572 3713 1747 
Q 3713 922 3314 415 
Q 2916 -91 2278 -91 
Q 1894 -91 1617 61 
Q 1341 213 1159 525 
z
M 3116 1747 
Q 3116 2381 2855 2742 
Q 2594 3103 2138 3103 
Q 1681 3103 1420 2742 
Q 1159 2381 1159 1747 
Q 1159 1113 1420 752 
Q 1681 391 2138 391 
Q 2594 391 2855 752 
Q 3116 1113 3116 1747 
z
" transform="scale(0.015625)"/>
       </defs>
       <use xlink:href="#DejaVuSans-30"/>
       <use xlink:href="#DejaVuSans-20" x="63.623047"/>
       <use xlink:href="#DejaVuSans-4d" x="95.410156"/>
       <use xlink:href="#DejaVuSans-62" x="181.689453"/>
       <use xlink:href="#DejaVuSans-70" x="245.166016"/>
      </g>
     </g>
    </g>
    <g id="xtick_2">
     <g id="line2d_2">
      <g>
       <use xlink:href="#ma34f8ee5e4" x="215.446562" y="138.08" style="stroke: #000000; stroke-width: 0.8"/>
      </g>
     </g>
     <g id="text_5">
      <!-- 38 Mbp -->
      <g transform="translate(196.8325 152.678438) scale(0.1 -0.1)">
       <defs>
        <path id="DejaVuSans-33" d="M 2597 2516 
Q 3050 2419 3304 2112 
Q 3559 1806 3559 1356 
Q 3559 666 3084 287 
Q 2609 -91 1734 -91 
Q 1441 -91 1130 -33 
Q 819 25 488 141 
L 488 750 
Q 750 597 1062 519 
Q 1375 441 1716 441 
Q 2309 441 2620 675 
Q 2931 909 2931 1356 
Q 2931 1769 2642 2001 
Q 2353 2234 1838 2234 
L 1294 2234 
L 1294 2753 
L 1863 2753 
Q 2328 2753 2575 2939 
Q 2822 3125 2822 3475 
Q 2822 3834 2567 4026 
Q 2313 4219 1838 4219 
Q 1578 4219 1281 4162 
Q 984 4106 628 3988 
L 628 4550 
Q 988 4650 1302 4700 
Q 1616 4750 1894 4750 
Q 2613 4750 3031 4423 
Q 3450 4097 3450 3541 
Q 3450 3153 3228 2886 
Q 3006 2619 2597 2516 
z
" transform="scale(0.015625)"/>
        <path id="DejaVuSans-38" d="M 2034 2216 
Q 1584 2216 1326 1975 
Q 1069 1734 1069 1313 
Q 1069 891 1326 650 
Q 1584 409 2034 409 
Q 2484 409 2743 651 
Q 3003 894 3003 1313 
Q 3003 1734 2745 1975 
Q 2488 2216 2034 2216 
z
M 1403 2484 
Q 997 2584 770 2862 
Q 544 3141 544 3541 
Q 544 4100 942 4425 
Q 1341 4750 2034 4750 
Q 2731 4750 3128 4425 
Q 3525 4100 3525 3541 
Q 3525 3141 3298 2862 
Q 3072 2584 2669 2484 
Q 3125 2378 3379 2068 
Q 3634 1759 3634 1313 
Q 3634 634 3220 271 
Q 2806 -91 2034 -91 
Q 1263 -91 848 271 
Q 434 634 434 1313 
Q 434 1759 690 2068 
Q 947 2378 1403 2484 
z
M 1172 3481 
Q 1172 3119 1398 2916 
Q 1625 2713 2034 2713 
Q 2441 2713 2670 2916 
Q 2900 3119 2900 3481 
Q 2900 3844 2670 4047 
Q 2441 4250 2034 4250 
Q 1625 4250 1398 4047 
Q 1172 3844 1172 3481 
z
" transform="scale(0.015625)"/>
       </defs>
       <use xlink:href="#DejaVuSans-33"/>
       <use xlink:href="#DejaVuSans-38" x="63.623047"/>
       <use xlink:href="#DejaVuSans-20" x="127.246094"/>
       <use xlink:href="#DejaVuSans-4d" x="159.033203"/>
       <use xlink:href="#DejaVuSans-62" x="245.3125"/>
       <use xlink:href="#DejaVuSans-70" x="308.789062"/>
      </g>
     </g>
    </g>
    <g id="xtick_3">
     <g id="line2d_3">
      <g>
       <use xlink:href="#ma34f8ee5e4" x="371.566563" y="138.08" style="stroke: #000000; stroke-width: 0.8"/>
      </g>
     </g>
     <g id="text_6">
      <!-- 76 Mbp -->
      <g transform="translate(352.9525 152.678438) scale(0.1 -0.1)">
       <defs>
        <path id="DejaVuSans-37" d="M 525 4666 
L 3525 4666 
L 3525 4397 
L 1831 0 
L 1172 0 
L 2766 4134 
L 525 4134 
L 525 4666 
z
" transform="scale(0.015625)"/>
        <path id="DejaVuSans-36" d="M 2113 2584 
Q 1688 2584 1439 2293 
Q 1191 2003 1191 1497 
Q 1191 994 1439 701 
Q 1688 409 2113 409 
Q 2538 409 2786 701 
Q 3034 994 3034 1497 
Q 3034 2003 2786 2293 
Q 2538 2584 2113 2584 
z
M 3366 4563 
L 3366 3988 
Q 3128 4100 2886 4159 
Q 2644 4219 2406 4219 
Q 1781 4219 1451 3797 
Q 1122 3375 1075 2522 
Q 1259 2794 1537 2939 
Q 1816 3084 2150 3084 
Q 2853 3084 3261 2657 
Q 3669 2231 3669 1497 
Q 3669 778 3244 343 
Q 2819 -91 2113 -91 
Q 1303 -91 875 529 
Q 447 1150 447 2328 
Q 447 3434 972 4092 
Q 1497 4750 2381 4750 
Q 2619 4750 2861 4703 
Q 3103 4656 3366 4563 
z
" transform="scale(0.015625)"/>
       </defs>
       <use xlink:href="#DejaVuSans-37"/>
       <use xlink:href="#DejaVuSans-36" x="63.623047"/>
       <use xlink:href="#DejaVuSans-20" x="127.246094"/>
       <use xlink:href="#DejaVuSans-4d" x="159.033203"/>
       <use xlink:href="#DejaVuSans-62" x="245.3125"/>
       <use xlink:href="#DejaVuSans-70" x="308.789062"/>
      </g>
     </g>
    </g>
    <g id="xtick_4">
     <g id="line2d_4">
      <g>
       <use xlink:href="#ma34f8ee5e4" x="527.686562" y="138.08" style="stroke: #000000; stroke-width: 0.8"/>
      </g>
     </g>
     <g id="text_7">
      <!-- 115 Mbp -->
      <g transform="translate(505.89125 152.678438) scale(0.1 -0.1)">
       <defs>
        <path id="DejaVuSans-31" d="M 794 531 
L 1825 531 
L 1825 4091 
L 703 3866 
L 703 4441 
L 1819 4666 
L 2450 4666 
L 2450 531 
L 3481 531 
L 3481 0 
L 794 0 
L 794 531 
z
" transform="scale(0.015625)"/>
        <path id="DejaVuSans-35" d="M 691 4666 
L 3169 4666 
L 3169 4134 
L 1269 4134 
L 1269 2991 
Q 1406 3038 1543 3061 
Q 1681 3084 1819 3084 
Q 2600 3084 3056 2656 
Q 3513 2228 3513 1497 
Q 3513 744 3044 326 
Q 2575 -91 1722 -91 
Q 1428 -91 1123 -41 
Q 819 9 494 109 
L 494 744 
Q 775 591 1075 516 
Q 1375 441 1709 441 
Q 2250 441 2565 725 
Q 2881 1009 2881 1497 
Q 2881 1984 2565 2268 
Q 2250 2553 1709 2553 
Q 1456 2553 1204 2497 
Q 953 2441 691 2322 
L 691 4666 
z
" transform="scale(0.015625)"/>
       </defs>
       <use xlink:href="#DejaVuSans-31"/>
       <use xlink:href="#DejaVuSans-31" x="63.623047"/>
       <use xlink:href="#DejaVuSans-35" x="127.246094"/>
       <use xlink:href="#DejaVuSans-20" x="190.869141"/>
       <use xlink:href="#DejaVuSans-4d" x="222.65625"/>
       <use xlink:href="#DejaVuSans-62" x="308.935547"/>
       <use xlink:href="#DejaVuSans-70" x="372.412109"/>
      </g>
     </g>
    </g>
    <g id="xtick_5">
     <g id="line2d_5">
      <g>
       <use xlink:href="#ma34f8ee5e4" x="683.806563" y="138.08" style="stroke: #000000; stroke-width: 0.8"/>
      </g>
     </g>
     <g id="text_8">
      <!-- 153 Mbp -->
      <g transform="translate(662.01125 152.678438) scale(0.1 -0.1)">
       <use xlink:href="#DejaVuSans-31"/>
       <use xlink:href="#DejaVuSans-35" x="63.623047"/>
       <use xlink:href="#DejaVuSans-33" x="127.246094"/>
       <use xlink:href="#DejaVuSans-20" x="190.869141"/>
       <use xlink:href="#DejaVuSans-4d" x="222.65625"/>
       <use xlink:href="#DejaVuSans-62" x="308.935547"/>
       <use xlink:href="#DejaVuSans-70" x="372.412109"/>
      </g>
     </g>
    </g>
   </g>
   <g id="matplotlib.axis_4">
    <g id="text_9">
     <!-- Intersect -->
     <g transform="translate(7.2 122.566979) scale(0.1 -0.1)">
      <defs>
       <path id="DejaVuSans-49" d="M 628 4666 
L 1259 4666 
L 1259 0 
L 628 0 
L 628 4666 
z
" transform="scale(0.015625)"/>
       <path id="DejaVuSans-65" d="M 3597 1894 
L 3597 1613 
L 953 1613 
Q 991 1019 1311 708 
Q 1631 397 2203 397 
Q 2534 397 2845 478 
Q 3156 559 3463 722 
L 3463 178 
Q 3153 47 2828 -22 
Q 2503 -91 2169 -91 
Q 1331 -91 842 396 
Q 353 884 353 1716 
Q 353 2575 817 3079 
Q 1281 3584 2069 3584 
Q 2775 3584 3186 3129 
Q 3597 2675 3597 1894 
z
M 3022 2063 
Q 3016 2534 2758 2815 
Q 2500 3097 2075 3097 
Q 1594 3097 1305 2825 
Q 1016 2553 972 2059 
L 3022 2063 
z
" transform="scale(0.015625)"/>
       <path id="DejaVuSans-73" d="M 2834 3397 
L 2834 2853 
Q 2591 2978 2328 3040 
Q 2066 3103 1784 3103 
Q 1356 3103 1142 2972 
Q 928 2841 928 2578 
Q 928 2378 1081 2264 
Q 1234 2150 1697 2047 
L 1894 2003 
Q 2506 1872 2764 1633 
Q 3022 1394 3022 966 
Q 3022 478 2636 193 
Q 2250 -91 1575 -91 
Q 1294 -91 989 -36 
Q 684 19 347 128 
L 347 722 
Q 666 556 975 473 
Q 1284 391 1588 391 
Q 1994 391 2212 530 
Q 2431 669 2431 922 
Q 2431 1156 2273 1281 
Q 2116 1406 1581 1522 
L 1381 1569 
Q 847 1681 609 1914 
Q 372 2147 372 2553 
Q 372 3047 722 3315 
Q 1072 3584 1716 3584 
Q 2034 3584 2315 3537 
Q 2597 3491 2834 3397 
z
" transform="scale(0.015625)"/>
      </defs>
      <use xlink:href="#DejaVuSans-49"/>
      <use xlink:href="#DejaVuSans-6e" x="29.492188"/>
      <use xlink:href="#DejaVuSans-74" x="92.871094"/>
      <use xlink:href="#DejaVuSans-65" x="132.080078"/>
      <use xlink:href="#DejaVuSans-72" x="193.603516"/>
      <use xlink:href="#DejaVuSans-73" x="234.716797"/>
      <use xlink:href="#DejaVuSans-65" x="286.816406"/>
      <use xlink:href="#DejaVuSans-63" x="348.339844"/>
      <use xlink:href="#DejaVuSans-74" x="403.320312"/>
     </g>
    </g>
   </g>
   <g id="patch_108">
    <path d="M 59.326563 138.08 
L 683.806563 138.08 
" style="fill: none; stroke: #000000; stroke-width: 0.8; stroke-linejoin: miter; stroke-linecap: square"/>
   </g>
  </g>
  <g id="text_10">
   <!-- All edges -->
   <g transform="translate(329.004062 16.318125) scale(0.12 -0.12)">
    <defs>
     <path id="DejaVuSans-41" d="M 2188 4044 
L 1331 1722 
L 3047 1722 
L 2188 4044 
z
M 1831 4666 
L 2547 4666 
L 4325 0 
L 3669 0 
L 3244 1197 
L 1141 1197 
L 716 0 
L 50 0 
L 1831 4666 
z
" transform="scale(0.015625)"/>
     <path id="DejaVuSans-6c" d="M 603 4863 
L 1178 4863 
L 1178 0 
L 603 0 
L 603 4863 
z
" transform="scale(0.015625)"/>
     <path id="DejaVuSans-64" d="M 2906 2969 
L 2906 4863 
L 3481 4863 
L 3481 0 
L 2906 0 
L 2906 525 
Q 2725 213 2448 61 
Q 2172 -91 1784 -91 
Q 1150 -91 751 415 
Q 353 922 353 1747 
Q 353 2572 751 3078 
Q 1150 3584 1784 3584 
Q 2172 3584 2448 3432 
Q 2725 3281 2906 2969 
z
M 947 1747 
Q 947 1113 1208 752 
Q 1469 391 1925 391 
Q 2381 391 2643 752 
Q 2906 1113 2906 1747 
Q 2906 2381 2643 2742 
Q 2381 3103 1925 3103 
Q 1469 3103 1208 2742 
Q 947 2381 947 1747 
z
" transform="scale(0.015625)"/>
     <path id="DejaVuSans-67" d="M 2906 1791 
Q 2906 2416 2648 2759 
Q 2391 3103 1925 3103 
Q 1463 3103 1205 2759 
Q 947 2416 947 1791 
Q 947 1169 1205 825 
Q 1463 481 1925 481 
Q 2391 481 2648 825 
Q 2906 1169 2906 1791 
z
M 3481 434 
Q 3481 -459 3084 -895 
Q 2688 -1331 1869 -1331 
Q 1566 -1331 1297 -1286 
Q 1028 -1241 775 -1147 
L 775 -588 
Q 1028 -725 1275 -790 
Q 1522 -856 1778 -856 
Q 2344 -856 2625 -561 
Q 2906 -266 2906 331 
L 2906 616 
Q 2728 306 2450 153 
Q 2172 0 1784 0 
Q 1141 0 747 490 
Q 353 981 353 1791 
Q 353 2603 747 3093 
Q 1141 3584 1784 3584 
Q 2172 3584 2450 3431 
Q 2728 3278 2906 2969 
L 2906 3500 
L 3481 3500 
L 3481 434 
z
" transform="scale(0.015625)"/>
    </defs>
    <use xlink:href="#DejaVuSans-41"/>
    <use xlink:href="#DejaVuSans-6c" x="68.408203"/>
    <use xlink:href="#DejaVuSans-6c" x="96.191406"/>
    <use xlink:href="#DejaVuSans-20" x="123.974609"/>
    <use xlink:href="#DejaVuSans-65" x="155.761719"/>
    <use xlink:href="#DejaVuSans-64" x="217.285156"/>
    <use xlink:href="#DejaVuSans-67" x="280.761719"/>
    <use xlink:href="#DejaVuSans-65" x="344.238281"/>
    <use xlink:href="#DejaVuSans-73" x="405.761719"/>
   </g>
  </g>
 </g>
 <defs>
  <clipPath id="pcf98b7c3a5">
   <rect x="59.326563" y="69.946667" width="624.48" height="26.866667"/>
  </clipPath>
  <clipPath id="p209d911ae7">
   <rect x="59.326563" y="28.68" width="624.48" height="26.866667"/>
  </clipPath>
  <clipPath id="p1350ec7f0a">
   <rect x="59.326563" y="111.213333" width="624.48" height="26.866667"/>
  </clipPath>
 </defs>
</svg>
