<?xml version="1.0" encoding="utf-8" standalone="no"?>
<!DOCTYPE svg PUBLIC "-//W3C//DTD SVG 1.1//EN"
  "http://www.w3.org/Graphics/SVG/1.1/DTD/svg11.dtd">
<svg xmlns:xlink="http://www.w3.org/1999/xlink" width="712.641406pt" height="161.958125pt" viewBox="0 0 712.641406 161.958125" xmlns="http://www.w3.org/2000/svg" version="1.1">
 <metadata>
  <rdf:RDF xmlns:dc="http://purl.org/dc/elements/1.1/" xmlns:cc="http://creativecommons.org/ns#" xmlns:rdf="http://www.w3.org/1999/02/22-rdf-syntax-ns#">
   <cc:Work>
    <dc:type rdf:resource="http://purl.org/dc/dcmitype/StillImage"/>
    <dc:date>2024-12-03T15:25:58.775635</dc:date>
    <dc:format>image/svg+xml</dc:format>
    <dc:creator>
     <cc:Agent>
      <dc:title>Matplotlib v3.8.4, https://matplotlib.org/</dc:title>
     </cc:Agent>
    </dc:creator>
   </cc:Work>
  </rdf:RDF>
 </metadata>
 <defs>
  <style type="text/css">*{stroke-linejoin: round; stroke-linecap: butt}</style>
 </defs>
 <g id="figure_1">
  <g id="patch_1">
   <path d="M 0 161.958125 
L 712.641406 161.958125 
L 712.641406 -0 
L 0 -0 
z
" style="fill: #ffffff"/>
  </g>
  <g id="axes_1">
   <g id="patch_2">
    <path d="M 63.846094 96.813333 
L 683.646094 96.813333 
L 683.646094 69.946667 
L 63.846094 69.946667 
z
" style="fill: #ffffff"/>
   </g>
   <g id="patch_3">
    <path d="M 67.078661 94.126667 
L 67.886803 94.126667 
L 67.886803 69.946667 
L 67.078661 69.946667 
z
" clip-path="url(#p3a500586bf)" style="fill: #d62728; opacity: 0.6"/>
   </g>
   <g id="patch_4">
    <path d="M 76.372292 94.126667 
L 77.180433 94.126667 
L 77.180433 69.946667 
L 76.372292 69.946667 
z
" clip-path="url(#p3a500586bf)" style="fill: #d62728; opacity: 0.6"/>
   </g>
   <g id="patch_5">
    <path d="M 90.110702 94.126667 
L 90.918844 94.126667 
L 90.918844 69.946667 
L 90.110702 69.946667 
z
" clip-path="url(#p3a500586bf)" style="fill: #d62728; opacity: 0.6"/>
   </g>
   <g id="patch_6">
    <path d="M 97.383978 94.126667 
L 98.19212 94.126667 
L 98.19212 69.946667 
L 97.383978 69.946667 
z
" clip-path="url(#p3a500586bf)" style="fill: #d62728; opacity: 0.6"/>
   </g>
   <g id="patch_7">
    <path d="M 98.19212 94.126667 
L 99.000262 94.126667 
L 99.000262 69.946667 
L 98.19212 69.946667 
z
" clip-path="url(#p3a500586bf)" style="fill: #d62728; opacity: 0.6"/>
   </g>
   <g id="patch_8">
    <path d="M 103.849112 94.126667 
L 104.657254 94.126667 
L 104.657254 69.946667 
L 103.849112 69.946667 
z
" clip-path="url(#p3a500586bf)" style="fill: #d62728; opacity: 0.6"/>
   </g>
   <g id="patch_9">
    <path d="M 106.677609 94.126667 
L 107.485751 94.126667 
L 107.485751 69.946667 
L 106.677609 69.946667 
z
" clip-path="url(#p3a500586bf)" style="fill: #d62728; opacity: 0.6"/>
   </g>
   <g id="patch_10">
    <path d="M 110.718318 94.126667 
L 111.52646 94.126667 
L 111.52646 69.946667 
L 110.718318 69.946667 
z
" clip-path="url(#p3a500586bf)" style="fill: #d62728; opacity: 0.6"/>
   </g>
   <g id="patch_11">
    <path d="M 122.032303 94.126667 
L 122.840445 94.126667 
L 122.840445 69.946667 
L 122.032303 69.946667 
z
" clip-path="url(#p3a500586bf)" style="fill: #d62728; opacity: 0.6"/>
   </g>
   <g id="patch_12">
    <path d="M 124.052657 94.126667 
L 124.860799 94.126667 
L 124.860799 69.946667 
L 124.052657 69.946667 
z
" clip-path="url(#p3a500586bf)" style="fill: #d62728; opacity: 0.6"/>
   </g>
   <g id="patch_13">
    <path d="M 125.26487 94.126667 
L 126.073012 94.126667 
L 126.073012 69.946667 
L 125.26487 69.946667 
z
" clip-path="url(#p3a500586bf)" style="fill: #d62728; opacity: 0.6"/>
   </g>
   <g id="patch_14">
    <path d="M 129.305579 94.126667 
L 130.113721 94.126667 
L 130.113721 69.946667 
L 129.305579 69.946667 
z
" clip-path="url(#p3a500586bf)" style="fill: #d62728; opacity: 0.6"/>
   </g>
   <g id="patch_15">
    <path d="M 132.134075 94.126667 
L 132.942217 94.126667 
L 132.942217 69.946667 
L 132.134075 69.946667 
z
" clip-path="url(#p3a500586bf)" style="fill: #d62728; opacity: 0.6"/>
   </g>
   <g id="patch_16">
    <path d="M 135.770713 94.126667 
L 136.578855 94.126667 
L 136.578855 69.946667 
L 135.770713 69.946667 
z
" clip-path="url(#p3a500586bf)" style="fill: #d62728; opacity: 0.6"/>
   </g>
   <g id="patch_17">
    <path d="M 140.619564 94.126667 
L 141.427706 94.126667 
L 141.427706 69.946667 
L 140.619564 69.946667 
z
" clip-path="url(#p3a500586bf)" style="fill: #d62728; opacity: 0.6"/>
   </g>
   <g id="patch_18">
    <path d="M 141.427706 94.126667 
L 142.235848 94.126667 
L 142.235848 69.946667 
L 141.427706 69.946667 
z
" clip-path="url(#p3a500586bf)" style="fill: #d62728; opacity: 0.6"/>
   </g>
   <g id="patch_19">
    <path d="M 150.721336 94.126667 
L 151.529478 94.126667 
L 151.529478 69.946667 
L 150.721336 69.946667 
z
" clip-path="url(#p3a500586bf)" style="fill: #d62728; opacity: 0.6"/>
   </g>
   <g id="patch_20">
    <path d="M 157.994613 94.126667 
L 158.802754 94.126667 
L 158.802754 69.946667 
L 157.994613 69.946667 
z
" clip-path="url(#p3a500586bf)" style="fill: #d62728; opacity: 0.6"/>
   </g>
   <g id="patch_21">
    <path d="M 213.352325 94.126667 
L 214.160467 94.126667 
L 214.160467 69.946667 
L 213.352325 69.946667 
z
" clip-path="url(#p3a500586bf)" style="fill: #d62728; opacity: 0.6"/>
   </g>
   <g id="patch_22">
    <path d="M 214.564538 94.126667 
L 215.37268 94.126667 
L 215.37268 69.946667 
L 214.564538 69.946667 
z
" clip-path="url(#p3a500586bf)" style="fill: #d62728; opacity: 0.6"/>
   </g>
   <g id="patch_23">
    <path d="M 238.808792 94.126667 
L 239.616934 94.126667 
L 239.616934 69.946667 
L 238.808792 69.946667 
z
" clip-path="url(#p3a500586bf)" style="fill: #d62728; opacity: 0.6"/>
   </g>
   <g id="patch_24">
    <path d="M 250.930919 94.126667 
L 251.739061 94.126667 
L 251.739061 69.946667 
L 250.930919 69.946667 
z
" clip-path="url(#p3a500586bf)" style="fill: #d62728; opacity: 0.6"/>
   </g>
   <g id="patch_25">
    <path d="M 267.093755 94.126667 
L 267.901896 94.126667 
L 267.901896 69.946667 
L 267.093755 69.946667 
z
" clip-path="url(#p3a500586bf)" style="fill: #d62728; opacity: 0.6"/>
   </g>
   <g id="patch_26">
    <path d="M 270.326322 94.126667 
L 271.134464 94.126667 
L 271.134464 69.946667 
L 270.326322 69.946667 
z
" clip-path="url(#p3a500586bf)" style="fill: #d62728; opacity: 0.6"/>
   </g>
   <g id="patch_27">
    <path d="M 275.983314 94.126667 
L 276.791456 94.126667 
L 276.791456 69.946667 
L 275.983314 69.946667 
z
" clip-path="url(#p3a500586bf)" style="fill: #d62728; opacity: 0.6"/>
   </g>
   <g id="patch_28">
    <path d="M 288.105441 94.126667 
L 288.913583 94.126667 
L 288.913583 69.946667 
L 288.105441 69.946667 
z
" clip-path="url(#p3a500586bf)" style="fill: #d62728; opacity: 0.6"/>
   </g>
   <g id="patch_29">
    <path d="M 290.125796 94.126667 
L 290.933937 94.126667 
L 290.933937 69.946667 
L 290.125796 69.946667 
z
" clip-path="url(#p3a500586bf)" style="fill: #d62728; opacity: 0.6"/>
   </g>
   <g id="patch_30">
    <path d="M 291.338008 94.126667 
L 292.14615 94.126667 
L 292.14615 69.946667 
L 291.338008 69.946667 
z
" clip-path="url(#p3a500586bf)" style="fill: #d62728; opacity: 0.6"/>
   </g>
   <g id="patch_31">
    <path d="M 293.358363 94.126667 
L 294.166505 94.126667 
L 294.166505 69.946667 
L 293.358363 69.946667 
z
" clip-path="url(#p3a500586bf)" style="fill: #d62728; opacity: 0.6"/>
   </g>
   <g id="patch_32">
    <path d="M 294.974646 94.126667 
L 295.782788 94.126667 
L 295.782788 69.946667 
L 294.974646 69.946667 
z
" clip-path="url(#p3a500586bf)" style="fill: #d62728; opacity: 0.6"/>
   </g>
   <g id="patch_33">
    <path d="M 307.904915 94.126667 
L 308.713057 94.126667 
L 308.713057 69.946667 
L 307.904915 69.946667 
z
" clip-path="url(#p3a500586bf)" style="fill: #d62728; opacity: 0.6"/>
   </g>
   <g id="patch_34">
    <path d="M 314.370049 94.126667 
L 315.178191 94.126667 
L 315.178191 69.946667 
L 314.370049 69.946667 
z
" clip-path="url(#p3a500586bf)" style="fill: #d62728; opacity: 0.6"/>
   </g>
   <g id="patch_35">
    <path d="M 315.986333 94.126667 
L 316.794475 94.126667 
L 316.794475 69.946667 
L 315.986333 69.946667 
z
" clip-path="url(#p3a500586bf)" style="fill: #d62728; opacity: 0.6"/>
   </g>
   <g id="patch_36">
    <path d="M 326.896247 94.126667 
L 327.704389 94.126667 
L 327.704389 69.946667 
L 326.896247 69.946667 
z
" clip-path="url(#p3a500586bf)" style="fill: #d62728; opacity: 0.6"/>
   </g>
   <g id="patch_37">
    <path d="M 334.169523 94.126667 
L 334.977665 94.126667 
L 334.977665 69.946667 
L 334.169523 69.946667 
z
" clip-path="url(#p3a500586bf)" style="fill: #d62728; opacity: 0.6"/>
   </g>
   <g id="patch_38">
    <path d="M 336.99802 94.126667 
L 337.806161 94.126667 
L 337.806161 69.946667 
L 336.99802 69.946667 
z
" clip-path="url(#p3a500586bf)" style="fill: #d62728; opacity: 0.6"/>
   </g>
   <g id="patch_39">
    <path d="M 342.250941 94.126667 
L 343.059083 94.126667 
L 343.059083 69.946667 
L 342.250941 69.946667 
z
" clip-path="url(#p3a500586bf)" style="fill: #d62728; opacity: 0.6"/>
   </g>
   <g id="patch_40">
    <path d="M 344.675367 94.126667 
L 345.483508 94.126667 
L 345.483508 69.946667 
L 344.675367 69.946667 
z
" clip-path="url(#p3a500586bf)" style="fill: #d62728; opacity: 0.6"/>
   </g>
   <g id="patch_41">
    <path d="M 350.332359 94.126667 
L 351.140501 94.126667 
L 351.140501 69.946667 
L 350.332359 69.946667 
z
" clip-path="url(#p3a500586bf)" style="fill: #d62728; opacity: 0.6"/>
   </g>
   <g id="patch_42">
    <path d="M 351.544572 94.126667 
L 352.352714 94.126667 
L 352.352714 69.946667 
L 351.544572 69.946667 
z
" clip-path="url(#p3a500586bf)" style="fill: #d62728; opacity: 0.6"/>
   </g>
   <g id="patch_43">
    <path d="M 358.009706 94.126667 
L 358.817848 94.126667 
L 358.817848 69.946667 
L 358.009706 69.946667 
z
" clip-path="url(#p3a500586bf)" style="fill: #d62728; opacity: 0.6"/>
   </g>
   <g id="patch_44">
    <path d="M 363.262628 94.126667 
L 364.07077 94.126667 
L 364.07077 69.946667 
L 363.262628 69.946667 
z
" clip-path="url(#p3a500586bf)" style="fill: #d62728; opacity: 0.6"/>
   </g>
   <g id="patch_45">
    <path d="M 367.303337 94.126667 
L 368.111479 94.126667 
L 368.111479 69.946667 
L 367.303337 69.946667 
z
" clip-path="url(#p3a500586bf)" style="fill: #d62728; opacity: 0.6"/>
   </g>
   <g id="patch_46">
    <path d="M 376.192897 94.126667 
L 377.001038 94.126667 
L 377.001038 69.946667 
L 376.192897 69.946667 
z
" clip-path="url(#p3a500586bf)" style="fill: #d62728; opacity: 0.6"/>
   </g>
   <g id="patch_47">
    <path d="M 398.012725 94.126667 
L 398.820867 94.126667 
L 398.820867 69.946667 
L 398.012725 69.946667 
z
" clip-path="url(#p3a500586bf)" style="fill: #d62728; opacity: 0.6"/>
   </g>
   <g id="patch_48">
    <path d="M 433.975035 94.126667 
L 434.783177 94.126667 
L 434.783177 69.946667 
L 433.975035 69.946667 
z
" clip-path="url(#p3a500586bf)" style="fill: #d62728; opacity: 0.6"/>
   </g>
   <g id="patch_49">
    <path d="M 441.248311 94.126667 
L 442.056453 94.126667 
L 442.056453 69.946667 
L 441.248311 69.946667 
z
" clip-path="url(#p3a500586bf)" style="fill: #d62728; opacity: 0.6"/>
   </g>
   <g id="patch_50">
    <path d="M 457.007076 94.126667 
L 457.815218 94.126667 
L 457.815218 69.946667 
L 457.007076 69.946667 
z
" clip-path="url(#p3a500586bf)" style="fill: #d62728; opacity: 0.6"/>
   </g>
   <g id="patch_51">
    <path d="M 458.623359 94.126667 
L 459.431501 94.126667 
L 459.431501 69.946667 
L 458.623359 69.946667 
z
" clip-path="url(#p3a500586bf)" style="fill: #d62728; opacity: 0.6"/>
   </g>
   <g id="patch_52">
    <path d="M 459.835572 94.126667 
L 460.643714 94.126667 
L 460.643714 69.946667 
L 459.835572 69.946667 
z
" clip-path="url(#p3a500586bf)" style="fill: #d62728; opacity: 0.6"/>
   </g>
   <g id="patch_53">
    <path d="M 464.280352 94.126667 
L 465.088494 94.126667 
L 465.088494 69.946667 
L 464.280352 69.946667 
z
" clip-path="url(#p3a500586bf)" style="fill: #d62728; opacity: 0.6"/>
   </g>
   <g id="patch_54">
    <path d="M 466.704777 94.126667 
L 467.512919 94.126667 
L 467.512919 69.946667 
L 466.704777 69.946667 
z
" clip-path="url(#p3a500586bf)" style="fill: #d62728; opacity: 0.6"/>
   </g>
   <g id="patch_55">
    <path d="M 470.341415 94.126667 
L 471.149557 94.126667 
L 471.149557 69.946667 
L 470.341415 69.946667 
z
" clip-path="url(#p3a500586bf)" style="fill: #d62728; opacity: 0.6"/>
   </g>
   <g id="patch_56">
    <path d="M 482.059471 94.126667 
L 482.867613 94.126667 
L 482.867613 69.946667 
L 482.059471 69.946667 
z
" clip-path="url(#p3a500586bf)" style="fill: #d62728; opacity: 0.6"/>
   </g>
   <g id="patch_57">
    <path d="M 492.565315 94.126667 
L 493.373456 94.126667 
L 493.373456 69.946667 
L 492.565315 69.946667 
z
" clip-path="url(#p3a500586bf)" style="fill: #d62728; opacity: 0.6"/>
   </g>
   <g id="patch_58">
    <path d="M 497.818236 94.126667 
L 498.626378 94.126667 
L 498.626378 69.946667 
L 497.818236 69.946667 
z
" clip-path="url(#p3a500586bf)" style="fill: #d62728; opacity: 0.6"/>
   </g>
   <g id="patch_59">
    <path d="M 501.050804 94.126667 
L 501.858945 94.126667 
L 501.858945 69.946667 
L 501.050804 69.946667 
z
" clip-path="url(#p3a500586bf)" style="fill: #d62728; opacity: 0.6"/>
   </g>
   <g id="patch_60">
    <path d="M 505.495583 94.126667 
L 506.303725 94.126667 
L 506.303725 69.946667 
L 505.495583 69.946667 
z
" clip-path="url(#p3a500586bf)" style="fill: #d62728; opacity: 0.6"/>
   </g>
   <g id="patch_61">
    <path d="M 516.001427 94.126667 
L 516.809568 94.126667 
L 516.809568 69.946667 
L 516.001427 69.946667 
z
" clip-path="url(#p3a500586bf)" style="fill: #d62728; opacity: 0.6"/>
   </g>
   <g id="patch_62">
    <path d="M 526.103199 94.126667 
L 526.911341 94.126667 
L 526.911341 69.946667 
L 526.103199 69.946667 
z
" clip-path="url(#p3a500586bf)" style="fill: #d62728; opacity: 0.6"/>
   </g>
   <g id="patch_63">
    <path d="M 534.588688 94.126667 
L 535.39683 94.126667 
L 535.39683 69.946667 
L 534.588688 69.946667 
z
" clip-path="url(#p3a500586bf)" style="fill: #d62728; opacity: 0.6"/>
   </g>
   <g id="patch_64">
    <path d="M 547.518957 94.126667 
L 548.327098 94.126667 
L 548.327098 69.946667 
L 547.518957 69.946667 
z
" clip-path="url(#p3a500586bf)" style="fill: #d62728; opacity: 0.6"/>
   </g>
   <g id="patch_65">
    <path d="M 571.359139 94.126667 
L 572.167281 94.126667 
L 572.167281 69.946667 
L 571.359139 69.946667 
z
" clip-path="url(#p3a500586bf)" style="fill: #d62728; opacity: 0.6"/>
   </g>
   <g id="patch_66">
    <path d="M 582.269054 94.126667 
L 583.077195 94.126667 
L 583.077195 69.946667 
L 582.269054 69.946667 
z
" clip-path="url(#p3a500586bf)" style="fill: #d62728; opacity: 0.6"/>
   </g>
   <g id="patch_67">
    <path d="M 586.713834 94.126667 
L 587.521975 94.126667 
L 587.521975 69.946667 
L 586.713834 69.946667 
z
" clip-path="url(#p3a500586bf)" style="fill: #d62728; opacity: 0.6"/>
   </g>
   <g id="patch_68">
    <path d="M 591.158613 94.126667 
L 591.966755 94.126667 
L 591.966755 69.946667 
L 591.158613 69.946667 
z
" clip-path="url(#p3a500586bf)" style="fill: #d62728; opacity: 0.6"/>
   </g>
   <g id="patch_69">
    <path d="M 612.574371 94.126667 
L 613.382513 94.126667 
L 613.382513 69.946667 
L 612.574371 69.946667 
z
" clip-path="url(#p3a500586bf)" style="fill: #d62728; opacity: 0.6"/>
   </g>
   <g id="patch_70">
    <path d="M 644.900043 94.126667 
L 645.708184 94.126667 
L 645.708184 69.946667 
L 644.900043 69.946667 
z
" clip-path="url(#p3a500586bf)" style="fill: #d62728; opacity: 0.6"/>
   </g>
   <g id="patch_71">
    <path d="M 650.961106 94.126667 
L 651.769248 94.126667 
L 651.769248 69.946667 
L 650.961106 69.946667 
z
" clip-path="url(#p3a500586bf)" style="fill: #d62728; opacity: 0.6"/>
   </g>
   <g id="patch_72">
    <path d="M 665.103587 94.126667 
L 665.911729 94.126667 
L 665.911729 69.946667 
L 665.103587 69.946667 
z
" clip-path="url(#p3a500586bf)" style="fill: #d62728; opacity: 0.6"/>
   </g>
   <g id="patch_73">
    <path d="M 666.719871 94.126667 
L 667.528013 94.126667 
L 667.528013 69.946667 
L 666.719871 69.946667 
z
" clip-path="url(#p3a500586bf)" style="fill: #d62728; opacity: 0.6"/>
   </g>
   <g id="patch_74">
    <path d="M 678.841998 94.126667 
L 679.65014 94.126667 
L 679.65014 69.946667 
L 678.841998 69.946667 
z
" clip-path="url(#p3a500586bf)" style="fill: #d62728; opacity: 0.6"/>
   </g>
   <g id="matplotlib.axis_1">
    <g id="text_1">
     <!-- start_edge -->
     <g transform="translate(7.2 81.022187) scale(0.1 -0.1)">
      <defs>
       <path id="DejaVuSans-73" d="M 2834 3397 
L 2834 2853 
Q 2591 2978 2328 3040 
Q 2066 3103 1784 3103 
Q 1356 3103 1142 2972 
Q 928 2841 928 2578 
Q 928 2378 1081 2264 
Q 1234 2150 1697 2047 
L 1894 2003 
Q 2506 1872 2764 1633 
Q 3022 1394 3022 966 
Q 3022 478 2636 193 
Q 2250 -91 1575 -91 
Q 1294 -91 989 -36 
Q 684 19 347 128 
L 347 722 
Q 666 556 975 473 
Q 1284 391 1588 391 
Q 1994 391 2212 530 
Q 2431 669 2431 922 
Q 2431 1156 2273 1281 
Q 2116 1406 1581 1522 
L 1381 1569 
Q 847 1681 609 1914 
Q 372 2147 372 2553 
Q 372 3047 722 3315 
Q 1072 3584 1716 3584 
Q 2034 3584 2315 3537 
Q 2597 3491 2834 3397 
z
" transform="scale(0.015625)"/>
       <path id="DejaVuSans-74" d="M 1172 4494 
L 1172 3500 
L 2356 3500 
L 2356 3053 
L 1172 3053 
L 1172 1153 
Q 1172 725 1289 603 
Q 1406 481 1766 481 
L 2356 481 
L 2356 0 
L 1766 0 
Q 1100 0 847 248 
Q 594 497 594 1153 
L 594 3053 
L 172 3053 
L 172 3500 
L 594 3500 
L 594 4494 
L 1172 4494 
z
" transform="scale(0.015625)"/>
       <path id="DejaVuSans-61" d="M 2194 1759 
Q 1497 1759 1228 1600 
Q 959 1441 959 1056 
Q 959 750 1161 570 
Q 1363 391 1709 391 
Q 2188 391 2477 730 
Q 2766 1069 2766 1631 
L 2766 1759 
L 2194 1759 
z
M 3341 1997 
L 3341 0 
L 2766 0 
L 2766 531 
Q 2569 213 2275 61 
Q 1981 -91 1556 -91 
Q 1019 -91 701 211 
Q 384 513 384 1019 
Q 384 1609 779 1909 
Q 1175 2209 1959 2209 
L 2766 2209 
L 2766 2266 
Q 2766 2663 2505 2880 
Q 2244 3097 1772 3097 
Q 1472 3097 1187 3025 
Q 903 2953 641 2809 
L 641 3341 
Q 956 3463 1253 3523 
Q 1550 3584 1831 3584 
Q 2591 3584 2966 3190 
Q 3341 2797 3341 1997 
z
" transform="scale(0.015625)"/>
       <path id="DejaVuSans-72" d="M 2631 2963 
Q 2534 3019 2420 3045 
Q 2306 3072 2169 3072 
Q 1681 3072 1420 2755 
Q 1159 2438 1159 1844 
L 1159 0 
L 581 0 
L 581 3500 
L 1159 3500 
L 1159 2956 
Q 1341 3275 1631 3429 
Q 1922 3584 2338 3584 
Q 2397 3584 2469 3576 
Q 2541 3569 2628 3553 
L 2631 2963 
z
" transform="scale(0.015625)"/>
       <path id="DejaVuSans-5f" d="M 3263 -1063 
L 3263 -1509 
L -63 -1509 
L -63 -1063 
L 3263 -1063 
z
" transform="scale(0.015625)"/>
       <path id="DejaVuSans-65" d="M 3597 1894 
L 3597 1613 
L 953 1613 
Q 991 1019 1311 708 
Q 1631 397 2203 397 
Q 2534 397 2845 478 
Q 3156 559 3463 722 
L 3463 178 
Q 3153 47 2828 -22 
Q 2503 -91 2169 -91 
Q 1331 -91 842 396 
Q 353 884 353 1716 
Q 353 2575 817 3079 
Q 1281 3584 2069 3584 
Q 2775 3584 3186 3129 
Q 3597 2675 3597 1894 
z
M 3022 2063 
Q 3016 2534 2758 2815 
Q 2500 3097 2075 3097 
Q 1594 3097 1305 2825 
Q 1016 2553 972 2059 
L 3022 2063 
z
" transform="scale(0.015625)"/>
       <path id="DejaVuSans-64" d="M 2906 2969 
L 2906 4863 
L 3481 4863 
L 3481 0 
L 2906 0 
L 2906 525 
Q 2725 213 2448 61 
Q 2172 -91 1784 -91 
Q 1150 -91 751 415 
Q 353 922 353 1747 
Q 353 2572 751 3078 
Q 1150 3584 1784 3584 
Q 2172 3584 2448 3432 
Q 2725 3281 2906 2969 
z
M 947 1747 
Q 947 1113 1208 752 
Q 1469 391 1925 391 
Q 2381 391 2643 752 
Q 2906 1113 2906 1747 
Q 2906 2381 2643 2742 
Q 2381 3103 1925 3103 
Q 1469 3103 1208 2742 
Q 947 2381 947 1747 
z
" transform="scale(0.015625)"/>
       <path id="DejaVuSans-67" d="M 2906 1791 
Q 2906 2416 2648 2759 
Q 2391 3103 1925 3103 
Q 1463 3103 1205 2759 
Q 947 2416 947 1791 
Q 947 1169 1205 825 
Q 1463 481 1925 481 
Q 2391 481 2648 825 
Q 2906 1169 2906 1791 
z
M 3481 434 
Q 3481 -459 3084 -895 
Q 2688 -1331 1869 -1331 
Q 1566 -1331 1297 -1286 
Q 1028 -1241 775 -1147 
L 775 -588 
Q 1028 -725 1275 -790 
Q 1522 -856 1778 -856 
Q 2344 -856 2625 -561 
Q 2906 -266 2906 331 
L 2906 616 
Q 2728 306 2450 153 
Q 2172 0 1784 0 
Q 1141 0 747 490 
Q 353 981 353 1791 
Q 353 2603 747 3093 
Q 1141 3584 1784 3584 
Q 2172 3584 2450 3431 
Q 2728 3278 2906 2969 
L 2906 3500 
L 3481 3500 
L 3481 434 
z
" transform="scale(0.015625)"/>
      </defs>
      <use xlink:href="#DejaVuSans-73"/>
      <use xlink:href="#DejaVuSans-74" x="52.099609"/>
      <use xlink:href="#DejaVuSans-61" x="91.308594"/>
      <use xlink:href="#DejaVuSans-72" x="152.587891"/>
      <use xlink:href="#DejaVuSans-74" x="193.701172"/>
      <use xlink:href="#DejaVuSans-5f" x="232.910156"/>
      <use xlink:href="#DejaVuSans-65" x="282.910156"/>
      <use xlink:href="#DejaVuSans-64" x="344.433594"/>
      <use xlink:href="#DejaVuSans-67" x="407.910156"/>
      <use xlink:href="#DejaVuSans-65" x="471.386719"/>
     </g>
    </g>
   </g>
  </g>
  <g id="axes_2">
   <g id="patch_75">
    <path d="M 63.846094 55.546667 
L 683.646094 55.546667 
L 683.646094 28.68 
L 63.846094 28.68 
z
" style="fill: #ffffff"/>
   </g>
   <g id="patch_76">
    <path d="M 142.788508 52.86 
L 143.193431 52.86 
L 143.193431 28.68 
L 142.788508 28.68 
z
" clip-path="url(#pd0f25e9b6a)" style="fill: #1f77b4; opacity: 0.6"/>
   </g>
   <g id="patch_77">
    <path d="M 148.439096 52.86 
L 148.887356 52.86 
L 148.887356 28.68 
L 148.439096 28.68 
z
" clip-path="url(#pd0f25e9b6a)" style="fill: #1f77b4; opacity: 0.6"/>
   </g>
   <g id="patch_78">
    <path d="M 210.213268 52.86 
L 211.020198 52.86 
L 211.020198 28.68 
L 210.213268 28.68 
z
" clip-path="url(#pd0f25e9b6a)" style="fill: #1f77b4; opacity: 0.6"/>
   </g>
   <g id="patch_79">
    <path d="M 214.30567 52.86 
L 215.906167 52.86 
L 215.906167 28.68 
L 214.30567 28.68 
z
" clip-path="url(#pd0f25e9b6a)" style="fill: #1f77b4; opacity: 0.6"/>
   </g>
   <g id="patch_80">
    <path d="M 263.927948 52.86 
L 265.938621 52.86 
L 265.938621 28.68 
L 263.927948 28.68 
z
" clip-path="url(#pd0f25e9b6a)" style="fill: #1f77b4; opacity: 0.6"/>
   </g>
   <g id="patch_81">
    <path d="M 269.20052 52.86 
L 271.718318 52.86 
L 271.718318 28.68 
L 269.20052 28.68 
z
" clip-path="url(#pd0f25e9b6a)" style="fill: #1f77b4; opacity: 0.6"/>
   </g>
   <g id="patch_82">
    <path d="M 281.652409 52.86 
L 282.475994 52.86 
L 282.475994 28.68 
L 281.652409 28.68 
z
" clip-path="url(#pd0f25e9b6a)" style="fill: #1f77b4; opacity: 0.6"/>
   </g>
   <g id="patch_83">
    <path d="M 314.760131 52.86 
L 315.555387 52.86 
L 315.555387 28.68 
L 314.760131 28.68 
z
" clip-path="url(#pd0f25e9b6a)" style="fill: #1f77b4; opacity: 0.6"/>
   </g>
   <g id="patch_84">
    <path d="M 350.291932 52.86 
L 351.341215 52.86 
L 351.341215 28.68 
L 350.291932 28.68 
z
" clip-path="url(#pd0f25e9b6a)" style="fill: #1f77b4; opacity: 0.6"/>
   </g>
   <g id="patch_85">
    <path d="M 353.923604 52.86 
L 355.360112 52.86 
L 355.360112 28.68 
L 353.923604 28.68 
z
" clip-path="url(#pd0f25e9b6a)" style="fill: #1f77b4; opacity: 0.6"/>
   </g>
   <g id="patch_86">
    <path d="M 364.238855 52.86 
L 365.427179 52.86 
L 365.427179 28.68 
L 364.238855 28.68 
z
" clip-path="url(#pd0f25e9b6a)" style="fill: #1f77b4; opacity: 0.6"/>
   </g>
   <g id="patch_87">
    <path d="M 452.76817 52.86 
L 453.126064 52.86 
L 453.126064 28.68 
L 452.76817 28.68 
z
" clip-path="url(#pd0f25e9b6a)" style="fill: #1f77b4; opacity: 0.6"/>
   </g>
   <g id="patch_88">
    <path d="M 500.962296 52.86 
L 502.503301 52.86 
L 502.503301 28.68 
L 500.962296 28.68 
z
" clip-path="url(#pd0f25e9b6a)" style="fill: #1f77b4; opacity: 0.6"/>
   </g>
   <g id="patch_89">
    <path d="M 513.588643 52.86 
L 514.775233 52.86 
L 514.775233 28.68 
L 513.588643 28.68 
z
" clip-path="url(#pd0f25e9b6a)" style="fill: #1f77b4; opacity: 0.6"/>
   </g>
   <g id="patch_90">
    <path d="M 565.210142 52.86 
L 565.609885 52.86 
L 565.609885 28.68 
L 565.210142 28.68 
z
" clip-path="url(#pd0f25e9b6a)" style="fill: #1f77b4; opacity: 0.6"/>
   </g>
   <g id="patch_91">
    <path d="M 576.363909 52.86 
L 578.00219 52.86 
L 578.00219 28.68 
L 576.363909 28.68 
z
" clip-path="url(#pd0f25e9b6a)" style="fill: #1f77b4; opacity: 0.6"/>
   </g>
   <g id="patch_92">
    <path d="M 582.688398 52.86 
L 583.892473 52.86 
L 583.892473 28.68 
L 582.688398 28.68 
z
" clip-path="url(#pd0f25e9b6a)" style="fill: #1f77b4; opacity: 0.6"/>
   </g>
   <g id="patch_93">
    <path d="M 588.067148 52.86 
L 589.276879 52.86 
L 589.276879 28.68 
L 588.067148 28.68 
z
" clip-path="url(#pd0f25e9b6a)" style="fill: #1f77b4; opacity: 0.6"/>
   </g>
   <g id="patch_94">
    <path d="M 673.207791 52.86 
L 674.859507 52.86 
L 674.859507 28.68 
L 673.207791 28.68 
z
" clip-path="url(#pd0f25e9b6a)" style="fill: #1f77b4; opacity: 0.6"/>
   </g>
   <g id="matplotlib.axis_2">
    <g id="text_2">
     <!-- ECH90 -->
     <g transform="translate(17.072656 40.033646) scale(0.1 -0.1)">
      <defs>
       <path id="DejaVuSans-45" d="M 628 4666 
L 3578 4666 
L 3578 4134 
L 1259 4134 
L 1259 2753 
L 3481 2753 
L 3481 2222 
L 1259 2222 
L 1259 531 
L 3634 531 
L 3634 0 
L 628 0 
L 628 4666 
z
" transform="scale(0.015625)"/>
       <path id="DejaVuSans-43" d="M 4122 4306 
L 4122 3641 
Q 3803 3938 3442 4084 
Q 3081 4231 2675 4231 
Q 1875 4231 1450 3742 
Q 1025 3253 1025 2328 
Q 1025 1406 1450 917 
Q 1875 428 2675 428 
Q 3081 428 3442 575 
Q 3803 722 4122 1019 
L 4122 359 
Q 3791 134 3420 21 
Q 3050 -91 2638 -91 
Q 1578 -91 968 557 
Q 359 1206 359 2328 
Q 359 3453 968 4101 
Q 1578 4750 2638 4750 
Q 3056 4750 3426 4639 
Q 3797 4528 4122 4306 
z
" transform="scale(0.015625)"/>
       <path id="DejaVuSans-48" d="M 628 4666 
L 1259 4666 
L 1259 2753 
L 3553 2753 
L 3553 4666 
L 4184 4666 
L 4184 0 
L 3553 0 
L 3553 2222 
L 1259 2222 
L 1259 0 
L 628 0 
L 628 4666 
z
" transform="scale(0.015625)"/>
       <path id="DejaVuSans-39" d="M 703 97 
L 703 672 
Q 941 559 1184 500 
Q 1428 441 1663 441 
Q 2288 441 2617 861 
Q 2947 1281 2994 2138 
Q 2813 1869 2534 1725 
Q 2256 1581 1919 1581 
Q 1219 1581 811 2004 
Q 403 2428 403 3163 
Q 403 3881 828 4315 
Q 1253 4750 1959 4750 
Q 2769 4750 3195 4129 
Q 3622 3509 3622 2328 
Q 3622 1225 3098 567 
Q 2575 -91 1691 -91 
Q 1453 -91 1209 -44 
Q 966 3 703 97 
z
M 1959 2075 
Q 2384 2075 2632 2365 
Q 2881 2656 2881 3163 
Q 2881 3666 2632 3958 
Q 2384 4250 1959 4250 
Q 1534 4250 1286 3958 
Q 1038 3666 1038 3163 
Q 1038 2656 1286 2365 
Q 1534 2075 1959 2075 
z
" transform="scale(0.015625)"/>
       <path id="DejaVuSans-30" d="M 2034 4250 
Q 1547 4250 1301 3770 
Q 1056 3291 1056 2328 
Q 1056 1369 1301 889 
Q 1547 409 2034 409 
Q 2525 409 2770 889 
Q 3016 1369 3016 2328 
Q 3016 3291 2770 3770 
Q 2525 4250 2034 4250 
z
M 2034 4750 
Q 2819 4750 3233 4129 
Q 3647 3509 3647 2328 
Q 3647 1150 3233 529 
Q 2819 -91 2034 -91 
Q 1250 -91 836 529 
Q 422 1150 422 2328 
Q 422 3509 836 4129 
Q 1250 4750 2034 4750 
z
" transform="scale(0.015625)"/>
      </defs>
      <use xlink:href="#DejaVuSans-45"/>
      <use xlink:href="#DejaVuSans-43" x="63.183594"/>
      <use xlink:href="#DejaVuSans-48" x="133.007812"/>
      <use xlink:href="#DejaVuSans-39" x="208.203125"/>
      <use xlink:href="#DejaVuSans-30" x="271.826172"/>
     </g>
    </g>
   </g>
   <g id="text_3">
    <!-- chrX -->
    <g transform="translate(63.846094 22.68) scale(0.1 -0.1)">
     <defs>
      <path id="DejaVuSans-63" d="M 3122 3366 
L 3122 2828 
Q 2878 2963 2633 3030 
Q 2388 3097 2138 3097 
Q 1578 3097 1268 2742 
Q 959 2388 959 1747 
Q 959 1106 1268 751 
Q 1578 397 2138 397 
Q 2388 397 2633 464 
Q 2878 531 3122 666 
L 3122 134 
Q 2881 22 2623 -34 
Q 2366 -91 2075 -91 
Q 1284 -91 818 406 
Q 353 903 353 1747 
Q 353 2603 823 3093 
Q 1294 3584 2113 3584 
Q 2378 3584 2631 3529 
Q 2884 3475 3122 3366 
z
" transform="scale(0.015625)"/>
      <path id="DejaVuSans-68" d="M 3513 2113 
L 3513 0 
L 2938 0 
L 2938 2094 
Q 2938 2591 2744 2837 
Q 2550 3084 2163 3084 
Q 1697 3084 1428 2787 
Q 1159 2491 1159 1978 
L 1159 0 
L 581 0 
L 581 4863 
L 1159 4863 
L 1159 2956 
Q 1366 3272 1645 3428 
Q 1925 3584 2291 3584 
Q 2894 3584 3203 3211 
Q 3513 2838 3513 2113 
z
" transform="scale(0.015625)"/>
      <path id="DejaVuSans-58" d="M 403 4666 
L 1081 4666 
L 2241 2931 
L 3406 4666 
L 4084 4666 
L 2584 2425 
L 4184 0 
L 3506 0 
L 2194 1984 
L 872 0 
L 191 0 
L 1856 2491 
L 403 4666 
z
" transform="scale(0.015625)"/>
     </defs>
     <use xlink:href="#DejaVuSans-63"/>
     <use xlink:href="#DejaVuSans-68" x="54.980469"/>
     <use xlink:href="#DejaVuSans-72" x="118.359375"/>
     <use xlink:href="#DejaVuSans-58" x="159.472656"/>
    </g>
   </g>
  </g>
  <g id="axes_3">
   <g id="patch_95">
    <path d="M 63.846094 138.08 
L 683.646094 138.08 
L 683.646094 111.213333 
L 63.846094 111.213333 
z
" style="fill: #ffffff"/>
   </g>
   <g id="patch_96">
    <path d="M 214.564538 135.393333 
L 215.37268 135.393333 
L 215.37268 111.213333 
L 214.564538 111.213333 
z
" clip-path="url(#p96cecdd450)" style="fill: #2ca02c; opacity: 0.6"/>
   </g>
   <g id="patch_97">
    <path d="M 270.326322 135.393333 
L 271.134464 135.393333 
L 271.134464 111.213333 
L 270.326322 111.213333 
z
" clip-path="url(#p96cecdd450)" style="fill: #2ca02c; opacity: 0.6"/>
   </g>
   <g id="patch_98">
    <path d="M 314.760131 135.393333 
L 315.178191 135.393333 
L 315.178191 111.213333 
L 314.760131 111.213333 
z
" clip-path="url(#p96cecdd450)" style="fill: #2ca02c; opacity: 0.6"/>
   </g>
   <g id="patch_99">
    <path d="M 350.332359 135.393333 
L 351.140501 135.393333 
L 351.140501 111.213333 
L 350.332359 111.213333 
z
" clip-path="url(#p96cecdd450)" style="fill: #2ca02c; opacity: 0.6"/>
   </g>
   <g id="patch_100">
    <path d="M 501.050804 135.393333 
L 501.858945 135.393333 
L 501.858945 111.213333 
L 501.050804 111.213333 
z
" clip-path="url(#p96cecdd450)" style="fill: #2ca02c; opacity: 0.6"/>
   </g>
   <g id="patch_101">
    <path d="M 582.688398 135.393333 
L 583.077195 135.393333 
L 583.077195 111.213333 
L 582.688398 111.213333 
z
" clip-path="url(#p96cecdd450)" style="fill: #2ca02c; opacity: 0.6"/>
   </g>
   <g id="matplotlib.axis_3">
    <g id="xtick_1">
     <g id="line2d_1">
      <defs>
       <path id="mfa913631a5" d="M 0 0 
L 0 3.5 
" style="stroke: #000000; stroke-width: 0.8"/>
      </defs>
      <g>
       <use xlink:href="#mfa913631a5" x="63.846094" y="138.08" style="stroke: #000000; stroke-width: 0.8"/>
      </g>
     </g>
     <g id="text_4">
      <!-- 0 Mbp -->
      <g transform="translate(48.413281 152.678438) scale(0.1 -0.1)">
       <defs>
        <path id="DejaVuSans-20" transform="scale(0.015625)"/>
        <path id="DejaVuSans-4d" d="M 628 4666 
L 1569 4666 
L 2759 1491 
L 3956 4666 
L 4897 4666 
L 4897 0 
L 4281 0 
L 4281 4097 
L 3078 897 
L 2444 897 
L 1241 4097 
L 1241 0 
L 628 0 
L 628 4666 
z
" transform="scale(0.015625)"/>
        <path id="DejaVuSans-62" d="M 3116 1747 
Q 3116 2381 2855 2742 
Q 2594 3103 2138 3103 
Q 1681 3103 1420 2742 
Q 1159 2381 1159 1747 
Q 1159 1113 1420 752 
Q 1681 391 2138 391 
Q 2594 391 2855 752 
Q 3116 1113 3116 1747 
z
M 1159 2969 
Q 1341 3281 1617 3432 
Q 1894 3584 2278 3584 
Q 2916 3584 3314 3078 
Q 3713 2572 3713 1747 
Q 3713 922 3314 415 
Q 2916 -91 2278 -91 
Q 1894 -91 1617 61 
Q 1341 213 1159 525 
L 1159 0 
L 581 0 
L 581 4863 
L 1159 4863 
L 1159 2969 
z
" transform="scale(0.015625)"/>
        <path id="DejaVuSans-70" d="M 1159 525 
L 1159 -1331 
L 581 -1331 
L 581 3500 
L 1159 3500 
L 1159 2969 
Q 1341 3281 1617 3432 
Q 1894 3584 2278 3584 
Q 2916 3584 3314 3078 
Q 3713 2572 3713 1747 
Q 3713 922 3314 415 
Q 2916 -91 2278 -91 
Q 1894 -91 1617 61 
Q 1341 213 1159 525 
z
M 3116 1747 
Q 3116 2381 2855 2742 
Q 2594 3103 2138 3103 
Q 1681 3103 1420 2742 
Q 1159 2381 1159 1747 
Q 1159 1113 1420 752 
Q 1681 391 2138 391 
Q 2594 391 2855 752 
Q 3116 1113 3116 1747 
z
" transform="scale(0.015625)"/>
       </defs>
       <use xlink:href="#DejaVuSans-30"/>
       <use xlink:href="#DejaVuSans-20" x="63.623047"/>
       <use xlink:href="#DejaVuSans-4d" x="95.410156"/>
       <use xlink:href="#DejaVuSans-62" x="181.689453"/>
       <use xlink:href="#DejaVuSans-70" x="245.166016"/>
      </g>
     </g>
    </g>
    <g id="xtick_2">
     <g id="line2d_2">
      <g>
       <use xlink:href="#mfa913631a5" x="218.796094" y="138.08" style="stroke: #000000; stroke-width: 0.8"/>
      </g>
     </g>
     <g id="text_5">
      <!-- 38 Mbp -->
      <g transform="translate(200.182031 152.678438) scale(0.1 -0.1)">
       <defs>
        <path id="DejaVuSans-33" d="M 2597 2516 
Q 3050 2419 3304 2112 
Q 3559 1806 3559 1356 
Q 3559 666 3084 287 
Q 2609 -91 1734 -91 
Q 1441 -91 1130 -33 
Q 819 25 488 141 
L 488 750 
Q 750 597 1062 519 
Q 1375 441 1716 441 
Q 2309 441 2620 675 
Q 2931 909 2931 1356 
Q 2931 1769 2642 2001 
Q 2353 2234 1838 2234 
L 1294 2234 
L 1294 2753 
L 1863 2753 
Q 2328 2753 2575 2939 
Q 2822 3125 2822 3475 
Q 2822 3834 2567 4026 
Q 2313 4219 1838 4219 
Q 1578 4219 1281 4162 
Q 984 4106 628 3988 
L 628 4550 
Q 988 4650 1302 4700 
Q 1616 4750 1894 4750 
Q 2613 4750 3031 4423 
Q 3450 4097 3450 3541 
Q 3450 3153 3228 2886 
Q 3006 2619 2597 2516 
z
" transform="scale(0.015625)"/>
        <path id="DejaVuSans-38" d="M 2034 2216 
Q 1584 2216 1326 1975 
Q 1069 1734 1069 1313 
Q 1069 891 1326 650 
Q 1584 409 2034 409 
Q 2484 409 2743 651 
Q 3003 894 3003 1313 
Q 3003 1734 2745 1975 
Q 2488 2216 2034 2216 
z
M 1403 2484 
Q 997 2584 770 2862 
Q 544 3141 544 3541 
Q 544 4100 942 4425 
Q 1341 4750 2034 4750 
Q 2731 4750 3128 4425 
Q 3525 4100 3525 3541 
Q 3525 3141 3298 2862 
Q 3072 2584 2669 2484 
Q 3125 2378 3379 2068 
Q 3634 1759 3634 1313 
Q 3634 634 3220 271 
Q 2806 -91 2034 -91 
Q 1263 -91 848 271 
Q 434 634 434 1313 
Q 434 1759 690 2068 
Q 947 2378 1403 2484 
z
M 1172 3481 
Q 1172 3119 1398 2916 
Q 1625 2713 2034 2713 
Q 2441 2713 2670 2916 
Q 2900 3119 2900 3481 
Q 2900 3844 2670 4047 
Q 2441 4250 2034 4250 
Q 1625 4250 1398 4047 
Q 1172 3844 1172 3481 
z
" transform="scale(0.015625)"/>
       </defs>
       <use xlink:href="#DejaVuSans-33"/>
       <use xlink:href="#DejaVuSans-38" x="63.623047"/>
       <use xlink:href="#DejaVuSans-20" x="127.246094"/>
       <use xlink:href="#DejaVuSans-4d" x="159.033203"/>
       <use xlink:href="#DejaVuSans-62" x="245.3125"/>
       <use xlink:href="#DejaVuSans-70" x="308.789062"/>
      </g>
     </g>
    </g>
    <g id="xtick_3">
     <g id="line2d_3">
      <g>
       <use xlink:href="#mfa913631a5" x="373.746094" y="138.08" style="stroke: #000000; stroke-width: 0.8"/>
      </g>
     </g>
     <g id="text_6">
      <!-- 76 Mbp -->
      <g transform="translate(355.132031 152.678438) scale(0.1 -0.1)">
       <defs>
        <path id="DejaVuSans-37" d="M 525 4666 
L 3525 4666 
L 3525 4397 
L 1831 0 
L 1172 0 
L 2766 4134 
L 525 4134 
L 525 4666 
z
" transform="scale(0.015625)"/>
        <path id="DejaVuSans-36" d="M 2113 2584 
Q 1688 2584 1439 2293 
Q 1191 2003 1191 1497 
Q 1191 994 1439 701 
Q 1688 409 2113 409 
Q 2538 409 2786 701 
Q 3034 994 3034 1497 
Q 3034 2003 2786 2293 
Q 2538 2584 2113 2584 
z
M 3366 4563 
L 3366 3988 
Q 3128 4100 2886 4159 
Q 2644 4219 2406 4219 
Q 1781 4219 1451 3797 
Q 1122 3375 1075 2522 
Q 1259 2794 1537 2939 
Q 1816 3084 2150 3084 
Q 2853 3084 3261 2657 
Q 3669 2231 3669 1497 
Q 3669 778 3244 343 
Q 2819 -91 2113 -91 
Q 1303 -91 875 529 
Q 447 1150 447 2328 
Q 447 3434 972 4092 
Q 1497 4750 2381 4750 
Q 2619 4750 2861 4703 
Q 3103 4656 3366 4563 
z
" transform="scale(0.015625)"/>
       </defs>
       <use xlink:href="#DejaVuSans-37"/>
       <use xlink:href="#DejaVuSans-36" x="63.623047"/>
       <use xlink:href="#DejaVuSans-20" x="127.246094"/>
       <use xlink:href="#DejaVuSans-4d" x="159.033203"/>
       <use xlink:href="#DejaVuSans-62" x="245.3125"/>
       <use xlink:href="#DejaVuSans-70" x="308.789062"/>
      </g>
     </g>
    </g>
    <g id="xtick_4">
     <g id="line2d_4">
      <g>
       <use xlink:href="#mfa913631a5" x="528.696094" y="138.08" style="stroke: #000000; stroke-width: 0.8"/>
      </g>
     </g>
     <g id="text_7">
      <!-- 115 Mbp -->
      <g transform="translate(506.900781 152.678438) scale(0.1 -0.1)">
       <defs>
        <path id="DejaVuSans-31" d="M 794 531 
L 1825 531 
L 1825 4091 
L 703 3866 
L 703 4441 
L 1819 4666 
L 2450 4666 
L 2450 531 
L 3481 531 
L 3481 0 
L 794 0 
L 794 531 
z
" transform="scale(0.015625)"/>
        <path id="DejaVuSans-35" d="M 691 4666 
L 3169 4666 
L 3169 4134 
L 1269 4134 
L 1269 2991 
Q 1406 3038 1543 3061 
Q 1681 3084 1819 3084 
Q 2600 3084 3056 2656 
Q 3513 2228 3513 1497 
Q 3513 744 3044 326 
Q 2575 -91 1722 -91 
Q 1428 -91 1123 -41 
Q 819 9 494 109 
L 494 744 
Q 775 591 1075 516 
Q 1375 441 1709 441 
Q 2250 441 2565 725 
Q 2881 1009 2881 1497 
Q 2881 1984 2565 2268 
Q 2250 2553 1709 2553 
Q 1456 2553 1204 2497 
Q 953 2441 691 2322 
L 691 4666 
z
" transform="scale(0.015625)"/>
       </defs>
       <use xlink:href="#DejaVuSans-31"/>
       <use xlink:href="#DejaVuSans-31" x="63.623047"/>
       <use xlink:href="#DejaVuSans-35" x="127.246094"/>
       <use xlink:href="#DejaVuSans-20" x="190.869141"/>
       <use xlink:href="#DejaVuSans-4d" x="222.65625"/>
       <use xlink:href="#DejaVuSans-62" x="308.935547"/>
       <use xlink:href="#DejaVuSans-70" x="372.412109"/>
      </g>
     </g>
    </g>
    <g id="xtick_5">
     <g id="line2d_5">
      <g>
       <use xlink:href="#mfa913631a5" x="683.646094" y="138.08" style="stroke: #000000; stroke-width: 0.8"/>
      </g>
     </g>
     <g id="text_8">
      <!-- 153 Mbp -->
      <g transform="translate(661.850781 152.678438) scale(0.1 -0.1)">
       <use xlink:href="#DejaVuSans-31"/>
       <use xlink:href="#DejaVuSans-35" x="63.623047"/>
       <use xlink:href="#DejaVuSans-33" x="127.246094"/>
       <use xlink:href="#DejaVuSans-20" x="190.869141"/>
       <use xlink:href="#DejaVuSans-4d" x="222.65625"/>
       <use xlink:href="#DejaVuSans-62" x="308.935547"/>
       <use xlink:href="#DejaVuSans-70" x="372.412109"/>
      </g>
     </g>
    </g>
   </g>
   <g id="matplotlib.axis_4">
    <g id="text_9">
     <!-- Intersect -->
     <g transform="translate(11.719531 122.566979) scale(0.1 -0.1)">
      <defs>
       <path id="DejaVuSans-49" d="M 628 4666 
L 1259 4666 
L 1259 0 
L 628 0 
L 628 4666 
z
" transform="scale(0.015625)"/>
       <path id="DejaVuSans-6e" d="M 3513 2113 
L 3513 0 
L 2938 0 
L 2938 2094 
Q 2938 2591 2744 2837 
Q 2550 3084 2163 3084 
Q 1697 3084 1428 2787 
Q 1159 2491 1159 1978 
L 1159 0 
L 581 0 
L 581 3500 
L 1159 3500 
L 1159 2956 
Q 1366 3272 1645 3428 
Q 1925 3584 2291 3584 
Q 2894 3584 3203 3211 
Q 3513 2838 3513 2113 
z
" transform="scale(0.015625)"/>
      </defs>
      <use xlink:href="#DejaVuSans-49"/>
      <use xlink:href="#DejaVuSans-6e" x="29.492188"/>
      <use xlink:href="#DejaVuSans-74" x="92.871094"/>
      <use xlink:href="#DejaVuSans-65" x="132.080078"/>
      <use xlink:href="#DejaVuSans-72" x="193.603516"/>
      <use xlink:href="#DejaVuSans-73" x="234.716797"/>
      <use xlink:href="#DejaVuSans-65" x="286.816406"/>
      <use xlink:href="#DejaVuSans-63" x="348.339844"/>
      <use xlink:href="#DejaVuSans-74" x="403.320312"/>
     </g>
    </g>
   </g>
   <g id="patch_102">
    <path d="M 63.846094 138.08 
L 683.646094 138.08 
" style="fill: none; stroke: #000000; stroke-width: 0.8; stroke-linejoin: miter; stroke-linecap: square"/>
   </g>
  </g>
  <g id="text_10">
   <!-- Start edge -->
   <g transform="translate(324.750469 16.318125) scale(0.12 -0.12)">
    <defs>
     <path id="DejaVuSans-53" d="M 3425 4513 
L 3425 3897 
Q 3066 4069 2747 4153 
Q 2428 4238 2131 4238 
Q 1616 4238 1336 4038 
Q 1056 3838 1056 3469 
Q 1056 3159 1242 3001 
Q 1428 2844 1947 2747 
L 2328 2669 
Q 3034 2534 3370 2195 
Q 3706 1856 3706 1288 
Q 3706 609 3251 259 
Q 2797 -91 1919 -91 
Q 1588 -91 1214 -16 
Q 841 59 441 206 
L 441 856 
Q 825 641 1194 531 
Q 1563 422 1919 422 
Q 2459 422 2753 634 
Q 3047 847 3047 1241 
Q 3047 1584 2836 1778 
Q 2625 1972 2144 2069 
L 1759 2144 
Q 1053 2284 737 2584 
Q 422 2884 422 3419 
Q 422 4038 858 4394 
Q 1294 4750 2059 4750 
Q 2388 4750 2728 4690 
Q 3069 4631 3425 4513 
z
" transform="scale(0.015625)"/>
    </defs>
    <use xlink:href="#DejaVuSans-53"/>
    <use xlink:href="#DejaVuSans-74" x="63.476562"/>
    <use xlink:href="#DejaVuSans-61" x="102.685547"/>
    <use xlink:href="#DejaVuSans-72" x="163.964844"/>
    <use xlink:href="#DejaVuSans-74" x="205.078125"/>
    <use xlink:href="#DejaVuSans-20" x="244.287109"/>
    <use xlink:href="#DejaVuSans-65" x="276.074219"/>
    <use xlink:href="#DejaVuSans-64" x="337.597656"/>
    <use xlink:href="#DejaVuSans-67" x="401.074219"/>
    <use xlink:href="#DejaVuSans-65" x="464.550781"/>
   </g>
  </g>
 </g>
 <defs>
  <clipPath id="p3a500586bf">
   <rect x="63.846094" y="69.946667" width="619.8" height="26.866667"/>
  </clipPath>
  <clipPath id="pd0f25e9b6a">
   <rect x="63.846094" y="28.68" width="619.8" height="26.866667"/>
  </clipPath>
  <clipPath id="p96cecdd450">
   <rect x="63.846094" y="111.213333" width="619.8" height="26.866667"/>
  </clipPath>
 </defs>
</svg>
