<?xml version="1.0" encoding="utf-8" standalone="no"?>
<!DOCTYPE svg PUBLIC "-//W3C//DTD SVG 1.1//EN"
  "http://www.w3.org/Graphics/SVG/1.1/DTD/svg11.dtd">
<svg xmlns:xlink="http://www.w3.org/1999/xlink" width="712.801875pt" height="172.076562pt" viewBox="0 0 712.801875 172.076562" xmlns="http://www.w3.org/2000/svg" version="1.1">
 <metadata>
  <rdf:RDF xmlns:dc="http://purl.org/dc/elements/1.1/" xmlns:cc="http://creativecommons.org/ns#" xmlns:rdf="http://www.w3.org/1999/02/22-rdf-syntax-ns#">
   <cc:Work>
    <dc:type rdf:resource="http://purl.org/dc/dcmitype/StillImage"/>
    <dc:date>2024-12-02T10:41:42.200876</dc:date>
    <dc:format>image/svg+xml</dc:format>
    <dc:creator>
     <cc:Agent>
      <dc:title>Matplotlib v3.8.4, https://matplotlib.org/</dc:title>
     </cc:Agent>
    </dc:creator>
   </cc:Work>
  </rdf:RDF>
 </metadata>
 <defs>
  <style type="text/css">*{stroke-linejoin: round; stroke-linecap: butt}</style>
 </defs>
 <g id="figure_1">
  <g id="patch_1">
   <path d="M 0 172.076562 
L 712.801875 172.076562 
L 712.801875 0 
L 0 0 
z
" style="fill: #ffffff"/>
  </g>
  <g id="axes_1">
   <g id="patch_2">
    <path d="M 49.326563 100.931771 
L 683.806562 100.931771 
L 683.806562 68.065104 
L 49.326563 68.065104 
z
" style="fill: #ffffff"/>
   </g>
   <g id="patch_3">
    <path d="M 53.049335 97.645104 
L 60.081237 97.645104 
L 60.081237 68.065104 
L 53.049335 68.065104 
z
" clip-path="url(#p4892b3ff86)" style="fill: #d62728; opacity: 0.6"/>
   </g>
   <g id="patch_4">
    <path d="M 62.563085 97.645104 
L 63.804009 97.645104 
L 63.804009 68.065104 
L 62.563085 68.065104 
z
" clip-path="url(#p4892b3ff86)" style="fill: #d62728; opacity: 0.6"/>
   </g>
   <g id="patch_5">
    <path d="M 76.626891 97.645104 
L 77.040532 97.645104 
L 77.040532 68.065104 
L 76.626891 68.065104 
z
" clip-path="url(#p4892b3ff86)" style="fill: #d62728; opacity: 0.6"/>
   </g>
   <g id="patch_6">
    <path d="M 84.072435 97.645104 
L 84.486076 97.645104 
L 84.486076 68.065104 
L 84.072435 68.065104 
z
" clip-path="url(#p4892b3ff86)" style="fill: #d62728; opacity: 0.6"/>
   </g>
   <g id="patch_7">
    <path d="M 84.899718 97.645104 
L 90.277055 97.645104 
L 90.277055 68.065104 
L 84.899718 68.065104 
z
" clip-path="url(#p4892b3ff86)" style="fill: #d62728; opacity: 0.6"/>
   </g>
   <g id="patch_8">
    <path d="M 90.690696 97.645104 
L 91.93162 97.645104 
L 91.93162 68.065104 
L 90.690696 68.065104 
z
" clip-path="url(#p4892b3ff86)" style="fill: #d62728; opacity: 0.6"/>
   </g>
   <g id="patch_9">
    <path d="M 93.586186 97.645104 
L 97.308958 97.645104 
L 97.308958 68.065104 
L 93.586186 68.065104 
z
" clip-path="url(#p4892b3ff86)" style="fill: #d62728; opacity: 0.6"/>
   </g>
   <g id="patch_10">
    <path d="M 97.722599 97.645104 
L 105.995426 97.645104 
L 105.995426 68.065104 
L 97.722599 68.065104 
z
" clip-path="url(#p4892b3ff86)" style="fill: #d62728; opacity: 0.6"/>
   </g>
   <g id="patch_11">
    <path d="M 109.304557 97.645104 
L 109.718198 97.645104 
L 109.718198 68.065104 
L 109.304557 68.065104 
z
" clip-path="url(#p4892b3ff86)" style="fill: #d62728; opacity: 0.6"/>
   </g>
   <g id="patch_12">
    <path d="M 111.372763 97.645104 
L 111.786405 97.645104 
L 111.786405 68.065104 
L 111.372763 68.065104 
z
" clip-path="url(#p4892b3ff86)" style="fill: #d62728; opacity: 0.6"/>
   </g>
   <g id="patch_13">
    <path d="M 112.613687 97.645104 
L 113.854611 97.645104 
L 113.854611 68.065104 
L 112.613687 68.065104 
z
" clip-path="url(#p4892b3ff86)" style="fill: #d62728; opacity: 0.6"/>
   </g>
   <g id="patch_14">
    <path d="M 116.750101 97.645104 
L 119.231949 97.645104 
L 119.231949 68.065104 
L 116.750101 68.065104 
z
" clip-path="url(#p4892b3ff86)" style="fill: #d62728; opacity: 0.6"/>
   </g>
   <g id="patch_15">
    <path d="M 119.64559 97.645104 
L 122.54108 97.645104 
L 122.54108 68.065104 
L 119.64559 68.065104 
z
" clip-path="url(#p4892b3ff86)" style="fill: #d62728; opacity: 0.6"/>
   </g>
   <g id="patch_16">
    <path d="M 123.368362 97.645104 
L 127.091134 97.645104 
L 127.091134 68.065104 
L 123.368362 68.065104 
z
" clip-path="url(#p4892b3ff86)" style="fill: #d62728; opacity: 0.6"/>
   </g>
   <g id="patch_17">
    <path d="M 128.332058 97.645104 
L 128.7457 97.645104 
L 128.7457 68.065104 
L 128.332058 68.065104 
z
" clip-path="url(#p4892b3ff86)" style="fill: #d62728; opacity: 0.6"/>
   </g>
   <g id="patch_18">
    <path d="M 129.159341 97.645104 
L 132.468472 97.645104 
L 132.468472 68.065104 
L 129.159341 68.065104 
z
" clip-path="url(#p4892b3ff86)" style="fill: #d62728; opacity: 0.6"/>
   </g>
   <g id="patch_19">
    <path d="M 138.673092 97.645104 
L 139.500375 97.645104 
L 139.500375 68.065104 
L 138.673092 68.065104 
z
" clip-path="url(#p4892b3ff86)" style="fill: #d62728; opacity: 0.6"/>
   </g>
   <g id="patch_20">
    <path d="M 146.118636 97.645104 
L 152.323256 97.645104 
L 152.323256 68.065104 
L 146.118636 68.065104 
z
" clip-path="url(#p4892b3ff86)" style="fill: #d62728; opacity: 0.6"/>
   </g>
   <g id="patch_21">
    <path d="M 202.787499 97.645104 
L 203.201141 97.645104 
L 203.201141 68.065104 
L 202.787499 68.065104 
z
" clip-path="url(#p4892b3ff86)" style="fill: #d62728; opacity: 0.6"/>
   </g>
   <g id="patch_22">
    <path d="M 204.028424 97.645104 
L 222.642284 97.645104 
L 222.642284 68.065104 
L 204.028424 68.065104 
z
" clip-path="url(#p4892b3ff86)" style="fill: #d62728; opacity: 0.6"/>
   </g>
   <g id="patch_23">
    <path d="M 228.846904 97.645104 
L 235.878807 97.645104 
L 235.878807 68.065104 
L 228.846904 68.065104 
z
" clip-path="url(#p4892b3ff86)" style="fill: #d62728; opacity: 0.6"/>
   </g>
   <g id="patch_24">
    <path d="M 241.256144 97.645104 
L 256.974515 97.645104 
L 256.974515 68.065104 
L 241.256144 68.065104 
z
" clip-path="url(#p4892b3ff86)" style="fill: #d62728; opacity: 0.6"/>
   </g>
   <g id="patch_25">
    <path d="M 257.801798 97.645104 
L 259.042722 97.645104 
L 259.042722 68.065104 
L 257.801798 68.065104 
z
" clip-path="url(#p4892b3ff86)" style="fill: #d62728; opacity: 0.6"/>
   </g>
   <g id="patch_26">
    <path d="M 261.110928 97.645104 
L 264.420059 97.645104 
L 264.420059 68.065104 
L 261.110928 68.065104 
z
" clip-path="url(#p4892b3ff86)" style="fill: #d62728; opacity: 0.6"/>
   </g>
   <g id="patch_27">
    <path d="M 266.901907 97.645104 
L 278.483865 97.645104 
L 278.483865 68.065104 
L 266.901907 68.065104 
z
" clip-path="url(#p4892b3ff86)" style="fill: #d62728; opacity: 0.6"/>
   </g>
   <g id="patch_28">
    <path d="M 279.311147 97.645104 
L 279.724789 97.645104 
L 279.724789 68.065104 
L 279.311147 68.065104 
z
" clip-path="url(#p4892b3ff86)" style="fill: #d62728; opacity: 0.6"/>
   </g>
   <g id="patch_29">
    <path d="M 281.379354 97.645104 
L 281.792995 97.645104 
L 281.792995 68.065104 
L 281.379354 68.065104 
z
" clip-path="url(#p4892b3ff86)" style="fill: #d62728; opacity: 0.6"/>
   </g>
   <g id="patch_30">
    <path d="M 282.620278 97.645104 
L 284.274843 97.645104 
L 284.274843 68.065104 
L 282.620278 68.065104 
z
" clip-path="url(#p4892b3ff86)" style="fill: #d62728; opacity: 0.6"/>
   </g>
   <g id="patch_31">
    <path d="M 284.688485 97.645104 
L 285.515767 97.645104 
L 285.515767 68.065104 
L 284.688485 68.065104 
z
" clip-path="url(#p4892b3ff86)" style="fill: #d62728; opacity: 0.6"/>
   </g>
   <g id="patch_32">
    <path d="M 286.34305 97.645104 
L 288.411257 97.645104 
L 288.411257 68.065104 
L 286.34305 68.065104 
z
" clip-path="url(#p4892b3ff86)" style="fill: #d62728; opacity: 0.6"/>
   </g>
   <g id="patch_33">
    <path d="M 299.579573 97.645104 
L 300.406856 97.645104 
L 300.406856 68.065104 
L 299.579573 68.065104 
z
" clip-path="url(#p4892b3ff86)" style="fill: #d62728; opacity: 0.6"/>
   </g>
   <g id="patch_34">
    <path d="M 306.197834 97.645104 
L 307.438758 97.645104 
L 307.438758 68.065104 
L 306.197834 68.065104 
z
" clip-path="url(#p4892b3ff86)" style="fill: #d62728; opacity: 0.6"/>
   </g>
   <g id="patch_35">
    <path d="M 307.8524 97.645104 
L 308.266041 97.645104 
L 308.266041 68.065104 
L 307.8524 68.065104 
z
" clip-path="url(#p4892b3ff86)" style="fill: #d62728; opacity: 0.6"/>
   </g>
   <g id="patch_36">
    <path d="M 319.020716 97.645104 
L 323.984412 97.645104 
L 323.984412 68.065104 
L 319.020716 68.065104 
z
" clip-path="url(#p4892b3ff86)" style="fill: #d62728; opacity: 0.6"/>
   </g>
   <g id="patch_37">
    <path d="M 326.46626 97.645104 
L 328.948108 97.645104 
L 328.948108 68.065104 
L 326.46626 68.065104 
z
" clip-path="url(#p4892b3ff86)" style="fill: #d62728; opacity: 0.6"/>
   </g>
   <g id="patch_38">
    <path d="M 329.361749 97.645104 
L 333.911804 97.645104 
L 333.911804 68.065104 
L 329.361749 68.065104 
z
" clip-path="url(#p4892b3ff86)" style="fill: #d62728; opacity: 0.6"/>
   </g>
   <g id="patch_39">
    <path d="M 334.739087 97.645104 
L 336.807294 97.645104 
L 336.807294 68.065104 
L 334.739087 68.065104 
z
" clip-path="url(#p4892b3ff86)" style="fill: #d62728; opacity: 0.6"/>
   </g>
   <g id="patch_40">
    <path d="M 337.220935 97.645104 
L 338.048218 97.645104 
L 338.048218 68.065104 
L 337.220935 68.065104 
z
" clip-path="url(#p4892b3ff86)" style="fill: #d62728; opacity: 0.6"/>
   </g>
   <g id="patch_41">
    <path d="M 343.011914 97.645104 
L 343.425555 97.645104 
L 343.425555 68.065104 
L 343.011914 68.065104 
z
" clip-path="url(#p4892b3ff86)" style="fill: #d62728; opacity: 0.6"/>
   </g>
   <g id="patch_42">
    <path d="M 344.252838 97.645104 
L 346.321044 97.645104 
L 346.321044 68.065104 
L 344.252838 68.065104 
z
" clip-path="url(#p4892b3ff86)" style="fill: #d62728; opacity: 0.6"/>
   </g>
   <g id="patch_43">
    <path d="M 350.871099 97.645104 
L 352.112023 97.645104 
L 352.112023 68.065104 
L 350.871099 68.065104 
z
" clip-path="url(#p4892b3ff86)" style="fill: #d62728; opacity: 0.6"/>
   </g>
   <g id="patch_44">
    <path d="M 356.248436 97.645104 
L 359.143926 97.645104 
L 359.143926 68.065104 
L 356.248436 68.065104 
z
" clip-path="url(#p4892b3ff86)" style="fill: #d62728; opacity: 0.6"/>
   </g>
   <g id="patch_45">
    <path d="M 360.38485 97.645104 
L 360.798491 97.645104 
L 360.798491 68.065104 
L 360.38485 68.065104 
z
" clip-path="url(#p4892b3ff86)" style="fill: #d62728; opacity: 0.6"/>
   </g>
   <g id="patch_46">
    <path d="M 369.484959 97.645104 
L 370.312242 97.645104 
L 370.312242 68.065104 
L 369.484959 68.065104 
z
" clip-path="url(#p4892b3ff86)" style="fill: #d62728; opacity: 0.6"/>
   </g>
   <g id="patch_47">
    <path d="M 391.821592 97.645104 
L 392.235233 97.645104 
L 392.235233 68.065104 
L 391.821592 68.065104 
z
" clip-path="url(#p4892b3ff86)" style="fill: #d62728; opacity: 0.6"/>
   </g>
   <g id="patch_48">
    <path d="M 428.635671 97.645104 
L 429.049312 97.645104 
L 429.049312 68.065104 
L 428.635671 68.065104 
z
" clip-path="url(#p4892b3ff86)" style="fill: #d62728; opacity: 0.6"/>
   </g>
   <g id="patch_49">
    <path d="M 436.081215 97.645104 
L 439.803987 97.645104 
L 439.803987 68.065104 
L 436.081215 68.065104 
z
" clip-path="url(#p4892b3ff86)" style="fill: #d62728; opacity: 0.6"/>
   </g>
   <g id="patch_50">
    <path d="M 452.213227 97.645104 
L 453.04051 97.645104 
L 453.04051 68.065104 
L 452.213227 68.065104 
z
" clip-path="url(#p4892b3ff86)" style="fill: #d62728; opacity: 0.6"/>
   </g>
   <g id="patch_51">
    <path d="M 453.867793 97.645104 
L 454.281434 97.645104 
L 454.281434 68.065104 
L 453.867793 68.065104 
z
" clip-path="url(#p4892b3ff86)" style="fill: #d62728; opacity: 0.6"/>
   </g>
   <g id="patch_52">
    <path d="M 455.108717 97.645104 
L 457.176923 97.645104 
L 457.176923 68.065104 
L 455.108717 68.065104 
z
" clip-path="url(#p4892b3ff86)" style="fill: #d62728; opacity: 0.6"/>
   </g>
   <g id="patch_53">
    <path d="M 459.658771 97.645104 
L 460.486054 97.645104 
L 460.486054 68.065104 
L 459.658771 68.065104 
z
" clip-path="url(#p4892b3ff86)" style="fill: #d62728; opacity: 0.6"/>
   </g>
   <g id="patch_54">
    <path d="M 462.140619 97.645104 
L 465.036109 97.645104 
L 465.036109 68.065104 
L 462.140619 68.065104 
z
" clip-path="url(#p4892b3ff86)" style="fill: #d62728; opacity: 0.6"/>
   </g>
   <g id="patch_55">
    <path d="M 465.863391 97.645104 
L 466.690674 97.645104 
L 466.690674 68.065104 
L 465.863391 68.065104 
z
" clip-path="url(#p4892b3ff86)" style="fill: #d62728; opacity: 0.6"/>
   </g>
   <g id="patch_56">
    <path d="M 477.85899 97.645104 
L 485.304534 97.645104 
L 485.304534 68.065104 
L 477.85899 68.065104 
z
" clip-path="url(#p4892b3ff86)" style="fill: #d62728; opacity: 0.6"/>
   </g>
   <g id="patch_57">
    <path d="M 488.613665 97.645104 
L 493.16372 97.645104 
L 493.16372 68.065104 
L 488.613665 68.065104 
z
" clip-path="url(#p4892b3ff86)" style="fill: #d62728; opacity: 0.6"/>
   </g>
   <g id="patch_58">
    <path d="M 493.991003 97.645104 
L 496.059209 97.645104 
L 496.059209 68.065104 
L 493.991003 68.065104 
z
" clip-path="url(#p4892b3ff86)" style="fill: #d62728; opacity: 0.6"/>
   </g>
   <g id="patch_59">
    <path d="M 497.300133 97.645104 
L 497.713775 97.645104 
L 497.713775 68.065104 
L 497.300133 68.065104 
z
" clip-path="url(#p4892b3ff86)" style="fill: #d62728; opacity: 0.6"/>
   </g>
   <g id="patch_60">
    <path d="M 501.850188 97.645104 
L 502.677471 97.645104 
L 502.677471 68.065104 
L 501.850188 68.065104 
z
" clip-path="url(#p4892b3ff86)" style="fill: #d62728; opacity: 0.6"/>
   </g>
   <g id="patch_61">
    <path d="M 512.604863 97.645104 
L 513.432146 97.645104 
L 513.432146 68.065104 
L 512.604863 68.065104 
z
" clip-path="url(#p4892b3ff86)" style="fill: #d62728; opacity: 0.6"/>
   </g>
   <g id="patch_62">
    <path d="M 522.945896 97.645104 
L 531.218723 97.645104 
L 531.218723 68.065104 
L 522.945896 68.065104 
z
" clip-path="url(#p4892b3ff86)" style="fill: #d62728; opacity: 0.6"/>
   </g>
   <g id="patch_63">
    <path d="M 531.632364 97.645104 
L 532.873288 97.645104 
L 532.873288 68.065104 
L 531.632364 68.065104 
z
" clip-path="url(#p4892b3ff86)" style="fill: #d62728; opacity: 0.6"/>
   </g>
   <g id="patch_64">
    <path d="M 544.868887 97.645104 
L 547.350735 97.645104 
L 547.350735 68.065104 
L 544.868887 68.065104 
z
" clip-path="url(#p4892b3ff86)" style="fill: #d62728; opacity: 0.6"/>
   </g>
   <g id="patch_65">
    <path d="M 569.273726 97.645104 
L 573.41014 97.645104 
L 573.41014 68.065104 
L 569.273726 68.065104 
z
" clip-path="url(#p4892b3ff86)" style="fill: #d62728; opacity: 0.6"/>
   </g>
   <g id="patch_66">
    <path d="M 580.442043 97.645104 
L 580.855684 97.645104 
L 580.855684 68.065104 
L 580.442043 68.065104 
z
" clip-path="url(#p4892b3ff86)" style="fill: #d62728; opacity: 0.6"/>
   </g>
   <g id="patch_67">
    <path d="M 584.992097 97.645104 
L 585.81938 97.645104 
L 585.81938 68.065104 
L 584.992097 68.065104 
z
" clip-path="url(#p4892b3ff86)" style="fill: #d62728; opacity: 0.6"/>
   </g>
   <g id="patch_68">
    <path d="M 589.542152 97.645104 
L 600.296827 97.645104 
L 600.296827 68.065104 
L 589.542152 68.065104 
z
" clip-path="url(#p4892b3ff86)" style="fill: #d62728; opacity: 0.6"/>
   </g>
   <g id="patch_69">
    <path d="M 611.465143 97.645104 
L 612.706067 97.645104 
L 612.706067 68.065104 
L 611.465143 68.065104 
z
" clip-path="url(#p4892b3ff86)" style="fill: #d62728; opacity: 0.6"/>
   </g>
   <g id="patch_70">
    <path d="M 644.55645 97.645104 
L 644.970091 97.645104 
L 644.970091 68.065104 
L 644.55645 68.065104 
z
" clip-path="url(#p4892b3ff86)" style="fill: #d62728; opacity: 0.6"/>
   </g>
   <g id="patch_71">
    <path d="M 650.76107 97.645104 
L 657.792973 97.645104 
L 657.792973 68.065104 
L 650.76107 68.065104 
z
" clip-path="url(#p4892b3ff86)" style="fill: #d62728; opacity: 0.6"/>
   </g>
   <g id="patch_72">
    <path d="M 665.238517 97.645104 
L 666.0658 97.645104 
L 666.0658 68.065104 
L 665.238517 68.065104 
z
" clip-path="url(#p4892b3ff86)" style="fill: #d62728; opacity: 0.6"/>
   </g>
   <g id="patch_73">
    <path d="M 666.893082 97.645104 
L 673.511344 97.645104 
L 673.511344 68.065104 
L 666.893082 68.065104 
z
" clip-path="url(#p4892b3ff86)" style="fill: #d62728; opacity: 0.6"/>
   </g>
   <g id="patch_74">
    <path d="M 679.302323 97.645104 
L 683.438736 97.645104 
L 683.438736 68.065104 
L 679.302323 68.065104 
z
" clip-path="url(#p4892b3ff86)" style="fill: #d62728; opacity: 0.6"/>
   </g>
   <g id="matplotlib.axis_1">
    <g id="text_1">
     <!-- A-Comp -->
     <g transform="translate(9.619531 82.41875) scale(0.1 -0.1)">
      <defs>
       <path id="DejaVuSans-41" d="M 2188 4044 
L 1331 1722 
L 3047 1722 
L 2188 4044 
z
M 1831 4666 
L 2547 4666 
L 4325 0 
L 3669 0 
L 3244 1197 
L 1141 1197 
L 716 0 
L 50 0 
L 1831 4666 
z
" transform="scale(0.015625)"/>
       <path id="DejaVuSans-2d" d="M 313 2009 
L 1997 2009 
L 1997 1497 
L 313 1497 
L 313 2009 
z
" transform="scale(0.015625)"/>
       <path id="DejaVuSans-43" d="M 4122 4306 
L 4122 3641 
Q 3803 3938 3442 4084 
Q 3081 4231 2675 4231 
Q 1875 4231 1450 3742 
Q 1025 3253 1025 2328 
Q 1025 1406 1450 917 
Q 1875 428 2675 428 
Q 3081 428 3442 575 
Q 3803 722 4122 1019 
L 4122 359 
Q 3791 134 3420 21 
Q 3050 -91 2638 -91 
Q 1578 -91 968 557 
Q 359 1206 359 2328 
Q 359 3453 968 4101 
Q 1578 4750 2638 4750 
Q 3056 4750 3426 4639 
Q 3797 4528 4122 4306 
z
" transform="scale(0.015625)"/>
       <path id="DejaVuSans-6f" d="M 1959 3097 
Q 1497 3097 1228 2736 
Q 959 2375 959 1747 
Q 959 1119 1226 758 
Q 1494 397 1959 397 
Q 2419 397 2687 759 
Q 2956 1122 2956 1747 
Q 2956 2369 2687 2733 
Q 2419 3097 1959 3097 
z
M 1959 3584 
Q 2709 3584 3137 3096 
Q 3566 2609 3566 1747 
Q 3566 888 3137 398 
Q 2709 -91 1959 -91 
Q 1206 -91 779 398 
Q 353 888 353 1747 
Q 353 2609 779 3096 
Q 1206 3584 1959 3584 
z
" transform="scale(0.015625)"/>
       <path id="DejaVuSans-6d" d="M 3328 2828 
Q 3544 3216 3844 3400 
Q 4144 3584 4550 3584 
Q 5097 3584 5394 3201 
Q 5691 2819 5691 2113 
L 5691 0 
L 5113 0 
L 5113 2094 
Q 5113 2597 4934 2840 
Q 4756 3084 4391 3084 
Q 3944 3084 3684 2787 
Q 3425 2491 3425 1978 
L 3425 0 
L 2847 0 
L 2847 2094 
Q 2847 2600 2669 2842 
Q 2491 3084 2119 3084 
Q 1678 3084 1418 2786 
Q 1159 2488 1159 1978 
L 1159 0 
L 581 0 
L 581 3500 
L 1159 3500 
L 1159 2956 
Q 1356 3278 1631 3431 
Q 1906 3584 2284 3584 
Q 2666 3584 2933 3390 
Q 3200 3197 3328 2828 
z
" transform="scale(0.015625)"/>
       <path id="DejaVuSans-70" d="M 1159 525 
L 1159 -1331 
L 581 -1331 
L 581 3500 
L 1159 3500 
L 1159 2969 
Q 1341 3281 1617 3432 
Q 1894 3584 2278 3584 
Q 2916 3584 3314 3078 
Q 3713 2572 3713 1747 
Q 3713 922 3314 415 
Q 2916 -91 2278 -91 
Q 1894 -91 1617 61 
Q 1341 213 1159 525 
z
M 3116 1747 
Q 3116 2381 2855 2742 
Q 2594 3103 2138 3103 
Q 1681 3103 1420 2742 
Q 1159 2381 1159 1747 
Q 1159 1113 1420 752 
Q 1681 391 2138 391 
Q 2594 391 2855 752 
Q 3116 1113 3116 1747 
z
" transform="scale(0.015625)"/>
      </defs>
      <use xlink:href="#DejaVuSans-41"/>
      <use xlink:href="#DejaVuSans-2d" x="66.158203"/>
      <use xlink:href="#DejaVuSans-43" x="102.242188"/>
      <use xlink:href="#DejaVuSans-6f" x="172.066406"/>
      <use xlink:href="#DejaVuSans-6d" x="233.248047"/>
      <use xlink:href="#DejaVuSans-70" x="330.660156"/>
     </g>
    </g>
   </g>
  </g>
  <g id="axes_2">
   <g id="patch_75">
    <path d="M 49.326563 53.665104 
L 683.806562 53.665104 
L 683.806562 20.798437 
L 49.326563 20.798437 
z
" style="fill: #ffffff"/>
   </g>
   <g id="patch_76">
    <path d="M 130.138732 50.378437 
L 130.553246 50.378437 
L 130.553246 20.798437 
L 130.138732 20.798437 
z
" clip-path="url(#p07752a2776)" style="fill: #1f77b4; opacity: 0.6"/>
   </g>
   <g id="patch_77">
    <path d="M 135.923155 50.378437 
L 136.382032 50.378437 
L 136.382032 20.798437 
L 135.923155 20.798437 
z
" clip-path="url(#p07752a2776)" style="fill: #1f77b4; opacity: 0.6"/>
   </g>
   <g id="patch_78">
    <path d="M 199.160452 50.378437 
L 199.986494 50.378437 
L 199.986494 20.798437 
L 199.160452 20.798437 
z
" clip-path="url(#p07752a2776)" style="fill: #1f77b4; opacity: 0.6"/>
   </g>
   <g id="patch_79">
    <path d="M 203.349783 50.378437 
L 204.988187 50.378437 
L 204.988187 20.798437 
L 203.349783 20.798437 
z
" clip-path="url(#p07752a2776)" style="fill: #1f77b4; opacity: 0.6"/>
   </g>
   <g id="patch_80">
    <path d="M 254.147367 50.378437 
L 256.205663 50.378437 
L 256.205663 20.798437 
L 254.147367 20.798437 
z
" clip-path="url(#p07752a2776)" style="fill: #1f77b4; opacity: 0.6"/>
   </g>
   <g id="patch_81">
    <path d="M 259.54482 50.378437 
L 262.122252 50.378437 
L 262.122252 20.798437 
L 259.54482 20.798437 
z
" clip-path="url(#p07752a2776)" style="fill: #1f77b4; opacity: 0.6"/>
   </g>
   <g id="patch_82">
    <path d="M 272.291633 50.378437 
L 273.134725 50.378437 
L 273.134725 20.798437 
L 272.291633 20.798437 
z
" clip-path="url(#p07752a2776)" style="fill: #1f77b4; opacity: 0.6"/>
   </g>
   <g id="patch_83">
    <path d="M 306.183514 50.378437 
L 306.997606 50.378437 
L 306.997606 20.798437 
L 306.183514 20.798437 
z
" clip-path="url(#p07752a2776)" style="fill: #1f77b4; opacity: 0.6"/>
   </g>
   <g id="patch_84">
    <path d="M 342.556887 50.378437 
L 343.631023 50.378437 
L 343.631023 20.798437 
L 342.556887 20.798437 
z
" clip-path="url(#p07752a2776)" style="fill: #1f77b4; opacity: 0.6"/>
   </g>
   <g id="patch_85">
    <path d="M 346.274576 50.378437 
L 347.745108 50.378437 
L 347.745108 20.798437 
L 346.274576 20.798437 
z
" clip-path="url(#p07752a2776)" style="fill: #1f77b4; opacity: 0.6"/>
   </g>
   <g id="patch_86">
    <path d="M 356.834144 50.378437 
L 358.050614 50.378437 
L 358.050614 20.798437 
L 356.834144 20.798437 
z
" clip-path="url(#p07752a2776)" style="fill: #1f77b4; opacity: 0.6"/>
   </g>
   <g id="patch_87">
    <path d="M 447.460281 50.378437 
L 447.826652 50.378437 
L 447.826652 20.798437 
L 447.460281 20.798437 
z
" clip-path="url(#p07752a2776)" style="fill: #1f77b4; opacity: 0.6"/>
   </g>
   <g id="patch_88">
    <path d="M 496.795888 50.378437 
L 498.373392 50.378437 
L 498.373392 20.798437 
L 496.795888 20.798437 
z
" clip-path="url(#p07752a2776)" style="fill: #1f77b4; opacity: 0.6"/>
   </g>
   <g id="patch_89">
    <path d="M 509.72129 50.378437 
L 510.935985 50.378437 
L 510.935985 20.798437 
L 509.72129 20.798437 
z
" clip-path="url(#p07752a2776)" style="fill: #1f77b4; opacity: 0.6"/>
   </g>
   <g id="patch_90">
    <path d="M 562.565448 50.378437 
L 562.97466 50.378437 
L 562.97466 20.798437 
L 562.565448 20.798437 
z
" clip-path="url(#p07752a2776)" style="fill: #1f77b4; opacity: 0.6"/>
   </g>
   <g id="patch_91">
    <path d="M 573.983393 50.378437 
L 575.660477 50.378437 
L 575.660477 20.798437 
L 573.983393 20.798437 
z
" clip-path="url(#p07752a2776)" style="fill: #1f77b4; opacity: 0.6"/>
   </g>
   <g id="patch_92">
    <path d="M 580.457678 50.378437 
L 581.690271 50.378437 
L 581.690271 20.798437 
L 580.457678 20.798437 
z
" clip-path="url(#p07752a2776)" style="fill: #1f77b4; opacity: 0.6"/>
   </g>
   <g id="patch_93">
    <path d="M 585.963823 50.378437 
L 587.202208 50.378437 
L 587.202208 20.798437 
L 585.963823 20.798437 
z
" clip-path="url(#p07752a2776)" style="fill: #1f77b4; opacity: 0.6"/>
   </g>
   <g id="patch_94">
    <path d="M 673.121028 50.378437 
L 674.811865 50.378437 
L 674.811865 20.798437 
L 673.121028 20.798437 
z
" clip-path="url(#p07752a2776)" style="fill: #1f77b4; opacity: 0.6"/>
   </g>
   <g id="matplotlib.axis_2">
    <g id="text_2">
     <!-- ECH90 -->
     <g transform="translate(12.553125 35.152083) scale(0.1 -0.1)">
      <defs>
       <path id="DejaVuSans-45" d="M 628 4666 
L 3578 4666 
L 3578 4134 
L 1259 4134 
L 1259 2753 
L 3481 2753 
L 3481 2222 
L 1259 2222 
L 1259 531 
L 3634 531 
L 3634 0 
L 628 0 
L 628 4666 
z
" transform="scale(0.015625)"/>
       <path id="DejaVuSans-48" d="M 628 4666 
L 1259 4666 
L 1259 2753 
L 3553 2753 
L 3553 4666 
L 4184 4666 
L 4184 0 
L 3553 0 
L 3553 2222 
L 1259 2222 
L 1259 0 
L 628 0 
L 628 4666 
z
" transform="scale(0.015625)"/>
       <path id="DejaVuSans-39" d="M 703 97 
L 703 672 
Q 941 559 1184 500 
Q 1428 441 1663 441 
Q 2288 441 2617 861 
Q 2947 1281 2994 2138 
Q 2813 1869 2534 1725 
Q 2256 1581 1919 1581 
Q 1219 1581 811 2004 
Q 403 2428 403 3163 
Q 403 3881 828 4315 
Q 1253 4750 1959 4750 
Q 2769 4750 3195 4129 
Q 3622 3509 3622 2328 
Q 3622 1225 3098 567 
Q 2575 -91 1691 -91 
Q 1453 -91 1209 -44 
Q 966 3 703 97 
z
M 1959 2075 
Q 2384 2075 2632 2365 
Q 2881 2656 2881 3163 
Q 2881 3666 2632 3958 
Q 2384 4250 1959 4250 
Q 1534 4250 1286 3958 
Q 1038 3666 1038 3163 
Q 1038 2656 1286 2365 
Q 1534 2075 1959 2075 
z
" transform="scale(0.015625)"/>
       <path id="DejaVuSans-30" d="M 2034 4250 
Q 1547 4250 1301 3770 
Q 1056 3291 1056 2328 
Q 1056 1369 1301 889 
Q 1547 409 2034 409 
Q 2525 409 2770 889 
Q 3016 1369 3016 2328 
Q 3016 3291 2770 3770 
Q 2525 4250 2034 4250 
z
M 2034 4750 
Q 2819 4750 3233 4129 
Q 3647 3509 3647 2328 
Q 3647 1150 3233 529 
Q 2819 -91 2034 -91 
Q 1250 -91 836 529 
Q 422 1150 422 2328 
Q 422 3509 836 4129 
Q 1250 4750 2034 4750 
z
" transform="scale(0.015625)"/>
      </defs>
      <use xlink:href="#DejaVuSans-45"/>
      <use xlink:href="#DejaVuSans-43" x="63.183594"/>
      <use xlink:href="#DejaVuSans-48" x="133.007812"/>
      <use xlink:href="#DejaVuSans-39" x="208.203125"/>
      <use xlink:href="#DejaVuSans-30" x="271.826172"/>
     </g>
    </g>
   </g>
   <g id="text_3">
    <!-- chrX -->
    <g transform="translate(49.326563 14.798437) scale(0.1 -0.1)">
     <defs>
      <path id="DejaVuSans-63" d="M 3122 3366 
L 3122 2828 
Q 2878 2963 2633 3030 
Q 2388 3097 2138 3097 
Q 1578 3097 1268 2742 
Q 959 2388 959 1747 
Q 959 1106 1268 751 
Q 1578 397 2138 397 
Q 2388 397 2633 464 
Q 2878 531 3122 666 
L 3122 134 
Q 2881 22 2623 -34 
Q 2366 -91 2075 -91 
Q 1284 -91 818 406 
Q 353 903 353 1747 
Q 353 2603 823 3093 
Q 1294 3584 2113 3584 
Q 2378 3584 2631 3529 
Q 2884 3475 3122 3366 
z
" transform="scale(0.015625)"/>
      <path id="DejaVuSans-68" d="M 3513 2113 
L 3513 0 
L 2938 0 
L 2938 2094 
Q 2938 2591 2744 2837 
Q 2550 3084 2163 3084 
Q 1697 3084 1428 2787 
Q 1159 2491 1159 1978 
L 1159 0 
L 581 0 
L 581 4863 
L 1159 4863 
L 1159 2956 
Q 1366 3272 1645 3428 
Q 1925 3584 2291 3584 
Q 2894 3584 3203 3211 
Q 3513 2838 3513 2113 
z
" transform="scale(0.015625)"/>
      <path id="DejaVuSans-72" d="M 2631 2963 
Q 2534 3019 2420 3045 
Q 2306 3072 2169 3072 
Q 1681 3072 1420 2755 
Q 1159 2438 1159 1844 
L 1159 0 
L 581 0 
L 581 3500 
L 1159 3500 
L 1159 2956 
Q 1341 3275 1631 3429 
Q 1922 3584 2338 3584 
Q 2397 3584 2469 3576 
Q 2541 3569 2628 3553 
L 2631 2963 
z
" transform="scale(0.015625)"/>
      <path id="DejaVuSans-58" d="M 403 4666 
L 1081 4666 
L 2241 2931 
L 3406 4666 
L 4084 4666 
L 2584 2425 
L 4184 0 
L 3506 0 
L 2194 1984 
L 872 0 
L 191 0 
L 1856 2491 
L 403 4666 
z
" transform="scale(0.015625)"/>
     </defs>
     <use xlink:href="#DejaVuSans-63"/>
     <use xlink:href="#DejaVuSans-68" x="54.980469"/>
     <use xlink:href="#DejaVuSans-72" x="118.359375"/>
     <use xlink:href="#DejaVuSans-58" x="159.472656"/>
    </g>
   </g>
  </g>
  <g id="axes_3">
   <g id="patch_95">
    <path d="M 49.326563 148.198437 
L 683.806562 148.198437 
L 683.806562 115.331771 
L 49.326563 115.331771 
z
" style="fill: #ffffff"/>
   </g>
   <g id="patch_96">
    <path d="M 130.138732 144.911771 
L 130.553246 144.911771 
L 130.553246 115.331771 
L 130.138732 115.331771 
z
" clip-path="url(#pe110d6aa96)" style="fill: #2ca02c; opacity: 0.6"/>
   </g>
   <g id="patch_97">
    <path d="M 204.028424 144.911771 
L 204.988187 144.911771 
L 204.988187 115.331771 
L 204.028424 115.331771 
z
" clip-path="url(#pe110d6aa96)" style="fill: #2ca02c; opacity: 0.6"/>
   </g>
   <g id="patch_98">
    <path d="M 254.147367 144.911771 
L 256.205663 144.911771 
L 256.205663 115.331771 
L 254.147367 115.331771 
z
" clip-path="url(#pe110d6aa96)" style="fill: #2ca02c; opacity: 0.6"/>
   </g>
   <g id="patch_99">
    <path d="M 261.110928 144.911771 
L 262.122252 144.911771 
L 262.122252 115.331771 
L 261.110928 115.331771 
z
" clip-path="url(#pe110d6aa96)" style="fill: #2ca02c; opacity: 0.6"/>
   </g>
   <g id="patch_100">
    <path d="M 272.291633 144.911771 
L 273.134725 144.911771 
L 273.134725 115.331771 
L 272.291633 115.331771 
z
" clip-path="url(#pe110d6aa96)" style="fill: #2ca02c; opacity: 0.6"/>
   </g>
   <g id="patch_101">
    <path d="M 306.197834 144.911771 
L 306.997606 144.911771 
L 306.997606 115.331771 
L 306.197834 115.331771 
z
" clip-path="url(#pe110d6aa96)" style="fill: #2ca02c; opacity: 0.6"/>
   </g>
   <g id="patch_102">
    <path d="M 343.011914 144.911771 
L 343.425555 144.911771 
L 343.425555 115.331771 
L 343.011914 115.331771 
z
" clip-path="url(#pe110d6aa96)" style="fill: #2ca02c; opacity: 0.6"/>
   </g>
   <g id="patch_103">
    <path d="M 346.274576 144.911771 
L 346.321044 144.911771 
L 346.321044 115.331771 
L 346.274576 115.331771 
z
" clip-path="url(#pe110d6aa96)" style="fill: #2ca02c; opacity: 0.6"/>
   </g>
   <g id="patch_104">
    <path d="M 356.834144 144.911771 
L 358.050614 144.911771 
L 358.050614 115.331771 
L 356.834144 115.331771 
z
" clip-path="url(#pe110d6aa96)" style="fill: #2ca02c; opacity: 0.6"/>
   </g>
   <g id="patch_105">
    <path d="M 497.300133 144.911771 
L 497.713775 144.911771 
L 497.713775 115.331771 
L 497.300133 115.331771 
z
" clip-path="url(#pe110d6aa96)" style="fill: #2ca02c; opacity: 0.6"/>
   </g>
   <g id="patch_106">
    <path d="M 580.457678 144.911771 
L 580.855684 144.911771 
L 580.855684 115.331771 
L 580.457678 115.331771 
z
" clip-path="url(#pe110d6aa96)" style="fill: #2ca02c; opacity: 0.6"/>
   </g>
   <g id="patch_107">
    <path d="M 673.121028 144.911771 
L 673.511344 144.911771 
L 673.511344 115.331771 
L 673.121028 115.331771 
z
" clip-path="url(#pe110d6aa96)" style="fill: #2ca02c; opacity: 0.6"/>
   </g>
   <g id="matplotlib.axis_3">
    <g id="xtick_1">
     <g id="line2d_1">
      <defs>
       <path id="m84e14dac36" d="M 0 0 
L 0 3.5 
" style="stroke: #000000; stroke-width: 0.8"/>
      </defs>
      <g>
       <use xlink:href="#m84e14dac36" x="49.326563" y="148.198437" style="stroke: #000000; stroke-width: 0.8"/>
      </g>
     </g>
     <g id="text_4">
      <!-- 0 Mbp -->
      <g transform="translate(33.89375 162.796875) scale(0.1 -0.1)">
       <defs>
        <path id="DejaVuSans-20" transform="scale(0.015625)"/>
        <path id="DejaVuSans-4d" d="M 628 4666 
L 1569 4666 
L 2759 1491 
L 3956 4666 
L 4897 4666 
L 4897 0 
L 4281 0 
L 4281 4097 
L 3078 897 
L 2444 897 
L 1241 4097 
L 1241 0 
L 628 0 
L 628 4666 
z
" transform="scale(0.015625)"/>
        <path id="DejaVuSans-62" d="M 3116 1747 
Q 3116 2381 2855 2742 
Q 2594 3103 2138 3103 
Q 1681 3103 1420 2742 
Q 1159 2381 1159 1747 
Q 1159 1113 1420 752 
Q 1681 391 2138 391 
Q 2594 391 2855 752 
Q 3116 1113 3116 1747 
z
M 1159 2969 
Q 1341 3281 1617 3432 
Q 1894 3584 2278 3584 
Q 2916 3584 3314 3078 
Q 3713 2572 3713 1747 
Q 3713 922 3314 415 
Q 2916 -91 2278 -91 
Q 1894 -91 1617 61 
Q 1341 213 1159 525 
L 1159 0 
L 581 0 
L 581 4863 
L 1159 4863 
L 1159 2969 
z
" transform="scale(0.015625)"/>
       </defs>
       <use xlink:href="#DejaVuSans-30"/>
       <use xlink:href="#DejaVuSans-20" x="63.623047"/>
       <use xlink:href="#DejaVuSans-4d" x="95.410156"/>
       <use xlink:href="#DejaVuSans-62" x="181.689453"/>
       <use xlink:href="#DejaVuSans-70" x="245.166016"/>
      </g>
     </g>
    </g>
    <g id="xtick_2">
     <g id="line2d_2">
      <g>
       <use xlink:href="#m84e14dac36" x="207.946562" y="148.198437" style="stroke: #000000; stroke-width: 0.8"/>
      </g>
     </g>
     <g id="text_5">
      <!-- 38 Mbp -->
      <g transform="translate(189.3325 162.796875) scale(0.1 -0.1)">
       <defs>
        <path id="DejaVuSans-33" d="M 2597 2516 
Q 3050 2419 3304 2112 
Q 3559 1806 3559 1356 
Q 3559 666 3084 287 
Q 2609 -91 1734 -91 
Q 1441 -91 1130 -33 
Q 819 25 488 141 
L 488 750 
Q 750 597 1062 519 
Q 1375 441 1716 441 
Q 2309 441 2620 675 
Q 2931 909 2931 1356 
Q 2931 1769 2642 2001 
Q 2353 2234 1838 2234 
L 1294 2234 
L 1294 2753 
L 1863 2753 
Q 2328 2753 2575 2939 
Q 2822 3125 2822 3475 
Q 2822 3834 2567 4026 
Q 2313 4219 1838 4219 
Q 1578 4219 1281 4162 
Q 984 4106 628 3988 
L 628 4550 
Q 988 4650 1302 4700 
Q 1616 4750 1894 4750 
Q 2613 4750 3031 4423 
Q 3450 4097 3450 3541 
Q 3450 3153 3228 2886 
Q 3006 2619 2597 2516 
z
" transform="scale(0.015625)"/>
        <path id="DejaVuSans-38" d="M 2034 2216 
Q 1584 2216 1326 1975 
Q 1069 1734 1069 1313 
Q 1069 891 1326 650 
Q 1584 409 2034 409 
Q 2484 409 2743 651 
Q 3003 894 3003 1313 
Q 3003 1734 2745 1975 
Q 2488 2216 2034 2216 
z
M 1403 2484 
Q 997 2584 770 2862 
Q 544 3141 544 3541 
Q 544 4100 942 4425 
Q 1341 4750 2034 4750 
Q 2731 4750 3128 4425 
Q 3525 4100 3525 3541 
Q 3525 3141 3298 2862 
Q 3072 2584 2669 2484 
Q 3125 2378 3379 2068 
Q 3634 1759 3634 1313 
Q 3634 634 3220 271 
Q 2806 -91 2034 -91 
Q 1263 -91 848 271 
Q 434 634 434 1313 
Q 434 1759 690 2068 
Q 947 2378 1403 2484 
z
M 1172 3481 
Q 1172 3119 1398 2916 
Q 1625 2713 2034 2713 
Q 2441 2713 2670 2916 
Q 2900 3119 2900 3481 
Q 2900 3844 2670 4047 
Q 2441 4250 2034 4250 
Q 1625 4250 1398 4047 
Q 1172 3844 1172 3481 
z
" transform="scale(0.015625)"/>
       </defs>
       <use xlink:href="#DejaVuSans-33"/>
       <use xlink:href="#DejaVuSans-38" x="63.623047"/>
       <use xlink:href="#DejaVuSans-20" x="127.246094"/>
       <use xlink:href="#DejaVuSans-4d" x="159.033203"/>
       <use xlink:href="#DejaVuSans-62" x="245.3125"/>
       <use xlink:href="#DejaVuSans-70" x="308.789062"/>
      </g>
     </g>
    </g>
    <g id="xtick_3">
     <g id="line2d_3">
      <g>
       <use xlink:href="#m84e14dac36" x="366.566562" y="148.198437" style="stroke: #000000; stroke-width: 0.8"/>
      </g>
     </g>
     <g id="text_6">
      <!-- 76 Mbp -->
      <g transform="translate(347.9525 162.796875) scale(0.1 -0.1)">
       <defs>
        <path id="DejaVuSans-37" d="M 525 4666 
L 3525 4666 
L 3525 4397 
L 1831 0 
L 1172 0 
L 2766 4134 
L 525 4134 
L 525 4666 
z
" transform="scale(0.015625)"/>
        <path id="DejaVuSans-36" d="M 2113 2584 
Q 1688 2584 1439 2293 
Q 1191 2003 1191 1497 
Q 1191 994 1439 701 
Q 1688 409 2113 409 
Q 2538 409 2786 701 
Q 3034 994 3034 1497 
Q 3034 2003 2786 2293 
Q 2538 2584 2113 2584 
z
M 3366 4563 
L 3366 3988 
Q 3128 4100 2886 4159 
Q 2644 4219 2406 4219 
Q 1781 4219 1451 3797 
Q 1122 3375 1075 2522 
Q 1259 2794 1537 2939 
Q 1816 3084 2150 3084 
Q 2853 3084 3261 2657 
Q 3669 2231 3669 1497 
Q 3669 778 3244 343 
Q 2819 -91 2113 -91 
Q 1303 -91 875 529 
Q 447 1150 447 2328 
Q 447 3434 972 4092 
Q 1497 4750 2381 4750 
Q 2619 4750 2861 4703 
Q 3103 4656 3366 4563 
z
" transform="scale(0.015625)"/>
       </defs>
       <use xlink:href="#DejaVuSans-37"/>
       <use xlink:href="#DejaVuSans-36" x="63.623047"/>
       <use xlink:href="#DejaVuSans-20" x="127.246094"/>
       <use xlink:href="#DejaVuSans-4d" x="159.033203"/>
       <use xlink:href="#DejaVuSans-62" x="245.3125"/>
       <use xlink:href="#DejaVuSans-70" x="308.789062"/>
      </g>
     </g>
    </g>
    <g id="xtick_4">
     <g id="line2d_4">
      <g>
       <use xlink:href="#m84e14dac36" x="525.186562" y="148.198437" style="stroke: #000000; stroke-width: 0.8"/>
      </g>
     </g>
     <g id="text_7">
      <!-- 115 Mbp -->
      <g transform="translate(503.39125 162.796875) scale(0.1 -0.1)">
       <defs>
        <path id="DejaVuSans-31" d="M 794 531 
L 1825 531 
L 1825 4091 
L 703 3866 
L 703 4441 
L 1819 4666 
L 2450 4666 
L 2450 531 
L 3481 531 
L 3481 0 
L 794 0 
L 794 531 
z
" transform="scale(0.015625)"/>
        <path id="DejaVuSans-35" d="M 691 4666 
L 3169 4666 
L 3169 4134 
L 1269 4134 
L 1269 2991 
Q 1406 3038 1543 3061 
Q 1681 3084 1819 3084 
Q 2600 3084 3056 2656 
Q 3513 2228 3513 1497 
Q 3513 744 3044 326 
Q 2575 -91 1722 -91 
Q 1428 -91 1123 -41 
Q 819 9 494 109 
L 494 744 
Q 775 591 1075 516 
Q 1375 441 1709 441 
Q 2250 441 2565 725 
Q 2881 1009 2881 1497 
Q 2881 1984 2565 2268 
Q 2250 2553 1709 2553 
Q 1456 2553 1204 2497 
Q 953 2441 691 2322 
L 691 4666 
z
" transform="scale(0.015625)"/>
       </defs>
       <use xlink:href="#DejaVuSans-31"/>
       <use xlink:href="#DejaVuSans-31" x="63.623047"/>
       <use xlink:href="#DejaVuSans-35" x="127.246094"/>
       <use xlink:href="#DejaVuSans-20" x="190.869141"/>
       <use xlink:href="#DejaVuSans-4d" x="222.65625"/>
       <use xlink:href="#DejaVuSans-62" x="308.935547"/>
       <use xlink:href="#DejaVuSans-70" x="372.412109"/>
      </g>
     </g>
    </g>
    <g id="xtick_5">
     <g id="line2d_5">
      <g>
       <use xlink:href="#m84e14dac36" x="683.806562" y="148.198437" style="stroke: #000000; stroke-width: 0.8"/>
      </g>
     </g>
     <g id="text_8">
      <!-- 153 Mbp -->
      <g transform="translate(662.01125 162.796875) scale(0.1 -0.1)">
       <use xlink:href="#DejaVuSans-31"/>
       <use xlink:href="#DejaVuSans-35" x="63.623047"/>
       <use xlink:href="#DejaVuSans-33" x="127.246094"/>
       <use xlink:href="#DejaVuSans-20" x="190.869141"/>
       <use xlink:href="#DejaVuSans-4d" x="222.65625"/>
       <use xlink:href="#DejaVuSans-62" x="308.935547"/>
       <use xlink:href="#DejaVuSans-70" x="372.412109"/>
      </g>
     </g>
    </g>
   </g>
   <g id="matplotlib.axis_4">
    <g id="text_9">
     <!-- Intersect -->
     <g transform="translate(7.2 129.685417) scale(0.1 -0.1)">
      <defs>
       <path id="DejaVuSans-49" d="M 628 4666 
L 1259 4666 
L 1259 0 
L 628 0 
L 628 4666 
z
" transform="scale(0.015625)"/>
       <path id="DejaVuSans-6e" d="M 3513 2113 
L 3513 0 
L 2938 0 
L 2938 2094 
Q 2938 2591 2744 2837 
Q 2550 3084 2163 3084 
Q 1697 3084 1428 2787 
Q 1159 2491 1159 1978 
L 1159 0 
L 581 0 
L 581 3500 
L 1159 3500 
L 1159 2956 
Q 1366 3272 1645 3428 
Q 1925 3584 2291 3584 
Q 2894 3584 3203 3211 
Q 3513 2838 3513 2113 
z
" transform="scale(0.015625)"/>
       <path id="DejaVuSans-74" d="M 1172 4494 
L 1172 3500 
L 2356 3500 
L 2356 3053 
L 1172 3053 
L 1172 1153 
Q 1172 725 1289 603 
Q 1406 481 1766 481 
L 2356 481 
L 2356 0 
L 1766 0 
Q 1100 0 847 248 
Q 594 497 594 1153 
L 594 3053 
L 172 3053 
L 172 3500 
L 594 3500 
L 594 4494 
L 1172 4494 
z
" transform="scale(0.015625)"/>
       <path id="DejaVuSans-65" d="M 3597 1894 
L 3597 1613 
L 953 1613 
Q 991 1019 1311 708 
Q 1631 397 2203 397 
Q 2534 397 2845 478 
Q 3156 559 3463 722 
L 3463 178 
Q 3153 47 2828 -22 
Q 2503 -91 2169 -91 
Q 1331 -91 842 396 
Q 353 884 353 1716 
Q 353 2575 817 3079 
Q 1281 3584 2069 3584 
Q 2775 3584 3186 3129 
Q 3597 2675 3597 1894 
z
M 3022 2063 
Q 3016 2534 2758 2815 
Q 2500 3097 2075 3097 
Q 1594 3097 1305 2825 
Q 1016 2553 972 2059 
L 3022 2063 
z
" transform="scale(0.015625)"/>
       <path id="DejaVuSans-73" d="M 2834 3397 
L 2834 2853 
Q 2591 2978 2328 3040 
Q 2066 3103 1784 3103 
Q 1356 3103 1142 2972 
Q 928 2841 928 2578 
Q 928 2378 1081 2264 
Q 1234 2150 1697 2047 
L 1894 2003 
Q 2506 1872 2764 1633 
Q 3022 1394 3022 966 
Q 3022 478 2636 193 
Q 2250 -91 1575 -91 
Q 1294 -91 989 -36 
Q 684 19 347 128 
L 347 722 
Q 666 556 975 473 
Q 1284 391 1588 391 
Q 1994 391 2212 530 
Q 2431 669 2431 922 
Q 2431 1156 2273 1281 
Q 2116 1406 1581 1522 
L 1381 1569 
Q 847 1681 609 1914 
Q 372 2147 372 2553 
Q 372 3047 722 3315 
Q 1072 3584 1716 3584 
Q 2034 3584 2315 3537 
Q 2597 3491 2834 3397 
z
" transform="scale(0.015625)"/>
      </defs>
      <use xlink:href="#DejaVuSans-49"/>
      <use xlink:href="#DejaVuSans-6e" x="29.492188"/>
      <use xlink:href="#DejaVuSans-74" x="92.871094"/>
      <use xlink:href="#DejaVuSans-65" x="132.080078"/>
      <use xlink:href="#DejaVuSans-72" x="193.603516"/>
      <use xlink:href="#DejaVuSans-73" x="234.716797"/>
      <use xlink:href="#DejaVuSans-65" x="286.816406"/>
      <use xlink:href="#DejaVuSans-63" x="348.339844"/>
      <use xlink:href="#DejaVuSans-74" x="403.320312"/>
     </g>
    </g>
   </g>
   <g id="patch_108">
    <path d="M 49.326563 148.198437 
L 683.806562 148.198437 
" style="fill: none; stroke: #000000; stroke-width: 0.8; stroke-linejoin: miter; stroke-linecap: square"/>
   </g>
  </g>
 </g>
 <defs>
  <clipPath id="p4892b3ff86">
   <rect x="49.326563" y="68.065104" width="634.48" height="32.866667"/>
  </clipPath>
  <clipPath id="p07752a2776">
   <rect x="49.326563" y="20.798437" width="634.48" height="32.866667"/>
  </clipPath>
  <clipPath id="pe110d6aa96">
   <rect x="49.326563" y="115.331771" width="634.48" height="32.866667"/>
  </clipPath>
 </defs>
</svg>
