<?xml version="1.0" encoding="utf-8" standalone="no"?>
<!DOCTYPE svg PUBLIC "-//W3C//DTD SVG 1.1//EN"
  "http://www.w3.org/Graphics/SVG/1.1/DTD/svg11.dtd">
<svg xmlns:xlink="http://www.w3.org/1999/xlink" width="712.801875pt" height="154.076562pt" viewBox="0 0 712.801875 154.076562" xmlns="http://www.w3.org/2000/svg" version="1.1">
 <metadata>
  <rdf:RDF xmlns:dc="http://purl.org/dc/elements/1.1/" xmlns:cc="http://creativecommons.org/ns#" xmlns:rdf="http://www.w3.org/1999/02/22-rdf-syntax-ns#">
   <cc:Work>
    <dc:type rdf:resource="http://purl.org/dc/dcmitype/StillImage"/>
    <dc:date>2024-12-04T21:43:58.840734</dc:date>
    <dc:format>image/svg+xml</dc:format>
    <dc:creator>
     <cc:Agent>
      <dc:title>Matplotlib v3.8.4, https://matplotlib.org/</dc:title>
     </cc:Agent>
    </dc:creator>
   </cc:Work>
  </rdf:RDF>
 </metadata>
 <defs>
  <style type="text/css">*{stroke-linejoin: round; stroke-linecap: butt}</style>
 </defs>
 <g id="figure_1">
  <g id="patch_1">
   <path d="M -0 154.076562 
L 712.801875 154.076562 
L 712.801875 0 
L -0 0 
z
" style="fill: #ffffff"/>
  </g>
  <g id="axes_1">
   <g id="patch_2">
    <path d="M 59.326563 88.931771 
L 683.806562 88.931771 
L 683.806562 62.065104 
L 59.326563 62.065104 
z
" style="fill: #ffffff"/>
   </g>
   <g id="patch_3">
    <path d="M 138.865056 86.245104 
L 139.273037 86.245104 
L 139.273037 62.065104 
L 138.865056 62.065104 
z
" clip-path="url(#p5db26f062a)" style="fill: #d62728; opacity: 0.6"/>
   </g>
   <g id="patch_4">
    <path d="M 144.558311 86.245104 
L 145.009956 86.245104 
L 145.009956 62.065104 
L 144.558311 62.065104 
z
" clip-path="url(#p5db26f062a)" style="fill: #d62728; opacity: 0.6"/>
   </g>
   <g id="patch_5">
    <path d="M 206.79893 86.245104 
L 207.611952 86.245104 
L 207.611952 62.065104 
L 206.79893 62.065104 
z
" clip-path="url(#p5db26f062a)" style="fill: #d62728; opacity: 0.6"/>
   </g>
   <g id="patch_6">
    <path d="M 210.922232 86.245104 
L 212.534814 86.245104 
L 212.534814 62.065104 
L 210.922232 62.065104 
z
" clip-path="url(#p5db26f062a)" style="fill: #d62728; opacity: 0.6"/>
   </g>
   <g id="patch_7">
    <path d="M 260.919199 86.245104 
L 262.945055 86.245104 
L 262.945055 62.065104 
L 260.919199 62.065104 
z
" clip-path="url(#p5db26f062a)" style="fill: #d62728; opacity: 0.6"/>
   </g>
   <g id="patch_8">
    <path d="M 266.231583 86.245104 
L 268.768393 86.245104 
L 268.768393 62.065104 
L 266.231583 62.065104 
z
" clip-path="url(#p5db26f062a)" style="fill: #d62728; opacity: 0.6"/>
   </g>
   <g id="patch_9">
    <path d="M 278.777494 86.245104 
L 279.607299 86.245104 
L 279.607299 62.065104 
L 278.777494 62.065104 
z
" clip-path="url(#p5db26f062a)" style="fill: #d62728; opacity: 0.6"/>
   </g>
   <g id="patch_10">
    <path d="M 312.135208 86.245104 
L 312.936468 86.245104 
L 312.936468 62.065104 
L 312.135208 62.065104 
z
" clip-path="url(#p5db26f062a)" style="fill: #d62728; opacity: 0.6"/>
   </g>
   <g id="patch_11">
    <path d="M 347.935302 86.245104 
L 348.992509 86.245104 
L 348.992509 62.065104 
L 347.935302 62.065104 
z
" clip-path="url(#p5db26f062a)" style="fill: #d62728; opacity: 0.6"/>
   </g>
   <g id="patch_12">
    <path d="M 351.594397 86.245104 
L 353.041752 86.245104 
L 353.041752 62.065104 
L 351.594397 62.065104 
z
" clip-path="url(#p5db26f062a)" style="fill: #d62728; opacity: 0.6"/>
   </g>
   <g id="patch_13">
    <path d="M 361.987536 86.245104 
L 363.184833 86.245104 
L 363.184833 62.065104 
L 361.987536 62.065104 
z
" clip-path="url(#p5db26f062a)" style="fill: #d62728; opacity: 0.6"/>
   </g>
   <g id="patch_14">
    <path d="M 451.185321 86.245104 
L 451.545917 86.245104 
L 451.545917 62.065104 
L 451.185321 62.065104 
z
" clip-path="url(#p5db26f062a)" style="fill: #d62728; opacity: 0.6"/>
   </g>
   <g id="patch_15">
    <path d="M 499.743352 86.245104 
L 501.295993 86.245104 
L 501.295993 62.065104 
L 499.743352 62.065104 
z
" clip-path="url(#p5db26f062a)" style="fill: #d62728; opacity: 0.6"/>
   </g>
   <g id="patch_16">
    <path d="M 512.465038 86.245104 
L 513.660588 86.245104 
L 513.660588 62.065104 
L 512.465038 62.065104 
z
" clip-path="url(#p5db26f062a)" style="fill: #d62728; opacity: 0.6"/>
   </g>
   <g id="patch_17">
    <path d="M 564.476322 86.245104 
L 564.879084 86.245104 
L 564.879084 62.065104 
L 564.476322 62.065104 
z
" clip-path="url(#p5db26f062a)" style="fill: #d62728; opacity: 0.6"/>
   </g>
   <g id="patch_18">
    <path d="M 575.714309 86.245104 
L 577.364961 86.245104 
L 577.364961 62.065104 
L 575.714309 62.065104 
z
" clip-path="url(#p5db26f062a)" style="fill: #d62728; opacity: 0.6"/>
   </g>
   <g id="patch_19">
    <path d="M 582.086554 86.245104 
L 583.29972 86.245104 
L 583.29972 62.065104 
L 582.086554 62.065104 
z
" clip-path="url(#p5db26f062a)" style="fill: #d62728; opacity: 0.6"/>
   </g>
   <g id="patch_20">
    <path d="M 587.505917 86.245104 
L 588.724783 86.245104 
L 588.724783 62.065104 
L 587.505917 62.065104 
z
" clip-path="url(#p5db26f062a)" style="fill: #d62728; opacity: 0.6"/>
   </g>
   <g id="patch_21">
    <path d="M 673.289442 86.245104 
L 674.95363 86.245104 
L 674.95363 62.065104 
L 673.289442 62.065104 
z
" clip-path="url(#p5db26f062a)" style="fill: #d62728; opacity: 0.6"/>
   </g>
   <g id="matplotlib.axis_1">
    <g id="text_1">
     <!-- ECH90 -->
     <g transform="translate(12.553125 73.41875) scale(0.1 -0.1)">
      <defs>
       <path id="DejaVuSans-45" d="M 628 4666 
L 3578 4666 
L 3578 4134 
L 1259 4134 
L 1259 2753 
L 3481 2753 
L 3481 2222 
L 1259 2222 
L 1259 531 
L 3634 531 
L 3634 0 
L 628 0 
L 628 4666 
z
" transform="scale(0.015625)"/>
       <path id="DejaVuSans-43" d="M 4122 4306 
L 4122 3641 
Q 3803 3938 3442 4084 
Q 3081 4231 2675 4231 
Q 1875 4231 1450 3742 
Q 1025 3253 1025 2328 
Q 1025 1406 1450 917 
Q 1875 428 2675 428 
Q 3081 428 3442 575 
Q 3803 722 4122 1019 
L 4122 359 
Q 3791 134 3420 21 
Q 3050 -91 2638 -91 
Q 1578 -91 968 557 
Q 359 1206 359 2328 
Q 359 3453 968 4101 
Q 1578 4750 2638 4750 
Q 3056 4750 3426 4639 
Q 3797 4528 4122 4306 
z
" transform="scale(0.015625)"/>
       <path id="DejaVuSans-48" d="M 628 4666 
L 1259 4666 
L 1259 2753 
L 3553 2753 
L 3553 4666 
L 4184 4666 
L 4184 0 
L 3553 0 
L 3553 2222 
L 1259 2222 
L 1259 0 
L 628 0 
L 628 4666 
z
" transform="scale(0.015625)"/>
       <path id="DejaVuSans-39" d="M 703 97 
L 703 672 
Q 941 559 1184 500 
Q 1428 441 1663 441 
Q 2288 441 2617 861 
Q 2947 1281 2994 2138 
Q 2813 1869 2534 1725 
Q 2256 1581 1919 1581 
Q 1219 1581 811 2004 
Q 403 2428 403 3163 
Q 403 3881 828 4315 
Q 1253 4750 1959 4750 
Q 2769 4750 3195 4129 
Q 3622 3509 3622 2328 
Q 3622 1225 3098 567 
Q 2575 -91 1691 -91 
Q 1453 -91 1209 -44 
Q 966 3 703 97 
z
M 1959 2075 
Q 2384 2075 2632 2365 
Q 2881 2656 2881 3163 
Q 2881 3666 2632 3958 
Q 2384 4250 1959 4250 
Q 1534 4250 1286 3958 
Q 1038 3666 1038 3163 
Q 1038 2656 1286 2365 
Q 1534 2075 1959 2075 
z
" transform="scale(0.015625)"/>
       <path id="DejaVuSans-30" d="M 2034 4250 
Q 1547 4250 1301 3770 
Q 1056 3291 1056 2328 
Q 1056 1369 1301 889 
Q 1547 409 2034 409 
Q 2525 409 2770 889 
Q 3016 1369 3016 2328 
Q 3016 3291 2770 3770 
Q 2525 4250 2034 4250 
z
M 2034 4750 
Q 2819 4750 3233 4129 
Q 3647 3509 3647 2328 
Q 3647 1150 3233 529 
Q 2819 -91 2034 -91 
Q 1250 -91 836 529 
Q 422 1150 422 2328 
Q 422 3509 836 4129 
Q 1250 4750 2034 4750 
z
" transform="scale(0.015625)"/>
      </defs>
      <use xlink:href="#DejaVuSans-45"/>
      <use xlink:href="#DejaVuSans-43" x="63.183594"/>
      <use xlink:href="#DejaVuSans-48" x="133.007812"/>
      <use xlink:href="#DejaVuSans-39" x="208.203125"/>
      <use xlink:href="#DejaVuSans-30" x="271.826172"/>
     </g>
    </g>
   </g>
  </g>
  <g id="axes_2">
   <g id="patch_22">
    <path d="M 59.326563 47.665104 
L 683.806562 47.665104 
L 683.806562 20.798438 
L 59.326563 20.798438 
z
" style="fill: #ffffff"/>
   </g>
   <g id="patch_23">
    <path d="M 62.583538 44.978437 
L 63.397782 44.978437 
L 63.397782 20.798438 
L 62.583538 20.798438 
z
" clip-path="url(#p9ead6b4d77)" style="fill: #1f77b4; opacity: 0.6"/>
   </g>
   <g id="patch_24">
    <path d="M 69.504612 44.978437 
L 70.318856 44.978437 
L 70.318856 20.798438 
L 69.504612 20.798438 
z
" clip-path="url(#p9ead6b4d77)" style="fill: #1f77b4; opacity: 0.6"/>
   </g>
   <g id="patch_25">
    <path d="M 71.947343 44.978437 
L 72.761587 44.978437 
L 72.761587 20.798438 
L 71.947343 20.798438 
z
" clip-path="url(#p9ead6b4d77)" style="fill: #1f77b4; opacity: 0.6"/>
   </g>
   <g id="patch_26">
    <path d="M 73.168709 44.978437 
L 73.982953 44.978437 
L 73.982953 20.798438 
L 73.168709 20.798438 
z
" clip-path="url(#p9ead6b4d77)" style="fill: #1f77b4; opacity: 0.6"/>
   </g>
   <g id="patch_27">
    <path d="M 85.78949 44.978437 
L 86.603734 44.978437 
L 86.603734 20.798438 
L 85.78949 20.798438 
z
" clip-path="url(#p9ead6b4d77)" style="fill: #1f77b4; opacity: 0.6"/>
   </g>
   <g id="patch_28">
    <path d="M 86.196612 44.978437 
L 87.010856 44.978437 
L 87.010856 20.798438 
L 86.196612 20.798438 
z
" clip-path="url(#p9ead6b4d77)" style="fill: #1f77b4; opacity: 0.6"/>
   </g>
   <g id="patch_29">
    <path d="M 93.117686 44.978437 
L 93.931929 44.978437 
L 93.931929 20.798438 
L 93.117686 20.798438 
z
" clip-path="url(#p9ead6b4d77)" style="fill: #1f77b4; opacity: 0.6"/>
   </g>
   <g id="patch_30">
    <path d="M 93.524807 44.978437 
L 94.339051 44.978437 
L 94.339051 20.798438 
L 93.524807 20.798438 
z
" clip-path="url(#p9ead6b4d77)" style="fill: #1f77b4; opacity: 0.6"/>
   </g>
   <g id="patch_31">
    <path d="M 93.931929 44.978437 
L 94.746173 44.978437 
L 94.746173 20.798438 
L 93.931929 20.798438 
z
" clip-path="url(#p9ead6b4d77)" style="fill: #1f77b4; opacity: 0.6"/>
   </g>
   <g id="patch_32">
    <path d="M 99.224515 44.978437 
L 100.038759 44.978437 
L 100.038759 20.798438 
L 99.224515 20.798438 
z
" clip-path="url(#p9ead6b4d77)" style="fill: #1f77b4; opacity: 0.6"/>
   </g>
   <g id="patch_33">
    <path d="M 99.631637 44.978437 
L 100.445881 44.978437 
L 100.445881 20.798438 
L 99.631637 20.798438 
z
" clip-path="url(#p9ead6b4d77)" style="fill: #1f77b4; opacity: 0.6"/>
   </g>
   <g id="patch_34">
    <path d="M 100.853003 44.978437 
L 101.667247 44.978437 
L 101.667247 20.798438 
L 100.853003 20.798438 
z
" clip-path="url(#p9ead6b4d77)" style="fill: #1f77b4; opacity: 0.6"/>
   </g>
   <g id="patch_35">
    <path d="M 102.481491 44.978437 
L 103.295735 44.978437 
L 103.295735 20.798438 
L 102.481491 20.798438 
z
" clip-path="url(#p9ead6b4d77)" style="fill: #1f77b4; opacity: 0.6"/>
   </g>
   <g id="patch_36">
    <path d="M 106.145588 44.978437 
L 106.959832 44.978437 
L 106.959832 20.798438 
L 106.145588 20.798438 
z
" clip-path="url(#p9ead6b4d77)" style="fill: #1f77b4; opacity: 0.6"/>
   </g>
   <g id="patch_37">
    <path d="M 106.55271 44.978437 
L 107.366954 44.978437 
L 107.366954 20.798438 
L 106.55271 20.798438 
z
" clip-path="url(#p9ead6b4d77)" style="fill: #1f77b4; opacity: 0.6"/>
   </g>
   <g id="patch_38">
    <path d="M 114.69515 44.978437 
L 115.509394 44.978437 
L 115.509394 20.798438 
L 114.69515 20.798438 
z
" clip-path="url(#p9ead6b4d77)" style="fill: #1f77b4; opacity: 0.6"/>
   </g>
   <g id="patch_39">
    <path d="M 117.952125 44.978437 
L 118.766369 44.978437 
L 118.766369 20.798438 
L 117.952125 20.798438 
z
" clip-path="url(#p9ead6b4d77)" style="fill: #1f77b4; opacity: 0.6"/>
   </g>
   <g id="patch_40">
    <path d="M 118.359247 44.978437 
L 119.173491 44.978437 
L 119.173491 20.798438 
L 118.359247 20.798438 
z
" clip-path="url(#p9ead6b4d77)" style="fill: #1f77b4; opacity: 0.6"/>
   </g>
   <g id="patch_41">
    <path d="M 119.987735 44.978437 
L 120.801979 44.978437 
L 120.801979 20.798438 
L 119.987735 20.798438 
z
" clip-path="url(#p9ead6b4d77)" style="fill: #1f77b4; opacity: 0.6"/>
   </g>
   <g id="patch_42">
    <path d="M 120.394857 44.978437 
L 121.209101 44.978437 
L 121.209101 20.798438 
L 120.394857 20.798438 
z
" clip-path="url(#p9ead6b4d77)" style="fill: #1f77b4; opacity: 0.6"/>
   </g>
   <g id="patch_43">
    <path d="M 121.209101 44.978437 
L 122.023345 44.978437 
L 122.023345 20.798438 
L 121.209101 20.798438 
z
" clip-path="url(#p9ead6b4d77)" style="fill: #1f77b4; opacity: 0.6"/>
   </g>
   <g id="patch_44">
    <path d="M 122.430467 44.978437 
L 123.244711 44.978437 
L 123.244711 20.798438 
L 122.430467 20.798438 
z
" clip-path="url(#p9ead6b4d77)" style="fill: #1f77b4; opacity: 0.6"/>
   </g>
   <g id="patch_45">
    <path d="M 125.280321 44.978437 
L 126.094565 44.978437 
L 126.094565 20.798438 
L 125.280321 20.798438 
z
" clip-path="url(#p9ead6b4d77)" style="fill: #1f77b4; opacity: 0.6"/>
   </g>
   <g id="patch_46">
    <path d="M 127.723052 44.978437 
L 128.537296 44.978437 
L 128.537296 20.798438 
L 127.723052 20.798438 
z
" clip-path="url(#p9ead6b4d77)" style="fill: #1f77b4; opacity: 0.6"/>
   </g>
   <g id="patch_47">
    <path d="M 128.130174 44.978437 
L 128.944418 44.978437 
L 128.944418 20.798438 
L 128.130174 20.798438 
z
" clip-path="url(#p9ead6b4d77)" style="fill: #1f77b4; opacity: 0.6"/>
   </g>
   <g id="patch_48">
    <path d="M 130.980028 44.978437 
L 131.794272 44.978437 
L 131.794272 20.798438 
L 130.980028 20.798438 
z
" clip-path="url(#p9ead6b4d77)" style="fill: #1f77b4; opacity: 0.6"/>
   </g>
   <g id="patch_49">
    <path d="M 131.794272 44.978437 
L 132.608516 44.978437 
L 132.608516 20.798438 
L 131.794272 20.798438 
z
" clip-path="url(#p9ead6b4d77)" style="fill: #1f77b4; opacity: 0.6"/>
   </g>
   <g id="patch_50">
    <path d="M 135.45837 44.978437 
L 136.272614 44.978437 
L 136.272614 20.798438 
L 135.45837 20.798438 
z
" clip-path="url(#p9ead6b4d77)" style="fill: #1f77b4; opacity: 0.6"/>
   </g>
   <g id="patch_51">
    <path d="M 136.679736 44.978437 
L 137.49398 44.978437 
L 137.49398 20.798438 
L 136.679736 20.798438 
z
" clip-path="url(#p9ead6b4d77)" style="fill: #1f77b4; opacity: 0.6"/>
   </g>
   <g id="patch_52">
    <path d="M 137.086858 44.978437 
L 137.901102 44.978437 
L 137.901102 20.798438 
L 137.086858 20.798438 
z
" clip-path="url(#p9ead6b4d77)" style="fill: #1f77b4; opacity: 0.6"/>
   </g>
   <g id="patch_53">
    <path d="M 137.49398 44.978437 
L 138.308224 44.978437 
L 138.308224 20.798438 
L 137.49398 20.798438 
z
" clip-path="url(#p9ead6b4d77)" style="fill: #1f77b4; opacity: 0.6"/>
   </g>
   <g id="patch_54">
    <path d="M 140.750955 44.978437 
L 141.565199 44.978437 
L 141.565199 20.798438 
L 140.750955 20.798438 
z
" clip-path="url(#p9ead6b4d77)" style="fill: #1f77b4; opacity: 0.6"/>
   </g>
   <g id="patch_55">
    <path d="M 146.857785 44.978437 
L 147.672029 44.978437 
L 147.672029 20.798438 
L 146.857785 20.798438 
z
" clip-path="url(#p9ead6b4d77)" style="fill: #1f77b4; opacity: 0.6"/>
   </g>
   <g id="patch_56">
    <path d="M 147.672029 44.978437 
L 148.486273 44.978437 
L 148.486273 20.798438 
L 147.672029 20.798438 
z
" clip-path="url(#p9ead6b4d77)" style="fill: #1f77b4; opacity: 0.6"/>
   </g>
   <g id="patch_57">
    <path d="M 154.18598 44.978437 
L 155.000224 44.978437 
L 155.000224 20.798438 
L 154.18598 20.798438 
z
" clip-path="url(#p9ead6b4d77)" style="fill: #1f77b4; opacity: 0.6"/>
   </g>
   <g id="patch_58">
    <path d="M 160.29281 44.978437 
L 161.107054 44.978437 
L 161.107054 20.798438 
L 160.29281 20.798438 
z
" clip-path="url(#p9ead6b4d77)" style="fill: #1f77b4; opacity: 0.6"/>
   </g>
   <g id="patch_59">
    <path d="M 209.961689 44.978437 
L 210.775933 44.978437 
L 210.775933 20.798438 
L 209.961689 20.798438 
z
" clip-path="url(#p9ead6b4d77)" style="fill: #1f77b4; opacity: 0.6"/>
   </g>
   <g id="patch_60">
    <path d="M 210.368811 44.978437 
L 211.183055 44.978437 
L 211.183055 20.798438 
L 210.368811 20.798438 
z
" clip-path="url(#p9ead6b4d77)" style="fill: #1f77b4; opacity: 0.6"/>
   </g>
   <g id="patch_61">
    <path d="M 211.183055 44.978437 
L 211.997299 44.978437 
L 211.997299 20.798438 
L 211.183055 20.798438 
z
" clip-path="url(#p9ead6b4d77)" style="fill: #1f77b4; opacity: 0.6"/>
   </g>
   <g id="patch_62">
    <path d="M 229.503543 44.978437 
L 230.317787 44.978437 
L 230.317787 20.798438 
L 229.503543 20.798438 
z
" clip-path="url(#p9ead6b4d77)" style="fill: #1f77b4; opacity: 0.6"/>
   </g>
   <g id="patch_63">
    <path d="M 235.610373 44.978437 
L 236.424617 44.978437 
L 236.424617 20.798438 
L 235.610373 20.798438 
z
" clip-path="url(#p9ead6b4d77)" style="fill: #1f77b4; opacity: 0.6"/>
   </g>
   <g id="patch_64">
    <path d="M 242.531446 44.978437 
L 243.34569 44.978437 
L 243.34569 20.798438 
L 242.531446 20.798438 
z
" clip-path="url(#p9ead6b4d77)" style="fill: #1f77b4; opacity: 0.6"/>
   </g>
   <g id="patch_65">
    <path d="M 247.824032 44.978437 
L 248.638276 44.978437 
L 248.638276 20.798438 
L 247.824032 20.798438 
z
" clip-path="url(#p9ead6b4d77)" style="fill: #1f77b4; opacity: 0.6"/>
   </g>
   <g id="patch_66">
    <path d="M 263.294666 44.978437 
L 264.10891 44.978437 
L 264.10891 20.798438 
L 263.294666 20.798438 
z
" clip-path="url(#p9ead6b4d77)" style="fill: #1f77b4; opacity: 0.6"/>
   </g>
   <g id="patch_67">
    <path d="M 264.10891 44.978437 
L 264.923154 44.978437 
L 264.923154 20.798438 
L 264.10891 20.798438 
z
" clip-path="url(#p9ead6b4d77)" style="fill: #1f77b4; opacity: 0.6"/>
   </g>
   <g id="patch_68">
    <path d="M 265.330276 44.978437 
L 266.14452 44.978437 
L 266.14452 20.798438 
L 265.330276 20.798438 
z
" clip-path="url(#p9ead6b4d77)" style="fill: #1f77b4; opacity: 0.6"/>
   </g>
   <g id="patch_69">
    <path d="M 267.365886 44.978437 
L 268.18013 44.978437 
L 268.18013 20.798438 
L 267.365886 20.798438 
z
" clip-path="url(#p9ead6b4d77)" style="fill: #1f77b4; opacity: 0.6"/>
   </g>
   <g id="patch_70">
    <path d="M 270.622862 44.978437 
L 271.437106 44.978437 
L 271.437106 20.798438 
L 270.622862 20.798438 
z
" clip-path="url(#p9ead6b4d77)" style="fill: #1f77b4; opacity: 0.6"/>
   </g>
   <g id="patch_71">
    <path d="M 273.065594 44.978437 
L 273.879838 44.978437 
L 273.879838 20.798438 
L 273.065594 20.798438 
z
" clip-path="url(#p9ead6b4d77)" style="fill: #1f77b4; opacity: 0.6"/>
   </g>
   <g id="patch_72">
    <path d="M 284.465009 44.978437 
L 285.279253 44.978437 
L 285.279253 20.798438 
L 284.465009 20.798438 
z
" clip-path="url(#p9ead6b4d77)" style="fill: #1f77b4; opacity: 0.6"/>
   </g>
   <g id="patch_73">
    <path d="M 285.279253 44.978437 
L 286.093496 44.978437 
L 286.093496 20.798438 
L 285.279253 20.798438 
z
" clip-path="url(#p9ead6b4d77)" style="fill: #1f77b4; opacity: 0.6"/>
   </g>
   <g id="patch_74">
    <path d="M 285.686375 44.978437 
L 286.500618 44.978437 
L 286.500618 20.798438 
L 285.686375 20.798438 
z
" clip-path="url(#p9ead6b4d77)" style="fill: #1f77b4; opacity: 0.6"/>
   </g>
   <g id="patch_75">
    <path d="M 287.314862 44.978437 
L 288.129106 44.978437 
L 288.129106 20.798438 
L 287.314862 20.798438 
z
" clip-path="url(#p9ead6b4d77)" style="fill: #1f77b4; opacity: 0.6"/>
   </g>
   <g id="patch_76">
    <path d="M 287.721984 44.978437 
L 288.536228 44.978437 
L 288.536228 20.798438 
L 287.721984 20.798438 
z
" clip-path="url(#p9ead6b4d77)" style="fill: #1f77b4; opacity: 0.6"/>
   </g>
   <g id="patch_77">
    <path d="M 288.536228 44.978437 
L 289.350472 44.978437 
L 289.350472 20.798438 
L 288.536228 20.798438 
z
" clip-path="url(#p9ead6b4d77)" style="fill: #1f77b4; opacity: 0.6"/>
   </g>
   <g id="patch_78">
    <path d="M 290.164716 44.978437 
L 290.97896 44.978437 
L 290.97896 20.798438 
L 290.164716 20.798438 
z
" clip-path="url(#p9ead6b4d77)" style="fill: #1f77b4; opacity: 0.6"/>
   </g>
   <g id="patch_79">
    <path d="M 290.571838 44.978437 
L 291.386082 44.978437 
L 291.386082 20.798438 
L 290.571838 20.798438 
z
" clip-path="url(#p9ead6b4d77)" style="fill: #1f77b4; opacity: 0.6"/>
   </g>
   <g id="patch_80">
    <path d="M 291.386082 44.978437 
L 292.200326 44.978437 
L 292.200326 20.798438 
L 291.386082 20.798438 
z
" clip-path="url(#p9ead6b4d77)" style="fill: #1f77b4; opacity: 0.6"/>
   </g>
   <g id="patch_81">
    <path d="M 292.200326 44.978437 
L 293.01457 44.978437 
L 293.01457 20.798438 
L 292.200326 20.798438 
z
" clip-path="url(#p9ead6b4d77)" style="fill: #1f77b4; opacity: 0.6"/>
   </g>
   <g id="patch_82">
    <path d="M 294.235936 44.978437 
L 295.05018 44.978437 
L 295.05018 20.798438 
L 294.235936 20.798438 
z
" clip-path="url(#p9ead6b4d77)" style="fill: #1f77b4; opacity: 0.6"/>
   </g>
   <g id="patch_83">
    <path d="M 305.228229 44.978437 
L 306.042473 44.978437 
L 306.042473 20.798438 
L 305.228229 20.798438 
z
" clip-path="url(#p9ead6b4d77)" style="fill: #1f77b4; opacity: 0.6"/>
   </g>
   <g id="patch_84">
    <path d="M 306.042473 44.978437 
L 306.856717 44.978437 
L 306.856717 20.798438 
L 306.042473 20.798438 
z
" clip-path="url(#p9ead6b4d77)" style="fill: #1f77b4; opacity: 0.6"/>
   </g>
   <g id="patch_85">
    <path d="M 311.74218 44.978437 
L 312.556424 44.978437 
L 312.556424 20.798438 
L 311.74218 20.798438 
z
" clip-path="url(#p9ead6b4d77)" style="fill: #1f77b4; opacity: 0.6"/>
   </g>
   <g id="patch_86">
    <path d="M 312.963546 44.978437 
L 313.77779 44.978437 
L 313.77779 20.798438 
L 312.963546 20.798438 
z
" clip-path="url(#p9ead6b4d77)" style="fill: #1f77b4; opacity: 0.6"/>
   </g>
   <g id="patch_87">
    <path d="M 313.370668 44.978437 
L 314.184912 44.978437 
L 314.184912 20.798438 
L 313.370668 20.798438 
z
" clip-path="url(#p9ead6b4d77)" style="fill: #1f77b4; opacity: 0.6"/>
   </g>
   <g id="patch_88">
    <path d="M 313.77779 44.978437 
L 314.592034 44.978437 
L 314.592034 20.798438 
L 313.77779 20.798438 
z
" clip-path="url(#p9ead6b4d77)" style="fill: #1f77b4; opacity: 0.6"/>
   </g>
   <g id="patch_89">
    <path d="M 324.362961 44.978437 
L 325.177205 44.978437 
L 325.177205 20.798438 
L 324.362961 20.798438 
z
" clip-path="url(#p9ead6b4d77)" style="fill: #1f77b4; opacity: 0.6"/>
   </g>
   <g id="patch_90">
    <path d="M 329.248425 44.978437 
L 330.062669 44.978437 
L 330.062669 20.798438 
L 329.248425 20.798438 
z
" clip-path="url(#p9ead6b4d77)" style="fill: #1f77b4; opacity: 0.6"/>
   </g>
   <g id="patch_91">
    <path d="M 331.691156 44.978437 
L 332.5054 44.978437 
L 332.5054 20.798438 
L 331.691156 20.798438 
z
" clip-path="url(#p9ead6b4d77)" style="fill: #1f77b4; opacity: 0.6"/>
   </g>
   <g id="patch_92">
    <path d="M 334.133888 44.978437 
L 334.948132 44.978437 
L 334.948132 20.798438 
L 334.133888 20.798438 
z
" clip-path="url(#p9ead6b4d77)" style="fill: #1f77b4; opacity: 0.6"/>
   </g>
   <g id="patch_93">
    <path d="M 334.54101 44.978437 
L 335.355254 44.978437 
L 335.355254 20.798438 
L 334.54101 20.798438 
z
" clip-path="url(#p9ead6b4d77)" style="fill: #1f77b4; opacity: 0.6"/>
   </g>
   <g id="patch_94">
    <path d="M 339.019352 44.978437 
L 339.833596 44.978437 
L 339.833596 20.798438 
L 339.019352 20.798438 
z
" clip-path="url(#p9ead6b4d77)" style="fill: #1f77b4; opacity: 0.6"/>
   </g>
   <g id="patch_95">
    <path d="M 339.833596 44.978437 
L 340.64784 44.978437 
L 340.64784 20.798438 
L 339.833596 20.798438 
z
" clip-path="url(#p9ead6b4d77)" style="fill: #1f77b4; opacity: 0.6"/>
   </g>
   <g id="patch_96">
    <path d="M 341.869206 44.978437 
L 342.683449 44.978437 
L 342.683449 20.798438 
L 341.869206 20.798438 
z
" clip-path="url(#p9ead6b4d77)" style="fill: #1f77b4; opacity: 0.6"/>
   </g>
   <g id="patch_97">
    <path d="M 342.276328 44.978437 
L 343.090571 44.978437 
L 343.090571 20.798438 
L 342.276328 20.798438 
z
" clip-path="url(#p9ead6b4d77)" style="fill: #1f77b4; opacity: 0.6"/>
   </g>
   <g id="patch_98">
    <path d="M 343.090571 44.978437 
L 343.904815 44.978437 
L 343.904815 20.798438 
L 343.090571 20.798438 
z
" clip-path="url(#p9ead6b4d77)" style="fill: #1f77b4; opacity: 0.6"/>
   </g>
   <g id="patch_99">
    <path d="M 347.976035 44.978437 
L 348.790279 44.978437 
L 348.790279 20.798438 
L 347.976035 20.798438 
z
" clip-path="url(#p9ead6b4d77)" style="fill: #1f77b4; opacity: 0.6"/>
   </g>
   <g id="patch_100">
    <path d="M 348.383157 44.978437 
L 349.197401 44.978437 
L 349.197401 20.798438 
L 348.383157 20.798438 
z
" clip-path="url(#p9ead6b4d77)" style="fill: #1f77b4; opacity: 0.6"/>
   </g>
   <g id="patch_101">
    <path d="M 349.197401 44.978437 
L 350.011645 44.978437 
L 350.011645 20.798438 
L 349.197401 20.798438 
z
" clip-path="url(#p9ead6b4d77)" style="fill: #1f77b4; opacity: 0.6"/>
   </g>
   <g id="patch_102">
    <path d="M 351.233011 44.978437 
L 352.047255 44.978437 
L 352.047255 20.798438 
L 351.233011 20.798438 
z
" clip-path="url(#p9ead6b4d77)" style="fill: #1f77b4; opacity: 0.6"/>
   </g>
   <g id="patch_103">
    <path d="M 355.711352 44.978437 
L 356.525596 44.978437 
L 356.525596 20.798438 
L 355.711352 20.798438 
z
" clip-path="url(#p9ead6b4d77)" style="fill: #1f77b4; opacity: 0.6"/>
   </g>
   <g id="patch_104">
    <path d="M 356.932718 44.978437 
L 357.746962 44.978437 
L 357.746962 20.798438 
L 356.932718 20.798438 
z
" clip-path="url(#p9ead6b4d77)" style="fill: #1f77b4; opacity: 0.6"/>
   </g>
   <g id="patch_105">
    <path d="M 361.003938 44.978437 
L 361.818182 44.978437 
L 361.818182 20.798438 
L 361.003938 20.798438 
z
" clip-path="url(#p9ead6b4d77)" style="fill: #1f77b4; opacity: 0.6"/>
   </g>
   <g id="patch_106">
    <path d="M 363.853792 44.978437 
L 364.668036 44.978437 
L 364.668036 20.798438 
L 363.853792 20.798438 
z
" clip-path="url(#p9ead6b4d77)" style="fill: #1f77b4; opacity: 0.6"/>
   </g>
   <g id="patch_107">
    <path d="M 365.075157 44.978437 
L 365.889401 44.978437 
L 365.889401 20.798438 
L 365.075157 20.798438 
z
" clip-path="url(#p9ead6b4d77)" style="fill: #1f77b4; opacity: 0.6"/>
   </g>
   <g id="patch_108">
    <path d="M 365.482279 44.978437 
L 366.296523 44.978437 
L 366.296523 20.798438 
L 365.482279 20.798438 
z
" clip-path="url(#p9ead6b4d77)" style="fill: #1f77b4; opacity: 0.6"/>
   </g>
   <g id="patch_109">
    <path d="M 374.031841 44.978437 
L 374.846085 44.978437 
L 374.846085 20.798438 
L 374.031841 20.798438 
z
" clip-path="url(#p9ead6b4d77)" style="fill: #1f77b4; opacity: 0.6"/>
   </g>
   <g id="patch_110">
    <path d="M 374.846085 44.978437 
L 375.660329 44.978437 
L 375.660329 20.798438 
L 374.846085 20.798438 
z
" clip-path="url(#p9ead6b4d77)" style="fill: #1f77b4; opacity: 0.6"/>
   </g>
   <g id="patch_111">
    <path d="M 396.016427 44.978437 
L 396.830671 44.978437 
L 396.830671 20.798438 
L 396.016427 20.798438 
z
" clip-path="url(#p9ead6b4d77)" style="fill: #1f77b4; opacity: 0.6"/>
   </g>
   <g id="patch_112">
    <path d="M 396.423549 44.978437 
L 397.237793 44.978437 
L 397.237793 20.798438 
L 396.423549 20.798438 
z
" clip-path="url(#p9ead6b4d77)" style="fill: #1f77b4; opacity: 0.6"/>
   </g>
   <g id="patch_113">
    <path d="M 432.250282 44.978437 
L 433.064525 44.978437 
L 433.064525 20.798438 
L 432.250282 20.798438 
z
" clip-path="url(#p9ead6b4d77)" style="fill: #1f77b4; opacity: 0.6"/>
   </g>
   <g id="patch_114">
    <path d="M 432.657404 44.978437 
L 433.471647 44.978437 
L 433.471647 20.798438 
L 432.657404 20.798438 
z
" clip-path="url(#p9ead6b4d77)" style="fill: #1f77b4; opacity: 0.6"/>
   </g>
   <g id="patch_115">
    <path d="M 439.578477 44.978437 
L 440.392721 44.978437 
L 440.392721 20.798438 
L 439.578477 20.798438 
z
" clip-path="url(#p9ead6b4d77)" style="fill: #1f77b4; opacity: 0.6"/>
   </g>
   <g id="patch_116">
    <path d="M 443.242575 44.978437 
L 444.056819 44.978437 
L 444.056819 20.798438 
L 443.242575 20.798438 
z
" clip-path="url(#p9ead6b4d77)" style="fill: #1f77b4; opacity: 0.6"/>
   </g>
   <g id="patch_117">
    <path d="M 455.456234 44.978437 
L 456.270477 44.978437 
L 456.270477 20.798438 
L 455.456234 20.798438 
z
" clip-path="url(#p9ead6b4d77)" style="fill: #1f77b4; opacity: 0.6"/>
   </g>
   <g id="patch_118">
    <path d="M 456.270477 44.978437 
L 457.084721 44.978437 
L 457.084721 20.798438 
L 456.270477 20.798438 
z
" clip-path="url(#p9ead6b4d77)" style="fill: #1f77b4; opacity: 0.6"/>
   </g>
   <g id="patch_119">
    <path d="M 457.084721 44.978437 
L 457.898965 44.978437 
L 457.898965 20.798438 
L 457.084721 20.798438 
z
" clip-path="url(#p9ead6b4d77)" style="fill: #1f77b4; opacity: 0.6"/>
   </g>
   <g id="patch_120">
    <path d="M 457.491843 44.978437 
L 458.306087 44.978437 
L 458.306087 20.798438 
L 457.491843 20.798438 
z
" clip-path="url(#p9ead6b4d77)" style="fill: #1f77b4; opacity: 0.6"/>
   </g>
   <g id="patch_121">
    <path d="M 458.306087 44.978437 
L 459.120331 44.978437 
L 459.120331 20.798438 
L 458.306087 20.798438 
z
" clip-path="url(#p9ead6b4d77)" style="fill: #1f77b4; opacity: 0.6"/>
   </g>
   <g id="patch_122">
    <path d="M 460.341697 44.978437 
L 461.155941 44.978437 
L 461.155941 20.798438 
L 460.341697 20.798438 
z
" clip-path="url(#p9ead6b4d77)" style="fill: #1f77b4; opacity: 0.6"/>
   </g>
   <g id="patch_123">
    <path d="M 462.784429 44.978437 
L 463.598673 44.978437 
L 463.598673 20.798438 
L 462.784429 20.798438 
z
" clip-path="url(#p9ead6b4d77)" style="fill: #1f77b4; opacity: 0.6"/>
   </g>
   <g id="patch_124">
    <path d="M 463.598673 44.978437 
L 464.412917 44.978437 
L 464.412917 20.798438 
L 463.598673 20.798438 
z
" clip-path="url(#p9ead6b4d77)" style="fill: #1f77b4; opacity: 0.6"/>
   </g>
   <g id="patch_125">
    <path d="M 465.227161 44.978437 
L 466.041405 44.978437 
L 466.041405 20.798438 
L 465.227161 20.798438 
z
" clip-path="url(#p9ead6b4d77)" style="fill: #1f77b4; opacity: 0.6"/>
   </g>
   <g id="patch_126">
    <path d="M 468.077014 44.978437 
L 468.891258 44.978437 
L 468.891258 20.798438 
L 468.077014 20.798438 
z
" clip-path="url(#p9ead6b4d77)" style="fill: #1f77b4; opacity: 0.6"/>
   </g>
   <g id="patch_127">
    <path d="M 468.891258 44.978437 
L 469.705502 44.978437 
L 469.705502 20.798438 
L 468.891258 20.798438 
z
" clip-path="url(#p9ead6b4d77)" style="fill: #1f77b4; opacity: 0.6"/>
   </g>
   <g id="patch_128">
    <path d="M 469.705502 44.978437 
L 470.519746 44.978437 
L 470.519746 20.798438 
L 469.705502 20.798438 
z
" clip-path="url(#p9ead6b4d77)" style="fill: #1f77b4; opacity: 0.6"/>
   </g>
   <g id="patch_129">
    <path d="M 480.697795 44.978437 
L 481.512039 44.978437 
L 481.512039 20.798438 
L 480.697795 20.798438 
z
" clip-path="url(#p9ead6b4d77)" style="fill: #1f77b4; opacity: 0.6"/>
   </g>
   <g id="patch_130">
    <path d="M 488.025991 44.978437 
L 488.840235 44.978437 
L 488.840235 20.798438 
L 488.025991 20.798438 
z
" clip-path="url(#p9ead6b4d77)" style="fill: #1f77b4; opacity: 0.6"/>
   </g>
   <g id="patch_131">
    <path d="M 491.282966 44.978437 
L 492.09721 44.978437 
L 492.09721 20.798438 
L 491.282966 20.798438 
z
" clip-path="url(#p9ead6b4d77)" style="fill: #1f77b4; opacity: 0.6"/>
   </g>
   <g id="patch_132">
    <path d="M 495.761308 44.978437 
L 496.575552 44.978437 
L 496.575552 20.798438 
L 495.761308 20.798438 
z
" clip-path="url(#p9ead6b4d77)" style="fill: #1f77b4; opacity: 0.6"/>
   </g>
   <g id="patch_133">
    <path d="M 496.575552 44.978437 
L 497.389796 44.978437 
L 497.389796 20.798438 
L 496.575552 20.798438 
z
" clip-path="url(#p9ead6b4d77)" style="fill: #1f77b4; opacity: 0.6"/>
   </g>
   <g id="patch_134">
    <path d="M 498.611162 44.978437 
L 499.425406 44.978437 
L 499.425406 20.798438 
L 498.611162 20.798438 
z
" clip-path="url(#p9ead6b4d77)" style="fill: #1f77b4; opacity: 0.6"/>
   </g>
   <g id="patch_135">
    <path d="M 499.832528 44.978437 
L 500.646772 44.978437 
L 500.646772 20.798438 
L 499.832528 20.798438 
z
" clip-path="url(#p9ead6b4d77)" style="fill: #1f77b4; opacity: 0.6"/>
   </g>
   <g id="patch_136">
    <path d="M 500.23965 44.978437 
L 501.053893 44.978437 
L 501.053893 20.798438 
L 500.23965 20.798438 
z
" clip-path="url(#p9ead6b4d77)" style="fill: #1f77b4; opacity: 0.6"/>
   </g>
   <g id="patch_137">
    <path d="M 504.310869 44.978437 
L 505.125113 44.978437 
L 505.125113 20.798438 
L 504.310869 20.798438 
z
" clip-path="url(#p9ead6b4d77)" style="fill: #1f77b4; opacity: 0.6"/>
   </g>
   <g id="patch_138">
    <path d="M 505.125113 44.978437 
L 505.939357 44.978437 
L 505.939357 20.798438 
L 505.125113 20.798438 
z
" clip-path="url(#p9ead6b4d77)" style="fill: #1f77b4; opacity: 0.6"/>
   </g>
   <g id="patch_139">
    <path d="M 514.89604 44.978437 
L 515.710284 44.978437 
L 515.710284 20.798438 
L 514.89604 20.798438 
z
" clip-path="url(#p9ead6b4d77)" style="fill: #1f77b4; opacity: 0.6"/>
   </g>
   <g id="patch_140">
    <path d="M 515.710284 44.978437 
L 516.524528 44.978437 
L 516.524528 20.798438 
L 515.710284 20.798438 
z
" clip-path="url(#p9ead6b4d77)" style="fill: #1f77b4; opacity: 0.6"/>
   </g>
   <g id="patch_141">
    <path d="M 525.074089 44.978437 
L 525.888333 44.978437 
L 525.888333 20.798438 
L 525.074089 20.798438 
z
" clip-path="url(#p9ead6b4d77)" style="fill: #1f77b4; opacity: 0.6"/>
   </g>
   <g id="patch_142">
    <path d="M 533.216529 44.978437 
L 534.030773 44.978437 
L 534.030773 20.798438 
L 533.216529 20.798438 
z
" clip-path="url(#p9ead6b4d77)" style="fill: #1f77b4; opacity: 0.6"/>
   </g>
   <g id="patch_143">
    <path d="M 533.623651 44.978437 
L 534.437895 44.978437 
L 534.437895 20.798438 
L 533.623651 20.798438 
z
" clip-path="url(#p9ead6b4d77)" style="fill: #1f77b4; opacity: 0.6"/>
   </g>
   <g id="patch_144">
    <path d="M 534.845016 44.978437 
L 535.65926 44.978437 
L 535.65926 20.798438 
L 534.845016 20.798438 
z
" clip-path="url(#p9ead6b4d77)" style="fill: #1f77b4; opacity: 0.6"/>
   </g>
   <g id="patch_145">
    <path d="M 546.651553 44.978437 
L 547.465797 44.978437 
L 547.465797 20.798438 
L 546.651553 20.798438 
z
" clip-path="url(#p9ead6b4d77)" style="fill: #1f77b4; opacity: 0.6"/>
   </g>
   <g id="patch_146">
    <path d="M 549.094285 44.978437 
L 549.908529 44.978437 
L 549.908529 20.798438 
L 549.094285 20.798438 
z
" clip-path="url(#p9ead6b4d77)" style="fill: #1f77b4; opacity: 0.6"/>
   </g>
   <g id="patch_147">
    <path d="M 570.671749 44.978437 
L 571.485993 44.978437 
L 571.485993 20.798438 
L 570.671749 20.798438 
z
" clip-path="url(#p9ead6b4d77)" style="fill: #1f77b4; opacity: 0.6"/>
   </g>
   <g id="patch_148">
    <path d="M 574.742969 44.978437 
L 575.557213 44.978437 
L 575.557213 20.798438 
L 574.742969 20.798438 
z
" clip-path="url(#p9ead6b4d77)" style="fill: #1f77b4; opacity: 0.6"/>
   </g>
   <g id="patch_149">
    <path d="M 581.664042 44.978437 
L 582.478286 44.978437 
L 582.478286 20.798438 
L 581.664042 20.798438 
z
" clip-path="url(#p9ead6b4d77)" style="fill: #1f77b4; opacity: 0.6"/>
   </g>
   <g id="patch_150">
    <path d="M 582.071164 44.978437 
L 582.885408 44.978437 
L 582.885408 20.798438 
L 582.071164 20.798438 
z
" clip-path="url(#p9ead6b4d77)" style="fill: #1f77b4; opacity: 0.6"/>
   </g>
   <g id="patch_151">
    <path d="M 586.142384 44.978437 
L 586.956628 44.978437 
L 586.956628 20.798438 
L 586.142384 20.798438 
z
" clip-path="url(#p9ead6b4d77)" style="fill: #1f77b4; opacity: 0.6"/>
   </g>
   <g id="patch_152">
    <path d="M 586.956628 44.978437 
L 587.770872 44.978437 
L 587.770872 20.798438 
L 586.956628 20.798438 
z
" clip-path="url(#p9ead6b4d77)" style="fill: #1f77b4; opacity: 0.6"/>
   </g>
   <g id="patch_153">
    <path d="M 590.620726 44.978437 
L 591.434969 44.978437 
L 591.434969 20.798438 
L 590.620726 20.798438 
z
" clip-path="url(#p9ead6b4d77)" style="fill: #1f77b4; opacity: 0.6"/>
   </g>
   <g id="patch_154">
    <path d="M 601.205897 44.978437 
L 602.020141 44.978437 
L 602.020141 20.798438 
L 601.205897 20.798438 
z
" clip-path="url(#p9ead6b4d77)" style="fill: #1f77b4; opacity: 0.6"/>
   </g>
   <g id="patch_155">
    <path d="M 612.19819 44.978437 
L 613.012434 44.978437 
L 613.012434 20.798438 
L 612.19819 20.798438 
z
" clip-path="url(#p9ead6b4d77)" style="fill: #1f77b4; opacity: 0.6"/>
   </g>
   <g id="patch_156">
    <path d="M 613.419556 44.978437 
L 614.233799 44.978437 
L 614.233799 20.798438 
L 613.419556 20.798438 
z
" clip-path="url(#p9ead6b4d77)" style="fill: #1f77b4; opacity: 0.6"/>
   </g>
   <g id="patch_157">
    <path d="M 644.767947 44.978437 
L 645.582191 44.978437 
L 645.582191 20.798438 
L 644.767947 20.798438 
z
" clip-path="url(#p9ead6b4d77)" style="fill: #1f77b4; opacity: 0.6"/>
   </g>
   <g id="patch_158">
    <path d="M 645.175069 44.978437 
L 645.989313 44.978437 
L 645.989313 20.798438 
L 645.175069 20.798438 
z
" clip-path="url(#p9ead6b4d77)" style="fill: #1f77b4; opacity: 0.6"/>
   </g>
   <g id="patch_159">
    <path d="M 650.874776 44.978437 
L 651.68902 44.978437 
L 651.68902 20.798438 
L 650.874776 20.798438 
z
" clip-path="url(#p9ead6b4d77)" style="fill: #1f77b4; opacity: 0.6"/>
   </g>
   <g id="patch_160">
    <path d="M 657.79585 44.978437 
L 658.610094 44.978437 
L 658.610094 20.798438 
L 657.79585 20.798438 
z
" clip-path="url(#p9ead6b4d77)" style="fill: #1f77b4; opacity: 0.6"/>
   </g>
   <g id="patch_161">
    <path d="M 665.124045 44.978437 
L 665.938289 44.978437 
L 665.938289 20.798438 
L 665.124045 20.798438 
z
" clip-path="url(#p9ead6b4d77)" style="fill: #1f77b4; opacity: 0.6"/>
   </g>
   <g id="patch_162">
    <path d="M 665.938289 44.978437 
L 666.752533 44.978437 
L 666.752533 20.798438 
L 665.938289 20.798438 
z
" clip-path="url(#p9ead6b4d77)" style="fill: #1f77b4; opacity: 0.6"/>
   </g>
   <g id="patch_163">
    <path d="M 666.752533 44.978437 
L 667.566777 44.978437 
L 667.566777 20.798438 
L 666.752533 20.798438 
z
" clip-path="url(#p9ead6b4d77)" style="fill: #1f77b4; opacity: 0.6"/>
   </g>
   <g id="patch_164">
    <path d="M 673.266484 44.978437 
L 674.080728 44.978437 
L 674.080728 20.798438 
L 673.266484 20.798438 
z
" clip-path="url(#p9ead6b4d77)" style="fill: #1f77b4; opacity: 0.6"/>
   </g>
   <g id="patch_165">
    <path d="M 678.966192 44.978437 
L 679.780436 44.978437 
L 679.780436 20.798438 
L 678.966192 20.798438 
z
" clip-path="url(#p9ead6b4d77)" style="fill: #1f77b4; opacity: 0.6"/>
   </g>
   <g id="patch_166">
    <path d="M 683.037411 44.978437 
L 683.851655 44.978437 
L 683.851655 20.798438 
L 683.037411 20.798438 
z
" clip-path="url(#p9ead6b4d77)" style="fill: #1f77b4; opacity: 0.6"/>
   </g>
   <g id="matplotlib.axis_2">
    <g id="text_2">
     <!-- edge_df -->
     <g transform="translate(9.390625 31.873958) scale(0.1 -0.1)">
      <defs>
       <path id="DejaVuSans-65" d="M 3597 1894 
L 3597 1613 
L 953 1613 
Q 991 1019 1311 708 
Q 1631 397 2203 397 
Q 2534 397 2845 478 
Q 3156 559 3463 722 
L 3463 178 
Q 3153 47 2828 -22 
Q 2503 -91 2169 -91 
Q 1331 -91 842 396 
Q 353 884 353 1716 
Q 353 2575 817 3079 
Q 1281 3584 2069 3584 
Q 2775 3584 3186 3129 
Q 3597 2675 3597 1894 
z
M 3022 2063 
Q 3016 2534 2758 2815 
Q 2500 3097 2075 3097 
Q 1594 3097 1305 2825 
Q 1016 2553 972 2059 
L 3022 2063 
z
" transform="scale(0.015625)"/>
       <path id="DejaVuSans-64" d="M 2906 2969 
L 2906 4863 
L 3481 4863 
L 3481 0 
L 2906 0 
L 2906 525 
Q 2725 213 2448 61 
Q 2172 -91 1784 -91 
Q 1150 -91 751 415 
Q 353 922 353 1747 
Q 353 2572 751 3078 
Q 1150 3584 1784 3584 
Q 2172 3584 2448 3432 
Q 2725 3281 2906 2969 
z
M 947 1747 
Q 947 1113 1208 752 
Q 1469 391 1925 391 
Q 2381 391 2643 752 
Q 2906 1113 2906 1747 
Q 2906 2381 2643 2742 
Q 2381 3103 1925 3103 
Q 1469 3103 1208 2742 
Q 947 2381 947 1747 
z
" transform="scale(0.015625)"/>
       <path id="DejaVuSans-67" d="M 2906 1791 
Q 2906 2416 2648 2759 
Q 2391 3103 1925 3103 
Q 1463 3103 1205 2759 
Q 947 2416 947 1791 
Q 947 1169 1205 825 
Q 1463 481 1925 481 
Q 2391 481 2648 825 
Q 2906 1169 2906 1791 
z
M 3481 434 
Q 3481 -459 3084 -895 
Q 2688 -1331 1869 -1331 
Q 1566 -1331 1297 -1286 
Q 1028 -1241 775 -1147 
L 775 -588 
Q 1028 -725 1275 -790 
Q 1522 -856 1778 -856 
Q 2344 -856 2625 -561 
Q 2906 -266 2906 331 
L 2906 616 
Q 2728 306 2450 153 
Q 2172 0 1784 0 
Q 1141 0 747 490 
Q 353 981 353 1791 
Q 353 2603 747 3093 
Q 1141 3584 1784 3584 
Q 2172 3584 2450 3431 
Q 2728 3278 2906 2969 
L 2906 3500 
L 3481 3500 
L 3481 434 
z
" transform="scale(0.015625)"/>
       <path id="DejaVuSans-5f" d="M 3263 -1063 
L 3263 -1509 
L -63 -1509 
L -63 -1063 
L 3263 -1063 
z
" transform="scale(0.015625)"/>
       <path id="DejaVuSans-66" d="M 2375 4863 
L 2375 4384 
L 1825 4384 
Q 1516 4384 1395 4259 
Q 1275 4134 1275 3809 
L 1275 3500 
L 2222 3500 
L 2222 3053 
L 1275 3053 
L 1275 0 
L 697 0 
L 697 3053 
L 147 3053 
L 147 3500 
L 697 3500 
L 697 3744 
Q 697 4328 969 4595 
Q 1241 4863 1831 4863 
L 2375 4863 
z
" transform="scale(0.015625)"/>
      </defs>
      <use xlink:href="#DejaVuSans-65"/>
      <use xlink:href="#DejaVuSans-64" x="61.523438"/>
      <use xlink:href="#DejaVuSans-67" x="125"/>
      <use xlink:href="#DejaVuSans-65" x="188.476562"/>
      <use xlink:href="#DejaVuSans-5f" x="250"/>
      <use xlink:href="#DejaVuSans-64" x="300"/>
      <use xlink:href="#DejaVuSans-66" x="363.476562"/>
     </g>
    </g>
   </g>
   <g id="text_3">
    <!-- chrX -->
    <g transform="translate(59.326563 14.798438) scale(0.1 -0.1)">
     <defs>
      <path id="DejaVuSans-63" d="M 3122 3366 
L 3122 2828 
Q 2878 2963 2633 3030 
Q 2388 3097 2138 3097 
Q 1578 3097 1268 2742 
Q 959 2388 959 1747 
Q 959 1106 1268 751 
Q 1578 397 2138 397 
Q 2388 397 2633 464 
Q 2878 531 3122 666 
L 3122 134 
Q 2881 22 2623 -34 
Q 2366 -91 2075 -91 
Q 1284 -91 818 406 
Q 353 903 353 1747 
Q 353 2603 823 3093 
Q 1294 3584 2113 3584 
Q 2378 3584 2631 3529 
Q 2884 3475 3122 3366 
z
" transform="scale(0.015625)"/>
      <path id="DejaVuSans-68" d="M 3513 2113 
L 3513 0 
L 2938 0 
L 2938 2094 
Q 2938 2591 2744 2837 
Q 2550 3084 2163 3084 
Q 1697 3084 1428 2787 
Q 1159 2491 1159 1978 
L 1159 0 
L 581 0 
L 581 4863 
L 1159 4863 
L 1159 2956 
Q 1366 3272 1645 3428 
Q 1925 3584 2291 3584 
Q 2894 3584 3203 3211 
Q 3513 2838 3513 2113 
z
" transform="scale(0.015625)"/>
      <path id="DejaVuSans-72" d="M 2631 2963 
Q 2534 3019 2420 3045 
Q 2306 3072 2169 3072 
Q 1681 3072 1420 2755 
Q 1159 2438 1159 1844 
L 1159 0 
L 581 0 
L 581 3500 
L 1159 3500 
L 1159 2956 
Q 1341 3275 1631 3429 
Q 1922 3584 2338 3584 
Q 2397 3584 2469 3576 
Q 2541 3569 2628 3553 
L 2631 2963 
z
" transform="scale(0.015625)"/>
      <path id="DejaVuSans-58" d="M 403 4666 
L 1081 4666 
L 2241 2931 
L 3406 4666 
L 4084 4666 
L 2584 2425 
L 4184 0 
L 3506 0 
L 2194 1984 
L 872 0 
L 191 0 
L 1856 2491 
L 403 4666 
z
" transform="scale(0.015625)"/>
     </defs>
     <use xlink:href="#DejaVuSans-63"/>
     <use xlink:href="#DejaVuSans-68" x="54.980469"/>
     <use xlink:href="#DejaVuSans-72" x="118.359375"/>
     <use xlink:href="#DejaVuSans-58" x="159.472656"/>
    </g>
   </g>
  </g>
  <g id="axes_3">
   <g id="patch_167">
    <path d="M 59.326563 130.198437 
L 683.806562 130.198437 
L 683.806562 103.331771 
L 59.326563 103.331771 
z
" style="fill: #ffffff"/>
   </g>
   <g id="patch_168">
    <path d="M 138.865056 127.511771 
L 139.273037 127.511771 
L 139.273037 103.331771 
L 138.865056 103.331771 
z
" clip-path="url(#pa1ae78f946)" style="fill: #2ca02c; opacity: 0.6"/>
   </g>
   <g id="patch_169">
    <path d="M 211.590177 127.511771 
L 212.534814 127.511771 
L 212.534814 103.331771 
L 211.590177 103.331771 
z
" clip-path="url(#pa1ae78f946)" style="fill: #2ca02c; opacity: 0.6"/>
   </g>
   <g id="patch_170">
    <path d="M 260.919199 127.511771 
L 262.945055 127.511771 
L 262.945055 103.331771 
L 260.919199 103.331771 
z
" clip-path="url(#pa1ae78f946)" style="fill: #2ca02c; opacity: 0.6"/>
   </g>
   <g id="patch_171">
    <path d="M 267.773008 127.511771 
L 268.768393 127.511771 
L 268.768393 103.331771 
L 267.773008 103.331771 
z
" clip-path="url(#pa1ae78f946)" style="fill: #2ca02c; opacity: 0.6"/>
   </g>
   <g id="patch_172">
    <path d="M 278.777494 127.511771 
L 279.607299 127.511771 
L 279.607299 103.331771 
L 278.777494 103.331771 
z
" clip-path="url(#pa1ae78f946)" style="fill: #2ca02c; opacity: 0.6"/>
   </g>
   <g id="patch_173">
    <path d="M 312.149302 127.511771 
L 312.936468 127.511771 
L 312.936468 103.331771 
L 312.149302 103.331771 
z
" clip-path="url(#pa1ae78f946)" style="fill: #2ca02c; opacity: 0.6"/>
   </g>
   <g id="patch_174">
    <path d="M 348.383157 127.511771 
L 348.790279 127.511771 
L 348.790279 103.331771 
L 348.383157 103.331771 
z
" clip-path="url(#pa1ae78f946)" style="fill: #2ca02c; opacity: 0.6"/>
   </g>
   <g id="patch_175">
    <path d="M 351.594397 127.511771 
L 351.640133 127.511771 
L 351.640133 103.331771 
L 351.594397 103.331771 
z
" clip-path="url(#pa1ae78f946)" style="fill: #2ca02c; opacity: 0.6"/>
   </g>
   <g id="patch_176">
    <path d="M 361.987536 127.511771 
L 363.184833 127.511771 
L 363.184833 103.331771 
L 361.987536 103.331771 
z
" clip-path="url(#pa1ae78f946)" style="fill: #2ca02c; opacity: 0.6"/>
   </g>
   <g id="patch_177">
    <path d="M 500.23965 127.511771 
L 500.646772 127.511771 
L 500.646772 103.331771 
L 500.23965 103.331771 
z
" clip-path="url(#pa1ae78f946)" style="fill: #2ca02c; opacity: 0.6"/>
   </g>
   <g id="patch_178">
    <path d="M 582.086554 127.511771 
L 582.478286 127.511771 
L 582.478286 103.331771 
L 582.086554 103.331771 
z
" clip-path="url(#pa1ae78f946)" style="fill: #2ca02c; opacity: 0.6"/>
   </g>
   <g id="patch_179">
    <path d="M 673.289442 127.511771 
L 673.673606 127.511771 
L 673.673606 103.331771 
L 673.289442 103.331771 
z
" clip-path="url(#pa1ae78f946)" style="fill: #2ca02c; opacity: 0.6"/>
   </g>
   <g id="matplotlib.axis_3">
    <g id="xtick_1">
     <g id="line2d_1">
      <defs>
       <path id="m67d8eb5568" d="M 0 0 
L 0 3.5 
" style="stroke: #000000; stroke-width: 0.8"/>
      </defs>
      <g>
       <use xlink:href="#m67d8eb5568" x="59.326563" y="130.198437" style="stroke: #000000; stroke-width: 0.8"/>
      </g>
     </g>
     <g id="text_4">
      <!-- 0 Mbp -->
      <g transform="translate(43.89375 144.796875) scale(0.1 -0.1)">
       <defs>
        <path id="DejaVuSans-20" transform="scale(0.015625)"/>
        <path id="DejaVuSans-4d" d="M 628 4666 
L 1569 4666 
L 2759 1491 
L 3956 4666 
L 4897 4666 
L 4897 0 
L 4281 0 
L 4281 4097 
L 3078 897 
L 2444 897 
L 1241 4097 
L 1241 0 
L 628 0 
L 628 4666 
z
" transform="scale(0.015625)"/>
        <path id="DejaVuSans-62" d="M 3116 1747 
Q 3116 2381 2855 2742 
Q 2594 3103 2138 3103 
Q 1681 3103 1420 2742 
Q 1159 2381 1159 1747 
Q 1159 1113 1420 752 
Q 1681 391 2138 391 
Q 2594 391 2855 752 
Q 3116 1113 3116 1747 
z
M 1159 2969 
Q 1341 3281 1617 3432 
Q 1894 3584 2278 3584 
Q 2916 3584 3314 3078 
Q 3713 2572 3713 1747 
Q 3713 922 3314 415 
Q 2916 -91 2278 -91 
Q 1894 -91 1617 61 
Q 1341 213 1159 525 
L 1159 0 
L 581 0 
L 581 4863 
L 1159 4863 
L 1159 2969 
z
" transform="scale(0.015625)"/>
        <path id="DejaVuSans-70" d="M 1159 525 
L 1159 -1331 
L 581 -1331 
L 581 3500 
L 1159 3500 
L 1159 2969 
Q 1341 3281 1617 3432 
Q 1894 3584 2278 3584 
Q 2916 3584 3314 3078 
Q 3713 2572 3713 1747 
Q 3713 922 3314 415 
Q 2916 -91 2278 -91 
Q 1894 -91 1617 61 
Q 1341 213 1159 525 
z
M 3116 1747 
Q 3116 2381 2855 2742 
Q 2594 3103 2138 3103 
Q 1681 3103 1420 2742 
Q 1159 2381 1159 1747 
Q 1159 1113 1420 752 
Q 1681 391 2138 391 
Q 2594 391 2855 752 
Q 3116 1113 3116 1747 
z
" transform="scale(0.015625)"/>
       </defs>
       <use xlink:href="#DejaVuSans-30"/>
       <use xlink:href="#DejaVuSans-20" x="63.623047"/>
       <use xlink:href="#DejaVuSans-4d" x="95.410156"/>
       <use xlink:href="#DejaVuSans-62" x="181.689453"/>
       <use xlink:href="#DejaVuSans-70" x="245.166016"/>
      </g>
     </g>
    </g>
    <g id="xtick_2">
     <g id="line2d_2">
      <g>
       <use xlink:href="#m67d8eb5568" x="215.446562" y="130.198437" style="stroke: #000000; stroke-width: 0.8"/>
      </g>
     </g>
     <g id="text_5">
      <!-- 38 Mbp -->
      <g transform="translate(196.8325 144.796875) scale(0.1 -0.1)">
       <defs>
        <path id="DejaVuSans-33" d="M 2597 2516 
Q 3050 2419 3304 2112 
Q 3559 1806 3559 1356 
Q 3559 666 3084 287 
Q 2609 -91 1734 -91 
Q 1441 -91 1130 -33 
Q 819 25 488 141 
L 488 750 
Q 750 597 1062 519 
Q 1375 441 1716 441 
Q 2309 441 2620 675 
Q 2931 909 2931 1356 
Q 2931 1769 2642 2001 
Q 2353 2234 1838 2234 
L 1294 2234 
L 1294 2753 
L 1863 2753 
Q 2328 2753 2575 2939 
Q 2822 3125 2822 3475 
Q 2822 3834 2567 4026 
Q 2313 4219 1838 4219 
Q 1578 4219 1281 4162 
Q 984 4106 628 3988 
L 628 4550 
Q 988 4650 1302 4700 
Q 1616 4750 1894 4750 
Q 2613 4750 3031 4423 
Q 3450 4097 3450 3541 
Q 3450 3153 3228 2886 
Q 3006 2619 2597 2516 
z
" transform="scale(0.015625)"/>
        <path id="DejaVuSans-38" d="M 2034 2216 
Q 1584 2216 1326 1975 
Q 1069 1734 1069 1313 
Q 1069 891 1326 650 
Q 1584 409 2034 409 
Q 2484 409 2743 651 
Q 3003 894 3003 1313 
Q 3003 1734 2745 1975 
Q 2488 2216 2034 2216 
z
M 1403 2484 
Q 997 2584 770 2862 
Q 544 3141 544 3541 
Q 544 4100 942 4425 
Q 1341 4750 2034 4750 
Q 2731 4750 3128 4425 
Q 3525 4100 3525 3541 
Q 3525 3141 3298 2862 
Q 3072 2584 2669 2484 
Q 3125 2378 3379 2068 
Q 3634 1759 3634 1313 
Q 3634 634 3220 271 
Q 2806 -91 2034 -91 
Q 1263 -91 848 271 
Q 434 634 434 1313 
Q 434 1759 690 2068 
Q 947 2378 1403 2484 
z
M 1172 3481 
Q 1172 3119 1398 2916 
Q 1625 2713 2034 2713 
Q 2441 2713 2670 2916 
Q 2900 3119 2900 3481 
Q 2900 3844 2670 4047 
Q 2441 4250 2034 4250 
Q 1625 4250 1398 4047 
Q 1172 3844 1172 3481 
z
" transform="scale(0.015625)"/>
       </defs>
       <use xlink:href="#DejaVuSans-33"/>
       <use xlink:href="#DejaVuSans-38" x="63.623047"/>
       <use xlink:href="#DejaVuSans-20" x="127.246094"/>
       <use xlink:href="#DejaVuSans-4d" x="159.033203"/>
       <use xlink:href="#DejaVuSans-62" x="245.3125"/>
       <use xlink:href="#DejaVuSans-70" x="308.789062"/>
      </g>
     </g>
    </g>
    <g id="xtick_3">
     <g id="line2d_3">
      <g>
       <use xlink:href="#m67d8eb5568" x="371.566563" y="130.198437" style="stroke: #000000; stroke-width: 0.8"/>
      </g>
     </g>
     <g id="text_6">
      <!-- 76 Mbp -->
      <g transform="translate(352.9525 144.796875) scale(0.1 -0.1)">
       <defs>
        <path id="DejaVuSans-37" d="M 525 4666 
L 3525 4666 
L 3525 4397 
L 1831 0 
L 1172 0 
L 2766 4134 
L 525 4134 
L 525 4666 
z
" transform="scale(0.015625)"/>
        <path id="DejaVuSans-36" d="M 2113 2584 
Q 1688 2584 1439 2293 
Q 1191 2003 1191 1497 
Q 1191 994 1439 701 
Q 1688 409 2113 409 
Q 2538 409 2786 701 
Q 3034 994 3034 1497 
Q 3034 2003 2786 2293 
Q 2538 2584 2113 2584 
z
M 3366 4563 
L 3366 3988 
Q 3128 4100 2886 4159 
Q 2644 4219 2406 4219 
Q 1781 4219 1451 3797 
Q 1122 3375 1075 2522 
Q 1259 2794 1537 2939 
Q 1816 3084 2150 3084 
Q 2853 3084 3261 2657 
Q 3669 2231 3669 1497 
Q 3669 778 3244 343 
Q 2819 -91 2113 -91 
Q 1303 -91 875 529 
Q 447 1150 447 2328 
Q 447 3434 972 4092 
Q 1497 4750 2381 4750 
Q 2619 4750 2861 4703 
Q 3103 4656 3366 4563 
z
" transform="scale(0.015625)"/>
       </defs>
       <use xlink:href="#DejaVuSans-37"/>
       <use xlink:href="#DejaVuSans-36" x="63.623047"/>
       <use xlink:href="#DejaVuSans-20" x="127.246094"/>
       <use xlink:href="#DejaVuSans-4d" x="159.033203"/>
       <use xlink:href="#DejaVuSans-62" x="245.3125"/>
       <use xlink:href="#DejaVuSans-70" x="308.789062"/>
      </g>
     </g>
    </g>
    <g id="xtick_4">
     <g id="line2d_4">
      <g>
       <use xlink:href="#m67d8eb5568" x="527.686562" y="130.198437" style="stroke: #000000; stroke-width: 0.8"/>
      </g>
     </g>
     <g id="text_7">
      <!-- 115 Mbp -->
      <g transform="translate(505.89125 144.796875) scale(0.1 -0.1)">
       <defs>
        <path id="DejaVuSans-31" d="M 794 531 
L 1825 531 
L 1825 4091 
L 703 3866 
L 703 4441 
L 1819 4666 
L 2450 4666 
L 2450 531 
L 3481 531 
L 3481 0 
L 794 0 
L 794 531 
z
" transform="scale(0.015625)"/>
        <path id="DejaVuSans-35" d="M 691 4666 
L 3169 4666 
L 3169 4134 
L 1269 4134 
L 1269 2991 
Q 1406 3038 1543 3061 
Q 1681 3084 1819 3084 
Q 2600 3084 3056 2656 
Q 3513 2228 3513 1497 
Q 3513 744 3044 326 
Q 2575 -91 1722 -91 
Q 1428 -91 1123 -41 
Q 819 9 494 109 
L 494 744 
Q 775 591 1075 516 
Q 1375 441 1709 441 
Q 2250 441 2565 725 
Q 2881 1009 2881 1497 
Q 2881 1984 2565 2268 
Q 2250 2553 1709 2553 
Q 1456 2553 1204 2497 
Q 953 2441 691 2322 
L 691 4666 
z
" transform="scale(0.015625)"/>
       </defs>
       <use xlink:href="#DejaVuSans-31"/>
       <use xlink:href="#DejaVuSans-31" x="63.623047"/>
       <use xlink:href="#DejaVuSans-35" x="127.246094"/>
       <use xlink:href="#DejaVuSans-20" x="190.869141"/>
       <use xlink:href="#DejaVuSans-4d" x="222.65625"/>
       <use xlink:href="#DejaVuSans-62" x="308.935547"/>
       <use xlink:href="#DejaVuSans-70" x="372.412109"/>
      </g>
     </g>
    </g>
    <g id="xtick_5">
     <g id="line2d_5">
      <g>
       <use xlink:href="#m67d8eb5568" x="683.806563" y="130.198437" style="stroke: #000000; stroke-width: 0.8"/>
      </g>
     </g>
     <g id="text_8">
      <!-- 153 Mbp -->
      <g transform="translate(662.01125 144.796875) scale(0.1 -0.1)">
       <use xlink:href="#DejaVuSans-31"/>
       <use xlink:href="#DejaVuSans-35" x="63.623047"/>
       <use xlink:href="#DejaVuSans-33" x="127.246094"/>
       <use xlink:href="#DejaVuSans-20" x="190.869141"/>
       <use xlink:href="#DejaVuSans-4d" x="222.65625"/>
       <use xlink:href="#DejaVuSans-62" x="308.935547"/>
       <use xlink:href="#DejaVuSans-70" x="372.412109"/>
      </g>
     </g>
    </g>
   </g>
   <g id="matplotlib.axis_4">
    <g id="text_9">
     <!-- Intersect -->
     <g transform="translate(7.2 114.685417) scale(0.1 -0.1)">
      <defs>
       <path id="DejaVuSans-49" d="M 628 4666 
L 1259 4666 
L 1259 0 
L 628 0 
L 628 4666 
z
" transform="scale(0.015625)"/>
       <path id="DejaVuSans-6e" d="M 3513 2113 
L 3513 0 
L 2938 0 
L 2938 2094 
Q 2938 2591 2744 2837 
Q 2550 3084 2163 3084 
Q 1697 3084 1428 2787 
Q 1159 2491 1159 1978 
L 1159 0 
L 581 0 
L 581 3500 
L 1159 3500 
L 1159 2956 
Q 1366 3272 1645 3428 
Q 1925 3584 2291 3584 
Q 2894 3584 3203 3211 
Q 3513 2838 3513 2113 
z
" transform="scale(0.015625)"/>
       <path id="DejaVuSans-74" d="M 1172 4494 
L 1172 3500 
L 2356 3500 
L 2356 3053 
L 1172 3053 
L 1172 1153 
Q 1172 725 1289 603 
Q 1406 481 1766 481 
L 2356 481 
L 2356 0 
L 1766 0 
Q 1100 0 847 248 
Q 594 497 594 1153 
L 594 3053 
L 172 3053 
L 172 3500 
L 594 3500 
L 594 4494 
L 1172 4494 
z
" transform="scale(0.015625)"/>
       <path id="DejaVuSans-73" d="M 2834 3397 
L 2834 2853 
Q 2591 2978 2328 3040 
Q 2066 3103 1784 3103 
Q 1356 3103 1142 2972 
Q 928 2841 928 2578 
Q 928 2378 1081 2264 
Q 1234 2150 1697 2047 
L 1894 2003 
Q 2506 1872 2764 1633 
Q 3022 1394 3022 966 
Q 3022 478 2636 193 
Q 2250 -91 1575 -91 
Q 1294 -91 989 -36 
Q 684 19 347 128 
L 347 722 
Q 666 556 975 473 
Q 1284 391 1588 391 
Q 1994 391 2212 530 
Q 2431 669 2431 922 
Q 2431 1156 2273 1281 
Q 2116 1406 1581 1522 
L 1381 1569 
Q 847 1681 609 1914 
Q 372 2147 372 2553 
Q 372 3047 722 3315 
Q 1072 3584 1716 3584 
Q 2034 3584 2315 3537 
Q 2597 3491 2834 3397 
z
" transform="scale(0.015625)"/>
      </defs>
      <use xlink:href="#DejaVuSans-49"/>
      <use xlink:href="#DejaVuSans-6e" x="29.492188"/>
      <use xlink:href="#DejaVuSans-74" x="92.871094"/>
      <use xlink:href="#DejaVuSans-65" x="132.080078"/>
      <use xlink:href="#DejaVuSans-72" x="193.603516"/>
      <use xlink:href="#DejaVuSans-73" x="234.716797"/>
      <use xlink:href="#DejaVuSans-65" x="286.816406"/>
      <use xlink:href="#DejaVuSans-63" x="348.339844"/>
      <use xlink:href="#DejaVuSans-74" x="403.320312"/>
     </g>
    </g>
   </g>
   <g id="patch_180">
    <path d="M 59.326563 130.198437 
L 683.806563 130.198437 
" style="fill: none; stroke: #000000; stroke-width: 0.8; stroke-linejoin: miter; stroke-linecap: square"/>
   </g>
  </g>
 </g>
 <defs>
  <clipPath id="p5db26f062a">
   <rect x="59.326563" y="62.065104" width="624.48" height="26.866667"/>
  </clipPath>
  <clipPath id="p9ead6b4d77">
   <rect x="59.326563" y="20.798438" width="624.48" height="26.866667"/>
  </clipPath>
  <clipPath id="pa1ae78f946">
   <rect x="59.326563" y="103.331771" width="624.48" height="26.866667"/>
  </clipPath>
 </defs>
</svg>
