<?xml version="1.0" encoding="utf-8" standalone="no"?>
<!DOCTYPE svg PUBLIC "-//W3C//DTD SVG 1.1//EN"
  "http://www.w3.org/Graphics/SVG/1.1/DTD/svg11.dtd">
<svg xmlns:xlink="http://www.w3.org/1999/xlink" width="568.77875pt" height="101.194375pt" viewBox="0 0 568.77875 101.194375" xmlns="http://www.w3.org/2000/svg" version="1.1">
 <metadata>
  <rdf:RDF xmlns:dc="http://purl.org/dc/elements/1.1/" xmlns:cc="http://creativecommons.org/ns#" xmlns:rdf="http://www.w3.org/1999/02/22-rdf-syntax-ns#">
   <cc:Work>
    <dc:type rdf:resource="http://purl.org/dc/dcmitype/StillImage"/>
    <dc:date>2024-11-27T12:26:53.672433</dc:date>
    <dc:format>image/svg+xml</dc:format>
    <dc:creator>
     <cc:Agent>
      <dc:title>Matplotlib v3.8.4, https://matplotlib.org/</dc:title>
     </cc:Agent>
    </dc:creator>
   </cc:Work>
  </rdf:RDF>
 </metadata>
 <defs>
  <style type="text/css">*{stroke-linejoin: round; stroke-linecap: butt}</style>
 </defs>
 <g id="figure_1">
  <g id="patch_1">
   <path d="M 0 101.194375 
L 568.77875 101.194375 
L 568.77875 0 
L 0 0 
z
" style="fill: #ffffff"/>
  </g>
  <g id="axes_1">
   <g id="patch_2">
    <path d="M 43.06875 64.638125 
L 561.57875 64.638125 
L 561.57875 22.318125 
L 43.06875 22.318125 
z
" style="fill: #ffffff"/>
   </g>
   <g id="matplotlib.axis_1">
    <g id="xtick_1">
     <g id="line2d_1">
      <defs>
       <path id="m0850eaafc9" d="M 0 0 
L 0 3.5 
" style="stroke: #000000; stroke-width: 0.8"/>
      </defs>
      <g>
       <use xlink:href="#m0850eaafc9" x="66.017159" y="64.638125" style="stroke: #000000; stroke-width: 0.8"/>
      </g>
     </g>
     <g id="text_1">
      <!-- 0.0 -->
      <g transform="translate(58.065597 79.236563) scale(0.1 -0.1)">
       <defs>
        <path id="DejaVuSans-30" d="M 2034 4250 
Q 1547 4250 1301 3770 
Q 1056 3291 1056 2328 
Q 1056 1369 1301 889 
Q 1547 409 2034 409 
Q 2525 409 2770 889 
Q 3016 1369 3016 2328 
Q 3016 3291 2770 3770 
Q 2525 4250 2034 4250 
z
M 2034 4750 
Q 2819 4750 3233 4129 
Q 3647 3509 3647 2328 
Q 3647 1150 3233 529 
Q 2819 -91 2034 -91 
Q 1250 -91 836 529 
Q 422 1150 422 2328 
Q 422 3509 836 4129 
Q 1250 4750 2034 4750 
z
" transform="scale(0.015625)"/>
        <path id="DejaVuSans-2e" d="M 684 794 
L 1344 794 
L 1344 0 
L 684 0 
L 684 794 
z
" transform="scale(0.015625)"/>
       </defs>
       <use xlink:href="#DejaVuSans-30"/>
       <use xlink:href="#DejaVuSans-2e" x="63.623047"/>
       <use xlink:href="#DejaVuSans-30" x="95.410156"/>
      </g>
     </g>
    </g>
    <g id="xtick_2">
     <g id="line2d_2">
      <g>
       <use xlink:href="#m0850eaafc9" x="128.039886" y="64.638125" style="stroke: #000000; stroke-width: 0.8"/>
      </g>
     </g>
     <g id="text_2">
      <!-- 0.2 -->
      <g transform="translate(120.088324 79.236563) scale(0.1 -0.1)">
       <defs>
        <path id="DejaVuSans-32" d="M 1228 531 
L 3431 531 
L 3431 0 
L 469 0 
L 469 531 
Q 828 903 1448 1529 
Q 2069 2156 2228 2338 
Q 2531 2678 2651 2914 
Q 2772 3150 2772 3378 
Q 2772 3750 2511 3984 
Q 2250 4219 1831 4219 
Q 1534 4219 1204 4116 
Q 875 4013 500 3803 
L 500 4441 
Q 881 4594 1212 4672 
Q 1544 4750 1819 4750 
Q 2544 4750 2975 4387 
Q 3406 4025 3406 3419 
Q 3406 3131 3298 2873 
Q 3191 2616 2906 2266 
Q 2828 2175 2409 1742 
Q 1991 1309 1228 531 
z
" transform="scale(0.015625)"/>
       </defs>
       <use xlink:href="#DejaVuSans-30"/>
       <use xlink:href="#DejaVuSans-2e" x="63.623047"/>
       <use xlink:href="#DejaVuSans-32" x="95.410156"/>
      </g>
     </g>
    </g>
    <g id="xtick_3">
     <g id="line2d_3">
      <g>
       <use xlink:href="#m0850eaafc9" x="190.062614" y="64.638125" style="stroke: #000000; stroke-width: 0.8"/>
      </g>
     </g>
     <g id="text_3">
      <!-- 0.4 -->
      <g transform="translate(182.111051 79.236563) scale(0.1 -0.1)">
       <defs>
        <path id="DejaVuSans-34" d="M 2419 4116 
L 825 1625 
L 2419 1625 
L 2419 4116 
z
M 2253 4666 
L 3047 4666 
L 3047 1625 
L 3713 1625 
L 3713 1100 
L 3047 1100 
L 3047 0 
L 2419 0 
L 2419 1100 
L 313 1100 
L 313 1709 
L 2253 4666 
z
" transform="scale(0.015625)"/>
       </defs>
       <use xlink:href="#DejaVuSans-30"/>
       <use xlink:href="#DejaVuSans-2e" x="63.623047"/>
       <use xlink:href="#DejaVuSans-34" x="95.410156"/>
      </g>
     </g>
    </g>
    <g id="xtick_4">
     <g id="line2d_4">
      <g>
       <use xlink:href="#m0850eaafc9" x="252.085341" y="64.638125" style="stroke: #000000; stroke-width: 0.8"/>
      </g>
     </g>
     <g id="text_4">
      <!-- 0.6 -->
      <g transform="translate(244.133778 79.236563) scale(0.1 -0.1)">
       <defs>
        <path id="DejaVuSans-36" d="M 2113 2584 
Q 1688 2584 1439 2293 
Q 1191 2003 1191 1497 
Q 1191 994 1439 701 
Q 1688 409 2113 409 
Q 2538 409 2786 701 
Q 3034 994 3034 1497 
Q 3034 2003 2786 2293 
Q 2538 2584 2113 2584 
z
M 3366 4563 
L 3366 3988 
Q 3128 4100 2886 4159 
Q 2644 4219 2406 4219 
Q 1781 4219 1451 3797 
Q 1122 3375 1075 2522 
Q 1259 2794 1537 2939 
Q 1816 3084 2150 3084 
Q 2853 3084 3261 2657 
Q 3669 2231 3669 1497 
Q 3669 778 3244 343 
Q 2819 -91 2113 -91 
Q 1303 -91 875 529 
Q 447 1150 447 2328 
Q 447 3434 972 4092 
Q 1497 4750 2381 4750 
Q 2619 4750 2861 4703 
Q 3103 4656 3366 4563 
z
" transform="scale(0.015625)"/>
       </defs>
       <use xlink:href="#DejaVuSans-30"/>
       <use xlink:href="#DejaVuSans-2e" x="63.623047"/>
       <use xlink:href="#DejaVuSans-36" x="95.410156"/>
      </g>
     </g>
    </g>
    <g id="xtick_5">
     <g id="line2d_5">
      <g>
       <use xlink:href="#m0850eaafc9" x="314.108068" y="64.638125" style="stroke: #000000; stroke-width: 0.8"/>
      </g>
     </g>
     <g id="text_5">
      <!-- 0.8 -->
      <g transform="translate(306.156506 79.236563) scale(0.1 -0.1)">
       <defs>
        <path id="DejaVuSans-38" d="M 2034 2216 
Q 1584 2216 1326 1975 
Q 1069 1734 1069 1313 
Q 1069 891 1326 650 
Q 1584 409 2034 409 
Q 2484 409 2743 651 
Q 3003 894 3003 1313 
Q 3003 1734 2745 1975 
Q 2488 2216 2034 2216 
z
M 1403 2484 
Q 997 2584 770 2862 
Q 544 3141 544 3541 
Q 544 4100 942 4425 
Q 1341 4750 2034 4750 
Q 2731 4750 3128 4425 
Q 3525 4100 3525 3541 
Q 3525 3141 3298 2862 
Q 3072 2584 2669 2484 
Q 3125 2378 3379 2068 
Q 3634 1759 3634 1313 
Q 3634 634 3220 271 
Q 2806 -91 2034 -91 
Q 1263 -91 848 271 
Q 434 634 434 1313 
Q 434 1759 690 2068 
Q 947 2378 1403 2484 
z
M 1172 3481 
Q 1172 3119 1398 2916 
Q 1625 2713 2034 2713 
Q 2441 2713 2670 2916 
Q 2900 3119 2900 3481 
Q 2900 3844 2670 4047 
Q 2441 4250 2034 4250 
Q 1625 4250 1398 4047 
Q 1172 3844 1172 3481 
z
" transform="scale(0.015625)"/>
       </defs>
       <use xlink:href="#DejaVuSans-30"/>
       <use xlink:href="#DejaVuSans-2e" x="63.623047"/>
       <use xlink:href="#DejaVuSans-38" x="95.410156"/>
      </g>
     </g>
    </g>
    <g id="xtick_6">
     <g id="line2d_6">
      <g>
       <use xlink:href="#m0850eaafc9" x="376.130795" y="64.638125" style="stroke: #000000; stroke-width: 0.8"/>
      </g>
     </g>
     <g id="text_6">
      <!-- 1.0 -->
      <g transform="translate(368.179233 79.236563) scale(0.1 -0.1)">
       <defs>
        <path id="DejaVuSans-31" d="M 794 531 
L 1825 531 
L 1825 4091 
L 703 3866 
L 703 4441 
L 1819 4666 
L 2450 4666 
L 2450 531 
L 3481 531 
L 3481 0 
L 794 0 
L 794 531 
z
" transform="scale(0.015625)"/>
       </defs>
       <use xlink:href="#DejaVuSans-31"/>
       <use xlink:href="#DejaVuSans-2e" x="63.623047"/>
       <use xlink:href="#DejaVuSans-30" x="95.410156"/>
      </g>
     </g>
    </g>
    <g id="xtick_7">
     <g id="line2d_7">
      <g>
       <use xlink:href="#m0850eaafc9" x="438.153523" y="64.638125" style="stroke: #000000; stroke-width: 0.8"/>
      </g>
     </g>
     <g id="text_7">
      <!-- 1.2 -->
      <g transform="translate(430.20196 79.236563) scale(0.1 -0.1)">
       <use xlink:href="#DejaVuSans-31"/>
       <use xlink:href="#DejaVuSans-2e" x="63.623047"/>
       <use xlink:href="#DejaVuSans-32" x="95.410156"/>
      </g>
     </g>
    </g>
    <g id="xtick_8">
     <g id="line2d_8">
      <g>
       <use xlink:href="#m0850eaafc9" x="500.17625" y="64.638125" style="stroke: #000000; stroke-width: 0.8"/>
      </g>
     </g>
     <g id="text_8">
      <!-- 1.4 -->
      <g transform="translate(492.224687 79.236563) scale(0.1 -0.1)">
       <use xlink:href="#DejaVuSans-31"/>
       <use xlink:href="#DejaVuSans-2e" x="63.623047"/>
       <use xlink:href="#DejaVuSans-34" x="95.410156"/>
      </g>
     </g>
    </g>
    <g id="text_9">
     <!-- 1e8 -->
     <g transform="translate(542.700625 91.914688) scale(0.1 -0.1)">
      <defs>
       <path id="DejaVuSans-65" d="M 3597 1894 
L 3597 1613 
L 953 1613 
Q 991 1019 1311 708 
Q 1631 397 2203 397 
Q 2534 397 2845 478 
Q 3156 559 3463 722 
L 3463 178 
Q 3153 47 2828 -22 
Q 2503 -91 2169 -91 
Q 1331 -91 842 396 
Q 353 884 353 1716 
Q 353 2575 817 3079 
Q 1281 3584 2069 3584 
Q 2775 3584 3186 3129 
Q 3597 2675 3597 1894 
z
M 3022 2063 
Q 3016 2534 2758 2815 
Q 2500 3097 2075 3097 
Q 1594 3097 1305 2825 
Q 1016 2553 972 2059 
L 3022 2063 
z
" transform="scale(0.015625)"/>
      </defs>
      <use xlink:href="#DejaVuSans-31"/>
      <use xlink:href="#DejaVuSans-65" x="63.623047"/>
      <use xlink:href="#DejaVuSans-38" x="125.146484"/>
     </g>
    </g>
   </g>
   <g id="matplotlib.axis_2">
    <g id="ytick_1">
     <g id="text_10">
      <!-- annot -->
      <g transform="translate(7.226562 50.037344) scale(0.1 -0.1)">
       <defs>
        <path id="DejaVuSans-61" d="M 2194 1759 
Q 1497 1759 1228 1600 
Q 959 1441 959 1056 
Q 959 750 1161 570 
Q 1363 391 1709 391 
Q 2188 391 2477 730 
Q 2766 1069 2766 1631 
L 2766 1759 
L 2194 1759 
z
M 3341 1997 
L 3341 0 
L 2766 0 
L 2766 531 
Q 2569 213 2275 61 
Q 1981 -91 1556 -91 
Q 1019 -91 701 211 
Q 384 513 384 1019 
Q 384 1609 779 1909 
Q 1175 2209 1959 2209 
L 2766 2209 
L 2766 2266 
Q 2766 2663 2505 2880 
Q 2244 3097 1772 3097 
Q 1472 3097 1187 3025 
Q 903 2953 641 2809 
L 641 3341 
Q 956 3463 1253 3523 
Q 1550 3584 1831 3584 
Q 2591 3584 2966 3190 
Q 3341 2797 3341 1997 
z
" transform="scale(0.015625)"/>
        <path id="DejaVuSans-6e" d="M 3513 2113 
L 3513 0 
L 2938 0 
L 2938 2094 
Q 2938 2591 2744 2837 
Q 2550 3084 2163 3084 
Q 1697 3084 1428 2787 
Q 1159 2491 1159 1978 
L 1159 0 
L 581 0 
L 581 3500 
L 1159 3500 
L 1159 2956 
Q 1366 3272 1645 3428 
Q 1925 3584 2291 3584 
Q 2894 3584 3203 3211 
Q 3513 2838 3513 2113 
z
" transform="scale(0.015625)"/>
        <path id="DejaVuSans-6f" d="M 1959 3097 
Q 1497 3097 1228 2736 
Q 959 2375 959 1747 
Q 959 1119 1226 758 
Q 1494 397 1959 397 
Q 2419 397 2687 759 
Q 2956 1122 2956 1747 
Q 2956 2369 2687 2733 
Q 2419 3097 1959 3097 
z
M 1959 3584 
Q 2709 3584 3137 3096 
Q 3566 2609 3566 1747 
Q 3566 888 3137 398 
Q 2709 -91 1959 -91 
Q 1206 -91 779 398 
Q 353 888 353 1747 
Q 353 2609 779 3096 
Q 1206 3584 1959 3584 
z
" transform="scale(0.015625)"/>
        <path id="DejaVuSans-74" d="M 1172 4494 
L 1172 3500 
L 2356 3500 
L 2356 3053 
L 1172 3053 
L 1172 1153 
Q 1172 725 1289 603 
Q 1406 481 1766 481 
L 2356 481 
L 2356 0 
L 1766 0 
Q 1100 0 847 248 
Q 594 497 594 1153 
L 594 3053 
L 172 3053 
L 172 3500 
L 594 3500 
L 594 4494 
L 1172 4494 
z
" transform="scale(0.015625)"/>
       </defs>
       <use xlink:href="#DejaVuSans-61"/>
       <use xlink:href="#DejaVuSans-6e" x="61.279297"/>
       <use xlink:href="#DejaVuSans-6e" x="124.658203"/>
       <use xlink:href="#DejaVuSans-6f" x="188.037109"/>
       <use xlink:href="#DejaVuSans-74" x="249.21875"/>
      </g>
     </g>
    </g>
    <g id="ytick_2">
     <g id="text_11">
      <!-- query -->
      <g transform="translate(7.2 31.637344) scale(0.1 -0.1)">
       <defs>
        <path id="DejaVuSans-71" d="M 947 1747 
Q 947 1113 1208 752 
Q 1469 391 1925 391 
Q 2381 391 2643 752 
Q 2906 1113 2906 1747 
Q 2906 2381 2643 2742 
Q 2381 3103 1925 3103 
Q 1469 3103 1208 2742 
Q 947 2381 947 1747 
z
M 2906 525 
Q 2725 213 2448 61 
Q 2172 -91 1784 -91 
Q 1150 -91 751 415 
Q 353 922 353 1747 
Q 353 2572 751 3078 
Q 1150 3584 1784 3584 
Q 2172 3584 2448 3432 
Q 2725 3281 2906 2969 
L 2906 3500 
L 3481 3500 
L 3481 -1331 
L 2906 -1331 
L 2906 525 
z
" transform="scale(0.015625)"/>
        <path id="DejaVuSans-75" d="M 544 1381 
L 544 3500 
L 1119 3500 
L 1119 1403 
Q 1119 906 1312 657 
Q 1506 409 1894 409 
Q 2359 409 2629 706 
Q 2900 1003 2900 1516 
L 2900 3500 
L 3475 3500 
L 3475 0 
L 2900 0 
L 2900 538 
Q 2691 219 2414 64 
Q 2138 -91 1772 -91 
Q 1169 -91 856 284 
Q 544 659 544 1381 
z
M 1991 3584 
L 1991 3584 
z
" transform="scale(0.015625)"/>
        <path id="DejaVuSans-72" d="M 2631 2963 
Q 2534 3019 2420 3045 
Q 2306 3072 2169 3072 
Q 1681 3072 1420 2755 
Q 1159 2438 1159 1844 
L 1159 0 
L 581 0 
L 581 3500 
L 1159 3500 
L 1159 2956 
Q 1341 3275 1631 3429 
Q 1922 3584 2338 3584 
Q 2397 3584 2469 3576 
Q 2541 3569 2628 3553 
L 2631 2963 
z
" transform="scale(0.015625)"/>
        <path id="DejaVuSans-79" d="M 2059 -325 
Q 1816 -950 1584 -1140 
Q 1353 -1331 966 -1331 
L 506 -1331 
L 506 -850 
L 844 -850 
Q 1081 -850 1212 -737 
Q 1344 -625 1503 -206 
L 1606 56 
L 191 3500 
L 800 3500 
L 1894 763 
L 2988 3500 
L 3597 3500 
L 2059 -325 
z
" transform="scale(0.015625)"/>
       </defs>
       <use xlink:href="#DejaVuSans-71"/>
       <use xlink:href="#DejaVuSans-75" x="63.476562"/>
       <use xlink:href="#DejaVuSans-65" x="126.855469"/>
       <use xlink:href="#DejaVuSans-72" x="188.378906"/>
       <use xlink:href="#DejaVuSans-79" x="229.492188"/>
      </g>
     </g>
    </g>
   </g>
   <g id="LineCollection_1">
    <path d="M 66.637386 46.238125 
L 73.149773 46.238125 
" clip-path="url(#p05d9f5f860)" style="fill: none; stroke: #1f77b4; stroke-opacity: 0.5; stroke-width: 5"/>
    <path d="M 96.408295 46.238125 
L 97.338636 46.238125 
" clip-path="url(#p05d9f5f860)" style="fill: none; stroke: #1f77b4; stroke-opacity: 0.5; stroke-width: 5"/>
    <path d="M 98.889205 46.238125 
L 99.819545 46.238125 
" clip-path="url(#p05d9f5f860)" style="fill: none; stroke: #1f77b4; stroke-opacity: 0.5; stroke-width: 5"/>
    <path d="M 104.47125 46.238125 
L 107.8825 46.238125 
" clip-path="url(#p05d9f5f860)" style="fill: none; stroke: #1f77b4; stroke-opacity: 0.5; stroke-width: 5"/>
    <path d="M 112.224091 46.238125 
L 114.705 46.238125 
" clip-path="url(#p05d9f5f860)" style="fill: none; stroke: #1f77b4; stroke-opacity: 0.5; stroke-width: 5"/>
    <path d="M 115.635341 46.238125 
L 118.426364 46.238125 
" clip-path="url(#p05d9f5f860)" style="fill: none; stroke: #1f77b4; stroke-opacity: 0.5; stroke-width: 5"/>
    <path d="M 119.046591 46.238125 
L 128.35 46.238125 
" clip-path="url(#p05d9f5f860)" style="fill: none; stroke: #1f77b4; stroke-opacity: 0.5; stroke-width: 5"/>
    <path d="M 132.381477 46.238125 
L 142.925341 46.238125 
" clip-path="url(#p05d9f5f860)" style="fill: none; stroke: #1f77b4; stroke-opacity: 0.5; stroke-width: 5"/>
    <path d="M 181.689545 46.238125 
L 194.714318 46.238125 
" clip-path="url(#p05d9f5f860)" style="fill: none; stroke: #1f77b4; stroke-opacity: 0.5; stroke-width: 5"/>
    <path d="M 201.226705 46.238125 
L 201.536818 46.238125 
" clip-path="url(#p05d9f5f860)" style="fill: none; stroke: #1f77b4; stroke-opacity: 0.5; stroke-width: 5"/>
    <path d="M 201.846932 46.238125 
L 205.258182 46.238125 
" clip-path="url(#p05d9f5f860)" style="fill: none; stroke: #1f77b4; stroke-opacity: 0.5; stroke-width: 5"/>
    <path d="M 209.909886 46.238125 
L 221.384091 46.238125 
" clip-path="url(#p05d9f5f860)" style="fill: none; stroke: #1f77b4; stroke-opacity: 0.5; stroke-width: 5"/>
    <path d="M 222.004318 46.238125 
L 222.624545 46.238125 
" clip-path="url(#p05d9f5f860)" style="fill: none; stroke: #1f77b4; stroke-opacity: 0.5; stroke-width: 5"/>
    <path d="M 229.447045 46.238125 
L 234.09875 46.238125 
" clip-path="url(#p05d9f5f860)" style="fill: none; stroke: #1f77b4; stroke-opacity: 0.5; stroke-width: 5"/>
    <path d="M 258.597727 46.238125 
L 259.528068 46.238125 
" clip-path="url(#p05d9f5f860)" style="fill: none; stroke: #1f77b4; stroke-opacity: 0.5; stroke-width: 5"/>
    <path d="M 268.521364 46.238125 
L 271.932614 46.238125 
" clip-path="url(#p05d9f5f860)" style="fill: none; stroke: #1f77b4; stroke-opacity: 0.5; stroke-width: 5"/>
    <path d="M 273.793295 46.238125 
L 281.85625 46.238125 
" clip-path="url(#p05d9f5f860)" style="fill: none; stroke: #1f77b4; stroke-opacity: 0.5; stroke-width: 5"/>
    <path d="M 282.166364 46.238125 
L 286.197841 46.238125 
" clip-path="url(#p05d9f5f860)" style="fill: none; stroke: #1f77b4; stroke-opacity: 0.5; stroke-width: 5"/>
    <path d="M 288.368636 46.238125 
L 295.811364 46.238125 
" clip-path="url(#p05d9f5f860)" style="fill: none; stroke: #1f77b4; stroke-opacity: 0.5; stroke-width: 5"/>
    <path d="M 297.672045 46.238125 
L 305.424886 46.238125 
" clip-path="url(#p05d9f5f860)" style="fill: none; stroke: #1f77b4; stroke-opacity: 0.5; stroke-width: 5"/>
    <path d="M 307.905795 46.238125 
L 313.487841 46.238125 
" clip-path="url(#p05d9f5f860)" style="fill: none; stroke: #1f77b4; stroke-opacity: 0.5; stroke-width: 5"/>
    <path d="M 317.829432 46.238125 
L 341.708182 46.238125 
" clip-path="url(#p05d9f5f860)" style="fill: none; stroke: #1f77b4; stroke-opacity: 0.5; stroke-width: 5"/>
    <path d="M 345.119432 46.238125 
L 346.980114 46.238125 
" clip-path="url(#p05d9f5f860)" style="fill: none; stroke: #1f77b4; stroke-opacity: 0.5; stroke-width: 5"/>
    <path d="M 349.150909 46.238125 
L 350.701477 46.238125 
" clip-path="url(#p05d9f5f860)" style="fill: none; stroke: #1f77b4; stroke-opacity: 0.5; stroke-width: 5"/>
    <path d="M 368.377955 46.238125 
L 378.301591 46.238125 
" clip-path="url(#p05d9f5f860)" style="fill: none; stroke: #1f77b4; stroke-opacity: 0.5; stroke-width: 5"/>
    <path d="M 387.294886 46.238125 
L 391.946591 46.238125 
" clip-path="url(#p05d9f5f860)" style="fill: none; stroke: #1f77b4; stroke-opacity: 0.5; stroke-width: 5"/>
    <path d="M 395.357841 46.238125 
L 398.148864 46.238125 
" clip-path="url(#p05d9f5f860)" style="fill: none; stroke: #1f77b4; stroke-opacity: 0.5; stroke-width: 5"/>
    <path d="M 399.389318 46.238125 
L 400.939886 46.238125 
" clip-path="url(#p05d9f5f860)" style="fill: none; stroke: #1f77b4; stroke-opacity: 0.5; stroke-width: 5"/>
    <path d="M 412.103977 46.238125 
L 413.654545 46.238125 
" clip-path="url(#p05d9f5f860)" style="fill: none; stroke: #1f77b4; stroke-opacity: 0.5; stroke-width: 5"/>
    <path d="M 421.407386 46.238125 
L 428.54 46.238125 
" clip-path="url(#p05d9f5f860)" style="fill: none; stroke: #1f77b4; stroke-opacity: 0.5; stroke-width: 5"/>
    <path d="M 436.602955 46.238125 
L 439.083864 46.238125 
" clip-path="url(#p05d9f5f860)" style="fill: none; stroke: #1f77b4; stroke-opacity: 0.5; stroke-width: 5"/>
    <path d="M 455.519886 46.238125 
L 460.791818 46.238125 
" clip-path="url(#p05d9f5f860)" style="fill: none; stroke: #1f77b4; stroke-opacity: 0.5; stroke-width: 5"/>
    <path d="M 462.6525 46.238125 
L 468.854773 46.238125 
" clip-path="url(#p05d9f5f860)" style="fill: none; stroke: #1f77b4; stroke-opacity: 0.5; stroke-width: 5"/>
    <path d="M 470.405341 46.238125 
L 479.088523 46.238125 
" clip-path="url(#p05d9f5f860)" style="fill: none; stroke: #1f77b4; stroke-opacity: 0.5; stroke-width: 5"/>
    <path d="M 486.841364 46.238125 
L 488.391932 46.238125 
" clip-path="url(#p05d9f5f860)" style="fill: none; stroke: #1f77b4; stroke-opacity: 0.5; stroke-width: 5"/>
    <path d="M 516.612273 46.238125 
L 522.194318 46.238125 
" clip-path="url(#p05d9f5f860)" style="fill: none; stroke: #1f77b4; stroke-opacity: 0.5; stroke-width: 5"/>
    <path d="M 527.156136 46.238125 
L 538.010114 46.238125 
" clip-path="url(#p05d9f5f860)" style="fill: none; stroke: #1f77b4; stroke-opacity: 0.5; stroke-width: 5"/>
   </g>
   <g id="LineCollection_2">
    <path d="M 66.637386 49.918125 
L 66.637386 42.558125 
" clip-path="url(#p05d9f5f860)" style="fill: none; stroke: #1f77b4; stroke-opacity: 0.5; stroke-width: 2"/>
    <path d="M 96.408295 49.918125 
L 96.408295 42.558125 
" clip-path="url(#p05d9f5f860)" style="fill: none; stroke: #1f77b4; stroke-opacity: 0.5; stroke-width: 2"/>
    <path d="M 98.889205 49.918125 
L 98.889205 42.558125 
" clip-path="url(#p05d9f5f860)" style="fill: none; stroke: #1f77b4; stroke-opacity: 0.5; stroke-width: 2"/>
    <path d="M 104.47125 49.918125 
L 104.47125 42.558125 
" clip-path="url(#p05d9f5f860)" style="fill: none; stroke: #1f77b4; stroke-opacity: 0.5; stroke-width: 2"/>
    <path d="M 112.224091 49.918125 
L 112.224091 42.558125 
" clip-path="url(#p05d9f5f860)" style="fill: none; stroke: #1f77b4; stroke-opacity: 0.5; stroke-width: 2"/>
    <path d="M 115.635341 49.918125 
L 115.635341 42.558125 
" clip-path="url(#p05d9f5f860)" style="fill: none; stroke: #1f77b4; stroke-opacity: 0.5; stroke-width: 2"/>
    <path d="M 119.046591 49.918125 
L 119.046591 42.558125 
" clip-path="url(#p05d9f5f860)" style="fill: none; stroke: #1f77b4; stroke-opacity: 0.5; stroke-width: 2"/>
    <path d="M 132.381477 49.918125 
L 132.381477 42.558125 
" clip-path="url(#p05d9f5f860)" style="fill: none; stroke: #1f77b4; stroke-opacity: 0.5; stroke-width: 2"/>
    <path d="M 181.689545 49.918125 
L 181.689545 42.558125 
" clip-path="url(#p05d9f5f860)" style="fill: none; stroke: #1f77b4; stroke-opacity: 0.5; stroke-width: 2"/>
    <path d="M 201.226705 49.918125 
L 201.226705 42.558125 
" clip-path="url(#p05d9f5f860)" style="fill: none; stroke: #1f77b4; stroke-opacity: 0.5; stroke-width: 2"/>
    <path d="M 201.846932 49.918125 
L 201.846932 42.558125 
" clip-path="url(#p05d9f5f860)" style="fill: none; stroke: #1f77b4; stroke-opacity: 0.5; stroke-width: 2"/>
    <path d="M 209.909886 49.918125 
L 209.909886 42.558125 
" clip-path="url(#p05d9f5f860)" style="fill: none; stroke: #1f77b4; stroke-opacity: 0.5; stroke-width: 2"/>
    <path d="M 222.004318 49.918125 
L 222.004318 42.558125 
" clip-path="url(#p05d9f5f860)" style="fill: none; stroke: #1f77b4; stroke-opacity: 0.5; stroke-width: 2"/>
    <path d="M 229.447045 49.918125 
L 229.447045 42.558125 
" clip-path="url(#p05d9f5f860)" style="fill: none; stroke: #1f77b4; stroke-opacity: 0.5; stroke-width: 2"/>
    <path d="M 258.597727 49.918125 
L 258.597727 42.558125 
" clip-path="url(#p05d9f5f860)" style="fill: none; stroke: #1f77b4; stroke-opacity: 0.5; stroke-width: 2"/>
    <path d="M 268.521364 49.918125 
L 268.521364 42.558125 
" clip-path="url(#p05d9f5f860)" style="fill: none; stroke: #1f77b4; stroke-opacity: 0.5; stroke-width: 2"/>
    <path d="M 273.793295 49.918125 
L 273.793295 42.558125 
" clip-path="url(#p05d9f5f860)" style="fill: none; stroke: #1f77b4; stroke-opacity: 0.5; stroke-width: 2"/>
    <path d="M 282.166364 49.918125 
L 282.166364 42.558125 
" clip-path="url(#p05d9f5f860)" style="fill: none; stroke: #1f77b4; stroke-opacity: 0.5; stroke-width: 2"/>
    <path d="M 288.368636 49.918125 
L 288.368636 42.558125 
" clip-path="url(#p05d9f5f860)" style="fill: none; stroke: #1f77b4; stroke-opacity: 0.5; stroke-width: 2"/>
    <path d="M 297.672045 49.918125 
L 297.672045 42.558125 
" clip-path="url(#p05d9f5f860)" style="fill: none; stroke: #1f77b4; stroke-opacity: 0.5; stroke-width: 2"/>
    <path d="M 307.905795 49.918125 
L 307.905795 42.558125 
" clip-path="url(#p05d9f5f860)" style="fill: none; stroke: #1f77b4; stroke-opacity: 0.5; stroke-width: 2"/>
    <path d="M 317.829432 49.918125 
L 317.829432 42.558125 
" clip-path="url(#p05d9f5f860)" style="fill: none; stroke: #1f77b4; stroke-opacity: 0.5; stroke-width: 2"/>
    <path d="M 345.119432 49.918125 
L 345.119432 42.558125 
" clip-path="url(#p05d9f5f860)" style="fill: none; stroke: #1f77b4; stroke-opacity: 0.5; stroke-width: 2"/>
    <path d="M 349.150909 49.918125 
L 349.150909 42.558125 
" clip-path="url(#p05d9f5f860)" style="fill: none; stroke: #1f77b4; stroke-opacity: 0.5; stroke-width: 2"/>
    <path d="M 368.377955 49.918125 
L 368.377955 42.558125 
" clip-path="url(#p05d9f5f860)" style="fill: none; stroke: #1f77b4; stroke-opacity: 0.5; stroke-width: 2"/>
    <path d="M 387.294886 49.918125 
L 387.294886 42.558125 
" clip-path="url(#p05d9f5f860)" style="fill: none; stroke: #1f77b4; stroke-opacity: 0.5; stroke-width: 2"/>
    <path d="M 395.357841 49.918125 
L 395.357841 42.558125 
" clip-path="url(#p05d9f5f860)" style="fill: none; stroke: #1f77b4; stroke-opacity: 0.5; stroke-width: 2"/>
    <path d="M 399.389318 49.918125 
L 399.389318 42.558125 
" clip-path="url(#p05d9f5f860)" style="fill: none; stroke: #1f77b4; stroke-opacity: 0.5; stroke-width: 2"/>
    <path d="M 412.103977 49.918125 
L 412.103977 42.558125 
" clip-path="url(#p05d9f5f860)" style="fill: none; stroke: #1f77b4; stroke-opacity: 0.5; stroke-width: 2"/>
    <path d="M 421.407386 49.918125 
L 421.407386 42.558125 
" clip-path="url(#p05d9f5f860)" style="fill: none; stroke: #1f77b4; stroke-opacity: 0.5; stroke-width: 2"/>
    <path d="M 436.602955 49.918125 
L 436.602955 42.558125 
" clip-path="url(#p05d9f5f860)" style="fill: none; stroke: #1f77b4; stroke-opacity: 0.5; stroke-width: 2"/>
    <path d="M 455.519886 49.918125 
L 455.519886 42.558125 
" clip-path="url(#p05d9f5f860)" style="fill: none; stroke: #1f77b4; stroke-opacity: 0.5; stroke-width: 2"/>
    <path d="M 462.6525 49.918125 
L 462.6525 42.558125 
" clip-path="url(#p05d9f5f860)" style="fill: none; stroke: #1f77b4; stroke-opacity: 0.5; stroke-width: 2"/>
    <path d="M 470.405341 49.918125 
L 470.405341 42.558125 
" clip-path="url(#p05d9f5f860)" style="fill: none; stroke: #1f77b4; stroke-opacity: 0.5; stroke-width: 2"/>
    <path d="M 486.841364 49.918125 
L 486.841364 42.558125 
" clip-path="url(#p05d9f5f860)" style="fill: none; stroke: #1f77b4; stroke-opacity: 0.5; stroke-width: 2"/>
    <path d="M 516.612273 49.918125 
L 516.612273 42.558125 
" clip-path="url(#p05d9f5f860)" style="fill: none; stroke: #1f77b4; stroke-opacity: 0.5; stroke-width: 2"/>
    <path d="M 527.156136 49.918125 
L 527.156136 42.558125 
" clip-path="url(#p05d9f5f860)" style="fill: none; stroke: #1f77b4; stroke-opacity: 0.5; stroke-width: 2"/>
   </g>
   <g id="LineCollection_3">
    <path d="M 73.149773 49.918125 
L 73.149773 42.558125 
" clip-path="url(#p05d9f5f860)" style="fill: none; stroke: #1f77b4; stroke-opacity: 0.5; stroke-width: 2"/>
    <path d="M 97.338636 49.918125 
L 97.338636 42.558125 
" clip-path="url(#p05d9f5f860)" style="fill: none; stroke: #1f77b4; stroke-opacity: 0.5; stroke-width: 2"/>
    <path d="M 99.819545 49.918125 
L 99.819545 42.558125 
" clip-path="url(#p05d9f5f860)" style="fill: none; stroke: #1f77b4; stroke-opacity: 0.5; stroke-width: 2"/>
    <path d="M 107.8825 49.918125 
L 107.8825 42.558125 
" clip-path="url(#p05d9f5f860)" style="fill: none; stroke: #1f77b4; stroke-opacity: 0.5; stroke-width: 2"/>
    <path d="M 114.705 49.918125 
L 114.705 42.558125 
" clip-path="url(#p05d9f5f860)" style="fill: none; stroke: #1f77b4; stroke-opacity: 0.5; stroke-width: 2"/>
    <path d="M 118.426364 49.918125 
L 118.426364 42.558125 
" clip-path="url(#p05d9f5f860)" style="fill: none; stroke: #1f77b4; stroke-opacity: 0.5; stroke-width: 2"/>
    <path d="M 128.35 49.918125 
L 128.35 42.558125 
" clip-path="url(#p05d9f5f860)" style="fill: none; stroke: #1f77b4; stroke-opacity: 0.5; stroke-width: 2"/>
    <path d="M 142.925341 49.918125 
L 142.925341 42.558125 
" clip-path="url(#p05d9f5f860)" style="fill: none; stroke: #1f77b4; stroke-opacity: 0.5; stroke-width: 2"/>
    <path d="M 194.714318 49.918125 
L 194.714318 42.558125 
" clip-path="url(#p05d9f5f860)" style="fill: none; stroke: #1f77b4; stroke-opacity: 0.5; stroke-width: 2"/>
    <path d="M 201.536818 49.918125 
L 201.536818 42.558125 
" clip-path="url(#p05d9f5f860)" style="fill: none; stroke: #1f77b4; stroke-opacity: 0.5; stroke-width: 2"/>
    <path d="M 205.258182 49.918125 
L 205.258182 42.558125 
" clip-path="url(#p05d9f5f860)" style="fill: none; stroke: #1f77b4; stroke-opacity: 0.5; stroke-width: 2"/>
    <path d="M 221.384091 49.918125 
L 221.384091 42.558125 
" clip-path="url(#p05d9f5f860)" style="fill: none; stroke: #1f77b4; stroke-opacity: 0.5; stroke-width: 2"/>
    <path d="M 222.624545 49.918125 
L 222.624545 42.558125 
" clip-path="url(#p05d9f5f860)" style="fill: none; stroke: #1f77b4; stroke-opacity: 0.5; stroke-width: 2"/>
    <path d="M 234.09875 49.918125 
L 234.09875 42.558125 
" clip-path="url(#p05d9f5f860)" style="fill: none; stroke: #1f77b4; stroke-opacity: 0.5; stroke-width: 2"/>
    <path d="M 259.528068 49.918125 
L 259.528068 42.558125 
" clip-path="url(#p05d9f5f860)" style="fill: none; stroke: #1f77b4; stroke-opacity: 0.5; stroke-width: 2"/>
    <path d="M 271.932614 49.918125 
L 271.932614 42.558125 
" clip-path="url(#p05d9f5f860)" style="fill: none; stroke: #1f77b4; stroke-opacity: 0.5; stroke-width: 2"/>
    <path d="M 281.85625 49.918125 
L 281.85625 42.558125 
" clip-path="url(#p05d9f5f860)" style="fill: none; stroke: #1f77b4; stroke-opacity: 0.5; stroke-width: 2"/>
    <path d="M 286.197841 49.918125 
L 286.197841 42.558125 
" clip-path="url(#p05d9f5f860)" style="fill: none; stroke: #1f77b4; stroke-opacity: 0.5; stroke-width: 2"/>
    <path d="M 295.811364 49.918125 
L 295.811364 42.558125 
" clip-path="url(#p05d9f5f860)" style="fill: none; stroke: #1f77b4; stroke-opacity: 0.5; stroke-width: 2"/>
    <path d="M 305.424886 49.918125 
L 305.424886 42.558125 
" clip-path="url(#p05d9f5f860)" style="fill: none; stroke: #1f77b4; stroke-opacity: 0.5; stroke-width: 2"/>
    <path d="M 313.487841 49.918125 
L 313.487841 42.558125 
" clip-path="url(#p05d9f5f860)" style="fill: none; stroke: #1f77b4; stroke-opacity: 0.5; stroke-width: 2"/>
    <path d="M 341.708182 49.918125 
L 341.708182 42.558125 
" clip-path="url(#p05d9f5f860)" style="fill: none; stroke: #1f77b4; stroke-opacity: 0.5; stroke-width: 2"/>
    <path d="M 346.980114 49.918125 
L 346.980114 42.558125 
" clip-path="url(#p05d9f5f860)" style="fill: none; stroke: #1f77b4; stroke-opacity: 0.5; stroke-width: 2"/>
    <path d="M 350.701477 49.918125 
L 350.701477 42.558125 
" clip-path="url(#p05d9f5f860)" style="fill: none; stroke: #1f77b4; stroke-opacity: 0.5; stroke-width: 2"/>
    <path d="M 378.301591 49.918125 
L 378.301591 42.558125 
" clip-path="url(#p05d9f5f860)" style="fill: none; stroke: #1f77b4; stroke-opacity: 0.5; stroke-width: 2"/>
    <path d="M 391.946591 49.918125 
L 391.946591 42.558125 
" clip-path="url(#p05d9f5f860)" style="fill: none; stroke: #1f77b4; stroke-opacity: 0.5; stroke-width: 2"/>
    <path d="M 398.148864 49.918125 
L 398.148864 42.558125 
" clip-path="url(#p05d9f5f860)" style="fill: none; stroke: #1f77b4; stroke-opacity: 0.5; stroke-width: 2"/>
    <path d="M 400.939886 49.918125 
L 400.939886 42.558125 
" clip-path="url(#p05d9f5f860)" style="fill: none; stroke: #1f77b4; stroke-opacity: 0.5; stroke-width: 2"/>
    <path d="M 413.654545 49.918125 
L 413.654545 42.558125 
" clip-path="url(#p05d9f5f860)" style="fill: none; stroke: #1f77b4; stroke-opacity: 0.5; stroke-width: 2"/>
    <path d="M 428.54 49.918125 
L 428.54 42.558125 
" clip-path="url(#p05d9f5f860)" style="fill: none; stroke: #1f77b4; stroke-opacity: 0.5; stroke-width: 2"/>
    <path d="M 439.083864 49.918125 
L 439.083864 42.558125 
" clip-path="url(#p05d9f5f860)" style="fill: none; stroke: #1f77b4; stroke-opacity: 0.5; stroke-width: 2"/>
    <path d="M 460.791818 49.918125 
L 460.791818 42.558125 
" clip-path="url(#p05d9f5f860)" style="fill: none; stroke: #1f77b4; stroke-opacity: 0.5; stroke-width: 2"/>
    <path d="M 468.854773 49.918125 
L 468.854773 42.558125 
" clip-path="url(#p05d9f5f860)" style="fill: none; stroke: #1f77b4; stroke-opacity: 0.5; stroke-width: 2"/>
    <path d="M 479.088523 49.918125 
L 479.088523 42.558125 
" clip-path="url(#p05d9f5f860)" style="fill: none; stroke: #1f77b4; stroke-opacity: 0.5; stroke-width: 2"/>
    <path d="M 488.391932 49.918125 
L 488.391932 42.558125 
" clip-path="url(#p05d9f5f860)" style="fill: none; stroke: #1f77b4; stroke-opacity: 0.5; stroke-width: 2"/>
    <path d="M 522.194318 49.918125 
L 522.194318 42.558125 
" clip-path="url(#p05d9f5f860)" style="fill: none; stroke: #1f77b4; stroke-opacity: 0.5; stroke-width: 2"/>
    <path d="M 538.010114 49.918125 
L 538.010114 42.558125 
" clip-path="url(#p05d9f5f860)" style="fill: none; stroke: #1f77b4; stroke-opacity: 0.5; stroke-width: 2"/>
   </g>
   <g id="LineCollection_4">
    <path d="M 126.603356 27.838125 
L 126.914124 27.838125 
" clip-path="url(#p05d9f5f860)" style="fill: none; stroke: #ff7f0e; stroke-opacity: 0.5; stroke-width: 5"/>
    <path d="M 130.940032 27.838125 
L 131.28406 27.838125 
" clip-path="url(#p05d9f5f860)" style="fill: none; stroke: #ff7f0e; stroke-opacity: 0.5; stroke-width: 5"/>
    <path d="M 178.350062 27.838125 
L 178.969359 27.838125 
" clip-path="url(#p05d9f5f860)" style="fill: none; stroke: #ff7f0e; stroke-opacity: 0.5; stroke-width: 5"/>
    <path d="M 181.490871 27.838125 
L 182.71921 27.838125 
" clip-path="url(#p05d9f5f860)" style="fill: none; stroke: #ff7f0e; stroke-opacity: 0.5; stroke-width: 5"/>
    <path d="M 219.574646 27.838125 
L 221.117784 27.838125 
" clip-path="url(#p05d9f5f860)" style="fill: none; stroke: #ff7f0e; stroke-opacity: 0.5; stroke-width: 5"/>
    <path d="M 223.621204 27.838125 
L 225.553547 27.838125 
" clip-path="url(#p05d9f5f860)" style="fill: none; stroke: #ff7f0e; stroke-opacity: 0.5; stroke-width: 5"/>
    <path d="M 233.177697 27.838125 
L 233.809777 27.838125 
" clip-path="url(#p05d9f5f860)" style="fill: none; stroke: #ff7f0e; stroke-opacity: 0.5; stroke-width: 5"/>
    <path d="M 258.586991 27.838125 
L 259.197329 27.838125 
" clip-path="url(#p05d9f5f860)" style="fill: none; stroke: #ff7f0e; stroke-opacity: 0.5; stroke-width: 5"/>
    <path d="M 285.8567 27.838125 
L 286.661997 27.838125 
" clip-path="url(#p05d9f5f860)" style="fill: none; stroke: #ff7f0e; stroke-opacity: 0.5; stroke-width: 5"/>
    <path d="M 288.643912 27.838125 
L 289.746394 27.838125 
" clip-path="url(#p05d9f5f860)" style="fill: none; stroke: #ff7f0e; stroke-opacity: 0.5; stroke-width: 5"/>
    <path d="M 296.560592 27.838125 
L 297.472599 27.838125 
" clip-path="url(#p05d9f5f860)" style="fill: none; stroke: #ff7f0e; stroke-opacity: 0.5; stroke-width: 5"/>
    <path d="M 364.50448 27.838125 
L 364.779154 27.838125 
" clip-path="url(#p05d9f5f860)" style="fill: none; stroke: #ff7f0e; stroke-opacity: 0.5; stroke-width: 5"/>
    <path d="M 401.492186 27.838125 
L 402.674867 27.838125 
" clip-path="url(#p05d9f5f860)" style="fill: none; stroke: #ff7f0e; stroke-opacity: 0.5; stroke-width: 5"/>
    <path d="M 411.182571 27.838125 
L 412.093247 27.838125 
" clip-path="url(#p05d9f5f860)" style="fill: none; stroke: #ff7f0e; stroke-opacity: 0.5; stroke-width: 5"/>
    <path d="M 450.800695 27.838125 
L 451.107487 27.838125 
" clip-path="url(#p05d9f5f860)" style="fill: none; stroke: #ff7f0e; stroke-opacity: 0.5; stroke-width: 5"/>
    <path d="M 459.360914 27.838125 
L 460.618251 27.838125 
" clip-path="url(#p05d9f5f860)" style="fill: none; stroke: #ff7f0e; stroke-opacity: 0.5; stroke-width: 5"/>
    <path d="M 464.21479 27.838125 
L 465.138886 27.838125 
" clip-path="url(#p05d9f5f860)" style="fill: none; stroke: #ff7f0e; stroke-opacity: 0.5; stroke-width: 5"/>
    <path d="M 468.342837 27.838125 
L 469.271274 27.838125 
" clip-path="url(#p05d9f5f860)" style="fill: none; stroke: #ff7f0e; stroke-opacity: 0.5; stroke-width: 5"/>
    <path d="M 533.68601 27.838125 
L 534.953658 27.838125 
" clip-path="url(#p05d9f5f860)" style="fill: none; stroke: #ff7f0e; stroke-opacity: 0.5; stroke-width: 5"/>
   </g>
   <g id="LineCollection_5">
    <path d="M 126.603356 31.518125 
L 126.603356 24.158125 
" clip-path="url(#p05d9f5f860)" style="fill: none; stroke: #ff7f0e; stroke-opacity: 0.5; stroke-width: 2"/>
    <path d="M 130.940032 31.518125 
L 130.940032 24.158125 
" clip-path="url(#p05d9f5f860)" style="fill: none; stroke: #ff7f0e; stroke-opacity: 0.5; stroke-width: 2"/>
    <path d="M 178.350062 31.518125 
L 178.350062 24.158125 
" clip-path="url(#p05d9f5f860)" style="fill: none; stroke: #ff7f0e; stroke-opacity: 0.5; stroke-width: 2"/>
    <path d="M 181.490871 31.518125 
L 181.490871 24.158125 
" clip-path="url(#p05d9f5f860)" style="fill: none; stroke: #ff7f0e; stroke-opacity: 0.5; stroke-width: 2"/>
    <path d="M 219.574646 31.518125 
L 219.574646 24.158125 
" clip-path="url(#p05d9f5f860)" style="fill: none; stroke: #ff7f0e; stroke-opacity: 0.5; stroke-width: 2"/>
    <path d="M 223.621204 31.518125 
L 223.621204 24.158125 
" clip-path="url(#p05d9f5f860)" style="fill: none; stroke: #ff7f0e; stroke-opacity: 0.5; stroke-width: 2"/>
    <path d="M 233.177697 31.518125 
L 233.177697 24.158125 
" clip-path="url(#p05d9f5f860)" style="fill: none; stroke: #ff7f0e; stroke-opacity: 0.5; stroke-width: 2"/>
    <path d="M 258.586991 31.518125 
L 258.586991 24.158125 
" clip-path="url(#p05d9f5f860)" style="fill: none; stroke: #ff7f0e; stroke-opacity: 0.5; stroke-width: 2"/>
    <path d="M 285.8567 31.518125 
L 285.8567 24.158125 
" clip-path="url(#p05d9f5f860)" style="fill: none; stroke: #ff7f0e; stroke-opacity: 0.5; stroke-width: 2"/>
    <path d="M 288.643912 31.518125 
L 288.643912 24.158125 
" clip-path="url(#p05d9f5f860)" style="fill: none; stroke: #ff7f0e; stroke-opacity: 0.5; stroke-width: 2"/>
    <path d="M 296.560592 31.518125 
L 296.560592 24.158125 
" clip-path="url(#p05d9f5f860)" style="fill: none; stroke: #ff7f0e; stroke-opacity: 0.5; stroke-width: 2"/>
    <path d="M 364.50448 31.518125 
L 364.50448 24.158125 
" clip-path="url(#p05d9f5f860)" style="fill: none; stroke: #ff7f0e; stroke-opacity: 0.5; stroke-width: 2"/>
    <path d="M 401.492186 31.518125 
L 401.492186 24.158125 
" clip-path="url(#p05d9f5f860)" style="fill: none; stroke: #ff7f0e; stroke-opacity: 0.5; stroke-width: 2"/>
    <path d="M 411.182571 31.518125 
L 411.182571 24.158125 
" clip-path="url(#p05d9f5f860)" style="fill: none; stroke: #ff7f0e; stroke-opacity: 0.5; stroke-width: 2"/>
    <path d="M 450.800695 31.518125 
L 450.800695 24.158125 
" clip-path="url(#p05d9f5f860)" style="fill: none; stroke: #ff7f0e; stroke-opacity: 0.5; stroke-width: 2"/>
    <path d="M 459.360914 31.518125 
L 459.360914 24.158125 
" clip-path="url(#p05d9f5f860)" style="fill: none; stroke: #ff7f0e; stroke-opacity: 0.5; stroke-width: 2"/>
    <path d="M 464.21479 31.518125 
L 464.21479 24.158125 
" clip-path="url(#p05d9f5f860)" style="fill: none; stroke: #ff7f0e; stroke-opacity: 0.5; stroke-width: 2"/>
    <path d="M 468.342837 31.518125 
L 468.342837 24.158125 
" clip-path="url(#p05d9f5f860)" style="fill: none; stroke: #ff7f0e; stroke-opacity: 0.5; stroke-width: 2"/>
    <path d="M 533.68601 31.518125 
L 533.68601 24.158125 
" clip-path="url(#p05d9f5f860)" style="fill: none; stroke: #ff7f0e; stroke-opacity: 0.5; stroke-width: 2"/>
   </g>
   <g id="LineCollection_6">
    <path d="M 126.914124 31.518125 
L 126.914124 24.158125 
" clip-path="url(#p05d9f5f860)" style="fill: none; stroke: #ff7f0e; stroke-opacity: 0.5; stroke-width: 2"/>
    <path d="M 131.28406 31.518125 
L 131.28406 24.158125 
" clip-path="url(#p05d9f5f860)" style="fill: none; stroke: #ff7f0e; stroke-opacity: 0.5; stroke-width: 2"/>
    <path d="M 178.969359 31.518125 
L 178.969359 24.158125 
" clip-path="url(#p05d9f5f860)" style="fill: none; stroke: #ff7f0e; stroke-opacity: 0.5; stroke-width: 2"/>
    <path d="M 182.71921 31.518125 
L 182.71921 24.158125 
" clip-path="url(#p05d9f5f860)" style="fill: none; stroke: #ff7f0e; stroke-opacity: 0.5; stroke-width: 2"/>
    <path d="M 221.117784 31.518125 
L 221.117784 24.158125 
" clip-path="url(#p05d9f5f860)" style="fill: none; stroke: #ff7f0e; stroke-opacity: 0.5; stroke-width: 2"/>
    <path d="M 225.553547 31.518125 
L 225.553547 24.158125 
" clip-path="url(#p05d9f5f860)" style="fill: none; stroke: #ff7f0e; stroke-opacity: 0.5; stroke-width: 2"/>
    <path d="M 233.809777 31.518125 
L 233.809777 24.158125 
" clip-path="url(#p05d9f5f860)" style="fill: none; stroke: #ff7f0e; stroke-opacity: 0.5; stroke-width: 2"/>
    <path d="M 259.197329 31.518125 
L 259.197329 24.158125 
" clip-path="url(#p05d9f5f860)" style="fill: none; stroke: #ff7f0e; stroke-opacity: 0.5; stroke-width: 2"/>
    <path d="M 286.661997 31.518125 
L 286.661997 24.158125 
" clip-path="url(#p05d9f5f860)" style="fill: none; stroke: #ff7f0e; stroke-opacity: 0.5; stroke-width: 2"/>
    <path d="M 289.746394 31.518125 
L 289.746394 24.158125 
" clip-path="url(#p05d9f5f860)" style="fill: none; stroke: #ff7f0e; stroke-opacity: 0.5; stroke-width: 2"/>
    <path d="M 297.472599 31.518125 
L 297.472599 24.158125 
" clip-path="url(#p05d9f5f860)" style="fill: none; stroke: #ff7f0e; stroke-opacity: 0.5; stroke-width: 2"/>
    <path d="M 364.779154 31.518125 
L 364.779154 24.158125 
" clip-path="url(#p05d9f5f860)" style="fill: none; stroke: #ff7f0e; stroke-opacity: 0.5; stroke-width: 2"/>
    <path d="M 402.674867 31.518125 
L 402.674867 24.158125 
" clip-path="url(#p05d9f5f860)" style="fill: none; stroke: #ff7f0e; stroke-opacity: 0.5; stroke-width: 2"/>
    <path d="M 412.093247 31.518125 
L 412.093247 24.158125 
" clip-path="url(#p05d9f5f860)" style="fill: none; stroke: #ff7f0e; stroke-opacity: 0.5; stroke-width: 2"/>
    <path d="M 451.107487 31.518125 
L 451.107487 24.158125 
" clip-path="url(#p05d9f5f860)" style="fill: none; stroke: #ff7f0e; stroke-opacity: 0.5; stroke-width: 2"/>
    <path d="M 460.618251 31.518125 
L 460.618251 24.158125 
" clip-path="url(#p05d9f5f860)" style="fill: none; stroke: #ff7f0e; stroke-opacity: 0.5; stroke-width: 2"/>
    <path d="M 465.138886 31.518125 
L 465.138886 24.158125 
" clip-path="url(#p05d9f5f860)" style="fill: none; stroke: #ff7f0e; stroke-opacity: 0.5; stroke-width: 2"/>
    <path d="M 469.271274 31.518125 
L 469.271274 24.158125 
" clip-path="url(#p05d9f5f860)" style="fill: none; stroke: #ff7f0e; stroke-opacity: 0.5; stroke-width: 2"/>
    <path d="M 534.953658 31.518125 
L 534.953658 24.158125 
" clip-path="url(#p05d9f5f860)" style="fill: none; stroke: #ff7f0e; stroke-opacity: 0.5; stroke-width: 2"/>
   </g>
   <g id="patch_3">
    <path d="M 43.06875 64.638125 
L 561.57875 64.638125 
" style="fill: none; stroke: #000000; stroke-width: 0.8; stroke-linejoin: miter; stroke-linecap: square"/>
   </g>
   <g id="text_12">
    <!-- round_spermatid_100kb_10Mb_smoothed -->
    <g transform="translate(177.244375 16.318125) scale(0.12 -0.12)">
     <defs>
      <path id="DejaVuSans-64" d="M 2906 2969 
L 2906 4863 
L 3481 4863 
L 3481 0 
L 2906 0 
L 2906 525 
Q 2725 213 2448 61 
Q 2172 -91 1784 -91 
Q 1150 -91 751 415 
Q 353 922 353 1747 
Q 353 2572 751 3078 
Q 1150 3584 1784 3584 
Q 2172 3584 2448 3432 
Q 2725 3281 2906 2969 
z
M 947 1747 
Q 947 1113 1208 752 
Q 1469 391 1925 391 
Q 2381 391 2643 752 
Q 2906 1113 2906 1747 
Q 2906 2381 2643 2742 
Q 2381 3103 1925 3103 
Q 1469 3103 1208 2742 
Q 947 2381 947 1747 
z
" transform="scale(0.015625)"/>
      <path id="DejaVuSans-5f" d="M 3263 -1063 
L 3263 -1509 
L -63 -1509 
L -63 -1063 
L 3263 -1063 
z
" transform="scale(0.015625)"/>
      <path id="DejaVuSans-73" d="M 2834 3397 
L 2834 2853 
Q 2591 2978 2328 3040 
Q 2066 3103 1784 3103 
Q 1356 3103 1142 2972 
Q 928 2841 928 2578 
Q 928 2378 1081 2264 
Q 1234 2150 1697 2047 
L 1894 2003 
Q 2506 1872 2764 1633 
Q 3022 1394 3022 966 
Q 3022 478 2636 193 
Q 2250 -91 1575 -91 
Q 1294 -91 989 -36 
Q 684 19 347 128 
L 347 722 
Q 666 556 975 473 
Q 1284 391 1588 391 
Q 1994 391 2212 530 
Q 2431 669 2431 922 
Q 2431 1156 2273 1281 
Q 2116 1406 1581 1522 
L 1381 1569 
Q 847 1681 609 1914 
Q 372 2147 372 2553 
Q 372 3047 722 3315 
Q 1072 3584 1716 3584 
Q 2034 3584 2315 3537 
Q 2597 3491 2834 3397 
z
" transform="scale(0.015625)"/>
      <path id="DejaVuSans-70" d="M 1159 525 
L 1159 -1331 
L 581 -1331 
L 581 3500 
L 1159 3500 
L 1159 2969 
Q 1341 3281 1617 3432 
Q 1894 3584 2278 3584 
Q 2916 3584 3314 3078 
Q 3713 2572 3713 1747 
Q 3713 922 3314 415 
Q 2916 -91 2278 -91 
Q 1894 -91 1617 61 
Q 1341 213 1159 525 
z
M 3116 1747 
Q 3116 2381 2855 2742 
Q 2594 3103 2138 3103 
Q 1681 3103 1420 2742 
Q 1159 2381 1159 1747 
Q 1159 1113 1420 752 
Q 1681 391 2138 391 
Q 2594 391 2855 752 
Q 3116 1113 3116 1747 
z
" transform="scale(0.015625)"/>
      <path id="DejaVuSans-6d" d="M 3328 2828 
Q 3544 3216 3844 3400 
Q 4144 3584 4550 3584 
Q 5097 3584 5394 3201 
Q 5691 2819 5691 2113 
L 5691 0 
L 5113 0 
L 5113 2094 
Q 5113 2597 4934 2840 
Q 4756 3084 4391 3084 
Q 3944 3084 3684 2787 
Q 3425 2491 3425 1978 
L 3425 0 
L 2847 0 
L 2847 2094 
Q 2847 2600 2669 2842 
Q 2491 3084 2119 3084 
Q 1678 3084 1418 2786 
Q 1159 2488 1159 1978 
L 1159 0 
L 581 0 
L 581 3500 
L 1159 3500 
L 1159 2956 
Q 1356 3278 1631 3431 
Q 1906 3584 2284 3584 
Q 2666 3584 2933 3390 
Q 3200 3197 3328 2828 
z
" transform="scale(0.015625)"/>
      <path id="DejaVuSans-69" d="M 603 3500 
L 1178 3500 
L 1178 0 
L 603 0 
L 603 3500 
z
M 603 4863 
L 1178 4863 
L 1178 4134 
L 603 4134 
L 603 4863 
z
" transform="scale(0.015625)"/>
      <path id="DejaVuSans-6b" d="M 581 4863 
L 1159 4863 
L 1159 1991 
L 2875 3500 
L 3609 3500 
L 1753 1863 
L 3688 0 
L 2938 0 
L 1159 1709 
L 1159 0 
L 581 0 
L 581 4863 
z
" transform="scale(0.015625)"/>
      <path id="DejaVuSans-62" d="M 3116 1747 
Q 3116 2381 2855 2742 
Q 2594 3103 2138 3103 
Q 1681 3103 1420 2742 
Q 1159 2381 1159 1747 
Q 1159 1113 1420 752 
Q 1681 391 2138 391 
Q 2594 391 2855 752 
Q 3116 1113 3116 1747 
z
M 1159 2969 
Q 1341 3281 1617 3432 
Q 1894 3584 2278 3584 
Q 2916 3584 3314 3078 
Q 3713 2572 3713 1747 
Q 3713 922 3314 415 
Q 2916 -91 2278 -91 
Q 1894 -91 1617 61 
Q 1341 213 1159 525 
L 1159 0 
L 581 0 
L 581 4863 
L 1159 4863 
L 1159 2969 
z
" transform="scale(0.015625)"/>
      <path id="DejaVuSans-4d" d="M 628 4666 
L 1569 4666 
L 2759 1491 
L 3956 4666 
L 4897 4666 
L 4897 0 
L 4281 0 
L 4281 4097 
L 3078 897 
L 2444 897 
L 1241 4097 
L 1241 0 
L 628 0 
L 628 4666 
z
" transform="scale(0.015625)"/>
      <path id="DejaVuSans-68" d="M 3513 2113 
L 3513 0 
L 2938 0 
L 2938 2094 
Q 2938 2591 2744 2837 
Q 2550 3084 2163 3084 
Q 1697 3084 1428 2787 
Q 1159 2491 1159 1978 
L 1159 0 
L 581 0 
L 581 4863 
L 1159 4863 
L 1159 2956 
Q 1366 3272 1645 3428 
Q 1925 3584 2291 3584 
Q 2894 3584 3203 3211 
Q 3513 2838 3513 2113 
z
" transform="scale(0.015625)"/>
     </defs>
     <use xlink:href="#DejaVuSans-72"/>
     <use xlink:href="#DejaVuSans-6f" x="38.863281"/>
     <use xlink:href="#DejaVuSans-75" x="100.044922"/>
     <use xlink:href="#DejaVuSans-6e" x="163.423828"/>
     <use xlink:href="#DejaVuSans-64" x="226.802734"/>
     <use xlink:href="#DejaVuSans-5f" x="290.279297"/>
     <use xlink:href="#DejaVuSans-73" x="340.279297"/>
     <use xlink:href="#DejaVuSans-70" x="392.378906"/>
     <use xlink:href="#DejaVuSans-65" x="455.855469"/>
     <use xlink:href="#DejaVuSans-72" x="517.378906"/>
     <use xlink:href="#DejaVuSans-6d" x="556.742188"/>
     <use xlink:href="#DejaVuSans-61" x="654.154297"/>
     <use xlink:href="#DejaVuSans-74" x="715.433594"/>
     <use xlink:href="#DejaVuSans-69" x="754.642578"/>
     <use xlink:href="#DejaVuSans-64" x="782.425781"/>
     <use xlink:href="#DejaVuSans-5f" x="845.902344"/>
     <use xlink:href="#DejaVuSans-31" x="895.902344"/>
     <use xlink:href="#DejaVuSans-30" x="959.525391"/>
     <use xlink:href="#DejaVuSans-30" x="1023.148438"/>
     <use xlink:href="#DejaVuSans-6b" x="1086.771484"/>
     <use xlink:href="#DejaVuSans-62" x="1144.681641"/>
     <use xlink:href="#DejaVuSans-5f" x="1208.158203"/>
     <use xlink:href="#DejaVuSans-31" x="1258.158203"/>
     <use xlink:href="#DejaVuSans-30" x="1321.78125"/>
     <use xlink:href="#DejaVuSans-4d" x="1385.404297"/>
     <use xlink:href="#DejaVuSans-62" x="1471.683594"/>
     <use xlink:href="#DejaVuSans-5f" x="1535.160156"/>
     <use xlink:href="#DejaVuSans-73" x="1585.160156"/>
     <use xlink:href="#DejaVuSans-6d" x="1637.259766"/>
     <use xlink:href="#DejaVuSans-6f" x="1734.671875"/>
     <use xlink:href="#DejaVuSans-6f" x="1795.853516"/>
     <use xlink:href="#DejaVuSans-74" x="1857.035156"/>
     <use xlink:href="#DejaVuSans-68" x="1896.244141"/>
     <use xlink:href="#DejaVuSans-65" x="1959.623047"/>
     <use xlink:href="#DejaVuSans-64" x="2021.146484"/>
    </g>
   </g>
   <g id="text_13">
    <!-- chrX -->
    <g transform="translate(43.06875 16.318125) scale(0.1 -0.1)">
     <defs>
      <path id="DejaVuSans-63" d="M 3122 3366 
L 3122 2828 
Q 2878 2963 2633 3030 
Q 2388 3097 2138 3097 
Q 1578 3097 1268 2742 
Q 959 2388 959 1747 
Q 959 1106 1268 751 
Q 1578 397 2138 397 
Q 2388 397 2633 464 
Q 2878 531 3122 666 
L 3122 134 
Q 2881 22 2623 -34 
Q 2366 -91 2075 -91 
Q 1284 -91 818 406 
Q 353 903 353 1747 
Q 353 2603 823 3093 
Q 1294 3584 2113 3584 
Q 2378 3584 2631 3529 
Q 2884 3475 3122 3366 
z
" transform="scale(0.015625)"/>
      <path id="DejaVuSans-58" d="M 403 4666 
L 1081 4666 
L 2241 2931 
L 3406 4666 
L 4084 4666 
L 2584 2425 
L 4184 0 
L 3506 0 
L 2194 1984 
L 872 0 
L 191 0 
L 1856 2491 
L 403 4666 
z
" transform="scale(0.015625)"/>
     </defs>
     <use xlink:href="#DejaVuSans-63"/>
     <use xlink:href="#DejaVuSans-68" x="54.980469"/>
     <use xlink:href="#DejaVuSans-72" x="118.359375"/>
     <use xlink:href="#DejaVuSans-58" x="159.472656"/>
    </g>
   </g>
  </g>
 </g>
 <defs>
  <clipPath id="p05d9f5f860">
   <rect x="43.06875" y="22.318125" width="518.51" height="42.32"/>
  </clipPath>
 </defs>
</svg>
