<?xml version="1.0" encoding="utf-8" standalone="no"?>
<!DOCTYPE svg PUBLIC "-//W3C//DTD SVG 1.1//EN"
  "http://www.w3.org/Graphics/SVG/1.1/DTD/svg11.dtd">
<svg xmlns:xlink="http://www.w3.org/1999/xlink" width="568.396226pt" height="101.194375pt" viewBox="0 0 568.396226 101.194375" xmlns="http://www.w3.org/2000/svg" version="1.1">
 <metadata>
  <rdf:RDF xmlns:dc="http://purl.org/dc/elements/1.1/" xmlns:cc="http://creativecommons.org/ns#" xmlns:rdf="http://www.w3.org/1999/02/22-rdf-syntax-ns#">
   <cc:Work>
    <dc:type rdf:resource="http://purl.org/dc/dcmitype/StillImage"/>
    <dc:date>2024-11-27T12:26:53.484806</dc:date>
    <dc:format>image/svg+xml</dc:format>
    <dc:creator>
     <cc:Agent>
      <dc:title>Matplotlib v3.8.4, https://matplotlib.org/</dc:title>
     </cc:Agent>
    </dc:creator>
   </cc:Work>
  </rdf:RDF>
 </metadata>
 <defs>
  <style type="text/css">*{stroke-linejoin: round; stroke-linecap: butt}</style>
 </defs>
 <g id="figure_1">
  <g id="patch_1">
   <path d="M 0 101.194375 
L 568.396226 101.194375 
L 568.396226 0 
L 0 0 
z
" style="fill: #ffffff"/>
  </g>
  <g id="axes_1">
   <g id="patch_2">
    <path d="M 43.06875 64.638125 
L 556.086954 64.638125 
L 556.086954 22.318125 
L 43.06875 22.318125 
z
" style="fill: #ffffff"/>
   </g>
   <g id="matplotlib.axis_1">
    <g id="xtick_1">
     <g id="line2d_1">
      <defs>
       <path id="m5d698cf458" d="M 0 0 
L 0 3.5 
" style="stroke: #000000; stroke-width: 0.8"/>
      </defs>
      <g>
       <use xlink:href="#m5d698cf458" x="64.248401" y="64.638125" style="stroke: #000000; stroke-width: 0.8"/>
      </g>
     </g>
     <g id="text_1">
      <!-- 0.0 -->
      <g transform="translate(56.296838 79.236563) scale(0.1 -0.1)">
       <defs>
        <path id="DejaVuSans-30" d="M 2034 4250 
Q 1547 4250 1301 3770 
Q 1056 3291 1056 2328 
Q 1056 1369 1301 889 
Q 1547 409 2034 409 
Q 2525 409 2770 889 
Q 3016 1369 3016 2328 
Q 3016 3291 2770 3770 
Q 2525 4250 2034 4250 
z
M 2034 4750 
Q 2819 4750 3233 4129 
Q 3647 3509 3647 2328 
Q 3647 1150 3233 529 
Q 2819 -91 2034 -91 
Q 1250 -91 836 529 
Q 422 1150 422 2328 
Q 422 3509 836 4129 
Q 1250 4750 2034 4750 
z
" transform="scale(0.015625)"/>
        <path id="DejaVuSans-2e" d="M 684 794 
L 1344 794 
L 1344 0 
L 684 0 
L 684 794 
z
" transform="scale(0.015625)"/>
       </defs>
       <use xlink:href="#DejaVuSans-30"/>
       <use xlink:href="#DejaVuSans-2e" x="63.623047"/>
       <use xlink:href="#DejaVuSans-30" x="95.410156"/>
      </g>
     </g>
    </g>
    <g id="xtick_2">
     <g id="line2d_2">
      <g>
       <use xlink:href="#m5d698cf458" x="125.372933" y="64.638125" style="stroke: #000000; stroke-width: 0.8"/>
      </g>
     </g>
     <g id="text_2">
      <!-- 0.2 -->
      <g transform="translate(117.421371 79.236563) scale(0.1 -0.1)">
       <defs>
        <path id="DejaVuSans-32" d="M 1228 531 
L 3431 531 
L 3431 0 
L 469 0 
L 469 531 
Q 828 903 1448 1529 
Q 2069 2156 2228 2338 
Q 2531 2678 2651 2914 
Q 2772 3150 2772 3378 
Q 2772 3750 2511 3984 
Q 2250 4219 1831 4219 
Q 1534 4219 1204 4116 
Q 875 4013 500 3803 
L 500 4441 
Q 881 4594 1212 4672 
Q 1544 4750 1819 4750 
Q 2544 4750 2975 4387 
Q 3406 4025 3406 3419 
Q 3406 3131 3298 2873 
Q 3191 2616 2906 2266 
Q 2828 2175 2409 1742 
Q 1991 1309 1228 531 
z
" transform="scale(0.015625)"/>
       </defs>
       <use xlink:href="#DejaVuSans-30"/>
       <use xlink:href="#DejaVuSans-2e" x="63.623047"/>
       <use xlink:href="#DejaVuSans-32" x="95.410156"/>
      </g>
     </g>
    </g>
    <g id="xtick_3">
     <g id="line2d_3">
      <g>
       <use xlink:href="#m5d698cf458" x="186.497466" y="64.638125" style="stroke: #000000; stroke-width: 0.8"/>
      </g>
     </g>
     <g id="text_3">
      <!-- 0.4 -->
      <g transform="translate(178.545904 79.236563) scale(0.1 -0.1)">
       <defs>
        <path id="DejaVuSans-34" d="M 2419 4116 
L 825 1625 
L 2419 1625 
L 2419 4116 
z
M 2253 4666 
L 3047 4666 
L 3047 1625 
L 3713 1625 
L 3713 1100 
L 3047 1100 
L 3047 0 
L 2419 0 
L 2419 1100 
L 313 1100 
L 313 1709 
L 2253 4666 
z
" transform="scale(0.015625)"/>
       </defs>
       <use xlink:href="#DejaVuSans-30"/>
       <use xlink:href="#DejaVuSans-2e" x="63.623047"/>
       <use xlink:href="#DejaVuSans-34" x="95.410156"/>
      </g>
     </g>
    </g>
    <g id="xtick_4">
     <g id="line2d_4">
      <g>
       <use xlink:href="#m5d698cf458" x="247.621999" y="64.638125" style="stroke: #000000; stroke-width: 0.8"/>
      </g>
     </g>
     <g id="text_4">
      <!-- 0.6 -->
      <g transform="translate(239.670437 79.236563) scale(0.1 -0.1)">
       <defs>
        <path id="DejaVuSans-36" d="M 2113 2584 
Q 1688 2584 1439 2293 
Q 1191 2003 1191 1497 
Q 1191 994 1439 701 
Q 1688 409 2113 409 
Q 2538 409 2786 701 
Q 3034 994 3034 1497 
Q 3034 2003 2786 2293 
Q 2538 2584 2113 2584 
z
M 3366 4563 
L 3366 3988 
Q 3128 4100 2886 4159 
Q 2644 4219 2406 4219 
Q 1781 4219 1451 3797 
Q 1122 3375 1075 2522 
Q 1259 2794 1537 2939 
Q 1816 3084 2150 3084 
Q 2853 3084 3261 2657 
Q 3669 2231 3669 1497 
Q 3669 778 3244 343 
Q 2819 -91 2113 -91 
Q 1303 -91 875 529 
Q 447 1150 447 2328 
Q 447 3434 972 4092 
Q 1497 4750 2381 4750 
Q 2619 4750 2861 4703 
Q 3103 4656 3366 4563 
z
" transform="scale(0.015625)"/>
       </defs>
       <use xlink:href="#DejaVuSans-30"/>
       <use xlink:href="#DejaVuSans-2e" x="63.623047"/>
       <use xlink:href="#DejaVuSans-36" x="95.410156"/>
      </g>
     </g>
    </g>
    <g id="xtick_5">
     <g id="line2d_5">
      <g>
       <use xlink:href="#m5d698cf458" x="308.746532" y="64.638125" style="stroke: #000000; stroke-width: 0.8"/>
      </g>
     </g>
     <g id="text_5">
      <!-- 0.8 -->
      <g transform="translate(300.794969 79.236563) scale(0.1 -0.1)">
       <defs>
        <path id="DejaVuSans-38" d="M 2034 2216 
Q 1584 2216 1326 1975 
Q 1069 1734 1069 1313 
Q 1069 891 1326 650 
Q 1584 409 2034 409 
Q 2484 409 2743 651 
Q 3003 894 3003 1313 
Q 3003 1734 2745 1975 
Q 2488 2216 2034 2216 
z
M 1403 2484 
Q 997 2584 770 2862 
Q 544 3141 544 3541 
Q 544 4100 942 4425 
Q 1341 4750 2034 4750 
Q 2731 4750 3128 4425 
Q 3525 4100 3525 3541 
Q 3525 3141 3298 2862 
Q 3072 2584 2669 2484 
Q 3125 2378 3379 2068 
Q 3634 1759 3634 1313 
Q 3634 634 3220 271 
Q 2806 -91 2034 -91 
Q 1263 -91 848 271 
Q 434 634 434 1313 
Q 434 1759 690 2068 
Q 947 2378 1403 2484 
z
M 1172 3481 
Q 1172 3119 1398 2916 
Q 1625 2713 2034 2713 
Q 2441 2713 2670 2916 
Q 2900 3119 2900 3481 
Q 2900 3844 2670 4047 
Q 2441 4250 2034 4250 
Q 1625 4250 1398 4047 
Q 1172 3844 1172 3481 
z
" transform="scale(0.015625)"/>
       </defs>
       <use xlink:href="#DejaVuSans-30"/>
       <use xlink:href="#DejaVuSans-2e" x="63.623047"/>
       <use xlink:href="#DejaVuSans-38" x="95.410156"/>
      </g>
     </g>
    </g>
    <g id="xtick_6">
     <g id="line2d_6">
      <g>
       <use xlink:href="#m5d698cf458" x="369.871065" y="64.638125" style="stroke: #000000; stroke-width: 0.8"/>
      </g>
     </g>
     <g id="text_6">
      <!-- 1.0 -->
      <g transform="translate(361.919502 79.236563) scale(0.1 -0.1)">
       <defs>
        <path id="DejaVuSans-31" d="M 794 531 
L 1825 531 
L 1825 4091 
L 703 3866 
L 703 4441 
L 1819 4666 
L 2450 4666 
L 2450 531 
L 3481 531 
L 3481 0 
L 794 0 
L 794 531 
z
" transform="scale(0.015625)"/>
       </defs>
       <use xlink:href="#DejaVuSans-31"/>
       <use xlink:href="#DejaVuSans-2e" x="63.623047"/>
       <use xlink:href="#DejaVuSans-30" x="95.410156"/>
      </g>
     </g>
    </g>
    <g id="xtick_7">
     <g id="line2d_7">
      <g>
       <use xlink:href="#m5d698cf458" x="430.995597" y="64.638125" style="stroke: #000000; stroke-width: 0.8"/>
      </g>
     </g>
     <g id="text_7">
      <!-- 1.2 -->
      <g transform="translate(423.044035 79.236563) scale(0.1 -0.1)">
       <use xlink:href="#DejaVuSans-31"/>
       <use xlink:href="#DejaVuSans-2e" x="63.623047"/>
       <use xlink:href="#DejaVuSans-32" x="95.410156"/>
      </g>
     </g>
    </g>
    <g id="xtick_8">
     <g id="line2d_8">
      <g>
       <use xlink:href="#m5d698cf458" x="492.12013" y="64.638125" style="stroke: #000000; stroke-width: 0.8"/>
      </g>
     </g>
     <g id="text_8">
      <!-- 1.4 -->
      <g transform="translate(484.168568 79.236563) scale(0.1 -0.1)">
       <use xlink:href="#DejaVuSans-31"/>
       <use xlink:href="#DejaVuSans-2e" x="63.623047"/>
       <use xlink:href="#DejaVuSans-34" x="95.410156"/>
      </g>
     </g>
    </g>
    <g id="xtick_9">
     <g id="line2d_9">
      <g>
       <use xlink:href="#m5d698cf458" x="553.244663" y="64.638125" style="stroke: #000000; stroke-width: 0.8"/>
      </g>
     </g>
     <g id="text_9">
      <!-- 1.6 -->
      <g transform="translate(545.293101 79.236563) scale(0.1 -0.1)">
       <use xlink:href="#DejaVuSans-31"/>
       <use xlink:href="#DejaVuSans-2e" x="63.623047"/>
       <use xlink:href="#DejaVuSans-36" x="95.410156"/>
      </g>
     </g>
    </g>
    <g id="text_10">
     <!-- 1e8 -->
     <g transform="translate(537.208829 91.914688) scale(0.1 -0.1)">
      <defs>
       <path id="DejaVuSans-65" d="M 3597 1894 
L 3597 1613 
L 953 1613 
Q 991 1019 1311 708 
Q 1631 397 2203 397 
Q 2534 397 2845 478 
Q 3156 559 3463 722 
L 3463 178 
Q 3153 47 2828 -22 
Q 2503 -91 2169 -91 
Q 1331 -91 842 396 
Q 353 884 353 1716 
Q 353 2575 817 3079 
Q 1281 3584 2069 3584 
Q 2775 3584 3186 3129 
Q 3597 2675 3597 1894 
z
M 3022 2063 
Q 3016 2534 2758 2815 
Q 2500 3097 2075 3097 
Q 1594 3097 1305 2825 
Q 1016 2553 972 2059 
L 3022 2063 
z
" transform="scale(0.015625)"/>
      </defs>
      <use xlink:href="#DejaVuSans-31"/>
      <use xlink:href="#DejaVuSans-65" x="63.623047"/>
      <use xlink:href="#DejaVuSans-38" x="125.146484"/>
     </g>
    </g>
   </g>
   <g id="matplotlib.axis_2">
    <g id="ytick_1">
     <g id="text_11">
      <!-- annot -->
      <g transform="translate(7.226562 50.037344) scale(0.1 -0.1)">
       <defs>
        <path id="DejaVuSans-61" d="M 2194 1759 
Q 1497 1759 1228 1600 
Q 959 1441 959 1056 
Q 959 750 1161 570 
Q 1363 391 1709 391 
Q 2188 391 2477 730 
Q 2766 1069 2766 1631 
L 2766 1759 
L 2194 1759 
z
M 3341 1997 
L 3341 0 
L 2766 0 
L 2766 531 
Q 2569 213 2275 61 
Q 1981 -91 1556 -91 
Q 1019 -91 701 211 
Q 384 513 384 1019 
Q 384 1609 779 1909 
Q 1175 2209 1959 2209 
L 2766 2209 
L 2766 2266 
Q 2766 2663 2505 2880 
Q 2244 3097 1772 3097 
Q 1472 3097 1187 3025 
Q 903 2953 641 2809 
L 641 3341 
Q 956 3463 1253 3523 
Q 1550 3584 1831 3584 
Q 2591 3584 2966 3190 
Q 3341 2797 3341 1997 
z
" transform="scale(0.015625)"/>
        <path id="DejaVuSans-6e" d="M 3513 2113 
L 3513 0 
L 2938 0 
L 2938 2094 
Q 2938 2591 2744 2837 
Q 2550 3084 2163 3084 
Q 1697 3084 1428 2787 
Q 1159 2491 1159 1978 
L 1159 0 
L 581 0 
L 581 3500 
L 1159 3500 
L 1159 2956 
Q 1366 3272 1645 3428 
Q 1925 3584 2291 3584 
Q 2894 3584 3203 3211 
Q 3513 2838 3513 2113 
z
" transform="scale(0.015625)"/>
        <path id="DejaVuSans-6f" d="M 1959 3097 
Q 1497 3097 1228 2736 
Q 959 2375 959 1747 
Q 959 1119 1226 758 
Q 1494 397 1959 397 
Q 2419 397 2687 759 
Q 2956 1122 2956 1747 
Q 2956 2369 2687 2733 
Q 2419 3097 1959 3097 
z
M 1959 3584 
Q 2709 3584 3137 3096 
Q 3566 2609 3566 1747 
Q 3566 888 3137 398 
Q 2709 -91 1959 -91 
Q 1206 -91 779 398 
Q 353 888 353 1747 
Q 353 2609 779 3096 
Q 1206 3584 1959 3584 
z
" transform="scale(0.015625)"/>
        <path id="DejaVuSans-74" d="M 1172 4494 
L 1172 3500 
L 2356 3500 
L 2356 3053 
L 1172 3053 
L 1172 1153 
Q 1172 725 1289 603 
Q 1406 481 1766 481 
L 2356 481 
L 2356 0 
L 1766 0 
Q 1100 0 847 248 
Q 594 497 594 1153 
L 594 3053 
L 172 3053 
L 172 3500 
L 594 3500 
L 594 4494 
L 1172 4494 
z
" transform="scale(0.015625)"/>
       </defs>
       <use xlink:href="#DejaVuSans-61"/>
       <use xlink:href="#DejaVuSans-6e" x="61.279297"/>
       <use xlink:href="#DejaVuSans-6e" x="124.658203"/>
       <use xlink:href="#DejaVuSans-6f" x="188.037109"/>
       <use xlink:href="#DejaVuSans-74" x="249.21875"/>
      </g>
     </g>
    </g>
    <g id="ytick_2">
     <g id="text_12">
      <!-- query -->
      <g transform="translate(7.2 31.637344) scale(0.1 -0.1)">
       <defs>
        <path id="DejaVuSans-71" d="M 947 1747 
Q 947 1113 1208 752 
Q 1469 391 1925 391 
Q 2381 391 2643 752 
Q 2906 1113 2906 1747 
Q 2906 2381 2643 2742 
Q 2381 3103 1925 3103 
Q 1469 3103 1208 2742 
Q 947 2381 947 1747 
z
M 2906 525 
Q 2725 213 2448 61 
Q 2172 -91 1784 -91 
Q 1150 -91 751 415 
Q 353 922 353 1747 
Q 353 2572 751 3078 
Q 1150 3584 1784 3584 
Q 2172 3584 2448 3432 
Q 2725 3281 2906 2969 
L 2906 3500 
L 3481 3500 
L 3481 -1331 
L 2906 -1331 
L 2906 525 
z
" transform="scale(0.015625)"/>
        <path id="DejaVuSans-75" d="M 544 1381 
L 544 3500 
L 1119 3500 
L 1119 1403 
Q 1119 906 1312 657 
Q 1506 409 1894 409 
Q 2359 409 2629 706 
Q 2900 1003 2900 1516 
L 2900 3500 
L 3475 3500 
L 3475 0 
L 2900 0 
L 2900 538 
Q 2691 219 2414 64 
Q 2138 -91 1772 -91 
Q 1169 -91 856 284 
Q 544 659 544 1381 
z
M 1991 3584 
L 1991 3584 
z
" transform="scale(0.015625)"/>
        <path id="DejaVuSans-72" d="M 2631 2963 
Q 2534 3019 2420 3045 
Q 2306 3072 2169 3072 
Q 1681 3072 1420 2755 
Q 1159 2438 1159 1844 
L 1159 0 
L 581 0 
L 581 3500 
L 1159 3500 
L 1159 2956 
Q 1341 3275 1631 3429 
Q 1922 3584 2338 3584 
Q 2397 3584 2469 3576 
Q 2541 3569 2628 3553 
L 2631 2963 
z
" transform="scale(0.015625)"/>
        <path id="DejaVuSans-79" d="M 2059 -325 
Q 1816 -950 1584 -1140 
Q 1353 -1331 966 -1331 
L 506 -1331 
L 506 -850 
L 844 -850 
Q 1081 -850 1212 -737 
Q 1344 -625 1503 -206 
L 1606 56 
L 191 3500 
L 800 3500 
L 1894 763 
L 2988 3500 
L 3597 3500 
L 2059 -325 
z
" transform="scale(0.015625)"/>
       </defs>
       <use xlink:href="#DejaVuSans-71"/>
       <use xlink:href="#DejaVuSans-75" x="63.476562"/>
       <use xlink:href="#DejaVuSans-65" x="126.855469"/>
       <use xlink:href="#DejaVuSans-72" x="188.378906"/>
       <use xlink:href="#DejaVuSans-79" x="229.492188"/>
      </g>
     </g>
    </g>
   </g>
   <g id="LineCollection_1">
    <path d="M 66.387759 46.238125 
L 71.888967 46.238125 
" clip-path="url(#pcc1dd90f6e)" style="fill: none; stroke: #1f77b4; stroke-opacity: 0.5; stroke-width: 5"/>
    <path d="M 73.417081 46.238125 
L 74.028326 46.238125 
" clip-path="url(#pcc1dd90f6e)" style="fill: none; stroke: #1f77b4; stroke-opacity: 0.5; stroke-width: 5"/>
    <path d="M 90.226327 46.238125 
L 95.421912 46.238125 
" clip-path="url(#pcc1dd90f6e)" style="fill: none; stroke: #1f77b4; stroke-opacity: 0.5; stroke-width: 5"/>
    <path d="M 96.950026 46.238125 
L 105.813083 46.238125 
" clip-path="url(#pcc1dd90f6e)" style="fill: none; stroke: #1f77b4; stroke-opacity: 0.5; stroke-width: 5"/>
    <path d="M 110.703046 46.238125 
L 111.619914 46.238125 
" clip-path="url(#pcc1dd90f6e)" style="fill: none; stroke: #1f77b4; stroke-opacity: 0.5; stroke-width: 5"/>
    <path d="M 113.759272 46.238125 
L 121.705461 46.238125 
" clip-path="url(#pcc1dd90f6e)" style="fill: none; stroke: #1f77b4; stroke-opacity: 0.5; stroke-width: 5"/>
    <path d="M 122.622329 46.238125 
L 125.067311 46.238125 
" clip-path="url(#pcc1dd90f6e)" style="fill: none; stroke: #1f77b4; stroke-opacity: 0.5; stroke-width: 5"/>
    <path d="M 135.152859 46.238125 
L 139.737199 46.238125 
" clip-path="url(#pcc1dd90f6e)" style="fill: none; stroke: #1f77b4; stroke-opacity: 0.5; stroke-width: 5"/>
    <path d="M 177.940032 46.238125 
L 191.693052 46.238125 
" clip-path="url(#pcc1dd90f6e)" style="fill: none; stroke: #1f77b4; stroke-opacity: 0.5; stroke-width: 5"/>
    <path d="M 196.583014 46.238125 
L 201.778599 46.238125 
" clip-path="url(#pcc1dd90f6e)" style="fill: none; stroke: #1f77b4; stroke-opacity: 0.5; stroke-width: 5"/>
    <path d="M 205.751694 46.238125 
L 218.893469 46.238125 
" clip-path="url(#pcc1dd90f6e)" style="fill: none; stroke: #1f77b4; stroke-opacity: 0.5; stroke-width: 5"/>
    <path d="M 220.727205 46.238125 
L 222.866563 46.238125 
" clip-path="url(#pcc1dd90f6e)" style="fill: none; stroke: #1f77b4; stroke-opacity: 0.5; stroke-width: 5"/>
    <path d="M 224.394677 46.238125 
L 232.952111 46.238125 
" clip-path="url(#pcc1dd90f6e)" style="fill: none; stroke: #1f77b4; stroke-opacity: 0.5; stroke-width: 5"/>
    <path d="M 233.257734 46.238125 
L 233.563356 46.238125 
" clip-path="url(#pcc1dd90f6e)" style="fill: none; stroke: #1f77b4; stroke-opacity: 0.5; stroke-width: 5"/>
    <path d="M 235.702715 46.238125 
L 238.147696 46.238125 
" clip-path="url(#pcc1dd90f6e)" style="fill: none; stroke: #1f77b4; stroke-opacity: 0.5; stroke-width: 5"/>
    <path d="M 238.758942 46.238125 
L 241.203923 46.238125 
" clip-path="url(#pcc1dd90f6e)" style="fill: none; stroke: #1f77b4; stroke-opacity: 0.5; stroke-width: 5"/>
    <path d="M 253.42883 46.238125 
L 255.262566 46.238125 
" clip-path="url(#pcc1dd90f6e)" style="fill: none; stroke: #1f77b4; stroke-opacity: 0.5; stroke-width: 5"/>
    <path d="M 263.208755 46.238125 
L 267.18185 46.238125 
" clip-path="url(#pcc1dd90f6e)" style="fill: none; stroke: #1f77b4; stroke-opacity: 0.5; stroke-width: 5"/>
    <path d="M 268.709963 46.238125 
L 276.656152 46.238125 
" clip-path="url(#pcc1dd90f6e)" style="fill: none; stroke: #1f77b4; stroke-opacity: 0.5; stroke-width: 5"/>
    <path d="M 281.546115 46.238125 
L 283.379851 46.238125 
" clip-path="url(#pcc1dd90f6e)" style="fill: none; stroke: #1f77b4; stroke-opacity: 0.5; stroke-width: 5"/>
    <path d="M 286.7417 46.238125 
L 287.964191 46.238125 
" clip-path="url(#pcc1dd90f6e)" style="fill: none; stroke: #1f77b4; stroke-opacity: 0.5; stroke-width: 5"/>
    <path d="M 290.714795 46.238125 
L 293.465399 46.238125 
" clip-path="url(#pcc1dd90f6e)" style="fill: none; stroke: #1f77b4; stroke-opacity: 0.5; stroke-width: 5"/>
    <path d="M 349.699969 46.238125 
L 352.14495 46.238125 
" clip-path="url(#pcc1dd90f6e)" style="fill: none; stroke: #1f77b4; stroke-opacity: 0.5; stroke-width: 5"/>
    <path d="M 362.230498 46.238125 
L 362.536121 46.238125 
" clip-path="url(#pcc1dd90f6e)" style="fill: none; stroke: #1f77b4; stroke-opacity: 0.5; stroke-width: 5"/>
    <path d="M 363.452989 46.238125 
L 364.981102 46.238125 
" clip-path="url(#pcc1dd90f6e)" style="fill: none; stroke: #1f77b4; stroke-opacity: 0.5; stroke-width: 5"/>
    <path d="M 367.120461 46.238125 
L 368.037329 46.238125 
" clip-path="url(#pcc1dd90f6e)" style="fill: none; stroke: #1f77b4; stroke-opacity: 0.5; stroke-width: 5"/>
    <path d="M 368.648574 46.238125 
L 372.010423 46.238125 
" clip-path="url(#pcc1dd90f6e)" style="fill: none; stroke: #1f77b4; stroke-opacity: 0.5; stroke-width: 5"/>
    <path d="M 380.262235 46.238125 
L 386.069066 46.238125 
" clip-path="url(#pcc1dd90f6e)" style="fill: none; stroke: #1f77b4; stroke-opacity: 0.5; stroke-width: 5"/>
    <path d="M 388.514047 46.238125 
L 394.6265 46.238125 
" clip-path="url(#pcc1dd90f6e)" style="fill: none; stroke: #1f77b4; stroke-opacity: 0.5; stroke-width: 5"/>
    <path d="M 405.934539 46.238125 
L 406.851407 46.238125 
" clip-path="url(#pcc1dd90f6e)" style="fill: none; stroke: #1f77b4; stroke-opacity: 0.5; stroke-width: 5"/>
    <path d="M 413.575106 46.238125 
L 420.91005 46.238125 
" clip-path="url(#pcc1dd90f6e)" style="fill: none; stroke: #1f77b4; stroke-opacity: 0.5; stroke-width: 5"/>
    <path d="M 430.078729 46.238125 
L 431.912465 46.238125 
" clip-path="url(#pcc1dd90f6e)" style="fill: none; stroke: #1f77b4; stroke-opacity: 0.5; stroke-width: 5"/>
    <path d="M 448.110467 46.238125 
L 451.166693 46.238125 
" clip-path="url(#pcc1dd90f6e)" style="fill: none; stroke: #1f77b4; stroke-opacity: 0.5; stroke-width: 5"/>
    <path d="M 462.780355 46.238125 
L 471.032166 46.238125 
" clip-path="url(#pcc1dd90f6e)" style="fill: none; stroke: #1f77b4; stroke-opacity: 0.5; stroke-width: 5"/>
    <path d="M 508.318131 46.238125 
L 513.208094 46.238125 
" clip-path="url(#pcc1dd90f6e)" style="fill: none; stroke: #1f77b4; stroke-opacity: 0.5; stroke-width: 5"/>
    <path d="M 519.320547 46.238125 
L 525.127378 46.238125 
" clip-path="url(#pcc1dd90f6e)" style="fill: none; stroke: #1f77b4; stroke-opacity: 0.5; stroke-width: 5"/>
    <path d="M 528.79485 46.238125 
L 532.767945 46.238125 
" clip-path="url(#pcc1dd90f6e)" style="fill: none; stroke: #1f77b4; stroke-opacity: 0.5; stroke-width: 5"/>
   </g>
   <g id="LineCollection_2">
    <path d="M 66.387759 49.918125 
L 66.387759 42.558125 
" clip-path="url(#pcc1dd90f6e)" style="fill: none; stroke: #1f77b4; stroke-opacity: 0.5; stroke-width: 2"/>
    <path d="M 73.417081 49.918125 
L 73.417081 42.558125 
" clip-path="url(#pcc1dd90f6e)" style="fill: none; stroke: #1f77b4; stroke-opacity: 0.5; stroke-width: 2"/>
    <path d="M 90.226327 49.918125 
L 90.226327 42.558125 
" clip-path="url(#pcc1dd90f6e)" style="fill: none; stroke: #1f77b4; stroke-opacity: 0.5; stroke-width: 2"/>
    <path d="M 96.950026 49.918125 
L 96.950026 42.558125 
" clip-path="url(#pcc1dd90f6e)" style="fill: none; stroke: #1f77b4; stroke-opacity: 0.5; stroke-width: 2"/>
    <path d="M 110.703046 49.918125 
L 110.703046 42.558125 
" clip-path="url(#pcc1dd90f6e)" style="fill: none; stroke: #1f77b4; stroke-opacity: 0.5; stroke-width: 2"/>
    <path d="M 113.759272 49.918125 
L 113.759272 42.558125 
" clip-path="url(#pcc1dd90f6e)" style="fill: none; stroke: #1f77b4; stroke-opacity: 0.5; stroke-width: 2"/>
    <path d="M 122.622329 49.918125 
L 122.622329 42.558125 
" clip-path="url(#pcc1dd90f6e)" style="fill: none; stroke: #1f77b4; stroke-opacity: 0.5; stroke-width: 2"/>
    <path d="M 135.152859 49.918125 
L 135.152859 42.558125 
" clip-path="url(#pcc1dd90f6e)" style="fill: none; stroke: #1f77b4; stroke-opacity: 0.5; stroke-width: 2"/>
    <path d="M 177.940032 49.918125 
L 177.940032 42.558125 
" clip-path="url(#pcc1dd90f6e)" style="fill: none; stroke: #1f77b4; stroke-opacity: 0.5; stroke-width: 2"/>
    <path d="M 196.583014 49.918125 
L 196.583014 42.558125 
" clip-path="url(#pcc1dd90f6e)" style="fill: none; stroke: #1f77b4; stroke-opacity: 0.5; stroke-width: 2"/>
    <path d="M 205.751694 49.918125 
L 205.751694 42.558125 
" clip-path="url(#pcc1dd90f6e)" style="fill: none; stroke: #1f77b4; stroke-opacity: 0.5; stroke-width: 2"/>
    <path d="M 220.727205 49.918125 
L 220.727205 42.558125 
" clip-path="url(#pcc1dd90f6e)" style="fill: none; stroke: #1f77b4; stroke-opacity: 0.5; stroke-width: 2"/>
    <path d="M 224.394677 49.918125 
L 224.394677 42.558125 
" clip-path="url(#pcc1dd90f6e)" style="fill: none; stroke: #1f77b4; stroke-opacity: 0.5; stroke-width: 2"/>
    <path d="M 233.257734 49.918125 
L 233.257734 42.558125 
" clip-path="url(#pcc1dd90f6e)" style="fill: none; stroke: #1f77b4; stroke-opacity: 0.5; stroke-width: 2"/>
    <path d="M 235.702715 49.918125 
L 235.702715 42.558125 
" clip-path="url(#pcc1dd90f6e)" style="fill: none; stroke: #1f77b4; stroke-opacity: 0.5; stroke-width: 2"/>
    <path d="M 238.758942 49.918125 
L 238.758942 42.558125 
" clip-path="url(#pcc1dd90f6e)" style="fill: none; stroke: #1f77b4; stroke-opacity: 0.5; stroke-width: 2"/>
    <path d="M 253.42883 49.918125 
L 253.42883 42.558125 
" clip-path="url(#pcc1dd90f6e)" style="fill: none; stroke: #1f77b4; stroke-opacity: 0.5; stroke-width: 2"/>
    <path d="M 263.208755 49.918125 
L 263.208755 42.558125 
" clip-path="url(#pcc1dd90f6e)" style="fill: none; stroke: #1f77b4; stroke-opacity: 0.5; stroke-width: 2"/>
    <path d="M 268.709963 49.918125 
L 268.709963 42.558125 
" clip-path="url(#pcc1dd90f6e)" style="fill: none; stroke: #1f77b4; stroke-opacity: 0.5; stroke-width: 2"/>
    <path d="M 281.546115 49.918125 
L 281.546115 42.558125 
" clip-path="url(#pcc1dd90f6e)" style="fill: none; stroke: #1f77b4; stroke-opacity: 0.5; stroke-width: 2"/>
    <path d="M 286.7417 49.918125 
L 286.7417 42.558125 
" clip-path="url(#pcc1dd90f6e)" style="fill: none; stroke: #1f77b4; stroke-opacity: 0.5; stroke-width: 2"/>
    <path d="M 290.714795 49.918125 
L 290.714795 42.558125 
" clip-path="url(#pcc1dd90f6e)" style="fill: none; stroke: #1f77b4; stroke-opacity: 0.5; stroke-width: 2"/>
    <path d="M 349.699969 49.918125 
L 349.699969 42.558125 
" clip-path="url(#pcc1dd90f6e)" style="fill: none; stroke: #1f77b4; stroke-opacity: 0.5; stroke-width: 2"/>
    <path d="M 362.230498 49.918125 
L 362.230498 42.558125 
" clip-path="url(#pcc1dd90f6e)" style="fill: none; stroke: #1f77b4; stroke-opacity: 0.5; stroke-width: 2"/>
    <path d="M 363.452989 49.918125 
L 363.452989 42.558125 
" clip-path="url(#pcc1dd90f6e)" style="fill: none; stroke: #1f77b4; stroke-opacity: 0.5; stroke-width: 2"/>
    <path d="M 367.120461 49.918125 
L 367.120461 42.558125 
" clip-path="url(#pcc1dd90f6e)" style="fill: none; stroke: #1f77b4; stroke-opacity: 0.5; stroke-width: 2"/>
    <path d="M 368.648574 49.918125 
L 368.648574 42.558125 
" clip-path="url(#pcc1dd90f6e)" style="fill: none; stroke: #1f77b4; stroke-opacity: 0.5; stroke-width: 2"/>
    <path d="M 380.262235 49.918125 
L 380.262235 42.558125 
" clip-path="url(#pcc1dd90f6e)" style="fill: none; stroke: #1f77b4; stroke-opacity: 0.5; stroke-width: 2"/>
    <path d="M 388.514047 49.918125 
L 388.514047 42.558125 
" clip-path="url(#pcc1dd90f6e)" style="fill: none; stroke: #1f77b4; stroke-opacity: 0.5; stroke-width: 2"/>
    <path d="M 405.934539 49.918125 
L 405.934539 42.558125 
" clip-path="url(#pcc1dd90f6e)" style="fill: none; stroke: #1f77b4; stroke-opacity: 0.5; stroke-width: 2"/>
    <path d="M 413.575106 49.918125 
L 413.575106 42.558125 
" clip-path="url(#pcc1dd90f6e)" style="fill: none; stroke: #1f77b4; stroke-opacity: 0.5; stroke-width: 2"/>
    <path d="M 430.078729 49.918125 
L 430.078729 42.558125 
" clip-path="url(#pcc1dd90f6e)" style="fill: none; stroke: #1f77b4; stroke-opacity: 0.5; stroke-width: 2"/>
    <path d="M 448.110467 49.918125 
L 448.110467 42.558125 
" clip-path="url(#pcc1dd90f6e)" style="fill: none; stroke: #1f77b4; stroke-opacity: 0.5; stroke-width: 2"/>
    <path d="M 462.780355 49.918125 
L 462.780355 42.558125 
" clip-path="url(#pcc1dd90f6e)" style="fill: none; stroke: #1f77b4; stroke-opacity: 0.5; stroke-width: 2"/>
    <path d="M 508.318131 49.918125 
L 508.318131 42.558125 
" clip-path="url(#pcc1dd90f6e)" style="fill: none; stroke: #1f77b4; stroke-opacity: 0.5; stroke-width: 2"/>
    <path d="M 519.320547 49.918125 
L 519.320547 42.558125 
" clip-path="url(#pcc1dd90f6e)" style="fill: none; stroke: #1f77b4; stroke-opacity: 0.5; stroke-width: 2"/>
    <path d="M 528.79485 49.918125 
L 528.79485 42.558125 
" clip-path="url(#pcc1dd90f6e)" style="fill: none; stroke: #1f77b4; stroke-opacity: 0.5; stroke-width: 2"/>
   </g>
   <g id="LineCollection_3">
    <path d="M 71.888967 49.918125 
L 71.888967 42.558125 
" clip-path="url(#pcc1dd90f6e)" style="fill: none; stroke: #1f77b4; stroke-opacity: 0.5; stroke-width: 2"/>
    <path d="M 74.028326 49.918125 
L 74.028326 42.558125 
" clip-path="url(#pcc1dd90f6e)" style="fill: none; stroke: #1f77b4; stroke-opacity: 0.5; stroke-width: 2"/>
    <path d="M 95.421912 49.918125 
L 95.421912 42.558125 
" clip-path="url(#pcc1dd90f6e)" style="fill: none; stroke: #1f77b4; stroke-opacity: 0.5; stroke-width: 2"/>
    <path d="M 105.813083 49.918125 
L 105.813083 42.558125 
" clip-path="url(#pcc1dd90f6e)" style="fill: none; stroke: #1f77b4; stroke-opacity: 0.5; stroke-width: 2"/>
    <path d="M 111.619914 49.918125 
L 111.619914 42.558125 
" clip-path="url(#pcc1dd90f6e)" style="fill: none; stroke: #1f77b4; stroke-opacity: 0.5; stroke-width: 2"/>
    <path d="M 121.705461 49.918125 
L 121.705461 42.558125 
" clip-path="url(#pcc1dd90f6e)" style="fill: none; stroke: #1f77b4; stroke-opacity: 0.5; stroke-width: 2"/>
    <path d="M 125.067311 49.918125 
L 125.067311 42.558125 
" clip-path="url(#pcc1dd90f6e)" style="fill: none; stroke: #1f77b4; stroke-opacity: 0.5; stroke-width: 2"/>
    <path d="M 139.737199 49.918125 
L 139.737199 42.558125 
" clip-path="url(#pcc1dd90f6e)" style="fill: none; stroke: #1f77b4; stroke-opacity: 0.5; stroke-width: 2"/>
    <path d="M 191.693052 49.918125 
L 191.693052 42.558125 
" clip-path="url(#pcc1dd90f6e)" style="fill: none; stroke: #1f77b4; stroke-opacity: 0.5; stroke-width: 2"/>
    <path d="M 201.778599 49.918125 
L 201.778599 42.558125 
" clip-path="url(#pcc1dd90f6e)" style="fill: none; stroke: #1f77b4; stroke-opacity: 0.5; stroke-width: 2"/>
    <path d="M 218.893469 49.918125 
L 218.893469 42.558125 
" clip-path="url(#pcc1dd90f6e)" style="fill: none; stroke: #1f77b4; stroke-opacity: 0.5; stroke-width: 2"/>
    <path d="M 222.866563 49.918125 
L 222.866563 42.558125 
" clip-path="url(#pcc1dd90f6e)" style="fill: none; stroke: #1f77b4; stroke-opacity: 0.5; stroke-width: 2"/>
    <path d="M 232.952111 49.918125 
L 232.952111 42.558125 
" clip-path="url(#pcc1dd90f6e)" style="fill: none; stroke: #1f77b4; stroke-opacity: 0.5; stroke-width: 2"/>
    <path d="M 233.563356 49.918125 
L 233.563356 42.558125 
" clip-path="url(#pcc1dd90f6e)" style="fill: none; stroke: #1f77b4; stroke-opacity: 0.5; stroke-width: 2"/>
    <path d="M 238.147696 49.918125 
L 238.147696 42.558125 
" clip-path="url(#pcc1dd90f6e)" style="fill: none; stroke: #1f77b4; stroke-opacity: 0.5; stroke-width: 2"/>
    <path d="M 241.203923 49.918125 
L 241.203923 42.558125 
" clip-path="url(#pcc1dd90f6e)" style="fill: none; stroke: #1f77b4; stroke-opacity: 0.5; stroke-width: 2"/>
    <path d="M 255.262566 49.918125 
L 255.262566 42.558125 
" clip-path="url(#pcc1dd90f6e)" style="fill: none; stroke: #1f77b4; stroke-opacity: 0.5; stroke-width: 2"/>
    <path d="M 267.18185 49.918125 
L 267.18185 42.558125 
" clip-path="url(#pcc1dd90f6e)" style="fill: none; stroke: #1f77b4; stroke-opacity: 0.5; stroke-width: 2"/>
    <path d="M 276.656152 49.918125 
L 276.656152 42.558125 
" clip-path="url(#pcc1dd90f6e)" style="fill: none; stroke: #1f77b4; stroke-opacity: 0.5; stroke-width: 2"/>
    <path d="M 283.379851 49.918125 
L 283.379851 42.558125 
" clip-path="url(#pcc1dd90f6e)" style="fill: none; stroke: #1f77b4; stroke-opacity: 0.5; stroke-width: 2"/>
    <path d="M 287.964191 49.918125 
L 287.964191 42.558125 
" clip-path="url(#pcc1dd90f6e)" style="fill: none; stroke: #1f77b4; stroke-opacity: 0.5; stroke-width: 2"/>
    <path d="M 293.465399 49.918125 
L 293.465399 42.558125 
" clip-path="url(#pcc1dd90f6e)" style="fill: none; stroke: #1f77b4; stroke-opacity: 0.5; stroke-width: 2"/>
    <path d="M 352.14495 49.918125 
L 352.14495 42.558125 
" clip-path="url(#pcc1dd90f6e)" style="fill: none; stroke: #1f77b4; stroke-opacity: 0.5; stroke-width: 2"/>
    <path d="M 362.536121 49.918125 
L 362.536121 42.558125 
" clip-path="url(#pcc1dd90f6e)" style="fill: none; stroke: #1f77b4; stroke-opacity: 0.5; stroke-width: 2"/>
    <path d="M 364.981102 49.918125 
L 364.981102 42.558125 
" clip-path="url(#pcc1dd90f6e)" style="fill: none; stroke: #1f77b4; stroke-opacity: 0.5; stroke-width: 2"/>
    <path d="M 368.037329 49.918125 
L 368.037329 42.558125 
" clip-path="url(#pcc1dd90f6e)" style="fill: none; stroke: #1f77b4; stroke-opacity: 0.5; stroke-width: 2"/>
    <path d="M 372.010423 49.918125 
L 372.010423 42.558125 
" clip-path="url(#pcc1dd90f6e)" style="fill: none; stroke: #1f77b4; stroke-opacity: 0.5; stroke-width: 2"/>
    <path d="M 386.069066 49.918125 
L 386.069066 42.558125 
" clip-path="url(#pcc1dd90f6e)" style="fill: none; stroke: #1f77b4; stroke-opacity: 0.5; stroke-width: 2"/>
    <path d="M 394.6265 49.918125 
L 394.6265 42.558125 
" clip-path="url(#pcc1dd90f6e)" style="fill: none; stroke: #1f77b4; stroke-opacity: 0.5; stroke-width: 2"/>
    <path d="M 406.851407 49.918125 
L 406.851407 42.558125 
" clip-path="url(#pcc1dd90f6e)" style="fill: none; stroke: #1f77b4; stroke-opacity: 0.5; stroke-width: 2"/>
    <path d="M 420.91005 49.918125 
L 420.91005 42.558125 
" clip-path="url(#pcc1dd90f6e)" style="fill: none; stroke: #1f77b4; stroke-opacity: 0.5; stroke-width: 2"/>
    <path d="M 431.912465 49.918125 
L 431.912465 42.558125 
" clip-path="url(#pcc1dd90f6e)" style="fill: none; stroke: #1f77b4; stroke-opacity: 0.5; stroke-width: 2"/>
    <path d="M 451.166693 49.918125 
L 451.166693 42.558125 
" clip-path="url(#pcc1dd90f6e)" style="fill: none; stroke: #1f77b4; stroke-opacity: 0.5; stroke-width: 2"/>
    <path d="M 471.032166 49.918125 
L 471.032166 42.558125 
" clip-path="url(#pcc1dd90f6e)" style="fill: none; stroke: #1f77b4; stroke-opacity: 0.5; stroke-width: 2"/>
    <path d="M 513.208094 49.918125 
L 513.208094 42.558125 
" clip-path="url(#pcc1dd90f6e)" style="fill: none; stroke: #1f77b4; stroke-opacity: 0.5; stroke-width: 2"/>
    <path d="M 525.127378 49.918125 
L 525.127378 42.558125 
" clip-path="url(#pcc1dd90f6e)" style="fill: none; stroke: #1f77b4; stroke-opacity: 0.5; stroke-width: 2"/>
    <path d="M 532.767945 49.918125 
L 532.767945 42.558125 
" clip-path="url(#pcc1dd90f6e)" style="fill: none; stroke: #1f77b4; stroke-opacity: 0.5; stroke-width: 2"/>
   </g>
   <g id="LineCollection_4">
    <path d="M 123.957207 27.838125 
L 124.263474 27.838125 
" clip-path="url(#pcc1dd90f6e)" style="fill: none; stroke: #ff7f0e; stroke-opacity: 0.5; stroke-width: 5"/>
    <path d="M 128.23108 27.838125 
L 128.570125 27.838125 
" clip-path="url(#pcc1dd90f6e)" style="fill: none; stroke: #ff7f0e; stroke-opacity: 0.5; stroke-width: 5"/>
    <path d="M 174.954532 27.838125 
L 175.564861 27.838125 
" clip-path="url(#pcc1dd90f6e)" style="fill: none; stroke: #ff7f0e; stroke-opacity: 0.5; stroke-width: 5"/>
    <path d="M 178.049857 27.838125 
L 179.260407 27.838125 
" clip-path="url(#pcc1dd90f6e)" style="fill: none; stroke: #ff7f0e; stroke-opacity: 0.5; stroke-width: 5"/>
    <path d="M 215.582114 27.838125 
L 217.102905 27.838125 
" clip-path="url(#pcc1dd90f6e)" style="fill: none; stroke: #ff7f0e; stroke-opacity: 0.5; stroke-width: 5"/>
    <path d="M 219.570071 27.838125 
L 221.474431 27.838125 
" clip-path="url(#pcc1dd90f6e)" style="fill: none; stroke: #ff7f0e; stroke-opacity: 0.5; stroke-width: 5"/>
    <path d="M 228.98817 27.838125 
L 229.611096 27.838125 
" clip-path="url(#pcc1dd90f6e)" style="fill: none; stroke: #ff7f0e; stroke-opacity: 0.5; stroke-width: 5"/>
    <path d="M 254.029494 27.838125 
L 254.630993 27.838125 
" clip-path="url(#pcc1dd90f6e)" style="fill: none; stroke: #ff7f0e; stroke-opacity: 0.5; stroke-width: 5"/>
    <path d="M 280.904292 27.838125 
L 281.697927 27.838125 
" clip-path="url(#pcc1dd90f6e)" style="fill: none; stroke: #ff7f0e; stroke-opacity: 0.5; stroke-width: 5"/>
    <path d="M 283.65114 27.838125 
L 284.737656 27.838125 
" clip-path="url(#pcc1dd90f6e)" style="fill: none; stroke: #ff7f0e; stroke-opacity: 0.5; stroke-width: 5"/>
    <path d="M 291.453173 27.838125 
L 292.351972 27.838125 
" clip-path="url(#pcc1dd90f6e)" style="fill: none; stroke: #ff7f0e; stroke-opacity: 0.5; stroke-width: 5"/>
    <path d="M 358.413118 27.838125 
L 358.683814 27.838125 
" clip-path="url(#pcc1dd90f6e)" style="fill: none; stroke: #ff7f0e; stroke-opacity: 0.5; stroke-width: 5"/>
    <path d="M 394.86518 27.838125 
L 396.030733 27.838125 
" clip-path="url(#pcc1dd90f6e)" style="fill: none; stroke: #ff7f0e; stroke-opacity: 0.5; stroke-width: 5"/>
    <path d="M 404.415231 27.838125 
L 405.312719 27.838125 
" clip-path="url(#pcc1dd90f6e)" style="fill: none; stroke: #ff7f0e; stroke-opacity: 0.5; stroke-width: 5"/>
    <path d="M 443.459617 27.838125 
L 443.761967 27.838125 
" clip-path="url(#pcc1dd90f6e)" style="fill: none; stroke: #ff7f0e; stroke-opacity: 0.5; stroke-width: 5"/>
    <path d="M 451.895869 27.838125 
L 453.134998 27.838125 
" clip-path="url(#pcc1dd90f6e)" style="fill: none; stroke: #ff7f0e; stroke-opacity: 0.5; stroke-width: 5"/>
    <path d="M 456.679454 27.838125 
L 457.590167 27.838125 
" clip-path="url(#pcc1dd90f6e)" style="fill: none; stroke: #ff7f0e; stroke-opacity: 0.5; stroke-width: 5"/>
    <path d="M 460.747719 27.838125 
L 461.662711 27.838125 
" clip-path="url(#pcc1dd90f6e)" style="fill: none; stroke: #ff7f0e; stroke-opacity: 0.5; stroke-width: 5"/>
    <path d="M 525.144612 27.838125 
L 526.393903 27.838125 
" clip-path="url(#pcc1dd90f6e)" style="fill: none; stroke: #ff7f0e; stroke-opacity: 0.5; stroke-width: 5"/>
   </g>
   <g id="LineCollection_5">
    <path d="M 123.957207 31.518125 
L 123.957207 24.158125 
" clip-path="url(#pcc1dd90f6e)" style="fill: none; stroke: #ff7f0e; stroke-opacity: 0.5; stroke-width: 2"/>
    <path d="M 128.23108 31.518125 
L 128.23108 24.158125 
" clip-path="url(#pcc1dd90f6e)" style="fill: none; stroke: #ff7f0e; stroke-opacity: 0.5; stroke-width: 2"/>
    <path d="M 174.954532 31.518125 
L 174.954532 24.158125 
" clip-path="url(#pcc1dd90f6e)" style="fill: none; stroke: #ff7f0e; stroke-opacity: 0.5; stroke-width: 2"/>
    <path d="M 178.049857 31.518125 
L 178.049857 24.158125 
" clip-path="url(#pcc1dd90f6e)" style="fill: none; stroke: #ff7f0e; stroke-opacity: 0.5; stroke-width: 2"/>
    <path d="M 215.582114 31.518125 
L 215.582114 24.158125 
" clip-path="url(#pcc1dd90f6e)" style="fill: none; stroke: #ff7f0e; stroke-opacity: 0.5; stroke-width: 2"/>
    <path d="M 219.570071 31.518125 
L 219.570071 24.158125 
" clip-path="url(#pcc1dd90f6e)" style="fill: none; stroke: #ff7f0e; stroke-opacity: 0.5; stroke-width: 2"/>
    <path d="M 228.98817 31.518125 
L 228.98817 24.158125 
" clip-path="url(#pcc1dd90f6e)" style="fill: none; stroke: #ff7f0e; stroke-opacity: 0.5; stroke-width: 2"/>
    <path d="M 254.029494 31.518125 
L 254.029494 24.158125 
" clip-path="url(#pcc1dd90f6e)" style="fill: none; stroke: #ff7f0e; stroke-opacity: 0.5; stroke-width: 2"/>
    <path d="M 280.904292 31.518125 
L 280.904292 24.158125 
" clip-path="url(#pcc1dd90f6e)" style="fill: none; stroke: #ff7f0e; stroke-opacity: 0.5; stroke-width: 2"/>
    <path d="M 283.65114 31.518125 
L 283.65114 24.158125 
" clip-path="url(#pcc1dd90f6e)" style="fill: none; stroke: #ff7f0e; stroke-opacity: 0.5; stroke-width: 2"/>
    <path d="M 291.453173 31.518125 
L 291.453173 24.158125 
" clip-path="url(#pcc1dd90f6e)" style="fill: none; stroke: #ff7f0e; stroke-opacity: 0.5; stroke-width: 2"/>
    <path d="M 358.413118 31.518125 
L 358.413118 24.158125 
" clip-path="url(#pcc1dd90f6e)" style="fill: none; stroke: #ff7f0e; stroke-opacity: 0.5; stroke-width: 2"/>
    <path d="M 394.86518 31.518125 
L 394.86518 24.158125 
" clip-path="url(#pcc1dd90f6e)" style="fill: none; stroke: #ff7f0e; stroke-opacity: 0.5; stroke-width: 2"/>
    <path d="M 404.415231 31.518125 
L 404.415231 24.158125 
" clip-path="url(#pcc1dd90f6e)" style="fill: none; stroke: #ff7f0e; stroke-opacity: 0.5; stroke-width: 2"/>
    <path d="M 443.459617 31.518125 
L 443.459617 24.158125 
" clip-path="url(#pcc1dd90f6e)" style="fill: none; stroke: #ff7f0e; stroke-opacity: 0.5; stroke-width: 2"/>
    <path d="M 451.895869 31.518125 
L 451.895869 24.158125 
" clip-path="url(#pcc1dd90f6e)" style="fill: none; stroke: #ff7f0e; stroke-opacity: 0.5; stroke-width: 2"/>
    <path d="M 456.679454 31.518125 
L 456.679454 24.158125 
" clip-path="url(#pcc1dd90f6e)" style="fill: none; stroke: #ff7f0e; stroke-opacity: 0.5; stroke-width: 2"/>
    <path d="M 460.747719 31.518125 
L 460.747719 24.158125 
" clip-path="url(#pcc1dd90f6e)" style="fill: none; stroke: #ff7f0e; stroke-opacity: 0.5; stroke-width: 2"/>
    <path d="M 525.144612 31.518125 
L 525.144612 24.158125 
" clip-path="url(#pcc1dd90f6e)" style="fill: none; stroke: #ff7f0e; stroke-opacity: 0.5; stroke-width: 2"/>
   </g>
   <g id="LineCollection_6">
    <path d="M 124.263474 31.518125 
L 124.263474 24.158125 
" clip-path="url(#pcc1dd90f6e)" style="fill: none; stroke: #ff7f0e; stroke-opacity: 0.5; stroke-width: 2"/>
    <path d="M 128.570125 31.518125 
L 128.570125 24.158125 
" clip-path="url(#pcc1dd90f6e)" style="fill: none; stroke: #ff7f0e; stroke-opacity: 0.5; stroke-width: 2"/>
    <path d="M 175.564861 31.518125 
L 175.564861 24.158125 
" clip-path="url(#pcc1dd90f6e)" style="fill: none; stroke: #ff7f0e; stroke-opacity: 0.5; stroke-width: 2"/>
    <path d="M 179.260407 31.518125 
L 179.260407 24.158125 
" clip-path="url(#pcc1dd90f6e)" style="fill: none; stroke: #ff7f0e; stroke-opacity: 0.5; stroke-width: 2"/>
    <path d="M 217.102905 31.518125 
L 217.102905 24.158125 
" clip-path="url(#pcc1dd90f6e)" style="fill: none; stroke: #ff7f0e; stroke-opacity: 0.5; stroke-width: 2"/>
    <path d="M 221.474431 31.518125 
L 221.474431 24.158125 
" clip-path="url(#pcc1dd90f6e)" style="fill: none; stroke: #ff7f0e; stroke-opacity: 0.5; stroke-width: 2"/>
    <path d="M 229.611096 31.518125 
L 229.611096 24.158125 
" clip-path="url(#pcc1dd90f6e)" style="fill: none; stroke: #ff7f0e; stroke-opacity: 0.5; stroke-width: 2"/>
    <path d="M 254.630993 31.518125 
L 254.630993 24.158125 
" clip-path="url(#pcc1dd90f6e)" style="fill: none; stroke: #ff7f0e; stroke-opacity: 0.5; stroke-width: 2"/>
    <path d="M 281.697927 31.518125 
L 281.697927 24.158125 
" clip-path="url(#pcc1dd90f6e)" style="fill: none; stroke: #ff7f0e; stroke-opacity: 0.5; stroke-width: 2"/>
    <path d="M 284.737656 31.518125 
L 284.737656 24.158125 
" clip-path="url(#pcc1dd90f6e)" style="fill: none; stroke: #ff7f0e; stroke-opacity: 0.5; stroke-width: 2"/>
    <path d="M 292.351972 31.518125 
L 292.351972 24.158125 
" clip-path="url(#pcc1dd90f6e)" style="fill: none; stroke: #ff7f0e; stroke-opacity: 0.5; stroke-width: 2"/>
    <path d="M 358.683814 31.518125 
L 358.683814 24.158125 
" clip-path="url(#pcc1dd90f6e)" style="fill: none; stroke: #ff7f0e; stroke-opacity: 0.5; stroke-width: 2"/>
    <path d="M 396.030733 31.518125 
L 396.030733 24.158125 
" clip-path="url(#pcc1dd90f6e)" style="fill: none; stroke: #ff7f0e; stroke-opacity: 0.5; stroke-width: 2"/>
    <path d="M 405.312719 31.518125 
L 405.312719 24.158125 
" clip-path="url(#pcc1dd90f6e)" style="fill: none; stroke: #ff7f0e; stroke-opacity: 0.5; stroke-width: 2"/>
    <path d="M 443.761967 31.518125 
L 443.761967 24.158125 
" clip-path="url(#pcc1dd90f6e)" style="fill: none; stroke: #ff7f0e; stroke-opacity: 0.5; stroke-width: 2"/>
    <path d="M 453.134998 31.518125 
L 453.134998 24.158125 
" clip-path="url(#pcc1dd90f6e)" style="fill: none; stroke: #ff7f0e; stroke-opacity: 0.5; stroke-width: 2"/>
    <path d="M 457.590167 31.518125 
L 457.590167 24.158125 
" clip-path="url(#pcc1dd90f6e)" style="fill: none; stroke: #ff7f0e; stroke-opacity: 0.5; stroke-width: 2"/>
    <path d="M 461.662711 31.518125 
L 461.662711 24.158125 
" clip-path="url(#pcc1dd90f6e)" style="fill: none; stroke: #ff7f0e; stroke-opacity: 0.5; stroke-width: 2"/>
    <path d="M 526.393903 31.518125 
L 526.393903 24.158125 
" clip-path="url(#pcc1dd90f6e)" style="fill: none; stroke: #ff7f0e; stroke-opacity: 0.5; stroke-width: 2"/>
   </g>
   <g id="patch_3">
    <path d="M 43.06875 64.638125 
L 556.086954 64.638125 
" style="fill: none; stroke: #000000; stroke-width: 0.8; stroke-linejoin: miter; stroke-linecap: square"/>
   </g>
   <g id="text_13">
    <!-- round_spermatid_100kb_arms_smoothed -->
    <g transform="translate(176.110977 16.318125) scale(0.12 -0.12)">
     <defs>
      <path id="DejaVuSans-64" d="M 2906 2969 
L 2906 4863 
L 3481 4863 
L 3481 0 
L 2906 0 
L 2906 525 
Q 2725 213 2448 61 
Q 2172 -91 1784 -91 
Q 1150 -91 751 415 
Q 353 922 353 1747 
Q 353 2572 751 3078 
Q 1150 3584 1784 3584 
Q 2172 3584 2448 3432 
Q 2725 3281 2906 2969 
z
M 947 1747 
Q 947 1113 1208 752 
Q 1469 391 1925 391 
Q 2381 391 2643 752 
Q 2906 1113 2906 1747 
Q 2906 2381 2643 2742 
Q 2381 3103 1925 3103 
Q 1469 3103 1208 2742 
Q 947 2381 947 1747 
z
" transform="scale(0.015625)"/>
      <path id="DejaVuSans-5f" d="M 3263 -1063 
L 3263 -1509 
L -63 -1509 
L -63 -1063 
L 3263 -1063 
z
" transform="scale(0.015625)"/>
      <path id="DejaVuSans-73" d="M 2834 3397 
L 2834 2853 
Q 2591 2978 2328 3040 
Q 2066 3103 1784 3103 
Q 1356 3103 1142 2972 
Q 928 2841 928 2578 
Q 928 2378 1081 2264 
Q 1234 2150 1697 2047 
L 1894 2003 
Q 2506 1872 2764 1633 
Q 3022 1394 3022 966 
Q 3022 478 2636 193 
Q 2250 -91 1575 -91 
Q 1294 -91 989 -36 
Q 684 19 347 128 
L 347 722 
Q 666 556 975 473 
Q 1284 391 1588 391 
Q 1994 391 2212 530 
Q 2431 669 2431 922 
Q 2431 1156 2273 1281 
Q 2116 1406 1581 1522 
L 1381 1569 
Q 847 1681 609 1914 
Q 372 2147 372 2553 
Q 372 3047 722 3315 
Q 1072 3584 1716 3584 
Q 2034 3584 2315 3537 
Q 2597 3491 2834 3397 
z
" transform="scale(0.015625)"/>
      <path id="DejaVuSans-70" d="M 1159 525 
L 1159 -1331 
L 581 -1331 
L 581 3500 
L 1159 3500 
L 1159 2969 
Q 1341 3281 1617 3432 
Q 1894 3584 2278 3584 
Q 2916 3584 3314 3078 
Q 3713 2572 3713 1747 
Q 3713 922 3314 415 
Q 2916 -91 2278 -91 
Q 1894 -91 1617 61 
Q 1341 213 1159 525 
z
M 3116 1747 
Q 3116 2381 2855 2742 
Q 2594 3103 2138 3103 
Q 1681 3103 1420 2742 
Q 1159 2381 1159 1747 
Q 1159 1113 1420 752 
Q 1681 391 2138 391 
Q 2594 391 2855 752 
Q 3116 1113 3116 1747 
z
" transform="scale(0.015625)"/>
      <path id="DejaVuSans-6d" d="M 3328 2828 
Q 3544 3216 3844 3400 
Q 4144 3584 4550 3584 
Q 5097 3584 5394 3201 
Q 5691 2819 5691 2113 
L 5691 0 
L 5113 0 
L 5113 2094 
Q 5113 2597 4934 2840 
Q 4756 3084 4391 3084 
Q 3944 3084 3684 2787 
Q 3425 2491 3425 1978 
L 3425 0 
L 2847 0 
L 2847 2094 
Q 2847 2600 2669 2842 
Q 2491 3084 2119 3084 
Q 1678 3084 1418 2786 
Q 1159 2488 1159 1978 
L 1159 0 
L 581 0 
L 581 3500 
L 1159 3500 
L 1159 2956 
Q 1356 3278 1631 3431 
Q 1906 3584 2284 3584 
Q 2666 3584 2933 3390 
Q 3200 3197 3328 2828 
z
" transform="scale(0.015625)"/>
      <path id="DejaVuSans-69" d="M 603 3500 
L 1178 3500 
L 1178 0 
L 603 0 
L 603 3500 
z
M 603 4863 
L 1178 4863 
L 1178 4134 
L 603 4134 
L 603 4863 
z
" transform="scale(0.015625)"/>
      <path id="DejaVuSans-6b" d="M 581 4863 
L 1159 4863 
L 1159 1991 
L 2875 3500 
L 3609 3500 
L 1753 1863 
L 3688 0 
L 2938 0 
L 1159 1709 
L 1159 0 
L 581 0 
L 581 4863 
z
" transform="scale(0.015625)"/>
      <path id="DejaVuSans-62" d="M 3116 1747 
Q 3116 2381 2855 2742 
Q 2594 3103 2138 3103 
Q 1681 3103 1420 2742 
Q 1159 2381 1159 1747 
Q 1159 1113 1420 752 
Q 1681 391 2138 391 
Q 2594 391 2855 752 
Q 3116 1113 3116 1747 
z
M 1159 2969 
Q 1341 3281 1617 3432 
Q 1894 3584 2278 3584 
Q 2916 3584 3314 3078 
Q 3713 2572 3713 1747 
Q 3713 922 3314 415 
Q 2916 -91 2278 -91 
Q 1894 -91 1617 61 
Q 1341 213 1159 525 
L 1159 0 
L 581 0 
L 581 4863 
L 1159 4863 
L 1159 2969 
z
" transform="scale(0.015625)"/>
      <path id="DejaVuSans-68" d="M 3513 2113 
L 3513 0 
L 2938 0 
L 2938 2094 
Q 2938 2591 2744 2837 
Q 2550 3084 2163 3084 
Q 1697 3084 1428 2787 
Q 1159 2491 1159 1978 
L 1159 0 
L 581 0 
L 581 4863 
L 1159 4863 
L 1159 2956 
Q 1366 3272 1645 3428 
Q 1925 3584 2291 3584 
Q 2894 3584 3203 3211 
Q 3513 2838 3513 2113 
z
" transform="scale(0.015625)"/>
     </defs>
     <use xlink:href="#DejaVuSans-72"/>
     <use xlink:href="#DejaVuSans-6f" x="38.863281"/>
     <use xlink:href="#DejaVuSans-75" x="100.044922"/>
     <use xlink:href="#DejaVuSans-6e" x="163.423828"/>
     <use xlink:href="#DejaVuSans-64" x="226.802734"/>
     <use xlink:href="#DejaVuSans-5f" x="290.279297"/>
     <use xlink:href="#DejaVuSans-73" x="340.279297"/>
     <use xlink:href="#DejaVuSans-70" x="392.378906"/>
     <use xlink:href="#DejaVuSans-65" x="455.855469"/>
     <use xlink:href="#DejaVuSans-72" x="517.378906"/>
     <use xlink:href="#DejaVuSans-6d" x="556.742188"/>
     <use xlink:href="#DejaVuSans-61" x="654.154297"/>
     <use xlink:href="#DejaVuSans-74" x="715.433594"/>
     <use xlink:href="#DejaVuSans-69" x="754.642578"/>
     <use xlink:href="#DejaVuSans-64" x="782.425781"/>
     <use xlink:href="#DejaVuSans-5f" x="845.902344"/>
     <use xlink:href="#DejaVuSans-31" x="895.902344"/>
     <use xlink:href="#DejaVuSans-30" x="959.525391"/>
     <use xlink:href="#DejaVuSans-30" x="1023.148438"/>
     <use xlink:href="#DejaVuSans-6b" x="1086.771484"/>
     <use xlink:href="#DejaVuSans-62" x="1144.681641"/>
     <use xlink:href="#DejaVuSans-5f" x="1208.158203"/>
     <use xlink:href="#DejaVuSans-61" x="1258.158203"/>
     <use xlink:href="#DejaVuSans-72" x="1319.4375"/>
     <use xlink:href="#DejaVuSans-6d" x="1358.800781"/>
     <use xlink:href="#DejaVuSans-73" x="1456.212891"/>
     <use xlink:href="#DejaVuSans-5f" x="1508.3125"/>
     <use xlink:href="#DejaVuSans-73" x="1558.3125"/>
     <use xlink:href="#DejaVuSans-6d" x="1610.412109"/>
     <use xlink:href="#DejaVuSans-6f" x="1707.824219"/>
     <use xlink:href="#DejaVuSans-6f" x="1769.005859"/>
     <use xlink:href="#DejaVuSans-74" x="1830.1875"/>
     <use xlink:href="#DejaVuSans-68" x="1869.396484"/>
     <use xlink:href="#DejaVuSans-65" x="1932.775391"/>
     <use xlink:href="#DejaVuSans-64" x="1994.298828"/>
    </g>
   </g>
   <g id="text_14">
    <!-- chrX -->
    <g transform="translate(43.06875 16.318125) scale(0.1 -0.1)">
     <defs>
      <path id="DejaVuSans-63" d="M 3122 3366 
L 3122 2828 
Q 2878 2963 2633 3030 
Q 2388 3097 2138 3097 
Q 1578 3097 1268 2742 
Q 959 2388 959 1747 
Q 959 1106 1268 751 
Q 1578 397 2138 397 
Q 2388 397 2633 464 
Q 2878 531 3122 666 
L 3122 134 
Q 2881 22 2623 -34 
Q 2366 -91 2075 -91 
Q 1284 -91 818 406 
Q 353 903 353 1747 
Q 353 2603 823 3093 
Q 1294 3584 2113 3584 
Q 2378 3584 2631 3529 
Q 2884 3475 3122 3366 
z
" transform="scale(0.015625)"/>
      <path id="DejaVuSans-58" d="M 403 4666 
L 1081 4666 
L 2241 2931 
L 3406 4666 
L 4084 4666 
L 2584 2425 
L 4184 0 
L 3506 0 
L 2194 1984 
L 872 0 
L 191 0 
L 1856 2491 
L 403 4666 
z
" transform="scale(0.015625)"/>
     </defs>
     <use xlink:href="#DejaVuSans-63"/>
     <use xlink:href="#DejaVuSans-68" x="54.980469"/>
     <use xlink:href="#DejaVuSans-72" x="118.359375"/>
     <use xlink:href="#DejaVuSans-58" x="159.472656"/>
    </g>
   </g>
  </g>
 </g>
 <defs>
  <clipPath id="pcc1dd90f6e">
   <rect x="43.06875" y="22.318125" width="513.018204" height="42.32"/>
  </clipPath>
 </defs>
</svg>
