<?xml version="1.0" encoding="utf-8" standalone="no"?>
<!DOCTYPE svg PUBLIC "-//W3C//DTD SVG 1.1//EN"
  "http://www.w3.org/Graphics/SVG/1.1/DTD/svg11.dtd">
<svg xmlns:xlink="http://www.w3.org/1999/xlink" width="568.801875pt" height="179.598125pt" viewBox="0 0 568.801875 179.598125" xmlns="http://www.w3.org/2000/svg" version="1.1">
 <metadata>
  <rdf:RDF xmlns:dc="http://purl.org/dc/elements/1.1/" xmlns:cc="http://creativecommons.org/ns#" xmlns:rdf="http://www.w3.org/1999/02/22-rdf-syntax-ns#">
   <cc:Work>
    <dc:type rdf:resource="http://purl.org/dc/dcmitype/StillImage"/>
    <dc:date>2024-11-28T14:41:44.624732</dc:date>
    <dc:format>image/svg+xml</dc:format>
    <dc:creator>
     <cc:Agent>
      <dc:title>Matplotlib v3.8.4, https://matplotlib.org/</dc:title>
     </cc:Agent>
    </dc:creator>
   </cc:Work>
  </rdf:RDF>
 </metadata>
 <defs>
  <style type="text/css">*{stroke-linejoin: round; stroke-linecap: butt}</style>
 </defs>
 <g id="figure_1">
  <g id="patch_1">
   <path d="M 0 179.598125 
L 568.801875 179.598125 
L 568.801875 0 
L 0 0 
z
" style="fill: #ffffff"/>
  </g>
  <g id="axes_1">
   <g id="patch_2">
    <path d="M 49.326563 108.453333 
L 539.806562 108.453333 
L 539.806562 75.586667 
L 49.326563 75.586667 
z
" style="fill: #ffffff"/>
   </g>
   <g id="patch_3">
    <path d="M 52.204423 105.166667 
L 57.640383 105.166667 
L 57.640383 75.586667 
L 52.204423 75.586667 
z
" clip-path="url(#pf2b45757ad)" style="fill: #d62728; opacity: 0.6"/>
   </g>
   <g id="patch_4">
    <path d="M 59.558957 105.166667 
L 60.518244 105.166667 
L 60.518244 75.586667 
L 59.558957 75.586667 
z
" clip-path="url(#pf2b45757ad)" style="fill: #d62728; opacity: 0.6"/>
   </g>
   <g id="patch_5">
    <path d="M 70.430876 105.166667 
L 70.750639 105.166667 
L 70.750639 75.586667 
L 70.430876 75.586667 
z
" clip-path="url(#pf2b45757ad)" style="fill: #d62728; opacity: 0.6"/>
   </g>
   <g id="patch_6">
    <path d="M 76.186598 105.166667 
L 76.506361 105.166667 
L 76.506361 75.586667 
L 76.186598 75.586667 
z
" clip-path="url(#pf2b45757ad)" style="fill: #d62728; opacity: 0.6"/>
   </g>
   <g id="patch_7">
    <path d="M 76.826123 105.166667 
L 80.983033 105.166667 
L 80.983033 75.586667 
L 76.826123 75.586667 
z
" clip-path="url(#pf2b45757ad)" style="fill: #d62728; opacity: 0.6"/>
   </g>
   <g id="patch_8">
    <path d="M 81.302796 105.166667 
L 82.262083 105.166667 
L 82.262083 75.586667 
L 81.302796 75.586667 
z
" clip-path="url(#pf2b45757ad)" style="fill: #d62728; opacity: 0.6"/>
   </g>
   <g id="patch_9">
    <path d="M 83.541132 105.166667 
L 86.418993 105.166667 
L 86.418993 75.586667 
L 83.541132 75.586667 
z
" clip-path="url(#pf2b45757ad)" style="fill: #d62728; opacity: 0.6"/>
   </g>
   <g id="patch_10">
    <path d="M 86.738755 105.166667 
L 93.134002 105.166667 
L 93.134002 75.586667 
L 86.738755 75.586667 
z
" clip-path="url(#pf2b45757ad)" style="fill: #d62728; opacity: 0.6"/>
   </g>
   <g id="patch_11">
    <path d="M 95.692101 105.166667 
L 96.011863 105.166667 
L 96.011863 75.586667 
L 95.692101 75.586667 
z
" clip-path="url(#pf2b45757ad)" style="fill: #d62728; opacity: 0.6"/>
   </g>
   <g id="patch_12">
    <path d="M 97.290912 105.166667 
L 97.610675 105.166667 
L 97.610675 75.586667 
L 97.290912 75.586667 
z
" clip-path="url(#pf2b45757ad)" style="fill: #d62728; opacity: 0.6"/>
   </g>
   <g id="patch_13">
    <path d="M 98.250199 105.166667 
L 99.209486 105.166667 
L 99.209486 75.586667 
L 98.250199 75.586667 
z
" clip-path="url(#pf2b45757ad)" style="fill: #d62728; opacity: 0.6"/>
   </g>
   <g id="patch_14">
    <path d="M 101.447823 105.166667 
L 103.366397 105.166667 
L 103.366397 75.586667 
L 101.447823 75.586667 
z
" clip-path="url(#pf2b45757ad)" style="fill: #d62728; opacity: 0.6"/>
   </g>
   <g id="patch_15">
    <path d="M 103.686159 105.166667 
L 105.924495 105.166667 
L 105.924495 75.586667 
L 103.686159 75.586667 
z
" clip-path="url(#pf2b45757ad)" style="fill: #d62728; opacity: 0.6"/>
   </g>
   <g id="patch_16">
    <path d="M 106.56402 105.166667 
L 109.441881 105.166667 
L 109.441881 75.586667 
L 106.56402 75.586667 
z
" clip-path="url(#pf2b45757ad)" style="fill: #d62728; opacity: 0.6"/>
   </g>
   <g id="patch_17">
    <path d="M 110.401168 105.166667 
L 110.72093 105.166667 
L 110.72093 75.586667 
L 110.401168 75.586667 
z
" clip-path="url(#pf2b45757ad)" style="fill: #d62728; opacity: 0.6"/>
   </g>
   <g id="patch_18">
    <path d="M 111.040693 105.166667 
L 113.598791 105.166667 
L 113.598791 75.586667 
L 111.040693 75.586667 
z
" clip-path="url(#pf2b45757ad)" style="fill: #d62728; opacity: 0.6"/>
   </g>
   <g id="patch_19">
    <path d="M 118.395226 105.166667 
L 119.034751 105.166667 
L 119.034751 75.586667 
L 118.395226 75.586667 
z
" clip-path="url(#pf2b45757ad)" style="fill: #d62728; opacity: 0.6"/>
   </g>
   <g id="patch_20">
    <path d="M 124.150948 105.166667 
L 128.947383 105.166667 
L 128.947383 75.586667 
L 124.150948 75.586667 
z
" clip-path="url(#pf2b45757ad)" style="fill: #d62728; opacity: 0.6"/>
   </g>
   <g id="patch_21">
    <path d="M 167.958388 105.166667 
L 168.27815 105.166667 
L 168.27815 75.586667 
L 167.958388 75.586667 
z
" clip-path="url(#pf2b45757ad)" style="fill: #d62728; opacity: 0.6"/>
   </g>
   <g id="patch_22">
    <path d="M 168.917675 105.166667 
L 183.306979 105.166667 
L 183.306979 75.586667 
L 168.917675 75.586667 
z
" clip-path="url(#pf2b45757ad)" style="fill: #d62728; opacity: 0.6"/>
   </g>
   <g id="patch_23">
    <path d="M 188.103414 105.166667 
L 193.539374 105.166667 
L 193.539374 75.586667 
L 188.103414 75.586667 
z
" clip-path="url(#pf2b45757ad)" style="fill: #d62728; opacity: 0.6"/>
   </g>
   <g id="patch_24">
    <path d="M 197.696284 105.166667 
L 209.847253 105.166667 
L 209.847253 75.586667 
L 197.696284 75.586667 
z
" clip-path="url(#pf2b45757ad)" style="fill: #d62728; opacity: 0.6"/>
   </g>
   <g id="patch_25">
    <path d="M 210.486778 105.166667 
L 211.446065 105.166667 
L 211.446065 75.586667 
L 210.486778 75.586667 
z
" clip-path="url(#pf2b45757ad)" style="fill: #d62728; opacity: 0.6"/>
   </g>
   <g id="patch_26">
    <path d="M 213.044876 105.166667 
L 215.602975 105.166667 
L 215.602975 75.586667 
L 213.044876 75.586667 
z
" clip-path="url(#pf2b45757ad)" style="fill: #d62728; opacity: 0.6"/>
   </g>
   <g id="patch_27">
    <path d="M 217.521549 105.166667 
L 226.474894 105.166667 
L 226.474894 75.586667 
L 217.521549 75.586667 
z
" clip-path="url(#pf2b45757ad)" style="fill: #d62728; opacity: 0.6"/>
   </g>
   <g id="patch_28">
    <path d="M 227.114419 105.166667 
L 227.434181 105.166667 
L 227.434181 75.586667 
L 227.114419 75.586667 
z
" clip-path="url(#pf2b45757ad)" style="fill: #d62728; opacity: 0.6"/>
   </g>
   <g id="patch_29">
    <path d="M 228.713231 105.166667 
L 229.032993 105.166667 
L 229.032993 75.586667 
L 228.713231 75.586667 
z
" clip-path="url(#pf2b45757ad)" style="fill: #d62728; opacity: 0.6"/>
   </g>
   <g id="patch_30">
    <path d="M 229.672518 105.166667 
L 230.951567 105.166667 
L 230.951567 75.586667 
L 229.672518 75.586667 
z
" clip-path="url(#pf2b45757ad)" style="fill: #d62728; opacity: 0.6"/>
   </g>
   <g id="patch_31">
    <path d="M 231.271329 105.166667 
L 231.910854 105.166667 
L 231.910854 75.586667 
L 231.271329 75.586667 
z
" clip-path="url(#pf2b45757ad)" style="fill: #d62728; opacity: 0.6"/>
   </g>
   <g id="patch_32">
    <path d="M 232.550379 105.166667 
L 234.14919 105.166667 
L 234.14919 75.586667 
L 232.550379 75.586667 
z
" clip-path="url(#pf2b45757ad)" style="fill: #d62728; opacity: 0.6"/>
   </g>
   <g id="patch_33">
    <path d="M 242.782773 105.166667 
L 243.422298 105.166667 
L 243.422298 75.586667 
L 242.782773 75.586667 
z
" clip-path="url(#pf2b45757ad)" style="fill: #d62728; opacity: 0.6"/>
   </g>
   <g id="patch_34">
    <path d="M 247.898971 105.166667 
L 248.858258 105.166667 
L 248.858258 75.586667 
L 247.898971 75.586667 
z
" clip-path="url(#pf2b45757ad)" style="fill: #d62728; opacity: 0.6"/>
   </g>
   <g id="patch_35">
    <path d="M 249.17802 105.166667 
L 249.497782 105.166667 
L 249.497782 75.586667 
L 249.17802 75.586667 
z
" clip-path="url(#pf2b45757ad)" style="fill: #d62728; opacity: 0.6"/>
   </g>
   <g id="patch_36">
    <path d="M 257.811603 105.166667 
L 261.648751 105.166667 
L 261.648751 75.586667 
L 257.811603 75.586667 
z
" clip-path="url(#pf2b45757ad)" style="fill: #d62728; opacity: 0.6"/>
   </g>
   <g id="patch_37">
    <path d="M 263.567325 105.166667 
L 265.485899 105.166667 
L 265.485899 75.586667 
L 263.567325 75.586667 
z
" clip-path="url(#pf2b45757ad)" style="fill: #d62728; opacity: 0.6"/>
   </g>
   <g id="patch_38">
    <path d="M 265.805661 105.166667 
L 269.323047 105.166667 
L 269.323047 75.586667 
L 265.805661 75.586667 
z
" clip-path="url(#pf2b45757ad)" style="fill: #d62728; opacity: 0.6"/>
   </g>
   <g id="patch_39">
    <path d="M 269.962571 105.166667 
L 271.561383 105.166667 
L 271.561383 75.586667 
L 269.962571 75.586667 
z
" clip-path="url(#pf2b45757ad)" style="fill: #d62728; opacity: 0.6"/>
   </g>
   <g id="patch_40">
    <path d="M 271.881145 105.166667 
L 272.52067 105.166667 
L 272.52067 75.586667 
L 271.881145 75.586667 
z
" clip-path="url(#pf2b45757ad)" style="fill: #d62728; opacity: 0.6"/>
   </g>
   <g id="patch_41">
    <path d="M 276.357818 105.166667 
L 276.67758 105.166667 
L 276.67758 75.586667 
L 276.357818 75.586667 
z
" clip-path="url(#pf2b45757ad)" style="fill: #d62728; opacity: 0.6"/>
   </g>
   <g id="patch_42">
    <path d="M 277.317105 105.166667 
L 278.915917 105.166667 
L 278.915917 75.586667 
L 277.317105 75.586667 
z
" clip-path="url(#pf2b45757ad)" style="fill: #d62728; opacity: 0.6"/>
   </g>
   <g id="patch_43">
    <path d="M 282.433302 105.166667 
L 283.392589 105.166667 
L 283.392589 75.586667 
L 282.433302 75.586667 
z
" clip-path="url(#pf2b45757ad)" style="fill: #d62728; opacity: 0.6"/>
   </g>
   <g id="patch_44">
    <path d="M 286.590213 105.166667 
L 288.828549 105.166667 
L 288.828549 75.586667 
L 286.590213 75.586667 
z
" clip-path="url(#pf2b45757ad)" style="fill: #d62728; opacity: 0.6"/>
   </g>
   <g id="patch_45">
    <path d="M 289.787836 105.166667 
L 290.107598 105.166667 
L 290.107598 75.586667 
L 289.787836 75.586667 
z
" clip-path="url(#pf2b45757ad)" style="fill: #d62728; opacity: 0.6"/>
   </g>
   <g id="patch_46">
    <path d="M 296.822607 105.166667 
L 297.462132 105.166667 
L 297.462132 75.586667 
L 296.822607 75.586667 
z
" clip-path="url(#pf2b45757ad)" style="fill: #d62728; opacity: 0.6"/>
   </g>
   <g id="patch_47">
    <path d="M 314.089773 105.166667 
L 314.409536 105.166667 
L 314.409536 75.586667 
L 314.089773 75.586667 
z
" clip-path="url(#pf2b45757ad)" style="fill: #d62728; opacity: 0.6"/>
   </g>
   <g id="patch_48">
    <path d="M 342.548621 105.166667 
L 342.868383 105.166667 
L 342.868383 75.586667 
L 342.548621 75.586667 
z
" clip-path="url(#pf2b45757ad)" style="fill: #d62728; opacity: 0.6"/>
   </g>
   <g id="patch_49">
    <path d="M 348.304343 105.166667 
L 351.182204 105.166667 
L 351.182204 75.586667 
L 348.304343 75.586667 
z
" clip-path="url(#pf2b45757ad)" style="fill: #d62728; opacity: 0.6"/>
   </g>
   <g id="patch_50">
    <path d="M 360.775074 105.166667 
L 361.414598 105.166667 
L 361.414598 75.586667 
L 360.775074 75.586667 
z
" clip-path="url(#pf2b45757ad)" style="fill: #d62728; opacity: 0.6"/>
   </g>
   <g id="patch_51">
    <path d="M 362.054123 105.166667 
L 362.373885 105.166667 
L 362.373885 75.586667 
L 362.054123 75.586667 
z
" clip-path="url(#pf2b45757ad)" style="fill: #d62728; opacity: 0.6"/>
   </g>
   <g id="patch_52">
    <path d="M 363.01341 105.166667 
L 364.612222 105.166667 
L 364.612222 75.586667 
L 363.01341 75.586667 
z
" clip-path="url(#pf2b45757ad)" style="fill: #d62728; opacity: 0.6"/>
   </g>
   <g id="patch_53">
    <path d="M 366.530796 105.166667 
L 367.17032 105.166667 
L 367.17032 75.586667 
L 366.530796 75.586667 
z
" clip-path="url(#pf2b45757ad)" style="fill: #d62728; opacity: 0.6"/>
   </g>
   <g id="patch_54">
    <path d="M 368.44937 105.166667 
L 370.687706 105.166667 
L 370.687706 75.586667 
L 368.44937 75.586667 
z
" clip-path="url(#pf2b45757ad)" style="fill: #d62728; opacity: 0.6"/>
   </g>
   <g id="patch_55">
    <path d="M 371.327231 105.166667 
L 371.966755 105.166667 
L 371.966755 75.586667 
L 371.327231 75.586667 
z
" clip-path="url(#pf2b45757ad)" style="fill: #d62728; opacity: 0.6"/>
   </g>
   <g id="patch_56">
    <path d="M 380.600338 105.166667 
L 386.35606 105.166667 
L 386.35606 75.586667 
L 380.600338 75.586667 
z
" clip-path="url(#pf2b45757ad)" style="fill: #d62728; opacity: 0.6"/>
   </g>
   <g id="patch_57">
    <path d="M 388.914159 105.166667 
L 392.431544 105.166667 
L 392.431544 75.586667 
L 388.914159 75.586667 
z
" clip-path="url(#pf2b45757ad)" style="fill: #d62728; opacity: 0.6"/>
   </g>
   <g id="patch_58">
    <path d="M 393.071069 105.166667 
L 394.669881 105.166667 
L 394.669881 75.586667 
L 393.071069 75.586667 
z
" clip-path="url(#pf2b45757ad)" style="fill: #d62728; opacity: 0.6"/>
   </g>
   <g id="patch_59">
    <path d="M 395.629168 105.166667 
L 395.94893 105.166667 
L 395.94893 75.586667 
L 395.629168 75.586667 
z
" clip-path="url(#pf2b45757ad)" style="fill: #d62728; opacity: 0.6"/>
   </g>
   <g id="patch_60">
    <path d="M 399.146553 105.166667 
L 399.786078 105.166667 
L 399.786078 75.586667 
L 399.146553 75.586667 
z
" clip-path="url(#pf2b45757ad)" style="fill: #d62728; opacity: 0.6"/>
   </g>
   <g id="patch_61">
    <path d="M 407.460374 105.166667 
L 408.099899 105.166667 
L 408.099899 75.586667 
L 407.460374 75.586667 
z
" clip-path="url(#pf2b45757ad)" style="fill: #d62728; opacity: 0.6"/>
   </g>
   <g id="patch_62">
    <path d="M 415.454432 105.166667 
L 421.849679 105.166667 
L 421.849679 75.586667 
L 415.454432 75.586667 
z
" clip-path="url(#pf2b45757ad)" style="fill: #d62728; opacity: 0.6"/>
   </g>
   <g id="patch_63">
    <path d="M 422.169441 105.166667 
L 423.128728 105.166667 
L 423.128728 75.586667 
L 422.169441 75.586667 
z
" clip-path="url(#pf2b45757ad)" style="fill: #d62728; opacity: 0.6"/>
   </g>
   <g id="patch_64">
    <path d="M 432.401836 105.166667 
L 434.32041 105.166667 
L 434.32041 75.586667 
L 432.401836 75.586667 
z
" clip-path="url(#pf2b45757ad)" style="fill: #d62728; opacity: 0.6"/>
   </g>
   <g id="patch_65">
    <path d="M 451.267813 105.166667 
L 454.465437 105.166667 
L 454.465437 75.586667 
L 451.267813 75.586667 
z
" clip-path="url(#pf2b45757ad)" style="fill: #d62728; opacity: 0.6"/>
   </g>
   <g id="patch_66">
    <path d="M 459.901396 105.166667 
L 460.221159 105.166667 
L 460.221159 75.586667 
L 459.901396 75.586667 
z
" clip-path="url(#pf2b45757ad)" style="fill: #d62728; opacity: 0.6"/>
   </g>
   <g id="patch_67">
    <path d="M 463.418782 105.166667 
L 464.058307 105.166667 
L 464.058307 75.586667 
L 463.418782 75.586667 
z
" clip-path="url(#pf2b45757ad)" style="fill: #d62728; opacity: 0.6"/>
   </g>
   <g id="patch_68">
    <path d="M 466.936168 105.166667 
L 475.249988 105.166667 
L 475.249988 75.586667 
L 466.936168 75.586667 
z
" clip-path="url(#pf2b45757ad)" style="fill: #d62728; opacity: 0.6"/>
   </g>
   <g id="patch_69">
    <path d="M 483.883571 105.166667 
L 484.842858 105.166667 
L 484.842858 75.586667 
L 483.883571 75.586667 
z
" clip-path="url(#pf2b45757ad)" style="fill: #d62728; opacity: 0.6"/>
   </g>
   <g id="patch_70">
    <path d="M 509.464558 105.166667 
L 509.78432 105.166667 
L 509.78432 75.586667 
L 509.464558 75.586667 
z
" clip-path="url(#pf2b45757ad)" style="fill: #d62728; opacity: 0.6"/>
   </g>
   <g id="patch_71">
    <path d="M 514.260993 105.166667 
L 519.696952 105.166667 
L 519.696952 75.586667 
L 514.260993 75.586667 
z
" clip-path="url(#pf2b45757ad)" style="fill: #d62728; opacity: 0.6"/>
   </g>
   <g id="patch_72">
    <path d="M 525.452674 105.166667 
L 526.092199 105.166667 
L 526.092199 75.586667 
L 525.452674 75.586667 
z
" clip-path="url(#pf2b45757ad)" style="fill: #d62728; opacity: 0.6"/>
   </g>
   <g id="patch_73">
    <path d="M 526.731724 105.166667 
L 531.847921 105.166667 
L 531.847921 75.586667 
L 526.731724 75.586667 
z
" clip-path="url(#pf2b45757ad)" style="fill: #d62728; opacity: 0.6"/>
   </g>
   <g id="patch_74">
    <path d="M 536.324594 105.166667 
L 539.522217 105.166667 
L 539.522217 75.586667 
L 536.324594 75.586667 
z
" clip-path="url(#pf2b45757ad)" style="fill: #d62728; opacity: 0.6"/>
   </g>
   <g id="matplotlib.axis_1">
    <g id="text_1">
     <!-- A-Comp -->
     <g transform="translate(9.619531 89.940313) scale(0.1 -0.1)">
      <defs>
       <path id="DejaVuSans-41" d="M 2188 4044 
L 1331 1722 
L 3047 1722 
L 2188 4044 
z
M 1831 4666 
L 2547 4666 
L 4325 0 
L 3669 0 
L 3244 1197 
L 1141 1197 
L 716 0 
L 50 0 
L 1831 4666 
z
" transform="scale(0.015625)"/>
       <path id="DejaVuSans-2d" d="M 313 2009 
L 1997 2009 
L 1997 1497 
L 313 1497 
L 313 2009 
z
" transform="scale(0.015625)"/>
       <path id="DejaVuSans-43" d="M 4122 4306 
L 4122 3641 
Q 3803 3938 3442 4084 
Q 3081 4231 2675 4231 
Q 1875 4231 1450 3742 
Q 1025 3253 1025 2328 
Q 1025 1406 1450 917 
Q 1875 428 2675 428 
Q 3081 428 3442 575 
Q 3803 722 4122 1019 
L 4122 359 
Q 3791 134 3420 21 
Q 3050 -91 2638 -91 
Q 1578 -91 968 557 
Q 359 1206 359 2328 
Q 359 3453 968 4101 
Q 1578 4750 2638 4750 
Q 3056 4750 3426 4639 
Q 3797 4528 4122 4306 
z
" transform="scale(0.015625)"/>
       <path id="DejaVuSans-6f" d="M 1959 3097 
Q 1497 3097 1228 2736 
Q 959 2375 959 1747 
Q 959 1119 1226 758 
Q 1494 397 1959 397 
Q 2419 397 2687 759 
Q 2956 1122 2956 1747 
Q 2956 2369 2687 2733 
Q 2419 3097 1959 3097 
z
M 1959 3584 
Q 2709 3584 3137 3096 
Q 3566 2609 3566 1747 
Q 3566 888 3137 398 
Q 2709 -91 1959 -91 
Q 1206 -91 779 398 
Q 353 888 353 1747 
Q 353 2609 779 3096 
Q 1206 3584 1959 3584 
z
" transform="scale(0.015625)"/>
       <path id="DejaVuSans-6d" d="M 3328 2828 
Q 3544 3216 3844 3400 
Q 4144 3584 4550 3584 
Q 5097 3584 5394 3201 
Q 5691 2819 5691 2113 
L 5691 0 
L 5113 0 
L 5113 2094 
Q 5113 2597 4934 2840 
Q 4756 3084 4391 3084 
Q 3944 3084 3684 2787 
Q 3425 2491 3425 1978 
L 3425 0 
L 2847 0 
L 2847 2094 
Q 2847 2600 2669 2842 
Q 2491 3084 2119 3084 
Q 1678 3084 1418 2786 
Q 1159 2488 1159 1978 
L 1159 0 
L 581 0 
L 581 3500 
L 1159 3500 
L 1159 2956 
Q 1356 3278 1631 3431 
Q 1906 3584 2284 3584 
Q 2666 3584 2933 3390 
Q 3200 3197 3328 2828 
z
" transform="scale(0.015625)"/>
       <path id="DejaVuSans-70" d="M 1159 525 
L 1159 -1331 
L 581 -1331 
L 581 3500 
L 1159 3500 
L 1159 2969 
Q 1341 3281 1617 3432 
Q 1894 3584 2278 3584 
Q 2916 3584 3314 3078 
Q 3713 2572 3713 1747 
Q 3713 922 3314 415 
Q 2916 -91 2278 -91 
Q 1894 -91 1617 61 
Q 1341 213 1159 525 
z
M 3116 1747 
Q 3116 2381 2855 2742 
Q 2594 3103 2138 3103 
Q 1681 3103 1420 2742 
Q 1159 2381 1159 1747 
Q 1159 1113 1420 752 
Q 1681 391 2138 391 
Q 2594 391 2855 752 
Q 3116 1113 3116 1747 
z
" transform="scale(0.015625)"/>
      </defs>
      <use xlink:href="#DejaVuSans-41"/>
      <use xlink:href="#DejaVuSans-2d" x="66.158203"/>
      <use xlink:href="#DejaVuSans-43" x="102.242188"/>
      <use xlink:href="#DejaVuSans-6f" x="172.066406"/>
      <use xlink:href="#DejaVuSans-6d" x="233.248047"/>
      <use xlink:href="#DejaVuSans-70" x="330.660156"/>
     </g>
    </g>
   </g>
  </g>
  <g id="axes_2">
   <g id="patch_75">
    <path d="M 49.326563 61.186667 
L 539.806562 61.186667 
L 539.806562 28.32 
L 49.326563 28.32 
z
" style="fill: #ffffff"/>
   </g>
   <g id="patch_76">
    <path d="M 111.797803 57.9 
L 112.11824 57.9 
L 112.11824 28.32 
L 111.797803 28.32 
z
" clip-path="url(#pb9f6ff06fb)" style="fill: #1f77b4; opacity: 0.6"/>
   </g>
   <g id="patch_77">
    <path d="M 116.269408 57.9 
L 116.624139 57.9 
L 116.624139 28.32 
L 116.269408 28.32 
z
" clip-path="url(#pb9f6ff06fb)" style="fill: #1f77b4; opacity: 0.6"/>
   </g>
   <g id="patch_78">
    <path d="M 165.154526 57.9 
L 165.793091 57.9 
L 165.793091 28.32 
L 165.154526 28.32 
z
" clip-path="url(#pb9f6ff06fb)" style="fill: #1f77b4; opacity: 0.6"/>
   </g>
   <g id="patch_79">
    <path d="M 168.393056 57.9 
L 169.659613 57.9 
L 169.659613 28.32 
L 168.393056 28.32 
z
" clip-path="url(#pb9f6ff06fb)" style="fill: #1f77b4; opacity: 0.6"/>
   </g>
   <g id="patch_80">
    <path d="M 207.661748 57.9 
L 209.252898 57.9 
L 209.252898 28.32 
L 207.661748 28.32 
z
" clip-path="url(#pb9f6ff06fb)" style="fill: #1f77b4; opacity: 0.6"/>
   </g>
   <g id="patch_81">
    <path d="M 211.834208 57.9 
L 213.826673 57.9 
L 213.826673 28.32 
L 211.834208 28.32 
z
" clip-path="url(#pb9f6ff06fb)" style="fill: #1f77b4; opacity: 0.6"/>
   </g>
   <g id="patch_82">
    <path d="M 221.688036 57.9 
L 222.339782 57.9 
L 222.339782 28.32 
L 221.688036 28.32 
z
" clip-path="url(#pb9f6ff06fb)" style="fill: #1f77b4; opacity: 0.6"/>
   </g>
   <g id="patch_83">
    <path d="M 247.8879 57.9 
L 248.517228 57.9 
L 248.517228 28.32 
L 247.8879 28.32 
z
" clip-path="url(#pb9f6ff06fb)" style="fill: #1f77b4; opacity: 0.6"/>
   </g>
   <g id="patch_84">
    <path d="M 276.006063 57.9 
L 276.836416 57.9 
L 276.836416 28.32 
L 276.006063 28.32 
z
" clip-path="url(#pb9f6ff06fb)" style="fill: #1f77b4; opacity: 0.6"/>
   </g>
   <g id="patch_85">
    <path d="M 278.879995 57.9 
L 280.016778 57.9 
L 280.016778 28.32 
L 278.879995 28.32 
z
" clip-path="url(#pb9f6ff06fb)" style="fill: #1f77b4; opacity: 0.6"/>
   </g>
   <g id="patch_86">
    <path d="M 287.04299 57.9 
L 287.983372 57.9 
L 287.983372 28.32 
L 287.04299 28.32 
z
" clip-path="url(#pb9f6ff06fb)" style="fill: #1f77b4; opacity: 0.6"/>
   </g>
   <g id="patch_87">
    <path d="M 357.100845 57.9 
L 357.384064 57.9 
L 357.384064 28.32 
L 357.100845 28.32 
z
" clip-path="url(#pb9f6ff06fb)" style="fill: #1f77b4; opacity: 0.6"/>
   </g>
   <g id="patch_88">
    <path d="M 395.239365 57.9 
L 396.458842 57.9 
L 396.458842 28.32 
L 395.239365 28.32 
z
" clip-path="url(#pb9f6ff06fb)" style="fill: #1f77b4; opacity: 0.6"/>
   </g>
   <g id="patch_89">
    <path d="M 405.23125 57.9 
L 406.170261 57.9 
L 406.170261 28.32 
L 405.23125 28.32 
z
" clip-path="url(#pb9f6ff06fb)" style="fill: #1f77b4; opacity: 0.6"/>
   </g>
   <g id="patch_90">
    <path d="M 446.082029 57.9 
L 446.398367 57.9 
L 446.398367 28.32 
L 446.082029 28.32 
z
" clip-path="url(#pb9f6ff06fb)" style="fill: #1f77b4; opacity: 0.6"/>
   </g>
   <g id="patch_91">
    <path d="M 454.908586 57.9 
L 456.205043 57.9 
L 456.205043 28.32 
L 454.908586 28.32 
z
" clip-path="url(#pb9f6ff06fb)" style="fill: #1f77b4; opacity: 0.6"/>
   </g>
   <g id="patch_92">
    <path d="M 459.913483 57.9 
L 460.86633 57.9 
L 460.86633 28.32 
L 459.913483 28.32 
z
" clip-path="url(#pb9f6ff06fb)" style="fill: #1f77b4; opacity: 0.6"/>
   </g>
   <g id="patch_93">
    <path d="M 464.169968 57.9 
L 465.127291 57.9 
L 465.127291 28.32 
L 464.169968 28.32 
z
" clip-path="url(#pb9f6ff06fb)" style="fill: #1f77b4; opacity: 0.6"/>
   </g>
   <g id="patch_94">
    <path d="M 531.54619 57.9 
L 532.853279 57.9 
L 532.853279 28.32 
L 531.54619 28.32 
z
" clip-path="url(#pb9f6ff06fb)" style="fill: #1f77b4; opacity: 0.6"/>
   </g>
   <g id="matplotlib.axis_2">
    <g id="text_2">
     <!-- ECH90 -->
     <g transform="translate(12.553125 42.673646) scale(0.1 -0.1)">
      <defs>
       <path id="DejaVuSans-45" d="M 628 4666 
L 3578 4666 
L 3578 4134 
L 1259 4134 
L 1259 2753 
L 3481 2753 
L 3481 2222 
L 1259 2222 
L 1259 531 
L 3634 531 
L 3634 0 
L 628 0 
L 628 4666 
z
" transform="scale(0.015625)"/>
       <path id="DejaVuSans-48" d="M 628 4666 
L 1259 4666 
L 1259 2753 
L 3553 2753 
L 3553 4666 
L 4184 4666 
L 4184 0 
L 3553 0 
L 3553 2222 
L 1259 2222 
L 1259 0 
L 628 0 
L 628 4666 
z
" transform="scale(0.015625)"/>
       <path id="DejaVuSans-39" d="M 703 97 
L 703 672 
Q 941 559 1184 500 
Q 1428 441 1663 441 
Q 2288 441 2617 861 
Q 2947 1281 2994 2138 
Q 2813 1869 2534 1725 
Q 2256 1581 1919 1581 
Q 1219 1581 811 2004 
Q 403 2428 403 3163 
Q 403 3881 828 4315 
Q 1253 4750 1959 4750 
Q 2769 4750 3195 4129 
Q 3622 3509 3622 2328 
Q 3622 1225 3098 567 
Q 2575 -91 1691 -91 
Q 1453 -91 1209 -44 
Q 966 3 703 97 
z
M 1959 2075 
Q 2384 2075 2632 2365 
Q 2881 2656 2881 3163 
Q 2881 3666 2632 3958 
Q 2384 4250 1959 4250 
Q 1534 4250 1286 3958 
Q 1038 3666 1038 3163 
Q 1038 2656 1286 2365 
Q 1534 2075 1959 2075 
z
" transform="scale(0.015625)"/>
       <path id="DejaVuSans-30" d="M 2034 4250 
Q 1547 4250 1301 3770 
Q 1056 3291 1056 2328 
Q 1056 1369 1301 889 
Q 1547 409 2034 409 
Q 2525 409 2770 889 
Q 3016 1369 3016 2328 
Q 3016 3291 2770 3770 
Q 2525 4250 2034 4250 
z
M 2034 4750 
Q 2819 4750 3233 4129 
Q 3647 3509 3647 2328 
Q 3647 1150 3233 529 
Q 2819 -91 2034 -91 
Q 1250 -91 836 529 
Q 422 1150 422 2328 
Q 422 3509 836 4129 
Q 1250 4750 2034 4750 
z
" transform="scale(0.015625)"/>
      </defs>
      <use xlink:href="#DejaVuSans-45"/>
      <use xlink:href="#DejaVuSans-43" x="63.183594"/>
      <use xlink:href="#DejaVuSans-48" x="133.007812"/>
      <use xlink:href="#DejaVuSans-39" x="208.203125"/>
      <use xlink:href="#DejaVuSans-30" x="271.826172"/>
     </g>
    </g>
   </g>
   <g id="text_3">
    <!-- chrX -->
    <g transform="translate(49.326563 22.32) scale(0.1 -0.1)">
     <defs>
      <path id="DejaVuSans-63" d="M 3122 3366 
L 3122 2828 
Q 2878 2963 2633 3030 
Q 2388 3097 2138 3097 
Q 1578 3097 1268 2742 
Q 959 2388 959 1747 
Q 959 1106 1268 751 
Q 1578 397 2138 397 
Q 2388 397 2633 464 
Q 2878 531 3122 666 
L 3122 134 
Q 2881 22 2623 -34 
Q 2366 -91 2075 -91 
Q 1284 -91 818 406 
Q 353 903 353 1747 
Q 353 2603 823 3093 
Q 1294 3584 2113 3584 
Q 2378 3584 2631 3529 
Q 2884 3475 3122 3366 
z
" transform="scale(0.015625)"/>
      <path id="DejaVuSans-68" d="M 3513 2113 
L 3513 0 
L 2938 0 
L 2938 2094 
Q 2938 2591 2744 2837 
Q 2550 3084 2163 3084 
Q 1697 3084 1428 2787 
Q 1159 2491 1159 1978 
L 1159 0 
L 581 0 
L 581 4863 
L 1159 4863 
L 1159 2956 
Q 1366 3272 1645 3428 
Q 1925 3584 2291 3584 
Q 2894 3584 3203 3211 
Q 3513 2838 3513 2113 
z
" transform="scale(0.015625)"/>
      <path id="DejaVuSans-72" d="M 2631 2963 
Q 2534 3019 2420 3045 
Q 2306 3072 2169 3072 
Q 1681 3072 1420 2755 
Q 1159 2438 1159 1844 
L 1159 0 
L 581 0 
L 581 3500 
L 1159 3500 
L 1159 2956 
Q 1341 3275 1631 3429 
Q 1922 3584 2338 3584 
Q 2397 3584 2469 3576 
Q 2541 3569 2628 3553 
L 2631 2963 
z
" transform="scale(0.015625)"/>
      <path id="DejaVuSans-58" d="M 403 4666 
L 1081 4666 
L 2241 2931 
L 3406 4666 
L 4084 4666 
L 2584 2425 
L 4184 0 
L 3506 0 
L 2194 1984 
L 872 0 
L 191 0 
L 1856 2491 
L 403 4666 
z
" transform="scale(0.015625)"/>
     </defs>
     <use xlink:href="#DejaVuSans-63"/>
     <use xlink:href="#DejaVuSans-68" x="54.980469"/>
     <use xlink:href="#DejaVuSans-72" x="118.359375"/>
     <use xlink:href="#DejaVuSans-58" x="159.472656"/>
    </g>
   </g>
  </g>
  <g id="axes_3">
   <g id="patch_95">
    <path d="M 49.326563 155.72 
L 539.806562 155.72 
L 539.806562 122.853333 
L 49.326563 122.853333 
z
" style="fill: #ffffff"/>
   </g>
   <g id="patch_96">
    <path d="M 111.797803 152.433333 
L 112.11824 152.433333 
L 112.11824 122.853333 
L 111.797803 122.853333 
z
" clip-path="url(#p09e4158a4f)" style="fill: #2ca02c; opacity: 0.6"/>
   </g>
   <g id="patch_97">
    <path d="M 168.917675 152.433333 
L 169.659613 152.433333 
L 169.659613 122.853333 
L 168.917675 122.853333 
z
" clip-path="url(#p09e4158a4f)" style="fill: #2ca02c; opacity: 0.6"/>
   </g>
   <g id="patch_98">
    <path d="M 207.661748 152.433333 
L 209.252898 152.433333 
L 209.252898 122.853333 
L 207.661748 122.853333 
z
" clip-path="url(#p09e4158a4f)" style="fill: #2ca02c; opacity: 0.6"/>
   </g>
   <g id="patch_99">
    <path d="M 213.044876 152.433333 
L 213.826673 152.433333 
L 213.826673 122.853333 
L 213.044876 122.853333 
z
" clip-path="url(#p09e4158a4f)" style="fill: #2ca02c; opacity: 0.6"/>
   </g>
   <g id="patch_100">
    <path d="M 221.688036 152.433333 
L 222.339782 152.433333 
L 222.339782 122.853333 
L 221.688036 122.853333 
z
" clip-path="url(#p09e4158a4f)" style="fill: #2ca02c; opacity: 0.6"/>
   </g>
   <g id="patch_101">
    <path d="M 247.898971 152.433333 
L 248.517228 152.433333 
L 248.517228 122.853333 
L 247.898971 122.853333 
z
" clip-path="url(#p09e4158a4f)" style="fill: #2ca02c; opacity: 0.6"/>
   </g>
   <g id="patch_102">
    <path d="M 276.357818 152.433333 
L 276.67758 152.433333 
L 276.67758 122.853333 
L 276.357818 122.853333 
z
" clip-path="url(#p09e4158a4f)" style="fill: #2ca02c; opacity: 0.6"/>
   </g>
   <g id="patch_103">
    <path d="M 278.879995 152.433333 
L 278.915917 152.433333 
L 278.915917 122.853333 
L 278.879995 122.853333 
z
" clip-path="url(#p09e4158a4f)" style="fill: #2ca02c; opacity: 0.6"/>
   </g>
   <g id="patch_104">
    <path d="M 287.04299 152.433333 
L 287.983372 152.433333 
L 287.983372 122.853333 
L 287.04299 122.853333 
z
" clip-path="url(#p09e4158a4f)" style="fill: #2ca02c; opacity: 0.6"/>
   </g>
   <g id="patch_105">
    <path d="M 395.629168 152.433333 
L 395.94893 152.433333 
L 395.94893 122.853333 
L 395.629168 122.853333 
z
" clip-path="url(#p09e4158a4f)" style="fill: #2ca02c; opacity: 0.6"/>
   </g>
   <g id="patch_106">
    <path d="M 459.913483 152.433333 
L 460.221159 152.433333 
L 460.221159 122.853333 
L 459.913483 122.853333 
z
" clip-path="url(#p09e4158a4f)" style="fill: #2ca02c; opacity: 0.6"/>
   </g>
   <g id="patch_107">
    <path d="M 531.54619 152.433333 
L 531.847921 152.433333 
L 531.847921 122.853333 
L 531.54619 122.853333 
z
" clip-path="url(#p09e4158a4f)" style="fill: #2ca02c; opacity: 0.6"/>
   </g>
   <g id="matplotlib.axis_3">
    <g id="xtick_1">
     <g id="line2d_1">
      <defs>
       <path id="m4289ced8c4" d="M 0 0 
L 0 3.5 
" style="stroke: #000000; stroke-width: 0.8"/>
      </defs>
      <g>
       <use xlink:href="#m4289ced8c4" x="49.326563" y="155.72" style="stroke: #000000; stroke-width: 0.8"/>
      </g>
     </g>
     <g id="text_4">
      <!-- 0 Mbp -->
      <g transform="translate(33.89375 170.318438) scale(0.1 -0.1)">
       <defs>
        <path id="DejaVuSans-20" transform="scale(0.015625)"/>
        <path id="DejaVuSans-4d" d="M 628 4666 
L 1569 4666 
L 2759 1491 
L 3956 4666 
L 4897 4666 
L 4897 0 
L 4281 0 
L 4281 4097 
L 3078 897 
L 2444 897 
L 1241 4097 
L 1241 0 
L 628 0 
L 628 4666 
z
" transform="scale(0.015625)"/>
        <path id="DejaVuSans-62" d="M 3116 1747 
Q 3116 2381 2855 2742 
Q 2594 3103 2138 3103 
Q 1681 3103 1420 2742 
Q 1159 2381 1159 1747 
Q 1159 1113 1420 752 
Q 1681 391 2138 391 
Q 2594 391 2855 752 
Q 3116 1113 3116 1747 
z
M 1159 2969 
Q 1341 3281 1617 3432 
Q 1894 3584 2278 3584 
Q 2916 3584 3314 3078 
Q 3713 2572 3713 1747 
Q 3713 922 3314 415 
Q 2916 -91 2278 -91 
Q 1894 -91 1617 61 
Q 1341 213 1159 525 
L 1159 0 
L 581 0 
L 581 4863 
L 1159 4863 
L 1159 2969 
z
" transform="scale(0.015625)"/>
       </defs>
       <use xlink:href="#DejaVuSans-30"/>
       <use xlink:href="#DejaVuSans-20" x="63.623047"/>
       <use xlink:href="#DejaVuSans-4d" x="95.410156"/>
       <use xlink:href="#DejaVuSans-62" x="181.689453"/>
       <use xlink:href="#DejaVuSans-70" x="245.166016"/>
      </g>
     </g>
    </g>
    <g id="xtick_2">
     <g id="line2d_2">
      <g>
       <use xlink:href="#m4289ced8c4" x="171.946562" y="155.72" style="stroke: #000000; stroke-width: 0.8"/>
      </g>
     </g>
     <g id="text_5">
      <!-- 38 Mbp -->
      <g transform="translate(153.3325 170.318438) scale(0.1 -0.1)">
       <defs>
        <path id="DejaVuSans-33" d="M 2597 2516 
Q 3050 2419 3304 2112 
Q 3559 1806 3559 1356 
Q 3559 666 3084 287 
Q 2609 -91 1734 -91 
Q 1441 -91 1130 -33 
Q 819 25 488 141 
L 488 750 
Q 750 597 1062 519 
Q 1375 441 1716 441 
Q 2309 441 2620 675 
Q 2931 909 2931 1356 
Q 2931 1769 2642 2001 
Q 2353 2234 1838 2234 
L 1294 2234 
L 1294 2753 
L 1863 2753 
Q 2328 2753 2575 2939 
Q 2822 3125 2822 3475 
Q 2822 3834 2567 4026 
Q 2313 4219 1838 4219 
Q 1578 4219 1281 4162 
Q 984 4106 628 3988 
L 628 4550 
Q 988 4650 1302 4700 
Q 1616 4750 1894 4750 
Q 2613 4750 3031 4423 
Q 3450 4097 3450 3541 
Q 3450 3153 3228 2886 
Q 3006 2619 2597 2516 
z
" transform="scale(0.015625)"/>
        <path id="DejaVuSans-38" d="M 2034 2216 
Q 1584 2216 1326 1975 
Q 1069 1734 1069 1313 
Q 1069 891 1326 650 
Q 1584 409 2034 409 
Q 2484 409 2743 651 
Q 3003 894 3003 1313 
Q 3003 1734 2745 1975 
Q 2488 2216 2034 2216 
z
M 1403 2484 
Q 997 2584 770 2862 
Q 544 3141 544 3541 
Q 544 4100 942 4425 
Q 1341 4750 2034 4750 
Q 2731 4750 3128 4425 
Q 3525 4100 3525 3541 
Q 3525 3141 3298 2862 
Q 3072 2584 2669 2484 
Q 3125 2378 3379 2068 
Q 3634 1759 3634 1313 
Q 3634 634 3220 271 
Q 2806 -91 2034 -91 
Q 1263 -91 848 271 
Q 434 634 434 1313 
Q 434 1759 690 2068 
Q 947 2378 1403 2484 
z
M 1172 3481 
Q 1172 3119 1398 2916 
Q 1625 2713 2034 2713 
Q 2441 2713 2670 2916 
Q 2900 3119 2900 3481 
Q 2900 3844 2670 4047 
Q 2441 4250 2034 4250 
Q 1625 4250 1398 4047 
Q 1172 3844 1172 3481 
z
" transform="scale(0.015625)"/>
       </defs>
       <use xlink:href="#DejaVuSans-33"/>
       <use xlink:href="#DejaVuSans-38" x="63.623047"/>
       <use xlink:href="#DejaVuSans-20" x="127.246094"/>
       <use xlink:href="#DejaVuSans-4d" x="159.033203"/>
       <use xlink:href="#DejaVuSans-62" x="245.3125"/>
       <use xlink:href="#DejaVuSans-70" x="308.789062"/>
      </g>
     </g>
    </g>
    <g id="xtick_3">
     <g id="line2d_3">
      <g>
       <use xlink:href="#m4289ced8c4" x="294.566562" y="155.72" style="stroke: #000000; stroke-width: 0.8"/>
      </g>
     </g>
     <g id="text_6">
      <!-- 76 Mbp -->
      <g transform="translate(275.9525 170.318438) scale(0.1 -0.1)">
       <defs>
        <path id="DejaVuSans-37" d="M 525 4666 
L 3525 4666 
L 3525 4397 
L 1831 0 
L 1172 0 
L 2766 4134 
L 525 4134 
L 525 4666 
z
" transform="scale(0.015625)"/>
        <path id="DejaVuSans-36" d="M 2113 2584 
Q 1688 2584 1439 2293 
Q 1191 2003 1191 1497 
Q 1191 994 1439 701 
Q 1688 409 2113 409 
Q 2538 409 2786 701 
Q 3034 994 3034 1497 
Q 3034 2003 2786 2293 
Q 2538 2584 2113 2584 
z
M 3366 4563 
L 3366 3988 
Q 3128 4100 2886 4159 
Q 2644 4219 2406 4219 
Q 1781 4219 1451 3797 
Q 1122 3375 1075 2522 
Q 1259 2794 1537 2939 
Q 1816 3084 2150 3084 
Q 2853 3084 3261 2657 
Q 3669 2231 3669 1497 
Q 3669 778 3244 343 
Q 2819 -91 2113 -91 
Q 1303 -91 875 529 
Q 447 1150 447 2328 
Q 447 3434 972 4092 
Q 1497 4750 2381 4750 
Q 2619 4750 2861 4703 
Q 3103 4656 3366 4563 
z
" transform="scale(0.015625)"/>
       </defs>
       <use xlink:href="#DejaVuSans-37"/>
       <use xlink:href="#DejaVuSans-36" x="63.623047"/>
       <use xlink:href="#DejaVuSans-20" x="127.246094"/>
       <use xlink:href="#DejaVuSans-4d" x="159.033203"/>
       <use xlink:href="#DejaVuSans-62" x="245.3125"/>
       <use xlink:href="#DejaVuSans-70" x="308.789062"/>
      </g>
     </g>
    </g>
    <g id="xtick_4">
     <g id="line2d_4">
      <g>
       <use xlink:href="#m4289ced8c4" x="417.186562" y="155.72" style="stroke: #000000; stroke-width: 0.8"/>
      </g>
     </g>
     <g id="text_7">
      <!-- 115 Mbp -->
      <g transform="translate(395.39125 170.318438) scale(0.1 -0.1)">
       <defs>
        <path id="DejaVuSans-31" d="M 794 531 
L 1825 531 
L 1825 4091 
L 703 3866 
L 703 4441 
L 1819 4666 
L 2450 4666 
L 2450 531 
L 3481 531 
L 3481 0 
L 794 0 
L 794 531 
z
" transform="scale(0.015625)"/>
        <path id="DejaVuSans-35" d="M 691 4666 
L 3169 4666 
L 3169 4134 
L 1269 4134 
L 1269 2991 
Q 1406 3038 1543 3061 
Q 1681 3084 1819 3084 
Q 2600 3084 3056 2656 
Q 3513 2228 3513 1497 
Q 3513 744 3044 326 
Q 2575 -91 1722 -91 
Q 1428 -91 1123 -41 
Q 819 9 494 109 
L 494 744 
Q 775 591 1075 516 
Q 1375 441 1709 441 
Q 2250 441 2565 725 
Q 2881 1009 2881 1497 
Q 2881 1984 2565 2268 
Q 2250 2553 1709 2553 
Q 1456 2553 1204 2497 
Q 953 2441 691 2322 
L 691 4666 
z
" transform="scale(0.015625)"/>
       </defs>
       <use xlink:href="#DejaVuSans-31"/>
       <use xlink:href="#DejaVuSans-31" x="63.623047"/>
       <use xlink:href="#DejaVuSans-35" x="127.246094"/>
       <use xlink:href="#DejaVuSans-20" x="190.869141"/>
       <use xlink:href="#DejaVuSans-4d" x="222.65625"/>
       <use xlink:href="#DejaVuSans-62" x="308.935547"/>
       <use xlink:href="#DejaVuSans-70" x="372.412109"/>
      </g>
     </g>
    </g>
    <g id="xtick_5">
     <g id="line2d_5">
      <g>
       <use xlink:href="#m4289ced8c4" x="539.806562" y="155.72" style="stroke: #000000; stroke-width: 0.8"/>
      </g>
     </g>
     <g id="text_8">
      <!-- 153 Mbp -->
      <g transform="translate(518.01125 170.318438) scale(0.1 -0.1)">
       <use xlink:href="#DejaVuSans-31"/>
       <use xlink:href="#DejaVuSans-35" x="63.623047"/>
       <use xlink:href="#DejaVuSans-33" x="127.246094"/>
       <use xlink:href="#DejaVuSans-20" x="190.869141"/>
       <use xlink:href="#DejaVuSans-4d" x="222.65625"/>
       <use xlink:href="#DejaVuSans-62" x="308.935547"/>
       <use xlink:href="#DejaVuSans-70" x="372.412109"/>
      </g>
     </g>
    </g>
   </g>
   <g id="matplotlib.axis_4">
    <g id="text_9">
     <!-- Intersect -->
     <g transform="translate(7.2 137.206979) scale(0.1 -0.1)">
      <defs>
       <path id="DejaVuSans-49" d="M 628 4666 
L 1259 4666 
L 1259 0 
L 628 0 
L 628 4666 
z
" transform="scale(0.015625)"/>
       <path id="DejaVuSans-6e" d="M 3513 2113 
L 3513 0 
L 2938 0 
L 2938 2094 
Q 2938 2591 2744 2837 
Q 2550 3084 2163 3084 
Q 1697 3084 1428 2787 
Q 1159 2491 1159 1978 
L 1159 0 
L 581 0 
L 581 3500 
L 1159 3500 
L 1159 2956 
Q 1366 3272 1645 3428 
Q 1925 3584 2291 3584 
Q 2894 3584 3203 3211 
Q 3513 2838 3513 2113 
z
" transform="scale(0.015625)"/>
       <path id="DejaVuSans-74" d="M 1172 4494 
L 1172 3500 
L 2356 3500 
L 2356 3053 
L 1172 3053 
L 1172 1153 
Q 1172 725 1289 603 
Q 1406 481 1766 481 
L 2356 481 
L 2356 0 
L 1766 0 
Q 1100 0 847 248 
Q 594 497 594 1153 
L 594 3053 
L 172 3053 
L 172 3500 
L 594 3500 
L 594 4494 
L 1172 4494 
z
" transform="scale(0.015625)"/>
       <path id="DejaVuSans-65" d="M 3597 1894 
L 3597 1613 
L 953 1613 
Q 991 1019 1311 708 
Q 1631 397 2203 397 
Q 2534 397 2845 478 
Q 3156 559 3463 722 
L 3463 178 
Q 3153 47 2828 -22 
Q 2503 -91 2169 -91 
Q 1331 -91 842 396 
Q 353 884 353 1716 
Q 353 2575 817 3079 
Q 1281 3584 2069 3584 
Q 2775 3584 3186 3129 
Q 3597 2675 3597 1894 
z
M 3022 2063 
Q 3016 2534 2758 2815 
Q 2500 3097 2075 3097 
Q 1594 3097 1305 2825 
Q 1016 2553 972 2059 
L 3022 2063 
z
" transform="scale(0.015625)"/>
       <path id="DejaVuSans-73" d="M 2834 3397 
L 2834 2853 
Q 2591 2978 2328 3040 
Q 2066 3103 1784 3103 
Q 1356 3103 1142 2972 
Q 928 2841 928 2578 
Q 928 2378 1081 2264 
Q 1234 2150 1697 2047 
L 1894 2003 
Q 2506 1872 2764 1633 
Q 3022 1394 3022 966 
Q 3022 478 2636 193 
Q 2250 -91 1575 -91 
Q 1294 -91 989 -36 
Q 684 19 347 128 
L 347 722 
Q 666 556 975 473 
Q 1284 391 1588 391 
Q 1994 391 2212 530 
Q 2431 669 2431 922 
Q 2431 1156 2273 1281 
Q 2116 1406 1581 1522 
L 1381 1569 
Q 847 1681 609 1914 
Q 372 2147 372 2553 
Q 372 3047 722 3315 
Q 1072 3584 1716 3584 
Q 2034 3584 2315 3537 
Q 2597 3491 2834 3397 
z
" transform="scale(0.015625)"/>
      </defs>
      <use xlink:href="#DejaVuSans-49"/>
      <use xlink:href="#DejaVuSans-6e" x="29.492188"/>
      <use xlink:href="#DejaVuSans-74" x="92.871094"/>
      <use xlink:href="#DejaVuSans-65" x="132.080078"/>
      <use xlink:href="#DejaVuSans-72" x="193.603516"/>
      <use xlink:href="#DejaVuSans-73" x="234.716797"/>
      <use xlink:href="#DejaVuSans-65" x="286.816406"/>
      <use xlink:href="#DejaVuSans-63" x="348.339844"/>
      <use xlink:href="#DejaVuSans-74" x="403.320312"/>
     </g>
    </g>
   </g>
   <g id="patch_108">
    <path d="M 49.326563 155.72 
L 539.806562 155.72 
" style="fill: none; stroke: #000000; stroke-width: 0.8; stroke-linejoin: miter; stroke-linecap: square"/>
   </g>
  </g>
  <g id="text_10">
   <!-- Full -->
   <g transform="translate(274.219375 16.318125) scale(0.12 -0.12)">
    <defs>
     <path id="DejaVuSans-46" d="M 628 4666 
L 3309 4666 
L 3309 4134 
L 1259 4134 
L 1259 2759 
L 3109 2759 
L 3109 2228 
L 1259 2228 
L 1259 0 
L 628 0 
L 628 4666 
z
" transform="scale(0.015625)"/>
     <path id="DejaVuSans-75" d="M 544 1381 
L 544 3500 
L 1119 3500 
L 1119 1403 
Q 1119 906 1312 657 
Q 1506 409 1894 409 
Q 2359 409 2629 706 
Q 2900 1003 2900 1516 
L 2900 3500 
L 3475 3500 
L 3475 0 
L 2900 0 
L 2900 538 
Q 2691 219 2414 64 
Q 2138 -91 1772 -91 
Q 1169 -91 856 284 
Q 544 659 544 1381 
z
M 1991 3584 
L 1991 3584 
z
" transform="scale(0.015625)"/>
     <path id="DejaVuSans-6c" d="M 603 4863 
L 1178 4863 
L 1178 0 
L 603 0 
L 603 4863 
z
" transform="scale(0.015625)"/>
    </defs>
    <use xlink:href="#DejaVuSans-46"/>
    <use xlink:href="#DejaVuSans-75" x="52.019531"/>
    <use xlink:href="#DejaVuSans-6c" x="115.398438"/>
    <use xlink:href="#DejaVuSans-6c" x="143.181641"/>
   </g>
  </g>
 </g>
 <defs>
  <clipPath id="pf2b45757ad">
   <rect x="49.326563" y="75.586667" width="490.48" height="32.866667"/>
  </clipPath>
  <clipPath id="pb9f6ff06fb">
   <rect x="49.326563" y="28.32" width="490.48" height="32.866667"/>
  </clipPath>
  <clipPath id="p09e4158a4f">
   <rect x="49.326563" y="122.853333" width="490.48" height="32.866667"/>
  </clipPath>
 </defs>
</svg>
