<?xml version="1.0" encoding="utf-8" standalone="no"?>
<!DOCTYPE svg PUBLIC "-//W3C//DTD SVG 1.1//EN"
  "http://www.w3.org/Graphics/SVG/1.1/DTD/svg11.dtd">
<svg xmlns:xlink="http://www.w3.org/1999/xlink" width="391.245pt" height="309.86825pt" viewBox="0 0 391.245 309.86825" xmlns="http://www.w3.org/2000/svg" version="1.1">
 <metadata>
  <rdf:RDF xmlns:dc="http://purl.org/dc/elements/1.1/" xmlns:cc="http://creativecommons.org/ns#" xmlns:rdf="http://www.w3.org/1999/02/22-rdf-syntax-ns#">
   <cc:Work>
    <dc:type rdf:resource="http://purl.org/dc/dcmitype/StillImage"/>
    <dc:date>2024-11-28T14:46:10.601385</dc:date>
    <dc:format>image/svg+xml</dc:format>
    <dc:creator>
     <cc:Agent>
      <dc:title>Matplotlib v3.8.4, https://matplotlib.org/</dc:title>
     </cc:Agent>
    </dc:creator>
   </cc:Work>
  </rdf:RDF>
 </metadata>
 <defs>
  <style type="text/css">*{stroke-linejoin: round; stroke-linecap: butt}</style>
 </defs>
 <g id="figure_1">
  <g id="patch_1">
   <path d="M 0 309.86825 
L 391.245 309.86825 
L 391.245 0 
L 0 0 
z
" style="fill: #ffffff"/>
  </g>
  <g id="axes_1">
   <g id="patch_2">
    <path d="M 26.925 273.312 
L 384.045 273.312 
L 384.045 7.2 
L 26.925 7.2 
z
" style="fill: #ffffff"/>
   </g>
   <g id="patch_3">
    <path d="M 43.157727 273.312 
L 59.390455 273.312 
L 59.390455 19.872 
L 43.157727 19.872 
z
" clip-path="url(#p24bfe086a6)" style="fill: #1f77b4"/>
   </g>
   <g id="patch_4">
    <path d="M 59.390455 273.312 
L 75.623182 273.312 
L 75.623182 232.213622 
L 59.390455 232.213622 
z
" clip-path="url(#p24bfe086a6)" style="fill: #1f77b4"/>
   </g>
   <g id="patch_5">
    <path d="M 75.623182 273.312 
L 91.855909 273.312 
L 91.855909 232.213622 
L 75.623182 232.213622 
z
" clip-path="url(#p24bfe086a6)" style="fill: #1f77b4"/>
   </g>
   <g id="patch_6">
    <path d="M 91.855909 273.312 
L 108.088636 273.312 
L 108.088636 239.063351 
L 91.855909 239.063351 
z
" clip-path="url(#p24bfe086a6)" style="fill: #1f77b4"/>
   </g>
   <g id="patch_7">
    <path d="M 108.088636 273.312 
L 124.321364 273.312 
L 124.321364 245.913081 
L 108.088636 245.913081 
z
" clip-path="url(#p24bfe086a6)" style="fill: #1f77b4"/>
   </g>
   <g id="patch_8">
    <path d="M 124.321364 273.312 
L 140.554091 273.312 
L 140.554091 259.612541 
L 124.321364 259.612541 
z
" clip-path="url(#p24bfe086a6)" style="fill: #1f77b4"/>
   </g>
   <g id="patch_9">
    <path d="M 140.554091 273.312 
L 156.786818 273.312 
L 156.786818 259.612541 
L 140.554091 259.612541 
z
" clip-path="url(#p24bfe086a6)" style="fill: #1f77b4"/>
   </g>
   <g id="patch_10">
    <path d="M 156.786818 273.312 
L 173.019545 273.312 
L 173.019545 245.913081 
L 156.786818 245.913081 
z
" clip-path="url(#p24bfe086a6)" style="fill: #1f77b4"/>
   </g>
   <g id="patch_11">
    <path d="M 173.019545 273.312 
L 189.252273 273.312 
L 189.252273 259.612541 
L 173.019545 259.612541 
z
" clip-path="url(#p24bfe086a6)" style="fill: #1f77b4"/>
   </g>
   <g id="patch_12">
    <path d="M 189.252273 273.312 
L 205.485 273.312 
L 205.485 273.312 
L 189.252273 273.312 
z
" clip-path="url(#p24bfe086a6)" style="fill: #1f77b4"/>
   </g>
   <g id="patch_13">
    <path d="M 205.485 273.312 
L 221.717727 273.312 
L 221.717727 273.312 
L 205.485 273.312 
z
" clip-path="url(#p24bfe086a6)" style="fill: #1f77b4"/>
   </g>
   <g id="patch_14">
    <path d="M 221.717727 273.312 
L 237.950455 273.312 
L 237.950455 266.46227 
L 221.717727 266.46227 
z
" clip-path="url(#p24bfe086a6)" style="fill: #1f77b4"/>
   </g>
   <g id="patch_15">
    <path d="M 237.950455 273.312 
L 254.183182 273.312 
L 254.183182 266.46227 
L 237.950455 266.46227 
z
" clip-path="url(#p24bfe086a6)" style="fill: #1f77b4"/>
   </g>
   <g id="patch_16">
    <path d="M 254.183182 273.312 
L 270.415909 273.312 
L 270.415909 273.312 
L 254.183182 273.312 
z
" clip-path="url(#p24bfe086a6)" style="fill: #1f77b4"/>
   </g>
   <g id="patch_17">
    <path d="M 270.415909 273.312 
L 286.648636 273.312 
L 286.648636 273.312 
L 270.415909 273.312 
z
" clip-path="url(#p24bfe086a6)" style="fill: #1f77b4"/>
   </g>
   <g id="patch_18">
    <path d="M 286.648636 273.312 
L 302.881364 273.312 
L 302.881364 273.312 
L 286.648636 273.312 
z
" clip-path="url(#p24bfe086a6)" style="fill: #1f77b4"/>
   </g>
   <g id="patch_19">
    <path d="M 302.881364 273.312 
L 319.114091 273.312 
L 319.114091 266.46227 
L 302.881364 266.46227 
z
" clip-path="url(#p24bfe086a6)" style="fill: #1f77b4"/>
   </g>
   <g id="patch_20">
    <path d="M 319.114091 273.312 
L 335.346818 273.312 
L 335.346818 273.312 
L 319.114091 273.312 
z
" clip-path="url(#p24bfe086a6)" style="fill: #1f77b4"/>
   </g>
   <g id="patch_21">
    <path d="M 335.346818 273.312 
L 351.579545 273.312 
L 351.579545 273.312 
L 335.346818 273.312 
z
" clip-path="url(#p24bfe086a6)" style="fill: #1f77b4"/>
   </g>
   <g id="patch_22">
    <path d="M 351.579545 273.312 
L 367.812273 273.312 
L 367.812273 266.46227 
L 351.579545 266.46227 
z
" clip-path="url(#p24bfe086a6)" style="fill: #1f77b4"/>
   </g>
   <g id="matplotlib.axis_1">
    <g id="xtick_1">
     <g id="line2d_1">
      <path d="M 35.779215 273.312 
L 35.779215 7.2 
" clip-path="url(#p24bfe086a6)" style="fill: none; stroke: #b0b0b0; stroke-width: 0.8; stroke-linecap: square"/>
     </g>
     <g id="line2d_2">
      <defs>
       <path id="me4fd707983" d="M 0 0 
L 0 3.5 
" style="stroke: #000000; stroke-width: 0.8"/>
      </defs>
      <g>
       <use xlink:href="#me4fd707983" x="35.779215" y="273.312" style="stroke: #000000; stroke-width: 0.8"/>
      </g>
     </g>
     <g id="text_1">
      <!-- 0 -->
      <g transform="translate(32.597965 287.910437) scale(0.1 -0.1)">
       <defs>
        <path id="DejaVuSans-30" d="M 2034 4250 
Q 1547 4250 1301 3770 
Q 1056 3291 1056 2328 
Q 1056 1369 1301 889 
Q 1547 409 2034 409 
Q 2525 409 2770 889 
Q 3016 1369 3016 2328 
Q 3016 3291 2770 3770 
Q 2525 4250 2034 4250 
z
M 2034 4750 
Q 2819 4750 3233 4129 
Q 3647 3509 3647 2328 
Q 3647 1150 3233 529 
Q 2819 -91 2034 -91 
Q 1250 -91 836 529 
Q 422 1150 422 2328 
Q 422 3509 836 4129 
Q 1250 4750 2034 4750 
z
" transform="scale(0.015625)"/>
       </defs>
       <use xlink:href="#DejaVuSans-30"/>
      </g>
     </g>
    </g>
    <g id="xtick_2">
     <g id="line2d_3">
      <path d="M 109.564339 273.312 
L 109.564339 7.2 
" clip-path="url(#p24bfe086a6)" style="fill: none; stroke: #b0b0b0; stroke-width: 0.8; stroke-linecap: square"/>
     </g>
     <g id="line2d_4">
      <g>
       <use xlink:href="#me4fd707983" x="109.564339" y="273.312" style="stroke: #000000; stroke-width: 0.8"/>
      </g>
     </g>
     <g id="text_2">
      <!-- 1 -->
      <g transform="translate(106.383089 287.910437) scale(0.1 -0.1)">
       <defs>
        <path id="DejaVuSans-31" d="M 794 531 
L 1825 531 
L 1825 4091 
L 703 3866 
L 703 4441 
L 1819 4666 
L 2450 4666 
L 2450 531 
L 3481 531 
L 3481 0 
L 794 0 
L 794 531 
z
" transform="scale(0.015625)"/>
       </defs>
       <use xlink:href="#DejaVuSans-31"/>
      </g>
     </g>
    </g>
    <g id="xtick_3">
     <g id="line2d_5">
      <path d="M 183.349463 273.312 
L 183.349463 7.2 
" clip-path="url(#p24bfe086a6)" style="fill: none; stroke: #b0b0b0; stroke-width: 0.8; stroke-linecap: square"/>
     </g>
     <g id="line2d_6">
      <g>
       <use xlink:href="#me4fd707983" x="183.349463" y="273.312" style="stroke: #000000; stroke-width: 0.8"/>
      </g>
     </g>
     <g id="text_3">
      <!-- 2 -->
      <g transform="translate(180.168213 287.910437) scale(0.1 -0.1)">
       <defs>
        <path id="DejaVuSans-32" d="M 1228 531 
L 3431 531 
L 3431 0 
L 469 0 
L 469 531 
Q 828 903 1448 1529 
Q 2069 2156 2228 2338 
Q 2531 2678 2651 2914 
Q 2772 3150 2772 3378 
Q 2772 3750 2511 3984 
Q 2250 4219 1831 4219 
Q 1534 4219 1204 4116 
Q 875 4013 500 3803 
L 500 4441 
Q 881 4594 1212 4672 
Q 1544 4750 1819 4750 
Q 2544 4750 2975 4387 
Q 3406 4025 3406 3419 
Q 3406 3131 3298 2873 
Q 3191 2616 2906 2266 
Q 2828 2175 2409 1742 
Q 1991 1309 1228 531 
z
" transform="scale(0.015625)"/>
       </defs>
       <use xlink:href="#DejaVuSans-32"/>
      </g>
     </g>
    </g>
    <g id="xtick_4">
     <g id="line2d_7">
      <path d="M 257.134587 273.312 
L 257.134587 7.2 
" clip-path="url(#p24bfe086a6)" style="fill: none; stroke: #b0b0b0; stroke-width: 0.8; stroke-linecap: square"/>
     </g>
     <g id="line2d_8">
      <g>
       <use xlink:href="#me4fd707983" x="257.134587" y="273.312" style="stroke: #000000; stroke-width: 0.8"/>
      </g>
     </g>
     <g id="text_4">
      <!-- 3 -->
      <g transform="translate(253.953337 287.910437) scale(0.1 -0.1)">
       <defs>
        <path id="DejaVuSans-33" d="M 2597 2516 
Q 3050 2419 3304 2112 
Q 3559 1806 3559 1356 
Q 3559 666 3084 287 
Q 2609 -91 1734 -91 
Q 1441 -91 1130 -33 
Q 819 25 488 141 
L 488 750 
Q 750 597 1062 519 
Q 1375 441 1716 441 
Q 2309 441 2620 675 
Q 2931 909 2931 1356 
Q 2931 1769 2642 2001 
Q 2353 2234 1838 2234 
L 1294 2234 
L 1294 2753 
L 1863 2753 
Q 2328 2753 2575 2939 
Q 2822 3125 2822 3475 
Q 2822 3834 2567 4026 
Q 2313 4219 1838 4219 
Q 1578 4219 1281 4162 
Q 984 4106 628 3988 
L 628 4550 
Q 988 4650 1302 4700 
Q 1616 4750 1894 4750 
Q 2613 4750 3031 4423 
Q 3450 4097 3450 3541 
Q 3450 3153 3228 2886 
Q 3006 2619 2597 2516 
z
" transform="scale(0.015625)"/>
       </defs>
       <use xlink:href="#DejaVuSans-33"/>
      </g>
     </g>
    </g>
    <g id="xtick_5">
     <g id="line2d_9">
      <path d="M 330.919711 273.312 
L 330.919711 7.2 
" clip-path="url(#p24bfe086a6)" style="fill: none; stroke: #b0b0b0; stroke-width: 0.8; stroke-linecap: square"/>
     </g>
     <g id="line2d_10">
      <g>
       <use xlink:href="#me4fd707983" x="330.919711" y="273.312" style="stroke: #000000; stroke-width: 0.8"/>
      </g>
     </g>
     <g id="text_5">
      <!-- 4 -->
      <g transform="translate(327.738461 287.910437) scale(0.1 -0.1)">
       <defs>
        <path id="DejaVuSans-34" d="M 2419 4116 
L 825 1625 
L 2419 1625 
L 2419 4116 
z
M 2253 4666 
L 3047 4666 
L 3047 1625 
L 3713 1625 
L 3713 1100 
L 3047 1100 
L 3047 0 
L 2419 0 
L 2419 1100 
L 313 1100 
L 313 1709 
L 2253 4666 
z
" transform="scale(0.015625)"/>
       </defs>
       <use xlink:href="#DejaVuSans-34"/>
      </g>
     </g>
    </g>
    <g id="text_6">
     <!-- 1e6 -->
     <g transform="translate(365.166875 300.588562) scale(0.1 -0.1)">
      <defs>
       <path id="DejaVuSans-65" d="M 3597 1894 
L 3597 1613 
L 953 1613 
Q 991 1019 1311 708 
Q 1631 397 2203 397 
Q 2534 397 2845 478 
Q 3156 559 3463 722 
L 3463 178 
Q 3153 47 2828 -22 
Q 2503 -91 2169 -91 
Q 1331 -91 842 396 
Q 353 884 353 1716 
Q 353 2575 817 3079 
Q 1281 3584 2069 3584 
Q 2775 3584 3186 3129 
Q 3597 2675 3597 1894 
z
M 3022 2063 
Q 3016 2534 2758 2815 
Q 2500 3097 2075 3097 
Q 1594 3097 1305 2825 
Q 1016 2553 972 2059 
L 3022 2063 
z
" transform="scale(0.015625)"/>
       <path id="DejaVuSans-36" d="M 2113 2584 
Q 1688 2584 1439 2293 
Q 1191 2003 1191 1497 
Q 1191 994 1439 701 
Q 1688 409 2113 409 
Q 2538 409 2786 701 
Q 3034 994 3034 1497 
Q 3034 2003 2786 2293 
Q 2538 2584 2113 2584 
z
M 3366 4563 
L 3366 3988 
Q 3128 4100 2886 4159 
Q 2644 4219 2406 4219 
Q 1781 4219 1451 3797 
Q 1122 3375 1075 2522 
Q 1259 2794 1537 2939 
Q 1816 3084 2150 3084 
Q 2853 3084 3261 2657 
Q 3669 2231 3669 1497 
Q 3669 778 3244 343 
Q 2819 -91 2113 -91 
Q 1303 -91 875 529 
Q 447 1150 447 2328 
Q 447 3434 972 4092 
Q 1497 4750 2381 4750 
Q 2619 4750 2861 4703 
Q 3103 4656 3366 4563 
z
" transform="scale(0.015625)"/>
      </defs>
      <use xlink:href="#DejaVuSans-31"/>
      <use xlink:href="#DejaVuSans-65" x="63.623047"/>
      <use xlink:href="#DejaVuSans-36" x="125.146484"/>
     </g>
    </g>
   </g>
   <g id="matplotlib.axis_2">
    <g id="ytick_1">
     <g id="line2d_11">
      <path d="M 26.925 273.312 
L 384.045 273.312 
" clip-path="url(#p24bfe086a6)" style="fill: none; stroke: #b0b0b0; stroke-width: 0.8; stroke-linecap: square"/>
     </g>
     <g id="line2d_12">
      <defs>
       <path id="m3ba5001b13" d="M 0 0 
L -3.5 0 
" style="stroke: #000000; stroke-width: 0.8"/>
      </defs>
      <g>
       <use xlink:href="#m3ba5001b13" x="26.925" y="273.312" style="stroke: #000000; stroke-width: 0.8"/>
      </g>
     </g>
     <g id="text_7">
      <!-- 0 -->
      <g transform="translate(13.5625 277.111219) scale(0.1 -0.1)">
       <use xlink:href="#DejaVuSans-30"/>
      </g>
     </g>
    </g>
    <g id="ytick_2">
     <g id="line2d_13">
      <path d="M 26.925 239.063351 
L 384.045 239.063351 
" clip-path="url(#p24bfe086a6)" style="fill: none; stroke: #b0b0b0; stroke-width: 0.8; stroke-linecap: square"/>
     </g>
     <g id="line2d_14">
      <g>
       <use xlink:href="#m3ba5001b13" x="26.925" y="239.063351" style="stroke: #000000; stroke-width: 0.8"/>
      </g>
     </g>
     <g id="text_8">
      <!-- 5 -->
      <g transform="translate(13.5625 242.86257) scale(0.1 -0.1)">
       <defs>
        <path id="DejaVuSans-35" d="M 691 4666 
L 3169 4666 
L 3169 4134 
L 1269 4134 
L 1269 2991 
Q 1406 3038 1543 3061 
Q 1681 3084 1819 3084 
Q 2600 3084 3056 2656 
Q 3513 2228 3513 1497 
Q 3513 744 3044 326 
Q 2575 -91 1722 -91 
Q 1428 -91 1123 -41 
Q 819 9 494 109 
L 494 744 
Q 775 591 1075 516 
Q 1375 441 1709 441 
Q 2250 441 2565 725 
Q 2881 1009 2881 1497 
Q 2881 1984 2565 2268 
Q 2250 2553 1709 2553 
Q 1456 2553 1204 2497 
Q 953 2441 691 2322 
L 691 4666 
z
" transform="scale(0.015625)"/>
       </defs>
       <use xlink:href="#DejaVuSans-35"/>
      </g>
     </g>
    </g>
    <g id="ytick_3">
     <g id="line2d_15">
      <path d="M 26.925 204.814703 
L 384.045 204.814703 
" clip-path="url(#p24bfe086a6)" style="fill: none; stroke: #b0b0b0; stroke-width: 0.8; stroke-linecap: square"/>
     </g>
     <g id="line2d_16">
      <g>
       <use xlink:href="#m3ba5001b13" x="26.925" y="204.814703" style="stroke: #000000; stroke-width: 0.8"/>
      </g>
     </g>
     <g id="text_9">
      <!-- 10 -->
      <g transform="translate(7.2 208.613921) scale(0.1 -0.1)">
       <use xlink:href="#DejaVuSans-31"/>
       <use xlink:href="#DejaVuSans-30" x="63.623047"/>
      </g>
     </g>
    </g>
    <g id="ytick_4">
     <g id="line2d_17">
      <path d="M 26.925 170.566054 
L 384.045 170.566054 
" clip-path="url(#p24bfe086a6)" style="fill: none; stroke: #b0b0b0; stroke-width: 0.8; stroke-linecap: square"/>
     </g>
     <g id="line2d_18">
      <g>
       <use xlink:href="#m3ba5001b13" x="26.925" y="170.566054" style="stroke: #000000; stroke-width: 0.8"/>
      </g>
     </g>
     <g id="text_10">
      <!-- 15 -->
      <g transform="translate(7.2 174.365273) scale(0.1 -0.1)">
       <use xlink:href="#DejaVuSans-31"/>
       <use xlink:href="#DejaVuSans-35" x="63.623047"/>
      </g>
     </g>
    </g>
    <g id="ytick_5">
     <g id="line2d_19">
      <path d="M 26.925 136.317405 
L 384.045 136.317405 
" clip-path="url(#p24bfe086a6)" style="fill: none; stroke: #b0b0b0; stroke-width: 0.8; stroke-linecap: square"/>
     </g>
     <g id="line2d_20">
      <g>
       <use xlink:href="#m3ba5001b13" x="26.925" y="136.317405" style="stroke: #000000; stroke-width: 0.8"/>
      </g>
     </g>
     <g id="text_11">
      <!-- 20 -->
      <g transform="translate(7.2 140.116624) scale(0.1 -0.1)">
       <use xlink:href="#DejaVuSans-32"/>
       <use xlink:href="#DejaVuSans-30" x="63.623047"/>
      </g>
     </g>
    </g>
    <g id="ytick_6">
     <g id="line2d_21">
      <path d="M 26.925 102.068757 
L 384.045 102.068757 
" clip-path="url(#p24bfe086a6)" style="fill: none; stroke: #b0b0b0; stroke-width: 0.8; stroke-linecap: square"/>
     </g>
     <g id="line2d_22">
      <g>
       <use xlink:href="#m3ba5001b13" x="26.925" y="102.068757" style="stroke: #000000; stroke-width: 0.8"/>
      </g>
     </g>
     <g id="text_12">
      <!-- 25 -->
      <g transform="translate(7.2 105.867976) scale(0.1 -0.1)">
       <use xlink:href="#DejaVuSans-32"/>
       <use xlink:href="#DejaVuSans-35" x="63.623047"/>
      </g>
     </g>
    </g>
    <g id="ytick_7">
     <g id="line2d_23">
      <path d="M 26.925 67.820108 
L 384.045 67.820108 
" clip-path="url(#p24bfe086a6)" style="fill: none; stroke: #b0b0b0; stroke-width: 0.8; stroke-linecap: square"/>
     </g>
     <g id="line2d_24">
      <g>
       <use xlink:href="#m3ba5001b13" x="26.925" y="67.820108" style="stroke: #000000; stroke-width: 0.8"/>
      </g>
     </g>
     <g id="text_13">
      <!-- 30 -->
      <g transform="translate(7.2 71.619327) scale(0.1 -0.1)">
       <use xlink:href="#DejaVuSans-33"/>
       <use xlink:href="#DejaVuSans-30" x="63.623047"/>
      </g>
     </g>
    </g>
    <g id="ytick_8">
     <g id="line2d_25">
      <path d="M 26.925 33.571459 
L 384.045 33.571459 
" clip-path="url(#p24bfe086a6)" style="fill: none; stroke: #b0b0b0; stroke-width: 0.8; stroke-linecap: square"/>
     </g>
     <g id="line2d_26">
      <g>
       <use xlink:href="#m3ba5001b13" x="26.925" y="33.571459" style="stroke: #000000; stroke-width: 0.8"/>
      </g>
     </g>
     <g id="text_14">
      <!-- 35 -->
      <g transform="translate(7.2 37.370678) scale(0.1 -0.1)">
       <use xlink:href="#DejaVuSans-33"/>
       <use xlink:href="#DejaVuSans-35" x="63.623047"/>
      </g>
     </g>
    </g>
   </g>
   <g id="patch_23">
    <path d="M 26.925 273.312 
L 26.925 7.2 
" style="fill: none; stroke: #000000; stroke-width: 0.8; stroke-linejoin: miter; stroke-linecap: square"/>
   </g>
   <g id="patch_24">
    <path d="M 384.045 273.312 
L 384.045 7.2 
" style="fill: none; stroke: #000000; stroke-width: 0.8; stroke-linejoin: miter; stroke-linecap: square"/>
   </g>
   <g id="patch_25">
    <path d="M 26.925 273.312 
L 384.045 273.312 
" style="fill: none; stroke: #000000; stroke-width: 0.8; stroke-linejoin: miter; stroke-linecap: square"/>
   </g>
   <g id="patch_26">
    <path d="M 26.925 7.2 
L 384.045 7.2 
" style="fill: none; stroke: #000000; stroke-width: 0.8; stroke-linejoin: miter; stroke-linecap: square"/>
   </g>
  </g>
 </g>
 <defs>
  <clipPath id="p24bfe086a6">
   <rect x="26.925" y="7.2" width="357.12" height="266.112"/>
  </clipPath>
 </defs>
</svg>
