<?xml version="1.0" encoding="utf-8" standalone="no"?>
<!DOCTYPE svg PUBLIC "-//W3C//DTD SVG 1.1//EN"
  "http://www.w3.org/Graphics/SVG/1.1/DTD/svg11.dtd">
<svg xmlns:xlink="http://www.w3.org/1999/xlink" width="568.801875pt" height="179.598125pt" viewBox="0 0 568.801875 179.598125" xmlns="http://www.w3.org/2000/svg" version="1.1">
 <metadata>
  <rdf:RDF xmlns:dc="http://purl.org/dc/elements/1.1/" xmlns:cc="http://creativecommons.org/ns#" xmlns:rdf="http://www.w3.org/1999/02/22-rdf-syntax-ns#">
   <cc:Work>
    <dc:type rdf:resource="http://purl.org/dc/dcmitype/StillImage"/>
    <dc:date>2024-11-28T14:41:44.697009</dc:date>
    <dc:format>image/svg+xml</dc:format>
    <dc:creator>
     <cc:Agent>
      <dc:title>Matplotlib v3.8.4, https://matplotlib.org/</dc:title>
     </cc:Agent>
    </dc:creator>
   </cc:Work>
  </rdf:RDF>
 </metadata>
 <defs>
  <style type="text/css">*{stroke-linejoin: round; stroke-linecap: butt}</style>
 </defs>
 <g id="figure_1">
  <g id="patch_1">
   <path d="M 0 179.598125 
L 568.801875 179.598125 
L 568.801875 0 
L 0 0 
z
" style="fill: #ffffff"/>
  </g>
  <g id="axes_1">
   <g id="patch_2">
    <path d="M 49.326563 108.453333 
L 539.806562 108.453333 
L 539.806562 75.586667 
L 49.326563 75.586667 
z
" style="fill: #ffffff"/>
   </g>
   <g id="patch_3">
    <path d="M 51.884661 105.166667 
L 52.524186 105.166667 
L 52.524186 75.586667 
L 51.884661 75.586667 
z
" clip-path="url(#p44205c85a5)" style="fill: #d62728; opacity: 0.6"/>
   </g>
   <g id="patch_4">
    <path d="M 57.320621 105.166667 
L 57.960145 105.166667 
L 57.960145 75.586667 
L 57.320621 75.586667 
z
" clip-path="url(#p44205c85a5)" style="fill: #d62728; opacity: 0.6"/>
   </g>
   <g id="patch_5">
    <path d="M 59.239195 105.166667 
L 59.878719 105.166667 
L 59.878719 75.586667 
L 59.239195 75.586667 
z
" clip-path="url(#p44205c85a5)" style="fill: #d62728; opacity: 0.6"/>
   </g>
   <g id="patch_6">
    <path d="M 60.198482 105.166667 
L 60.838006 105.166667 
L 60.838006 75.586667 
L 60.198482 75.586667 
z
" clip-path="url(#p44205c85a5)" style="fill: #d62728; opacity: 0.6"/>
   </g>
   <g id="patch_7">
    <path d="M 70.111114 105.166667 
L 70.750639 105.166667 
L 70.750639 75.586667 
L 70.111114 75.586667 
z
" clip-path="url(#p44205c85a5)" style="fill: #d62728; opacity: 0.6"/>
   </g>
   <g id="patch_8">
    <path d="M 70.430876 105.166667 
L 71.070401 105.166667 
L 71.070401 75.586667 
L 70.430876 75.586667 
z
" clip-path="url(#p44205c85a5)" style="fill: #d62728; opacity: 0.6"/>
   </g>
   <g id="patch_9">
    <path d="M 75.866836 105.166667 
L 76.506361 105.166667 
L 76.506361 75.586667 
L 75.866836 75.586667 
z
" clip-path="url(#p44205c85a5)" style="fill: #d62728; opacity: 0.6"/>
   </g>
   <g id="patch_10">
    <path d="M 76.186598 105.166667 
L 76.826123 105.166667 
L 76.826123 75.586667 
L 76.186598 75.586667 
z
" clip-path="url(#p44205c85a5)" style="fill: #d62728; opacity: 0.6"/>
   </g>
   <g id="patch_11">
    <path d="M 76.506361 105.166667 
L 77.145885 105.166667 
L 77.145885 75.586667 
L 76.506361 75.586667 
z
" clip-path="url(#p44205c85a5)" style="fill: #d62728; opacity: 0.6"/>
   </g>
   <g id="patch_12">
    <path d="M 80.663271 105.166667 
L 81.302796 105.166667 
L 81.302796 75.586667 
L 80.663271 75.586667 
z
" clip-path="url(#p44205c85a5)" style="fill: #d62728; opacity: 0.6"/>
   </g>
   <g id="patch_13">
    <path d="M 80.983033 105.166667 
L 81.622558 105.166667 
L 81.622558 75.586667 
L 80.983033 75.586667 
z
" clip-path="url(#p44205c85a5)" style="fill: #d62728; opacity: 0.6"/>
   </g>
   <g id="patch_14">
    <path d="M 81.94232 105.166667 
L 82.581845 105.166667 
L 82.581845 75.586667 
L 81.94232 75.586667 
z
" clip-path="url(#p44205c85a5)" style="fill: #d62728; opacity: 0.6"/>
   </g>
   <g id="patch_15">
    <path d="M 83.22137 105.166667 
L 83.860894 105.166667 
L 83.860894 75.586667 
L 83.22137 75.586667 
z
" clip-path="url(#p44205c85a5)" style="fill: #d62728; opacity: 0.6"/>
   </g>
   <g id="patch_16">
    <path d="M 86.099231 105.166667 
L 86.738755 105.166667 
L 86.738755 75.586667 
L 86.099231 75.586667 
z
" clip-path="url(#p44205c85a5)" style="fill: #d62728; opacity: 0.6"/>
   </g>
   <g id="patch_17">
    <path d="M 86.418993 105.166667 
L 87.058518 105.166667 
L 87.058518 75.586667 
L 86.418993 75.586667 
z
" clip-path="url(#p44205c85a5)" style="fill: #d62728; opacity: 0.6"/>
   </g>
   <g id="patch_18">
    <path d="M 92.81424 105.166667 
L 93.453764 105.166667 
L 93.453764 75.586667 
L 92.81424 75.586667 
z
" clip-path="url(#p44205c85a5)" style="fill: #d62728; opacity: 0.6"/>
   </g>
   <g id="patch_19">
    <path d="M 95.372338 105.166667 
L 96.011863 105.166667 
L 96.011863 75.586667 
L 95.372338 75.586667 
z
" clip-path="url(#p44205c85a5)" style="fill: #d62728; opacity: 0.6"/>
   </g>
   <g id="patch_20">
    <path d="M 95.692101 105.166667 
L 96.331625 105.166667 
L 96.331625 75.586667 
L 95.692101 75.586667 
z
" clip-path="url(#p44205c85a5)" style="fill: #d62728; opacity: 0.6"/>
   </g>
   <g id="patch_21">
    <path d="M 96.97115 105.166667 
L 97.610675 105.166667 
L 97.610675 75.586667 
L 96.97115 75.586667 
z
" clip-path="url(#p44205c85a5)" style="fill: #d62728; opacity: 0.6"/>
   </g>
   <g id="patch_22">
    <path d="M 97.290912 105.166667 
L 97.930437 105.166667 
L 97.930437 75.586667 
L 97.290912 75.586667 
z
" clip-path="url(#p44205c85a5)" style="fill: #d62728; opacity: 0.6"/>
   </g>
   <g id="patch_23">
    <path d="M 97.930437 105.166667 
L 98.569962 105.166667 
L 98.569962 75.586667 
L 97.930437 75.586667 
z
" clip-path="url(#p44205c85a5)" style="fill: #d62728; opacity: 0.6"/>
   </g>
   <g id="patch_24">
    <path d="M 98.889724 105.166667 
L 99.529249 105.166667 
L 99.529249 75.586667 
L 98.889724 75.586667 
z
" clip-path="url(#p44205c85a5)" style="fill: #d62728; opacity: 0.6"/>
   </g>
   <g id="patch_25">
    <path d="M 101.12806 105.166667 
L 101.767585 105.166667 
L 101.767585 75.586667 
L 101.12806 75.586667 
z
" clip-path="url(#p44205c85a5)" style="fill: #d62728; opacity: 0.6"/>
   </g>
   <g id="patch_26">
    <path d="M 103.046634 105.166667 
L 103.686159 105.166667 
L 103.686159 75.586667 
L 103.046634 75.586667 
z
" clip-path="url(#p44205c85a5)" style="fill: #d62728; opacity: 0.6"/>
   </g>
   <g id="patch_27">
    <path d="M 103.366397 105.166667 
L 104.005921 105.166667 
L 104.005921 75.586667 
L 103.366397 75.586667 
z
" clip-path="url(#p44205c85a5)" style="fill: #d62728; opacity: 0.6"/>
   </g>
   <g id="patch_28">
    <path d="M 105.604733 105.166667 
L 106.244258 105.166667 
L 106.244258 75.586667 
L 105.604733 75.586667 
z
" clip-path="url(#p44205c85a5)" style="fill: #d62728; opacity: 0.6"/>
   </g>
   <g id="patch_29">
    <path d="M 106.244258 105.166667 
L 106.883782 105.166667 
L 106.883782 75.586667 
L 106.244258 75.586667 
z
" clip-path="url(#p44205c85a5)" style="fill: #d62728; opacity: 0.6"/>
   </g>
   <g id="patch_30">
    <path d="M 109.122119 105.166667 
L 109.761643 105.166667 
L 109.761643 75.586667 
L 109.122119 75.586667 
z
" clip-path="url(#p44205c85a5)" style="fill: #d62728; opacity: 0.6"/>
   </g>
   <g id="patch_31">
    <path d="M 110.081406 105.166667 
L 110.72093 105.166667 
L 110.72093 75.586667 
L 110.081406 75.586667 
z
" clip-path="url(#p44205c85a5)" style="fill: #d62728; opacity: 0.6"/>
   </g>
   <g id="patch_32">
    <path d="M 110.401168 105.166667 
L 111.040693 105.166667 
L 111.040693 75.586667 
L 110.401168 75.586667 
z
" clip-path="url(#p44205c85a5)" style="fill: #d62728; opacity: 0.6"/>
   </g>
   <g id="patch_33">
    <path d="M 110.72093 105.166667 
L 111.360455 105.166667 
L 111.360455 75.586667 
L 110.72093 75.586667 
z
" clip-path="url(#p44205c85a5)" style="fill: #d62728; opacity: 0.6"/>
   </g>
   <g id="patch_34">
    <path d="M 113.279029 105.166667 
L 113.918554 105.166667 
L 113.918554 75.586667 
L 113.279029 75.586667 
z
" clip-path="url(#p44205c85a5)" style="fill: #d62728; opacity: 0.6"/>
   </g>
   <g id="patch_35">
    <path d="M 118.075464 105.166667 
L 118.714988 105.166667 
L 118.714988 75.586667 
L 118.075464 75.586667 
z
" clip-path="url(#p44205c85a5)" style="fill: #d62728; opacity: 0.6"/>
   </g>
   <g id="patch_36">
    <path d="M 118.714988 105.166667 
L 119.354513 105.166667 
L 119.354513 75.586667 
L 118.714988 75.586667 
z
" clip-path="url(#p44205c85a5)" style="fill: #d62728; opacity: 0.6"/>
   </g>
   <g id="patch_37">
    <path d="M 123.831186 105.166667 
L 124.47071 105.166667 
L 124.47071 75.586667 
L 123.831186 75.586667 
z
" clip-path="url(#p44205c85a5)" style="fill: #d62728; opacity: 0.6"/>
   </g>
   <g id="patch_38">
    <path d="M 128.627621 105.166667 
L 129.267145 105.166667 
L 129.267145 75.586667 
L 128.627621 75.586667 
z
" clip-path="url(#p44205c85a5)" style="fill: #d62728; opacity: 0.6"/>
   </g>
   <g id="patch_39">
    <path d="M 167.638625 105.166667 
L 168.27815 105.166667 
L 168.27815 75.586667 
L 167.638625 75.586667 
z
" clip-path="url(#p44205c85a5)" style="fill: #d62728; opacity: 0.6"/>
   </g>
   <g id="patch_40">
    <path d="M 167.958388 105.166667 
L 168.597912 105.166667 
L 168.597912 75.586667 
L 167.958388 75.586667 
z
" clip-path="url(#p44205c85a5)" style="fill: #d62728; opacity: 0.6"/>
   </g>
   <g id="patch_41">
    <path d="M 168.597912 105.166667 
L 169.237437 105.166667 
L 169.237437 75.586667 
L 168.597912 75.586667 
z
" clip-path="url(#p44205c85a5)" style="fill: #d62728; opacity: 0.6"/>
   </g>
   <g id="patch_42">
    <path d="M 182.987217 105.166667 
L 183.626742 105.166667 
L 183.626742 75.586667 
L 182.987217 75.586667 
z
" clip-path="url(#p44205c85a5)" style="fill: #d62728; opacity: 0.6"/>
   </g>
   <g id="patch_43">
    <path d="M 187.783652 105.166667 
L 188.423177 105.166667 
L 188.423177 75.586667 
L 187.783652 75.586667 
z
" clip-path="url(#p44205c85a5)" style="fill: #d62728; opacity: 0.6"/>
   </g>
   <g id="patch_44">
    <path d="M 193.219612 105.166667 
L 193.859136 105.166667 
L 193.859136 75.586667 
L 193.219612 75.586667 
z
" clip-path="url(#p44205c85a5)" style="fill: #d62728; opacity: 0.6"/>
   </g>
   <g id="patch_45">
    <path d="M 197.376522 105.166667 
L 198.016047 105.166667 
L 198.016047 75.586667 
L 197.376522 75.586667 
z
" clip-path="url(#p44205c85a5)" style="fill: #d62728; opacity: 0.6"/>
   </g>
   <g id="patch_46">
    <path d="M 209.527491 105.166667 
L 210.167015 105.166667 
L 210.167015 75.586667 
L 209.527491 75.586667 
z
" clip-path="url(#p44205c85a5)" style="fill: #d62728; opacity: 0.6"/>
   </g>
   <g id="patch_47">
    <path d="M 210.167015 105.166667 
L 210.80654 105.166667 
L 210.80654 75.586667 
L 210.167015 75.586667 
z
" clip-path="url(#p44205c85a5)" style="fill: #d62728; opacity: 0.6"/>
   </g>
   <g id="patch_48">
    <path d="M 211.126302 105.166667 
L 211.765827 105.166667 
L 211.765827 75.586667 
L 211.126302 75.586667 
z
" clip-path="url(#p44205c85a5)" style="fill: #d62728; opacity: 0.6"/>
   </g>
   <g id="patch_49">
    <path d="M 212.725114 105.166667 
L 213.364639 105.166667 
L 213.364639 75.586667 
L 212.725114 75.586667 
z
" clip-path="url(#p44205c85a5)" style="fill: #d62728; opacity: 0.6"/>
   </g>
   <g id="patch_50">
    <path d="M 215.283213 105.166667 
L 215.922737 105.166667 
L 215.922737 75.586667 
L 215.283213 75.586667 
z
" clip-path="url(#p44205c85a5)" style="fill: #d62728; opacity: 0.6"/>
   </g>
   <g id="patch_51">
    <path d="M 217.201787 105.166667 
L 217.841311 105.166667 
L 217.841311 75.586667 
L 217.201787 75.586667 
z
" clip-path="url(#p44205c85a5)" style="fill: #d62728; opacity: 0.6"/>
   </g>
   <g id="patch_52">
    <path d="M 226.155132 105.166667 
L 226.794657 105.166667 
L 226.794657 75.586667 
L 226.155132 75.586667 
z
" clip-path="url(#p44205c85a5)" style="fill: #d62728; opacity: 0.6"/>
   </g>
   <g id="patch_53">
    <path d="M 226.794657 105.166667 
L 227.434181 105.166667 
L 227.434181 75.586667 
L 226.794657 75.586667 
z
" clip-path="url(#p44205c85a5)" style="fill: #d62728; opacity: 0.6"/>
   </g>
   <g id="patch_54">
    <path d="M 227.114419 105.166667 
L 227.753944 105.166667 
L 227.753944 75.586667 
L 227.114419 75.586667 
z
" clip-path="url(#p44205c85a5)" style="fill: #d62728; opacity: 0.6"/>
   </g>
   <g id="patch_55">
    <path d="M 228.393468 105.166667 
L 229.032993 105.166667 
L 229.032993 75.586667 
L 228.393468 75.586667 
z
" clip-path="url(#p44205c85a5)" style="fill: #d62728; opacity: 0.6"/>
   </g>
   <g id="patch_56">
    <path d="M 228.713231 105.166667 
L 229.352755 105.166667 
L 229.352755 75.586667 
L 228.713231 75.586667 
z
" clip-path="url(#p44205c85a5)" style="fill: #d62728; opacity: 0.6"/>
   </g>
   <g id="patch_57">
    <path d="M 229.352755 105.166667 
L 229.99228 105.166667 
L 229.99228 75.586667 
L 229.352755 75.586667 
z
" clip-path="url(#p44205c85a5)" style="fill: #d62728; opacity: 0.6"/>
   </g>
   <g id="patch_58">
    <path d="M 230.631805 105.166667 
L 231.271329 105.166667 
L 231.271329 75.586667 
L 230.631805 75.586667 
z
" clip-path="url(#p44205c85a5)" style="fill: #d62728; opacity: 0.6"/>
   </g>
   <g id="patch_59">
    <path d="M 230.951567 105.166667 
L 231.591092 105.166667 
L 231.591092 75.586667 
L 230.951567 75.586667 
z
" clip-path="url(#p44205c85a5)" style="fill: #d62728; opacity: 0.6"/>
   </g>
   <g id="patch_60">
    <path d="M 231.591092 105.166667 
L 232.230616 105.166667 
L 232.230616 75.586667 
L 231.591092 75.586667 
z
" clip-path="url(#p44205c85a5)" style="fill: #d62728; opacity: 0.6"/>
   </g>
   <g id="patch_61">
    <path d="M 232.230616 105.166667 
L 232.870141 105.166667 
L 232.870141 75.586667 
L 232.230616 75.586667 
z
" clip-path="url(#p44205c85a5)" style="fill: #d62728; opacity: 0.6"/>
   </g>
   <g id="patch_62">
    <path d="M 233.829428 105.166667 
L 234.468953 105.166667 
L 234.468953 75.586667 
L 233.829428 75.586667 
z
" clip-path="url(#p44205c85a5)" style="fill: #d62728; opacity: 0.6"/>
   </g>
   <g id="patch_63">
    <path d="M 242.463011 105.166667 
L 243.102536 105.166667 
L 243.102536 75.586667 
L 242.463011 75.586667 
z
" clip-path="url(#p44205c85a5)" style="fill: #d62728; opacity: 0.6"/>
   </g>
   <g id="patch_64">
    <path d="M 243.102536 105.166667 
L 243.74206 105.166667 
L 243.74206 75.586667 
L 243.102536 75.586667 
z
" clip-path="url(#p44205c85a5)" style="fill: #d62728; opacity: 0.6"/>
   </g>
   <g id="patch_65">
    <path d="M 247.579208 105.166667 
L 248.218733 105.166667 
L 248.218733 75.586667 
L 247.579208 75.586667 
z
" clip-path="url(#p44205c85a5)" style="fill: #d62728; opacity: 0.6"/>
   </g>
   <g id="patch_66">
    <path d="M 248.538495 105.166667 
L 249.17802 105.166667 
L 249.17802 75.586667 
L 248.538495 75.586667 
z
" clip-path="url(#p44205c85a5)" style="fill: #d62728; opacity: 0.6"/>
   </g>
   <g id="patch_67">
    <path d="M 248.858258 105.166667 
L 249.497782 105.166667 
L 249.497782 75.586667 
L 248.858258 75.586667 
z
" clip-path="url(#p44205c85a5)" style="fill: #d62728; opacity: 0.6"/>
   </g>
   <g id="patch_68">
    <path d="M 249.17802 105.166667 
L 249.817544 105.166667 
L 249.817544 75.586667 
L 249.17802 75.586667 
z
" clip-path="url(#p44205c85a5)" style="fill: #d62728; opacity: 0.6"/>
   </g>
   <g id="patch_69">
    <path d="M 257.49184 105.166667 
L 258.131365 105.166667 
L 258.131365 75.586667 
L 257.49184 75.586667 
z
" clip-path="url(#p44205c85a5)" style="fill: #d62728; opacity: 0.6"/>
   </g>
   <g id="patch_70">
    <path d="M 261.328988 105.166667 
L 261.968513 105.166667 
L 261.968513 75.586667 
L 261.328988 75.586667 
z
" clip-path="url(#p44205c85a5)" style="fill: #d62728; opacity: 0.6"/>
   </g>
   <g id="patch_71">
    <path d="M 263.247562 105.166667 
L 263.887087 105.166667 
L 263.887087 75.586667 
L 263.247562 75.586667 
z
" clip-path="url(#p44205c85a5)" style="fill: #d62728; opacity: 0.6"/>
   </g>
   <g id="patch_72">
    <path d="M 265.166136 105.166667 
L 265.805661 105.166667 
L 265.805661 75.586667 
L 265.166136 75.586667 
z
" clip-path="url(#p44205c85a5)" style="fill: #d62728; opacity: 0.6"/>
   </g>
   <g id="patch_73">
    <path d="M 265.485899 105.166667 
L 266.125423 105.166667 
L 266.125423 75.586667 
L 265.485899 75.586667 
z
" clip-path="url(#p44205c85a5)" style="fill: #d62728; opacity: 0.6"/>
   </g>
   <g id="patch_74">
    <path d="M 269.003284 105.166667 
L 269.642809 105.166667 
L 269.642809 75.586667 
L 269.003284 75.586667 
z
" clip-path="url(#p44205c85a5)" style="fill: #d62728; opacity: 0.6"/>
   </g>
   <g id="patch_75">
    <path d="M 269.642809 105.166667 
L 270.282334 105.166667 
L 270.282334 75.586667 
L 269.642809 75.586667 
z
" clip-path="url(#p44205c85a5)" style="fill: #d62728; opacity: 0.6"/>
   </g>
   <g id="patch_76">
    <path d="M 271.241621 105.166667 
L 271.881145 105.166667 
L 271.881145 75.586667 
L 271.241621 75.586667 
z
" clip-path="url(#p44205c85a5)" style="fill: #d62728; opacity: 0.6"/>
   </g>
   <g id="patch_77">
    <path d="M 271.561383 105.166667 
L 272.200908 105.166667 
L 272.200908 75.586667 
L 271.561383 75.586667 
z
" clip-path="url(#p44205c85a5)" style="fill: #d62728; opacity: 0.6"/>
   </g>
   <g id="patch_78">
    <path d="M 272.200908 105.166667 
L 272.840432 105.166667 
L 272.840432 75.586667 
L 272.200908 75.586667 
z
" clip-path="url(#p44205c85a5)" style="fill: #d62728; opacity: 0.6"/>
   </g>
   <g id="patch_79">
    <path d="M 276.038056 105.166667 
L 276.67758 105.166667 
L 276.67758 75.586667 
L 276.038056 75.586667 
z
" clip-path="url(#p44205c85a5)" style="fill: #d62728; opacity: 0.6"/>
   </g>
   <g id="patch_80">
    <path d="M 276.357818 105.166667 
L 276.997343 105.166667 
L 276.997343 75.586667 
L 276.357818 75.586667 
z
" clip-path="url(#p44205c85a5)" style="fill: #d62728; opacity: 0.6"/>
   </g>
   <g id="patch_81">
    <path d="M 276.997343 105.166667 
L 277.636867 105.166667 
L 277.636867 75.586667 
L 276.997343 75.586667 
z
" clip-path="url(#p44205c85a5)" style="fill: #d62728; opacity: 0.6"/>
   </g>
   <g id="patch_82">
    <path d="M 278.596154 105.166667 
L 279.235679 105.166667 
L 279.235679 75.586667 
L 278.596154 75.586667 
z
" clip-path="url(#p44205c85a5)" style="fill: #d62728; opacity: 0.6"/>
   </g>
   <g id="patch_83">
    <path d="M 282.11354 105.166667 
L 282.753065 105.166667 
L 282.753065 75.586667 
L 282.11354 75.586667 
z
" clip-path="url(#p44205c85a5)" style="fill: #d62728; opacity: 0.6"/>
   </g>
   <g id="patch_84">
    <path d="M 283.072827 105.166667 
L 283.712352 105.166667 
L 283.712352 75.586667 
L 283.072827 75.586667 
z
" clip-path="url(#p44205c85a5)" style="fill: #d62728; opacity: 0.6"/>
   </g>
   <g id="patch_85">
    <path d="M 286.27045 105.166667 
L 286.909975 105.166667 
L 286.909975 75.586667 
L 286.27045 75.586667 
z
" clip-path="url(#p44205c85a5)" style="fill: #d62728; opacity: 0.6"/>
   </g>
   <g id="patch_86">
    <path d="M 288.508787 105.166667 
L 289.148311 105.166667 
L 289.148311 75.586667 
L 288.508787 75.586667 
z
" clip-path="url(#p44205c85a5)" style="fill: #d62728; opacity: 0.6"/>
   </g>
   <g id="patch_87">
    <path d="M 289.468074 105.166667 
L 290.107598 105.166667 
L 290.107598 75.586667 
L 289.468074 75.586667 
z
" clip-path="url(#p44205c85a5)" style="fill: #d62728; opacity: 0.6"/>
   </g>
   <g id="patch_88">
    <path d="M 289.787836 105.166667 
L 290.427361 105.166667 
L 290.427361 75.586667 
L 289.787836 75.586667 
z
" clip-path="url(#p44205c85a5)" style="fill: #d62728; opacity: 0.6"/>
   </g>
   <g id="patch_89">
    <path d="M 296.502845 105.166667 
L 297.14237 105.166667 
L 297.14237 75.586667 
L 296.502845 75.586667 
z
" clip-path="url(#p44205c85a5)" style="fill: #d62728; opacity: 0.6"/>
   </g>
   <g id="patch_90">
    <path d="M 297.14237 105.166667 
L 297.781894 105.166667 
L 297.781894 75.586667 
L 297.14237 75.586667 
z
" clip-path="url(#p44205c85a5)" style="fill: #d62728; opacity: 0.6"/>
   </g>
   <g id="patch_91">
    <path d="M 313.770011 105.166667 
L 314.409536 105.166667 
L 314.409536 75.586667 
L 313.770011 75.586667 
z
" clip-path="url(#p44205c85a5)" style="fill: #d62728; opacity: 0.6"/>
   </g>
   <g id="patch_92">
    <path d="M 314.089773 105.166667 
L 314.729298 105.166667 
L 314.729298 75.586667 
L 314.089773 75.586667 
z
" clip-path="url(#p44205c85a5)" style="fill: #d62728; opacity: 0.6"/>
   </g>
   <g id="patch_93">
    <path d="M 342.228858 105.166667 
L 342.868383 105.166667 
L 342.868383 75.586667 
L 342.228858 75.586667 
z
" clip-path="url(#p44205c85a5)" style="fill: #d62728; opacity: 0.6"/>
   </g>
   <g id="patch_94">
    <path d="M 342.548621 105.166667 
L 343.188145 105.166667 
L 343.188145 75.586667 
L 342.548621 75.586667 
z
" clip-path="url(#p44205c85a5)" style="fill: #d62728; opacity: 0.6"/>
   </g>
   <g id="patch_95">
    <path d="M 347.98458 105.166667 
L 348.624105 105.166667 
L 348.624105 75.586667 
L 347.98458 75.586667 
z
" clip-path="url(#p44205c85a5)" style="fill: #d62728; opacity: 0.6"/>
   </g>
   <g id="patch_96">
    <path d="M 350.862441 105.166667 
L 351.501966 105.166667 
L 351.501966 75.586667 
L 350.862441 75.586667 
z
" clip-path="url(#p44205c85a5)" style="fill: #d62728; opacity: 0.6"/>
   </g>
   <g id="patch_97">
    <path d="M 360.455311 105.166667 
L 361.094836 105.166667 
L 361.094836 75.586667 
L 360.455311 75.586667 
z
" clip-path="url(#p44205c85a5)" style="fill: #d62728; opacity: 0.6"/>
   </g>
   <g id="patch_98">
    <path d="M 361.094836 105.166667 
L 361.734361 105.166667 
L 361.734361 75.586667 
L 361.094836 75.586667 
z
" clip-path="url(#p44205c85a5)" style="fill: #d62728; opacity: 0.6"/>
   </g>
   <g id="patch_99">
    <path d="M 361.734361 105.166667 
L 362.373885 105.166667 
L 362.373885 75.586667 
L 361.734361 75.586667 
z
" clip-path="url(#p44205c85a5)" style="fill: #d62728; opacity: 0.6"/>
   </g>
   <g id="patch_100">
    <path d="M 362.054123 105.166667 
L 362.693648 105.166667 
L 362.693648 75.586667 
L 362.054123 75.586667 
z
" clip-path="url(#p44205c85a5)" style="fill: #d62728; opacity: 0.6"/>
   </g>
   <g id="patch_101">
    <path d="M 362.693648 105.166667 
L 363.333172 105.166667 
L 363.333172 75.586667 
L 362.693648 75.586667 
z
" clip-path="url(#p44205c85a5)" style="fill: #d62728; opacity: 0.6"/>
   </g>
   <g id="patch_102">
    <path d="M 364.292459 105.166667 
L 364.931984 105.166667 
L 364.931984 75.586667 
L 364.292459 75.586667 
z
" clip-path="url(#p44205c85a5)" style="fill: #d62728; opacity: 0.6"/>
   </g>
   <g id="patch_103">
    <path d="M 366.211033 105.166667 
L 366.850558 105.166667 
L 366.850558 75.586667 
L 366.211033 75.586667 
z
" clip-path="url(#p44205c85a5)" style="fill: #d62728; opacity: 0.6"/>
   </g>
   <g id="patch_104">
    <path d="M 366.850558 105.166667 
L 367.490083 105.166667 
L 367.490083 75.586667 
L 366.850558 75.586667 
z
" clip-path="url(#p44205c85a5)" style="fill: #d62728; opacity: 0.6"/>
   </g>
   <g id="patch_105">
    <path d="M 368.129607 105.166667 
L 368.769132 105.166667 
L 368.769132 75.586667 
L 368.129607 75.586667 
z
" clip-path="url(#p44205c85a5)" style="fill: #d62728; opacity: 0.6"/>
   </g>
   <g id="patch_106">
    <path d="M 370.367944 105.166667 
L 371.007468 105.166667 
L 371.007468 75.586667 
L 370.367944 75.586667 
z
" clip-path="url(#p44205c85a5)" style="fill: #d62728; opacity: 0.6"/>
   </g>
   <g id="patch_107">
    <path d="M 371.007468 105.166667 
L 371.646993 105.166667 
L 371.646993 75.586667 
L 371.007468 75.586667 
z
" clip-path="url(#p44205c85a5)" style="fill: #d62728; opacity: 0.6"/>
   </g>
   <g id="patch_108">
    <path d="M 371.646993 105.166667 
L 372.286518 105.166667 
L 372.286518 75.586667 
L 371.646993 75.586667 
z
" clip-path="url(#p44205c85a5)" style="fill: #d62728; opacity: 0.6"/>
   </g>
   <g id="patch_109">
    <path d="M 380.280576 105.166667 
L 380.920101 105.166667 
L 380.920101 75.586667 
L 380.280576 75.586667 
z
" clip-path="url(#p44205c85a5)" style="fill: #d62728; opacity: 0.6"/>
   </g>
   <g id="patch_110">
    <path d="M 386.036298 105.166667 
L 386.675822 105.166667 
L 386.675822 75.586667 
L 386.036298 75.586667 
z
" clip-path="url(#p44205c85a5)" style="fill: #d62728; opacity: 0.6"/>
   </g>
   <g id="patch_111">
    <path d="M 388.594396 105.166667 
L 389.233921 105.166667 
L 389.233921 75.586667 
L 388.594396 75.586667 
z
" clip-path="url(#p44205c85a5)" style="fill: #d62728; opacity: 0.6"/>
   </g>
   <g id="patch_112">
    <path d="M 392.111782 105.166667 
L 392.751307 105.166667 
L 392.751307 75.586667 
L 392.111782 75.586667 
z
" clip-path="url(#p44205c85a5)" style="fill: #d62728; opacity: 0.6"/>
   </g>
   <g id="patch_113">
    <path d="M 392.751307 105.166667 
L 393.390831 105.166667 
L 393.390831 75.586667 
L 392.751307 75.586667 
z
" clip-path="url(#p44205c85a5)" style="fill: #d62728; opacity: 0.6"/>
   </g>
   <g id="patch_114">
    <path d="M 394.350118 105.166667 
L 394.989643 105.166667 
L 394.989643 75.586667 
L 394.350118 75.586667 
z
" clip-path="url(#p44205c85a5)" style="fill: #d62728; opacity: 0.6"/>
   </g>
   <g id="patch_115">
    <path d="M 395.309405 105.166667 
L 395.94893 105.166667 
L 395.94893 75.586667 
L 395.309405 75.586667 
z
" clip-path="url(#p44205c85a5)" style="fill: #d62728; opacity: 0.6"/>
   </g>
   <g id="patch_116">
    <path d="M 395.629168 105.166667 
L 396.268692 105.166667 
L 396.268692 75.586667 
L 395.629168 75.586667 
z
" clip-path="url(#p44205c85a5)" style="fill: #d62728; opacity: 0.6"/>
   </g>
   <g id="patch_117">
    <path d="M 398.826791 105.166667 
L 399.466316 105.166667 
L 399.466316 75.586667 
L 398.826791 75.586667 
z
" clip-path="url(#p44205c85a5)" style="fill: #d62728; opacity: 0.6"/>
   </g>
   <g id="patch_118">
    <path d="M 399.466316 105.166667 
L 400.10584 105.166667 
L 400.10584 75.586667 
L 399.466316 75.586667 
z
" clip-path="url(#p44205c85a5)" style="fill: #d62728; opacity: 0.6"/>
   </g>
   <g id="patch_119">
    <path d="M 407.140612 105.166667 
L 407.780136 105.166667 
L 407.780136 75.586667 
L 407.140612 75.586667 
z
" clip-path="url(#p44205c85a5)" style="fill: #d62728; opacity: 0.6"/>
   </g>
   <g id="patch_120">
    <path d="M 407.780136 105.166667 
L 408.419661 105.166667 
L 408.419661 75.586667 
L 407.780136 75.586667 
z
" clip-path="url(#p44205c85a5)" style="fill: #d62728; opacity: 0.6"/>
   </g>
   <g id="patch_121">
    <path d="M 415.13467 105.166667 
L 415.774195 105.166667 
L 415.774195 75.586667 
L 415.13467 75.586667 
z
" clip-path="url(#p44205c85a5)" style="fill: #d62728; opacity: 0.6"/>
   </g>
   <g id="patch_122">
    <path d="M 421.529917 105.166667 
L 422.169441 105.166667 
L 422.169441 75.586667 
L 421.529917 75.586667 
z
" clip-path="url(#p44205c85a5)" style="fill: #d62728; opacity: 0.6"/>
   </g>
   <g id="patch_123">
    <path d="M 421.849679 105.166667 
L 422.489204 105.166667 
L 422.489204 75.586667 
L 421.849679 75.586667 
z
" clip-path="url(#p44205c85a5)" style="fill: #d62728; opacity: 0.6"/>
   </g>
   <g id="patch_124">
    <path d="M 422.808966 105.166667 
L 423.448491 105.166667 
L 423.448491 75.586667 
L 422.808966 75.586667 
z
" clip-path="url(#p44205c85a5)" style="fill: #d62728; opacity: 0.6"/>
   </g>
   <g id="patch_125">
    <path d="M 432.082074 105.166667 
L 432.721598 105.166667 
L 432.721598 75.586667 
L 432.082074 75.586667 
z
" clip-path="url(#p44205c85a5)" style="fill: #d62728; opacity: 0.6"/>
   </g>
   <g id="patch_126">
    <path d="M 434.000648 105.166667 
L 434.640172 105.166667 
L 434.640172 75.586667 
L 434.000648 75.586667 
z
" clip-path="url(#p44205c85a5)" style="fill: #d62728; opacity: 0.6"/>
   </g>
   <g id="patch_127">
    <path d="M 450.948051 105.166667 
L 451.587576 105.166667 
L 451.587576 75.586667 
L 450.948051 75.586667 
z
" clip-path="url(#p44205c85a5)" style="fill: #d62728; opacity: 0.6"/>
   </g>
   <g id="patch_128">
    <path d="M 454.145674 105.166667 
L 454.785199 105.166667 
L 454.785199 75.586667 
L 454.145674 75.586667 
z
" clip-path="url(#p44205c85a5)" style="fill: #d62728; opacity: 0.6"/>
   </g>
   <g id="patch_129">
    <path d="M 459.581634 105.166667 
L 460.221159 105.166667 
L 460.221159 75.586667 
L 459.581634 75.586667 
z
" clip-path="url(#p44205c85a5)" style="fill: #d62728; opacity: 0.6"/>
   </g>
   <g id="patch_130">
    <path d="M 459.901396 105.166667 
L 460.540921 105.166667 
L 460.540921 75.586667 
L 459.901396 75.586667 
z
" clip-path="url(#p44205c85a5)" style="fill: #d62728; opacity: 0.6"/>
   </g>
   <g id="patch_131">
    <path d="M 463.09902 105.166667 
L 463.738544 105.166667 
L 463.738544 75.586667 
L 463.09902 75.586667 
z
" clip-path="url(#p44205c85a5)" style="fill: #d62728; opacity: 0.6"/>
   </g>
   <g id="patch_132">
    <path d="M 463.738544 105.166667 
L 464.378069 105.166667 
L 464.378069 75.586667 
L 463.738544 75.586667 
z
" clip-path="url(#p44205c85a5)" style="fill: #d62728; opacity: 0.6"/>
   </g>
   <g id="patch_133">
    <path d="M 466.616405 105.166667 
L 467.25593 105.166667 
L 467.25593 75.586667 
L 466.616405 75.586667 
z
" clip-path="url(#p44205c85a5)" style="fill: #d62728; opacity: 0.6"/>
   </g>
   <g id="patch_134">
    <path d="M 474.930226 105.166667 
L 475.569751 105.166667 
L 475.569751 75.586667 
L 474.930226 75.586667 
z
" clip-path="url(#p44205c85a5)" style="fill: #d62728; opacity: 0.6"/>
   </g>
   <g id="patch_135">
    <path d="M 483.563809 105.166667 
L 484.203334 105.166667 
L 484.203334 75.586667 
L 483.563809 75.586667 
z
" clip-path="url(#p44205c85a5)" style="fill: #d62728; opacity: 0.6"/>
   </g>
   <g id="patch_136">
    <path d="M 484.523096 105.166667 
L 485.162621 105.166667 
L 485.162621 75.586667 
L 484.523096 75.586667 
z
" clip-path="url(#p44205c85a5)" style="fill: #d62728; opacity: 0.6"/>
   </g>
   <g id="patch_137">
    <path d="M 509.144796 105.166667 
L 509.78432 105.166667 
L 509.78432 75.586667 
L 509.144796 75.586667 
z
" clip-path="url(#p44205c85a5)" style="fill: #d62728; opacity: 0.6"/>
   </g>
   <g id="patch_138">
    <path d="M 509.464558 105.166667 
L 510.104083 105.166667 
L 510.104083 75.586667 
L 509.464558 75.586667 
z
" clip-path="url(#p44205c85a5)" style="fill: #d62728; opacity: 0.6"/>
   </g>
   <g id="patch_139">
    <path d="M 513.941231 105.166667 
L 514.580755 105.166667 
L 514.580755 75.586667 
L 513.941231 75.586667 
z
" clip-path="url(#p44205c85a5)" style="fill: #d62728; opacity: 0.6"/>
   </g>
   <g id="patch_140">
    <path d="M 519.37719 105.166667 
L 520.016715 105.166667 
L 520.016715 75.586667 
L 519.37719 75.586667 
z
" clip-path="url(#p44205c85a5)" style="fill: #d62728; opacity: 0.6"/>
   </g>
   <g id="patch_141">
    <path d="M 525.132912 105.166667 
L 525.772437 105.166667 
L 525.772437 75.586667 
L 525.132912 75.586667 
z
" clip-path="url(#p44205c85a5)" style="fill: #d62728; opacity: 0.6"/>
   </g>
   <g id="patch_142">
    <path d="M 525.772437 105.166667 
L 526.411961 105.166667 
L 526.411961 75.586667 
L 525.772437 75.586667 
z
" clip-path="url(#p44205c85a5)" style="fill: #d62728; opacity: 0.6"/>
   </g>
   <g id="patch_143">
    <path d="M 526.411961 105.166667 
L 527.051486 105.166667 
L 527.051486 75.586667 
L 526.411961 75.586667 
z
" clip-path="url(#p44205c85a5)" style="fill: #d62728; opacity: 0.6"/>
   </g>
   <g id="patch_144">
    <path d="M 531.528159 105.166667 
L 532.167683 105.166667 
L 532.167683 75.586667 
L 531.528159 75.586667 
z
" clip-path="url(#p44205c85a5)" style="fill: #d62728; opacity: 0.6"/>
   </g>
   <g id="patch_145">
    <path d="M 536.004831 105.166667 
L 536.644356 105.166667 
L 536.644356 75.586667 
L 536.004831 75.586667 
z
" clip-path="url(#p44205c85a5)" style="fill: #d62728; opacity: 0.6"/>
   </g>
   <g id="patch_146">
    <path d="M 539.202455 105.166667 
L 539.841979 105.166667 
L 539.841979 75.586667 
L 539.202455 75.586667 
z
" clip-path="url(#p44205c85a5)" style="fill: #d62728; opacity: 0.6"/>
   </g>
   <g id="matplotlib.axis_1">
    <g id="text_1">
     <!-- A-Comp -->
     <g transform="translate(9.619531 89.940313) scale(0.1 -0.1)">
      <defs>
       <path id="DejaVuSans-41" d="M 2188 4044 
L 1331 1722 
L 3047 1722 
L 2188 4044 
z
M 1831 4666 
L 2547 4666 
L 4325 0 
L 3669 0 
L 3244 1197 
L 1141 1197 
L 716 0 
L 50 0 
L 1831 4666 
z
" transform="scale(0.015625)"/>
       <path id="DejaVuSans-2d" d="M 313 2009 
L 1997 2009 
L 1997 1497 
L 313 1497 
L 313 2009 
z
" transform="scale(0.015625)"/>
       <path id="DejaVuSans-43" d="M 4122 4306 
L 4122 3641 
Q 3803 3938 3442 4084 
Q 3081 4231 2675 4231 
Q 1875 4231 1450 3742 
Q 1025 3253 1025 2328 
Q 1025 1406 1450 917 
Q 1875 428 2675 428 
Q 3081 428 3442 575 
Q 3803 722 4122 1019 
L 4122 359 
Q 3791 134 3420 21 
Q 3050 -91 2638 -91 
Q 1578 -91 968 557 
Q 359 1206 359 2328 
Q 359 3453 968 4101 
Q 1578 4750 2638 4750 
Q 3056 4750 3426 4639 
Q 3797 4528 4122 4306 
z
" transform="scale(0.015625)"/>
       <path id="DejaVuSans-6f" d="M 1959 3097 
Q 1497 3097 1228 2736 
Q 959 2375 959 1747 
Q 959 1119 1226 758 
Q 1494 397 1959 397 
Q 2419 397 2687 759 
Q 2956 1122 2956 1747 
Q 2956 2369 2687 2733 
Q 2419 3097 1959 3097 
z
M 1959 3584 
Q 2709 3584 3137 3096 
Q 3566 2609 3566 1747 
Q 3566 888 3137 398 
Q 2709 -91 1959 -91 
Q 1206 -91 779 398 
Q 353 888 353 1747 
Q 353 2609 779 3096 
Q 1206 3584 1959 3584 
z
" transform="scale(0.015625)"/>
       <path id="DejaVuSans-6d" d="M 3328 2828 
Q 3544 3216 3844 3400 
Q 4144 3584 4550 3584 
Q 5097 3584 5394 3201 
Q 5691 2819 5691 2113 
L 5691 0 
L 5113 0 
L 5113 2094 
Q 5113 2597 4934 2840 
Q 4756 3084 4391 3084 
Q 3944 3084 3684 2787 
Q 3425 2491 3425 1978 
L 3425 0 
L 2847 0 
L 2847 2094 
Q 2847 2600 2669 2842 
Q 2491 3084 2119 3084 
Q 1678 3084 1418 2786 
Q 1159 2488 1159 1978 
L 1159 0 
L 581 0 
L 581 3500 
L 1159 3500 
L 1159 2956 
Q 1356 3278 1631 3431 
Q 1906 3584 2284 3584 
Q 2666 3584 2933 3390 
Q 3200 3197 3328 2828 
z
" transform="scale(0.015625)"/>
       <path id="DejaVuSans-70" d="M 1159 525 
L 1159 -1331 
L 581 -1331 
L 581 3500 
L 1159 3500 
L 1159 2969 
Q 1341 3281 1617 3432 
Q 1894 3584 2278 3584 
Q 2916 3584 3314 3078 
Q 3713 2572 3713 1747 
Q 3713 922 3314 415 
Q 2916 -91 2278 -91 
Q 1894 -91 1617 61 
Q 1341 213 1159 525 
z
M 3116 1747 
Q 3116 2381 2855 2742 
Q 2594 3103 2138 3103 
Q 1681 3103 1420 2742 
Q 1159 2381 1159 1747 
Q 1159 1113 1420 752 
Q 1681 391 2138 391 
Q 2594 391 2855 752 
Q 3116 1113 3116 1747 
z
" transform="scale(0.015625)"/>
      </defs>
      <use xlink:href="#DejaVuSans-41"/>
      <use xlink:href="#DejaVuSans-2d" x="66.158203"/>
      <use xlink:href="#DejaVuSans-43" x="102.242188"/>
      <use xlink:href="#DejaVuSans-6f" x="172.066406"/>
      <use xlink:href="#DejaVuSans-6d" x="233.248047"/>
      <use xlink:href="#DejaVuSans-70" x="330.660156"/>
     </g>
    </g>
   </g>
  </g>
  <g id="axes_2">
   <g id="patch_147">
    <path d="M 49.326563 61.186667 
L 539.806562 61.186667 
L 539.806562 28.32 
L 49.326563 28.32 
z
" style="fill: #ffffff"/>
   </g>
   <g id="patch_148">
    <path d="M 111.797803 57.9 
L 112.11824 57.9 
L 112.11824 28.32 
L 111.797803 28.32 
z
" clip-path="url(#p0e2eedd149)" style="fill: #1f77b4; opacity: 0.6"/>
   </g>
   <g id="patch_149">
    <path d="M 116.269408 57.9 
L 116.624139 57.9 
L 116.624139 28.32 
L 116.269408 28.32 
z
" clip-path="url(#p0e2eedd149)" style="fill: #1f77b4; opacity: 0.6"/>
   </g>
   <g id="patch_150">
    <path d="M 165.154526 57.9 
L 165.793091 57.9 
L 165.793091 28.32 
L 165.154526 28.32 
z
" clip-path="url(#p0e2eedd149)" style="fill: #1f77b4; opacity: 0.6"/>
   </g>
   <g id="patch_151">
    <path d="M 168.393056 57.9 
L 169.659613 57.9 
L 169.659613 28.32 
L 168.393056 28.32 
z
" clip-path="url(#p0e2eedd149)" style="fill: #1f77b4; opacity: 0.6"/>
   </g>
   <g id="patch_152">
    <path d="M 207.661748 57.9 
L 209.252898 57.9 
L 209.252898 28.32 
L 207.661748 28.32 
z
" clip-path="url(#p0e2eedd149)" style="fill: #1f77b4; opacity: 0.6"/>
   </g>
   <g id="patch_153">
    <path d="M 211.834208 57.9 
L 213.826673 57.9 
L 213.826673 28.32 
L 211.834208 28.32 
z
" clip-path="url(#p0e2eedd149)" style="fill: #1f77b4; opacity: 0.6"/>
   </g>
   <g id="patch_154">
    <path d="M 221.688036 57.9 
L 222.339782 57.9 
L 222.339782 28.32 
L 221.688036 28.32 
z
" clip-path="url(#p0e2eedd149)" style="fill: #1f77b4; opacity: 0.6"/>
   </g>
   <g id="patch_155">
    <path d="M 247.8879 57.9 
L 248.517228 57.9 
L 248.517228 28.32 
L 247.8879 28.32 
z
" clip-path="url(#p0e2eedd149)" style="fill: #1f77b4; opacity: 0.6"/>
   </g>
   <g id="patch_156">
    <path d="M 276.006063 57.9 
L 276.836416 57.9 
L 276.836416 28.32 
L 276.006063 28.32 
z
" clip-path="url(#p0e2eedd149)" style="fill: #1f77b4; opacity: 0.6"/>
   </g>
   <g id="patch_157">
    <path d="M 278.879995 57.9 
L 280.016778 57.9 
L 280.016778 28.32 
L 278.879995 28.32 
z
" clip-path="url(#p0e2eedd149)" style="fill: #1f77b4; opacity: 0.6"/>
   </g>
   <g id="patch_158">
    <path d="M 287.04299 57.9 
L 287.983372 57.9 
L 287.983372 28.32 
L 287.04299 28.32 
z
" clip-path="url(#p0e2eedd149)" style="fill: #1f77b4; opacity: 0.6"/>
   </g>
   <g id="patch_159">
    <path d="M 357.100845 57.9 
L 357.384064 57.9 
L 357.384064 28.32 
L 357.100845 28.32 
z
" clip-path="url(#p0e2eedd149)" style="fill: #1f77b4; opacity: 0.6"/>
   </g>
   <g id="patch_160">
    <path d="M 395.239365 57.9 
L 396.458842 57.9 
L 396.458842 28.32 
L 395.239365 28.32 
z
" clip-path="url(#p0e2eedd149)" style="fill: #1f77b4; opacity: 0.6"/>
   </g>
   <g id="patch_161">
    <path d="M 405.23125 57.9 
L 406.170261 57.9 
L 406.170261 28.32 
L 405.23125 28.32 
z
" clip-path="url(#p0e2eedd149)" style="fill: #1f77b4; opacity: 0.6"/>
   </g>
   <g id="patch_162">
    <path d="M 446.082029 57.9 
L 446.398367 57.9 
L 446.398367 28.32 
L 446.082029 28.32 
z
" clip-path="url(#p0e2eedd149)" style="fill: #1f77b4; opacity: 0.6"/>
   </g>
   <g id="patch_163">
    <path d="M 454.908586 57.9 
L 456.205043 57.9 
L 456.205043 28.32 
L 454.908586 28.32 
z
" clip-path="url(#p0e2eedd149)" style="fill: #1f77b4; opacity: 0.6"/>
   </g>
   <g id="patch_164">
    <path d="M 459.913483 57.9 
L 460.86633 57.9 
L 460.86633 28.32 
L 459.913483 28.32 
z
" clip-path="url(#p0e2eedd149)" style="fill: #1f77b4; opacity: 0.6"/>
   </g>
   <g id="patch_165">
    <path d="M 464.169968 57.9 
L 465.127291 57.9 
L 465.127291 28.32 
L 464.169968 28.32 
z
" clip-path="url(#p0e2eedd149)" style="fill: #1f77b4; opacity: 0.6"/>
   </g>
   <g id="patch_166">
    <path d="M 531.54619 57.9 
L 532.853279 57.9 
L 532.853279 28.32 
L 531.54619 28.32 
z
" clip-path="url(#p0e2eedd149)" style="fill: #1f77b4; opacity: 0.6"/>
   </g>
   <g id="matplotlib.axis_2">
    <g id="text_2">
     <!-- ECH90 -->
     <g transform="translate(12.553125 42.673646) scale(0.1 -0.1)">
      <defs>
       <path id="DejaVuSans-45" d="M 628 4666 
L 3578 4666 
L 3578 4134 
L 1259 4134 
L 1259 2753 
L 3481 2753 
L 3481 2222 
L 1259 2222 
L 1259 531 
L 3634 531 
L 3634 0 
L 628 0 
L 628 4666 
z
" transform="scale(0.015625)"/>
       <path id="DejaVuSans-48" d="M 628 4666 
L 1259 4666 
L 1259 2753 
L 3553 2753 
L 3553 4666 
L 4184 4666 
L 4184 0 
L 3553 0 
L 3553 2222 
L 1259 2222 
L 1259 0 
L 628 0 
L 628 4666 
z
" transform="scale(0.015625)"/>
       <path id="DejaVuSans-39" d="M 703 97 
L 703 672 
Q 941 559 1184 500 
Q 1428 441 1663 441 
Q 2288 441 2617 861 
Q 2947 1281 2994 2138 
Q 2813 1869 2534 1725 
Q 2256 1581 1919 1581 
Q 1219 1581 811 2004 
Q 403 2428 403 3163 
Q 403 3881 828 4315 
Q 1253 4750 1959 4750 
Q 2769 4750 3195 4129 
Q 3622 3509 3622 2328 
Q 3622 1225 3098 567 
Q 2575 -91 1691 -91 
Q 1453 -91 1209 -44 
Q 966 3 703 97 
z
M 1959 2075 
Q 2384 2075 2632 2365 
Q 2881 2656 2881 3163 
Q 2881 3666 2632 3958 
Q 2384 4250 1959 4250 
Q 1534 4250 1286 3958 
Q 1038 3666 1038 3163 
Q 1038 2656 1286 2365 
Q 1534 2075 1959 2075 
z
" transform="scale(0.015625)"/>
       <path id="DejaVuSans-30" d="M 2034 4250 
Q 1547 4250 1301 3770 
Q 1056 3291 1056 2328 
Q 1056 1369 1301 889 
Q 1547 409 2034 409 
Q 2525 409 2770 889 
Q 3016 1369 3016 2328 
Q 3016 3291 2770 3770 
Q 2525 4250 2034 4250 
z
M 2034 4750 
Q 2819 4750 3233 4129 
Q 3647 3509 3647 2328 
Q 3647 1150 3233 529 
Q 2819 -91 2034 -91 
Q 1250 -91 836 529 
Q 422 1150 422 2328 
Q 422 3509 836 4129 
Q 1250 4750 2034 4750 
z
" transform="scale(0.015625)"/>
      </defs>
      <use xlink:href="#DejaVuSans-45"/>
      <use xlink:href="#DejaVuSans-43" x="63.183594"/>
      <use xlink:href="#DejaVuSans-48" x="133.007812"/>
      <use xlink:href="#DejaVuSans-39" x="208.203125"/>
      <use xlink:href="#DejaVuSans-30" x="271.826172"/>
     </g>
    </g>
   </g>
   <g id="text_3">
    <!-- chrX -->
    <g transform="translate(49.326563 22.32) scale(0.1 -0.1)">
     <defs>
      <path id="DejaVuSans-63" d="M 3122 3366 
L 3122 2828 
Q 2878 2963 2633 3030 
Q 2388 3097 2138 3097 
Q 1578 3097 1268 2742 
Q 959 2388 959 1747 
Q 959 1106 1268 751 
Q 1578 397 2138 397 
Q 2388 397 2633 464 
Q 2878 531 3122 666 
L 3122 134 
Q 2881 22 2623 -34 
Q 2366 -91 2075 -91 
Q 1284 -91 818 406 
Q 353 903 353 1747 
Q 353 2603 823 3093 
Q 1294 3584 2113 3584 
Q 2378 3584 2631 3529 
Q 2884 3475 3122 3366 
z
" transform="scale(0.015625)"/>
      <path id="DejaVuSans-68" d="M 3513 2113 
L 3513 0 
L 2938 0 
L 2938 2094 
Q 2938 2591 2744 2837 
Q 2550 3084 2163 3084 
Q 1697 3084 1428 2787 
Q 1159 2491 1159 1978 
L 1159 0 
L 581 0 
L 581 4863 
L 1159 4863 
L 1159 2956 
Q 1366 3272 1645 3428 
Q 1925 3584 2291 3584 
Q 2894 3584 3203 3211 
Q 3513 2838 3513 2113 
z
" transform="scale(0.015625)"/>
      <path id="DejaVuSans-72" d="M 2631 2963 
Q 2534 3019 2420 3045 
Q 2306 3072 2169 3072 
Q 1681 3072 1420 2755 
Q 1159 2438 1159 1844 
L 1159 0 
L 581 0 
L 581 3500 
L 1159 3500 
L 1159 2956 
Q 1341 3275 1631 3429 
Q 1922 3584 2338 3584 
Q 2397 3584 2469 3576 
Q 2541 3569 2628 3553 
L 2631 2963 
z
" transform="scale(0.015625)"/>
      <path id="DejaVuSans-58" d="M 403 4666 
L 1081 4666 
L 2241 2931 
L 3406 4666 
L 4084 4666 
L 2584 2425 
L 4184 0 
L 3506 0 
L 2194 1984 
L 872 0 
L 191 0 
L 1856 2491 
L 403 4666 
z
" transform="scale(0.015625)"/>
     </defs>
     <use xlink:href="#DejaVuSans-63"/>
     <use xlink:href="#DejaVuSans-68" x="54.980469"/>
     <use xlink:href="#DejaVuSans-72" x="118.359375"/>
     <use xlink:href="#DejaVuSans-58" x="159.472656"/>
    </g>
   </g>
  </g>
  <g id="axes_3">
   <g id="patch_167">
    <path d="M 49.326563 155.72 
L 539.806562 155.72 
L 539.806562 122.853333 
L 49.326563 122.853333 
z
" style="fill: #ffffff"/>
   </g>
   <g id="patch_168">
    <path d="M 168.393056 152.433333 
L 168.597912 152.433333 
L 168.597912 122.853333 
L 168.393056 122.853333 
z
" clip-path="url(#p627f9563ee)" style="fill: #2ca02c; opacity: 0.6"/>
   </g>
   <g id="patch_169">
    <path d="M 276.357818 152.433333 
L 276.836416 152.433333 
L 276.836416 122.853333 
L 276.357818 122.853333 
z
" clip-path="url(#p627f9563ee)" style="fill: #2ca02c; opacity: 0.6"/>
   </g>
   <g id="patch_170">
    <path d="M 278.879995 152.433333 
L 279.235679 152.433333 
L 279.235679 122.853333 
L 278.879995 122.853333 
z
" clip-path="url(#p627f9563ee)" style="fill: #2ca02c; opacity: 0.6"/>
   </g>
   <g id="patch_171">
    <path d="M 395.629168 152.433333 
L 396.268692 152.433333 
L 396.268692 122.853333 
L 395.629168 122.853333 
z
" clip-path="url(#p627f9563ee)" style="fill: #2ca02c; opacity: 0.6"/>
   </g>
   <g id="patch_172">
    <path d="M 459.913483 152.433333 
L 460.540921 152.433333 
L 460.540921 122.853333 
L 459.913483 122.853333 
z
" clip-path="url(#p627f9563ee)" style="fill: #2ca02c; opacity: 0.6"/>
   </g>
   <g id="patch_173">
    <path d="M 464.169968 152.433333 
L 464.378069 152.433333 
L 464.378069 122.853333 
L 464.169968 122.853333 
z
" clip-path="url(#p627f9563ee)" style="fill: #2ca02c; opacity: 0.6"/>
   </g>
   <g id="patch_174">
    <path d="M 531.54619 152.433333 
L 532.167683 152.433333 
L 532.167683 122.853333 
L 531.54619 122.853333 
z
" clip-path="url(#p627f9563ee)" style="fill: #2ca02c; opacity: 0.6"/>
   </g>
   <g id="matplotlib.axis_3">
    <g id="xtick_1">
     <g id="line2d_1">
      <defs>
       <path id="mbfb1659b8b" d="M 0 0 
L 0 3.5 
" style="stroke: #000000; stroke-width: 0.8"/>
      </defs>
      <g>
       <use xlink:href="#mbfb1659b8b" x="49.326563" y="155.72" style="stroke: #000000; stroke-width: 0.8"/>
      </g>
     </g>
     <g id="text_4">
      <!-- 0 Mbp -->
      <g transform="translate(33.89375 170.318438) scale(0.1 -0.1)">
       <defs>
        <path id="DejaVuSans-20" transform="scale(0.015625)"/>
        <path id="DejaVuSans-4d" d="M 628 4666 
L 1569 4666 
L 2759 1491 
L 3956 4666 
L 4897 4666 
L 4897 0 
L 4281 0 
L 4281 4097 
L 3078 897 
L 2444 897 
L 1241 4097 
L 1241 0 
L 628 0 
L 628 4666 
z
" transform="scale(0.015625)"/>
        <path id="DejaVuSans-62" d="M 3116 1747 
Q 3116 2381 2855 2742 
Q 2594 3103 2138 3103 
Q 1681 3103 1420 2742 
Q 1159 2381 1159 1747 
Q 1159 1113 1420 752 
Q 1681 391 2138 391 
Q 2594 391 2855 752 
Q 3116 1113 3116 1747 
z
M 1159 2969 
Q 1341 3281 1617 3432 
Q 1894 3584 2278 3584 
Q 2916 3584 3314 3078 
Q 3713 2572 3713 1747 
Q 3713 922 3314 415 
Q 2916 -91 2278 -91 
Q 1894 -91 1617 61 
Q 1341 213 1159 525 
L 1159 0 
L 581 0 
L 581 4863 
L 1159 4863 
L 1159 2969 
z
" transform="scale(0.015625)"/>
       </defs>
       <use xlink:href="#DejaVuSans-30"/>
       <use xlink:href="#DejaVuSans-20" x="63.623047"/>
       <use xlink:href="#DejaVuSans-4d" x="95.410156"/>
       <use xlink:href="#DejaVuSans-62" x="181.689453"/>
       <use xlink:href="#DejaVuSans-70" x="245.166016"/>
      </g>
     </g>
    </g>
    <g id="xtick_2">
     <g id="line2d_2">
      <g>
       <use xlink:href="#mbfb1659b8b" x="171.946562" y="155.72" style="stroke: #000000; stroke-width: 0.8"/>
      </g>
     </g>
     <g id="text_5">
      <!-- 38 Mbp -->
      <g transform="translate(153.3325 170.318438) scale(0.1 -0.1)">
       <defs>
        <path id="DejaVuSans-33" d="M 2597 2516 
Q 3050 2419 3304 2112 
Q 3559 1806 3559 1356 
Q 3559 666 3084 287 
Q 2609 -91 1734 -91 
Q 1441 -91 1130 -33 
Q 819 25 488 141 
L 488 750 
Q 750 597 1062 519 
Q 1375 441 1716 441 
Q 2309 441 2620 675 
Q 2931 909 2931 1356 
Q 2931 1769 2642 2001 
Q 2353 2234 1838 2234 
L 1294 2234 
L 1294 2753 
L 1863 2753 
Q 2328 2753 2575 2939 
Q 2822 3125 2822 3475 
Q 2822 3834 2567 4026 
Q 2313 4219 1838 4219 
Q 1578 4219 1281 4162 
Q 984 4106 628 3988 
L 628 4550 
Q 988 4650 1302 4700 
Q 1616 4750 1894 4750 
Q 2613 4750 3031 4423 
Q 3450 4097 3450 3541 
Q 3450 3153 3228 2886 
Q 3006 2619 2597 2516 
z
" transform="scale(0.015625)"/>
        <path id="DejaVuSans-38" d="M 2034 2216 
Q 1584 2216 1326 1975 
Q 1069 1734 1069 1313 
Q 1069 891 1326 650 
Q 1584 409 2034 409 
Q 2484 409 2743 651 
Q 3003 894 3003 1313 
Q 3003 1734 2745 1975 
Q 2488 2216 2034 2216 
z
M 1403 2484 
Q 997 2584 770 2862 
Q 544 3141 544 3541 
Q 544 4100 942 4425 
Q 1341 4750 2034 4750 
Q 2731 4750 3128 4425 
Q 3525 4100 3525 3541 
Q 3525 3141 3298 2862 
Q 3072 2584 2669 2484 
Q 3125 2378 3379 2068 
Q 3634 1759 3634 1313 
Q 3634 634 3220 271 
Q 2806 -91 2034 -91 
Q 1263 -91 848 271 
Q 434 634 434 1313 
Q 434 1759 690 2068 
Q 947 2378 1403 2484 
z
M 1172 3481 
Q 1172 3119 1398 2916 
Q 1625 2713 2034 2713 
Q 2441 2713 2670 2916 
Q 2900 3119 2900 3481 
Q 2900 3844 2670 4047 
Q 2441 4250 2034 4250 
Q 1625 4250 1398 4047 
Q 1172 3844 1172 3481 
z
" transform="scale(0.015625)"/>
       </defs>
       <use xlink:href="#DejaVuSans-33"/>
       <use xlink:href="#DejaVuSans-38" x="63.623047"/>
       <use xlink:href="#DejaVuSans-20" x="127.246094"/>
       <use xlink:href="#DejaVuSans-4d" x="159.033203"/>
       <use xlink:href="#DejaVuSans-62" x="245.3125"/>
       <use xlink:href="#DejaVuSans-70" x="308.789062"/>
      </g>
     </g>
    </g>
    <g id="xtick_3">
     <g id="line2d_3">
      <g>
       <use xlink:href="#mbfb1659b8b" x="294.566562" y="155.72" style="stroke: #000000; stroke-width: 0.8"/>
      </g>
     </g>
     <g id="text_6">
      <!-- 76 Mbp -->
      <g transform="translate(275.9525 170.318438) scale(0.1 -0.1)">
       <defs>
        <path id="DejaVuSans-37" d="M 525 4666 
L 3525 4666 
L 3525 4397 
L 1831 0 
L 1172 0 
L 2766 4134 
L 525 4134 
L 525 4666 
z
" transform="scale(0.015625)"/>
        <path id="DejaVuSans-36" d="M 2113 2584 
Q 1688 2584 1439 2293 
Q 1191 2003 1191 1497 
Q 1191 994 1439 701 
Q 1688 409 2113 409 
Q 2538 409 2786 701 
Q 3034 994 3034 1497 
Q 3034 2003 2786 2293 
Q 2538 2584 2113 2584 
z
M 3366 4563 
L 3366 3988 
Q 3128 4100 2886 4159 
Q 2644 4219 2406 4219 
Q 1781 4219 1451 3797 
Q 1122 3375 1075 2522 
Q 1259 2794 1537 2939 
Q 1816 3084 2150 3084 
Q 2853 3084 3261 2657 
Q 3669 2231 3669 1497 
Q 3669 778 3244 343 
Q 2819 -91 2113 -91 
Q 1303 -91 875 529 
Q 447 1150 447 2328 
Q 447 3434 972 4092 
Q 1497 4750 2381 4750 
Q 2619 4750 2861 4703 
Q 3103 4656 3366 4563 
z
" transform="scale(0.015625)"/>
       </defs>
       <use xlink:href="#DejaVuSans-37"/>
       <use xlink:href="#DejaVuSans-36" x="63.623047"/>
       <use xlink:href="#DejaVuSans-20" x="127.246094"/>
       <use xlink:href="#DejaVuSans-4d" x="159.033203"/>
       <use xlink:href="#DejaVuSans-62" x="245.3125"/>
       <use xlink:href="#DejaVuSans-70" x="308.789062"/>
      </g>
     </g>
    </g>
    <g id="xtick_4">
     <g id="line2d_4">
      <g>
       <use xlink:href="#mbfb1659b8b" x="417.186562" y="155.72" style="stroke: #000000; stroke-width: 0.8"/>
      </g>
     </g>
     <g id="text_7">
      <!-- 115 Mbp -->
      <g transform="translate(395.39125 170.318438) scale(0.1 -0.1)">
       <defs>
        <path id="DejaVuSans-31" d="M 794 531 
L 1825 531 
L 1825 4091 
L 703 3866 
L 703 4441 
L 1819 4666 
L 2450 4666 
L 2450 531 
L 3481 531 
L 3481 0 
L 794 0 
L 794 531 
z
" transform="scale(0.015625)"/>
        <path id="DejaVuSans-35" d="M 691 4666 
L 3169 4666 
L 3169 4134 
L 1269 4134 
L 1269 2991 
Q 1406 3038 1543 3061 
Q 1681 3084 1819 3084 
Q 2600 3084 3056 2656 
Q 3513 2228 3513 1497 
Q 3513 744 3044 326 
Q 2575 -91 1722 -91 
Q 1428 -91 1123 -41 
Q 819 9 494 109 
L 494 744 
Q 775 591 1075 516 
Q 1375 441 1709 441 
Q 2250 441 2565 725 
Q 2881 1009 2881 1497 
Q 2881 1984 2565 2268 
Q 2250 2553 1709 2553 
Q 1456 2553 1204 2497 
Q 953 2441 691 2322 
L 691 4666 
z
" transform="scale(0.015625)"/>
       </defs>
       <use xlink:href="#DejaVuSans-31"/>
       <use xlink:href="#DejaVuSans-31" x="63.623047"/>
       <use xlink:href="#DejaVuSans-35" x="127.246094"/>
       <use xlink:href="#DejaVuSans-20" x="190.869141"/>
       <use xlink:href="#DejaVuSans-4d" x="222.65625"/>
       <use xlink:href="#DejaVuSans-62" x="308.935547"/>
       <use xlink:href="#DejaVuSans-70" x="372.412109"/>
      </g>
     </g>
    </g>
    <g id="xtick_5">
     <g id="line2d_5">
      <g>
       <use xlink:href="#mbfb1659b8b" x="539.806562" y="155.72" style="stroke: #000000; stroke-width: 0.8"/>
      </g>
     </g>
     <g id="text_8">
      <!-- 153 Mbp -->
      <g transform="translate(518.01125 170.318438) scale(0.1 -0.1)">
       <use xlink:href="#DejaVuSans-31"/>
       <use xlink:href="#DejaVuSans-35" x="63.623047"/>
       <use xlink:href="#DejaVuSans-33" x="127.246094"/>
       <use xlink:href="#DejaVuSans-20" x="190.869141"/>
       <use xlink:href="#DejaVuSans-4d" x="222.65625"/>
       <use xlink:href="#DejaVuSans-62" x="308.935547"/>
       <use xlink:href="#DejaVuSans-70" x="372.412109"/>
      </g>
     </g>
    </g>
   </g>
   <g id="matplotlib.axis_4">
    <g id="text_9">
     <!-- Intersect -->
     <g transform="translate(7.2 137.206979) scale(0.1 -0.1)">
      <defs>
       <path id="DejaVuSans-49" d="M 628 4666 
L 1259 4666 
L 1259 0 
L 628 0 
L 628 4666 
z
" transform="scale(0.015625)"/>
       <path id="DejaVuSans-6e" d="M 3513 2113 
L 3513 0 
L 2938 0 
L 2938 2094 
Q 2938 2591 2744 2837 
Q 2550 3084 2163 3084 
Q 1697 3084 1428 2787 
Q 1159 2491 1159 1978 
L 1159 0 
L 581 0 
L 581 3500 
L 1159 3500 
L 1159 2956 
Q 1366 3272 1645 3428 
Q 1925 3584 2291 3584 
Q 2894 3584 3203 3211 
Q 3513 2838 3513 2113 
z
" transform="scale(0.015625)"/>
       <path id="DejaVuSans-74" d="M 1172 4494 
L 1172 3500 
L 2356 3500 
L 2356 3053 
L 1172 3053 
L 1172 1153 
Q 1172 725 1289 603 
Q 1406 481 1766 481 
L 2356 481 
L 2356 0 
L 1766 0 
Q 1100 0 847 248 
Q 594 497 594 1153 
L 594 3053 
L 172 3053 
L 172 3500 
L 594 3500 
L 594 4494 
L 1172 4494 
z
" transform="scale(0.015625)"/>
       <path id="DejaVuSans-65" d="M 3597 1894 
L 3597 1613 
L 953 1613 
Q 991 1019 1311 708 
Q 1631 397 2203 397 
Q 2534 397 2845 478 
Q 3156 559 3463 722 
L 3463 178 
Q 3153 47 2828 -22 
Q 2503 -91 2169 -91 
Q 1331 -91 842 396 
Q 353 884 353 1716 
Q 353 2575 817 3079 
Q 1281 3584 2069 3584 
Q 2775 3584 3186 3129 
Q 3597 2675 3597 1894 
z
M 3022 2063 
Q 3016 2534 2758 2815 
Q 2500 3097 2075 3097 
Q 1594 3097 1305 2825 
Q 1016 2553 972 2059 
L 3022 2063 
z
" transform="scale(0.015625)"/>
       <path id="DejaVuSans-73" d="M 2834 3397 
L 2834 2853 
Q 2591 2978 2328 3040 
Q 2066 3103 1784 3103 
Q 1356 3103 1142 2972 
Q 928 2841 928 2578 
Q 928 2378 1081 2264 
Q 1234 2150 1697 2047 
L 1894 2003 
Q 2506 1872 2764 1633 
Q 3022 1394 3022 966 
Q 3022 478 2636 193 
Q 2250 -91 1575 -91 
Q 1294 -91 989 -36 
Q 684 19 347 128 
L 347 722 
Q 666 556 975 473 
Q 1284 391 1588 391 
Q 1994 391 2212 530 
Q 2431 669 2431 922 
Q 2431 1156 2273 1281 
Q 2116 1406 1581 1522 
L 1381 1569 
Q 847 1681 609 1914 
Q 372 2147 372 2553 
Q 372 3047 722 3315 
Q 1072 3584 1716 3584 
Q 2034 3584 2315 3537 
Q 2597 3491 2834 3397 
z
" transform="scale(0.015625)"/>
      </defs>
      <use xlink:href="#DejaVuSans-49"/>
      <use xlink:href="#DejaVuSans-6e" x="29.492188"/>
      <use xlink:href="#DejaVuSans-74" x="92.871094"/>
      <use xlink:href="#DejaVuSans-65" x="132.080078"/>
      <use xlink:href="#DejaVuSans-72" x="193.603516"/>
      <use xlink:href="#DejaVuSans-73" x="234.716797"/>
      <use xlink:href="#DejaVuSans-65" x="286.816406"/>
      <use xlink:href="#DejaVuSans-63" x="348.339844"/>
      <use xlink:href="#DejaVuSans-74" x="403.320312"/>
     </g>
    </g>
   </g>
   <g id="patch_175">
    <path d="M 49.326563 155.72 
L 539.806562 155.72 
" style="fill: none; stroke: #000000; stroke-width: 0.8; stroke-linejoin: miter; stroke-linecap: square"/>
   </g>
  </g>
  <g id="text_10">
   <!-- Start edge -->
   <g transform="translate(252.910937 16.318125) scale(0.12 -0.12)">
    <defs>
     <path id="DejaVuSans-53" d="M 3425 4513 
L 3425 3897 
Q 3066 4069 2747 4153 
Q 2428 4238 2131 4238 
Q 1616 4238 1336 4038 
Q 1056 3838 1056 3469 
Q 1056 3159 1242 3001 
Q 1428 2844 1947 2747 
L 2328 2669 
Q 3034 2534 3370 2195 
Q 3706 1856 3706 1288 
Q 3706 609 3251 259 
Q 2797 -91 1919 -91 
Q 1588 -91 1214 -16 
Q 841 59 441 206 
L 441 856 
Q 825 641 1194 531 
Q 1563 422 1919 422 
Q 2459 422 2753 634 
Q 3047 847 3047 1241 
Q 3047 1584 2836 1778 
Q 2625 1972 2144 2069 
L 1759 2144 
Q 1053 2284 737 2584 
Q 422 2884 422 3419 
Q 422 4038 858 4394 
Q 1294 4750 2059 4750 
Q 2388 4750 2728 4690 
Q 3069 4631 3425 4513 
z
" transform="scale(0.015625)"/>
     <path id="DejaVuSans-61" d="M 2194 1759 
Q 1497 1759 1228 1600 
Q 959 1441 959 1056 
Q 959 750 1161 570 
Q 1363 391 1709 391 
Q 2188 391 2477 730 
Q 2766 1069 2766 1631 
L 2766 1759 
L 2194 1759 
z
M 3341 1997 
L 3341 0 
L 2766 0 
L 2766 531 
Q 2569 213 2275 61 
Q 1981 -91 1556 -91 
Q 1019 -91 701 211 
Q 384 513 384 1019 
Q 384 1609 779 1909 
Q 1175 2209 1959 2209 
L 2766 2209 
L 2766 2266 
Q 2766 2663 2505 2880 
Q 2244 3097 1772 3097 
Q 1472 3097 1187 3025 
Q 903 2953 641 2809 
L 641 3341 
Q 956 3463 1253 3523 
Q 1550 3584 1831 3584 
Q 2591 3584 2966 3190 
Q 3341 2797 3341 1997 
z
" transform="scale(0.015625)"/>
     <path id="DejaVuSans-64" d="M 2906 2969 
L 2906 4863 
L 3481 4863 
L 3481 0 
L 2906 0 
L 2906 525 
Q 2725 213 2448 61 
Q 2172 -91 1784 -91 
Q 1150 -91 751 415 
Q 353 922 353 1747 
Q 353 2572 751 3078 
Q 1150 3584 1784 3584 
Q 2172 3584 2448 3432 
Q 2725 3281 2906 2969 
z
M 947 1747 
Q 947 1113 1208 752 
Q 1469 391 1925 391 
Q 2381 391 2643 752 
Q 2906 1113 2906 1747 
Q 2906 2381 2643 2742 
Q 2381 3103 1925 3103 
Q 1469 3103 1208 2742 
Q 947 2381 947 1747 
z
" transform="scale(0.015625)"/>
     <path id="DejaVuSans-67" d="M 2906 1791 
Q 2906 2416 2648 2759 
Q 2391 3103 1925 3103 
Q 1463 3103 1205 2759 
Q 947 2416 947 1791 
Q 947 1169 1205 825 
Q 1463 481 1925 481 
Q 2391 481 2648 825 
Q 2906 1169 2906 1791 
z
M 3481 434 
Q 3481 -459 3084 -895 
Q 2688 -1331 1869 -1331 
Q 1566 -1331 1297 -1286 
Q 1028 -1241 775 -1147 
L 775 -588 
Q 1028 -725 1275 -790 
Q 1522 -856 1778 -856 
Q 2344 -856 2625 -561 
Q 2906 -266 2906 331 
L 2906 616 
Q 2728 306 2450 153 
Q 2172 0 1784 0 
Q 1141 0 747 490 
Q 353 981 353 1791 
Q 353 2603 747 3093 
Q 1141 3584 1784 3584 
Q 2172 3584 2450 3431 
Q 2728 3278 2906 2969 
L 2906 3500 
L 3481 3500 
L 3481 434 
z
" transform="scale(0.015625)"/>
    </defs>
    <use xlink:href="#DejaVuSans-53"/>
    <use xlink:href="#DejaVuSans-74" x="63.476562"/>
    <use xlink:href="#DejaVuSans-61" x="102.685547"/>
    <use xlink:href="#DejaVuSans-72" x="163.964844"/>
    <use xlink:href="#DejaVuSans-74" x="205.078125"/>
    <use xlink:href="#DejaVuSans-20" x="244.287109"/>
    <use xlink:href="#DejaVuSans-65" x="276.074219"/>
    <use xlink:href="#DejaVuSans-64" x="337.597656"/>
    <use xlink:href="#DejaVuSans-67" x="401.074219"/>
    <use xlink:href="#DejaVuSans-65" x="464.550781"/>
   </g>
  </g>
 </g>
 <defs>
  <clipPath id="p44205c85a5">
   <rect x="49.326563" y="75.586667" width="490.48" height="32.866667"/>
  </clipPath>
  <clipPath id="p0e2eedd149">
   <rect x="49.326563" y="28.32" width="490.48" height="32.866667"/>
  </clipPath>
  <clipPath id="p627f9563ee">
   <rect x="49.326563" y="122.853333" width="490.48" height="32.866667"/>
  </clipPath>
 </defs>
</svg>
