<?xml version="1.0" encoding="utf-8" standalone="no"?>
<!DOCTYPE svg PUBLIC "-//W3C//DTD SVG 1.1//EN"
  "http://www.w3.org/Graphics/SVG/1.1/DTD/svg11.dtd">
<svg xmlns:xlink="http://www.w3.org/1999/xlink" width="718.883594pt" height="70.925625pt" viewBox="0 0 718.883594 70.925625" xmlns="http://www.w3.org/2000/svg" version="1.1">
 <metadata>
  <rdf:RDF xmlns:dc="http://purl.org/dc/elements/1.1/" xmlns:cc="http://creativecommons.org/ns#" xmlns:rdf="http://www.w3.org/1999/02/22-rdf-syntax-ns#">
   <cc:Work>
    <dc:type rdf:resource="http://purl.org/dc/dcmitype/StillImage"/>
    <dc:date>2025-01-09T14:29:40.169254</dc:date>
    <dc:format>image/svg+xml</dc:format>
    <dc:creator>
     <cc:Agent>
      <dc:title>Matplotlib v3.8.4, https://matplotlib.org/</dc:title>
     </cc:Agent>
    </dc:creator>
   </cc:Work>
  </rdf:RDF>
 </metadata>
 <defs>
  <style type="text/css">*{stroke-linejoin: round; stroke-linecap: butt}</style>
 </defs>
 <g id="figure_1">
  <g id="patch_1">
   <path d="M 0 70.925625 
L 718.883594 70.925625 
L 718.883594 0 
L 0 0 
z
" style="fill: #ffffff"/>
  </g>
  <g id="axes_1">
   <g id="patch_2">
    <path d="M 87.741406 50.91875 
L 698.606406 50.91875 
L 698.606406 36.89875 
L 87.741406 36.89875 
z
" style="fill: #ffffff"/>
   </g>
   <g id="patch_3">
    <path d="M 87.741406 49.51675 
L 97.697552 49.51675 
L 97.697552 36.89875 
L 87.741406 36.89875 
z
" clip-path="url(#p5f419ae922)" style="fill: #d62728; opacity: 0.8"/>
   </g>
   <g id="patch_4">
    <path d="M 108.051944 49.51675 
L 110.839665 49.51675 
L 110.839665 36.89875 
L 108.051944 36.89875 
z
" clip-path="url(#p5f419ae922)" style="fill: #d62728; opacity: 0.8"/>
   </g>
   <g id="patch_5">
    <path d="M 115.220369 49.51675 
L 126.769498 49.51675 
L 126.769498 36.89875 
L 115.220369 36.89875 
z
" clip-path="url(#p5f419ae922)" style="fill: #d62728; opacity: 0.8"/>
   </g>
   <g id="patch_6">
    <path d="M 140.708102 49.51675 
L 141.106348 49.51675 
L 141.106348 36.89875 
L 140.708102 36.89875 
z
" clip-path="url(#p5f419ae922)" style="fill: #d62728; opacity: 0.8"/>
   </g>
   <g id="patch_7">
    <path d="M 143.495823 49.51675 
L 144.292315 49.51675 
L 144.292315 36.89875 
L 143.495823 36.89875 
z
" clip-path="url(#p5f419ae922)" style="fill: #d62728; opacity: 0.8"/>
   </g>
   <g id="patch_8">
    <path d="M 145.885298 49.51675 
L 171.771277 49.51675 
L 171.771277 36.89875 
L 145.885298 36.89875 
z
" clip-path="url(#p5f419ae922)" style="fill: #d62728; opacity: 0.8"/>
   </g>
   <g id="patch_9">
    <path d="M 172.567769 49.51675 
L 182.523915 49.51675 
L 182.523915 36.89875 
L 172.567769 36.89875 
z
" clip-path="url(#p5f419ae922)" style="fill: #d62728; opacity: 0.8"/>
   </g>
   <g id="patch_10">
    <path d="M 197.259011 49.51675 
L 198.453748 49.51675 
L 198.453748 36.89875 
L 197.259011 36.89875 
z
" clip-path="url(#p5f419ae922)" style="fill: #d62728; opacity: 0.8"/>
   </g>
   <g id="patch_11">
    <path d="M 200.046732 49.51675 
L 207.613402 49.51675 
L 207.613402 36.89875 
L 200.046732 36.89875 
z
" clip-path="url(#p5f419ae922)" style="fill: #d62728; opacity: 0.8"/>
   </g>
   <g id="patch_12">
    <path d="M 215.578319 49.51675 
L 219.959023 49.51675 
L 219.959023 36.89875 
L 215.578319 36.89875 
z
" clip-path="url(#p5f419ae922)" style="fill: #d62728; opacity: 0.8"/>
   </g>
   <g id="patch_13">
    <path d="M 231.109907 49.51675 
L 231.508152 49.51675 
L 231.508152 36.89875 
L 231.109907 36.89875 
z
" clip-path="url(#p5f419ae922)" style="fill: #d62728; opacity: 0.8"/>
   </g>
   <g id="patch_14">
    <path d="M 240.667807 49.51675 
L 241.464298 49.51675 
L 241.464298 36.89875 
L 240.667807 36.89875 
z
" clip-path="url(#p5f419ae922)" style="fill: #d62728; opacity: 0.8"/>
   </g>
   <g id="patch_15">
    <path d="M 246.243248 49.51675 
L 247.437986 49.51675 
L 247.437986 36.89875 
L 246.243248 36.89875 
z
" clip-path="url(#p5f419ae922)" style="fill: #d62728; opacity: 0.8"/>
   </g>
   <g id="patch_16">
    <path d="M 321.113465 49.51675 
L 321.511711 49.51675 
L 321.511711 36.89875 
L 321.113465 36.89875 
z
" clip-path="url(#p5f419ae922)" style="fill: #d62728; opacity: 0.8"/>
   </g>
   <g id="patch_17">
    <path d="M 324.299432 49.51675 
L 329.874873 49.51675 
L 329.874873 36.89875 
L 324.299432 36.89875 
z
" clip-path="url(#p5f419ae922)" style="fill: #d62728; opacity: 0.8"/>
   </g>
   <g id="patch_18">
    <path d="M 353.371378 49.51675 
L 355.362607 49.51675 
L 355.362607 36.89875 
L 353.371378 36.89875 
z
" clip-path="url(#p5f419ae922)" style="fill: #d62728; opacity: 0.8"/>
   </g>
   <g id="patch_19">
    <path d="M 361.336294 49.51675 
L 368.106474 49.51675 
L 368.106474 36.89875 
L 361.336294 36.89875 
z
" clip-path="url(#p5f419ae922)" style="fill: #d62728; opacity: 0.8"/>
   </g>
   <g id="patch_20">
    <path d="M 371.690686 49.51675 
L 372.088932 49.51675 
L 372.088932 36.89875 
L 371.690686 36.89875 
z
" clip-path="url(#p5f419ae922)" style="fill: #d62728; opacity: 0.8"/>
   </g>
   <g id="patch_21">
    <path d="M 379.257357 49.51675 
L 379.655603 49.51675 
L 379.655603 36.89875 
L 379.257357 36.89875 
z
" clip-path="url(#p5f419ae922)" style="fill: #d62728; opacity: 0.8"/>
   </g>
   <g id="patch_22">
    <path d="M 393.594207 49.51675 
L 397.178419 49.51675 
L 397.178419 36.89875 
L 393.594207 36.89875 
z
" clip-path="url(#p5f419ae922)" style="fill: #d62728; opacity: 0.8"/>
   </g>
   <g id="patch_23">
    <path d="M 413.108253 49.51675 
L 413.506499 49.51675 
L 413.506499 36.89875 
L 413.108253 36.89875 
z
" clip-path="url(#p5f419ae922)" style="fill: #d62728; opacity: 0.8"/>
   </g>
   <g id="patch_24">
    <path d="M 414.30299 49.51675 
L 414.701236 49.51675 
L 414.701236 36.89875 
L 414.30299 36.89875 
z
" clip-path="url(#p5f419ae922)" style="fill: #d62728; opacity: 0.8"/>
   </g>
   <g id="patch_25">
    <path d="M 428.241595 49.51675 
L 429.038086 49.51675 
L 429.038086 36.89875 
L 428.241595 36.89875 
z
" clip-path="url(#p5f419ae922)" style="fill: #d62728; opacity: 0.8"/>
   </g>
   <g id="patch_26">
    <path d="M 433.817036 49.51675 
L 434.613528 49.51675 
L 434.613528 36.89875 
L 433.817036 36.89875 
z
" clip-path="url(#p5f419ae922)" style="fill: #d62728; opacity: 0.8"/>
   </g>
   <g id="patch_27">
    <path d="M 458.508278 49.51675 
L 482.004782 49.51675 
L 482.004782 36.89875 
L 458.508278 36.89875 
z
" clip-path="url(#p5f419ae922)" style="fill: #d62728; opacity: 0.8"/>
   </g>
   <g id="patch_28">
    <path d="M 498.731107 49.51675 
L 499.925845 49.51675 
L 499.925845 36.89875 
L 498.731107 36.89875 
z
" clip-path="url(#p5f419ae922)" style="fill: #d62728; opacity: 0.8"/>
   </g>
   <g id="patch_29">
    <path d="M 507.492516 49.51675 
L 509.085499 49.51675 
L 509.085499 36.89875 
L 507.492516 36.89875 
z
" clip-path="url(#p5f419ae922)" style="fill: #d62728; opacity: 0.8"/>
   </g>
   <g id="patch_30">
    <path d="M 528.599545 49.51675 
L 536.564461 49.51675 
L 536.564461 36.89875 
L 528.599545 36.89875 
z
" clip-path="url(#p5f419ae922)" style="fill: #d62728; opacity: 0.8"/>
   </g>
   <g id="patch_31">
    <path d="M 538.157445 49.51675 
L 541.741657 49.51675 
L 541.741657 36.89875 
L 538.157445 36.89875 
z
" clip-path="url(#p5f419ae922)" style="fill: #d62728; opacity: 0.8"/>
   </g>
   <g id="patch_32">
    <path d="M 543.732886 49.51675 
L 549.308328 49.51675 
L 549.308328 36.89875 
L 543.732886 36.89875 
z
" clip-path="url(#p5f419ae922)" style="fill: #d62728; opacity: 0.8"/>
   </g>
   <g id="patch_33">
    <path d="M 550.10482 49.51675 
L 552.096049 49.51675 
L 552.096049 36.89875 
L 550.10482 36.89875 
z
" clip-path="url(#p5f419ae922)" style="fill: #d62728; opacity: 0.8"/>
   </g>
   <g id="patch_34">
    <path d="M 556.476753 49.51675 
L 557.671491 49.51675 
L 557.671491 36.89875 
L 556.476753 36.89875 
z
" clip-path="url(#p5f419ae922)" style="fill: #d62728; opacity: 0.8"/>
   </g>
   <g id="patch_35">
    <path d="M 560.857457 49.51675 
L 576.389045 49.51675 
L 576.389045 36.89875 
L 560.857457 36.89875 
z
" clip-path="url(#p5f419ae922)" style="fill: #d62728; opacity: 0.8"/>
   </g>
   <g id="patch_36">
    <path d="M 587.141682 49.51675 
L 587.539928 49.51675 
L 587.539928 36.89875 
L 587.141682 36.89875 
z
" clip-path="url(#p5f419ae922)" style="fill: #d62728; opacity: 0.8"/>
   </g>
   <g id="patch_37">
    <path d="M 588.734666 49.51675 
L 590.327649 49.51675 
L 590.327649 36.89875 
L 588.734666 36.89875 
z
" clip-path="url(#p5f419ae922)" style="fill: #d62728; opacity: 0.8"/>
   </g>
   <g id="patch_38">
    <path d="M 639.710132 49.51675 
L 660.02067 49.51675 
L 660.02067 36.89875 
L 639.710132 36.89875 
z
" clip-path="url(#p5f419ae922)" style="fill: #d62728; opacity: 0.8"/>
   </g>
   <g id="matplotlib.axis_1">
    <g id="xtick_1">
     <g id="line2d_1">
      <defs>
       <path id="m2fcae5f71a" d="M 0 0 
L 0 3.5 
" style="stroke: #000000; stroke-width: 0.8"/>
      </defs>
      <g>
       <use xlink:href="#m2fcae5f71a" x="87.741406" y="50.91875" style="stroke: #000000; stroke-width: 0.8"/>
      </g>
     </g>
     <g id="text_1">
      <!-- 0 Mbp -->
      <g transform="translate(78.481719 62.477812) scale(0.06 -0.06)">
       <defs>
        <path id="DejaVuSans-30" d="M 2034 4250 
Q 1547 4250 1301 3770 
Q 1056 3291 1056 2328 
Q 1056 1369 1301 889 
Q 1547 409 2034 409 
Q 2525 409 2770 889 
Q 3016 1369 3016 2328 
Q 3016 3291 2770 3770 
Q 2525 4250 2034 4250 
z
M 2034 4750 
Q 2819 4750 3233 4129 
Q 3647 3509 3647 2328 
Q 3647 1150 3233 529 
Q 2819 -91 2034 -91 
Q 1250 -91 836 529 
Q 422 1150 422 2328 
Q 422 3509 836 4129 
Q 1250 4750 2034 4750 
z
" transform="scale(0.015625)"/>
        <path id="DejaVuSans-20" transform="scale(0.015625)"/>
        <path id="DejaVuSans-4d" d="M 628 4666 
L 1569 4666 
L 2759 1491 
L 3956 4666 
L 4897 4666 
L 4897 0 
L 4281 0 
L 4281 4097 
L 3078 897 
L 2444 897 
L 1241 4097 
L 1241 0 
L 628 0 
L 628 4666 
z
" transform="scale(0.015625)"/>
        <path id="DejaVuSans-62" d="M 3116 1747 
Q 3116 2381 2855 2742 
Q 2594 3103 2138 3103 
Q 1681 3103 1420 2742 
Q 1159 2381 1159 1747 
Q 1159 1113 1420 752 
Q 1681 391 2138 391 
Q 2594 391 2855 752 
Q 3116 1113 3116 1747 
z
M 1159 2969 
Q 1341 3281 1617 3432 
Q 1894 3584 2278 3584 
Q 2916 3584 3314 3078 
Q 3713 2572 3713 1747 
Q 3713 922 3314 415 
Q 2916 -91 2278 -91 
Q 1894 -91 1617 61 
Q 1341 213 1159 525 
L 1159 0 
L 581 0 
L 581 4863 
L 1159 4863 
L 1159 2969 
z
" transform="scale(0.015625)"/>
        <path id="DejaVuSans-70" d="M 1159 525 
L 1159 -1331 
L 581 -1331 
L 581 3500 
L 1159 3500 
L 1159 2969 
Q 1341 3281 1617 3432 
Q 1894 3584 2278 3584 
Q 2916 3584 3314 3078 
Q 3713 2572 3713 1747 
Q 3713 922 3314 415 
Q 2916 -91 2278 -91 
Q 1894 -91 1617 61 
Q 1341 213 1159 525 
z
M 3116 1747 
Q 3116 2381 2855 2742 
Q 2594 3103 2138 3103 
Q 1681 3103 1420 2742 
Q 1159 2381 1159 1747 
Q 1159 1113 1420 752 
Q 1681 391 2138 391 
Q 2594 391 2855 752 
Q 3116 1113 3116 1747 
z
" transform="scale(0.015625)"/>
       </defs>
       <use xlink:href="#DejaVuSans-30"/>
       <use xlink:href="#DejaVuSans-20" x="63.623047"/>
       <use xlink:href="#DejaVuSans-4d" x="95.410156"/>
       <use xlink:href="#DejaVuSans-62" x="181.689453"/>
       <use xlink:href="#DejaVuSans-70" x="245.166016"/>
      </g>
     </g>
    </g>
    <g id="xtick_2">
     <g id="line2d_2">
      <g>
       <use xlink:href="#m2fcae5f71a" x="240.457656" y="50.91875" style="stroke: #000000; stroke-width: 0.8"/>
      </g>
     </g>
     <g id="text_2">
      <!-- 38 Mbp -->
      <g transform="translate(229.289219 62.477812) scale(0.06 -0.06)">
       <defs>
        <path id="DejaVuSans-33" d="M 2597 2516 
Q 3050 2419 3304 2112 
Q 3559 1806 3559 1356 
Q 3559 666 3084 287 
Q 2609 -91 1734 -91 
Q 1441 -91 1130 -33 
Q 819 25 488 141 
L 488 750 
Q 750 597 1062 519 
Q 1375 441 1716 441 
Q 2309 441 2620 675 
Q 2931 909 2931 1356 
Q 2931 1769 2642 2001 
Q 2353 2234 1838 2234 
L 1294 2234 
L 1294 2753 
L 1863 2753 
Q 2328 2753 2575 2939 
Q 2822 3125 2822 3475 
Q 2822 3834 2567 4026 
Q 2313 4219 1838 4219 
Q 1578 4219 1281 4162 
Q 984 4106 628 3988 
L 628 4550 
Q 988 4650 1302 4700 
Q 1616 4750 1894 4750 
Q 2613 4750 3031 4423 
Q 3450 4097 3450 3541 
Q 3450 3153 3228 2886 
Q 3006 2619 2597 2516 
z
" transform="scale(0.015625)"/>
        <path id="DejaVuSans-38" d="M 2034 2216 
Q 1584 2216 1326 1975 
Q 1069 1734 1069 1313 
Q 1069 891 1326 650 
Q 1584 409 2034 409 
Q 2484 409 2743 651 
Q 3003 894 3003 1313 
Q 3003 1734 2745 1975 
Q 2488 2216 2034 2216 
z
M 1403 2484 
Q 997 2584 770 2862 
Q 544 3141 544 3541 
Q 544 4100 942 4425 
Q 1341 4750 2034 4750 
Q 2731 4750 3128 4425 
Q 3525 4100 3525 3541 
Q 3525 3141 3298 2862 
Q 3072 2584 2669 2484 
Q 3125 2378 3379 2068 
Q 3634 1759 3634 1313 
Q 3634 634 3220 271 
Q 2806 -91 2034 -91 
Q 1263 -91 848 271 
Q 434 634 434 1313 
Q 434 1759 690 2068 
Q 947 2378 1403 2484 
z
M 1172 3481 
Q 1172 3119 1398 2916 
Q 1625 2713 2034 2713 
Q 2441 2713 2670 2916 
Q 2900 3119 2900 3481 
Q 2900 3844 2670 4047 
Q 2441 4250 2034 4250 
Q 1625 4250 1398 4047 
Q 1172 3844 1172 3481 
z
" transform="scale(0.015625)"/>
       </defs>
       <use xlink:href="#DejaVuSans-33"/>
       <use xlink:href="#DejaVuSans-38" x="63.623047"/>
       <use xlink:href="#DejaVuSans-20" x="127.246094"/>
       <use xlink:href="#DejaVuSans-4d" x="159.033203"/>
       <use xlink:href="#DejaVuSans-62" x="245.3125"/>
       <use xlink:href="#DejaVuSans-70" x="308.789062"/>
      </g>
     </g>
    </g>
    <g id="xtick_3">
     <g id="line2d_3">
      <g>
       <use xlink:href="#m2fcae5f71a" x="393.173906" y="50.91875" style="stroke: #000000; stroke-width: 0.8"/>
      </g>
     </g>
     <g id="text_3">
      <!-- 76 Mbp -->
      <g transform="translate(382.005469 62.477812) scale(0.06 -0.06)">
       <defs>
        <path id="DejaVuSans-37" d="M 525 4666 
L 3525 4666 
L 3525 4397 
L 1831 0 
L 1172 0 
L 2766 4134 
L 525 4134 
L 525 4666 
z
" transform="scale(0.015625)"/>
        <path id="DejaVuSans-36" d="M 2113 2584 
Q 1688 2584 1439 2293 
Q 1191 2003 1191 1497 
Q 1191 994 1439 701 
Q 1688 409 2113 409 
Q 2538 409 2786 701 
Q 3034 994 3034 1497 
Q 3034 2003 2786 2293 
Q 2538 2584 2113 2584 
z
M 3366 4563 
L 3366 3988 
Q 3128 4100 2886 4159 
Q 2644 4219 2406 4219 
Q 1781 4219 1451 3797 
Q 1122 3375 1075 2522 
Q 1259 2794 1537 2939 
Q 1816 3084 2150 3084 
Q 2853 3084 3261 2657 
Q 3669 2231 3669 1497 
Q 3669 778 3244 343 
Q 2819 -91 2113 -91 
Q 1303 -91 875 529 
Q 447 1150 447 2328 
Q 447 3434 972 4092 
Q 1497 4750 2381 4750 
Q 2619 4750 2861 4703 
Q 3103 4656 3366 4563 
z
" transform="scale(0.015625)"/>
       </defs>
       <use xlink:href="#DejaVuSans-37"/>
       <use xlink:href="#DejaVuSans-36" x="63.623047"/>
       <use xlink:href="#DejaVuSans-20" x="127.246094"/>
       <use xlink:href="#DejaVuSans-4d" x="159.033203"/>
       <use xlink:href="#DejaVuSans-62" x="245.3125"/>
       <use xlink:href="#DejaVuSans-70" x="308.789062"/>
      </g>
     </g>
    </g>
    <g id="xtick_4">
     <g id="line2d_4">
      <g>
       <use xlink:href="#m2fcae5f71a" x="545.890156" y="50.91875" style="stroke: #000000; stroke-width: 0.8"/>
      </g>
     </g>
     <g id="text_4">
      <!-- 115 Mbp -->
      <g transform="translate(532.812969 62.477812) scale(0.06 -0.06)">
       <defs>
        <path id="DejaVuSans-31" d="M 794 531 
L 1825 531 
L 1825 4091 
L 703 3866 
L 703 4441 
L 1819 4666 
L 2450 4666 
L 2450 531 
L 3481 531 
L 3481 0 
L 794 0 
L 794 531 
z
" transform="scale(0.015625)"/>
        <path id="DejaVuSans-35" d="M 691 4666 
L 3169 4666 
L 3169 4134 
L 1269 4134 
L 1269 2991 
Q 1406 3038 1543 3061 
Q 1681 3084 1819 3084 
Q 2600 3084 3056 2656 
Q 3513 2228 3513 1497 
Q 3513 744 3044 326 
Q 2575 -91 1722 -91 
Q 1428 -91 1123 -41 
Q 819 9 494 109 
L 494 744 
Q 775 591 1075 516 
Q 1375 441 1709 441 
Q 2250 441 2565 725 
Q 2881 1009 2881 1497 
Q 2881 1984 2565 2268 
Q 2250 2553 1709 2553 
Q 1456 2553 1204 2497 
Q 953 2441 691 2322 
L 691 4666 
z
" transform="scale(0.015625)"/>
       </defs>
       <use xlink:href="#DejaVuSans-31"/>
       <use xlink:href="#DejaVuSans-31" x="63.623047"/>
       <use xlink:href="#DejaVuSans-35" x="127.246094"/>
       <use xlink:href="#DejaVuSans-20" x="190.869141"/>
       <use xlink:href="#DejaVuSans-4d" x="222.65625"/>
       <use xlink:href="#DejaVuSans-62" x="308.935547"/>
       <use xlink:href="#DejaVuSans-70" x="372.412109"/>
      </g>
     </g>
    </g>
    <g id="xtick_5">
     <g id="line2d_5">
      <g>
       <use xlink:href="#m2fcae5f71a" x="698.606406" y="50.91875" style="stroke: #000000; stroke-width: 0.8"/>
      </g>
     </g>
     <g id="text_5">
      <!-- 153 Mbp -->
      <g transform="translate(685.529219 62.477812) scale(0.06 -0.06)">
       <use xlink:href="#DejaVuSans-31"/>
       <use xlink:href="#DejaVuSans-35" x="63.623047"/>
       <use xlink:href="#DejaVuSans-33" x="127.246094"/>
       <use xlink:href="#DejaVuSans-20" x="190.869141"/>
       <use xlink:href="#DejaVuSans-4d" x="222.65625"/>
       <use xlink:href="#DejaVuSans-62" x="308.935547"/>
       <use xlink:href="#DejaVuSans-70" x="372.412109"/>
      </g>
     </g>
    </g>
   </g>
   <g id="matplotlib.axis_2">
    <g id="text_6">
     <!-- Non-lifted high olive -->
     <g transform="translate(7.2 42.452969) scale(0.07 -0.07)">
      <defs>
       <path id="DejaVuSans-4e" d="M 628 4666 
L 1478 4666 
L 3547 763 
L 3547 4666 
L 4159 4666 
L 4159 0 
L 3309 0 
L 1241 3903 
L 1241 0 
L 628 0 
L 628 4666 
z
" transform="scale(0.015625)"/>
       <path id="DejaVuSans-6f" d="M 1959 3097 
Q 1497 3097 1228 2736 
Q 959 2375 959 1747 
Q 959 1119 1226 758 
Q 1494 397 1959 397 
Q 2419 397 2687 759 
Q 2956 1122 2956 1747 
Q 2956 2369 2687 2733 
Q 2419 3097 1959 3097 
z
M 1959 3584 
Q 2709 3584 3137 3096 
Q 3566 2609 3566 1747 
Q 3566 888 3137 398 
Q 2709 -91 1959 -91 
Q 1206 -91 779 398 
Q 353 888 353 1747 
Q 353 2609 779 3096 
Q 1206 3584 1959 3584 
z
" transform="scale(0.015625)"/>
       <path id="DejaVuSans-6e" d="M 3513 2113 
L 3513 0 
L 2938 0 
L 2938 2094 
Q 2938 2591 2744 2837 
Q 2550 3084 2163 3084 
Q 1697 3084 1428 2787 
Q 1159 2491 1159 1978 
L 1159 0 
L 581 0 
L 581 3500 
L 1159 3500 
L 1159 2956 
Q 1366 3272 1645 3428 
Q 1925 3584 2291 3584 
Q 2894 3584 3203 3211 
Q 3513 2838 3513 2113 
z
" transform="scale(0.015625)"/>
       <path id="DejaVuSans-2d" d="M 313 2009 
L 1997 2009 
L 1997 1497 
L 313 1497 
L 313 2009 
z
" transform="scale(0.015625)"/>
       <path id="DejaVuSans-6c" d="M 603 4863 
L 1178 4863 
L 1178 0 
L 603 0 
L 603 4863 
z
" transform="scale(0.015625)"/>
       <path id="DejaVuSans-69" d="M 603 3500 
L 1178 3500 
L 1178 0 
L 603 0 
L 603 3500 
z
M 603 4863 
L 1178 4863 
L 1178 4134 
L 603 4134 
L 603 4863 
z
" transform="scale(0.015625)"/>
       <path id="DejaVuSans-66" d="M 2375 4863 
L 2375 4384 
L 1825 4384 
Q 1516 4384 1395 4259 
Q 1275 4134 1275 3809 
L 1275 3500 
L 2222 3500 
L 2222 3053 
L 1275 3053 
L 1275 0 
L 697 0 
L 697 3053 
L 147 3053 
L 147 3500 
L 697 3500 
L 697 3744 
Q 697 4328 969 4595 
Q 1241 4863 1831 4863 
L 2375 4863 
z
" transform="scale(0.015625)"/>
       <path id="DejaVuSans-74" d="M 1172 4494 
L 1172 3500 
L 2356 3500 
L 2356 3053 
L 1172 3053 
L 1172 1153 
Q 1172 725 1289 603 
Q 1406 481 1766 481 
L 2356 481 
L 2356 0 
L 1766 0 
Q 1100 0 847 248 
Q 594 497 594 1153 
L 594 3053 
L 172 3053 
L 172 3500 
L 594 3500 
L 594 4494 
L 1172 4494 
z
" transform="scale(0.015625)"/>
       <path id="DejaVuSans-65" d="M 3597 1894 
L 3597 1613 
L 953 1613 
Q 991 1019 1311 708 
Q 1631 397 2203 397 
Q 2534 397 2845 478 
Q 3156 559 3463 722 
L 3463 178 
Q 3153 47 2828 -22 
Q 2503 -91 2169 -91 
Q 1331 -91 842 396 
Q 353 884 353 1716 
Q 353 2575 817 3079 
Q 1281 3584 2069 3584 
Q 2775 3584 3186 3129 
Q 3597 2675 3597 1894 
z
M 3022 2063 
Q 3016 2534 2758 2815 
Q 2500 3097 2075 3097 
Q 1594 3097 1305 2825 
Q 1016 2553 972 2059 
L 3022 2063 
z
" transform="scale(0.015625)"/>
       <path id="DejaVuSans-64" d="M 2906 2969 
L 2906 4863 
L 3481 4863 
L 3481 0 
L 2906 0 
L 2906 525 
Q 2725 213 2448 61 
Q 2172 -91 1784 -91 
Q 1150 -91 751 415 
Q 353 922 353 1747 
Q 353 2572 751 3078 
Q 1150 3584 1784 3584 
Q 2172 3584 2448 3432 
Q 2725 3281 2906 2969 
z
M 947 1747 
Q 947 1113 1208 752 
Q 1469 391 1925 391 
Q 2381 391 2643 752 
Q 2906 1113 2906 1747 
Q 2906 2381 2643 2742 
Q 2381 3103 1925 3103 
Q 1469 3103 1208 2742 
Q 947 2381 947 1747 
z
" transform="scale(0.015625)"/>
       <path id="DejaVuSans-68" d="M 3513 2113 
L 3513 0 
L 2938 0 
L 2938 2094 
Q 2938 2591 2744 2837 
Q 2550 3084 2163 3084 
Q 1697 3084 1428 2787 
Q 1159 2491 1159 1978 
L 1159 0 
L 581 0 
L 581 4863 
L 1159 4863 
L 1159 2956 
Q 1366 3272 1645 3428 
Q 1925 3584 2291 3584 
Q 2894 3584 3203 3211 
Q 3513 2838 3513 2113 
z
" transform="scale(0.015625)"/>
       <path id="DejaVuSans-67" d="M 2906 1791 
Q 2906 2416 2648 2759 
Q 2391 3103 1925 3103 
Q 1463 3103 1205 2759 
Q 947 2416 947 1791 
Q 947 1169 1205 825 
Q 1463 481 1925 481 
Q 2391 481 2648 825 
Q 2906 1169 2906 1791 
z
M 3481 434 
Q 3481 -459 3084 -895 
Q 2688 -1331 1869 -1331 
Q 1566 -1331 1297 -1286 
Q 1028 -1241 775 -1147 
L 775 -588 
Q 1028 -725 1275 -790 
Q 1522 -856 1778 -856 
Q 2344 -856 2625 -561 
Q 2906 -266 2906 331 
L 2906 616 
Q 2728 306 2450 153 
Q 2172 0 1784 0 
Q 1141 0 747 490 
Q 353 981 353 1791 
Q 353 2603 747 3093 
Q 1141 3584 1784 3584 
Q 2172 3584 2450 3431 
Q 2728 3278 2906 2969 
L 2906 3500 
L 3481 3500 
L 3481 434 
z
" transform="scale(0.015625)"/>
       <path id="DejaVuSans-76" d="M 191 3500 
L 800 3500 
L 1894 563 
L 2988 3500 
L 3597 3500 
L 2284 0 
L 1503 0 
L 191 3500 
z
" transform="scale(0.015625)"/>
      </defs>
      <use xlink:href="#DejaVuSans-4e"/>
      <use xlink:href="#DejaVuSans-6f" x="74.804688"/>
      <use xlink:href="#DejaVuSans-6e" x="135.986328"/>
      <use xlink:href="#DejaVuSans-2d" x="199.365234"/>
      <use xlink:href="#DejaVuSans-6c" x="235.449219"/>
      <use xlink:href="#DejaVuSans-69" x="263.232422"/>
      <use xlink:href="#DejaVuSans-66" x="291.015625"/>
      <use xlink:href="#DejaVuSans-74" x="324.470703"/>
      <use xlink:href="#DejaVuSans-65" x="363.679688"/>
      <use xlink:href="#DejaVuSans-64" x="425.203125"/>
      <use xlink:href="#DejaVuSans-20" x="488.679688"/>
      <use xlink:href="#DejaVuSans-68" x="520.466797"/>
      <use xlink:href="#DejaVuSans-69" x="583.845703"/>
      <use xlink:href="#DejaVuSans-67" x="611.628906"/>
      <use xlink:href="#DejaVuSans-68" x="675.105469"/>
      <use xlink:href="#DejaVuSans-20" x="738.484375"/>
      <use xlink:href="#DejaVuSans-6f" x="770.271484"/>
      <use xlink:href="#DejaVuSans-6c" x="831.453125"/>
      <use xlink:href="#DejaVuSans-69" x="859.236328"/>
      <use xlink:href="#DejaVuSans-76" x="887.019531"/>
      <use xlink:href="#DejaVuSans-65" x="946.199219"/>
     </g>
    </g>
   </g>
   <g id="patch_39">
    <path d="M 87.741406 50.91875 
L 698.606406 50.91875 
" style="fill: none; stroke: #000000; stroke-width: 0.8; stroke-linejoin: miter; stroke-linecap: square"/>
   </g>
  </g>
  <g id="axes_2">
   <g id="patch_40">
    <path d="M 87.741406 33.29875 
L 698.606406 33.29875 
L 698.606406 19.27875 
L 87.741406 19.27875 
z
" style="fill: #ffffff"/>
   </g>
   <g id="patch_41">
    <path d="M 87.741406 31.89675 
L 97.697552 31.89675 
L 97.697552 19.27875 
L 87.741406 19.27875 
z
" clip-path="url(#p54c0667058)" style="fill: #1f77b4; opacity: 0.8"/>
   </g>
   <g id="patch_42">
    <path d="M 116.982814 31.89675 
L 119.908085 31.89675 
L 119.908085 19.27875 
L 116.982814 19.27875 
z
" clip-path="url(#p54c0667058)" style="fill: #1f77b4; opacity: 0.8"/>
   </g>
   <g id="patch_43">
    <path d="M 124.404312 31.89675 
L 135.994058 31.89675 
L 135.994058 19.27875 
L 124.404312 19.27875 
z
" clip-path="url(#p54c0667058)" style="fill: #1f77b4; opacity: 0.8"/>
   </g>
   <g id="patch_44">
    <path d="M 149.920631 31.89675 
L 150.311275 31.89675 
L 150.311275 19.27875 
L 149.920631 19.27875 
z
" clip-path="url(#p54c0667058)" style="fill: #1f77b4; opacity: 0.8"/>
   </g>
   <g id="patch_45">
    <path d="M 152.71562 31.89675 
L 154.013233 31.89675 
L 154.013233 19.27875 
L 152.71562 19.27875 
z
" clip-path="url(#p54c0667058)" style="fill: #1f77b4; opacity: 0.8"/>
   </g>
   <g id="patch_46">
    <path d="M 155.596379 31.89675 
L 181.455648 31.89675 
L 181.455648 19.27875 
L 155.596379 19.27875 
z
" clip-path="url(#p54c0667058)" style="fill: #1f77b4; opacity: 0.8"/>
   </g>
   <g id="patch_47">
    <path d="M 182.292231 31.89675 
L 192.379595 31.89675 
L 192.379595 19.27875 
L 182.292231 19.27875 
z
" clip-path="url(#p54c0667058)" style="fill: #1f77b4; opacity: 0.8"/>
   </g>
   <g id="patch_48">
    <path d="M 207.122732 31.89675 
L 208.319397 31.89675 
L 208.319397 19.27875 
L 207.122732 19.27875 
z
" clip-path="url(#p54c0667058)" style="fill: #1f77b4; opacity: 0.8"/>
   </g>
   <g id="patch_49">
    <path d="M 225.434684 31.89675 
L 229.920717 31.89675 
L 229.920717 19.27875 
L 225.434684 19.27875 
z
" clip-path="url(#p54c0667058)" style="fill: #1f77b4; opacity: 0.8"/>
   </g>
   <g id="patch_50">
    <path d="M 241.208883 31.89675 
L 241.60519 31.89675 
L 241.60519 19.27875 
L 241.208883 19.27875 
z
" clip-path="url(#p54c0667058)" style="fill: #1f77b4; opacity: 0.8"/>
   </g>
   <g id="patch_51">
    <path d="M 250.609942 31.89675 
L 251.430548 31.89675 
L 251.430548 19.27875 
L 250.609942 19.27875 
z
" clip-path="url(#p54c0667058)" style="fill: #1f77b4; opacity: 0.8"/>
   </g>
   <g id="patch_52">
    <path d="M 256.279497 31.89675 
L 257.450635 31.89675 
L 257.450635 19.27875 
L 256.279497 19.27875 
z
" clip-path="url(#p54c0667058)" style="fill: #1f77b4; opacity: 0.8"/>
   </g>
   <g id="patch_53">
    <path d="M 342.09024 31.89675 
L 342.534057 31.89675 
L 342.534057 19.27875 
L 342.09024 19.27875 
z
" clip-path="url(#p54c0667058)" style="fill: #1f77b4; opacity: 0.8"/>
   </g>
   <g id="patch_54">
    <path d="M 345.158573 31.89675 
L 350.791207 31.89675 
L 350.791207 19.27875 
L 345.158573 19.27875 
z
" clip-path="url(#p54c0667058)" style="fill: #1f77b4; opacity: 0.8"/>
   </g>
   <g id="patch_55">
    <path d="M 384.976374 31.89675 
L 392.642626 31.89675 
L 392.642626 19.27875 
L 384.976374 19.27875 
z
" clip-path="url(#p54c0667058)" style="fill: #1f77b4; opacity: 0.8"/>
   </g>
   <g id="patch_56">
    <path d="M 396.34875 31.89675 
L 396.744889 31.89675 
L 396.744889 19.27875 
L 396.34875 19.27875 
z
" clip-path="url(#p54c0667058)" style="fill: #1f77b4; opacity: 0.8"/>
   </g>
   <g id="patch_57">
    <path d="M 404.149259 31.89675 
L 404.610909 31.89675 
L 404.610909 19.27875 
L 404.149259 19.27875 
z
" clip-path="url(#p54c0667058)" style="fill: #1f77b4; opacity: 0.8"/>
   </g>
   <g id="patch_58">
    <path d="M 418.781731 31.89675 
L 422.457134 31.89675 
L 422.457134 19.27875 
L 418.781731 19.27875 
z
" clip-path="url(#p54c0667058)" style="fill: #1f77b4; opacity: 0.8"/>
   </g>
   <g id="patch_59">
    <path d="M 438.199779 31.89675 
L 438.588519 31.89675 
L 438.588519 19.27875 
L 438.199779 19.27875 
z
" clip-path="url(#p54c0667058)" style="fill: #1f77b4; opacity: 0.8"/>
   </g>
   <g id="patch_60">
    <path d="M 439.436038 31.89675 
L 439.835355 31.89675 
L 439.835355 19.27875 
L 439.436038 19.27875 
z
" clip-path="url(#p54c0667058)" style="fill: #1f77b4; opacity: 0.8"/>
   </g>
   <g id="patch_61">
    <path d="M 454.43132 31.89675 
L 455.220225 31.89675 
L 455.220225 19.27875 
L 454.43132 19.27875 
z
" clip-path="url(#p54c0667058)" style="fill: #1f77b4; opacity: 0.8"/>
   </g>
   <g id="patch_62">
    <path d="M 460.109019 31.89675 
L 460.917574 31.89675 
L 460.917574 19.27875 
L 460.109019 19.27875 
z
" clip-path="url(#p54c0667058)" style="fill: #1f77b4; opacity: 0.8"/>
   </g>
   <g id="patch_63">
    <path d="M 486.072326 31.89675 
L 510.840278 31.89675 
L 510.840278 19.27875 
L 486.072326 19.27875 
z
" clip-path="url(#p54c0667058)" style="fill: #1f77b4; opacity: 0.8"/>
   </g>
   <g id="patch_64">
    <path d="M 527.757315 31.89675 
L 528.93063 31.89675 
L 528.93063 19.27875 
L 527.757315 19.27875 
z
" clip-path="url(#p54c0667058)" style="fill: #1f77b4; opacity: 0.8"/>
   </g>
   <g id="patch_65">
    <path d="M 536.548026 31.89675 
L 538.125326 31.89675 
L 538.125326 19.27875 
L 536.548026 19.27875 
z
" clip-path="url(#p54c0667058)" style="fill: #1f77b4; opacity: 0.8"/>
   </g>
   <g id="patch_66">
    <path d="M 557.468433 31.89675 
L 565.46826 31.89675 
L 565.46826 19.27875 
L 557.468433 19.27875 
z
" clip-path="url(#p54c0667058)" style="fill: #1f77b4; opacity: 0.8"/>
   </g>
   <g id="patch_67">
    <path d="M 572.695028 31.89675 
L 578.487709 31.89675 
L 578.487709 19.27875 
L 572.695028 19.27875 
z
" clip-path="url(#p54c0667058)" style="fill: #1f77b4; opacity: 0.8"/>
   </g>
   <g id="patch_68">
    <path d="M 579.255678 31.89675 
L 581.060791 31.89675 
L 581.060791 19.27875 
L 579.255678 19.27875 
z
" clip-path="url(#p54c0667058)" style="fill: #1f77b4; opacity: 0.8"/>
   </g>
   <g id="patch_69">
    <path d="M 586.049963 31.89675 
L 587.326715 31.89675 
L 587.326715 19.27875 
L 586.049963 19.27875 
z
" clip-path="url(#p54c0667058)" style="fill: #1f77b4; opacity: 0.8"/>
   </g>
   <g id="patch_70">
    <path d="M 590.52668 31.89675 
L 606.211943 31.89675 
L 606.211943 19.27875 
L 590.52668 19.27875 
z
" clip-path="url(#p54c0667058)" style="fill: #1f77b4; opacity: 0.8"/>
   </g>
   <g id="patch_71">
    <path d="M 616.833609 31.89675 
L 617.241445 31.89675 
L 617.241445 19.27875 
L 616.833609 19.27875 
z
" clip-path="url(#p54c0667058)" style="fill: #1f77b4; opacity: 0.8"/>
   </g>
   <g id="patch_72">
    <path d="M 567.118551 31.89675 
L 570.667634 31.89675 
L 570.667634 19.27875 
L 567.118551 19.27875 
z
" clip-path="url(#p54c0667058)" style="fill: #1f77b4; opacity: 0.8"/>
   </g>
   <g id="patch_73">
    <path d="M 618.431913 31.89675 
L 620.041265 31.89675 
L 620.041265 19.27875 
L 618.431913 19.27875 
z
" clip-path="url(#p54c0667058)" style="fill: #1f77b4; opacity: 0.8"/>
   </g>
   <g id="patch_74">
    <path d="M 670.80909 31.89675 
L 693.043685 31.89675 
L 693.043685 19.27875 
L 670.80909 19.27875 
z
" clip-path="url(#p54c0667058)" style="fill: #1f77b4; opacity: 0.8"/>
   </g>
   <g id="matplotlib.axis_3">
    <g id="text_7">
     <!-- Lifted High olive -->
     <g transform="translate(20.898125 24.832969) scale(0.07 -0.07)">
      <defs>
       <path id="DejaVuSans-4c" d="M 628 4666 
L 1259 4666 
L 1259 531 
L 3531 531 
L 3531 0 
L 628 0 
L 628 4666 
z
" transform="scale(0.015625)"/>
       <path id="DejaVuSans-48" d="M 628 4666 
L 1259 4666 
L 1259 2753 
L 3553 2753 
L 3553 4666 
L 4184 4666 
L 4184 0 
L 3553 0 
L 3553 2222 
L 1259 2222 
L 1259 0 
L 628 0 
L 628 4666 
z
" transform="scale(0.015625)"/>
      </defs>
      <use xlink:href="#DejaVuSans-4c"/>
      <use xlink:href="#DejaVuSans-69" x="55.712891"/>
      <use xlink:href="#DejaVuSans-66" x="83.496094"/>
      <use xlink:href="#DejaVuSans-74" x="116.951172"/>
      <use xlink:href="#DejaVuSans-65" x="156.160156"/>
      <use xlink:href="#DejaVuSans-64" x="217.683594"/>
      <use xlink:href="#DejaVuSans-20" x="281.160156"/>
      <use xlink:href="#DejaVuSans-48" x="312.947266"/>
      <use xlink:href="#DejaVuSans-69" x="388.142578"/>
      <use xlink:href="#DejaVuSans-67" x="415.925781"/>
      <use xlink:href="#DejaVuSans-68" x="479.402344"/>
      <use xlink:href="#DejaVuSans-20" x="542.78125"/>
      <use xlink:href="#DejaVuSans-6f" x="574.568359"/>
      <use xlink:href="#DejaVuSans-6c" x="635.75"/>
      <use xlink:href="#DejaVuSans-69" x="663.533203"/>
      <use xlink:href="#DejaVuSans-76" x="691.316406"/>
      <use xlink:href="#DejaVuSans-65" x="750.496094"/>
     </g>
    </g>
   </g>
   <g id="text_8">
    <!-- chrX -->
    <g transform="translate(87.741406 13.27875) scale(0.08 -0.08)">
     <defs>
      <path id="DejaVuSans-63" d="M 3122 3366 
L 3122 2828 
Q 2878 2963 2633 3030 
Q 2388 3097 2138 3097 
Q 1578 3097 1268 2742 
Q 959 2388 959 1747 
Q 959 1106 1268 751 
Q 1578 397 2138 397 
Q 2388 397 2633 464 
Q 2878 531 3122 666 
L 3122 134 
Q 2881 22 2623 -34 
Q 2366 -91 2075 -91 
Q 1284 -91 818 406 
Q 353 903 353 1747 
Q 353 2603 823 3093 
Q 1294 3584 2113 3584 
Q 2378 3584 2631 3529 
Q 2884 3475 3122 3366 
z
" transform="scale(0.015625)"/>
      <path id="DejaVuSans-72" d="M 2631 2963 
Q 2534 3019 2420 3045 
Q 2306 3072 2169 3072 
Q 1681 3072 1420 2755 
Q 1159 2438 1159 1844 
L 1159 0 
L 581 0 
L 581 3500 
L 1159 3500 
L 1159 2956 
Q 1341 3275 1631 3429 
Q 1922 3584 2338 3584 
Q 2397 3584 2469 3576 
Q 2541 3569 2628 3553 
L 2631 2963 
z
" transform="scale(0.015625)"/>
      <path id="DejaVuSans-58" d="M 403 4666 
L 1081 4666 
L 2241 2931 
L 3406 4666 
L 4084 4666 
L 2584 2425 
L 4184 0 
L 3506 0 
L 2194 1984 
L 872 0 
L 191 0 
L 1856 2491 
L 403 4666 
z
" transform="scale(0.015625)"/>
     </defs>
     <use xlink:href="#DejaVuSans-63"/>
     <use xlink:href="#DejaVuSans-68" x="54.980469"/>
     <use xlink:href="#DejaVuSans-72" x="118.359375"/>
     <use xlink:href="#DejaVuSans-58" x="159.472656"/>
    </g>
   </g>
  </g>
 </g>
 <defs>
  <clipPath id="p5f419ae922">
   <rect x="87.741406" y="36.89875" width="610.865" height="14.02"/>
  </clipPath>
  <clipPath id="p54c0667058">
   <rect x="87.741406" y="19.27875" width="610.865" height="14.02"/>
  </clipPath>
 </defs>
</svg>
