<?xml version="1.0" encoding="utf-8" standalone="no"?>
<!DOCTYPE svg PUBLIC "-//W3C//DTD SVG 1.1//EN"
  "http://www.w3.org/Graphics/SVG/1.1/DTD/svg11.dtd">
<svg xmlns:xlink="http://www.w3.org/1999/xlink" width="719.345pt" height="70.925625pt" viewBox="0 0 719.345 70.925625" xmlns="http://www.w3.org/2000/svg" version="1.1">
 <metadata>
  <rdf:RDF xmlns:dc="http://purl.org/dc/elements/1.1/" xmlns:cc="http://creativecommons.org/ns#" xmlns:rdf="http://www.w3.org/1999/02/22-rdf-syntax-ns#">
   <cc:Work>
    <dc:type rdf:resource="http://purl.org/dc/dcmitype/StillImage"/>
    <dc:date>2025-01-13T22:59:51.145157</dc:date>
    <dc:format>image/svg+xml</dc:format>
    <dc:creator>
     <cc:Agent>
      <dc:title>Matplotlib v3.8.4, https://matplotlib.org/</dc:title>
     </cc:Agent>
    </dc:creator>
   </cc:Work>
  </rdf:RDF>
 </metadata>
 <defs>
  <style type="text/css">*{stroke-linejoin: round; stroke-linecap: butt}</style>
 </defs>
 <g id="figure_1">
  <g id="patch_1">
   <path d="M 0 70.925625 
L 719.345 70.925625 
L 719.345 0 
L 0 0 
z
" style="fill: #ffffff"/>
  </g>
  <g id="axes_1">
   <g id="patch_2">
    <path d="M 40.682813 39.172083 
L 699.067812 39.172083 
L 699.067812 31.025417 
L 40.682813 31.025417 
z
" style="fill: #ffffff"/>
   </g>
   <g id="patch_3">
    <path d="M 51.41346 38.357417 
L 52.271912 38.357417 
L 52.271912 31.025417 
L 51.41346 31.025417 
z
" clip-path="url(#p7c15a75fd4)" style="fill: #d62728; opacity: 0.8"/>
   </g>
   <g id="patch_4">
    <path d="M 93.536472 38.357417 
L 96.942276 38.357417 
L 96.942276 31.025417 
L 93.536472 31.025417 
z
" clip-path="url(#p7c15a75fd4)" style="fill: #d62728; opacity: 0.8"/>
   </g>
   <g id="patch_5">
    <path d="M 162.815422 38.357417 
L 165.427373 38.357417 
L 165.427373 31.025417 
L 162.815422 31.025417 
z
" clip-path="url(#p7c15a75fd4)" style="fill: #d62728; opacity: 0.8"/>
   </g>
   <g id="patch_6">
    <path d="M 165.884043 38.357417 
L 166.308029 38.357417 
L 166.308029 31.025417 
L 165.884043 31.025417 
z
" clip-path="url(#p7c15a75fd4)" style="fill: #d62728; opacity: 0.8"/>
   </g>
   <g id="patch_7">
    <path d="M 214.118056 38.357417 
L 215.388423 38.357417 
L 215.388423 31.025417 
L 214.118056 31.025417 
z
" clip-path="url(#p7c15a75fd4)" style="fill: #d62728; opacity: 0.8"/>
   </g>
   <g id="patch_8">
    <path d="M 227.119931 38.357417 
L 229.337775 38.357417 
L 229.337775 31.025417 
L 227.119931 31.025417 
z
" clip-path="url(#p7c15a75fd4)" style="fill: #d62728; opacity: 0.8"/>
   </g>
   <g id="patch_9">
    <path d="M 247.49301 38.357417 
L 251.985018 38.357417 
L 251.985018 31.025417 
L 247.49301 31.025417 
z
" clip-path="url(#p7c15a75fd4)" style="fill: #d62728; opacity: 0.8"/>
   </g>
   <g id="patch_10">
    <path d="M 267.796155 38.357417 
L 269.469003 38.357417 
L 269.469003 31.025417 
L 267.796155 31.025417 
z
" clip-path="url(#p7c15a75fd4)" style="fill: #d62728; opacity: 0.8"/>
   </g>
   <g id="patch_11">
    <path d="M 270.356663 38.357417 
L 270.962778 38.357417 
L 270.962778 31.025417 
L 270.356663 31.025417 
z
" clip-path="url(#p7c15a75fd4)" style="fill: #d62728; opacity: 0.8"/>
   </g>
   <g id="patch_12">
    <path d="M 282.180043 38.357417 
L 285.157648 38.357417 
L 285.157648 31.025417 
L 282.180043 31.025417 
z
" clip-path="url(#p7c15a75fd4)" style="fill: #d62728; opacity: 0.8"/>
   </g>
   <g id="patch_13">
    <path d="M 334.625671 38.357417 
L 335.489145 38.357417 
L 335.489145 31.025417 
L 334.625671 31.025417 
z
" clip-path="url(#p7c15a75fd4)" style="fill: #d62728; opacity: 0.8"/>
   </g>
   <g id="patch_14">
    <path d="M 337.17799 38.357417 
L 338.001898 38.357417 
L 338.001898 31.025417 
L 337.17799 31.025417 
z
" clip-path="url(#p7c15a75fd4)" style="fill: #d62728; opacity: 0.8"/>
   </g>
   <g id="patch_15">
    <path d="M 376.316594 38.357417 
L 377.200958 38.357417 
L 377.200958 31.025417 
L 376.316594 31.025417 
z
" clip-path="url(#p7c15a75fd4)" style="fill: #d62728; opacity: 0.8"/>
   </g>
   <g id="patch_16">
    <path d="M 409.532666 38.357417 
L 412.375081 38.357417 
L 412.375081 31.025417 
L 409.532666 31.025417 
z
" clip-path="url(#p7c15a75fd4)" style="fill: #d62728; opacity: 0.8"/>
   </g>
   <g id="patch_17">
    <path d="M 445.481014 38.357417 
L 453.154869 38.357417 
L 453.154869 31.025417 
L 445.481014 31.025417 
z
" clip-path="url(#p7c15a75fd4)" style="fill: #d62728; opacity: 0.8"/>
   </g>
   <g id="patch_18">
    <path d="M 622.227619 38.357417 
L 622.640861 38.357417 
L 622.640861 31.025417 
L 622.227619 31.025417 
z
" clip-path="url(#p7c15a75fd4)" style="fill: #d62728; opacity: 0.8"/>
   </g>
   <g id="patch_19">
    <path d="M 642.181503 38.357417 
L 645.811419 38.357417 
L 645.811419 31.025417 
L 642.181503 31.025417 
z
" clip-path="url(#p7c15a75fd4)" style="fill: #d62728; opacity: 0.8"/>
   </g>
   <g id="matplotlib.axis_1">
    <g id="text_1">
     <!-- Olive -->
     <g transform="translate(12.832813 37.030312) scale(0.07 -0.07)">
      <defs>
       <path id="DejaVuSans-4f" d="M 2522 4238 
Q 1834 4238 1429 3725 
Q 1025 3213 1025 2328 
Q 1025 1447 1429 934 
Q 1834 422 2522 422 
Q 3209 422 3611 934 
Q 4013 1447 4013 2328 
Q 4013 3213 3611 3725 
Q 3209 4238 2522 4238 
z
M 2522 4750 
Q 3503 4750 4090 4092 
Q 4678 3434 4678 2328 
Q 4678 1225 4090 567 
Q 3503 -91 2522 -91 
Q 1538 -91 948 565 
Q 359 1222 359 2328 
Q 359 3434 948 4092 
Q 1538 4750 2522 4750 
z
" transform="scale(0.015625)"/>
       <path id="DejaVuSans-6c" d="M 603 4863 
L 1178 4863 
L 1178 0 
L 603 0 
L 603 4863 
z
" transform="scale(0.015625)"/>
       <path id="DejaVuSans-69" d="M 603 3500 
L 1178 3500 
L 1178 0 
L 603 0 
L 603 3500 
z
M 603 4863 
L 1178 4863 
L 1178 4134 
L 603 4134 
L 603 4863 
z
" transform="scale(0.015625)"/>
       <path id="DejaVuSans-76" d="M 191 3500 
L 800 3500 
L 1894 563 
L 2988 3500 
L 3597 3500 
L 2284 0 
L 1503 0 
L 191 3500 
z
" transform="scale(0.015625)"/>
       <path id="DejaVuSans-65" d="M 3597 1894 
L 3597 1613 
L 953 1613 
Q 991 1019 1311 708 
Q 1631 397 2203 397 
Q 2534 397 2845 478 
Q 3156 559 3463 722 
L 3463 178 
Q 3153 47 2828 -22 
Q 2503 -91 2169 -91 
Q 1331 -91 842 396 
Q 353 884 353 1716 
Q 353 2575 817 3079 
Q 1281 3584 2069 3584 
Q 2775 3584 3186 3129 
Q 3597 2675 3597 1894 
z
M 3022 2063 
Q 3016 2534 2758 2815 
Q 2500 3097 2075 3097 
Q 1594 3097 1305 2825 
Q 1016 2553 972 2059 
L 3022 2063 
z
" transform="scale(0.015625)"/>
      </defs>
      <use xlink:href="#DejaVuSans-4f"/>
      <use xlink:href="#DejaVuSans-6c" x="78.710938"/>
      <use xlink:href="#DejaVuSans-69" x="106.494141"/>
      <use xlink:href="#DejaVuSans-76" x="134.277344"/>
      <use xlink:href="#DejaVuSans-65" x="193.457031"/>
     </g>
    </g>
   </g>
  </g>
  <g id="axes_2">
   <g id="patch_20">
    <path d="M 40.682813 27.425417 
L 699.067812 27.425417 
L 699.067812 19.27875 
L 40.682813 19.27875 
z
" style="fill: #ffffff"/>
   </g>
   <g id="patch_21">
    <path d="M 40.682813 26.61075 
L 51.41346 26.61075 
L 51.41346 19.27875 
L 40.682813 19.27875 
z
" clip-path="url(#pee6d5c1e2c)" style="fill: #1f77b4; opacity: 0.8"/>
   </g>
   <g id="patch_22">
    <path d="M 72.198948 26.61075 
L 75.35178 26.61075 
L 75.35178 19.27875 
L 72.198948 19.27875 
z
" clip-path="url(#pee6d5c1e2c)" style="fill: #1f77b4; opacity: 0.8"/>
   </g>
   <g id="patch_23">
    <path d="M 80.197774 26.61075 
L 92.689102 26.61075 
L 92.689102 19.27875 
L 80.197774 19.27875 
z
" clip-path="url(#pee6d5c1e2c)" style="fill: #1f77b4; opacity: 0.8"/>
   </g>
   <g id="patch_24">
    <path d="M 107.699042 26.61075 
L 108.120074 26.61075 
L 108.120074 19.27875 
L 107.699042 19.27875 
z
" clip-path="url(#pee6d5c1e2c)" style="fill: #1f77b4; opacity: 0.8"/>
   </g>
   <g id="patch_25">
    <path d="M 110.711457 26.61075 
L 112.110012 26.61075 
L 112.110012 19.27875 
L 110.711457 19.27875 
z
" clip-path="url(#pee6d5c1e2c)" style="fill: #1f77b4; opacity: 0.8"/>
   </g>
   <g id="patch_26">
    <path d="M 113.816314 26.61075 
L 141.68721 26.61075 
L 141.68721 19.27875 
L 113.816314 19.27875 
z
" clip-path="url(#pee6d5c1e2c)" style="fill: #1f77b4; opacity: 0.8"/>
   </g>
   <g id="patch_27">
    <path d="M 142.588872 26.61075 
L 153.460945 26.61075 
L 153.460945 19.27875 
L 142.588872 19.27875 
z
" clip-path="url(#pee6d5c1e2c)" style="fill: #1f77b4; opacity: 0.8"/>
   </g>
   <g id="patch_28">
    <path d="M 169.35097 26.61075 
L 170.640725 26.61075 
L 170.640725 19.27875 
L 169.35097 19.27875 
z
" clip-path="url(#pee6d5c1e2c)" style="fill: #1f77b4; opacity: 0.8"/>
   </g>
   <g id="patch_29">
    <path d="M 189.087434 26.61075 
L 193.92244 26.61075 
L 193.92244 19.27875 
L 189.087434 19.27875 
z
" clip-path="url(#pee6d5c1e2c)" style="fill: #1f77b4; opacity: 0.8"/>
   </g>
   <g id="patch_30">
    <path d="M 206.088728 26.61075 
L 206.515864 26.61075 
L 206.515864 19.27875 
L 206.088728 19.27875 
z
" clip-path="url(#pee6d5c1e2c)" style="fill: #1f77b4; opacity: 0.8"/>
   </g>
   <g id="patch_31">
    <path d="M 216.221108 26.61075 
L 217.10555 26.61075 
L 217.10555 19.27875 
L 216.221108 19.27875 
z
" clip-path="url(#pee6d5c1e2c)" style="fill: #1f77b4; opacity: 0.8"/>
   </g>
   <g id="patch_32">
    <path d="M 222.331706 26.61075 
L 223.593947 26.61075 
L 223.593947 19.27875 
L 222.331706 19.27875 
z
" clip-path="url(#pee6d5c1e2c)" style="fill: #1f77b4; opacity: 0.8"/>
   </g>
   <g id="patch_33">
    <path d="M 314.81778 26.61075 
L 315.296122 26.61075 
L 315.296122 19.27875 
L 314.81778 19.27875 
z
" clip-path="url(#pee6d5c1e2c)" style="fill: #1f77b4; opacity: 0.8"/>
   </g>
   <g id="patch_34">
    <path d="M 318.124803 26.61075 
L 324.195606 26.61075 
L 324.195606 19.27875 
L 318.124803 19.27875 
z
" clip-path="url(#pee6d5c1e2c)" style="fill: #1f77b4; opacity: 0.8"/>
   </g>
   <g id="patch_35">
    <path d="M 361.040084 26.61075 
L 369.302704 26.61075 
L 369.302704 19.27875 
L 361.040084 19.27875 
z
" clip-path="url(#pee6d5c1e2c)" style="fill: #1f77b4; opacity: 0.8"/>
   </g>
   <g id="patch_36">
    <path d="M 373.297131 26.61075 
L 373.724087 26.61075 
L 373.724087 19.27875 
L 373.297131 19.27875 
z
" clip-path="url(#pee6d5c1e2c)" style="fill: #1f77b4; opacity: 0.8"/>
   </g>
   <g id="patch_37">
    <path d="M 381.704452 26.61075 
L 382.202015 26.61075 
L 382.202015 19.27875 
L 381.704452 19.27875 
z
" clip-path="url(#pee6d5c1e2c)" style="fill: #1f77b4; opacity: 0.8"/>
   </g>
   <g id="patch_38">
    <path d="M 397.475204 26.61075 
L 401.436521 26.61075 
L 401.436521 19.27875 
L 397.475204 19.27875 
z
" clip-path="url(#pee6d5c1e2c)" style="fill: #1f77b4; opacity: 0.8"/>
   </g>
   <g id="patch_39">
    <path d="M 418.403808 26.61075 
L 418.822788 26.61075 
L 418.822788 19.27875 
L 418.403808 19.27875 
z
" clip-path="url(#pee6d5c1e2c)" style="fill: #1f77b4; opacity: 0.8"/>
   </g>
   <g id="patch_40">
    <path d="M 419.736237 26.61075 
L 420.166617 26.61075 
L 420.166617 19.27875 
L 419.736237 19.27875 
z
" clip-path="url(#pee6d5c1e2c)" style="fill: #1f77b4; opacity: 0.8"/>
   </g>
   <g id="patch_41">
    <path d="M 435.898022 26.61075 
L 436.748297 26.61075 
L 436.748297 19.27875 
L 435.898022 19.27875 
z
" clip-path="url(#pee6d5c1e2c)" style="fill: #1f77b4; opacity: 0.8"/>
   </g>
   <g id="patch_42">
    <path d="M 442.017397 26.61075 
L 442.88885 26.61075 
L 442.88885 19.27875 
L 442.017397 19.27875 
z
" clip-path="url(#pee6d5c1e2c)" style="fill: #1f77b4; opacity: 0.8"/>
   </g>
   <g id="patch_43">
    <path d="M 470.000423 26.61075 
L 496.695107 26.61075 
L 496.695107 19.27875 
L 470.000423 19.27875 
z
" clip-path="url(#pee6d5c1e2c)" style="fill: #1f77b4; opacity: 0.8"/>
   </g>
   <g id="patch_44">
    <path d="M 514.928143 26.61075 
L 516.192733 26.61075 
L 516.192733 19.27875 
L 514.928143 19.27875 
z
" clip-path="url(#pee6d5c1e2c)" style="fill: #1f77b4; opacity: 0.8"/>
   </g>
   <g id="patch_45">
    <path d="M 524.402695 26.61075 
L 526.102696 26.61075 
L 526.102696 19.27875 
L 524.402695 19.27875 
z
" clip-path="url(#pee6d5c1e2c)" style="fill: #1f77b4; opacity: 0.8"/>
   </g>
   <g id="patch_46">
    <path d="M 546.950529 26.61075 
L 555.572673 26.61075 
L 555.572673 19.27875 
L 546.950529 19.27875 
z
" clip-path="url(#pee6d5c1e2c)" style="fill: #1f77b4; opacity: 0.8"/>
   </g>
   <g id="patch_47">
    <path d="M 563.361621 26.61075 
L 569.604922 26.61075 
L 569.604922 19.27875 
L 563.361621 19.27875 
z
" clip-path="url(#pee6d5c1e2c)" style="fill: #1f77b4; opacity: 0.8"/>
   </g>
   <g id="patch_48">
    <path d="M 570.432633 26.61075 
L 572.378168 26.61075 
L 572.378168 19.27875 
L 570.432633 19.27875 
z
" clip-path="url(#pee6d5c1e2c)" style="fill: #1f77b4; opacity: 0.8"/>
   </g>
   <g id="patch_49">
    <path d="M 577.755454 26.61075 
L 579.131527 26.61075 
L 579.131527 19.27875 
L 577.755454 19.27875 
z
" clip-path="url(#pee6d5c1e2c)" style="fill: #1f77b4; opacity: 0.8"/>
   </g>
   <g id="patch_50">
    <path d="M 582.580421 26.61075 
L 599.485861 26.61075 
L 599.485861 19.27875 
L 582.580421 19.27875 
z
" clip-path="url(#pee6d5c1e2c)" style="fill: #1f77b4; opacity: 0.8"/>
   </g>
   <g id="patch_51">
    <path d="M 610.933801 26.61075 
L 611.373363 26.61075 
L 611.373363 19.27875 
L 610.933801 19.27875 
z
" clip-path="url(#pee6d5c1e2c)" style="fill: #1f77b4; opacity: 0.8"/>
   </g>
   <g id="patch_52">
    <path d="M 557.351342 26.61075 
L 561.176513 26.61075 
L 561.176513 19.27875 
L 557.351342 19.27875 
z
" clip-path="url(#pee6d5c1e2c)" style="fill: #1f77b4; opacity: 0.8"/>
   </g>
   <g id="patch_53">
    <path d="M 612.656439 26.61075 
L 614.390984 26.61075 
L 614.390984 19.27875 
L 612.656439 19.27875 
z
" clip-path="url(#pee6d5c1e2c)" style="fill: #1f77b4; opacity: 0.8"/>
   </g>
   <g id="patch_54">
    <path d="M 669.108106 26.61075 
L 693.072359 26.61075 
L 693.072359 19.27875 
L 669.108106 19.27875 
z
" clip-path="url(#pee6d5c1e2c)" style="fill: #1f77b4; opacity: 0.8"/>
   </g>
   <g id="matplotlib.axis_2">
    <g id="text_2">
     <!-- Hama -->
     <g transform="translate(10.020781 25.283646) scale(0.07 -0.07)">
      <defs>
       <path id="DejaVuSans-48" d="M 628 4666 
L 1259 4666 
L 1259 2753 
L 3553 2753 
L 3553 4666 
L 4184 4666 
L 4184 0 
L 3553 0 
L 3553 2222 
L 1259 2222 
L 1259 0 
L 628 0 
L 628 4666 
z
" transform="scale(0.015625)"/>
       <path id="DejaVuSans-61" d="M 2194 1759 
Q 1497 1759 1228 1600 
Q 959 1441 959 1056 
Q 959 750 1161 570 
Q 1363 391 1709 391 
Q 2188 391 2477 730 
Q 2766 1069 2766 1631 
L 2766 1759 
L 2194 1759 
z
M 3341 1997 
L 3341 0 
L 2766 0 
L 2766 531 
Q 2569 213 2275 61 
Q 1981 -91 1556 -91 
Q 1019 -91 701 211 
Q 384 513 384 1019 
Q 384 1609 779 1909 
Q 1175 2209 1959 2209 
L 2766 2209 
L 2766 2266 
Q 2766 2663 2505 2880 
Q 2244 3097 1772 3097 
Q 1472 3097 1187 3025 
Q 903 2953 641 2809 
L 641 3341 
Q 956 3463 1253 3523 
Q 1550 3584 1831 3584 
Q 2591 3584 2966 3190 
Q 3341 2797 3341 1997 
z
" transform="scale(0.015625)"/>
       <path id="DejaVuSans-6d" d="M 3328 2828 
Q 3544 3216 3844 3400 
Q 4144 3584 4550 3584 
Q 5097 3584 5394 3201 
Q 5691 2819 5691 2113 
L 5691 0 
L 5113 0 
L 5113 2094 
Q 5113 2597 4934 2840 
Q 4756 3084 4391 3084 
Q 3944 3084 3684 2787 
Q 3425 2491 3425 1978 
L 3425 0 
L 2847 0 
L 2847 2094 
Q 2847 2600 2669 2842 
Q 2491 3084 2119 3084 
Q 1678 3084 1418 2786 
Q 1159 2488 1159 1978 
L 1159 0 
L 581 0 
L 581 3500 
L 1159 3500 
L 1159 2956 
Q 1356 3278 1631 3431 
Q 1906 3584 2284 3584 
Q 2666 3584 2933 3390 
Q 3200 3197 3328 2828 
z
" transform="scale(0.015625)"/>
      </defs>
      <use xlink:href="#DejaVuSans-48"/>
      <use xlink:href="#DejaVuSans-61" x="75.195312"/>
      <use xlink:href="#DejaVuSans-6d" x="136.474609"/>
      <use xlink:href="#DejaVuSans-61" x="233.886719"/>
     </g>
    </g>
   </g>
   <g id="text_3">
    <!-- Edges -->
    <g transform="translate(40.682813 13.27875) scale(0.08 -0.08)">
     <defs>
      <path id="DejaVuSans-45" d="M 628 4666 
L 3578 4666 
L 3578 4134 
L 1259 4134 
L 1259 2753 
L 3481 2753 
L 3481 2222 
L 1259 2222 
L 1259 531 
L 3634 531 
L 3634 0 
L 628 0 
L 628 4666 
z
" transform="scale(0.015625)"/>
      <path id="DejaVuSans-64" d="M 2906 2969 
L 2906 4863 
L 3481 4863 
L 3481 0 
L 2906 0 
L 2906 525 
Q 2725 213 2448 61 
Q 2172 -91 1784 -91 
Q 1150 -91 751 415 
Q 353 922 353 1747 
Q 353 2572 751 3078 
Q 1150 3584 1784 3584 
Q 2172 3584 2448 3432 
Q 2725 3281 2906 2969 
z
M 947 1747 
Q 947 1113 1208 752 
Q 1469 391 1925 391 
Q 2381 391 2643 752 
Q 2906 1113 2906 1747 
Q 2906 2381 2643 2742 
Q 2381 3103 1925 3103 
Q 1469 3103 1208 2742 
Q 947 2381 947 1747 
z
" transform="scale(0.015625)"/>
      <path id="DejaVuSans-67" d="M 2906 1791 
Q 2906 2416 2648 2759 
Q 2391 3103 1925 3103 
Q 1463 3103 1205 2759 
Q 947 2416 947 1791 
Q 947 1169 1205 825 
Q 1463 481 1925 481 
Q 2391 481 2648 825 
Q 2906 1169 2906 1791 
z
M 3481 434 
Q 3481 -459 3084 -895 
Q 2688 -1331 1869 -1331 
Q 1566 -1331 1297 -1286 
Q 1028 -1241 775 -1147 
L 775 -588 
Q 1028 -725 1275 -790 
Q 1522 -856 1778 -856 
Q 2344 -856 2625 -561 
Q 2906 -266 2906 331 
L 2906 616 
Q 2728 306 2450 153 
Q 2172 0 1784 0 
Q 1141 0 747 490 
Q 353 981 353 1791 
Q 353 2603 747 3093 
Q 1141 3584 1784 3584 
Q 2172 3584 2450 3431 
Q 2728 3278 2906 2969 
L 2906 3500 
L 3481 3500 
L 3481 434 
z
" transform="scale(0.015625)"/>
      <path id="DejaVuSans-73" d="M 2834 3397 
L 2834 2853 
Q 2591 2978 2328 3040 
Q 2066 3103 1784 3103 
Q 1356 3103 1142 2972 
Q 928 2841 928 2578 
Q 928 2378 1081 2264 
Q 1234 2150 1697 2047 
L 1894 2003 
Q 2506 1872 2764 1633 
Q 3022 1394 3022 966 
Q 3022 478 2636 193 
Q 2250 -91 1575 -91 
Q 1294 -91 989 -36 
Q 684 19 347 128 
L 347 722 
Q 666 556 975 473 
Q 1284 391 1588 391 
Q 1994 391 2212 530 
Q 2431 669 2431 922 
Q 2431 1156 2273 1281 
Q 2116 1406 1581 1522 
L 1381 1569 
Q 847 1681 609 1914 
Q 372 2147 372 2553 
Q 372 3047 722 3315 
Q 1072 3584 1716 3584 
Q 2034 3584 2315 3537 
Q 2597 3491 2834 3397 
z
" transform="scale(0.015625)"/>
     </defs>
     <use xlink:href="#DejaVuSans-45"/>
     <use xlink:href="#DejaVuSans-64" x="63.183594"/>
     <use xlink:href="#DejaVuSans-67" x="126.660156"/>
     <use xlink:href="#DejaVuSans-65" x="190.136719"/>
     <use xlink:href="#DejaVuSans-73" x="251.660156"/>
    </g>
   </g>
  </g>
  <g id="axes_3">
   <g id="patch_55">
    <path d="M 40.682813 50.91875 
L 699.067812 50.91875 
L 699.067812 42.772083 
L 40.682813 42.772083 
z
" style="fill: #ffffff"/>
   </g>
   <g id="patch_56">
    <path d="M 124.539704 50.104083 
L 124.969835 50.104083 
L 124.969835 42.772083 
L 124.539704 42.772083 
z
" clip-path="url(#pab5df96319)" style="fill: #2ca02c; opacity: 0.8"/>
   </g>
   <g id="patch_57">
    <path d="M 130.542063 50.104083 
L 131.018229 50.104083 
L 131.018229 42.772083 
L 130.542063 42.772083 
z
" clip-path="url(#pab5df96319)" style="fill: #2ca02c; opacity: 0.8"/>
   </g>
   <g id="patch_58">
    <path d="M 196.161922 50.104083 
L 197.019086 50.104083 
L 197.019086 42.772083 
L 196.161922 42.772083 
z
" clip-path="url(#pab5df96319)" style="fill: #2ca02c; opacity: 0.8"/>
   </g>
   <g id="patch_59">
    <path d="M 200.509092 50.104083 
L 202.209226 50.104083 
L 202.209226 42.772083 
L 200.509092 42.772083 
z
" clip-path="url(#pab5df96319)" style="fill: #2ca02c; opacity: 0.8"/>
   </g>
   <g id="patch_60">
    <path d="M 253.220553 50.104083 
L 255.356398 50.104083 
L 255.356398 42.772083 
L 253.220553 42.772083 
z
" clip-path="url(#pab5df96319)" style="fill: #2ca02c; opacity: 0.8"/>
   </g>
   <g id="patch_61">
    <path d="M 258.821363 50.104083 
L 261.495904 50.104083 
L 261.495904 42.772083 
L 258.821363 42.772083 
z
" clip-path="url(#pab5df96319)" style="fill: #2ca02c; opacity: 0.8"/>
   </g>
   <g id="patch_62">
    <path d="M 272.048432 50.104083 
L 272.923288 50.104083 
L 272.923288 42.772083 
L 272.048432 42.772083 
z
" clip-path="url(#pab5df96319)" style="fill: #2ca02c; opacity: 0.8"/>
   </g>
   <g id="patch_63">
    <path d="M 307.217241 50.104083 
L 308.062005 50.104083 
L 308.062005 42.772083 
L 307.217241 42.772083 
z
" clip-path="url(#pab5df96319)" style="fill: #2ca02c; opacity: 0.8"/>
   </g>
   <g id="patch_64">
    <path d="M 344.961036 50.104083 
L 346.075642 50.104083 
L 346.075642 42.772083 
L 344.961036 42.772083 
z
" clip-path="url(#pab5df96319)" style="fill: #2ca02c; opacity: 0.8"/>
   </g>
   <g id="patch_65">
    <path d="M 348.818794 50.104083 
L 350.344731 50.104083 
L 350.344731 42.772083 
L 348.818794 42.772083 
z
" clip-path="url(#pab5df96319)" style="fill: #2ca02c; opacity: 0.8"/>
   </g>
   <g id="patch_66">
    <path d="M 359.776211 50.104083 
L 361.038513 50.104083 
L 361.038513 42.772083 
L 359.776211 42.772083 
z
" clip-path="url(#pab5df96319)" style="fill: #2ca02c; opacity: 0.8"/>
   </g>
   <g id="patch_67">
    <path d="M 453.816825 50.104083 
L 454.196999 50.104083 
L 454.196999 42.772083 
L 453.816825 42.772083 
z
" clip-path="url(#pab5df96319)" style="fill: #2ca02c; opacity: 0.8"/>
   </g>
   <g id="patch_68">
    <path d="M 505.011226 50.104083 
L 506.648165 50.104083 
L 506.648165 42.772083 
L 505.011226 42.772083 
z
" clip-path="url(#pab5df96319)" style="fill: #2ca02c; opacity: 0.8"/>
   </g>
   <g id="patch_69">
    <path d="M 518.423613 50.104083 
L 519.684073 50.104083 
L 519.684073 42.772083 
L 518.423613 42.772083 
z
" clip-path="url(#pab5df96319)" style="fill: #2ca02c; opacity: 0.8"/>
   </g>
   <g id="patch_70">
    <path d="M 573.258755 50.104083 
L 573.683384 50.104083 
L 573.683384 42.772083 
L 573.258755 42.772083 
z
" clip-path="url(#pab5df96319)" style="fill: #2ca02c; opacity: 0.8"/>
   </g>
   <g id="patch_71">
    <path d="M 585.106888 50.104083 
L 586.847158 50.104083 
L 586.847158 42.772083 
L 585.106888 42.772083 
z
" clip-path="url(#pab5df96319)" style="fill: #2ca02c; opacity: 0.8"/>
   </g>
   <g id="patch_72">
    <path d="M 591.825102 50.104083 
L 593.104135 50.104083 
L 593.104135 42.772083 
L 591.825102 42.772083 
z
" clip-path="url(#pab5df96319)" style="fill: #2ca02c; opacity: 0.8"/>
   </g>
   <g id="patch_73">
    <path d="M 597.538699 50.104083 
L 598.823742 50.104083 
L 598.823742 42.772083 
L 597.538699 42.772083 
z
" clip-path="url(#pab5df96319)" style="fill: #2ca02c; opacity: 0.8"/>
   </g>
   <g id="patch_74">
    <path d="M 687.979684 50.104083 
L 689.734226 50.104083 
L 689.734226 42.772083 
L 687.979684 42.772083 
z
" clip-path="url(#pab5df96319)" style="fill: #2ca02c; opacity: 0.8"/>
   </g>
   <g id="matplotlib.axis_3">
    <g id="xtick_1">
     <g id="line2d_1">
      <defs>
       <path id="m447a449b71" d="M 0 0 
L 0 3.5 
" style="stroke: #000000; stroke-width: 0.8"/>
      </defs>
      <g>
       <use xlink:href="#m447a449b71" x="40.682813" y="50.91875" style="stroke: #000000; stroke-width: 0.8"/>
      </g>
     </g>
     <g id="text_4">
      <!-- 0 Mbp -->
      <g transform="translate(31.423125 62.477812) scale(0.06 -0.06)">
       <defs>
        <path id="DejaVuSans-30" d="M 2034 4250 
Q 1547 4250 1301 3770 
Q 1056 3291 1056 2328 
Q 1056 1369 1301 889 
Q 1547 409 2034 409 
Q 2525 409 2770 889 
Q 3016 1369 3016 2328 
Q 3016 3291 2770 3770 
Q 2525 4250 2034 4250 
z
M 2034 4750 
Q 2819 4750 3233 4129 
Q 3647 3509 3647 2328 
Q 3647 1150 3233 529 
Q 2819 -91 2034 -91 
Q 1250 -91 836 529 
Q 422 1150 422 2328 
Q 422 3509 836 4129 
Q 1250 4750 2034 4750 
z
" transform="scale(0.015625)"/>
        <path id="DejaVuSans-20" transform="scale(0.015625)"/>
        <path id="DejaVuSans-4d" d="M 628 4666 
L 1569 4666 
L 2759 1491 
L 3956 4666 
L 4897 4666 
L 4897 0 
L 4281 0 
L 4281 4097 
L 3078 897 
L 2444 897 
L 1241 4097 
L 1241 0 
L 628 0 
L 628 4666 
z
" transform="scale(0.015625)"/>
        <path id="DejaVuSans-62" d="M 3116 1747 
Q 3116 2381 2855 2742 
Q 2594 3103 2138 3103 
Q 1681 3103 1420 2742 
Q 1159 2381 1159 1747 
Q 1159 1113 1420 752 
Q 1681 391 2138 391 
Q 2594 391 2855 752 
Q 3116 1113 3116 1747 
z
M 1159 2969 
Q 1341 3281 1617 3432 
Q 1894 3584 2278 3584 
Q 2916 3584 3314 3078 
Q 3713 2572 3713 1747 
Q 3713 922 3314 415 
Q 2916 -91 2278 -91 
Q 1894 -91 1617 61 
Q 1341 213 1159 525 
L 1159 0 
L 581 0 
L 581 4863 
L 1159 4863 
L 1159 2969 
z
" transform="scale(0.015625)"/>
        <path id="DejaVuSans-70" d="M 1159 525 
L 1159 -1331 
L 581 -1331 
L 581 3500 
L 1159 3500 
L 1159 2969 
Q 1341 3281 1617 3432 
Q 1894 3584 2278 3584 
Q 2916 3584 3314 3078 
Q 3713 2572 3713 1747 
Q 3713 922 3314 415 
Q 2916 -91 2278 -91 
Q 1894 -91 1617 61 
Q 1341 213 1159 525 
z
M 3116 1747 
Q 3116 2381 2855 2742 
Q 2594 3103 2138 3103 
Q 1681 3103 1420 2742 
Q 1159 2381 1159 1747 
Q 1159 1113 1420 752 
Q 1681 391 2138 391 
Q 2594 391 2855 752 
Q 3116 1113 3116 1747 
z
" transform="scale(0.015625)"/>
       </defs>
       <use xlink:href="#DejaVuSans-30"/>
       <use xlink:href="#DejaVuSans-20" x="63.623047"/>
       <use xlink:href="#DejaVuSans-4d" x="95.410156"/>
       <use xlink:href="#DejaVuSans-62" x="181.689453"/>
       <use xlink:href="#DejaVuSans-70" x="245.166016"/>
      </g>
     </g>
    </g>
    <g id="xtick_2">
     <g id="line2d_2">
      <g>
       <use xlink:href="#m447a449b71" x="205.279063" y="50.91875" style="stroke: #000000; stroke-width: 0.8"/>
      </g>
     </g>
     <g id="text_5">
      <!-- 38 Mbp -->
      <g transform="translate(194.110625 62.477812) scale(0.06 -0.06)">
       <defs>
        <path id="DejaVuSans-33" d="M 2597 2516 
Q 3050 2419 3304 2112 
Q 3559 1806 3559 1356 
Q 3559 666 3084 287 
Q 2609 -91 1734 -91 
Q 1441 -91 1130 -33 
Q 819 25 488 141 
L 488 750 
Q 750 597 1062 519 
Q 1375 441 1716 441 
Q 2309 441 2620 675 
Q 2931 909 2931 1356 
Q 2931 1769 2642 2001 
Q 2353 2234 1838 2234 
L 1294 2234 
L 1294 2753 
L 1863 2753 
Q 2328 2753 2575 2939 
Q 2822 3125 2822 3475 
Q 2822 3834 2567 4026 
Q 2313 4219 1838 4219 
Q 1578 4219 1281 4162 
Q 984 4106 628 3988 
L 628 4550 
Q 988 4650 1302 4700 
Q 1616 4750 1894 4750 
Q 2613 4750 3031 4423 
Q 3450 4097 3450 3541 
Q 3450 3153 3228 2886 
Q 3006 2619 2597 2516 
z
" transform="scale(0.015625)"/>
        <path id="DejaVuSans-38" d="M 2034 2216 
Q 1584 2216 1326 1975 
Q 1069 1734 1069 1313 
Q 1069 891 1326 650 
Q 1584 409 2034 409 
Q 2484 409 2743 651 
Q 3003 894 3003 1313 
Q 3003 1734 2745 1975 
Q 2488 2216 2034 2216 
z
M 1403 2484 
Q 997 2584 770 2862 
Q 544 3141 544 3541 
Q 544 4100 942 4425 
Q 1341 4750 2034 4750 
Q 2731 4750 3128 4425 
Q 3525 4100 3525 3541 
Q 3525 3141 3298 2862 
Q 3072 2584 2669 2484 
Q 3125 2378 3379 2068 
Q 3634 1759 3634 1313 
Q 3634 634 3220 271 
Q 2806 -91 2034 -91 
Q 1263 -91 848 271 
Q 434 634 434 1313 
Q 434 1759 690 2068 
Q 947 2378 1403 2484 
z
M 1172 3481 
Q 1172 3119 1398 2916 
Q 1625 2713 2034 2713 
Q 2441 2713 2670 2916 
Q 2900 3119 2900 3481 
Q 2900 3844 2670 4047 
Q 2441 4250 2034 4250 
Q 1625 4250 1398 4047 
Q 1172 3844 1172 3481 
z
" transform="scale(0.015625)"/>
       </defs>
       <use xlink:href="#DejaVuSans-33"/>
       <use xlink:href="#DejaVuSans-38" x="63.623047"/>
       <use xlink:href="#DejaVuSans-20" x="127.246094"/>
       <use xlink:href="#DejaVuSans-4d" x="159.033203"/>
       <use xlink:href="#DejaVuSans-62" x="245.3125"/>
       <use xlink:href="#DejaVuSans-70" x="308.789062"/>
      </g>
     </g>
    </g>
    <g id="xtick_3">
     <g id="line2d_3">
      <g>
       <use xlink:href="#m447a449b71" x="369.875313" y="50.91875" style="stroke: #000000; stroke-width: 0.8"/>
      </g>
     </g>
     <g id="text_6">
      <!-- 76 Mbp -->
      <g transform="translate(358.706875 62.477812) scale(0.06 -0.06)">
       <defs>
        <path id="DejaVuSans-37" d="M 525 4666 
L 3525 4666 
L 3525 4397 
L 1831 0 
L 1172 0 
L 2766 4134 
L 525 4134 
L 525 4666 
z
" transform="scale(0.015625)"/>
        <path id="DejaVuSans-36" d="M 2113 2584 
Q 1688 2584 1439 2293 
Q 1191 2003 1191 1497 
Q 1191 994 1439 701 
Q 1688 409 2113 409 
Q 2538 409 2786 701 
Q 3034 994 3034 1497 
Q 3034 2003 2786 2293 
Q 2538 2584 2113 2584 
z
M 3366 4563 
L 3366 3988 
Q 3128 4100 2886 4159 
Q 2644 4219 2406 4219 
Q 1781 4219 1451 3797 
Q 1122 3375 1075 2522 
Q 1259 2794 1537 2939 
Q 1816 3084 2150 3084 
Q 2853 3084 3261 2657 
Q 3669 2231 3669 1497 
Q 3669 778 3244 343 
Q 2819 -91 2113 -91 
Q 1303 -91 875 529 
Q 447 1150 447 2328 
Q 447 3434 972 4092 
Q 1497 4750 2381 4750 
Q 2619 4750 2861 4703 
Q 3103 4656 3366 4563 
z
" transform="scale(0.015625)"/>
       </defs>
       <use xlink:href="#DejaVuSans-37"/>
       <use xlink:href="#DejaVuSans-36" x="63.623047"/>
       <use xlink:href="#DejaVuSans-20" x="127.246094"/>
       <use xlink:href="#DejaVuSans-4d" x="159.033203"/>
       <use xlink:href="#DejaVuSans-62" x="245.3125"/>
       <use xlink:href="#DejaVuSans-70" x="308.789062"/>
      </g>
     </g>
    </g>
    <g id="xtick_4">
     <g id="line2d_4">
      <g>
       <use xlink:href="#m447a449b71" x="534.471563" y="50.91875" style="stroke: #000000; stroke-width: 0.8"/>
      </g>
     </g>
     <g id="text_7">
      <!-- 115 Mbp -->
      <g transform="translate(521.394375 62.477812) scale(0.06 -0.06)">
       <defs>
        <path id="DejaVuSans-31" d="M 794 531 
L 1825 531 
L 1825 4091 
L 703 3866 
L 703 4441 
L 1819 4666 
L 2450 4666 
L 2450 531 
L 3481 531 
L 3481 0 
L 794 0 
L 794 531 
z
" transform="scale(0.015625)"/>
        <path id="DejaVuSans-35" d="M 691 4666 
L 3169 4666 
L 3169 4134 
L 1269 4134 
L 1269 2991 
Q 1406 3038 1543 3061 
Q 1681 3084 1819 3084 
Q 2600 3084 3056 2656 
Q 3513 2228 3513 1497 
Q 3513 744 3044 326 
Q 2575 -91 1722 -91 
Q 1428 -91 1123 -41 
Q 819 9 494 109 
L 494 744 
Q 775 591 1075 516 
Q 1375 441 1709 441 
Q 2250 441 2565 725 
Q 2881 1009 2881 1497 
Q 2881 1984 2565 2268 
Q 2250 2553 1709 2553 
Q 1456 2553 1204 2497 
Q 953 2441 691 2322 
L 691 4666 
z
" transform="scale(0.015625)"/>
       </defs>
       <use xlink:href="#DejaVuSans-31"/>
       <use xlink:href="#DejaVuSans-31" x="63.623047"/>
       <use xlink:href="#DejaVuSans-35" x="127.246094"/>
       <use xlink:href="#DejaVuSans-20" x="190.869141"/>
       <use xlink:href="#DejaVuSans-4d" x="222.65625"/>
       <use xlink:href="#DejaVuSans-62" x="308.935547"/>
       <use xlink:href="#DejaVuSans-70" x="372.412109"/>
      </g>
     </g>
    </g>
    <g id="xtick_5">
     <g id="line2d_5">
      <g>
       <use xlink:href="#m447a449b71" x="699.067813" y="50.91875" style="stroke: #000000; stroke-width: 0.8"/>
      </g>
     </g>
     <g id="text_8">
      <!-- 153 Mbp -->
      <g transform="translate(685.990625 62.477812) scale(0.06 -0.06)">
       <use xlink:href="#DejaVuSans-31"/>
       <use xlink:href="#DejaVuSans-35" x="63.623047"/>
       <use xlink:href="#DejaVuSans-33" x="127.246094"/>
       <use xlink:href="#DejaVuSans-20" x="190.869141"/>
       <use xlink:href="#DejaVuSans-4d" x="222.65625"/>
       <use xlink:href="#DejaVuSans-62" x="308.935547"/>
       <use xlink:href="#DejaVuSans-70" x="372.412109"/>
      </g>
     </g>
    </g>
   </g>
   <g id="matplotlib.axis_4">
    <g id="text_9">
     <!-- ECH90 -->
     <g transform="translate(7.2 48.776979) scale(0.07 -0.07)">
      <defs>
       <path id="DejaVuSans-43" d="M 4122 4306 
L 4122 3641 
Q 3803 3938 3442 4084 
Q 3081 4231 2675 4231 
Q 1875 4231 1450 3742 
Q 1025 3253 1025 2328 
Q 1025 1406 1450 917 
Q 1875 428 2675 428 
Q 3081 428 3442 575 
Q 3803 722 4122 1019 
L 4122 359 
Q 3791 134 3420 21 
Q 3050 -91 2638 -91 
Q 1578 -91 968 557 
Q 359 1206 359 2328 
Q 359 3453 968 4101 
Q 1578 4750 2638 4750 
Q 3056 4750 3426 4639 
Q 3797 4528 4122 4306 
z
" transform="scale(0.015625)"/>
       <path id="DejaVuSans-39" d="M 703 97 
L 703 672 
Q 941 559 1184 500 
Q 1428 441 1663 441 
Q 2288 441 2617 861 
Q 2947 1281 2994 2138 
Q 2813 1869 2534 1725 
Q 2256 1581 1919 1581 
Q 1219 1581 811 2004 
Q 403 2428 403 3163 
Q 403 3881 828 4315 
Q 1253 4750 1959 4750 
Q 2769 4750 3195 4129 
Q 3622 3509 3622 2328 
Q 3622 1225 3098 567 
Q 2575 -91 1691 -91 
Q 1453 -91 1209 -44 
Q 966 3 703 97 
z
M 1959 2075 
Q 2384 2075 2632 2365 
Q 2881 2656 2881 3163 
Q 2881 3666 2632 3958 
Q 2384 4250 1959 4250 
Q 1534 4250 1286 3958 
Q 1038 3666 1038 3163 
Q 1038 2656 1286 2365 
Q 1534 2075 1959 2075 
z
" transform="scale(0.015625)"/>
      </defs>
      <use xlink:href="#DejaVuSans-45"/>
      <use xlink:href="#DejaVuSans-43" x="63.183594"/>
      <use xlink:href="#DejaVuSans-48" x="133.007812"/>
      <use xlink:href="#DejaVuSans-39" x="208.203125"/>
      <use xlink:href="#DejaVuSans-30" x="271.826172"/>
     </g>
    </g>
   </g>
   <g id="patch_75">
    <path d="M 40.682813 50.91875 
L 699.067813 50.91875 
" style="fill: none; stroke: #000000; stroke-width: 0.8; stroke-linejoin: miter; stroke-linecap: square"/>
   </g>
  </g>
 </g>
 <defs>
  <clipPath id="p7c15a75fd4">
   <rect x="40.682813" y="31.025417" width="658.385" height="8.146667"/>
  </clipPath>
  <clipPath id="pee6d5c1e2c">
   <rect x="40.682813" y="19.27875" width="658.385" height="8.146667"/>
  </clipPath>
  <clipPath id="pab5df96319">
   <rect x="40.682813" y="42.772083" width="658.385" height="8.146667"/>
  </clipPath>
 </defs>
</svg>
