<?xml version="1.0" encoding="utf-8" standalone="no"?>
<!DOCTYPE svg PUBLIC "-//W3C//DTD SVG 1.1//EN"
  "http://www.w3.org/Graphics/SVG/1.1/DTD/svg11.dtd">
<svg xmlns:xlink="http://www.w3.org/1999/xlink" width="719.345pt" height="70.925625pt" viewBox="0 0 719.345 70.925625" xmlns="http://www.w3.org/2000/svg" version="1.1">
 <metadata>
  <rdf:RDF xmlns:dc="http://purl.org/dc/elements/1.1/" xmlns:cc="http://creativecommons.org/ns#" xmlns:rdf="http://www.w3.org/1999/02/22-rdf-syntax-ns#">
   <cc:Work>
    <dc:type rdf:resource="http://purl.org/dc/dcmitype/StillImage"/>
    <dc:date>2025-01-11T21:07:49.096171</dc:date>
    <dc:format>image/svg+xml</dc:format>
    <dc:creator>
     <cc:Agent>
      <dc:title>Matplotlib v3.8.4, https://matplotlib.org/</dc:title>
     </cc:Agent>
    </dc:creator>
   </cc:Work>
  </rdf:RDF>
 </metadata>
 <defs>
  <style type="text/css">*{stroke-linejoin: round; stroke-linecap: butt}</style>
 </defs>
 <g id="figure_1">
  <g id="patch_1">
   <path d="M 0 70.925625 
L 719.345 70.925625 
L 719.345 0 
L 0 0 
z
" style="fill: #ffffff"/>
  </g>
  <g id="axes_1">
   <g id="patch_2">
    <path d="M 40.682813 39.172083 
L 699.067812 39.172083 
L 699.067812 31.025417 
L 40.682813 31.025417 
z
" style="fill: #ffffff"/>
   </g>
   <g id="patch_3">
    <path d="M 40.682813 38.357417 
L 40.682817 38.357417 
L 40.682817 31.025417 
L 40.682813 31.025417 
z
" clip-path="url(#p217a9717b9)" style="fill: #d62728; stroke: #d62728; stroke-width: 0.3; stroke-linejoin: miter"/>
   </g>
   <g id="patch_4">
    <path d="M 51.413456 38.357417 
L 51.413464 38.357417 
L 51.413464 31.025417 
L 51.413456 31.025417 
z
" clip-path="url(#p217a9717b9)" style="fill: #d62728; stroke: #d62728; stroke-width: 0.3; stroke-linejoin: miter"/>
   </g>
   <g id="patch_5">
    <path d="M 72.198944 38.357417 
L 72.198952 38.357417 
L 72.198952 31.025417 
L 72.198944 31.025417 
z
" clip-path="url(#p217a9717b9)" style="fill: #d62728; stroke: #d62728; stroke-width: 0.3; stroke-linejoin: miter"/>
   </g>
   <g id="patch_6">
    <path d="M 75.351775 38.357417 
L 75.351784 38.357417 
L 75.351784 31.025417 
L 75.351775 31.025417 
z
" clip-path="url(#p217a9717b9)" style="fill: #d62728; stroke: #d62728; stroke-width: 0.3; stroke-linejoin: miter"/>
   </g>
   <g id="patch_7">
    <path d="M 80.19777 38.357417 
L 80.197779 38.357417 
L 80.197779 31.025417 
L 80.19777 31.025417 
z
" clip-path="url(#p217a9717b9)" style="fill: #d62728; stroke: #d62728; stroke-width: 0.3; stroke-linejoin: miter"/>
   </g>
   <g id="patch_8">
    <path d="M 92.689098 38.357417 
L 92.689107 38.357417 
L 92.689107 31.025417 
L 92.689098 31.025417 
z
" clip-path="url(#p217a9717b9)" style="fill: #d62728; stroke: #d62728; stroke-width: 0.3; stroke-linejoin: miter"/>
   </g>
   <g id="patch_9">
    <path d="M 107.699038 38.357417 
L 107.699047 38.357417 
L 107.699047 31.025417 
L 107.699038 31.025417 
z
" clip-path="url(#p217a9717b9)" style="fill: #d62728; stroke: #d62728; stroke-width: 0.3; stroke-linejoin: miter"/>
   </g>
   <g id="patch_10">
    <path d="M 108.12007 38.357417 
L 108.120079 38.357417 
L 108.120079 31.025417 
L 108.12007 31.025417 
z
" clip-path="url(#p217a9717b9)" style="fill: #d62728; stroke: #d62728; stroke-width: 0.3; stroke-linejoin: miter"/>
   </g>
   <g id="patch_11">
    <path d="M 110.711453 38.357417 
L 110.711461 38.357417 
L 110.711461 31.025417 
L 110.711453 31.025417 
z
" clip-path="url(#p217a9717b9)" style="fill: #d62728; stroke: #d62728; stroke-width: 0.3; stroke-linejoin: miter"/>
   </g>
   <g id="patch_12">
    <path d="M 112.110008 38.357417 
L 112.110017 38.357417 
L 112.110017 31.025417 
L 112.110008 31.025417 
z
" clip-path="url(#p217a9717b9)" style="fill: #d62728; stroke: #d62728; stroke-width: 0.3; stroke-linejoin: miter"/>
   </g>
   <g id="patch_13">
    <path d="M 113.81631 38.357417 
L 113.816318 38.357417 
L 113.816318 31.025417 
L 113.81631 31.025417 
z
" clip-path="url(#p217a9717b9)" style="fill: #d62728; stroke: #d62728; stroke-width: 0.3; stroke-linejoin: miter"/>
   </g>
   <g id="patch_14">
    <path d="M 141.687206 38.357417 
L 141.687214 38.357417 
L 141.687214 31.025417 
L 141.687206 31.025417 
z
" clip-path="url(#p217a9717b9)" style="fill: #d62728; stroke: #d62728; stroke-width: 0.3; stroke-linejoin: miter"/>
   </g>
   <g id="patch_15">
    <path d="M 142.588868 38.357417 
L 142.588876 38.357417 
L 142.588876 31.025417 
L 142.588868 31.025417 
z
" clip-path="url(#p217a9717b9)" style="fill: #d62728; stroke: #d62728; stroke-width: 0.3; stroke-linejoin: miter"/>
   </g>
   <g id="patch_16">
    <path d="M 153.460941 38.357417 
L 153.460949 38.357417 
L 153.460949 31.025417 
L 153.460941 31.025417 
z
" clip-path="url(#p217a9717b9)" style="fill: #d62728; stroke: #d62728; stroke-width: 0.3; stroke-linejoin: miter"/>
   </g>
   <g id="patch_17">
    <path d="M 169.350966 38.357417 
L 169.350974 38.357417 
L 169.350974 31.025417 
L 169.350966 31.025417 
z
" clip-path="url(#p217a9717b9)" style="fill: #d62728; stroke: #d62728; stroke-width: 0.3; stroke-linejoin: miter"/>
   </g>
   <g id="patch_18">
    <path d="M 170.640721 38.357417 
L 170.640729 38.357417 
L 170.640729 31.025417 
L 170.640721 31.025417 
z
" clip-path="url(#p217a9717b9)" style="fill: #d62728; stroke: #d62728; stroke-width: 0.3; stroke-linejoin: miter"/>
   </g>
   <g id="patch_19">
    <path d="M 189.087429 38.357417 
L 189.087438 38.357417 
L 189.087438 31.025417 
L 189.087429 31.025417 
z
" clip-path="url(#p217a9717b9)" style="fill: #d62728; stroke: #d62728; stroke-width: 0.3; stroke-linejoin: miter"/>
   </g>
   <g id="patch_20">
    <path d="M 193.922436 38.357417 
L 193.922445 38.357417 
L 193.922445 31.025417 
L 193.922436 31.025417 
z
" clip-path="url(#p217a9717b9)" style="fill: #d62728; stroke: #d62728; stroke-width: 0.3; stroke-linejoin: miter"/>
   </g>
   <g id="patch_21">
    <path d="M 206.088724 38.357417 
L 206.088733 38.357417 
L 206.088733 31.025417 
L 206.088724 31.025417 
z
" clip-path="url(#p217a9717b9)" style="fill: #d62728; stroke: #d62728; stroke-width: 0.3; stroke-linejoin: miter"/>
   </g>
   <g id="patch_22">
    <path d="M 206.51586 38.357417 
L 206.515868 38.357417 
L 206.515868 31.025417 
L 206.51586 31.025417 
z
" clip-path="url(#p217a9717b9)" style="fill: #d62728; stroke: #d62728; stroke-width: 0.3; stroke-linejoin: miter"/>
   </g>
   <g id="patch_23">
    <path d="M 216.221104 38.357417 
L 216.221113 38.357417 
L 216.221113 31.025417 
L 216.221104 31.025417 
z
" clip-path="url(#p217a9717b9)" style="fill: #d62728; stroke: #d62728; stroke-width: 0.3; stroke-linejoin: miter"/>
   </g>
   <g id="patch_24">
    <path d="M 217.105545 38.357417 
L 217.105554 38.357417 
L 217.105554 31.025417 
L 217.105545 31.025417 
z
" clip-path="url(#p217a9717b9)" style="fill: #d62728; stroke: #d62728; stroke-width: 0.3; stroke-linejoin: miter"/>
   </g>
   <g id="patch_25">
    <path d="M 222.331701 38.357417 
L 222.33171 38.357417 
L 222.33171 31.025417 
L 222.331701 31.025417 
z
" clip-path="url(#p217a9717b9)" style="fill: #d62728; stroke: #d62728; stroke-width: 0.3; stroke-linejoin: miter"/>
   </g>
   <g id="patch_26">
    <path d="M 223.593943 38.357417 
L 223.593952 38.357417 
L 223.593952 31.025417 
L 223.593943 31.025417 
z
" clip-path="url(#p217a9717b9)" style="fill: #d62728; stroke: #d62728; stroke-width: 0.3; stroke-linejoin: miter"/>
   </g>
   <g id="patch_27">
    <path d="M 314.817776 38.357417 
L 314.817784 38.357417 
L 314.817784 31.025417 
L 314.817776 31.025417 
z
" clip-path="url(#p217a9717b9)" style="fill: #d62728; stroke: #d62728; stroke-width: 0.3; stroke-linejoin: miter"/>
   </g>
   <g id="patch_28">
    <path d="M 315.296118 38.357417 
L 315.296127 38.357417 
L 315.296127 31.025417 
L 315.296118 31.025417 
z
" clip-path="url(#p217a9717b9)" style="fill: #d62728; stroke: #d62728; stroke-width: 0.3; stroke-linejoin: miter"/>
   </g>
   <g id="patch_29">
    <path d="M 318.124798 38.357417 
L 318.124807 38.357417 
L 318.124807 31.025417 
L 318.124798 31.025417 
z
" clip-path="url(#p217a9717b9)" style="fill: #d62728; stroke: #d62728; stroke-width: 0.3; stroke-linejoin: miter"/>
   </g>
   <g id="patch_30">
    <path d="M 324.195602 38.357417 
L 324.195611 38.357417 
L 324.195611 31.025417 
L 324.195602 31.025417 
z
" clip-path="url(#p217a9717b9)" style="fill: #d62728; stroke: #d62728; stroke-width: 0.3; stroke-linejoin: miter"/>
   </g>
   <g id="patch_31">
    <path d="M 361.040079 38.357417 
L 361.040088 38.357417 
L 361.040088 31.025417 
L 361.040079 31.025417 
z
" clip-path="url(#p217a9717b9)" style="fill: #d62728; stroke: #d62728; stroke-width: 0.3; stroke-linejoin: miter"/>
   </g>
   <g id="patch_32">
    <path d="M 369.302699 38.357417 
L 369.302708 38.357417 
L 369.302708 31.025417 
L 369.302699 31.025417 
z
" clip-path="url(#p217a9717b9)" style="fill: #d62728; stroke: #d62728; stroke-width: 0.3; stroke-linejoin: miter"/>
   </g>
   <g id="patch_33">
    <path d="M 373.297127 38.357417 
L 373.297136 38.357417 
L 373.297136 31.025417 
L 373.297127 31.025417 
z
" clip-path="url(#p217a9717b9)" style="fill: #d62728; stroke: #d62728; stroke-width: 0.3; stroke-linejoin: miter"/>
   </g>
   <g id="patch_34">
    <path d="M 373.724082 38.357417 
L 373.724091 38.357417 
L 373.724091 31.025417 
L 373.724082 31.025417 
z
" clip-path="url(#p217a9717b9)" style="fill: #d62728; stroke: #d62728; stroke-width: 0.3; stroke-linejoin: miter"/>
   </g>
   <g id="patch_35">
    <path d="M 381.704448 38.357417 
L 381.704457 38.357417 
L 381.704457 31.025417 
L 381.704448 31.025417 
z
" clip-path="url(#p217a9717b9)" style="fill: #d62728; stroke: #d62728; stroke-width: 0.3; stroke-linejoin: miter"/>
   </g>
   <g id="patch_36">
    <path d="M 382.202011 38.357417 
L 382.20202 38.357417 
L 382.20202 31.025417 
L 382.202011 31.025417 
z
" clip-path="url(#p217a9717b9)" style="fill: #d62728; stroke: #d62728; stroke-width: 0.3; stroke-linejoin: miter"/>
   </g>
   <g id="patch_37">
    <path d="M 397.475199 38.357417 
L 397.475208 38.357417 
L 397.475208 31.025417 
L 397.475199 31.025417 
z
" clip-path="url(#p217a9717b9)" style="fill: #d62728; stroke: #d62728; stroke-width: 0.3; stroke-linejoin: miter"/>
   </g>
   <g id="patch_38">
    <path d="M 401.436517 38.357417 
L 401.436525 38.357417 
L 401.436525 31.025417 
L 401.436517 31.025417 
z
" clip-path="url(#p217a9717b9)" style="fill: #d62728; stroke: #d62728; stroke-width: 0.3; stroke-linejoin: miter"/>
   </g>
   <g id="patch_39">
    <path d="M 418.403804 38.357417 
L 418.403812 38.357417 
L 418.403812 31.025417 
L 418.403804 31.025417 
z
" clip-path="url(#p217a9717b9)" style="fill: #d62728; stroke: #d62728; stroke-width: 0.3; stroke-linejoin: miter"/>
   </g>
   <g id="patch_40">
    <path d="M 418.822784 38.357417 
L 418.822793 38.357417 
L 418.822793 31.025417 
L 418.822784 31.025417 
z
" clip-path="url(#p217a9717b9)" style="fill: #d62728; stroke: #d62728; stroke-width: 0.3; stroke-linejoin: miter"/>
   </g>
   <g id="patch_41">
    <path d="M 419.736233 38.357417 
L 419.736241 38.357417 
L 419.736241 31.025417 
L 419.736233 31.025417 
z
" clip-path="url(#p217a9717b9)" style="fill: #d62728; stroke: #d62728; stroke-width: 0.3; stroke-linejoin: miter"/>
   </g>
   <g id="patch_42">
    <path d="M 420.166613 38.357417 
L 420.166622 38.357417 
L 420.166622 31.025417 
L 420.166613 31.025417 
z
" clip-path="url(#p217a9717b9)" style="fill: #d62728; stroke: #d62728; stroke-width: 0.3; stroke-linejoin: miter"/>
   </g>
   <g id="patch_43">
    <path d="M 435.898017 38.357417 
L 435.898026 38.357417 
L 435.898026 31.025417 
L 435.898017 31.025417 
z
" clip-path="url(#p217a9717b9)" style="fill: #d62728; stroke: #d62728; stroke-width: 0.3; stroke-linejoin: miter"/>
   </g>
   <g id="patch_44">
    <path d="M 436.748292 38.357417 
L 436.748301 38.357417 
L 436.748301 31.025417 
L 436.748292 31.025417 
z
" clip-path="url(#p217a9717b9)" style="fill: #d62728; stroke: #d62728; stroke-width: 0.3; stroke-linejoin: miter"/>
   </g>
   <g id="patch_45">
    <path d="M 442.017392 38.357417 
L 442.017401 38.357417 
L 442.017401 31.025417 
L 442.017392 31.025417 
z
" clip-path="url(#p217a9717b9)" style="fill: #d62728; stroke: #d62728; stroke-width: 0.3; stroke-linejoin: miter"/>
   </g>
   <g id="patch_46">
    <path d="M 442.888845 38.357417 
L 442.888854 38.357417 
L 442.888854 31.025417 
L 442.888845 31.025417 
z
" clip-path="url(#p217a9717b9)" style="fill: #d62728; stroke: #d62728; stroke-width: 0.3; stroke-linejoin: miter"/>
   </g>
   <g id="patch_47">
    <path d="M 470.000419 38.357417 
L 470.000428 38.357417 
L 470.000428 31.025417 
L 470.000419 31.025417 
z
" clip-path="url(#p217a9717b9)" style="fill: #d62728; stroke: #d62728; stroke-width: 0.3; stroke-linejoin: miter"/>
   </g>
   <g id="patch_48">
    <path d="M 496.695103 38.357417 
L 496.695111 38.357417 
L 496.695111 31.025417 
L 496.695103 31.025417 
z
" clip-path="url(#p217a9717b9)" style="fill: #d62728; stroke: #d62728; stroke-width: 0.3; stroke-linejoin: miter"/>
   </g>
   <g id="patch_49">
    <path d="M 514.928139 38.357417 
L 514.928147 38.357417 
L 514.928147 31.025417 
L 514.928139 31.025417 
z
" clip-path="url(#p217a9717b9)" style="fill: #d62728; stroke: #d62728; stroke-width: 0.3; stroke-linejoin: miter"/>
   </g>
   <g id="patch_50">
    <path d="M 516.192728 38.357417 
L 516.192737 38.357417 
L 516.192737 31.025417 
L 516.192728 31.025417 
z
" clip-path="url(#p217a9717b9)" style="fill: #d62728; stroke: #d62728; stroke-width: 0.3; stroke-linejoin: miter"/>
   </g>
   <g id="patch_51">
    <path d="M 524.402691 38.357417 
L 524.4027 38.357417 
L 524.4027 31.025417 
L 524.402691 31.025417 
z
" clip-path="url(#p217a9717b9)" style="fill: #d62728; stroke: #d62728; stroke-width: 0.3; stroke-linejoin: miter"/>
   </g>
   <g id="patch_52">
    <path d="M 526.102692 38.357417 
L 526.1027 38.357417 
L 526.1027 31.025417 
L 526.102692 31.025417 
z
" clip-path="url(#p217a9717b9)" style="fill: #d62728; stroke: #d62728; stroke-width: 0.3; stroke-linejoin: miter"/>
   </g>
   <g id="patch_53">
    <path d="M 546.950525 38.357417 
L 546.950533 38.357417 
L 546.950533 31.025417 
L 546.950525 31.025417 
z
" clip-path="url(#p217a9717b9)" style="fill: #d62728; stroke: #d62728; stroke-width: 0.3; stroke-linejoin: miter"/>
   </g>
   <g id="patch_54">
    <path d="M 555.572669 38.357417 
L 555.572677 38.357417 
L 555.572677 31.025417 
L 555.572669 31.025417 
z
" clip-path="url(#p217a9717b9)" style="fill: #d62728; stroke: #d62728; stroke-width: 0.3; stroke-linejoin: miter"/>
   </g>
   <g id="patch_55">
    <path d="M 557.351338 38.357417 
L 557.351346 38.357417 
L 557.351346 31.025417 
L 557.351338 31.025417 
z
" clip-path="url(#p217a9717b9)" style="fill: #d62728; stroke: #d62728; stroke-width: 0.3; stroke-linejoin: miter"/>
   </g>
   <g id="patch_56">
    <path d="M 561.176509 38.357417 
L 561.176518 38.357417 
L 561.176518 31.025417 
L 561.176509 31.025417 
z
" clip-path="url(#p217a9717b9)" style="fill: #d62728; stroke: #d62728; stroke-width: 0.3; stroke-linejoin: miter"/>
   </g>
   <g id="patch_57">
    <path d="M 563.361617 38.357417 
L 563.361625 38.357417 
L 563.361625 31.025417 
L 563.361617 31.025417 
z
" clip-path="url(#p217a9717b9)" style="fill: #d62728; stroke: #d62728; stroke-width: 0.3; stroke-linejoin: miter"/>
   </g>
   <g id="patch_58">
    <path d="M 569.604918 38.357417 
L 569.604926 38.357417 
L 569.604926 31.025417 
L 569.604918 31.025417 
z
" clip-path="url(#p217a9717b9)" style="fill: #d62728; stroke: #d62728; stroke-width: 0.3; stroke-linejoin: miter"/>
   </g>
   <g id="patch_59">
    <path d="M 570.432628 38.357417 
L 570.432637 38.357417 
L 570.432637 31.025417 
L 570.432628 31.025417 
z
" clip-path="url(#p217a9717b9)" style="fill: #d62728; stroke: #d62728; stroke-width: 0.3; stroke-linejoin: miter"/>
   </g>
   <g id="patch_60">
    <path d="M 572.378163 38.357417 
L 572.378172 38.357417 
L 572.378172 31.025417 
L 572.378163 31.025417 
z
" clip-path="url(#p217a9717b9)" style="fill: #d62728; stroke: #d62728; stroke-width: 0.3; stroke-linejoin: miter"/>
   </g>
   <g id="patch_61">
    <path d="M 577.75545 38.357417 
L 577.755458 38.357417 
L 577.755458 31.025417 
L 577.75545 31.025417 
z
" clip-path="url(#p217a9717b9)" style="fill: #d62728; stroke: #d62728; stroke-width: 0.3; stroke-linejoin: miter"/>
   </g>
   <g id="patch_62">
    <path d="M 579.131522 38.357417 
L 579.131531 38.357417 
L 579.131531 31.025417 
L 579.131522 31.025417 
z
" clip-path="url(#p217a9717b9)" style="fill: #d62728; stroke: #d62728; stroke-width: 0.3; stroke-linejoin: miter"/>
   </g>
   <g id="patch_63">
    <path d="M 582.580417 38.357417 
L 582.580425 38.357417 
L 582.580425 31.025417 
L 582.580417 31.025417 
z
" clip-path="url(#p217a9717b9)" style="fill: #d62728; stroke: #d62728; stroke-width: 0.3; stroke-linejoin: miter"/>
   </g>
   <g id="patch_64">
    <path d="M 599.485857 38.357417 
L 599.485865 38.357417 
L 599.485865 31.025417 
L 599.485857 31.025417 
z
" clip-path="url(#p217a9717b9)" style="fill: #d62728; stroke: #d62728; stroke-width: 0.3; stroke-linejoin: miter"/>
   </g>
   <g id="patch_65">
    <path d="M 610.933797 38.357417 
L 610.933805 38.357417 
L 610.933805 31.025417 
L 610.933797 31.025417 
z
" clip-path="url(#p217a9717b9)" style="fill: #d62728; stroke: #d62728; stroke-width: 0.3; stroke-linejoin: miter"/>
   </g>
   <g id="patch_66">
    <path d="M 611.373359 38.357417 
L 611.373367 38.357417 
L 611.373367 31.025417 
L 611.373359 31.025417 
z
" clip-path="url(#p217a9717b9)" style="fill: #d62728; stroke: #d62728; stroke-width: 0.3; stroke-linejoin: miter"/>
   </g>
   <g id="patch_67">
    <path d="M 612.656435 38.357417 
L 612.656444 38.357417 
L 612.656444 31.025417 
L 612.656435 31.025417 
z
" clip-path="url(#p217a9717b9)" style="fill: #d62728; stroke: #d62728; stroke-width: 0.3; stroke-linejoin: miter"/>
   </g>
   <g id="patch_68">
    <path d="M 614.39098 38.357417 
L 614.390988 38.357417 
L 614.390988 31.025417 
L 614.39098 31.025417 
z
" clip-path="url(#p217a9717b9)" style="fill: #d62728; stroke: #d62728; stroke-width: 0.3; stroke-linejoin: miter"/>
   </g>
   <g id="patch_69">
    <path d="M 669.108102 38.357417 
L 669.10811 38.357417 
L 669.10811 31.025417 
L 669.108102 31.025417 
z
" clip-path="url(#p217a9717b9)" style="fill: #d62728; stroke: #d62728; stroke-width: 0.3; stroke-linejoin: miter"/>
   </g>
   <g id="patch_70">
    <path d="M 693.072355 38.357417 
L 693.072364 38.357417 
L 693.072364 31.025417 
L 693.072355 31.025417 
z
" clip-path="url(#p217a9717b9)" style="fill: #d62728; stroke: #d62728; stroke-width: 0.3; stroke-linejoin: miter"/>
   </g>
   <g id="matplotlib.axis_1">
    <g id="text_1">
     <!-- Olive -->
     <g transform="translate(12.832813 37.030312) scale(0.07 -0.07)">
      <defs>
       <path id="DejaVuSans-4f" d="M 2522 4238 
Q 1834 4238 1429 3725 
Q 1025 3213 1025 2328 
Q 1025 1447 1429 934 
Q 1834 422 2522 422 
Q 3209 422 3611 934 
Q 4013 1447 4013 2328 
Q 4013 3213 3611 3725 
Q 3209 4238 2522 4238 
z
M 2522 4750 
Q 3503 4750 4090 4092 
Q 4678 3434 4678 2328 
Q 4678 1225 4090 567 
Q 3503 -91 2522 -91 
Q 1538 -91 948 565 
Q 359 1222 359 2328 
Q 359 3434 948 4092 
Q 1538 4750 2522 4750 
z
" transform="scale(0.015625)"/>
       <path id="DejaVuSans-6c" d="M 603 4863 
L 1178 4863 
L 1178 0 
L 603 0 
L 603 4863 
z
" transform="scale(0.015625)"/>
       <path id="DejaVuSans-69" d="M 603 3500 
L 1178 3500 
L 1178 0 
L 603 0 
L 603 3500 
z
M 603 4863 
L 1178 4863 
L 1178 4134 
L 603 4134 
L 603 4863 
z
" transform="scale(0.015625)"/>
       <path id="DejaVuSans-76" d="M 191 3500 
L 800 3500 
L 1894 563 
L 2988 3500 
L 3597 3500 
L 2284 0 
L 1503 0 
L 191 3500 
z
" transform="scale(0.015625)"/>
       <path id="DejaVuSans-65" d="M 3597 1894 
L 3597 1613 
L 953 1613 
Q 991 1019 1311 708 
Q 1631 397 2203 397 
Q 2534 397 2845 478 
Q 3156 559 3463 722 
L 3463 178 
Q 3153 47 2828 -22 
Q 2503 -91 2169 -91 
Q 1331 -91 842 396 
Q 353 884 353 1716 
Q 353 2575 817 3079 
Q 1281 3584 2069 3584 
Q 2775 3584 3186 3129 
Q 3597 2675 3597 1894 
z
M 3022 2063 
Q 3016 2534 2758 2815 
Q 2500 3097 2075 3097 
Q 1594 3097 1305 2825 
Q 1016 2553 972 2059 
L 3022 2063 
z
" transform="scale(0.015625)"/>
      </defs>
      <use xlink:href="#DejaVuSans-4f"/>
      <use xlink:href="#DejaVuSans-6c" x="78.710938"/>
      <use xlink:href="#DejaVuSans-69" x="106.494141"/>
      <use xlink:href="#DejaVuSans-76" x="134.277344"/>
      <use xlink:href="#DejaVuSans-65" x="193.457031"/>
     </g>
    </g>
   </g>
  </g>
  <g id="axes_2">
   <g id="patch_71">
    <path d="M 40.682813 27.425417 
L 699.067812 27.425417 
L 699.067812 19.27875 
L 40.682813 19.27875 
z
" style="fill: #ffffff"/>
   </g>
   <g id="patch_72">
    <path d="M 51.413456 26.61075 
L 51.413464 26.61075 
L 51.413464 19.27875 
L 51.413456 19.27875 
z
" clip-path="url(#p53b581fe0f)" style="fill: #1f77b4; stroke: #1f77b4; stroke-width: 0.3; stroke-linejoin: miter"/>
   </g>
   <g id="patch_73">
    <path d="M 52.271908 26.61075 
L 52.271916 26.61075 
L 52.271916 19.27875 
L 52.271908 19.27875 
z
" clip-path="url(#p53b581fe0f)" style="fill: #1f77b4; stroke: #1f77b4; stroke-width: 0.3; stroke-linejoin: miter"/>
   </g>
   <g id="patch_74">
    <path d="M 93.536467 26.61075 
L 93.536476 26.61075 
L 93.536476 19.27875 
L 93.536467 19.27875 
z
" clip-path="url(#p53b581fe0f)" style="fill: #1f77b4; stroke: #1f77b4; stroke-width: 0.3; stroke-linejoin: miter"/>
   </g>
   <g id="patch_75">
    <path d="M 96.942272 26.61075 
L 96.942281 26.61075 
L 96.942281 19.27875 
L 96.942272 19.27875 
z
" clip-path="url(#p53b581fe0f)" style="fill: #1f77b4; stroke: #1f77b4; stroke-width: 0.3; stroke-linejoin: miter"/>
   </g>
   <g id="patch_76">
    <path d="M 162.815417 26.61075 
L 162.815426 26.61075 
L 162.815426 19.27875 
L 162.815417 19.27875 
z
" clip-path="url(#p53b581fe0f)" style="fill: #1f77b4; stroke: #1f77b4; stroke-width: 0.3; stroke-linejoin: miter"/>
   </g>
   <g id="patch_77">
    <path d="M 165.427369 26.61075 
L 165.427377 26.61075 
L 165.427377 19.27875 
L 165.427369 19.27875 
z
" clip-path="url(#p53b581fe0f)" style="fill: #1f77b4; stroke: #1f77b4; stroke-width: 0.3; stroke-linejoin: miter"/>
   </g>
   <g id="patch_78">
    <path d="M 165.884039 26.61075 
L 165.884048 26.61075 
L 165.884048 19.27875 
L 165.884039 19.27875 
z
" clip-path="url(#p53b581fe0f)" style="fill: #1f77b4; stroke: #1f77b4; stroke-width: 0.3; stroke-linejoin: miter"/>
   </g>
   <g id="patch_79">
    <path d="M 166.308024 26.61075 
L 166.308033 26.61075 
L 166.308033 19.27875 
L 166.308024 19.27875 
z
" clip-path="url(#p53b581fe0f)" style="fill: #1f77b4; stroke: #1f77b4; stroke-width: 0.3; stroke-linejoin: miter"/>
   </g>
   <g id="patch_80">
    <path d="M 214.118052 26.61075 
L 214.11806 26.61075 
L 214.11806 19.27875 
L 214.118052 19.27875 
z
" clip-path="url(#p53b581fe0f)" style="fill: #1f77b4; stroke: #1f77b4; stroke-width: 0.3; stroke-linejoin: miter"/>
   </g>
   <g id="patch_81">
    <path d="M 215.388419 26.61075 
L 215.388427 26.61075 
L 215.388427 19.27875 
L 215.388419 19.27875 
z
" clip-path="url(#p53b581fe0f)" style="fill: #1f77b4; stroke: #1f77b4; stroke-width: 0.3; stroke-linejoin: miter"/>
   </g>
   <g id="patch_82">
    <path d="M 227.119927 26.61075 
L 227.119935 26.61075 
L 227.119935 19.27875 
L 227.119927 19.27875 
z
" clip-path="url(#p53b581fe0f)" style="fill: #1f77b4; stroke: #1f77b4; stroke-width: 0.3; stroke-linejoin: miter"/>
   </g>
   <g id="patch_83">
    <path d="M 229.337771 26.61075 
L 229.33778 26.61075 
L 229.33778 19.27875 
L 229.337771 19.27875 
z
" clip-path="url(#p53b581fe0f)" style="fill: #1f77b4; stroke: #1f77b4; stroke-width: 0.3; stroke-linejoin: miter"/>
   </g>
   <g id="patch_84">
    <path d="M 247.493006 26.61075 
L 247.493014 26.61075 
L 247.493014 19.27875 
L 247.493006 19.27875 
z
" clip-path="url(#p53b581fe0f)" style="fill: #1f77b4; stroke: #1f77b4; stroke-width: 0.3; stroke-linejoin: miter"/>
   </g>
   <g id="patch_85">
    <path d="M 251.985013 26.61075 
L 251.985022 26.61075 
L 251.985022 19.27875 
L 251.985013 19.27875 
z
" clip-path="url(#p53b581fe0f)" style="fill: #1f77b4; stroke: #1f77b4; stroke-width: 0.3; stroke-linejoin: miter"/>
   </g>
   <g id="patch_86">
    <path d="M 267.796151 26.61075 
L 267.796159 26.61075 
L 267.796159 19.27875 
L 267.796151 19.27875 
z
" clip-path="url(#p53b581fe0f)" style="fill: #1f77b4; stroke: #1f77b4; stroke-width: 0.3; stroke-linejoin: miter"/>
   </g>
   <g id="patch_87">
    <path d="M 269.468999 26.61075 
L 269.469007 26.61075 
L 269.469007 19.27875 
L 269.468999 19.27875 
z
" clip-path="url(#p53b581fe0f)" style="fill: #1f77b4; stroke: #1f77b4; stroke-width: 0.3; stroke-linejoin: miter"/>
   </g>
   <g id="patch_88">
    <path d="M 270.356659 26.61075 
L 270.356668 26.61075 
L 270.356668 19.27875 
L 270.356659 19.27875 
z
" clip-path="url(#p53b581fe0f)" style="fill: #1f77b4; stroke: #1f77b4; stroke-width: 0.3; stroke-linejoin: miter"/>
   </g>
   <g id="patch_89">
    <path d="M 270.962773 26.61075 
L 270.962782 26.61075 
L 270.962782 19.27875 
L 270.962773 19.27875 
z
" clip-path="url(#p53b581fe0f)" style="fill: #1f77b4; stroke: #1f77b4; stroke-width: 0.3; stroke-linejoin: miter"/>
   </g>
   <g id="patch_90">
    <path d="M 282.180039 26.61075 
L 282.180047 26.61075 
L 282.180047 19.27875 
L 282.180039 19.27875 
z
" clip-path="url(#p53b581fe0f)" style="fill: #1f77b4; stroke: #1f77b4; stroke-width: 0.3; stroke-linejoin: miter"/>
   </g>
   <g id="patch_91">
    <path d="M 285.157643 26.61075 
L 285.157652 26.61075 
L 285.157652 19.27875 
L 285.157643 19.27875 
z
" clip-path="url(#p53b581fe0f)" style="fill: #1f77b4; stroke: #1f77b4; stroke-width: 0.3; stroke-linejoin: miter"/>
   </g>
   <g id="patch_92">
    <path d="M 334.625667 26.61075 
L 334.625676 26.61075 
L 334.625676 19.27875 
L 334.625667 19.27875 
z
" clip-path="url(#p53b581fe0f)" style="fill: #1f77b4; stroke: #1f77b4; stroke-width: 0.3; stroke-linejoin: miter"/>
   </g>
   <g id="patch_93">
    <path d="M 335.489141 26.61075 
L 335.489149 26.61075 
L 335.489149 19.27875 
L 335.489141 19.27875 
z
" clip-path="url(#p53b581fe0f)" style="fill: #1f77b4; stroke: #1f77b4; stroke-width: 0.3; stroke-linejoin: miter"/>
   </g>
   <g id="patch_94">
    <path d="M 337.177986 26.61075 
L 337.177995 26.61075 
L 337.177995 19.27875 
L 337.177986 19.27875 
z
" clip-path="url(#p53b581fe0f)" style="fill: #1f77b4; stroke: #1f77b4; stroke-width: 0.3; stroke-linejoin: miter"/>
   </g>
   <g id="patch_95">
    <path d="M 338.001894 26.61075 
L 338.001902 26.61075 
L 338.001902 19.27875 
L 338.001894 19.27875 
z
" clip-path="url(#p53b581fe0f)" style="fill: #1f77b4; stroke: #1f77b4; stroke-width: 0.3; stroke-linejoin: miter"/>
   </g>
   <g id="patch_96">
    <path d="M 376.31659 26.61075 
L 376.316598 26.61075 
L 376.316598 19.27875 
L 376.31659 19.27875 
z
" clip-path="url(#p53b581fe0f)" style="fill: #1f77b4; stroke: #1f77b4; stroke-width: 0.3; stroke-linejoin: miter"/>
   </g>
   <g id="patch_97">
    <path d="M 377.200954 26.61075 
L 377.200963 26.61075 
L 377.200963 19.27875 
L 377.200954 19.27875 
z
" clip-path="url(#p53b581fe0f)" style="fill: #1f77b4; stroke: #1f77b4; stroke-width: 0.3; stroke-linejoin: miter"/>
   </g>
   <g id="patch_98">
    <path d="M 409.532662 26.61075 
L 409.53267 26.61075 
L 409.53267 19.27875 
L 409.532662 19.27875 
z
" clip-path="url(#p53b581fe0f)" style="fill: #1f77b4; stroke: #1f77b4; stroke-width: 0.3; stroke-linejoin: miter"/>
   </g>
   <g id="patch_99">
    <path d="M 412.375077 26.61075 
L 412.375086 26.61075 
L 412.375086 19.27875 
L 412.375077 19.27875 
z
" clip-path="url(#p53b581fe0f)" style="fill: #1f77b4; stroke: #1f77b4; stroke-width: 0.3; stroke-linejoin: miter"/>
   </g>
   <g id="patch_100">
    <path d="M 445.481009 26.61075 
L 445.481018 26.61075 
L 445.481018 19.27875 
L 445.481009 19.27875 
z
" clip-path="url(#p53b581fe0f)" style="fill: #1f77b4; stroke: #1f77b4; stroke-width: 0.3; stroke-linejoin: miter"/>
   </g>
   <g id="patch_101">
    <path d="M 453.154865 26.61075 
L 453.154873 26.61075 
L 453.154873 19.27875 
L 453.154865 19.27875 
z
" clip-path="url(#p53b581fe0f)" style="fill: #1f77b4; stroke: #1f77b4; stroke-width: 0.3; stroke-linejoin: miter"/>
   </g>
   <g id="patch_102">
    <path d="M 622.227615 26.61075 
L 622.227623 26.61075 
L 622.227623 19.27875 
L 622.227615 19.27875 
z
" clip-path="url(#p53b581fe0f)" style="fill: #1f77b4; stroke: #1f77b4; stroke-width: 0.3; stroke-linejoin: miter"/>
   </g>
   <g id="patch_103">
    <path d="M 622.640856 26.61075 
L 622.640865 26.61075 
L 622.640865 19.27875 
L 622.640856 19.27875 
z
" clip-path="url(#p53b581fe0f)" style="fill: #1f77b4; stroke: #1f77b4; stroke-width: 0.3; stroke-linejoin: miter"/>
   </g>
   <g id="patch_104">
    <path d="M 642.181499 26.61075 
L 642.181507 26.61075 
L 642.181507 19.27875 
L 642.181499 19.27875 
z
" clip-path="url(#p53b581fe0f)" style="fill: #1f77b4; stroke: #1f77b4; stroke-width: 0.3; stroke-linejoin: miter"/>
   </g>
   <g id="patch_105">
    <path d="M 645.811415 26.61075 
L 645.811424 26.61075 
L 645.811424 19.27875 
L 645.811415 19.27875 
z
" clip-path="url(#p53b581fe0f)" style="fill: #1f77b4; stroke: #1f77b4; stroke-width: 0.3; stroke-linejoin: miter"/>
   </g>
   <g id="matplotlib.axis_2">
    <g id="text_2">
     <!-- Hama -->
     <g transform="translate(10.020781 25.283646) scale(0.07 -0.07)">
      <defs>
       <path id="DejaVuSans-48" d="M 628 4666 
L 1259 4666 
L 1259 2753 
L 3553 2753 
L 3553 4666 
L 4184 4666 
L 4184 0 
L 3553 0 
L 3553 2222 
L 1259 2222 
L 1259 0 
L 628 0 
L 628 4666 
z
" transform="scale(0.015625)"/>
       <path id="DejaVuSans-61" d="M 2194 1759 
Q 1497 1759 1228 1600 
Q 959 1441 959 1056 
Q 959 750 1161 570 
Q 1363 391 1709 391 
Q 2188 391 2477 730 
Q 2766 1069 2766 1631 
L 2766 1759 
L 2194 1759 
z
M 3341 1997 
L 3341 0 
L 2766 0 
L 2766 531 
Q 2569 213 2275 61 
Q 1981 -91 1556 -91 
Q 1019 -91 701 211 
Q 384 513 384 1019 
Q 384 1609 779 1909 
Q 1175 2209 1959 2209 
L 2766 2209 
L 2766 2266 
Q 2766 2663 2505 2880 
Q 2244 3097 1772 3097 
Q 1472 3097 1187 3025 
Q 903 2953 641 2809 
L 641 3341 
Q 956 3463 1253 3523 
Q 1550 3584 1831 3584 
Q 2591 3584 2966 3190 
Q 3341 2797 3341 1997 
z
" transform="scale(0.015625)"/>
       <path id="DejaVuSans-6d" d="M 3328 2828 
Q 3544 3216 3844 3400 
Q 4144 3584 4550 3584 
Q 5097 3584 5394 3201 
Q 5691 2819 5691 2113 
L 5691 0 
L 5113 0 
L 5113 2094 
Q 5113 2597 4934 2840 
Q 4756 3084 4391 3084 
Q 3944 3084 3684 2787 
Q 3425 2491 3425 1978 
L 3425 0 
L 2847 0 
L 2847 2094 
Q 2847 2600 2669 2842 
Q 2491 3084 2119 3084 
Q 1678 3084 1418 2786 
Q 1159 2488 1159 1978 
L 1159 0 
L 581 0 
L 581 3500 
L 1159 3500 
L 1159 2956 
Q 1356 3278 1631 3431 
Q 1906 3584 2284 3584 
Q 2666 3584 2933 3390 
Q 3200 3197 3328 2828 
z
" transform="scale(0.015625)"/>
      </defs>
      <use xlink:href="#DejaVuSans-48"/>
      <use xlink:href="#DejaVuSans-61" x="75.195312"/>
      <use xlink:href="#DejaVuSans-6d" x="136.474609"/>
      <use xlink:href="#DejaVuSans-61" x="233.886719"/>
     </g>
    </g>
   </g>
   <g id="text_3">
    <!-- Limits -->
    <g transform="translate(40.682813 13.27875) scale(0.08 -0.08)">
     <defs>
      <path id="DejaVuSans-4c" d="M 628 4666 
L 1259 4666 
L 1259 531 
L 3531 531 
L 3531 0 
L 628 0 
L 628 4666 
z
" transform="scale(0.015625)"/>
      <path id="DejaVuSans-74" d="M 1172 4494 
L 1172 3500 
L 2356 3500 
L 2356 3053 
L 1172 3053 
L 1172 1153 
Q 1172 725 1289 603 
Q 1406 481 1766 481 
L 2356 481 
L 2356 0 
L 1766 0 
Q 1100 0 847 248 
Q 594 497 594 1153 
L 594 3053 
L 172 3053 
L 172 3500 
L 594 3500 
L 594 4494 
L 1172 4494 
z
" transform="scale(0.015625)"/>
      <path id="DejaVuSans-73" d="M 2834 3397 
L 2834 2853 
Q 2591 2978 2328 3040 
Q 2066 3103 1784 3103 
Q 1356 3103 1142 2972 
Q 928 2841 928 2578 
Q 928 2378 1081 2264 
Q 1234 2150 1697 2047 
L 1894 2003 
Q 2506 1872 2764 1633 
Q 3022 1394 3022 966 
Q 3022 478 2636 193 
Q 2250 -91 1575 -91 
Q 1294 -91 989 -36 
Q 684 19 347 128 
L 347 722 
Q 666 556 975 473 
Q 1284 391 1588 391 
Q 1994 391 2212 530 
Q 2431 669 2431 922 
Q 2431 1156 2273 1281 
Q 2116 1406 1581 1522 
L 1381 1569 
Q 847 1681 609 1914 
Q 372 2147 372 2553 
Q 372 3047 722 3315 
Q 1072 3584 1716 3584 
Q 2034 3584 2315 3537 
Q 2597 3491 2834 3397 
z
" transform="scale(0.015625)"/>
     </defs>
     <use xlink:href="#DejaVuSans-4c"/>
     <use xlink:href="#DejaVuSans-69" x="55.712891"/>
     <use xlink:href="#DejaVuSans-6d" x="83.496094"/>
     <use xlink:href="#DejaVuSans-69" x="180.908203"/>
     <use xlink:href="#DejaVuSans-74" x="208.691406"/>
     <use xlink:href="#DejaVuSans-73" x="247.900391"/>
    </g>
   </g>
  </g>
  <g id="axes_3">
   <g id="patch_106">
    <path d="M 40.682813 50.91875 
L 699.067812 50.91875 
L 699.067812 42.772083 
L 40.682813 42.772083 
z
" style="fill: #ffffff"/>
   </g>
   <g id="patch_107">
    <path d="M 124.539699 50.104083 
L 124.539708 50.104083 
L 124.539708 42.772083 
L 124.539699 42.772083 
z
" clip-path="url(#p71593193d1)" style="fill: #2ca02c; stroke: #2ca02c; stroke-width: 0.3; stroke-linejoin: miter"/>
   </g>
   <g id="patch_108">
    <path d="M 124.969831 50.104083 
L 124.969839 50.104083 
L 124.969839 42.772083 
L 124.969831 42.772083 
z
" clip-path="url(#p71593193d1)" style="fill: #2ca02c; stroke: #2ca02c; stroke-width: 0.3; stroke-linejoin: miter"/>
   </g>
   <g id="patch_109">
    <path d="M 130.542059 50.104083 
L 130.542067 50.104083 
L 130.542067 42.772083 
L 130.542059 42.772083 
z
" clip-path="url(#p71593193d1)" style="fill: #2ca02c; stroke: #2ca02c; stroke-width: 0.3; stroke-linejoin: miter"/>
   </g>
   <g id="patch_110">
    <path d="M 131.018225 50.104083 
L 131.018233 50.104083 
L 131.018233 42.772083 
L 131.018225 42.772083 
z
" clip-path="url(#p71593193d1)" style="fill: #2ca02c; stroke: #2ca02c; stroke-width: 0.3; stroke-linejoin: miter"/>
   </g>
   <g id="patch_111">
    <path d="M 196.161918 50.104083 
L 196.161927 50.104083 
L 196.161927 42.772083 
L 196.161918 42.772083 
z
" clip-path="url(#p71593193d1)" style="fill: #2ca02c; stroke: #2ca02c; stroke-width: 0.3; stroke-linejoin: miter"/>
   </g>
   <g id="patch_112">
    <path d="M 197.019082 50.104083 
L 197.019091 50.104083 
L 197.019091 42.772083 
L 197.019082 42.772083 
z
" clip-path="url(#p71593193d1)" style="fill: #2ca02c; stroke: #2ca02c; stroke-width: 0.3; stroke-linejoin: miter"/>
   </g>
   <g id="patch_113">
    <path d="M 200.509088 50.104083 
L 200.509096 50.104083 
L 200.509096 42.772083 
L 200.509088 42.772083 
z
" clip-path="url(#p71593193d1)" style="fill: #2ca02c; stroke: #2ca02c; stroke-width: 0.3; stroke-linejoin: miter"/>
   </g>
   <g id="patch_114">
    <path d="M 202.209222 50.104083 
L 202.20923 50.104083 
L 202.20923 42.772083 
L 202.209222 42.772083 
z
" clip-path="url(#p71593193d1)" style="fill: #2ca02c; stroke: #2ca02c; stroke-width: 0.3; stroke-linejoin: miter"/>
   </g>
   <g id="patch_115">
    <path d="M 253.220549 50.104083 
L 253.220557 50.104083 
L 253.220557 42.772083 
L 253.220549 42.772083 
z
" clip-path="url(#p71593193d1)" style="fill: #2ca02c; stroke: #2ca02c; stroke-width: 0.3; stroke-linejoin: miter"/>
   </g>
   <g id="patch_116">
    <path d="M 255.356394 50.104083 
L 255.356403 50.104083 
L 255.356403 42.772083 
L 255.356394 42.772083 
z
" clip-path="url(#p71593193d1)" style="fill: #2ca02c; stroke: #2ca02c; stroke-width: 0.3; stroke-linejoin: miter"/>
   </g>
   <g id="patch_117">
    <path d="M 258.821359 50.104083 
L 258.821367 50.104083 
L 258.821367 42.772083 
L 258.821359 42.772083 
z
" clip-path="url(#p71593193d1)" style="fill: #2ca02c; stroke: #2ca02c; stroke-width: 0.3; stroke-linejoin: miter"/>
   </g>
   <g id="patch_118">
    <path d="M 261.4959 50.104083 
L 261.495908 50.104083 
L 261.495908 42.772083 
L 261.4959 42.772083 
z
" clip-path="url(#p71593193d1)" style="fill: #2ca02c; stroke: #2ca02c; stroke-width: 0.3; stroke-linejoin: miter"/>
   </g>
   <g id="patch_119">
    <path d="M 272.048427 50.104083 
L 272.048436 50.104083 
L 272.048436 42.772083 
L 272.048427 42.772083 
z
" clip-path="url(#p71593193d1)" style="fill: #2ca02c; stroke: #2ca02c; stroke-width: 0.3; stroke-linejoin: miter"/>
   </g>
   <g id="patch_120">
    <path d="M 272.923284 50.104083 
L 272.923293 50.104083 
L 272.923293 42.772083 
L 272.923284 42.772083 
z
" clip-path="url(#p71593193d1)" style="fill: #2ca02c; stroke: #2ca02c; stroke-width: 0.3; stroke-linejoin: miter"/>
   </g>
   <g id="patch_121">
    <path d="M 307.217237 50.104083 
L 307.217245 50.104083 
L 307.217245 42.772083 
L 307.217237 42.772083 
z
" clip-path="url(#p71593193d1)" style="fill: #2ca02c; stroke: #2ca02c; stroke-width: 0.3; stroke-linejoin: miter"/>
   </g>
   <g id="patch_122">
    <path d="M 308.062 50.104083 
L 308.062009 50.104083 
L 308.062009 42.772083 
L 308.062 42.772083 
z
" clip-path="url(#p71593193d1)" style="fill: #2ca02c; stroke: #2ca02c; stroke-width: 0.3; stroke-linejoin: miter"/>
   </g>
   <g id="patch_123">
    <path d="M 344.961032 50.104083 
L 344.961041 50.104083 
L 344.961041 42.772083 
L 344.961032 42.772083 
z
" clip-path="url(#p71593193d1)" style="fill: #2ca02c; stroke: #2ca02c; stroke-width: 0.3; stroke-linejoin: miter"/>
   </g>
   <g id="patch_124">
    <path d="M 346.075637 50.104083 
L 346.075646 50.104083 
L 346.075646 42.772083 
L 346.075637 42.772083 
z
" clip-path="url(#p71593193d1)" style="fill: #2ca02c; stroke: #2ca02c; stroke-width: 0.3; stroke-linejoin: miter"/>
   </g>
   <g id="patch_125">
    <path d="M 348.81879 50.104083 
L 348.818799 50.104083 
L 348.818799 42.772083 
L 348.81879 42.772083 
z
" clip-path="url(#p71593193d1)" style="fill: #2ca02c; stroke: #2ca02c; stroke-width: 0.3; stroke-linejoin: miter"/>
   </g>
   <g id="patch_126">
    <path d="M 350.344727 50.104083 
L 350.344735 50.104083 
L 350.344735 42.772083 
L 350.344727 42.772083 
z
" clip-path="url(#p71593193d1)" style="fill: #2ca02c; stroke: #2ca02c; stroke-width: 0.3; stroke-linejoin: miter"/>
   </g>
   <g id="patch_127">
    <path d="M 359.776206 50.104083 
L 359.776215 50.104083 
L 359.776215 42.772083 
L 359.776206 42.772083 
z
" clip-path="url(#p71593193d1)" style="fill: #2ca02c; stroke: #2ca02c; stroke-width: 0.3; stroke-linejoin: miter"/>
   </g>
   <g id="patch_128">
    <path d="M 361.038508 50.104083 
L 361.038517 50.104083 
L 361.038517 42.772083 
L 361.038508 42.772083 
z
" clip-path="url(#p71593193d1)" style="fill: #2ca02c; stroke: #2ca02c; stroke-width: 0.3; stroke-linejoin: miter"/>
   </g>
   <g id="patch_129">
    <path d="M 453.816821 50.104083 
L 453.81683 50.104083 
L 453.81683 42.772083 
L 453.816821 42.772083 
z
" clip-path="url(#p71593193d1)" style="fill: #2ca02c; stroke: #2ca02c; stroke-width: 0.3; stroke-linejoin: miter"/>
   </g>
   <g id="patch_130">
    <path d="M 454.196995 50.104083 
L 454.197004 50.104083 
L 454.197004 42.772083 
L 454.196995 42.772083 
z
" clip-path="url(#p71593193d1)" style="fill: #2ca02c; stroke: #2ca02c; stroke-width: 0.3; stroke-linejoin: miter"/>
   </g>
   <g id="patch_131">
    <path d="M 505.011222 50.104083 
L 505.01123 50.104083 
L 505.01123 42.772083 
L 505.011222 42.772083 
z
" clip-path="url(#p71593193d1)" style="fill: #2ca02c; stroke: #2ca02c; stroke-width: 0.3; stroke-linejoin: miter"/>
   </g>
   <g id="patch_132">
    <path d="M 506.648161 50.104083 
L 506.648169 50.104083 
L 506.648169 42.772083 
L 506.648161 42.772083 
z
" clip-path="url(#p71593193d1)" style="fill: #2ca02c; stroke: #2ca02c; stroke-width: 0.3; stroke-linejoin: miter"/>
   </g>
   <g id="patch_133">
    <path d="M 518.423608 50.104083 
L 518.423617 50.104083 
L 518.423617 42.772083 
L 518.423608 42.772083 
z
" clip-path="url(#p71593193d1)" style="fill: #2ca02c; stroke: #2ca02c; stroke-width: 0.3; stroke-linejoin: miter"/>
   </g>
   <g id="patch_134">
    <path d="M 519.684069 50.104083 
L 519.684078 50.104083 
L 519.684078 42.772083 
L 519.684069 42.772083 
z
" clip-path="url(#p71593193d1)" style="fill: #2ca02c; stroke: #2ca02c; stroke-width: 0.3; stroke-linejoin: miter"/>
   </g>
   <g id="patch_135">
    <path d="M 573.25875 50.104083 
L 573.258759 50.104083 
L 573.258759 42.772083 
L 573.25875 42.772083 
z
" clip-path="url(#p71593193d1)" style="fill: #2ca02c; stroke: #2ca02c; stroke-width: 0.3; stroke-linejoin: miter"/>
   </g>
   <g id="patch_136">
    <path d="M 573.683379 50.104083 
L 573.683388 50.104083 
L 573.683388 42.772083 
L 573.683379 42.772083 
z
" clip-path="url(#p71593193d1)" style="fill: #2ca02c; stroke: #2ca02c; stroke-width: 0.3; stroke-linejoin: miter"/>
   </g>
   <g id="patch_137">
    <path d="M 585.106883 50.104083 
L 585.106892 50.104083 
L 585.106892 42.772083 
L 585.106883 42.772083 
z
" clip-path="url(#p71593193d1)" style="fill: #2ca02c; stroke: #2ca02c; stroke-width: 0.3; stroke-linejoin: miter"/>
   </g>
   <g id="patch_138">
    <path d="M 586.847154 50.104083 
L 586.847163 50.104083 
L 586.847163 42.772083 
L 586.847154 42.772083 
z
" clip-path="url(#p71593193d1)" style="fill: #2ca02c; stroke: #2ca02c; stroke-width: 0.3; stroke-linejoin: miter"/>
   </g>
   <g id="patch_139">
    <path d="M 591.825097 50.104083 
L 591.825106 50.104083 
L 591.825106 42.772083 
L 591.825097 42.772083 
z
" clip-path="url(#p71593193d1)" style="fill: #2ca02c; stroke: #2ca02c; stroke-width: 0.3; stroke-linejoin: miter"/>
   </g>
   <g id="patch_140">
    <path d="M 593.10413 50.104083 
L 593.104139 50.104083 
L 593.104139 42.772083 
L 593.10413 42.772083 
z
" clip-path="url(#p71593193d1)" style="fill: #2ca02c; stroke: #2ca02c; stroke-width: 0.3; stroke-linejoin: miter"/>
   </g>
   <g id="patch_141">
    <path d="M 597.538695 50.104083 
L 597.538704 50.104083 
L 597.538704 42.772083 
L 597.538695 42.772083 
z
" clip-path="url(#p71593193d1)" style="fill: #2ca02c; stroke: #2ca02c; stroke-width: 0.3; stroke-linejoin: miter"/>
   </g>
   <g id="patch_142">
    <path d="M 598.823737 50.104083 
L 598.823746 50.104083 
L 598.823746 42.772083 
L 598.823737 42.772083 
z
" clip-path="url(#p71593193d1)" style="fill: #2ca02c; stroke: #2ca02c; stroke-width: 0.3; stroke-linejoin: miter"/>
   </g>
   <g id="patch_143">
    <path d="M 687.97968 50.104083 
L 687.979688 50.104083 
L 687.979688 42.772083 
L 687.97968 42.772083 
z
" clip-path="url(#p71593193d1)" style="fill: #2ca02c; stroke: #2ca02c; stroke-width: 0.3; stroke-linejoin: miter"/>
   </g>
   <g id="patch_144">
    <path d="M 689.734222 50.104083 
L 689.734231 50.104083 
L 689.734231 42.772083 
L 689.734222 42.772083 
z
" clip-path="url(#p71593193d1)" style="fill: #2ca02c; stroke: #2ca02c; stroke-width: 0.3; stroke-linejoin: miter"/>
   </g>
   <g id="matplotlib.axis_3">
    <g id="xtick_1">
     <g id="line2d_1">
      <defs>
       <path id="ma6c4088fe8" d="M 0 0 
L 0 3.5 
" style="stroke: #000000; stroke-width: 0.8"/>
      </defs>
      <g>
       <use xlink:href="#ma6c4088fe8" x="40.682813" y="50.91875" style="stroke: #000000; stroke-width: 0.8"/>
      </g>
     </g>
     <g id="text_4">
      <!-- 0 Mbp -->
      <g transform="translate(31.423125 62.477812) scale(0.06 -0.06)">
       <defs>
        <path id="DejaVuSans-30" d="M 2034 4250 
Q 1547 4250 1301 3770 
Q 1056 3291 1056 2328 
Q 1056 1369 1301 889 
Q 1547 409 2034 409 
Q 2525 409 2770 889 
Q 3016 1369 3016 2328 
Q 3016 3291 2770 3770 
Q 2525 4250 2034 4250 
z
M 2034 4750 
Q 2819 4750 3233 4129 
Q 3647 3509 3647 2328 
Q 3647 1150 3233 529 
Q 2819 -91 2034 -91 
Q 1250 -91 836 529 
Q 422 1150 422 2328 
Q 422 3509 836 4129 
Q 1250 4750 2034 4750 
z
" transform="scale(0.015625)"/>
        <path id="DejaVuSans-20" transform="scale(0.015625)"/>
        <path id="DejaVuSans-4d" d="M 628 4666 
L 1569 4666 
L 2759 1491 
L 3956 4666 
L 4897 4666 
L 4897 0 
L 4281 0 
L 4281 4097 
L 3078 897 
L 2444 897 
L 1241 4097 
L 1241 0 
L 628 0 
L 628 4666 
z
" transform="scale(0.015625)"/>
        <path id="DejaVuSans-62" d="M 3116 1747 
Q 3116 2381 2855 2742 
Q 2594 3103 2138 3103 
Q 1681 3103 1420 2742 
Q 1159 2381 1159 1747 
Q 1159 1113 1420 752 
Q 1681 391 2138 391 
Q 2594 391 2855 752 
Q 3116 1113 3116 1747 
z
M 1159 2969 
Q 1341 3281 1617 3432 
Q 1894 3584 2278 3584 
Q 2916 3584 3314 3078 
Q 3713 2572 3713 1747 
Q 3713 922 3314 415 
Q 2916 -91 2278 -91 
Q 1894 -91 1617 61 
Q 1341 213 1159 525 
L 1159 0 
L 581 0 
L 581 4863 
L 1159 4863 
L 1159 2969 
z
" transform="scale(0.015625)"/>
        <path id="DejaVuSans-70" d="M 1159 525 
L 1159 -1331 
L 581 -1331 
L 581 3500 
L 1159 3500 
L 1159 2969 
Q 1341 3281 1617 3432 
Q 1894 3584 2278 3584 
Q 2916 3584 3314 3078 
Q 3713 2572 3713 1747 
Q 3713 922 3314 415 
Q 2916 -91 2278 -91 
Q 1894 -91 1617 61 
Q 1341 213 1159 525 
z
M 3116 1747 
Q 3116 2381 2855 2742 
Q 2594 3103 2138 3103 
Q 1681 3103 1420 2742 
Q 1159 2381 1159 1747 
Q 1159 1113 1420 752 
Q 1681 391 2138 391 
Q 2594 391 2855 752 
Q 3116 1113 3116 1747 
z
" transform="scale(0.015625)"/>
       </defs>
       <use xlink:href="#DejaVuSans-30"/>
       <use xlink:href="#DejaVuSans-20" x="63.623047"/>
       <use xlink:href="#DejaVuSans-4d" x="95.410156"/>
       <use xlink:href="#DejaVuSans-62" x="181.689453"/>
       <use xlink:href="#DejaVuSans-70" x="245.166016"/>
      </g>
     </g>
    </g>
    <g id="xtick_2">
     <g id="line2d_2">
      <g>
       <use xlink:href="#ma6c4088fe8" x="205.279063" y="50.91875" style="stroke: #000000; stroke-width: 0.8"/>
      </g>
     </g>
     <g id="text_5">
      <!-- 38 Mbp -->
      <g transform="translate(194.110625 62.477812) scale(0.06 -0.06)">
       <defs>
        <path id="DejaVuSans-33" d="M 2597 2516 
Q 3050 2419 3304 2112 
Q 3559 1806 3559 1356 
Q 3559 666 3084 287 
Q 2609 -91 1734 -91 
Q 1441 -91 1130 -33 
Q 819 25 488 141 
L 488 750 
Q 750 597 1062 519 
Q 1375 441 1716 441 
Q 2309 441 2620 675 
Q 2931 909 2931 1356 
Q 2931 1769 2642 2001 
Q 2353 2234 1838 2234 
L 1294 2234 
L 1294 2753 
L 1863 2753 
Q 2328 2753 2575 2939 
Q 2822 3125 2822 3475 
Q 2822 3834 2567 4026 
Q 2313 4219 1838 4219 
Q 1578 4219 1281 4162 
Q 984 4106 628 3988 
L 628 4550 
Q 988 4650 1302 4700 
Q 1616 4750 1894 4750 
Q 2613 4750 3031 4423 
Q 3450 4097 3450 3541 
Q 3450 3153 3228 2886 
Q 3006 2619 2597 2516 
z
" transform="scale(0.015625)"/>
        <path id="DejaVuSans-38" d="M 2034 2216 
Q 1584 2216 1326 1975 
Q 1069 1734 1069 1313 
Q 1069 891 1326 650 
Q 1584 409 2034 409 
Q 2484 409 2743 651 
Q 3003 894 3003 1313 
Q 3003 1734 2745 1975 
Q 2488 2216 2034 2216 
z
M 1403 2484 
Q 997 2584 770 2862 
Q 544 3141 544 3541 
Q 544 4100 942 4425 
Q 1341 4750 2034 4750 
Q 2731 4750 3128 4425 
Q 3525 4100 3525 3541 
Q 3525 3141 3298 2862 
Q 3072 2584 2669 2484 
Q 3125 2378 3379 2068 
Q 3634 1759 3634 1313 
Q 3634 634 3220 271 
Q 2806 -91 2034 -91 
Q 1263 -91 848 271 
Q 434 634 434 1313 
Q 434 1759 690 2068 
Q 947 2378 1403 2484 
z
M 1172 3481 
Q 1172 3119 1398 2916 
Q 1625 2713 2034 2713 
Q 2441 2713 2670 2916 
Q 2900 3119 2900 3481 
Q 2900 3844 2670 4047 
Q 2441 4250 2034 4250 
Q 1625 4250 1398 4047 
Q 1172 3844 1172 3481 
z
" transform="scale(0.015625)"/>
       </defs>
       <use xlink:href="#DejaVuSans-33"/>
       <use xlink:href="#DejaVuSans-38" x="63.623047"/>
       <use xlink:href="#DejaVuSans-20" x="127.246094"/>
       <use xlink:href="#DejaVuSans-4d" x="159.033203"/>
       <use xlink:href="#DejaVuSans-62" x="245.3125"/>
       <use xlink:href="#DejaVuSans-70" x="308.789062"/>
      </g>
     </g>
    </g>
    <g id="xtick_3">
     <g id="line2d_3">
      <g>
       <use xlink:href="#ma6c4088fe8" x="369.875313" y="50.91875" style="stroke: #000000; stroke-width: 0.8"/>
      </g>
     </g>
     <g id="text_6">
      <!-- 76 Mbp -->
      <g transform="translate(358.706875 62.477812) scale(0.06 -0.06)">
       <defs>
        <path id="DejaVuSans-37" d="M 525 4666 
L 3525 4666 
L 3525 4397 
L 1831 0 
L 1172 0 
L 2766 4134 
L 525 4134 
L 525 4666 
z
" transform="scale(0.015625)"/>
        <path id="DejaVuSans-36" d="M 2113 2584 
Q 1688 2584 1439 2293 
Q 1191 2003 1191 1497 
Q 1191 994 1439 701 
Q 1688 409 2113 409 
Q 2538 409 2786 701 
Q 3034 994 3034 1497 
Q 3034 2003 2786 2293 
Q 2538 2584 2113 2584 
z
M 3366 4563 
L 3366 3988 
Q 3128 4100 2886 4159 
Q 2644 4219 2406 4219 
Q 1781 4219 1451 3797 
Q 1122 3375 1075 2522 
Q 1259 2794 1537 2939 
Q 1816 3084 2150 3084 
Q 2853 3084 3261 2657 
Q 3669 2231 3669 1497 
Q 3669 778 3244 343 
Q 2819 -91 2113 -91 
Q 1303 -91 875 529 
Q 447 1150 447 2328 
Q 447 3434 972 4092 
Q 1497 4750 2381 4750 
Q 2619 4750 2861 4703 
Q 3103 4656 3366 4563 
z
" transform="scale(0.015625)"/>
       </defs>
       <use xlink:href="#DejaVuSans-37"/>
       <use xlink:href="#DejaVuSans-36" x="63.623047"/>
       <use xlink:href="#DejaVuSans-20" x="127.246094"/>
       <use xlink:href="#DejaVuSans-4d" x="159.033203"/>
       <use xlink:href="#DejaVuSans-62" x="245.3125"/>
       <use xlink:href="#DejaVuSans-70" x="308.789062"/>
      </g>
     </g>
    </g>
    <g id="xtick_4">
     <g id="line2d_4">
      <g>
       <use xlink:href="#ma6c4088fe8" x="534.471563" y="50.91875" style="stroke: #000000; stroke-width: 0.8"/>
      </g>
     </g>
     <g id="text_7">
      <!-- 115 Mbp -->
      <g transform="translate(521.394375 62.477812) scale(0.06 -0.06)">
       <defs>
        <path id="DejaVuSans-31" d="M 794 531 
L 1825 531 
L 1825 4091 
L 703 3866 
L 703 4441 
L 1819 4666 
L 2450 4666 
L 2450 531 
L 3481 531 
L 3481 0 
L 794 0 
L 794 531 
z
" transform="scale(0.015625)"/>
        <path id="DejaVuSans-35" d="M 691 4666 
L 3169 4666 
L 3169 4134 
L 1269 4134 
L 1269 2991 
Q 1406 3038 1543 3061 
Q 1681 3084 1819 3084 
Q 2600 3084 3056 2656 
Q 3513 2228 3513 1497 
Q 3513 744 3044 326 
Q 2575 -91 1722 -91 
Q 1428 -91 1123 -41 
Q 819 9 494 109 
L 494 744 
Q 775 591 1075 516 
Q 1375 441 1709 441 
Q 2250 441 2565 725 
Q 2881 1009 2881 1497 
Q 2881 1984 2565 2268 
Q 2250 2553 1709 2553 
Q 1456 2553 1204 2497 
Q 953 2441 691 2322 
L 691 4666 
z
" transform="scale(0.015625)"/>
       </defs>
       <use xlink:href="#DejaVuSans-31"/>
       <use xlink:href="#DejaVuSans-31" x="63.623047"/>
       <use xlink:href="#DejaVuSans-35" x="127.246094"/>
       <use xlink:href="#DejaVuSans-20" x="190.869141"/>
       <use xlink:href="#DejaVuSans-4d" x="222.65625"/>
       <use xlink:href="#DejaVuSans-62" x="308.935547"/>
       <use xlink:href="#DejaVuSans-70" x="372.412109"/>
      </g>
     </g>
    </g>
    <g id="xtick_5">
     <g id="line2d_5">
      <g>
       <use xlink:href="#ma6c4088fe8" x="699.067813" y="50.91875" style="stroke: #000000; stroke-width: 0.8"/>
      </g>
     </g>
     <g id="text_8">
      <!-- 153 Mbp -->
      <g transform="translate(685.990625 62.477812) scale(0.06 -0.06)">
       <use xlink:href="#DejaVuSans-31"/>
       <use xlink:href="#DejaVuSans-35" x="63.623047"/>
       <use xlink:href="#DejaVuSans-33" x="127.246094"/>
       <use xlink:href="#DejaVuSans-20" x="190.869141"/>
       <use xlink:href="#DejaVuSans-4d" x="222.65625"/>
       <use xlink:href="#DejaVuSans-62" x="308.935547"/>
       <use xlink:href="#DejaVuSans-70" x="372.412109"/>
      </g>
     </g>
    </g>
   </g>
   <g id="matplotlib.axis_4">
    <g id="text_9">
     <!-- ECH90 -->
     <g transform="translate(7.2 48.776979) scale(0.07 -0.07)">
      <defs>
       <path id="DejaVuSans-45" d="M 628 4666 
L 3578 4666 
L 3578 4134 
L 1259 4134 
L 1259 2753 
L 3481 2753 
L 3481 2222 
L 1259 2222 
L 1259 531 
L 3634 531 
L 3634 0 
L 628 0 
L 628 4666 
z
" transform="scale(0.015625)"/>
       <path id="DejaVuSans-43" d="M 4122 4306 
L 4122 3641 
Q 3803 3938 3442 4084 
Q 3081 4231 2675 4231 
Q 1875 4231 1450 3742 
Q 1025 3253 1025 2328 
Q 1025 1406 1450 917 
Q 1875 428 2675 428 
Q 3081 428 3442 575 
Q 3803 722 4122 1019 
L 4122 359 
Q 3791 134 3420 21 
Q 3050 -91 2638 -91 
Q 1578 -91 968 557 
Q 359 1206 359 2328 
Q 359 3453 968 4101 
Q 1578 4750 2638 4750 
Q 3056 4750 3426 4639 
Q 3797 4528 4122 4306 
z
" transform="scale(0.015625)"/>
       <path id="DejaVuSans-39" d="M 703 97 
L 703 672 
Q 941 559 1184 500 
Q 1428 441 1663 441 
Q 2288 441 2617 861 
Q 2947 1281 2994 2138 
Q 2813 1869 2534 1725 
Q 2256 1581 1919 1581 
Q 1219 1581 811 2004 
Q 403 2428 403 3163 
Q 403 3881 828 4315 
Q 1253 4750 1959 4750 
Q 2769 4750 3195 4129 
Q 3622 3509 3622 2328 
Q 3622 1225 3098 567 
Q 2575 -91 1691 -91 
Q 1453 -91 1209 -44 
Q 966 3 703 97 
z
M 1959 2075 
Q 2384 2075 2632 2365 
Q 2881 2656 2881 3163 
Q 2881 3666 2632 3958 
Q 2384 4250 1959 4250 
Q 1534 4250 1286 3958 
Q 1038 3666 1038 3163 
Q 1038 2656 1286 2365 
Q 1534 2075 1959 2075 
z
" transform="scale(0.015625)"/>
      </defs>
      <use xlink:href="#DejaVuSans-45"/>
      <use xlink:href="#DejaVuSans-43" x="63.183594"/>
      <use xlink:href="#DejaVuSans-48" x="133.007812"/>
      <use xlink:href="#DejaVuSans-39" x="208.203125"/>
      <use xlink:href="#DejaVuSans-30" x="271.826172"/>
     </g>
    </g>
   </g>
   <g id="patch_145">
    <path d="M 40.682813 50.91875 
L 699.067813 50.91875 
" style="fill: none; stroke: #000000; stroke-width: 0.8; stroke-linejoin: miter; stroke-linecap: square"/>
   </g>
  </g>
 </g>
 <defs>
  <clipPath id="p217a9717b9">
   <rect x="40.682813" y="31.025417" width="658.385" height="8.146667"/>
  </clipPath>
  <clipPath id="p53b581fe0f">
   <rect x="40.682813" y="19.27875" width="658.385" height="8.146667"/>
  </clipPath>
  <clipPath id="p71593193d1">
   <rect x="40.682813" y="42.772083" width="658.385" height="8.146667"/>
  </clipPath>
 </defs>
</svg>
