<?xml version="1.0" encoding="utf-8" standalone="no"?>
<!DOCTYPE svg PUBLIC "-//W3C//DTD SVG 1.1//EN"
  "http://www.w3.org/Graphics/SVG/1.1/DTD/svg11.dtd">
<svg xmlns:xlink="http://www.w3.org/1999/xlink" width="719.293281pt" height="70.925625pt" viewBox="0 0 719.293281 70.925625" xmlns="http://www.w3.org/2000/svg" version="1.1">
 <metadata>
  <rdf:RDF xmlns:dc="http://purl.org/dc/elements/1.1/" xmlns:cc="http://creativecommons.org/ns#" xmlns:rdf="http://www.w3.org/1999/02/22-rdf-syntax-ns#">
   <cc:Work>
    <dc:type rdf:resource="http://purl.org/dc/dcmitype/StillImage"/>
    <dc:date>2025-01-07T16:41:43.629653</dc:date>
    <dc:format>image/svg+xml</dc:format>
    <dc:creator>
     <cc:Agent>
      <dc:title>Matplotlib v3.8.4, https://matplotlib.org/</dc:title>
     </cc:Agent>
    </dc:creator>
   </cc:Work>
  </rdf:RDF>
 </metadata>
 <defs>
  <style type="text/css">*{stroke-linejoin: round; stroke-linecap: butt}</style>
 </defs>
 <g id="figure_1">
  <g id="patch_1">
   <path d="M 0 70.925625 
L 719.293281 70.925625 
L 719.293281 0 
L 0 0 
z
" style="fill: #ffffff"/>
  </g>
  <g id="axes_1">
   <g id="patch_2">
    <path d="M 53.321094 39.172083 
L 699.016094 39.172083 
L 699.016094 31.025417 
L 53.321094 31.025417 
z
" style="fill: #ffffff"/>
   </g>
   <g id="patch_3">
    <path d="M 57.530622 38.357417 
L 59.635386 38.357417 
L 59.635386 31.025417 
L 57.530622 31.025417 
z
" clip-path="url(#pd0fdeedf70)" style="fill: #d62728; opacity: 0.8"/>
   </g>
   <g id="patch_4">
    <path d="M 60.056339 38.357417 
L 67.63349 38.357417 
L 67.63349 31.025417 
L 60.056339 31.025417 
z
" clip-path="url(#pd0fdeedf70)" style="fill: #d62728; opacity: 0.8"/>
   </g>
   <g id="patch_5">
    <path d="M 88.681131 38.357417 
L 109.728772 38.357417 
L 109.728772 31.025417 
L 88.681131 31.025417 
z
" clip-path="url(#pd0fdeedf70)" style="fill: #d62728; opacity: 0.8"/>
   </g>
   <g id="patch_6">
    <path d="M 117.726875 38.357417 
L 127.829743 38.357417 
L 127.829743 31.025417 
L 117.726875 31.025417 
z
" clip-path="url(#pd0fdeedf70)" style="fill: #d62728; opacity: 0.8"/>
   </g>
   <g id="patch_7">
    <path d="M 128.671648 38.357417 
L 138.774516 38.357417 
L 138.774516 31.025417 
L 128.671648 31.025417 
z
" clip-path="url(#pd0fdeedf70)" style="fill: #d62728; opacity: 0.8"/>
   </g>
   <g id="patch_8">
    <path d="M 144.246903 38.357417 
L 158.138346 38.357417 
L 158.138346 31.025417 
L 144.246903 31.025417 
z
" clip-path="url(#pd0fdeedf70)" style="fill: #d62728; opacity: 0.8"/>
   </g>
   <g id="patch_9">
    <path d="M 181.290751 38.357417 
L 181.711704 38.357417 
L 181.711704 31.025417 
L 181.290751 31.025417 
z
" clip-path="url(#pd0fdeedf70)" style="fill: #d62728; opacity: 0.8"/>
   </g>
   <g id="patch_10">
    <path d="M 184.237421 38.357417 
L 185.079326 38.357417 
L 185.079326 31.025417 
L 184.237421 31.025417 
z
" clip-path="url(#pd0fdeedf70)" style="fill: #d62728; opacity: 0.8"/>
   </g>
   <g id="patch_11">
    <path d="M 211.599354 38.357417 
L 214.125071 38.357417 
L 214.125071 31.025417 
L 211.599354 31.025417 
z
" clip-path="url(#pd0fdeedf70)" style="fill: #d62728; opacity: 0.8"/>
   </g>
   <g id="patch_12">
    <path d="M 214.966976 38.357417 
L 228.858419 38.357417 
L 228.858419 31.025417 
L 214.966976 31.025417 
z
" clip-path="url(#pd0fdeedf70)" style="fill: #d62728; opacity: 0.8"/>
   </g>
   <g id="patch_13">
    <path d="M 236.43557 38.357417 
L 246.538438 38.357417 
L 246.538438 31.025417 
L 236.43557 31.025417 
z
" clip-path="url(#pd0fdeedf70)" style="fill: #d62728; opacity: 0.8"/>
   </g>
   <g id="patch_14">
    <path d="M 247.801296 38.357417 
L 261.271786 38.357417 
L 261.271786 31.025417 
L 247.801296 31.025417 
z
" clip-path="url(#pd0fdeedf70)" style="fill: #d62728; opacity: 0.8"/>
   </g>
   <g id="patch_15">
    <path d="M 262.534645 38.357417 
L 263.797503 38.357417 
L 263.797503 31.025417 
L 262.534645 31.025417 
z
" clip-path="url(#pd0fdeedf70)" style="fill: #d62728; opacity: 0.8"/>
   </g>
   <g id="patch_16">
    <path d="M 265.481315 38.357417 
L 266.744173 38.357417 
L 266.744173 31.025417 
L 265.481315 31.025417 
z
" clip-path="url(#pd0fdeedf70)" style="fill: #d62728; opacity: 0.8"/>
   </g>
   <g id="patch_17">
    <path d="M 274.742277 38.357417 
L 282.319427 38.357417 
L 282.319427 31.025417 
L 274.742277 31.025417 
z
" clip-path="url(#pd0fdeedf70)" style="fill: #d62728; opacity: 0.8"/>
   </g>
   <g id="patch_18">
    <path d="M 305.892785 38.357417 
L 306.734691 38.357417 
L 306.734691 31.025417 
L 305.892785 31.025417 
z
" clip-path="url(#pd0fdeedf70)" style="fill: #d62728; opacity: 0.8"/>
   </g>
   <g id="patch_19">
    <path d="M 307.155644 38.357417 
L 307.576597 38.357417 
L 307.576597 31.025417 
L 307.155644 31.025417 
z
" clip-path="url(#pd0fdeedf70)" style="fill: #d62728; opacity: 0.8"/>
   </g>
   <g id="patch_20">
    <path d="M 308.418502 38.357417 
L 308.839455 38.357417 
L 308.839455 31.025417 
L 308.418502 31.025417 
z
" clip-path="url(#pd0fdeedf70)" style="fill: #d62728; opacity: 0.8"/>
   </g>
   <g id="patch_21">
    <path d="M 314.732795 38.357417 
L 316.837559 38.357417 
L 316.837559 31.025417 
L 314.732795 31.025417 
z
" clip-path="url(#pd0fdeedf70)" style="fill: #d62728; opacity: 0.8"/>
   </g>
   <g id="patch_22">
    <path d="M 317.258511 38.357417 
L 317.679464 38.357417 
L 317.679464 31.025417 
L 317.258511 31.025417 
z
" clip-path="url(#pd0fdeedf70)" style="fill: #d62728; opacity: 0.8"/>
   </g>
   <g id="patch_23">
    <path d="M 320.626134 38.357417 
L 321.047087 38.357417 
L 321.047087 31.025417 
L 320.626134 31.025417 
z
" clip-path="url(#pd0fdeedf70)" style="fill: #d62728; opacity: 0.8"/>
   </g>
   <g id="patch_24">
    <path d="M 324.835662 38.357417 
L 325.677568 38.357417 
L 325.677568 31.025417 
L 324.835662 31.025417 
z
" clip-path="url(#pd0fdeedf70)" style="fill: #d62728; opacity: 0.8"/>
   </g>
   <g id="patch_25">
    <path d="M 327.361379 38.357417 
L 347.146162 38.357417 
L 347.146162 31.025417 
L 327.361379 31.025417 
z
" clip-path="url(#pd0fdeedf70)" style="fill: #d62728; opacity: 0.8"/>
   </g>
   <g id="patch_26">
    <path d="M 352.197595 38.357417 
L 352.618548 38.357417 
L 352.618548 31.025417 
L 352.197595 31.025417 
z
" clip-path="url(#pd0fdeedf70)" style="fill: #d62728; opacity: 0.8"/>
   </g>
   <g id="patch_27">
    <path d="M 353.039501 38.357417 
L 355.144265 38.357417 
L 355.144265 31.025417 
L 353.039501 31.025417 
z
" clip-path="url(#pd0fdeedf70)" style="fill: #d62728; opacity: 0.8"/>
   </g>
   <g id="patch_28">
    <path d="M 356.828076 38.357417 
L 357.249029 38.357417 
L 357.249029 31.025417 
L 356.828076 31.025417 
z
" clip-path="url(#pd0fdeedf70)" style="fill: #d62728; opacity: 0.8"/>
   </g>
   <g id="patch_29">
    <path d="M 360.616652 38.357417 
L 361.037605 38.357417 
L 361.037605 31.025417 
L 360.616652 31.025417 
z
" clip-path="url(#pd0fdeedf70)" style="fill: #d62728; opacity: 0.8"/>
   </g>
   <g id="patch_30">
    <path d="M 365.247133 38.357417 
L 368.614755 38.357417 
L 368.614755 31.025417 
L 365.247133 31.025417 
z
" clip-path="url(#pd0fdeedf70)" style="fill: #d62728; opacity: 0.8"/>
   </g>
   <g id="patch_31">
    <path d="M 379.138576 38.357417 
L 379.980481 38.357417 
L 379.980481 31.025417 
L 379.138576 31.025417 
z
" clip-path="url(#pd0fdeedf70)" style="fill: #d62728; opacity: 0.8"/>
   </g>
   <g id="patch_32">
    <path d="M 381.24334 38.357417 
L 382.085246 38.357417 
L 382.085246 31.025417 
L 381.24334 31.025417 
z
" clip-path="url(#pd0fdeedf70)" style="fill: #d62728; opacity: 0.8"/>
   </g>
   <g id="patch_33">
    <path d="M 397.6605 38.357417 
L 398.502406 38.357417 
L 398.502406 31.025417 
L 397.6605 31.025417 
z
" clip-path="url(#pd0fdeedf70)" style="fill: #d62728; opacity: 0.8"/>
   </g>
   <g id="patch_34">
    <path d="M 401.449075 38.357417 
L 402.290981 38.357417 
L 402.290981 31.025417 
L 401.449075 31.025417 
z
" clip-path="url(#pd0fdeedf70)" style="fill: #d62728; opacity: 0.8"/>
   </g>
   <g id="patch_35">
    <path d="M 425.864339 38.357417 
L 426.285292 38.357417 
L 426.285292 31.025417 
L 425.864339 31.025417 
z
" clip-path="url(#pd0fdeedf70)" style="fill: #d62728; opacity: 0.8"/>
   </g>
   <g id="patch_36">
    <path d="M 445.649121 38.357417 
L 451.542461 38.357417 
L 451.542461 31.025417 
L 445.649121 31.025417 
z
" clip-path="url(#pd0fdeedf70)" style="fill: #d62728; opacity: 0.8"/>
   </g>
   <g id="patch_37">
    <path d="M 462.908187 38.357417 
L 467.959621 38.357417 
L 467.959621 31.025417 
L 462.908187 31.025417 
z
" clip-path="url(#pd0fdeedf70)" style="fill: #d62728; opacity: 0.8"/>
   </g>
   <g id="patch_38">
    <path d="M 470.90629 38.357417 
L 478.904394 38.357417 
L 478.904394 31.025417 
L 470.90629 31.025417 
z
" clip-path="url(#pd0fdeedf70)" style="fill: #d62728; opacity: 0.8"/>
   </g>
   <g id="patch_39">
    <path d="M 484.797733 38.357417 
L 485.639639 38.357417 
L 485.639639 31.025417 
L 484.797733 31.025417 
z
" clip-path="url(#pd0fdeedf70)" style="fill: #d62728; opacity: 0.8"/>
   </g>
   <g id="patch_40">
    <path d="M 487.744403 38.357417 
L 496.584412 38.357417 
L 496.584412 31.025417 
L 487.744403 31.025417 
z
" clip-path="url(#pd0fdeedf70)" style="fill: #d62728; opacity: 0.8"/>
   </g>
   <g id="patch_41">
    <path d="M 500.372988 38.357417 
L 507.950139 38.357417 
L 507.950139 31.025417 
L 500.372988 31.025417 
z
" clip-path="url(#pd0fdeedf70)" style="fill: #d62728; opacity: 0.8"/>
   </g>
   <g id="patch_42">
    <path d="M 509.63395 38.357417 
L 510.054903 38.357417 
L 510.054903 31.025417 
L 509.63395 31.025417 
z
" clip-path="url(#pd0fdeedf70)" style="fill: #d62728; opacity: 0.8"/>
   </g>
   <g id="patch_43">
    <path d="M 513.422525 38.357417 
L 514.685384 38.357417 
L 514.685384 31.025417 
L 513.422525 31.025417 
z
" clip-path="url(#pd0fdeedf70)" style="fill: #d62728; opacity: 0.8"/>
   </g>
   <g id="patch_44">
    <path d="M 522.683487 38.357417 
L 525.630157 38.357417 
L 525.630157 31.025417 
L 522.683487 31.025417 
z
" clip-path="url(#pd0fdeedf70)" style="fill: #d62728; opacity: 0.8"/>
   </g>
   <g id="patch_45">
    <path d="M 534.470166 38.357417 
L 545.835892 38.357417 
L 545.835892 31.025417 
L 534.470166 31.025417 
z
" clip-path="url(#pd0fdeedf70)" style="fill: #d62728; opacity: 0.8"/>
   </g>
   <g id="patch_46">
    <path d="M 555.93876 38.357417 
L 557.201618 38.357417 
L 557.201618 31.025417 
L 555.93876 31.025417 
z
" clip-path="url(#pd0fdeedf70)" style="fill: #d62728; opacity: 0.8"/>
   </g>
   <g id="patch_47">
    <path d="M 557.622571 38.357417 
L 561.832099 38.357417 
L 561.832099 31.025417 
L 557.622571 31.025417 
z
" clip-path="url(#pd0fdeedf70)" style="fill: #d62728; opacity: 0.8"/>
   </g>
   <g id="patch_48">
    <path d="M 563.094958 38.357417 
L 564.778769 38.357417 
L 564.778769 31.025417 
L 563.094958 31.025417 
z
" clip-path="url(#pd0fdeedf70)" style="fill: #d62728; opacity: 0.8"/>
   </g>
   <g id="patch_49">
    <path d="M 582.037835 38.357417 
L 587.089269 38.357417 
L 587.089269 31.025417 
L 582.037835 31.025417 
z
" clip-path="url(#pd0fdeedf70)" style="fill: #d62728; opacity: 0.8"/>
   </g>
   <g id="patch_50">
    <path d="M 587.510221 38.357417 
L 589.194033 38.357417 
L 589.194033 31.025417 
L 587.510221 31.025417 
z
" clip-path="url(#pd0fdeedf70)" style="fill: #d62728; opacity: 0.8"/>
   </g>
   <g id="patch_51">
    <path d="M 591.71975 38.357417 
L 592.561655 38.357417 
L 592.561655 31.025417 
L 591.71975 31.025417 
z
" clip-path="url(#pd0fdeedf70)" style="fill: #d62728; opacity: 0.8"/>
   </g>
   <g id="patch_52">
    <path d="M 593.403561 38.357417 
L 597.613089 38.357417 
L 597.613089 31.025417 
L 593.403561 31.025417 
z
" clip-path="url(#pd0fdeedf70)" style="fill: #d62728; opacity: 0.8"/>
   </g>
   <g id="patch_53">
    <path d="M 598.034042 38.357417 
L 614.030249 38.357417 
L 614.030249 31.025417 
L 598.034042 31.025417 
z
" clip-path="url(#pd0fdeedf70)" style="fill: #d62728; opacity: 0.8"/>
   </g>
   <g id="patch_54">
    <path d="M 620.765494 38.357417 
L 621.186447 38.357417 
L 621.186447 31.025417 
L 620.765494 31.025417 
z
" clip-path="url(#pd0fdeedf70)" style="fill: #d62728; opacity: 0.8"/>
   </g>
   <g id="patch_55">
    <path d="M 625.395975 38.357417 
L 626.658834 38.357417 
L 626.658834 31.025417 
L 625.395975 31.025417 
z
" clip-path="url(#pd0fdeedf70)" style="fill: #d62728; opacity: 0.8"/>
   </g>
   <g id="patch_56">
    <path d="M 630.447409 38.357417 
L 633.394079 38.357417 
L 633.394079 31.025417 
L 630.447409 31.025417 
z
" clip-path="url(#pd0fdeedf70)" style="fill: #d62728; opacity: 0.8"/>
   </g>
   <g id="patch_57">
    <path d="M 646.022663 38.357417 
L 646.443616 38.357417 
L 646.443616 31.025417 
L 646.022663 31.025417 
z
" clip-path="url(#pd0fdeedf70)" style="fill: #d62728; opacity: 0.8"/>
   </g>
   <g id="patch_58">
    <path d="M 658.230295 38.357417 
L 663.702682 38.357417 
L 663.702682 31.025417 
L 658.230295 31.025417 
z
" clip-path="url(#pd0fdeedf70)" style="fill: #d62728; opacity: 0.8"/>
   </g>
   <g id="patch_59">
    <path d="M 664.544587 38.357417 
L 672.542691 38.357417 
L 672.542691 31.025417 
L 664.544587 31.025417 
z
" clip-path="url(#pd0fdeedf70)" style="fill: #d62728; opacity: 0.8"/>
   </g>
   <g id="patch_60">
    <path d="M 679.698889 38.357417 
L 691.485568 38.357417 
L 691.485568 31.025417 
L 679.698889 31.025417 
z
" clip-path="url(#pd0fdeedf70)" style="fill: #d62728; opacity: 0.8"/>
   </g>
   <g id="patch_61">
    <path d="M 691.906521 38.357417 
L 692.748426 38.357417 
L 692.748426 31.025417 
L 691.906521 31.025417 
z
" clip-path="url(#pd0fdeedf70)" style="fill: #d62728; opacity: 0.8"/>
   </g>
   <g id="matplotlib.axis_1">
    <g id="text_1">
     <!-- Fb100_full -->
     <g transform="translate(7.2 33.448281) scale(0.07 -0.07)">
      <defs>
       <path id="DejaVuSans-46" d="M 628 4666 
L 3309 4666 
L 3309 4134 
L 1259 4134 
L 1259 2759 
L 3109 2759 
L 3109 2228 
L 1259 2228 
L 1259 0 
L 628 0 
L 628 4666 
z
" transform="scale(0.015625)"/>
       <path id="DejaVuSans-62" d="M 3116 1747 
Q 3116 2381 2855 2742 
Q 2594 3103 2138 3103 
Q 1681 3103 1420 2742 
Q 1159 2381 1159 1747 
Q 1159 1113 1420 752 
Q 1681 391 2138 391 
Q 2594 391 2855 752 
Q 3116 1113 3116 1747 
z
M 1159 2969 
Q 1341 3281 1617 3432 
Q 1894 3584 2278 3584 
Q 2916 3584 3314 3078 
Q 3713 2572 3713 1747 
Q 3713 922 3314 415 
Q 2916 -91 2278 -91 
Q 1894 -91 1617 61 
Q 1341 213 1159 525 
L 1159 0 
L 581 0 
L 581 4863 
L 1159 4863 
L 1159 2969 
z
" transform="scale(0.015625)"/>
       <path id="DejaVuSans-31" d="M 794 531 
L 1825 531 
L 1825 4091 
L 703 3866 
L 703 4441 
L 1819 4666 
L 2450 4666 
L 2450 531 
L 3481 531 
L 3481 0 
L 794 0 
L 794 531 
z
" transform="scale(0.015625)"/>
       <path id="DejaVuSans-30" d="M 2034 4250 
Q 1547 4250 1301 3770 
Q 1056 3291 1056 2328 
Q 1056 1369 1301 889 
Q 1547 409 2034 409 
Q 2525 409 2770 889 
Q 3016 1369 3016 2328 
Q 3016 3291 2770 3770 
Q 2525 4250 2034 4250 
z
M 2034 4750 
Q 2819 4750 3233 4129 
Q 3647 3509 3647 2328 
Q 3647 1150 3233 529 
Q 2819 -91 2034 -91 
Q 1250 -91 836 529 
Q 422 1150 422 2328 
Q 422 3509 836 4129 
Q 1250 4750 2034 4750 
z
" transform="scale(0.015625)"/>
       <path id="DejaVuSans-5f" d="M 3263 -1063 
L 3263 -1509 
L -63 -1509 
L -63 -1063 
L 3263 -1063 
z
" transform="scale(0.015625)"/>
       <path id="DejaVuSans-66" d="M 2375 4863 
L 2375 4384 
L 1825 4384 
Q 1516 4384 1395 4259 
Q 1275 4134 1275 3809 
L 1275 3500 
L 2222 3500 
L 2222 3053 
L 1275 3053 
L 1275 0 
L 697 0 
L 697 3053 
L 147 3053 
L 147 3500 
L 697 3500 
L 697 3744 
Q 697 4328 969 4595 
Q 1241 4863 1831 4863 
L 2375 4863 
z
" transform="scale(0.015625)"/>
       <path id="DejaVuSans-75" d="M 544 1381 
L 544 3500 
L 1119 3500 
L 1119 1403 
Q 1119 906 1312 657 
Q 1506 409 1894 409 
Q 2359 409 2629 706 
Q 2900 1003 2900 1516 
L 2900 3500 
L 3475 3500 
L 3475 0 
L 2900 0 
L 2900 538 
Q 2691 219 2414 64 
Q 2138 -91 1772 -91 
Q 1169 -91 856 284 
Q 544 659 544 1381 
z
M 1991 3584 
L 1991 3584 
z
" transform="scale(0.015625)"/>
       <path id="DejaVuSans-6c" d="M 603 4863 
L 1178 4863 
L 1178 0 
L 603 0 
L 603 4863 
z
" transform="scale(0.015625)"/>
      </defs>
      <use xlink:href="#DejaVuSans-46"/>
      <use xlink:href="#DejaVuSans-62" x="57.519531"/>
      <use xlink:href="#DejaVuSans-31" x="120.996094"/>
      <use xlink:href="#DejaVuSans-30" x="184.619141"/>
      <use xlink:href="#DejaVuSans-30" x="248.242188"/>
      <use xlink:href="#DejaVuSans-5f" x="311.865234"/>
      <use xlink:href="#DejaVuSans-66" x="361.865234"/>
      <use xlink:href="#DejaVuSans-75" x="397.070312"/>
      <use xlink:href="#DejaVuSans-6c" x="460.449219"/>
      <use xlink:href="#DejaVuSans-6c" x="488.232422"/>
     </g>
    </g>
   </g>
  </g>
  <g id="axes_2">
   <g id="patch_62">
    <path d="M 53.321094 27.425417 
L 699.016094 27.425417 
L 699.016094 19.27875 
L 53.321094 19.27875 
z
" style="fill: #ffffff"/>
   </g>
   <g id="patch_63">
    <path d="M 135.140738 26.61075 
L 136.404484 26.61075 
L 136.404484 19.27875 
L 135.140738 19.27875 
z
" clip-path="url(#p4a1b8c5c0a)" style="fill: #1f77b4; opacity: 0.8"/>
   </g>
   <g id="patch_64">
    <path d="M 141.027405 26.61075 
L 142.336299 26.61075 
L 142.336299 19.27875 
L 141.027405 19.27875 
z
" clip-path="url(#p4a1b8c5c0a)" style="fill: #1f77b4; opacity: 0.8"/>
   </g>
   <g id="patch_65">
    <path d="M 205.382478 26.61075 
L 207.065027 26.61075 
L 207.065027 19.27875 
L 205.382478 19.27875 
z
" clip-path="url(#p4a1b8c5c0a)" style="fill: #1f77b4; opacity: 0.8"/>
   </g>
   <g id="patch_66">
    <path d="M 209.645859 26.61075 
L 210.487765 26.61075 
L 210.487765 19.27875 
L 209.645859 19.27875 
z
" clip-path="url(#p4a1b8c5c0a)" style="fill: #1f77b4; opacity: 0.8"/>
   </g>
   <g id="patch_67">
    <path d="M 211.313224 26.61075 
L 212.155129 26.61075 
L 212.155129 19.27875 
L 211.313224 19.27875 
z
" clip-path="url(#p4a1b8c5c0a)" style="fill: #1f77b4; opacity: 0.8"/>
   </g>
   <g id="patch_68">
    <path d="M 261.341336 26.61075 
L 262.183242 26.61075 
L 262.183242 19.27875 
L 261.341336 19.27875 
z
" clip-path="url(#p4a1b8c5c0a)" style="fill: #1f77b4; opacity: 0.8"/>
   </g>
   <g id="patch_69">
    <path d="M 263.436014 26.61075 
L 264.27792 26.61075 
L 264.27792 19.27875 
L 263.436014 19.27875 
z
" clip-path="url(#p4a1b8c5c0a)" style="fill: #1f77b4; opacity: 0.8"/>
   </g>
   <g id="patch_70">
    <path d="M 266.834194 26.61075 
L 267.6761 26.61075 
L 267.6761 19.27875 
L 266.834194 19.27875 
z
" clip-path="url(#p4a1b8c5c0a)" style="fill: #1f77b4; opacity: 0.8"/>
   </g>
   <g id="patch_71">
    <path d="M 269.457185 26.61075 
L 270.29909 26.61075 
L 270.29909 19.27875 
L 269.457185 19.27875 
z
" clip-path="url(#p4a1b8c5c0a)" style="fill: #1f77b4; opacity: 0.8"/>
   </g>
   <g id="patch_72">
    <path d="M 279.806318 26.61075 
L 280.648224 26.61075 
L 280.648224 19.27875 
L 279.806318 19.27875 
z
" clip-path="url(#p4a1b8c5c0a)" style="fill: #1f77b4; opacity: 0.8"/>
   </g>
   <g id="patch_73">
    <path d="M 280.664313 26.61075 
L 281.506218 26.61075 
L 281.506218 19.27875 
L 280.664313 19.27875 
z
" clip-path="url(#p4a1b8c5c0a)" style="fill: #1f77b4; opacity: 0.8"/>
   </g>
   <g id="patch_74">
    <path d="M 314.297268 26.61075 
L 315.967655 26.61075 
L 315.967655 19.27875 
L 314.297268 19.27875 
z
" clip-path="url(#p4a1b8c5c0a)" style="fill: #1f77b4; opacity: 0.8"/>
   </g>
   <g id="patch_75">
    <path d="M 351.313573 26.61075 
L 352.155479 26.61075 
L 352.155479 19.27875 
L 351.313573 19.27875 
z
" clip-path="url(#p4a1b8c5c0a)" style="fill: #1f77b4; opacity: 0.8"/>
   </g>
   <g id="patch_76">
    <path d="M 352.406695 26.61075 
L 353.248601 26.61075 
L 353.248601 19.27875 
L 352.406695 19.27875 
z
" clip-path="url(#p4a1b8c5c0a)" style="fill: #1f77b4; opacity: 0.8"/>
   </g>
   <g id="patch_77">
    <path d="M 355.096975 26.61075 
L 355.938881 26.61075 
L 355.938881 19.27875 
L 355.096975 19.27875 
z
" clip-path="url(#p4a1b8c5c0a)" style="fill: #1f77b4; opacity: 0.8"/>
   </g>
   <g id="patch_78">
    <path d="M 356.5935 26.61075 
L 357.435406 26.61075 
L 357.435406 19.27875 
L 356.5935 19.27875 
z
" clip-path="url(#p4a1b8c5c0a)" style="fill: #1f77b4; opacity: 0.8"/>
   </g>
   <g id="patch_79">
    <path d="M 365.843194 26.61075 
L 366.685099 26.61075 
L 366.685099 19.27875 
L 365.843194 19.27875 
z
" clip-path="url(#p4a1b8c5c0a)" style="fill: #1f77b4; opacity: 0.8"/>
   </g>
   <g id="patch_80">
    <path d="M 367.081165 26.61075 
L 367.923071 26.61075 
L 367.923071 19.27875 
L 367.081165 19.27875 
z
" clip-path="url(#p4a1b8c5c0a)" style="fill: #1f77b4; opacity: 0.8"/>
   </g>
   <g id="patch_81">
    <path d="M 458.071229 26.61075 
L 459.28598 26.61075 
L 459.28598 19.27875 
L 458.071229 19.27875 
z
" clip-path="url(#p4a1b8c5c0a)" style="fill: #1f77b4; opacity: 0.8"/>
   </g>
   <g id="patch_82">
    <path d="M 508.278886 26.61075 
L 509.120791 26.61075 
L 509.120791 19.27875 
L 508.278886 19.27875 
z
" clip-path="url(#p4a1b8c5c0a)" style="fill: #1f77b4; opacity: 0.8"/>
   </g>
   <g id="patch_83">
    <path d="M 509.884274 26.61075 
L 510.726179 26.61075 
L 510.726179 19.27875 
L 509.884274 19.27875 
z
" clip-path="url(#p4a1b8c5c0a)" style="fill: #1f77b4; opacity: 0.8"/>
   </g>
   <g id="patch_84">
    <path d="M 521.432756 26.61075 
L 522.274662 26.61075 
L 522.274662 19.27875 
L 521.432756 19.27875 
z
" clip-path="url(#p4a1b8c5c0a)" style="fill: #1f77b4; opacity: 0.8"/>
   </g>
   <g id="patch_85">
    <path d="M 522.668922 26.61075 
L 523.510828 26.61075 
L 523.510828 19.27875 
L 522.668922 19.27875 
z
" clip-path="url(#p4a1b8c5c0a)" style="fill: #1f77b4; opacity: 0.8"/>
   </g>
   <g id="patch_86">
    <path d="M 575.210982 26.61075 
L 576.469332 26.61075 
L 576.469332 19.27875 
L 575.210982 19.27875 
z
" clip-path="url(#p4a1b8c5c0a)" style="fill: #1f77b4; opacity: 0.8"/>
   </g>
   <g id="patch_87">
    <path d="M 586.830749 26.61075 
L 587.672654 26.61075 
L 587.672654 19.27875 
L 586.830749 19.27875 
z
" clip-path="url(#p4a1b8c5c0a)" style="fill: #1f77b4; opacity: 0.8"/>
   </g>
   <g id="patch_88">
    <path d="M 588.537477 26.61075 
L 589.379382 26.61075 
L 589.379382 19.27875 
L 588.537477 19.27875 
z
" clip-path="url(#p4a1b8c5c0a)" style="fill: #1f77b4; opacity: 0.8"/>
   </g>
   <g id="patch_89">
    <path d="M 593.419473 26.61075 
L 594.261379 26.61075 
L 594.261379 19.27875 
L 593.419473 19.27875 
z
" clip-path="url(#p4a1b8c5c0a)" style="fill: #1f77b4; opacity: 0.8"/>
   </g>
   <g id="patch_90">
    <path d="M 594.673853 26.61075 
L 595.515759 26.61075 
L 595.515759 19.27875 
L 594.673853 19.27875 
z
" clip-path="url(#p4a1b8c5c0a)" style="fill: #1f77b4; opacity: 0.8"/>
   </g>
   <g id="patch_91">
    <path d="M 599.022944 26.61075 
L 599.86485 26.61075 
L 599.86485 19.27875 
L 599.022944 19.27875 
z
" clip-path="url(#p4a1b8c5c0a)" style="fill: #1f77b4; opacity: 0.8"/>
   </g>
   <g id="patch_92">
    <path d="M 600.283218 26.61075 
L 601.125124 26.61075 
L 601.125124 19.27875 
L 600.283218 19.27875 
z
" clip-path="url(#p4a1b8c5c0a)" style="fill: #1f77b4; opacity: 0.8"/>
   </g>
   <g id="patch_93">
    <path d="M 687.72073 26.61075 
L 688.562636 26.61075 
L 688.562636 19.27875 
L 687.72073 19.27875 
z
" clip-path="url(#p4a1b8c5c0a)" style="fill: #1f77b4; opacity: 0.8"/>
   </g>
   <g id="patch_94">
    <path d="M 689.441455 26.61075 
L 690.28336 26.61075 
L 690.28336 19.27875 
L 689.441455 19.27875 
z
" clip-path="url(#p4a1b8c5c0a)" style="fill: #1f77b4; opacity: 0.8"/>
   </g>
   <g id="matplotlib.axis_2">
    <g id="text_2">
     <!-- ECH90 -->
     <g transform="translate(19.838281 21.896302) scale(0.07 -0.07)">
      <defs>
       <path id="DejaVuSans-45" d="M 628 4666 
L 3578 4666 
L 3578 4134 
L 1259 4134 
L 1259 2753 
L 3481 2753 
L 3481 2222 
L 1259 2222 
L 1259 531 
L 3634 531 
L 3634 0 
L 628 0 
L 628 4666 
z
" transform="scale(0.015625)"/>
       <path id="DejaVuSans-43" d="M 4122 4306 
L 4122 3641 
Q 3803 3938 3442 4084 
Q 3081 4231 2675 4231 
Q 1875 4231 1450 3742 
Q 1025 3253 1025 2328 
Q 1025 1406 1450 917 
Q 1875 428 2675 428 
Q 3081 428 3442 575 
Q 3803 722 4122 1019 
L 4122 359 
Q 3791 134 3420 21 
Q 3050 -91 2638 -91 
Q 1578 -91 968 557 
Q 359 1206 359 2328 
Q 359 3453 968 4101 
Q 1578 4750 2638 4750 
Q 3056 4750 3426 4639 
Q 3797 4528 4122 4306 
z
" transform="scale(0.015625)"/>
       <path id="DejaVuSans-48" d="M 628 4666 
L 1259 4666 
L 1259 2753 
L 3553 2753 
L 3553 4666 
L 4184 4666 
L 4184 0 
L 3553 0 
L 3553 2222 
L 1259 2222 
L 1259 0 
L 628 0 
L 628 4666 
z
" transform="scale(0.015625)"/>
       <path id="DejaVuSans-39" d="M 703 97 
L 703 672 
Q 941 559 1184 500 
Q 1428 441 1663 441 
Q 2288 441 2617 861 
Q 2947 1281 2994 2138 
Q 2813 1869 2534 1725 
Q 2256 1581 1919 1581 
Q 1219 1581 811 2004 
Q 403 2428 403 3163 
Q 403 3881 828 4315 
Q 1253 4750 1959 4750 
Q 2769 4750 3195 4129 
Q 3622 3509 3622 2328 
Q 3622 1225 3098 567 
Q 2575 -91 1691 -91 
Q 1453 -91 1209 -44 
Q 966 3 703 97 
z
M 1959 2075 
Q 2384 2075 2632 2365 
Q 2881 2656 2881 3163 
Q 2881 3666 2632 3958 
Q 2384 4250 1959 4250 
Q 1534 4250 1286 3958 
Q 1038 3666 1038 3163 
Q 1038 2656 1286 2365 
Q 1534 2075 1959 2075 
z
" transform="scale(0.015625)"/>
      </defs>
      <use xlink:href="#DejaVuSans-45"/>
      <use xlink:href="#DejaVuSans-43" x="63.183594"/>
      <use xlink:href="#DejaVuSans-48" x="133.007812"/>
      <use xlink:href="#DejaVuSans-39" x="208.203125"/>
      <use xlink:href="#DejaVuSans-30" x="271.826172"/>
     </g>
    </g>
   </g>
   <g id="text_3">
    <!-- chrX -->
    <g transform="translate(53.321094 13.27875) scale(0.08 -0.08)">
     <defs>
      <path id="DejaVuSans-63" d="M 3122 3366 
L 3122 2828 
Q 2878 2963 2633 3030 
Q 2388 3097 2138 3097 
Q 1578 3097 1268 2742 
Q 959 2388 959 1747 
Q 959 1106 1268 751 
Q 1578 397 2138 397 
Q 2388 397 2633 464 
Q 2878 531 3122 666 
L 3122 134 
Q 2881 22 2623 -34 
Q 2366 -91 2075 -91 
Q 1284 -91 818 406 
Q 353 903 353 1747 
Q 353 2603 823 3093 
Q 1294 3584 2113 3584 
Q 2378 3584 2631 3529 
Q 2884 3475 3122 3366 
z
" transform="scale(0.015625)"/>
      <path id="DejaVuSans-68" d="M 3513 2113 
L 3513 0 
L 2938 0 
L 2938 2094 
Q 2938 2591 2744 2837 
Q 2550 3084 2163 3084 
Q 1697 3084 1428 2787 
Q 1159 2491 1159 1978 
L 1159 0 
L 581 0 
L 581 4863 
L 1159 4863 
L 1159 2956 
Q 1366 3272 1645 3428 
Q 1925 3584 2291 3584 
Q 2894 3584 3203 3211 
Q 3513 2838 3513 2113 
z
" transform="scale(0.015625)"/>
      <path id="DejaVuSans-72" d="M 2631 2963 
Q 2534 3019 2420 3045 
Q 2306 3072 2169 3072 
Q 1681 3072 1420 2755 
Q 1159 2438 1159 1844 
L 1159 0 
L 581 0 
L 581 3500 
L 1159 3500 
L 1159 2956 
Q 1341 3275 1631 3429 
Q 1922 3584 2338 3584 
Q 2397 3584 2469 3576 
Q 2541 3569 2628 3553 
L 2631 2963 
z
" transform="scale(0.015625)"/>
      <path id="DejaVuSans-58" d="M 403 4666 
L 1081 4666 
L 2241 2931 
L 3406 4666 
L 4084 4666 
L 2584 2425 
L 4184 0 
L 3506 0 
L 2194 1984 
L 872 0 
L 191 0 
L 1856 2491 
L 403 4666 
z
" transform="scale(0.015625)"/>
     </defs>
     <use xlink:href="#DejaVuSans-63"/>
     <use xlink:href="#DejaVuSans-68" x="54.980469"/>
     <use xlink:href="#DejaVuSans-72" x="118.359375"/>
     <use xlink:href="#DejaVuSans-58" x="159.472656"/>
    </g>
   </g>
  </g>
  <g id="axes_3">
   <g id="patch_95">
    <path d="M 53.321094 50.91875 
L 699.016094 50.91875 
L 699.016094 42.772083 
L 53.321094 42.772083 
z
" style="fill: #ffffff"/>
   </g>
   <g id="patch_96">
    <path d="M 135.140738 50.104083 
L 136.404484 50.104083 
L 136.404484 42.772083 
L 135.140738 42.772083 
z
" clip-path="url(#p333e176f25)" style="fill: #2ca02c; opacity: 0.8"/>
   </g>
   <g id="patch_97">
    <path d="M 211.599354 50.104083 
L 212.155129 50.104083 
L 212.155129 42.772083 
L 211.599354 42.772083 
z
" clip-path="url(#p333e176f25)" style="fill: #2ca02c; opacity: 0.8"/>
   </g>
   <g id="patch_98">
    <path d="M 263.436014 50.104083 
L 263.797503 50.104083 
L 263.797503 42.772083 
L 263.436014 42.772083 
z
" clip-path="url(#p333e176f25)" style="fill: #2ca02c; opacity: 0.8"/>
   </g>
   <g id="patch_99">
    <path d="M 279.806318 50.104083 
L 280.648224 50.104083 
L 280.648224 42.772083 
L 279.806318 42.772083 
z
" clip-path="url(#p333e176f25)" style="fill: #2ca02c; opacity: 0.8"/>
   </g>
   <g id="patch_100">
    <path d="M 280.664313 50.104083 
L 281.506218 50.104083 
L 281.506218 42.772083 
L 280.664313 42.772083 
z
" clip-path="url(#p333e176f25)" style="fill: #2ca02c; opacity: 0.8"/>
   </g>
   <g id="patch_101">
    <path d="M 314.732795 50.104083 
L 315.967655 50.104083 
L 315.967655 42.772083 
L 314.732795 42.772083 
z
" clip-path="url(#p333e176f25)" style="fill: #2ca02c; opacity: 0.8"/>
   </g>
   <g id="patch_102">
    <path d="M 352.406695 50.104083 
L 352.618548 50.104083 
L 352.618548 42.772083 
L 352.406695 42.772083 
z
" clip-path="url(#p333e176f25)" style="fill: #2ca02c; opacity: 0.8"/>
   </g>
   <g id="patch_103">
    <path d="M 353.039501 50.104083 
L 353.248601 50.104083 
L 353.248601 42.772083 
L 353.039501 42.772083 
z
" clip-path="url(#p333e176f25)" style="fill: #2ca02c; opacity: 0.8"/>
   </g>
   <g id="patch_104">
    <path d="M 355.096975 50.104083 
L 355.144265 50.104083 
L 355.144265 42.772083 
L 355.096975 42.772083 
z
" clip-path="url(#p333e176f25)" style="fill: #2ca02c; opacity: 0.8"/>
   </g>
   <g id="patch_105">
    <path d="M 356.828076 50.104083 
L 357.249029 50.104083 
L 357.249029 42.772083 
L 356.828076 42.772083 
z
" clip-path="url(#p333e176f25)" style="fill: #2ca02c; opacity: 0.8"/>
   </g>
   <g id="patch_106">
    <path d="M 365.843194 50.104083 
L 366.685099 50.104083 
L 366.685099 42.772083 
L 365.843194 42.772083 
z
" clip-path="url(#p333e176f25)" style="fill: #2ca02c; opacity: 0.8"/>
   </g>
   <g id="patch_107">
    <path d="M 367.081165 50.104083 
L 367.923071 50.104083 
L 367.923071 42.772083 
L 367.081165 42.772083 
z
" clip-path="url(#p333e176f25)" style="fill: #2ca02c; opacity: 0.8"/>
   </g>
   <g id="patch_108">
    <path d="M 509.884274 50.104083 
L 510.054903 50.104083 
L 510.054903 42.772083 
L 509.884274 42.772083 
z
" clip-path="url(#p333e176f25)" style="fill: #2ca02c; opacity: 0.8"/>
   </g>
   <g id="patch_109">
    <path d="M 522.683487 50.104083 
L 523.510828 50.104083 
L 523.510828 42.772083 
L 522.683487 42.772083 
z
" clip-path="url(#p333e176f25)" style="fill: #2ca02c; opacity: 0.8"/>
   </g>
   <g id="patch_110">
    <path d="M 586.830749 50.104083 
L 587.089269 50.104083 
L 587.089269 42.772083 
L 586.830749 42.772083 
z
" clip-path="url(#p333e176f25)" style="fill: #2ca02c; opacity: 0.8"/>
   </g>
   <g id="patch_111">
    <path d="M 587.510221 50.104083 
L 587.672654 50.104083 
L 587.672654 42.772083 
L 587.510221 42.772083 
z
" clip-path="url(#p333e176f25)" style="fill: #2ca02c; opacity: 0.8"/>
   </g>
   <g id="patch_112">
    <path d="M 588.537477 50.104083 
L 589.194033 50.104083 
L 589.194033 42.772083 
L 588.537477 42.772083 
z
" clip-path="url(#p333e176f25)" style="fill: #2ca02c; opacity: 0.8"/>
   </g>
   <g id="patch_113">
    <path d="M 593.419473 50.104083 
L 594.261379 50.104083 
L 594.261379 42.772083 
L 593.419473 42.772083 
z
" clip-path="url(#p333e176f25)" style="fill: #2ca02c; opacity: 0.8"/>
   </g>
   <g id="patch_114">
    <path d="M 594.673853 50.104083 
L 595.515759 50.104083 
L 595.515759 42.772083 
L 594.673853 42.772083 
z
" clip-path="url(#p333e176f25)" style="fill: #2ca02c; opacity: 0.8"/>
   </g>
   <g id="patch_115">
    <path d="M 599.022944 50.104083 
L 599.86485 50.104083 
L 599.86485 42.772083 
L 599.022944 42.772083 
z
" clip-path="url(#p333e176f25)" style="fill: #2ca02c; opacity: 0.8"/>
   </g>
   <g id="patch_116">
    <path d="M 600.283218 50.104083 
L 601.125124 50.104083 
L 601.125124 42.772083 
L 600.283218 42.772083 
z
" clip-path="url(#p333e176f25)" style="fill: #2ca02c; opacity: 0.8"/>
   </g>
   <g id="patch_117">
    <path d="M 687.72073 50.104083 
L 688.562636 50.104083 
L 688.562636 42.772083 
L 687.72073 42.772083 
z
" clip-path="url(#p333e176f25)" style="fill: #2ca02c; opacity: 0.8"/>
   </g>
   <g id="patch_118">
    <path d="M 689.441455 50.104083 
L 690.28336 50.104083 
L 690.28336 42.772083 
L 689.441455 42.772083 
z
" clip-path="url(#p333e176f25)" style="fill: #2ca02c; opacity: 0.8"/>
   </g>
   <g id="matplotlib.axis_3">
    <g id="xtick_1">
     <g id="line2d_1">
      <defs>
       <path id="m506dbc6e9a" d="M 0 0 
L 0 3.5 
" style="stroke: #000000; stroke-width: 0.8"/>
      </defs>
      <g>
       <use xlink:href="#m506dbc6e9a" x="53.321094" y="50.91875" style="stroke: #000000; stroke-width: 0.8"/>
      </g>
     </g>
     <g id="text_4">
      <!-- 0 Mbp -->
      <g transform="translate(44.061406 62.477812) scale(0.06 -0.06)">
       <defs>
        <path id="DejaVuSans-20" transform="scale(0.015625)"/>
        <path id="DejaVuSans-4d" d="M 628 4666 
L 1569 4666 
L 2759 1491 
L 3956 4666 
L 4897 4666 
L 4897 0 
L 4281 0 
L 4281 4097 
L 3078 897 
L 2444 897 
L 1241 4097 
L 1241 0 
L 628 0 
L 628 4666 
z
" transform="scale(0.015625)"/>
        <path id="DejaVuSans-70" d="M 1159 525 
L 1159 -1331 
L 581 -1331 
L 581 3500 
L 1159 3500 
L 1159 2969 
Q 1341 3281 1617 3432 
Q 1894 3584 2278 3584 
Q 2916 3584 3314 3078 
Q 3713 2572 3713 1747 
Q 3713 922 3314 415 
Q 2916 -91 2278 -91 
Q 1894 -91 1617 61 
Q 1341 213 1159 525 
z
M 3116 1747 
Q 3116 2381 2855 2742 
Q 2594 3103 2138 3103 
Q 1681 3103 1420 2742 
Q 1159 2381 1159 1747 
Q 1159 1113 1420 752 
Q 1681 391 2138 391 
Q 2594 391 2855 752 
Q 3116 1113 3116 1747 
z
" transform="scale(0.015625)"/>
       </defs>
       <use xlink:href="#DejaVuSans-30"/>
       <use xlink:href="#DejaVuSans-20" x="63.623047"/>
       <use xlink:href="#DejaVuSans-4d" x="95.410156"/>
       <use xlink:href="#DejaVuSans-62" x="181.689453"/>
       <use xlink:href="#DejaVuSans-70" x="245.166016"/>
      </g>
     </g>
    </g>
    <g id="xtick_2">
     <g id="line2d_2">
      <g>
       <use xlink:href="#m506dbc6e9a" x="214.744844" y="50.91875" style="stroke: #000000; stroke-width: 0.8"/>
      </g>
     </g>
     <g id="text_5">
      <!-- 38 Mbp -->
      <g transform="translate(203.576406 62.477812) scale(0.06 -0.06)">
       <defs>
        <path id="DejaVuSans-33" d="M 2597 2516 
Q 3050 2419 3304 2112 
Q 3559 1806 3559 1356 
Q 3559 666 3084 287 
Q 2609 -91 1734 -91 
Q 1441 -91 1130 -33 
Q 819 25 488 141 
L 488 750 
Q 750 597 1062 519 
Q 1375 441 1716 441 
Q 2309 441 2620 675 
Q 2931 909 2931 1356 
Q 2931 1769 2642 2001 
Q 2353 2234 1838 2234 
L 1294 2234 
L 1294 2753 
L 1863 2753 
Q 2328 2753 2575 2939 
Q 2822 3125 2822 3475 
Q 2822 3834 2567 4026 
Q 2313 4219 1838 4219 
Q 1578 4219 1281 4162 
Q 984 4106 628 3988 
L 628 4550 
Q 988 4650 1302 4700 
Q 1616 4750 1894 4750 
Q 2613 4750 3031 4423 
Q 3450 4097 3450 3541 
Q 3450 3153 3228 2886 
Q 3006 2619 2597 2516 
z
" transform="scale(0.015625)"/>
        <path id="DejaVuSans-38" d="M 2034 2216 
Q 1584 2216 1326 1975 
Q 1069 1734 1069 1313 
Q 1069 891 1326 650 
Q 1584 409 2034 409 
Q 2484 409 2743 651 
Q 3003 894 3003 1313 
Q 3003 1734 2745 1975 
Q 2488 2216 2034 2216 
z
M 1403 2484 
Q 997 2584 770 2862 
Q 544 3141 544 3541 
Q 544 4100 942 4425 
Q 1341 4750 2034 4750 
Q 2731 4750 3128 4425 
Q 3525 4100 3525 3541 
Q 3525 3141 3298 2862 
Q 3072 2584 2669 2484 
Q 3125 2378 3379 2068 
Q 3634 1759 3634 1313 
Q 3634 634 3220 271 
Q 2806 -91 2034 -91 
Q 1263 -91 848 271 
Q 434 634 434 1313 
Q 434 1759 690 2068 
Q 947 2378 1403 2484 
z
M 1172 3481 
Q 1172 3119 1398 2916 
Q 1625 2713 2034 2713 
Q 2441 2713 2670 2916 
Q 2900 3119 2900 3481 
Q 2900 3844 2670 4047 
Q 2441 4250 2034 4250 
Q 1625 4250 1398 4047 
Q 1172 3844 1172 3481 
z
" transform="scale(0.015625)"/>
       </defs>
       <use xlink:href="#DejaVuSans-33"/>
       <use xlink:href="#DejaVuSans-38" x="63.623047"/>
       <use xlink:href="#DejaVuSans-20" x="127.246094"/>
       <use xlink:href="#DejaVuSans-4d" x="159.033203"/>
       <use xlink:href="#DejaVuSans-62" x="245.3125"/>
       <use xlink:href="#DejaVuSans-70" x="308.789062"/>
      </g>
     </g>
    </g>
    <g id="xtick_3">
     <g id="line2d_3">
      <g>
       <use xlink:href="#m506dbc6e9a" x="376.168594" y="50.91875" style="stroke: #000000; stroke-width: 0.8"/>
      </g>
     </g>
     <g id="text_6">
      <!-- 76 Mbp -->
      <g transform="translate(365.000156 62.477812) scale(0.06 -0.06)">
       <defs>
        <path id="DejaVuSans-37" d="M 525 4666 
L 3525 4666 
L 3525 4397 
L 1831 0 
L 1172 0 
L 2766 4134 
L 525 4134 
L 525 4666 
z
" transform="scale(0.015625)"/>
        <path id="DejaVuSans-36" d="M 2113 2584 
Q 1688 2584 1439 2293 
Q 1191 2003 1191 1497 
Q 1191 994 1439 701 
Q 1688 409 2113 409 
Q 2538 409 2786 701 
Q 3034 994 3034 1497 
Q 3034 2003 2786 2293 
Q 2538 2584 2113 2584 
z
M 3366 4563 
L 3366 3988 
Q 3128 4100 2886 4159 
Q 2644 4219 2406 4219 
Q 1781 4219 1451 3797 
Q 1122 3375 1075 2522 
Q 1259 2794 1537 2939 
Q 1816 3084 2150 3084 
Q 2853 3084 3261 2657 
Q 3669 2231 3669 1497 
Q 3669 778 3244 343 
Q 2819 -91 2113 -91 
Q 1303 -91 875 529 
Q 447 1150 447 2328 
Q 447 3434 972 4092 
Q 1497 4750 2381 4750 
Q 2619 4750 2861 4703 
Q 3103 4656 3366 4563 
z
" transform="scale(0.015625)"/>
       </defs>
       <use xlink:href="#DejaVuSans-37"/>
       <use xlink:href="#DejaVuSans-36" x="63.623047"/>
       <use xlink:href="#DejaVuSans-20" x="127.246094"/>
       <use xlink:href="#DejaVuSans-4d" x="159.033203"/>
       <use xlink:href="#DejaVuSans-62" x="245.3125"/>
       <use xlink:href="#DejaVuSans-70" x="308.789062"/>
      </g>
     </g>
    </g>
    <g id="xtick_4">
     <g id="line2d_4">
      <g>
       <use xlink:href="#m506dbc6e9a" x="537.592344" y="50.91875" style="stroke: #000000; stroke-width: 0.8"/>
      </g>
     </g>
     <g id="text_7">
      <!-- 115 Mbp -->
      <g transform="translate(524.515156 62.477812) scale(0.06 -0.06)">
       <defs>
        <path id="DejaVuSans-35" d="M 691 4666 
L 3169 4666 
L 3169 4134 
L 1269 4134 
L 1269 2991 
Q 1406 3038 1543 3061 
Q 1681 3084 1819 3084 
Q 2600 3084 3056 2656 
Q 3513 2228 3513 1497 
Q 3513 744 3044 326 
Q 2575 -91 1722 -91 
Q 1428 -91 1123 -41 
Q 819 9 494 109 
L 494 744 
Q 775 591 1075 516 
Q 1375 441 1709 441 
Q 2250 441 2565 725 
Q 2881 1009 2881 1497 
Q 2881 1984 2565 2268 
Q 2250 2553 1709 2553 
Q 1456 2553 1204 2497 
Q 953 2441 691 2322 
L 691 4666 
z
" transform="scale(0.015625)"/>
       </defs>
       <use xlink:href="#DejaVuSans-31"/>
       <use xlink:href="#DejaVuSans-31" x="63.623047"/>
       <use xlink:href="#DejaVuSans-35" x="127.246094"/>
       <use xlink:href="#DejaVuSans-20" x="190.869141"/>
       <use xlink:href="#DejaVuSans-4d" x="222.65625"/>
       <use xlink:href="#DejaVuSans-62" x="308.935547"/>
       <use xlink:href="#DejaVuSans-70" x="372.412109"/>
      </g>
     </g>
    </g>
    <g id="xtick_5">
     <g id="line2d_5">
      <g>
       <use xlink:href="#m506dbc6e9a" x="699.016094" y="50.91875" style="stroke: #000000; stroke-width: 0.8"/>
      </g>
     </g>
     <g id="text_8">
      <!-- 153 Mbp -->
      <g transform="translate(685.938906 62.477812) scale(0.06 -0.06)">
       <use xlink:href="#DejaVuSans-31"/>
       <use xlink:href="#DejaVuSans-35" x="63.623047"/>
       <use xlink:href="#DejaVuSans-33" x="127.246094"/>
       <use xlink:href="#DejaVuSans-20" x="190.869141"/>
       <use xlink:href="#DejaVuSans-4d" x="222.65625"/>
       <use xlink:href="#DejaVuSans-62" x="308.935547"/>
       <use xlink:href="#DejaVuSans-70" x="372.412109"/>
      </g>
     </g>
    </g>
   </g>
   <g id="matplotlib.axis_4">
    <g id="text_9">
     <!-- Intersect -->
     <g transform="translate(12.343906 45.389635) scale(0.07 -0.07)">
      <defs>
       <path id="DejaVuSans-49" d="M 628 4666 
L 1259 4666 
L 1259 0 
L 628 0 
L 628 4666 
z
" transform="scale(0.015625)"/>
       <path id="DejaVuSans-6e" d="M 3513 2113 
L 3513 0 
L 2938 0 
L 2938 2094 
Q 2938 2591 2744 2837 
Q 2550 3084 2163 3084 
Q 1697 3084 1428 2787 
Q 1159 2491 1159 1978 
L 1159 0 
L 581 0 
L 581 3500 
L 1159 3500 
L 1159 2956 
Q 1366 3272 1645 3428 
Q 1925 3584 2291 3584 
Q 2894 3584 3203 3211 
Q 3513 2838 3513 2113 
z
" transform="scale(0.015625)"/>
       <path id="DejaVuSans-74" d="M 1172 4494 
L 1172 3500 
L 2356 3500 
L 2356 3053 
L 1172 3053 
L 1172 1153 
Q 1172 725 1289 603 
Q 1406 481 1766 481 
L 2356 481 
L 2356 0 
L 1766 0 
Q 1100 0 847 248 
Q 594 497 594 1153 
L 594 3053 
L 172 3053 
L 172 3500 
L 594 3500 
L 594 4494 
L 1172 4494 
z
" transform="scale(0.015625)"/>
       <path id="DejaVuSans-65" d="M 3597 1894 
L 3597 1613 
L 953 1613 
Q 991 1019 1311 708 
Q 1631 397 2203 397 
Q 2534 397 2845 478 
Q 3156 559 3463 722 
L 3463 178 
Q 3153 47 2828 -22 
Q 2503 -91 2169 -91 
Q 1331 -91 842 396 
Q 353 884 353 1716 
Q 353 2575 817 3079 
Q 1281 3584 2069 3584 
Q 2775 3584 3186 3129 
Q 3597 2675 3597 1894 
z
M 3022 2063 
Q 3016 2534 2758 2815 
Q 2500 3097 2075 3097 
Q 1594 3097 1305 2825 
Q 1016 2553 972 2059 
L 3022 2063 
z
" transform="scale(0.015625)"/>
       <path id="DejaVuSans-73" d="M 2834 3397 
L 2834 2853 
Q 2591 2978 2328 3040 
Q 2066 3103 1784 3103 
Q 1356 3103 1142 2972 
Q 928 2841 928 2578 
Q 928 2378 1081 2264 
Q 1234 2150 1697 2047 
L 1894 2003 
Q 2506 1872 2764 1633 
Q 3022 1394 3022 966 
Q 3022 478 2636 193 
Q 2250 -91 1575 -91 
Q 1294 -91 989 -36 
Q 684 19 347 128 
L 347 722 
Q 666 556 975 473 
Q 1284 391 1588 391 
Q 1994 391 2212 530 
Q 2431 669 2431 922 
Q 2431 1156 2273 1281 
Q 2116 1406 1581 1522 
L 1381 1569 
Q 847 1681 609 1914 
Q 372 2147 372 2553 
Q 372 3047 722 3315 
Q 1072 3584 1716 3584 
Q 2034 3584 2315 3537 
Q 2597 3491 2834 3397 
z
" transform="scale(0.015625)"/>
      </defs>
      <use xlink:href="#DejaVuSans-49"/>
      <use xlink:href="#DejaVuSans-6e" x="29.492188"/>
      <use xlink:href="#DejaVuSans-74" x="92.871094"/>
      <use xlink:href="#DejaVuSans-65" x="132.080078"/>
      <use xlink:href="#DejaVuSans-72" x="193.603516"/>
      <use xlink:href="#DejaVuSans-73" x="234.716797"/>
      <use xlink:href="#DejaVuSans-65" x="286.816406"/>
      <use xlink:href="#DejaVuSans-63" x="348.339844"/>
      <use xlink:href="#DejaVuSans-74" x="403.320312"/>
     </g>
    </g>
   </g>
   <g id="patch_119">
    <path d="M 53.321094 50.91875 
L 699.016094 50.91875 
" style="fill: none; stroke: #000000; stroke-width: 0.8; stroke-linejoin: miter; stroke-linecap: square"/>
   </g>
  </g>
 </g>
 <defs>
  <clipPath id="pd0fdeedf70">
   <rect x="53.321094" y="31.025417" width="645.695" height="8.146667"/>
  </clipPath>
  <clipPath id="p4a1b8c5c0a">
   <rect x="53.321094" y="19.27875" width="645.695" height="8.146667"/>
  </clipPath>
  <clipPath id="p333e176f25">
   <rect x="53.321094" y="42.772083" width="645.695" height="8.146667"/>
  </clipPath>
 </defs>
</svg>
