<?xml version="1.0" encoding="utf-8" standalone="no"?>
<!DOCTYPE svg PUBLIC "-//W3C//DTD SVG 1.1//EN"
  "http://www.w3.org/Graphics/SVG/1.1/DTD/svg11.dtd">
<svg xmlns:xlink="http://www.w3.org/1999/xlink" width="712.801875pt" height="154.076562pt" viewBox="0 0 712.801875 154.076562" xmlns="http://www.w3.org/2000/svg" version="1.1">
 <metadata>
  <rdf:RDF xmlns:dc="http://purl.org/dc/elements/1.1/" xmlns:cc="http://creativecommons.org/ns#" xmlns:rdf="http://www.w3.org/1999/02/22-rdf-syntax-ns#">
   <cc:Work>
    <dc:type rdf:resource="http://purl.org/dc/dcmitype/StillImage"/>
    <dc:date>2024-12-06T14:44:01.505972</dc:date>
    <dc:format>image/svg+xml</dc:format>
    <dc:creator>
     <cc:Agent>
      <dc:title>Matplotlib v3.8.4, https://matplotlib.org/</dc:title>
     </cc:Agent>
    </dc:creator>
   </cc:Work>
  </rdf:RDF>
 </metadata>
 <defs>
  <style type="text/css">*{stroke-linejoin: round; stroke-linecap: butt}</style>
 </defs>
 <g id="figure_1">
  <g id="patch_1">
   <path d="M -0 154.076562 
L 712.801875 154.076562 
L 712.801875 0 
L -0 0 
z
" style="fill: #ffffff"/>
  </g>
  <g id="axes_1">
   <g id="patch_2">
    <path d="M 59.326563 88.931771 
L 683.806562 88.931771 
L 683.806562 62.065104 
L 59.326563 62.065104 
z
" style="fill: #ffffff"/>
   </g>
   <g id="patch_3">
    <path d="M 62.99066 86.245104 
L 65.840514 86.245104 
L 65.840514 62.065104 
L 62.99066 62.065104 
z
" clip-path="url(#p82d637858b)" style="fill: #d62728; opacity: 0.6"/>
   </g>
   <g id="patch_4">
    <path d="M 66.247636 86.245104 
L 69.911734 86.245104 
L 69.911734 62.065104 
L 66.247636 62.065104 
z
" clip-path="url(#p82d637858b)" style="fill: #d62728; opacity: 0.6"/>
   </g>
   <g id="patch_5">
    <path d="M 71.133099 86.245104 
L 71.947343 86.245104 
L 71.947343 62.065104 
L 71.133099 62.065104 
z
" clip-path="url(#p82d637858b)" style="fill: #d62728; opacity: 0.6"/>
   </g>
   <g id="patch_6">
    <path d="M 72.354465 86.245104 
L 73.575831 86.245104 
L 73.575831 62.065104 
L 72.354465 62.065104 
z
" clip-path="url(#p82d637858b)" style="fill: #d62728; opacity: 0.6"/>
   </g>
   <g id="patch_7">
    <path d="M 86.196612 86.245104 
L 86.603734 86.245104 
L 86.603734 62.065104 
L 86.196612 62.065104 
z
" clip-path="url(#p82d637858b)" style="fill: #d62728; opacity: 0.6"/>
   </g>
   <g id="patch_8">
    <path d="M 93.524807 86.245104 
L 93.931929 86.245104 
L 93.931929 62.065104 
L 93.524807 62.065104 
z
" clip-path="url(#p82d637858b)" style="fill: #d62728; opacity: 0.6"/>
   </g>
   <g id="patch_9">
    <path d="M 94.339051 86.245104 
L 99.631637 86.245104 
L 99.631637 62.065104 
L 94.339051 62.065104 
z
" clip-path="url(#p82d637858b)" style="fill: #d62728; opacity: 0.6"/>
   </g>
   <g id="patch_10">
    <path d="M 100.038759 86.245104 
L 101.260125 86.245104 
L 101.260125 62.065104 
L 100.038759 62.065104 
z
" clip-path="url(#p82d637858b)" style="fill: #d62728; opacity: 0.6"/>
   </g>
   <g id="patch_11">
    <path d="M 102.888613 86.245104 
L 106.145588 86.245104 
L 106.145588 62.065104 
L 102.888613 62.065104 
z
" clip-path="url(#p82d637858b)" style="fill: #d62728; opacity: 0.6"/>
   </g>
   <g id="patch_12">
    <path d="M 106.55271 86.245104 
L 115.102272 86.245104 
L 115.102272 62.065104 
L 106.55271 62.065104 
z
" clip-path="url(#p82d637858b)" style="fill: #d62728; opacity: 0.6"/>
   </g>
   <g id="patch_13">
    <path d="M 118.359247 86.245104 
L 118.766369 86.245104 
L 118.766369 62.065104 
L 118.359247 62.065104 
z
" clip-path="url(#p82d637858b)" style="fill: #d62728; opacity: 0.6"/>
   </g>
   <g id="patch_14">
    <path d="M 120.394857 86.245104 
L 120.801979 86.245104 
L 120.801979 62.065104 
L 120.394857 62.065104 
z
" clip-path="url(#p82d637858b)" style="fill: #d62728; opacity: 0.6"/>
   </g>
   <g id="patch_15">
    <path d="M 121.616223 86.245104 
L 122.837589 86.245104 
L 122.837589 62.065104 
L 121.616223 62.065104 
z
" clip-path="url(#p82d637858b)" style="fill: #d62728; opacity: 0.6"/>
   </g>
   <g id="patch_16">
    <path d="M 125.687443 86.245104 
L 128.130174 86.245104 
L 128.130174 62.065104 
L 125.687443 62.065104 
z
" clip-path="url(#p82d637858b)" style="fill: #d62728; opacity: 0.6"/>
   </g>
   <g id="patch_17">
    <path d="M 128.537296 86.245104 
L 131.38715 86.245104 
L 131.38715 62.065104 
L 128.537296 62.065104 
z
" clip-path="url(#p82d637858b)" style="fill: #d62728; opacity: 0.6"/>
   </g>
   <g id="patch_18">
    <path d="M 132.201394 86.245104 
L 135.865492 86.245104 
L 135.865492 62.065104 
L 132.201394 62.065104 
z
" clip-path="url(#p82d637858b)" style="fill: #d62728; opacity: 0.6"/>
   </g>
   <g id="patch_19">
    <path d="M 137.086858 86.245104 
L 137.49398 86.245104 
L 137.49398 62.065104 
L 137.086858 62.065104 
z
" clip-path="url(#p82d637858b)" style="fill: #d62728; opacity: 0.6"/>
   </g>
   <g id="patch_20">
    <path d="M 137.901102 86.245104 
L 141.158077 86.245104 
L 141.158077 62.065104 
L 137.901102 62.065104 
z
" clip-path="url(#p82d637858b)" style="fill: #d62728; opacity: 0.6"/>
   </g>
   <g id="patch_21">
    <path d="M 147.264907 86.245104 
L 148.079151 86.245104 
L 148.079151 62.065104 
L 147.264907 62.065104 
z
" clip-path="url(#p82d637858b)" style="fill: #d62728; opacity: 0.6"/>
   </g>
   <g id="patch_22">
    <path d="M 154.593102 86.245104 
L 160.699932 86.245104 
L 160.699932 62.065104 
L 154.593102 62.065104 
z
" clip-path="url(#p82d637858b)" style="fill: #d62728; opacity: 0.6"/>
   </g>
   <g id="patch_23">
    <path d="M 210.368811 86.245104 
L 210.775933 86.245104 
L 210.775933 62.065104 
L 210.368811 62.065104 
z
" clip-path="url(#p82d637858b)" style="fill: #d62728; opacity: 0.6"/>
   </g>
   <g id="patch_24">
    <path d="M 211.590177 86.245104 
L 229.910665 86.245104 
L 229.910665 62.065104 
L 211.590177 62.065104 
z
" clip-path="url(#p82d637858b)" style="fill: #d62728; opacity: 0.6"/>
   </g>
   <g id="patch_25">
    <path d="M 236.017495 86.245104 
L 242.938568 86.245104 
L 242.938568 62.065104 
L 236.017495 62.065104 
z
" clip-path="url(#p82d637858b)" style="fill: #d62728; opacity: 0.6"/>
   </g>
   <g id="patch_26">
    <path d="M 245.3813 86.245104 
L 245.788422 86.245104 
L 245.788422 62.065104 
L 245.3813 62.065104 
z
" clip-path="url(#p82d637858b)" style="fill: #d62728; opacity: 0.6"/>
   </g>
   <g id="patch_27">
    <path d="M 248.231154 86.245104 
L 265.737398 86.245104 
L 265.737398 62.065104 
L 248.231154 62.065104 
z
" clip-path="url(#p82d637858b)" style="fill: #d62728; opacity: 0.6"/>
   </g>
   <g id="patch_28">
    <path d="M 267.773008 86.245104 
L 271.029984 86.245104 
L 271.029984 62.065104 
L 267.773008 62.065104 
z
" clip-path="url(#p82d637858b)" style="fill: #d62728; opacity: 0.6"/>
   </g>
   <g id="patch_29">
    <path d="M 273.879838 86.245104 
L 284.872131 86.245104 
L 284.872131 62.065104 
L 273.879838 62.065104 
z
" clip-path="url(#p82d637858b)" style="fill: #d62728; opacity: 0.6"/>
   </g>
   <g id="patch_30">
    <path d="M 285.686375 86.245104 
L 286.500618 86.245104 
L 286.500618 62.065104 
L 285.686375 62.065104 
z
" clip-path="url(#p82d637858b)" style="fill: #d62728; opacity: 0.6"/>
   </g>
   <g id="patch_31">
    <path d="M 287.721984 86.245104 
L 288.129106 86.245104 
L 288.129106 62.065104 
L 287.721984 62.065104 
z
" clip-path="url(#p82d637858b)" style="fill: #d62728; opacity: 0.6"/>
   </g>
   <g id="patch_32">
    <path d="M 288.94335 86.245104 
L 290.571838 86.245104 
L 290.571838 62.065104 
L 288.94335 62.065104 
z
" clip-path="url(#p82d637858b)" style="fill: #d62728; opacity: 0.6"/>
   </g>
   <g id="patch_33">
    <path d="M 290.97896 86.245104 
L 291.793204 86.245104 
L 291.793204 62.065104 
L 290.97896 62.065104 
z
" clip-path="url(#p82d637858b)" style="fill: #d62728; opacity: 0.6"/>
   </g>
   <g id="patch_34">
    <path d="M 292.607448 86.245104 
L 294.643058 86.245104 
L 294.643058 62.065104 
L 292.607448 62.065104 
z
" clip-path="url(#p82d637858b)" style="fill: #d62728; opacity: 0.6"/>
   </g>
   <g id="patch_35">
    <path d="M 306.042473 86.245104 
L 306.449595 86.245104 
L 306.449595 62.065104 
L 306.042473 62.065104 
z
" clip-path="url(#p82d637858b)" style="fill: #d62728; opacity: 0.6"/>
   </g>
   <g id="patch_36">
    <path d="M 308.078083 86.245104 
L 308.485204 86.245104 
L 308.485204 62.065104 
L 308.078083 62.065104 
z
" clip-path="url(#p82d637858b)" style="fill: #d62728; opacity: 0.6"/>
   </g>
   <g id="patch_37">
    <path d="M 310.113692 86.245104 
L 310.927936 86.245104 
L 310.927936 62.065104 
L 310.113692 62.065104 
z
" clip-path="url(#p82d637858b)" style="fill: #d62728; opacity: 0.6"/>
   </g>
   <g id="patch_38">
    <path d="M 311.74218 86.245104 
L 314.184912 86.245104 
L 314.184912 62.065104 
L 311.74218 62.065104 
z
" clip-path="url(#p82d637858b)" style="fill: #d62728; opacity: 0.6"/>
   </g>
   <g id="patch_39">
    <path d="M 321.920229 86.245104 
L 322.327351 86.245104 
L 322.327351 62.065104 
L 321.920229 62.065104 
z
" clip-path="url(#p82d637858b)" style="fill: #d62728; opacity: 0.6"/>
   </g>
   <g id="patch_40">
    <path d="M 324.362961 86.245104 
L 330.469791 86.245104 
L 330.469791 62.065104 
L 324.362961 62.065104 
z
" clip-path="url(#p82d637858b)" style="fill: #d62728; opacity: 0.6"/>
   </g>
   <g id="patch_41">
    <path d="M 332.098278 86.245104 
L 339.426474 86.245104 
L 339.426474 62.065104 
L 332.098278 62.065104 
z
" clip-path="url(#p82d637858b)" style="fill: #d62728; opacity: 0.6"/>
   </g>
   <g id="patch_42">
    <path d="M 340.240718 86.245104 
L 342.276328 86.245104 
L 342.276328 62.065104 
L 340.240718 62.065104 
z
" clip-path="url(#p82d637858b)" style="fill: #d62728; opacity: 0.6"/>
   </g>
   <g id="patch_43">
    <path d="M 342.683449 86.245104 
L 344.311937 86.245104 
L 344.311937 62.065104 
L 342.683449 62.065104 
z
" clip-path="url(#p82d637858b)" style="fill: #d62728; opacity: 0.6"/>
   </g>
   <g id="patch_44">
    <path d="M 348.383157 86.245104 
L 348.790279 86.245104 
L 348.790279 62.065104 
L 348.383157 62.065104 
z
" clip-path="url(#p82d637858b)" style="fill: #d62728; opacity: 0.6"/>
   </g>
   <g id="patch_45">
    <path d="M 349.604523 86.245104 
L 351.640133 86.245104 
L 351.640133 62.065104 
L 349.604523 62.065104 
z
" clip-path="url(#p82d637858b)" style="fill: #d62728; opacity: 0.6"/>
   </g>
   <g id="patch_46">
    <path d="M 356.118474 86.245104 
L 357.33984 86.245104 
L 357.33984 62.065104 
L 356.118474 62.065104 
z
" clip-path="url(#p82d637858b)" style="fill: #d62728; opacity: 0.6"/>
   </g>
   <g id="patch_47">
    <path d="M 361.003938 86.245104 
L 364.668036 86.245104 
L 364.668036 62.065104 
L 361.003938 62.065104 
z
" clip-path="url(#p82d637858b)" style="fill: #d62728; opacity: 0.6"/>
   </g>
   <g id="patch_48">
    <path d="M 374.438963 86.245104 
L 375.253207 86.245104 
L 375.253207 62.065104 
L 374.438963 62.065104 
z
" clip-path="url(#p82d637858b)" style="fill: #d62728; opacity: 0.6"/>
   </g>
   <g id="patch_49">
    <path d="M 396.423549 86.245104 
L 396.830671 86.245104 
L 396.830671 62.065104 
L 396.423549 62.065104 
z
" clip-path="url(#p82d637858b)" style="fill: #d62728; opacity: 0.6"/>
   </g>
   <g id="patch_50">
    <path d="M 439.171355 86.245104 
L 439.578477 86.245104 
L 439.578477 62.065104 
L 439.171355 62.065104 
z
" clip-path="url(#p82d637858b)" style="fill: #d62728; opacity: 0.6"/>
   </g>
   <g id="patch_51">
    <path d="M 439.985599 86.245104 
L 443.649697 86.245104 
L 443.649697 62.065104 
L 439.985599 62.065104 
z
" clip-path="url(#p82d637858b)" style="fill: #d62728; opacity: 0.6"/>
   </g>
   <g id="patch_52">
    <path d="M 455.863355 86.245104 
L 457.084721 86.245104 
L 457.084721 62.065104 
L 455.863355 62.065104 
z
" clip-path="url(#p82d637858b)" style="fill: #d62728; opacity: 0.6"/>
   </g>
   <g id="patch_53">
    <path d="M 457.491843 86.245104 
L 458.306087 86.245104 
L 458.306087 62.065104 
L 457.491843 62.065104 
z
" clip-path="url(#p82d637858b)" style="fill: #d62728; opacity: 0.6"/>
   </g>
   <g id="patch_54">
    <path d="M 458.713209 86.245104 
L 460.748819 86.245104 
L 460.748819 62.065104 
L 458.713209 62.065104 
z
" clip-path="url(#p82d637858b)" style="fill: #d62728; opacity: 0.6"/>
   </g>
   <g id="patch_55">
    <path d="M 462.784429 86.245104 
L 464.412917 86.245104 
L 464.412917 62.065104 
L 462.784429 62.065104 
z
" clip-path="url(#p82d637858b)" style="fill: #d62728; opacity: 0.6"/>
   </g>
   <g id="patch_56">
    <path d="M 465.227161 86.245104 
L 470.519746 86.245104 
L 470.519746 62.065104 
L 465.227161 62.065104 
z
" clip-path="url(#p82d637858b)" style="fill: #d62728; opacity: 0.6"/>
   </g>
   <g id="patch_57">
    <path d="M 478.255063 86.245104 
L 478.662185 86.245104 
L 478.662185 62.065104 
L 478.255063 62.065104 
z
" clip-path="url(#p82d637858b)" style="fill: #d62728; opacity: 0.6"/>
   </g>
   <g id="patch_58">
    <path d="M 479.069307 86.245104 
L 479.476429 86.245104 
L 479.476429 62.065104 
L 479.069307 62.065104 
z
" clip-path="url(#p82d637858b)" style="fill: #d62728; opacity: 0.6"/>
   </g>
   <g id="patch_59">
    <path d="M 480.697795 86.245104 
L 488.840235 86.245104 
L 488.840235 62.065104 
L 480.697795 62.065104 
z
" clip-path="url(#p82d637858b)" style="fill: #d62728; opacity: 0.6"/>
   </g>
   <g id="patch_60">
    <path d="M 491.690088 86.245104 
L 499.832528 86.245104 
L 499.832528 62.065104 
L 491.690088 62.065104 
z
" clip-path="url(#p82d637858b)" style="fill: #d62728; opacity: 0.6"/>
   </g>
   <g id="patch_61">
    <path d="M 500.23965 86.245104 
L 501.053893 86.245104 
L 501.053893 62.065104 
L 500.23965 62.065104 
z
" clip-path="url(#p82d637858b)" style="fill: #d62728; opacity: 0.6"/>
   </g>
   <g id="patch_62">
    <path d="M 504.717991 86.245104 
L 505.532235 86.245104 
L 505.532235 62.065104 
L 504.717991 62.065104 
z
" clip-path="url(#p82d637858b)" style="fill: #d62728; opacity: 0.6"/>
   </g>
   <g id="patch_63">
    <path d="M 514.081796 86.245104 
L 516.524528 86.245104 
L 516.524528 62.065104 
L 514.081796 62.065104 
z
" clip-path="url(#p82d637858b)" style="fill: #d62728; opacity: 0.6"/>
   </g>
   <g id="patch_64">
    <path d="M 525.481211 86.245104 
L 535.252138 86.245104 
L 535.252138 62.065104 
L 525.481211 62.065104 
z
" clip-path="url(#p82d637858b)" style="fill: #d62728; opacity: 0.6"/>
   </g>
   <g id="patch_65">
    <path d="M 547.058675 86.245104 
L 549.501407 86.245104 
L 549.501407 62.065104 
L 547.058675 62.065104 
z
" clip-path="url(#p82d637858b)" style="fill: #d62728; opacity: 0.6"/>
   </g>
   <g id="patch_66">
    <path d="M 571.078871 86.245104 
L 575.150091 86.245104 
L 575.150091 62.065104 
L 571.078871 62.065104 
z
" clip-path="url(#p82d637858b)" style="fill: #d62728; opacity: 0.6"/>
   </g>
   <g id="patch_67">
    <path d="M 576.778579 86.245104 
L 577.185701 86.245104 
L 577.185701 62.065104 
L 576.778579 62.065104 
z
" clip-path="url(#p82d637858b)" style="fill: #d62728; opacity: 0.6"/>
   </g>
   <g id="patch_68">
    <path d="M 582.071164 86.245104 
L 582.478286 86.245104 
L 582.478286 62.065104 
L 582.071164 62.065104 
z
" clip-path="url(#p82d637858b)" style="fill: #d62728; opacity: 0.6"/>
   </g>
   <g id="patch_69">
    <path d="M 584.513896 86.245104 
L 584.921018 86.245104 
L 584.921018 62.065104 
L 584.513896 62.065104 
z
" clip-path="url(#p82d637858b)" style="fill: #d62728; opacity: 0.6"/>
   </g>
   <g id="patch_70">
    <path d="M 586.549506 86.245104 
L 587.770872 86.245104 
L 587.770872 62.065104 
L 586.549506 62.065104 
z
" clip-path="url(#p82d637858b)" style="fill: #d62728; opacity: 0.6"/>
   </g>
   <g id="patch_71">
    <path d="M 590.213604 86.245104 
L 590.620726 86.245104 
L 590.620726 62.065104 
L 590.213604 62.065104 
z
" clip-path="url(#p82d637858b)" style="fill: #d62728; opacity: 0.6"/>
   </g>
   <g id="patch_72">
    <path d="M 591.027848 86.245104 
L 601.613019 86.245104 
L 601.613019 62.065104 
L 591.027848 62.065104 
z
" clip-path="url(#p82d637858b)" style="fill: #d62728; opacity: 0.6"/>
   </g>
   <g id="patch_73">
    <path d="M 612.605312 86.245104 
L 613.826678 86.245104 
L 613.826678 62.065104 
L 612.605312 62.065104 
z
" clip-path="url(#p82d637858b)" style="fill: #d62728; opacity: 0.6"/>
   </g>
   <g id="patch_74">
    <path d="M 645.175069 86.245104 
L 645.582191 86.245104 
L 645.582191 62.065104 
L 645.175069 62.065104 
z
" clip-path="url(#p82d637858b)" style="fill: #d62728; opacity: 0.6"/>
   </g>
   <g id="patch_75">
    <path d="M 651.281898 86.245104 
L 658.202972 86.245104 
L 658.202972 62.065104 
L 651.281898 62.065104 
z
" clip-path="url(#p82d637858b)" style="fill: #d62728; opacity: 0.6"/>
   </g>
   <g id="patch_76">
    <path d="M 659.017216 86.245104 
L 659.424337 86.245104 
L 659.424337 62.065104 
L 659.017216 62.065104 
z
" clip-path="url(#p82d637858b)" style="fill: #d62728; opacity: 0.6"/>
   </g>
   <g id="patch_77">
    <path d="M 665.124045 86.245104 
L 666.345411 86.245104 
L 666.345411 62.065104 
L 665.124045 62.065104 
z
" clip-path="url(#p82d637858b)" style="fill: #d62728; opacity: 0.6"/>
   </g>
   <g id="patch_78">
    <path d="M 667.159655 86.245104 
L 674.894972 86.245104 
L 674.894972 62.065104 
L 667.159655 62.065104 
z
" clip-path="url(#p82d637858b)" style="fill: #d62728; opacity: 0.6"/>
   </g>
   <g id="patch_79">
    <path d="M 680.187558 86.245104 
L 683.444533 86.245104 
L 683.444533 62.065104 
L 680.187558 62.065104 
z
" clip-path="url(#p82d637858b)" style="fill: #d62728; opacity: 0.6"/>
   </g>
   <g id="matplotlib.axis_1">
    <g id="text_1">
     <!-- annot -->
     <g transform="translate(14.905469 73.41875) scale(0.1 -0.1)">
      <defs>
       <path id="DejaVuSans-61" d="M 2194 1759 
Q 1497 1759 1228 1600 
Q 959 1441 959 1056 
Q 959 750 1161 570 
Q 1363 391 1709 391 
Q 2188 391 2477 730 
Q 2766 1069 2766 1631 
L 2766 1759 
L 2194 1759 
z
M 3341 1997 
L 3341 0 
L 2766 0 
L 2766 531 
Q 2569 213 2275 61 
Q 1981 -91 1556 -91 
Q 1019 -91 701 211 
Q 384 513 384 1019 
Q 384 1609 779 1909 
Q 1175 2209 1959 2209 
L 2766 2209 
L 2766 2266 
Q 2766 2663 2505 2880 
Q 2244 3097 1772 3097 
Q 1472 3097 1187 3025 
Q 903 2953 641 2809 
L 641 3341 
Q 956 3463 1253 3523 
Q 1550 3584 1831 3584 
Q 2591 3584 2966 3190 
Q 3341 2797 3341 1997 
z
" transform="scale(0.015625)"/>
       <path id="DejaVuSans-6e" d="M 3513 2113 
L 3513 0 
L 2938 0 
L 2938 2094 
Q 2938 2591 2744 2837 
Q 2550 3084 2163 3084 
Q 1697 3084 1428 2787 
Q 1159 2491 1159 1978 
L 1159 0 
L 581 0 
L 581 3500 
L 1159 3500 
L 1159 2956 
Q 1366 3272 1645 3428 
Q 1925 3584 2291 3584 
Q 2894 3584 3203 3211 
Q 3513 2838 3513 2113 
z
" transform="scale(0.015625)"/>
       <path id="DejaVuSans-6f" d="M 1959 3097 
Q 1497 3097 1228 2736 
Q 959 2375 959 1747 
Q 959 1119 1226 758 
Q 1494 397 1959 397 
Q 2419 397 2687 759 
Q 2956 1122 2956 1747 
Q 2956 2369 2687 2733 
Q 2419 3097 1959 3097 
z
M 1959 3584 
Q 2709 3584 3137 3096 
Q 3566 2609 3566 1747 
Q 3566 888 3137 398 
Q 2709 -91 1959 -91 
Q 1206 -91 779 398 
Q 353 888 353 1747 
Q 353 2609 779 3096 
Q 1206 3584 1959 3584 
z
" transform="scale(0.015625)"/>
       <path id="DejaVuSans-74" d="M 1172 4494 
L 1172 3500 
L 2356 3500 
L 2356 3053 
L 1172 3053 
L 1172 1153 
Q 1172 725 1289 603 
Q 1406 481 1766 481 
L 2356 481 
L 2356 0 
L 1766 0 
Q 1100 0 847 248 
Q 594 497 594 1153 
L 594 3053 
L 172 3053 
L 172 3500 
L 594 3500 
L 594 4494 
L 1172 4494 
z
" transform="scale(0.015625)"/>
      </defs>
      <use xlink:href="#DejaVuSans-61"/>
      <use xlink:href="#DejaVuSans-6e" x="61.279297"/>
      <use xlink:href="#DejaVuSans-6e" x="124.658203"/>
      <use xlink:href="#DejaVuSans-6f" x="188.037109"/>
      <use xlink:href="#DejaVuSans-74" x="249.21875"/>
     </g>
    </g>
   </g>
  </g>
  <g id="axes_2">
   <g id="patch_80">
    <path d="M 59.326563 47.665104 
L 683.806562 47.665104 
L 683.806562 20.798438 
L 59.326563 20.798438 
z
" style="fill: #ffffff"/>
   </g>
   <g id="patch_81">
    <path d="M 138.865056 44.978437 
L 139.273037 44.978437 
L 139.273037 20.798438 
L 138.865056 20.798438 
z
" clip-path="url(#pbb870f1c92)" style="fill: #1f77b4; opacity: 0.6"/>
   </g>
   <g id="patch_82">
    <path d="M 144.558311 44.978437 
L 145.009956 44.978437 
L 145.009956 20.798438 
L 144.558311 20.798438 
z
" clip-path="url(#pbb870f1c92)" style="fill: #1f77b4; opacity: 0.6"/>
   </g>
   <g id="patch_83">
    <path d="M 206.79893 44.978437 
L 207.611952 44.978437 
L 207.611952 20.798438 
L 206.79893 20.798438 
z
" clip-path="url(#pbb870f1c92)" style="fill: #1f77b4; opacity: 0.6"/>
   </g>
   <g id="patch_84">
    <path d="M 210.922232 44.978437 
L 212.534814 44.978437 
L 212.534814 20.798438 
L 210.922232 20.798438 
z
" clip-path="url(#pbb870f1c92)" style="fill: #1f77b4; opacity: 0.6"/>
   </g>
   <g id="patch_85">
    <path d="M 260.919199 44.978437 
L 262.945055 44.978437 
L 262.945055 20.798438 
L 260.919199 20.798438 
z
" clip-path="url(#pbb870f1c92)" style="fill: #1f77b4; opacity: 0.6"/>
   </g>
   <g id="patch_86">
    <path d="M 266.231583 44.978437 
L 268.768393 44.978437 
L 268.768393 20.798438 
L 266.231583 20.798438 
z
" clip-path="url(#pbb870f1c92)" style="fill: #1f77b4; opacity: 0.6"/>
   </g>
   <g id="patch_87">
    <path d="M 278.777494 44.978437 
L 279.607299 44.978437 
L 279.607299 20.798438 
L 278.777494 20.798438 
z
" clip-path="url(#pbb870f1c92)" style="fill: #1f77b4; opacity: 0.6"/>
   </g>
   <g id="patch_88">
    <path d="M 312.135208 44.978437 
L 312.936468 44.978437 
L 312.936468 20.798438 
L 312.135208 20.798438 
z
" clip-path="url(#pbb870f1c92)" style="fill: #1f77b4; opacity: 0.6"/>
   </g>
   <g id="patch_89">
    <path d="M 347.935302 44.978437 
L 348.992509 44.978437 
L 348.992509 20.798438 
L 347.935302 20.798438 
z
" clip-path="url(#pbb870f1c92)" style="fill: #1f77b4; opacity: 0.6"/>
   </g>
   <g id="patch_90">
    <path d="M 351.594397 44.978437 
L 353.041752 44.978437 
L 353.041752 20.798438 
L 351.594397 20.798438 
z
" clip-path="url(#pbb870f1c92)" style="fill: #1f77b4; opacity: 0.6"/>
   </g>
   <g id="patch_91">
    <path d="M 361.987536 44.978437 
L 363.184833 44.978437 
L 363.184833 20.798438 
L 361.987536 20.798438 
z
" clip-path="url(#pbb870f1c92)" style="fill: #1f77b4; opacity: 0.6"/>
   </g>
   <g id="patch_92">
    <path d="M 451.185321 44.978437 
L 451.545917 44.978437 
L 451.545917 20.798438 
L 451.185321 20.798438 
z
" clip-path="url(#pbb870f1c92)" style="fill: #1f77b4; opacity: 0.6"/>
   </g>
   <g id="patch_93">
    <path d="M 499.743352 44.978437 
L 501.295993 44.978437 
L 501.295993 20.798438 
L 499.743352 20.798438 
z
" clip-path="url(#pbb870f1c92)" style="fill: #1f77b4; opacity: 0.6"/>
   </g>
   <g id="patch_94">
    <path d="M 512.465038 44.978437 
L 513.660588 44.978437 
L 513.660588 20.798438 
L 512.465038 20.798438 
z
" clip-path="url(#pbb870f1c92)" style="fill: #1f77b4; opacity: 0.6"/>
   </g>
   <g id="patch_95">
    <path d="M 564.476322 44.978437 
L 564.879084 44.978437 
L 564.879084 20.798438 
L 564.476322 20.798438 
z
" clip-path="url(#pbb870f1c92)" style="fill: #1f77b4; opacity: 0.6"/>
   </g>
   <g id="patch_96">
    <path d="M 575.714309 44.978437 
L 577.364961 44.978437 
L 577.364961 20.798438 
L 575.714309 20.798438 
z
" clip-path="url(#pbb870f1c92)" style="fill: #1f77b4; opacity: 0.6"/>
   </g>
   <g id="patch_97">
    <path d="M 582.086554 44.978437 
L 583.29972 44.978437 
L 583.29972 20.798438 
L 582.086554 20.798438 
z
" clip-path="url(#pbb870f1c92)" style="fill: #1f77b4; opacity: 0.6"/>
   </g>
   <g id="patch_98">
    <path d="M 587.505917 44.978437 
L 588.724783 44.978437 
L 588.724783 20.798438 
L 587.505917 20.798438 
z
" clip-path="url(#pbb870f1c92)" style="fill: #1f77b4; opacity: 0.6"/>
   </g>
   <g id="patch_99">
    <path d="M 673.289442 44.978437 
L 674.95363 44.978437 
L 674.95363 20.798438 
L 673.289442 20.798438 
z
" clip-path="url(#pbb870f1c92)" style="fill: #1f77b4; opacity: 0.6"/>
   </g>
   <g id="matplotlib.axis_2">
    <g id="text_2">
     <!-- ECH90 -->
     <g transform="translate(12.553125 32.152083) scale(0.1 -0.1)">
      <defs>
       <path id="DejaVuSans-45" d="M 628 4666 
L 3578 4666 
L 3578 4134 
L 1259 4134 
L 1259 2753 
L 3481 2753 
L 3481 2222 
L 1259 2222 
L 1259 531 
L 3634 531 
L 3634 0 
L 628 0 
L 628 4666 
z
" transform="scale(0.015625)"/>
       <path id="DejaVuSans-43" d="M 4122 4306 
L 4122 3641 
Q 3803 3938 3442 4084 
Q 3081 4231 2675 4231 
Q 1875 4231 1450 3742 
Q 1025 3253 1025 2328 
Q 1025 1406 1450 917 
Q 1875 428 2675 428 
Q 3081 428 3442 575 
Q 3803 722 4122 1019 
L 4122 359 
Q 3791 134 3420 21 
Q 3050 -91 2638 -91 
Q 1578 -91 968 557 
Q 359 1206 359 2328 
Q 359 3453 968 4101 
Q 1578 4750 2638 4750 
Q 3056 4750 3426 4639 
Q 3797 4528 4122 4306 
z
" transform="scale(0.015625)"/>
       <path id="DejaVuSans-48" d="M 628 4666 
L 1259 4666 
L 1259 2753 
L 3553 2753 
L 3553 4666 
L 4184 4666 
L 4184 0 
L 3553 0 
L 3553 2222 
L 1259 2222 
L 1259 0 
L 628 0 
L 628 4666 
z
" transform="scale(0.015625)"/>
       <path id="DejaVuSans-39" d="M 703 97 
L 703 672 
Q 941 559 1184 500 
Q 1428 441 1663 441 
Q 2288 441 2617 861 
Q 2947 1281 2994 2138 
Q 2813 1869 2534 1725 
Q 2256 1581 1919 1581 
Q 1219 1581 811 2004 
Q 403 2428 403 3163 
Q 403 3881 828 4315 
Q 1253 4750 1959 4750 
Q 2769 4750 3195 4129 
Q 3622 3509 3622 2328 
Q 3622 1225 3098 567 
Q 2575 -91 1691 -91 
Q 1453 -91 1209 -44 
Q 966 3 703 97 
z
M 1959 2075 
Q 2384 2075 2632 2365 
Q 2881 2656 2881 3163 
Q 2881 3666 2632 3958 
Q 2384 4250 1959 4250 
Q 1534 4250 1286 3958 
Q 1038 3666 1038 3163 
Q 1038 2656 1286 2365 
Q 1534 2075 1959 2075 
z
" transform="scale(0.015625)"/>
       <path id="DejaVuSans-30" d="M 2034 4250 
Q 1547 4250 1301 3770 
Q 1056 3291 1056 2328 
Q 1056 1369 1301 889 
Q 1547 409 2034 409 
Q 2525 409 2770 889 
Q 3016 1369 3016 2328 
Q 3016 3291 2770 3770 
Q 2525 4250 2034 4250 
z
M 2034 4750 
Q 2819 4750 3233 4129 
Q 3647 3509 3647 2328 
Q 3647 1150 3233 529 
Q 2819 -91 2034 -91 
Q 1250 -91 836 529 
Q 422 1150 422 2328 
Q 422 3509 836 4129 
Q 1250 4750 2034 4750 
z
" transform="scale(0.015625)"/>
      </defs>
      <use xlink:href="#DejaVuSans-45"/>
      <use xlink:href="#DejaVuSans-43" x="63.183594"/>
      <use xlink:href="#DejaVuSans-48" x="133.007812"/>
      <use xlink:href="#DejaVuSans-39" x="208.203125"/>
      <use xlink:href="#DejaVuSans-30" x="271.826172"/>
     </g>
    </g>
   </g>
   <g id="text_3">
    <!-- chrX -->
    <g transform="translate(59.326563 14.798438) scale(0.1 -0.1)">
     <defs>
      <path id="DejaVuSans-63" d="M 3122 3366 
L 3122 2828 
Q 2878 2963 2633 3030 
Q 2388 3097 2138 3097 
Q 1578 3097 1268 2742 
Q 959 2388 959 1747 
Q 959 1106 1268 751 
Q 1578 397 2138 397 
Q 2388 397 2633 464 
Q 2878 531 3122 666 
L 3122 134 
Q 2881 22 2623 -34 
Q 2366 -91 2075 -91 
Q 1284 -91 818 406 
Q 353 903 353 1747 
Q 353 2603 823 3093 
Q 1294 3584 2113 3584 
Q 2378 3584 2631 3529 
Q 2884 3475 3122 3366 
z
" transform="scale(0.015625)"/>
      <path id="DejaVuSans-68" d="M 3513 2113 
L 3513 0 
L 2938 0 
L 2938 2094 
Q 2938 2591 2744 2837 
Q 2550 3084 2163 3084 
Q 1697 3084 1428 2787 
Q 1159 2491 1159 1978 
L 1159 0 
L 581 0 
L 581 4863 
L 1159 4863 
L 1159 2956 
Q 1366 3272 1645 3428 
Q 1925 3584 2291 3584 
Q 2894 3584 3203 3211 
Q 3513 2838 3513 2113 
z
" transform="scale(0.015625)"/>
      <path id="DejaVuSans-72" d="M 2631 2963 
Q 2534 3019 2420 3045 
Q 2306 3072 2169 3072 
Q 1681 3072 1420 2755 
Q 1159 2438 1159 1844 
L 1159 0 
L 581 0 
L 581 3500 
L 1159 3500 
L 1159 2956 
Q 1341 3275 1631 3429 
Q 1922 3584 2338 3584 
Q 2397 3584 2469 3576 
Q 2541 3569 2628 3553 
L 2631 2963 
z
" transform="scale(0.015625)"/>
      <path id="DejaVuSans-58" d="M 403 4666 
L 1081 4666 
L 2241 2931 
L 3406 4666 
L 4084 4666 
L 2584 2425 
L 4184 0 
L 3506 0 
L 2194 1984 
L 872 0 
L 191 0 
L 1856 2491 
L 403 4666 
z
" transform="scale(0.015625)"/>
     </defs>
     <use xlink:href="#DejaVuSans-63"/>
     <use xlink:href="#DejaVuSans-68" x="54.980469"/>
     <use xlink:href="#DejaVuSans-72" x="118.359375"/>
     <use xlink:href="#DejaVuSans-58" x="159.472656"/>
    </g>
   </g>
  </g>
  <g id="axes_3">
   <g id="patch_100">
    <path d="M 59.326563 130.198437 
L 683.806562 130.198437 
L 683.806562 103.331771 
L 59.326563 103.331771 
z
" style="fill: #ffffff"/>
   </g>
   <g id="patch_101">
    <path d="M 138.865056 127.511771 
L 139.273037 127.511771 
L 139.273037 103.331771 
L 138.865056 103.331771 
z
" clip-path="url(#p5bcefa7e6d)" style="fill: #2ca02c; opacity: 0.6"/>
   </g>
   <g id="patch_102">
    <path d="M 211.590177 127.511771 
L 212.534814 127.511771 
L 212.534814 103.331771 
L 211.590177 103.331771 
z
" clip-path="url(#p5bcefa7e6d)" style="fill: #2ca02c; opacity: 0.6"/>
   </g>
   <g id="patch_103">
    <path d="M 260.919199 127.511771 
L 262.945055 127.511771 
L 262.945055 103.331771 
L 260.919199 103.331771 
z
" clip-path="url(#p5bcefa7e6d)" style="fill: #2ca02c; opacity: 0.6"/>
   </g>
   <g id="patch_104">
    <path d="M 267.773008 127.511771 
L 268.768393 127.511771 
L 268.768393 103.331771 
L 267.773008 103.331771 
z
" clip-path="url(#p5bcefa7e6d)" style="fill: #2ca02c; opacity: 0.6"/>
   </g>
   <g id="patch_105">
    <path d="M 278.777494 127.511771 
L 279.607299 127.511771 
L 279.607299 103.331771 
L 278.777494 103.331771 
z
" clip-path="url(#p5bcefa7e6d)" style="fill: #2ca02c; opacity: 0.6"/>
   </g>
   <g id="patch_106">
    <path d="M 312.135208 127.511771 
L 312.936468 127.511771 
L 312.936468 103.331771 
L 312.135208 103.331771 
z
" clip-path="url(#p5bcefa7e6d)" style="fill: #2ca02c; opacity: 0.6"/>
   </g>
   <g id="patch_107">
    <path d="M 348.383157 127.511771 
L 348.790279 127.511771 
L 348.790279 103.331771 
L 348.383157 103.331771 
z
" clip-path="url(#p5bcefa7e6d)" style="fill: #2ca02c; opacity: 0.6"/>
   </g>
   <g id="patch_108">
    <path d="M 351.594397 127.511771 
L 351.640133 127.511771 
L 351.640133 103.331771 
L 351.594397 103.331771 
z
" clip-path="url(#p5bcefa7e6d)" style="fill: #2ca02c; opacity: 0.6"/>
   </g>
   <g id="patch_109">
    <path d="M 361.987536 127.511771 
L 363.184833 127.511771 
L 363.184833 103.331771 
L 361.987536 103.331771 
z
" clip-path="url(#p5bcefa7e6d)" style="fill: #2ca02c; opacity: 0.6"/>
   </g>
   <g id="patch_110">
    <path d="M 499.743352 127.511771 
L 499.832528 127.511771 
L 499.832528 103.331771 
L 499.743352 103.331771 
z
" clip-path="url(#p5bcefa7e6d)" style="fill: #2ca02c; opacity: 0.6"/>
   </g>
   <g id="patch_111">
    <path d="M 500.23965 127.511771 
L 501.053893 127.511771 
L 501.053893 103.331771 
L 500.23965 103.331771 
z
" clip-path="url(#p5bcefa7e6d)" style="fill: #2ca02c; opacity: 0.6"/>
   </g>
   <g id="patch_112">
    <path d="M 576.778579 127.511771 
L 577.185701 127.511771 
L 577.185701 103.331771 
L 576.778579 103.331771 
z
" clip-path="url(#p5bcefa7e6d)" style="fill: #2ca02c; opacity: 0.6"/>
   </g>
   <g id="patch_113">
    <path d="M 582.086554 127.511771 
L 582.478286 127.511771 
L 582.478286 103.331771 
L 582.086554 103.331771 
z
" clip-path="url(#p5bcefa7e6d)" style="fill: #2ca02c; opacity: 0.6"/>
   </g>
   <g id="patch_114">
    <path d="M 587.505917 127.511771 
L 587.770872 127.511771 
L 587.770872 103.331771 
L 587.505917 103.331771 
z
" clip-path="url(#p5bcefa7e6d)" style="fill: #2ca02c; opacity: 0.6"/>
   </g>
   <g id="patch_115">
    <path d="M 673.289442 127.511771 
L 674.894972 127.511771 
L 674.894972 103.331771 
L 673.289442 103.331771 
z
" clip-path="url(#p5bcefa7e6d)" style="fill: #2ca02c; opacity: 0.6"/>
   </g>
   <g id="matplotlib.axis_3">
    <g id="xtick_1">
     <g id="line2d_1">
      <defs>
       <path id="mca0a37ccc5" d="M 0 0 
L 0 3.5 
" style="stroke: #000000; stroke-width: 0.8"/>
      </defs>
      <g>
       <use xlink:href="#mca0a37ccc5" x="59.326563" y="130.198437" style="stroke: #000000; stroke-width: 0.8"/>
      </g>
     </g>
     <g id="text_4">
      <!-- 0 Mbp -->
      <g transform="translate(43.89375 144.796875) scale(0.1 -0.1)">
       <defs>
        <path id="DejaVuSans-20" transform="scale(0.015625)"/>
        <path id="DejaVuSans-4d" d="M 628 4666 
L 1569 4666 
L 2759 1491 
L 3956 4666 
L 4897 4666 
L 4897 0 
L 4281 0 
L 4281 4097 
L 3078 897 
L 2444 897 
L 1241 4097 
L 1241 0 
L 628 0 
L 628 4666 
z
" transform="scale(0.015625)"/>
        <path id="DejaVuSans-62" d="M 3116 1747 
Q 3116 2381 2855 2742 
Q 2594 3103 2138 3103 
Q 1681 3103 1420 2742 
Q 1159 2381 1159 1747 
Q 1159 1113 1420 752 
Q 1681 391 2138 391 
Q 2594 391 2855 752 
Q 3116 1113 3116 1747 
z
M 1159 2969 
Q 1341 3281 1617 3432 
Q 1894 3584 2278 3584 
Q 2916 3584 3314 3078 
Q 3713 2572 3713 1747 
Q 3713 922 3314 415 
Q 2916 -91 2278 -91 
Q 1894 -91 1617 61 
Q 1341 213 1159 525 
L 1159 0 
L 581 0 
L 581 4863 
L 1159 4863 
L 1159 2969 
z
" transform="scale(0.015625)"/>
        <path id="DejaVuSans-70" d="M 1159 525 
L 1159 -1331 
L 581 -1331 
L 581 3500 
L 1159 3500 
L 1159 2969 
Q 1341 3281 1617 3432 
Q 1894 3584 2278 3584 
Q 2916 3584 3314 3078 
Q 3713 2572 3713 1747 
Q 3713 922 3314 415 
Q 2916 -91 2278 -91 
Q 1894 -91 1617 61 
Q 1341 213 1159 525 
z
M 3116 1747 
Q 3116 2381 2855 2742 
Q 2594 3103 2138 3103 
Q 1681 3103 1420 2742 
Q 1159 2381 1159 1747 
Q 1159 1113 1420 752 
Q 1681 391 2138 391 
Q 2594 391 2855 752 
Q 3116 1113 3116 1747 
z
" transform="scale(0.015625)"/>
       </defs>
       <use xlink:href="#DejaVuSans-30"/>
       <use xlink:href="#DejaVuSans-20" x="63.623047"/>
       <use xlink:href="#DejaVuSans-4d" x="95.410156"/>
       <use xlink:href="#DejaVuSans-62" x="181.689453"/>
       <use xlink:href="#DejaVuSans-70" x="245.166016"/>
      </g>
     </g>
    </g>
    <g id="xtick_2">
     <g id="line2d_2">
      <g>
       <use xlink:href="#mca0a37ccc5" x="215.446562" y="130.198437" style="stroke: #000000; stroke-width: 0.8"/>
      </g>
     </g>
     <g id="text_5">
      <!-- 38 Mbp -->
      <g transform="translate(196.8325 144.796875) scale(0.1 -0.1)">
       <defs>
        <path id="DejaVuSans-33" d="M 2597 2516 
Q 3050 2419 3304 2112 
Q 3559 1806 3559 1356 
Q 3559 666 3084 287 
Q 2609 -91 1734 -91 
Q 1441 -91 1130 -33 
Q 819 25 488 141 
L 488 750 
Q 750 597 1062 519 
Q 1375 441 1716 441 
Q 2309 441 2620 675 
Q 2931 909 2931 1356 
Q 2931 1769 2642 2001 
Q 2353 2234 1838 2234 
L 1294 2234 
L 1294 2753 
L 1863 2753 
Q 2328 2753 2575 2939 
Q 2822 3125 2822 3475 
Q 2822 3834 2567 4026 
Q 2313 4219 1838 4219 
Q 1578 4219 1281 4162 
Q 984 4106 628 3988 
L 628 4550 
Q 988 4650 1302 4700 
Q 1616 4750 1894 4750 
Q 2613 4750 3031 4423 
Q 3450 4097 3450 3541 
Q 3450 3153 3228 2886 
Q 3006 2619 2597 2516 
z
" transform="scale(0.015625)"/>
        <path id="DejaVuSans-38" d="M 2034 2216 
Q 1584 2216 1326 1975 
Q 1069 1734 1069 1313 
Q 1069 891 1326 650 
Q 1584 409 2034 409 
Q 2484 409 2743 651 
Q 3003 894 3003 1313 
Q 3003 1734 2745 1975 
Q 2488 2216 2034 2216 
z
M 1403 2484 
Q 997 2584 770 2862 
Q 544 3141 544 3541 
Q 544 4100 942 4425 
Q 1341 4750 2034 4750 
Q 2731 4750 3128 4425 
Q 3525 4100 3525 3541 
Q 3525 3141 3298 2862 
Q 3072 2584 2669 2484 
Q 3125 2378 3379 2068 
Q 3634 1759 3634 1313 
Q 3634 634 3220 271 
Q 2806 -91 2034 -91 
Q 1263 -91 848 271 
Q 434 634 434 1313 
Q 434 1759 690 2068 
Q 947 2378 1403 2484 
z
M 1172 3481 
Q 1172 3119 1398 2916 
Q 1625 2713 2034 2713 
Q 2441 2713 2670 2916 
Q 2900 3119 2900 3481 
Q 2900 3844 2670 4047 
Q 2441 4250 2034 4250 
Q 1625 4250 1398 4047 
Q 1172 3844 1172 3481 
z
" transform="scale(0.015625)"/>
       </defs>
       <use xlink:href="#DejaVuSans-33"/>
       <use xlink:href="#DejaVuSans-38" x="63.623047"/>
       <use xlink:href="#DejaVuSans-20" x="127.246094"/>
       <use xlink:href="#DejaVuSans-4d" x="159.033203"/>
       <use xlink:href="#DejaVuSans-62" x="245.3125"/>
       <use xlink:href="#DejaVuSans-70" x="308.789062"/>
      </g>
     </g>
    </g>
    <g id="xtick_3">
     <g id="line2d_3">
      <g>
       <use xlink:href="#mca0a37ccc5" x="371.566563" y="130.198437" style="stroke: #000000; stroke-width: 0.8"/>
      </g>
     </g>
     <g id="text_6">
      <!-- 76 Mbp -->
      <g transform="translate(352.9525 144.796875) scale(0.1 -0.1)">
       <defs>
        <path id="DejaVuSans-37" d="M 525 4666 
L 3525 4666 
L 3525 4397 
L 1831 0 
L 1172 0 
L 2766 4134 
L 525 4134 
L 525 4666 
z
" transform="scale(0.015625)"/>
        <path id="DejaVuSans-36" d="M 2113 2584 
Q 1688 2584 1439 2293 
Q 1191 2003 1191 1497 
Q 1191 994 1439 701 
Q 1688 409 2113 409 
Q 2538 409 2786 701 
Q 3034 994 3034 1497 
Q 3034 2003 2786 2293 
Q 2538 2584 2113 2584 
z
M 3366 4563 
L 3366 3988 
Q 3128 4100 2886 4159 
Q 2644 4219 2406 4219 
Q 1781 4219 1451 3797 
Q 1122 3375 1075 2522 
Q 1259 2794 1537 2939 
Q 1816 3084 2150 3084 
Q 2853 3084 3261 2657 
Q 3669 2231 3669 1497 
Q 3669 778 3244 343 
Q 2819 -91 2113 -91 
Q 1303 -91 875 529 
Q 447 1150 447 2328 
Q 447 3434 972 4092 
Q 1497 4750 2381 4750 
Q 2619 4750 2861 4703 
Q 3103 4656 3366 4563 
z
" transform="scale(0.015625)"/>
       </defs>
       <use xlink:href="#DejaVuSans-37"/>
       <use xlink:href="#DejaVuSans-36" x="63.623047"/>
       <use xlink:href="#DejaVuSans-20" x="127.246094"/>
       <use xlink:href="#DejaVuSans-4d" x="159.033203"/>
       <use xlink:href="#DejaVuSans-62" x="245.3125"/>
       <use xlink:href="#DejaVuSans-70" x="308.789062"/>
      </g>
     </g>
    </g>
    <g id="xtick_4">
     <g id="line2d_4">
      <g>
       <use xlink:href="#mca0a37ccc5" x="527.686562" y="130.198437" style="stroke: #000000; stroke-width: 0.8"/>
      </g>
     </g>
     <g id="text_7">
      <!-- 115 Mbp -->
      <g transform="translate(505.89125 144.796875) scale(0.1 -0.1)">
       <defs>
        <path id="DejaVuSans-31" d="M 794 531 
L 1825 531 
L 1825 4091 
L 703 3866 
L 703 4441 
L 1819 4666 
L 2450 4666 
L 2450 531 
L 3481 531 
L 3481 0 
L 794 0 
L 794 531 
z
" transform="scale(0.015625)"/>
        <path id="DejaVuSans-35" d="M 691 4666 
L 3169 4666 
L 3169 4134 
L 1269 4134 
L 1269 2991 
Q 1406 3038 1543 3061 
Q 1681 3084 1819 3084 
Q 2600 3084 3056 2656 
Q 3513 2228 3513 1497 
Q 3513 744 3044 326 
Q 2575 -91 1722 -91 
Q 1428 -91 1123 -41 
Q 819 9 494 109 
L 494 744 
Q 775 591 1075 516 
Q 1375 441 1709 441 
Q 2250 441 2565 725 
Q 2881 1009 2881 1497 
Q 2881 1984 2565 2268 
Q 2250 2553 1709 2553 
Q 1456 2553 1204 2497 
Q 953 2441 691 2322 
L 691 4666 
z
" transform="scale(0.015625)"/>
       </defs>
       <use xlink:href="#DejaVuSans-31"/>
       <use xlink:href="#DejaVuSans-31" x="63.623047"/>
       <use xlink:href="#DejaVuSans-35" x="127.246094"/>
       <use xlink:href="#DejaVuSans-20" x="190.869141"/>
       <use xlink:href="#DejaVuSans-4d" x="222.65625"/>
       <use xlink:href="#DejaVuSans-62" x="308.935547"/>
       <use xlink:href="#DejaVuSans-70" x="372.412109"/>
      </g>
     </g>
    </g>
    <g id="xtick_5">
     <g id="line2d_5">
      <g>
       <use xlink:href="#mca0a37ccc5" x="683.806563" y="130.198437" style="stroke: #000000; stroke-width: 0.8"/>
      </g>
     </g>
     <g id="text_8">
      <!-- 153 Mbp -->
      <g transform="translate(662.01125 144.796875) scale(0.1 -0.1)">
       <use xlink:href="#DejaVuSans-31"/>
       <use xlink:href="#DejaVuSans-35" x="63.623047"/>
       <use xlink:href="#DejaVuSans-33" x="127.246094"/>
       <use xlink:href="#DejaVuSans-20" x="190.869141"/>
       <use xlink:href="#DejaVuSans-4d" x="222.65625"/>
       <use xlink:href="#DejaVuSans-62" x="308.935547"/>
       <use xlink:href="#DejaVuSans-70" x="372.412109"/>
      </g>
     </g>
    </g>
   </g>
   <g id="matplotlib.axis_4">
    <g id="text_9">
     <!-- Intersect -->
     <g transform="translate(7.2 114.685417) scale(0.1 -0.1)">
      <defs>
       <path id="DejaVuSans-49" d="M 628 4666 
L 1259 4666 
L 1259 0 
L 628 0 
L 628 4666 
z
" transform="scale(0.015625)"/>
       <path id="DejaVuSans-65" d="M 3597 1894 
L 3597 1613 
L 953 1613 
Q 991 1019 1311 708 
Q 1631 397 2203 397 
Q 2534 397 2845 478 
Q 3156 559 3463 722 
L 3463 178 
Q 3153 47 2828 -22 
Q 2503 -91 2169 -91 
Q 1331 -91 842 396 
Q 353 884 353 1716 
Q 353 2575 817 3079 
Q 1281 3584 2069 3584 
Q 2775 3584 3186 3129 
Q 3597 2675 3597 1894 
z
M 3022 2063 
Q 3016 2534 2758 2815 
Q 2500 3097 2075 3097 
Q 1594 3097 1305 2825 
Q 1016 2553 972 2059 
L 3022 2063 
z
" transform="scale(0.015625)"/>
       <path id="DejaVuSans-73" d="M 2834 3397 
L 2834 2853 
Q 2591 2978 2328 3040 
Q 2066 3103 1784 3103 
Q 1356 3103 1142 2972 
Q 928 2841 928 2578 
Q 928 2378 1081 2264 
Q 1234 2150 1697 2047 
L 1894 2003 
Q 2506 1872 2764 1633 
Q 3022 1394 3022 966 
Q 3022 478 2636 193 
Q 2250 -91 1575 -91 
Q 1294 -91 989 -36 
Q 684 19 347 128 
L 347 722 
Q 666 556 975 473 
Q 1284 391 1588 391 
Q 1994 391 2212 530 
Q 2431 669 2431 922 
Q 2431 1156 2273 1281 
Q 2116 1406 1581 1522 
L 1381 1569 
Q 847 1681 609 1914 
Q 372 2147 372 2553 
Q 372 3047 722 3315 
Q 1072 3584 1716 3584 
Q 2034 3584 2315 3537 
Q 2597 3491 2834 3397 
z
" transform="scale(0.015625)"/>
      </defs>
      <use xlink:href="#DejaVuSans-49"/>
      <use xlink:href="#DejaVuSans-6e" x="29.492188"/>
      <use xlink:href="#DejaVuSans-74" x="92.871094"/>
      <use xlink:href="#DejaVuSans-65" x="132.080078"/>
      <use xlink:href="#DejaVuSans-72" x="193.603516"/>
      <use xlink:href="#DejaVuSans-73" x="234.716797"/>
      <use xlink:href="#DejaVuSans-65" x="286.816406"/>
      <use xlink:href="#DejaVuSans-63" x="348.339844"/>
      <use xlink:href="#DejaVuSans-74" x="403.320312"/>
     </g>
    </g>
   </g>
   <g id="patch_116">
    <path d="M 59.326563 130.198437 
L 683.806563 130.198437 
" style="fill: none; stroke: #000000; stroke-width: 0.8; stroke-linejoin: miter; stroke-linecap: square"/>
   </g>
  </g>
 </g>
 <defs>
  <clipPath id="p82d637858b">
   <rect x="59.326563" y="62.065104" width="624.48" height="26.866667"/>
  </clipPath>
  <clipPath id="pbb870f1c92">
   <rect x="59.326563" y="20.798438" width="624.48" height="26.866667"/>
  </clipPath>
  <clipPath id="p5bcefa7e6d">
   <rect x="59.326563" y="103.331771" width="624.48" height="26.866667"/>
  </clipPath>
 </defs>
</svg>
