<?xml version="1.0" encoding="utf-8" standalone="no"?>
<!DOCTYPE svg PUBLIC "-//W3C//DTD SVG 1.1//EN"
  "http://www.w3.org/Graphics/SVG/1.1/DTD/svg11.dtd">
<svg xmlns:xlink="http://www.w3.org/1999/xlink" width="719.361094pt" height="70.925625pt" viewBox="0 0 719.361094 70.925625" xmlns="http://www.w3.org/2000/svg" version="1.1">
 <metadata>
  <rdf:RDF xmlns:dc="http://purl.org/dc/elements/1.1/" xmlns:cc="http://creativecommons.org/ns#" xmlns:rdf="http://www.w3.org/1999/02/22-rdf-syntax-ns#">
   <cc:Work>
    <dc:type rdf:resource="http://purl.org/dc/dcmitype/StillImage"/>
    <dc:date>2025-01-07T16:41:43.698945</dc:date>
    <dc:format>image/svg+xml</dc:format>
    <dc:creator>
     <cc:Agent>
      <dc:title>Matplotlib v3.8.4, https://matplotlib.org/</dc:title>
     </cc:Agent>
    </dc:creator>
   </cc:Work>
  </rdf:RDF>
 </metadata>
 <defs>
  <style type="text/css">*{stroke-linejoin: round; stroke-linecap: butt}</style>
 </defs>
 <g id="figure_1">
  <g id="patch_1">
   <path d="M 0 70.925625 
L 719.361094 70.925625 
L 719.361094 0 
L 0 0 
z
" style="fill: #ffffff"/>
  </g>
  <g id="axes_1">
   <g id="patch_2">
    <path d="M 87.408906 39.172083 
L 699.083906 39.172083 
L 699.083906 31.025417 
L 87.408906 31.025417 
z
" style="fill: #ffffff"/>
   </g>
   <g id="patch_3">
    <path d="M 90.599097 38.357417 
L 91.396645 38.357417 
L 91.396645 31.025417 
L 90.599097 31.025417 
z
" clip-path="url(#pc70085a1fa)" style="fill: #d62728; opacity: 0.8"/>
   </g>
   <g id="patch_4">
    <path d="M 96.580706 38.357417 
L 97.378254 38.357417 
L 97.378254 31.025417 
L 96.580706 31.025417 
z
" clip-path="url(#pc70085a1fa)" style="fill: #d62728; opacity: 0.8"/>
   </g>
   <g id="patch_5">
    <path d="M 118.513271 38.357417 
L 119.709592 38.357417 
L 119.709592 31.025417 
L 118.513271 31.025417 
z
" clip-path="url(#pc70085a1fa)" style="fill: #d62728; opacity: 0.8"/>
   </g>
   <g id="patch_6">
    <path d="M 120.50714 38.357417 
L 121.703462 38.357417 
L 121.703462 31.025417 
L 120.50714 31.025417 
z
" clip-path="url(#pc70085a1fa)" style="fill: #d62728; opacity: 0.8"/>
   </g>
   <g id="patch_7">
    <path d="M 122.50101 38.357417 
L 124.096105 38.357417 
L 124.096105 31.025417 
L 122.50101 31.025417 
z
" clip-path="url(#pc70085a1fa)" style="fill: #d62728; opacity: 0.8"/>
   </g>
   <g id="patch_8">
    <path d="M 125.292427 38.357417 
L 126.089975 38.357417 
L 126.089975 31.025417 
L 125.292427 31.025417 
z
" clip-path="url(#pc70085a1fa)" style="fill: #d62728; opacity: 0.8"/>
   </g>
   <g id="patch_9">
    <path d="M 126.488749 38.357417 
L 127.685071 38.357417 
L 127.685071 31.025417 
L 126.488749 31.025417 
z
" clip-path="url(#pc70085a1fa)" style="fill: #d62728; opacity: 0.8"/>
   </g>
   <g id="patch_10">
    <path d="M 128.482618 38.357417 
L 129.280166 38.357417 
L 129.280166 31.025417 
L 128.482618 31.025417 
z
" clip-path="url(#pc70085a1fa)" style="fill: #d62728; opacity: 0.8"/>
   </g>
   <g id="patch_11">
    <path d="M 129.67894 38.357417 
L 130.476488 38.357417 
L 130.476488 31.025417 
L 129.67894 31.025417 
z
" clip-path="url(#pc70085a1fa)" style="fill: #d62728; opacity: 0.8"/>
   </g>
   <g id="patch_12">
    <path d="M 130.875262 38.357417 
L 131.67281 38.357417 
L 131.67281 31.025417 
L 130.875262 31.025417 
z
" clip-path="url(#pc70085a1fa)" style="fill: #d62728; opacity: 0.8"/>
   </g>
   <g id="patch_13">
    <path d="M 132.071583 38.357417 
L 133.267905 38.357417 
L 133.267905 31.025417 
L 132.071583 31.025417 
z
" clip-path="url(#pc70085a1fa)" style="fill: #d62728; opacity: 0.8"/>
   </g>
   <g id="patch_14">
    <path d="M 136.85687 38.357417 
L 137.654418 38.357417 
L 137.654418 31.025417 
L 136.85687 31.025417 
z
" clip-path="url(#pc70085a1fa)" style="fill: #d62728; opacity: 0.8"/>
   </g>
   <g id="patch_15">
    <path d="M 141.642157 38.357417 
L 142.439705 38.357417 
L 142.439705 31.025417 
L 141.642157 31.025417 
z
" clip-path="url(#pc70085a1fa)" style="fill: #d62728; opacity: 0.8"/>
   </g>
   <g id="patch_16">
    <path d="M 144.832348 38.357417 
L 146.02867 38.357417 
L 146.02867 31.025417 
L 144.832348 31.025417 
z
" clip-path="url(#pc70085a1fa)" style="fill: #d62728; opacity: 0.8"/>
   </g>
   <g id="patch_17">
    <path d="M 146.427444 38.357417 
L 147.224992 38.357417 
L 147.224992 31.025417 
L 146.427444 31.025417 
z
" clip-path="url(#pc70085a1fa)" style="fill: #d62728; opacity: 0.8"/>
   </g>
   <g id="patch_18">
    <path d="M 149.617635 38.357417 
L 150.415183 38.357417 
L 150.415183 31.025417 
L 149.617635 31.025417 
z
" clip-path="url(#pc70085a1fa)" style="fill: #d62728; opacity: 0.8"/>
   </g>
   <g id="patch_19">
    <path d="M 151.611505 38.357417 
L 152.409053 38.357417 
L 152.409053 31.025417 
L 151.611505 31.025417 
z
" clip-path="url(#pc70085a1fa)" style="fill: #d62728; opacity: 0.8"/>
   </g>
   <g id="patch_20">
    <path d="M 154.004148 38.357417 
L 154.801696 38.357417 
L 154.801696 31.025417 
L 154.004148 31.025417 
z
" clip-path="url(#pc70085a1fa)" style="fill: #d62728; opacity: 0.8"/>
   </g>
   <g id="patch_21">
    <path d="M 155.599244 38.357417 
L 156.396792 38.357417 
L 156.396792 31.025417 
L 155.599244 31.025417 
z
" clip-path="url(#pc70085a1fa)" style="fill: #d62728; opacity: 0.8"/>
   </g>
   <g id="patch_22">
    <path d="M 157.593113 38.357417 
L 158.789435 38.357417 
L 158.789435 31.025417 
L 157.593113 31.025417 
z
" clip-path="url(#pc70085a1fa)" style="fill: #d62728; opacity: 0.8"/>
   </g>
   <g id="patch_23">
    <path d="M 162.3784 38.357417 
L 163.574722 38.357417 
L 163.574722 31.025417 
L 162.3784 31.025417 
z
" clip-path="url(#pc70085a1fa)" style="fill: #d62728; opacity: 0.8"/>
   </g>
   <g id="patch_24">
    <path d="M 167.961235 38.357417 
L 168.758783 38.357417 
L 168.758783 31.025417 
L 167.961235 31.025417 
z
" clip-path="url(#pc70085a1fa)" style="fill: #d62728; opacity: 0.8"/>
   </g>
   <g id="patch_25">
    <path d="M 173.145296 38.357417 
L 173.942843 38.357417 
L 173.942843 31.025417 
L 173.145296 31.025417 
z
" clip-path="url(#pc70085a1fa)" style="fill: #d62728; opacity: 0.8"/>
   </g>
   <g id="patch_26">
    <path d="M 175.139165 38.357417 
L 179.126904 38.357417 
L 179.126904 31.025417 
L 175.139165 31.025417 
z
" clip-path="url(#pc70085a1fa)" style="fill: #d62728; opacity: 0.8"/>
   </g>
   <g id="patch_27">
    <path d="M 186.304834 38.357417 
L 187.102382 38.357417 
L 187.102382 31.025417 
L 186.304834 31.025417 
z
" clip-path="url(#pc70085a1fa)" style="fill: #d62728; opacity: 0.8"/>
   </g>
   <g id="patch_28">
    <path d="M 206.642303 38.357417 
L 207.838625 38.357417 
L 207.838625 31.025417 
L 206.642303 31.025417 
z
" clip-path="url(#pc70085a1fa)" style="fill: #d62728; opacity: 0.8"/>
   </g>
   <g id="patch_29">
    <path d="M 208.636173 38.357417 
L 209.433721 38.357417 
L 209.433721 31.025417 
L 208.636173 31.025417 
z
" clip-path="url(#pc70085a1fa)" style="fill: #d62728; opacity: 0.8"/>
   </g>
   <g id="patch_30">
    <path d="M 209.832495 38.357417 
L 211.42759 38.357417 
L 211.42759 31.025417 
L 209.832495 31.025417 
z
" clip-path="url(#pc70085a1fa)" style="fill: #d62728; opacity: 0.8"/>
   </g>
   <g id="patch_31">
    <path d="M 211.826364 38.357417 
L 212.623912 38.357417 
L 212.623912 31.025417 
L 211.826364 31.025417 
z
" clip-path="url(#pc70085a1fa)" style="fill: #d62728; opacity: 0.8"/>
   </g>
   <g id="patch_32">
    <path d="M 236.550346 38.357417 
L 237.347894 38.357417 
L 237.347894 31.025417 
L 236.550346 31.025417 
z
" clip-path="url(#pc70085a1fa)" style="fill: #d62728; opacity: 0.8"/>
   </g>
   <g id="patch_33">
    <path d="M 252.900076 38.357417 
L 253.697624 38.357417 
L 253.697624 31.025417 
L 252.900076 31.025417 
z
" clip-path="url(#pc70085a1fa)" style="fill: #d62728; opacity: 0.8"/>
   </g>
   <g id="patch_34">
    <path d="M 260.47678 38.357417 
L 263.268198 38.357417 
L 263.268198 31.025417 
L 260.47678 31.025417 
z
" clip-path="url(#pc70085a1fa)" style="fill: #d62728; opacity: 0.8"/>
   </g>
   <g id="patch_35">
    <path d="M 264.464519 38.357417 
L 266.059615 38.357417 
L 266.059615 31.025417 
L 264.464519 31.025417 
z
" clip-path="url(#pc70085a1fa)" style="fill: #d62728; opacity: 0.8"/>
   </g>
   <g id="patch_36">
    <path d="M 266.458389 38.357417 
L 267.255937 38.357417 
L 267.255937 31.025417 
L 266.458389 31.025417 
z
" clip-path="url(#pc70085a1fa)" style="fill: #d62728; opacity: 0.8"/>
   </g>
   <g id="patch_37">
    <path d="M 272.439998 38.357417 
L 273.237545 38.357417 
L 273.237545 31.025417 
L 272.439998 31.025417 
z
" clip-path="url(#pc70085a1fa)" style="fill: #d62728; opacity: 0.8"/>
   </g>
   <g id="patch_38">
    <path d="M 278.82038 38.357417 
L 279.617928 38.357417 
L 279.617928 31.025417 
L 278.82038 31.025417 
z
" clip-path="url(#pc70085a1fa)" style="fill: #d62728; opacity: 0.8"/>
   </g>
   <g id="patch_39">
    <path d="M 280.016702 38.357417 
L 280.81425 38.357417 
L 280.81425 31.025417 
L 280.016702 31.025417 
z
" clip-path="url(#pc70085a1fa)" style="fill: #d62728; opacity: 0.8"/>
   </g>
   <g id="patch_40">
    <path d="M 284.004441 38.357417 
L 285.599536 38.357417 
L 285.599536 31.025417 
L 284.004441 31.025417 
z
" clip-path="url(#pc70085a1fa)" style="fill: #d62728; opacity: 0.8"/>
   </g>
   <g id="patch_41">
    <path d="M 286.795858 38.357417 
L 288.390954 38.357417 
L 288.390954 31.025417 
L 286.795858 31.025417 
z
" clip-path="url(#pc70085a1fa)" style="fill: #d62728; opacity: 0.8"/>
   </g>
   <g id="patch_42">
    <path d="M 289.188501 38.357417 
L 289.986049 38.357417 
L 289.986049 31.025417 
L 289.188501 31.025417 
z
" clip-path="url(#pc70085a1fa)" style="fill: #d62728; opacity: 0.8"/>
   </g>
   <g id="patch_43">
    <path d="M 297.562753 38.357417 
L 298.360301 38.357417 
L 298.360301 31.025417 
L 297.562753 31.025417 
z
" clip-path="url(#pc70085a1fa)" style="fill: #d62728; opacity: 0.8"/>
   </g>
   <g id="patch_44">
    <path d="M 300.354171 38.357417 
L 302.746814 38.357417 
L 302.746814 31.025417 
L 300.354171 31.025417 
z
" clip-path="url(#pc70085a1fa)" style="fill: #d62728; opacity: 0.8"/>
   </g>
   <g id="patch_45">
    <path d="M 303.544362 38.357417 
L 304.34191 38.357417 
L 304.34191 31.025417 
L 303.544362 31.025417 
z
" clip-path="url(#pc70085a1fa)" style="fill: #d62728; opacity: 0.8"/>
   </g>
   <g id="patch_46">
    <path d="M 335.0475 38.357417 
L 336.642596 38.357417 
L 336.642596 31.025417 
L 335.0475 31.025417 
z
" clip-path="url(#pc70085a1fa)" style="fill: #d62728; opacity: 0.8"/>
   </g>
   <g id="patch_47">
    <path d="M 347.409491 38.357417 
L 348.207039 38.357417 
L 348.207039 31.025417 
L 347.409491 31.025417 
z
" clip-path="url(#pc70085a1fa)" style="fill: #d62728; opacity: 0.8"/>
   </g>
   <g id="patch_48">
    <path d="M 348.605813 38.357417 
L 349.802135 38.357417 
L 349.802135 31.025417 
L 348.605813 31.025417 
z
" clip-path="url(#pc70085a1fa)" style="fill: #d62728; opacity: 0.8"/>
   </g>
   <g id="patch_49">
    <path d="M 351.796004 38.357417 
L 352.593552 38.357417 
L 352.593552 31.025417 
L 351.796004 31.025417 
z
" clip-path="url(#pc70085a1fa)" style="fill: #d62728; opacity: 0.8"/>
   </g>
   <g id="patch_50">
    <path d="M 354.587422 38.357417 
L 355.38497 38.357417 
L 355.38497 31.025417 
L 354.587422 31.025417 
z
" clip-path="url(#pc70085a1fa)" style="fill: #d62728; opacity: 0.8"/>
   </g>
   <g id="patch_51">
    <path d="M 361.366578 38.357417 
L 362.961674 38.357417 
L 362.961674 31.025417 
L 361.366578 31.025417 
z
" clip-path="url(#pc70085a1fa)" style="fill: #d62728; opacity: 0.8"/>
   </g>
   <g id="patch_52">
    <path d="M 364.157995 38.357417 
L 365.354317 38.357417 
L 365.354317 31.025417 
L 364.157995 31.025417 
z
" clip-path="url(#pc70085a1fa)" style="fill: #d62728; opacity: 0.8"/>
   </g>
   <g id="patch_53">
    <path d="M 366.151865 38.357417 
L 366.949413 38.357417 
L 366.949413 31.025417 
L 366.151865 31.025417 
z
" clip-path="url(#pc70085a1fa)" style="fill: #d62728; opacity: 0.8"/>
   </g>
   <g id="patch_54">
    <path d="M 370.139604 38.357417 
L 371.7347 38.357417 
L 371.7347 31.025417 
L 370.139604 31.025417 
z
" clip-path="url(#pc70085a1fa)" style="fill: #d62728; opacity: 0.8"/>
   </g>
   <g id="patch_55">
    <path d="M 372.931021 38.357417 
L 373.728569 38.357417 
L 373.728569 31.025417 
L 372.931021 31.025417 
z
" clip-path="url(#pc70085a1fa)" style="fill: #d62728; opacity: 0.8"/>
   </g>
   <g id="patch_56">
    <path d="M 374.526117 38.357417 
L 376.121212 38.357417 
L 376.121212 31.025417 
L 374.526117 31.025417 
z
" clip-path="url(#pc70085a1fa)" style="fill: #d62728; opacity: 0.8"/>
   </g>
   <g id="patch_57">
    <path d="M 378.115082 38.357417 
L 379.710178 38.357417 
L 379.710178 31.025417 
L 378.115082 31.025417 
z
" clip-path="url(#pc70085a1fa)" style="fill: #d62728; opacity: 0.8"/>
   </g>
   <g id="patch_58">
    <path d="M 382.900369 38.357417 
L 383.697917 38.357417 
L 383.697917 31.025417 
L 382.900369 31.025417 
z
" clip-path="url(#pc70085a1fa)" style="fill: #d62728; opacity: 0.8"/>
   </g>
   <g id="patch_59">
    <path d="M 386.09056 38.357417 
L 386.888108 38.357417 
L 386.888108 31.025417 
L 386.09056 31.025417 
z
" clip-path="url(#pc70085a1fa)" style="fill: #d62728; opacity: 0.8"/>
   </g>
   <g id="patch_60">
    <path d="M 395.661134 38.357417 
L 398.053777 38.357417 
L 398.053777 31.025417 
L 395.661134 31.025417 
z
" clip-path="url(#pc70085a1fa)" style="fill: #d62728; opacity: 0.8"/>
   </g>
   <g id="patch_61">
    <path d="M 398.851325 38.357417 
L 399.648873 38.357417 
L 399.648873 31.025417 
L 398.851325 31.025417 
z
" clip-path="url(#pc70085a1fa)" style="fill: #d62728; opacity: 0.8"/>
   </g>
   <g id="patch_62">
    <path d="M 410.814542 38.357417 
L 411.61209 38.357417 
L 411.61209 31.025417 
L 410.814542 31.025417 
z
" clip-path="url(#pc70085a1fa)" style="fill: #d62728; opacity: 0.8"/>
   </g>
   <g id="patch_63">
    <path d="M 439.526263 38.357417 
L 440.722585 38.357417 
L 440.722585 31.025417 
L 439.526263 31.025417 
z
" clip-path="url(#pc70085a1fa)" style="fill: #d62728; opacity: 0.8"/>
   </g>
   <g id="patch_64">
    <path d="M 441.520133 38.357417 
L 443.115228 38.357417 
L 443.115228 31.025417 
L 441.520133 31.025417 
z
" clip-path="url(#pc70085a1fa)" style="fill: #d62728; opacity: 0.8"/>
   </g>
   <g id="patch_65">
    <path d="M 445.906646 38.357417 
L 446.704193 38.357417 
L 446.704193 31.025417 
L 445.906646 31.025417 
z
" clip-path="url(#pc70085a1fa)" style="fill: #d62728; opacity: 0.8"/>
   </g>
   <g id="patch_66">
    <path d="M 449.894385 38.357417 
L 451.090706 38.357417 
L 451.090706 31.025417 
L 449.894385 31.025417 
z
" clip-path="url(#pc70085a1fa)" style="fill: #d62728; opacity: 0.8"/>
   </g>
   <g id="patch_67">
    <path d="M 451.48948 38.357417 
L 452.287028 38.357417 
L 452.287028 31.025417 
L 451.48948 31.025417 
z
" clip-path="url(#pc70085a1fa)" style="fill: #d62728; opacity: 0.8"/>
   </g>
   <g id="patch_68">
    <path d="M 475.415915 38.357417 
L 476.213462 38.357417 
L 476.213462 31.025417 
L 475.415915 31.025417 
z
" clip-path="url(#pc70085a1fa)" style="fill: #d62728; opacity: 0.8"/>
   </g>
   <g id="patch_69">
    <path d="M 489.373001 38.357417 
L 490.170549 38.357417 
L 490.170549 31.025417 
L 489.373001 31.025417 
z
" clip-path="url(#pc70085a1fa)" style="fill: #d62728; opacity: 0.8"/>
   </g>
   <g id="patch_70">
    <path d="M 500.139897 38.357417 
L 500.937444 38.357417 
L 500.937444 31.025417 
L 500.139897 31.025417 
z
" clip-path="url(#pc70085a1fa)" style="fill: #d62728; opacity: 0.8"/>
   </g>
   <g id="patch_71">
    <path d="M 504.526409 38.357417 
L 505.722731 38.357417 
L 505.722731 31.025417 
L 504.526409 31.025417 
z
" clip-path="url(#pc70085a1fa)" style="fill: #d62728; opacity: 0.8"/>
   </g>
   <g id="patch_72">
    <path d="M 506.121505 38.357417 
L 508.115375 38.357417 
L 508.115375 31.025417 
L 506.121505 31.025417 
z
" clip-path="url(#pc70085a1fa)" style="fill: #d62728; opacity: 0.8"/>
   </g>
   <g id="patch_73">
    <path d="M 510.906792 38.357417 
L 511.70434 38.357417 
L 511.70434 31.025417 
L 510.906792 31.025417 
z
" clip-path="url(#pc70085a1fa)" style="fill: #d62728; opacity: 0.8"/>
   </g>
   <g id="patch_74">
    <path d="M 514.495757 38.357417 
L 515.293305 38.357417 
L 515.293305 31.025417 
L 514.495757 31.025417 
z
" clip-path="url(#pc70085a1fa)" style="fill: #d62728; opacity: 0.8"/>
   </g>
   <g id="patch_75">
    <path d="M 516.489627 38.357417 
L 517.287174 38.357417 
L 517.287174 31.025417 
L 516.489627 31.025417 
z
" clip-path="url(#pc70085a1fa)" style="fill: #d62728; opacity: 0.8"/>
   </g>
   <g id="patch_76">
    <path d="M 517.685948 38.357417 
L 518.483496 38.357417 
L 518.483496 31.025417 
L 517.685948 31.025417 
z
" clip-path="url(#pc70085a1fa)" style="fill: #d62728; opacity: 0.8"/>
   </g>
   <g id="patch_77">
    <path d="M 518.88227 38.357417 
L 520.477366 38.357417 
L 520.477366 31.025417 
L 518.88227 31.025417 
z
" clip-path="url(#pc70085a1fa)" style="fill: #d62728; opacity: 0.8"/>
   </g>
   <g id="patch_78">
    <path d="M 523.268783 38.357417 
L 524.863879 38.357417 
L 524.863879 31.025417 
L 523.268783 31.025417 
z
" clip-path="url(#pc70085a1fa)" style="fill: #d62728; opacity: 0.8"/>
   </g>
   <g id="patch_79">
    <path d="M 532.440583 38.357417 
L 533.238131 38.357417 
L 533.238131 31.025417 
L 532.440583 31.025417 
z
" clip-path="url(#pc70085a1fa)" style="fill: #d62728; opacity: 0.8"/>
   </g>
   <g id="patch_80">
    <path d="M 534.434452 38.357417 
L 535.232 38.357417 
L 535.232 31.025417 
L 534.434452 31.025417 
z
" clip-path="url(#pc70085a1fa)" style="fill: #d62728; opacity: 0.8"/>
   </g>
   <g id="patch_81">
    <path d="M 544.005026 38.357417 
L 544.802574 38.357417 
L 544.802574 31.025417 
L 544.005026 31.025417 
z
" clip-path="url(#pc70085a1fa)" style="fill: #d62728; opacity: 0.8"/>
   </g>
   <g id="patch_82">
    <path d="M 553.5756 38.357417 
L 554.373147 38.357417 
L 554.373147 31.025417 
L 553.5756 31.025417 
z
" clip-path="url(#pc70085a1fa)" style="fill: #d62728; opacity: 0.8"/>
   </g>
   <g id="patch_83">
    <path d="M 563.146173 38.357417 
L 565.140043 38.357417 
L 565.140043 31.025417 
L 563.146173 31.025417 
z
" clip-path="url(#pc70085a1fa)" style="fill: #d62728; opacity: 0.8"/>
   </g>
   <g id="patch_84">
    <path d="M 567.133912 38.357417 
L 567.93146 38.357417 
L 567.93146 31.025417 
L 567.133912 31.025417 
z
" clip-path="url(#pc70085a1fa)" style="fill: #d62728; opacity: 0.8"/>
   </g>
   <g id="patch_85">
    <path d="M 588.268929 38.357417 
L 589.066477 38.357417 
L 589.066477 31.025417 
L 588.268929 31.025417 
z
" clip-path="url(#pc70085a1fa)" style="fill: #d62728; opacity: 0.8"/>
   </g>
   <g id="patch_86">
    <path d="M 595.048086 38.357417 
L 595.845633 38.357417 
L 595.845633 31.025417 
L 595.048086 31.025417 
z
" clip-path="url(#pc70085a1fa)" style="fill: #d62728; opacity: 0.8"/>
   </g>
   <g id="patch_87">
    <path d="M 597.440729 38.357417 
L 598.238277 38.357417 
L 598.238277 31.025417 
L 597.440729 31.025417 
z
" clip-path="url(#pc70085a1fa)" style="fill: #d62728; opacity: 0.8"/>
   </g>
   <g id="patch_88">
    <path d="M 605.416207 38.357417 
L 606.213755 38.357417 
L 606.213755 31.025417 
L 605.416207 31.025417 
z
" clip-path="url(#pc70085a1fa)" style="fill: #d62728; opacity: 0.8"/>
   </g>
   <g id="patch_89">
    <path d="M 607.808851 38.357417 
L 608.606398 38.357417 
L 608.606398 31.025417 
L 607.808851 31.025417 
z
" clip-path="url(#pc70085a1fa)" style="fill: #d62728; opacity: 0.8"/>
   </g>
   <g id="patch_90">
    <path d="M 618.176972 38.357417 
L 618.97452 38.357417 
L 618.97452 31.025417 
L 618.176972 31.025417 
z
" clip-path="url(#pc70085a1fa)" style="fill: #d62728; opacity: 0.8"/>
   </g>
   <g id="patch_91">
    <path d="M 628.545094 38.357417 
L 629.342641 38.357417 
L 629.342641 31.025417 
L 628.545094 31.025417 
z
" clip-path="url(#pc70085a1fa)" style="fill: #d62728; opacity: 0.8"/>
   </g>
   <g id="patch_92">
    <path d="M 630.140189 38.357417 
L 630.937737 38.357417 
L 630.937737 31.025417 
L 630.140189 31.025417 
z
" clip-path="url(#pc70085a1fa)" style="fill: #d62728; opacity: 0.8"/>
   </g>
   <g id="patch_93">
    <path d="M 634.526702 38.357417 
L 636.919345 38.357417 
L 636.919345 31.025417 
L 634.526702 31.025417 
z
" clip-path="url(#pc70085a1fa)" style="fill: #d62728; opacity: 0.8"/>
   </g>
   <g id="patch_94">
    <path d="M 660.84578 38.357417 
L 662.440875 38.357417 
L 662.440875 31.025417 
L 660.84578 31.025417 
z
" clip-path="url(#pc70085a1fa)" style="fill: #d62728; opacity: 0.8"/>
   </g>
   <g id="patch_95">
    <path d="M 667.226162 38.357417 
L 668.02371 38.357417 
L 668.02371 31.025417 
L 667.226162 31.025417 
z
" clip-path="url(#pc70085a1fa)" style="fill: #d62728; opacity: 0.8"/>
   </g>
   <g id="patch_96">
    <path d="M 673.606545 38.357417 
L 675.600414 38.357417 
L 675.600414 31.025417 
L 673.606545 31.025417 
z
" clip-path="url(#pc70085a1fa)" style="fill: #d62728; opacity: 0.8"/>
   </g>
   <g id="patch_97">
    <path d="M 680.385701 38.357417 
L 681.183249 38.357417 
L 681.183249 31.025417 
L 680.385701 31.025417 
z
" clip-path="url(#pc70085a1fa)" style="fill: #d62728; opacity: 0.8"/>
   </g>
   <g id="patch_98">
    <path d="M 688.361179 38.357417 
L 689.557501 38.357417 
L 689.557501 31.025417 
L 688.361179 31.025417 
z
" clip-path="url(#pc70085a1fa)" style="fill: #d62728; opacity: 0.8"/>
   </g>
   <g id="patch_99">
    <path d="M 693.54524 38.357417 
L 694.342788 38.357417 
L 694.342788 31.025417 
L 693.54524 31.025417 
z
" clip-path="url(#pc70085a1fa)" style="fill: #d62728; opacity: 0.8"/>
   </g>
   <g id="matplotlib.axis_1">
    <g id="text_1">
     <!-- RS100_10Mb_edges -->
     <g transform="translate(7.2 33.448281) scale(0.07 -0.07)">
      <defs>
       <path id="DejaVuSans-52" d="M 2841 2188 
Q 3044 2119 3236 1894 
Q 3428 1669 3622 1275 
L 4263 0 
L 3584 0 
L 2988 1197 
Q 2756 1666 2539 1819 
Q 2322 1972 1947 1972 
L 1259 1972 
L 1259 0 
L 628 0 
L 628 4666 
L 2053 4666 
Q 2853 4666 3247 4331 
Q 3641 3997 3641 3322 
Q 3641 2881 3436 2590 
Q 3231 2300 2841 2188 
z
M 1259 4147 
L 1259 2491 
L 2053 2491 
Q 2509 2491 2742 2702 
Q 2975 2913 2975 3322 
Q 2975 3731 2742 3939 
Q 2509 4147 2053 4147 
L 1259 4147 
z
" transform="scale(0.015625)"/>
       <path id="DejaVuSans-53" d="M 3425 4513 
L 3425 3897 
Q 3066 4069 2747 4153 
Q 2428 4238 2131 4238 
Q 1616 4238 1336 4038 
Q 1056 3838 1056 3469 
Q 1056 3159 1242 3001 
Q 1428 2844 1947 2747 
L 2328 2669 
Q 3034 2534 3370 2195 
Q 3706 1856 3706 1288 
Q 3706 609 3251 259 
Q 2797 -91 1919 -91 
Q 1588 -91 1214 -16 
Q 841 59 441 206 
L 441 856 
Q 825 641 1194 531 
Q 1563 422 1919 422 
Q 2459 422 2753 634 
Q 3047 847 3047 1241 
Q 3047 1584 2836 1778 
Q 2625 1972 2144 2069 
L 1759 2144 
Q 1053 2284 737 2584 
Q 422 2884 422 3419 
Q 422 4038 858 4394 
Q 1294 4750 2059 4750 
Q 2388 4750 2728 4690 
Q 3069 4631 3425 4513 
z
" transform="scale(0.015625)"/>
       <path id="DejaVuSans-31" d="M 794 531 
L 1825 531 
L 1825 4091 
L 703 3866 
L 703 4441 
L 1819 4666 
L 2450 4666 
L 2450 531 
L 3481 531 
L 3481 0 
L 794 0 
L 794 531 
z
" transform="scale(0.015625)"/>
       <path id="DejaVuSans-30" d="M 2034 4250 
Q 1547 4250 1301 3770 
Q 1056 3291 1056 2328 
Q 1056 1369 1301 889 
Q 1547 409 2034 409 
Q 2525 409 2770 889 
Q 3016 1369 3016 2328 
Q 3016 3291 2770 3770 
Q 2525 4250 2034 4250 
z
M 2034 4750 
Q 2819 4750 3233 4129 
Q 3647 3509 3647 2328 
Q 3647 1150 3233 529 
Q 2819 -91 2034 -91 
Q 1250 -91 836 529 
Q 422 1150 422 2328 
Q 422 3509 836 4129 
Q 1250 4750 2034 4750 
z
" transform="scale(0.015625)"/>
       <path id="DejaVuSans-5f" d="M 3263 -1063 
L 3263 -1509 
L -63 -1509 
L -63 -1063 
L 3263 -1063 
z
" transform="scale(0.015625)"/>
       <path id="DejaVuSans-4d" d="M 628 4666 
L 1569 4666 
L 2759 1491 
L 3956 4666 
L 4897 4666 
L 4897 0 
L 4281 0 
L 4281 4097 
L 3078 897 
L 2444 897 
L 1241 4097 
L 1241 0 
L 628 0 
L 628 4666 
z
" transform="scale(0.015625)"/>
       <path id="DejaVuSans-62" d="M 3116 1747 
Q 3116 2381 2855 2742 
Q 2594 3103 2138 3103 
Q 1681 3103 1420 2742 
Q 1159 2381 1159 1747 
Q 1159 1113 1420 752 
Q 1681 391 2138 391 
Q 2594 391 2855 752 
Q 3116 1113 3116 1747 
z
M 1159 2969 
Q 1341 3281 1617 3432 
Q 1894 3584 2278 3584 
Q 2916 3584 3314 3078 
Q 3713 2572 3713 1747 
Q 3713 922 3314 415 
Q 2916 -91 2278 -91 
Q 1894 -91 1617 61 
Q 1341 213 1159 525 
L 1159 0 
L 581 0 
L 581 4863 
L 1159 4863 
L 1159 2969 
z
" transform="scale(0.015625)"/>
       <path id="DejaVuSans-65" d="M 3597 1894 
L 3597 1613 
L 953 1613 
Q 991 1019 1311 708 
Q 1631 397 2203 397 
Q 2534 397 2845 478 
Q 3156 559 3463 722 
L 3463 178 
Q 3153 47 2828 -22 
Q 2503 -91 2169 -91 
Q 1331 -91 842 396 
Q 353 884 353 1716 
Q 353 2575 817 3079 
Q 1281 3584 2069 3584 
Q 2775 3584 3186 3129 
Q 3597 2675 3597 1894 
z
M 3022 2063 
Q 3016 2534 2758 2815 
Q 2500 3097 2075 3097 
Q 1594 3097 1305 2825 
Q 1016 2553 972 2059 
L 3022 2063 
z
" transform="scale(0.015625)"/>
       <path id="DejaVuSans-64" d="M 2906 2969 
L 2906 4863 
L 3481 4863 
L 3481 0 
L 2906 0 
L 2906 525 
Q 2725 213 2448 61 
Q 2172 -91 1784 -91 
Q 1150 -91 751 415 
Q 353 922 353 1747 
Q 353 2572 751 3078 
Q 1150 3584 1784 3584 
Q 2172 3584 2448 3432 
Q 2725 3281 2906 2969 
z
M 947 1747 
Q 947 1113 1208 752 
Q 1469 391 1925 391 
Q 2381 391 2643 752 
Q 2906 1113 2906 1747 
Q 2906 2381 2643 2742 
Q 2381 3103 1925 3103 
Q 1469 3103 1208 2742 
Q 947 2381 947 1747 
z
" transform="scale(0.015625)"/>
       <path id="DejaVuSans-67" d="M 2906 1791 
Q 2906 2416 2648 2759 
Q 2391 3103 1925 3103 
Q 1463 3103 1205 2759 
Q 947 2416 947 1791 
Q 947 1169 1205 825 
Q 1463 481 1925 481 
Q 2391 481 2648 825 
Q 2906 1169 2906 1791 
z
M 3481 434 
Q 3481 -459 3084 -895 
Q 2688 -1331 1869 -1331 
Q 1566 -1331 1297 -1286 
Q 1028 -1241 775 -1147 
L 775 -588 
Q 1028 -725 1275 -790 
Q 1522 -856 1778 -856 
Q 2344 -856 2625 -561 
Q 2906 -266 2906 331 
L 2906 616 
Q 2728 306 2450 153 
Q 2172 0 1784 0 
Q 1141 0 747 490 
Q 353 981 353 1791 
Q 353 2603 747 3093 
Q 1141 3584 1784 3584 
Q 2172 3584 2450 3431 
Q 2728 3278 2906 2969 
L 2906 3500 
L 3481 3500 
L 3481 434 
z
" transform="scale(0.015625)"/>
       <path id="DejaVuSans-73" d="M 2834 3397 
L 2834 2853 
Q 2591 2978 2328 3040 
Q 2066 3103 1784 3103 
Q 1356 3103 1142 2972 
Q 928 2841 928 2578 
Q 928 2378 1081 2264 
Q 1234 2150 1697 2047 
L 1894 2003 
Q 2506 1872 2764 1633 
Q 3022 1394 3022 966 
Q 3022 478 2636 193 
Q 2250 -91 1575 -91 
Q 1294 -91 989 -36 
Q 684 19 347 128 
L 347 722 
Q 666 556 975 473 
Q 1284 391 1588 391 
Q 1994 391 2212 530 
Q 2431 669 2431 922 
Q 2431 1156 2273 1281 
Q 2116 1406 1581 1522 
L 1381 1569 
Q 847 1681 609 1914 
Q 372 2147 372 2553 
Q 372 3047 722 3315 
Q 1072 3584 1716 3584 
Q 2034 3584 2315 3537 
Q 2597 3491 2834 3397 
z
" transform="scale(0.015625)"/>
      </defs>
      <use xlink:href="#DejaVuSans-52"/>
      <use xlink:href="#DejaVuSans-53" x="69.482422"/>
      <use xlink:href="#DejaVuSans-31" x="132.958984"/>
      <use xlink:href="#DejaVuSans-30" x="196.582031"/>
      <use xlink:href="#DejaVuSans-30" x="260.205078"/>
      <use xlink:href="#DejaVuSans-5f" x="323.828125"/>
      <use xlink:href="#DejaVuSans-31" x="373.828125"/>
      <use xlink:href="#DejaVuSans-30" x="437.451172"/>
      <use xlink:href="#DejaVuSans-4d" x="501.074219"/>
      <use xlink:href="#DejaVuSans-62" x="587.353516"/>
      <use xlink:href="#DejaVuSans-5f" x="650.830078"/>
      <use xlink:href="#DejaVuSans-65" x="700.830078"/>
      <use xlink:href="#DejaVuSans-64" x="762.353516"/>
      <use xlink:href="#DejaVuSans-67" x="825.830078"/>
      <use xlink:href="#DejaVuSans-65" x="889.306641"/>
      <use xlink:href="#DejaVuSans-73" x="950.830078"/>
     </g>
    </g>
   </g>
  </g>
  <g id="axes_2">
   <g id="patch_100">
    <path d="M 87.408906 27.425417 
L 699.083906 27.425417 
L 699.083906 19.27875 
L 87.408906 19.27875 
z
" style="fill: #ffffff"/>
   </g>
   <g id="patch_101">
    <path d="M 164.917685 26.61075 
L 166.114848 26.61075 
L 166.114848 19.27875 
L 164.917685 19.27875 
z
" clip-path="url(#p0fce27ffc0)" style="fill: #1f77b4; opacity: 0.8"/>
   </g>
   <g id="patch_102">
    <path d="M 170.494199 26.61075 
L 171.73413 26.61075 
L 171.73413 19.27875 
L 170.494199 19.27875 
z
" clip-path="url(#p0fce27ffc0)" style="fill: #1f77b4; opacity: 0.8"/>
   </g>
   <g id="patch_103">
    <path d="M 231.45857 26.61075 
L 233.052469 26.61075 
L 233.052469 19.27875 
L 231.45857 19.27875 
z
" clip-path="url(#p0fce27ffc0)" style="fill: #1f77b4; opacity: 0.8"/>
   </g>
   <g id="patch_104">
    <path d="M 235.497324 26.61075 
L 236.294872 26.61075 
L 236.294872 19.27875 
L 235.497324 19.27875 
z
" clip-path="url(#p0fce27ffc0)" style="fill: #1f77b4; opacity: 0.8"/>
   </g>
   <g id="patch_105">
    <path d="M 237.076839 26.61075 
L 237.874387 26.61075 
L 237.874387 19.27875 
L 237.076839 19.27875 
z
" clip-path="url(#p0fce27ffc0)" style="fill: #1f77b4; opacity: 0.8"/>
   </g>
   <g id="patch_106">
    <path d="M 284.4691 26.61075 
L 285.266648 26.61075 
L 285.266648 19.27875 
L 284.4691 19.27875 
z
" clip-path="url(#p0fce27ffc0)" style="fill: #1f77b4; opacity: 0.8"/>
   </g>
   <g id="patch_107">
    <path d="M 286.453415 26.61075 
L 287.250963 26.61075 
L 287.250963 19.27875 
L 286.453415 19.27875 
z
" clip-path="url(#p0fce27ffc0)" style="fill: #1f77b4; opacity: 0.8"/>
   </g>
   <g id="patch_108">
    <path d="M 289.672553 26.61075 
L 290.470101 26.61075 
L 290.470101 19.27875 
L 289.672553 19.27875 
z
" clip-path="url(#p0fce27ffc0)" style="fill: #1f77b4; opacity: 0.8"/>
   </g>
   <g id="patch_109">
    <path d="M 292.157345 26.61075 
L 292.954893 26.61075 
L 292.954893 19.27875 
L 292.157345 19.27875 
z
" clip-path="url(#p0fce27ffc0)" style="fill: #1f77b4; opacity: 0.8"/>
   </g>
   <g id="patch_110">
    <path d="M 301.96121 26.61075 
L 302.758757 26.61075 
L 302.758757 19.27875 
L 301.96121 19.27875 
z
" clip-path="url(#p0fce27ffc0)" style="fill: #1f77b4; opacity: 0.8"/>
   </g>
   <g id="patch_111">
    <path d="M 302.773999 26.61075 
L 303.571546 26.61075 
L 303.571546 19.27875 
L 302.773999 19.27875 
z
" clip-path="url(#p0fce27ffc0)" style="fill: #1f77b4; opacity: 0.8"/>
   </g>
   <g id="patch_112">
    <path d="M 334.634921 26.61075 
L 336.2173 26.61075 
L 336.2173 19.27875 
L 334.634921 19.27875 
z
" clip-path="url(#p0fce27ffc0)" style="fill: #1f77b4; opacity: 0.8"/>
   </g>
   <g id="patch_113">
    <path d="M 369.700933 26.61075 
L 370.498481 26.61075 
L 370.498481 19.27875 
L 369.700933 19.27875 
z
" clip-path="url(#p0fce27ffc0)" style="fill: #1f77b4; opacity: 0.8"/>
   </g>
   <g id="patch_114">
    <path d="M 370.736461 26.61075 
L 371.534009 26.61075 
L 371.534009 19.27875 
L 370.736461 19.27875 
z
" clip-path="url(#p0fce27ffc0)" style="fill: #1f77b4; opacity: 0.8"/>
   </g>
   <g id="patch_115">
    <path d="M 373.284997 26.61075 
L 374.082545 26.61075 
L 374.082545 19.27875 
L 373.284997 19.27875 
z
" clip-path="url(#p0fce27ffc0)" style="fill: #1f77b4; opacity: 0.8"/>
   </g>
   <g id="patch_116">
    <path d="M 374.702674 26.61075 
L 375.500222 26.61075 
L 375.500222 19.27875 
L 374.702674 19.27875 
z
" clip-path="url(#p0fce27ffc0)" style="fill: #1f77b4; opacity: 0.8"/>
   </g>
   <g id="patch_117">
    <path d="M 383.465025 26.61075 
L 384.262573 26.61075 
L 384.262573 19.27875 
L 383.465025 19.27875 
z
" clip-path="url(#p0fce27ffc0)" style="fill: #1f77b4; opacity: 0.8"/>
   </g>
   <g id="patch_118">
    <path d="M 384.637771 26.61075 
L 385.435319 26.61075 
L 385.435319 19.27875 
L 384.637771 19.27875 
z
" clip-path="url(#p0fce27ffc0)" style="fill: #1f77b4; opacity: 0.8"/>
   </g>
   <g id="patch_119">
    <path d="M 470.833803 26.61075 
L 471.984553 26.61075 
L 471.984553 19.27875 
L 470.833803 19.27875 
z
" clip-path="url(#p0fce27ffc0)" style="fill: #1f77b4; opacity: 0.8"/>
   </g>
   <g id="patch_120">
    <path d="M 518.396149 26.61075 
L 519.193696 26.61075 
L 519.193696 19.27875 
L 518.396149 19.27875 
z
" clip-path="url(#p0fce27ffc0)" style="fill: #1f77b4; opacity: 0.8"/>
   </g>
   <g id="patch_121">
    <path d="M 519.916953 26.61075 
L 520.714501 26.61075 
L 520.714501 19.27875 
L 519.916953 19.27875 
z
" clip-path="url(#p0fce27ffc0)" style="fill: #1f77b4; opacity: 0.8"/>
   </g>
   <g id="patch_122">
    <path d="M 530.856976 26.61075 
L 531.654524 26.61075 
L 531.654524 19.27875 
L 530.856976 19.27875 
z
" clip-path="url(#p0fce27ffc0)" style="fill: #1f77b4; opacity: 0.8"/>
   </g>
   <g id="patch_123">
    <path d="M 532.028011 26.61075 
L 532.825559 26.61075 
L 532.825559 19.27875 
L 532.028011 19.27875 
z
" clip-path="url(#p0fce27ffc0)" style="fill: #1f77b4; opacity: 0.8"/>
   </g>
   <g id="patch_124">
    <path d="M 581.801766 26.61075 
L 582.993816 26.61075 
L 582.993816 19.27875 
L 581.801766 19.27875 
z
" clip-path="url(#p0fce27ffc0)" style="fill: #1f77b4; opacity: 0.8"/>
   </g>
   <g id="patch_125">
    <path d="M 592.809317 26.61075 
L 593.606865 26.61075 
L 593.606865 19.27875 
L 592.809317 19.27875 
z
" clip-path="url(#p0fce27ffc0)" style="fill: #1f77b4; opacity: 0.8"/>
   </g>
   <g id="patch_126">
    <path d="M 594.426122 26.61075 
L 595.22367 26.61075 
L 595.22367 19.27875 
L 594.426122 19.27875 
z
" clip-path="url(#p0fce27ffc0)" style="fill: #1f77b4; opacity: 0.8"/>
   </g>
   <g id="patch_127">
    <path d="M 599.050898 26.61075 
L 599.848446 26.61075 
L 599.848446 19.27875 
L 599.050898 19.27875 
z
" clip-path="url(#p0fce27ffc0)" style="fill: #1f77b4; opacity: 0.8"/>
   </g>
   <g id="patch_128">
    <path d="M 600.239189 26.61075 
L 601.036736 26.61075 
L 601.036736 19.27875 
L 600.239189 19.27875 
z
" clip-path="url(#p0fce27ffc0)" style="fill: #1f77b4; opacity: 0.8"/>
   </g>
   <g id="patch_129">
    <path d="M 604.359137 26.61075 
L 605.156685 26.61075 
L 605.156685 19.27875 
L 604.359137 19.27875 
z
" clip-path="url(#p0fce27ffc0)" style="fill: #1f77b4; opacity: 0.8"/>
   </g>
   <g id="patch_130">
    <path d="M 605.55301 26.61075 
L 606.350558 26.61075 
L 606.350558 19.27875 
L 605.55301 19.27875 
z
" clip-path="url(#p0fce27ffc0)" style="fill: #1f77b4; opacity: 0.8"/>
   </g>
   <g id="patch_131">
    <path d="M 688.383666 26.61075 
L 689.181214 26.61075 
L 689.181214 19.27875 
L 688.383666 19.27875 
z
" clip-path="url(#p0fce27ffc0)" style="fill: #1f77b4; opacity: 0.8"/>
   </g>
   <g id="patch_132">
    <path d="M 690.01373 26.61075 
L 690.811278 26.61075 
L 690.811278 19.27875 
L 690.01373 19.27875 
z
" clip-path="url(#p0fce27ffc0)" style="fill: #1f77b4; opacity: 0.8"/>
   </g>
   <g id="matplotlib.axis_2">
    <g id="text_2">
     <!-- ECH90 -->
     <g transform="translate(53.926094 21.896302) scale(0.07 -0.07)">
      <defs>
       <path id="DejaVuSans-45" d="M 628 4666 
L 3578 4666 
L 3578 4134 
L 1259 4134 
L 1259 2753 
L 3481 2753 
L 3481 2222 
L 1259 2222 
L 1259 531 
L 3634 531 
L 3634 0 
L 628 0 
L 628 4666 
z
" transform="scale(0.015625)"/>
       <path id="DejaVuSans-43" d="M 4122 4306 
L 4122 3641 
Q 3803 3938 3442 4084 
Q 3081 4231 2675 4231 
Q 1875 4231 1450 3742 
Q 1025 3253 1025 2328 
Q 1025 1406 1450 917 
Q 1875 428 2675 428 
Q 3081 428 3442 575 
Q 3803 722 4122 1019 
L 4122 359 
Q 3791 134 3420 21 
Q 3050 -91 2638 -91 
Q 1578 -91 968 557 
Q 359 1206 359 2328 
Q 359 3453 968 4101 
Q 1578 4750 2638 4750 
Q 3056 4750 3426 4639 
Q 3797 4528 4122 4306 
z
" transform="scale(0.015625)"/>
       <path id="DejaVuSans-48" d="M 628 4666 
L 1259 4666 
L 1259 2753 
L 3553 2753 
L 3553 4666 
L 4184 4666 
L 4184 0 
L 3553 0 
L 3553 2222 
L 1259 2222 
L 1259 0 
L 628 0 
L 628 4666 
z
" transform="scale(0.015625)"/>
       <path id="DejaVuSans-39" d="M 703 97 
L 703 672 
Q 941 559 1184 500 
Q 1428 441 1663 441 
Q 2288 441 2617 861 
Q 2947 1281 2994 2138 
Q 2813 1869 2534 1725 
Q 2256 1581 1919 1581 
Q 1219 1581 811 2004 
Q 403 2428 403 3163 
Q 403 3881 828 4315 
Q 1253 4750 1959 4750 
Q 2769 4750 3195 4129 
Q 3622 3509 3622 2328 
Q 3622 1225 3098 567 
Q 2575 -91 1691 -91 
Q 1453 -91 1209 -44 
Q 966 3 703 97 
z
M 1959 2075 
Q 2384 2075 2632 2365 
Q 2881 2656 2881 3163 
Q 2881 3666 2632 3958 
Q 2384 4250 1959 4250 
Q 1534 4250 1286 3958 
Q 1038 3666 1038 3163 
Q 1038 2656 1286 2365 
Q 1534 2075 1959 2075 
z
" transform="scale(0.015625)"/>
      </defs>
      <use xlink:href="#DejaVuSans-45"/>
      <use xlink:href="#DejaVuSans-43" x="63.183594"/>
      <use xlink:href="#DejaVuSans-48" x="133.007812"/>
      <use xlink:href="#DejaVuSans-39" x="208.203125"/>
      <use xlink:href="#DejaVuSans-30" x="271.826172"/>
     </g>
    </g>
   </g>
   <g id="text_3">
    <!-- chrX -->
    <g transform="translate(87.408906 13.27875) scale(0.08 -0.08)">
     <defs>
      <path id="DejaVuSans-63" d="M 3122 3366 
L 3122 2828 
Q 2878 2963 2633 3030 
Q 2388 3097 2138 3097 
Q 1578 3097 1268 2742 
Q 959 2388 959 1747 
Q 959 1106 1268 751 
Q 1578 397 2138 397 
Q 2388 397 2633 464 
Q 2878 531 3122 666 
L 3122 134 
Q 2881 22 2623 -34 
Q 2366 -91 2075 -91 
Q 1284 -91 818 406 
Q 353 903 353 1747 
Q 353 2603 823 3093 
Q 1294 3584 2113 3584 
Q 2378 3584 2631 3529 
Q 2884 3475 3122 3366 
z
" transform="scale(0.015625)"/>
      <path id="DejaVuSans-68" d="M 3513 2113 
L 3513 0 
L 2938 0 
L 2938 2094 
Q 2938 2591 2744 2837 
Q 2550 3084 2163 3084 
Q 1697 3084 1428 2787 
Q 1159 2491 1159 1978 
L 1159 0 
L 581 0 
L 581 4863 
L 1159 4863 
L 1159 2956 
Q 1366 3272 1645 3428 
Q 1925 3584 2291 3584 
Q 2894 3584 3203 3211 
Q 3513 2838 3513 2113 
z
" transform="scale(0.015625)"/>
      <path id="DejaVuSans-72" d="M 2631 2963 
Q 2534 3019 2420 3045 
Q 2306 3072 2169 3072 
Q 1681 3072 1420 2755 
Q 1159 2438 1159 1844 
L 1159 0 
L 581 0 
L 581 3500 
L 1159 3500 
L 1159 2956 
Q 1341 3275 1631 3429 
Q 1922 3584 2338 3584 
Q 2397 3584 2469 3576 
Q 2541 3569 2628 3553 
L 2631 2963 
z
" transform="scale(0.015625)"/>
      <path id="DejaVuSans-58" d="M 403 4666 
L 1081 4666 
L 2241 2931 
L 3406 4666 
L 4084 4666 
L 2584 2425 
L 4184 0 
L 3506 0 
L 2194 1984 
L 872 0 
L 191 0 
L 1856 2491 
L 403 4666 
z
" transform="scale(0.015625)"/>
     </defs>
     <use xlink:href="#DejaVuSans-63"/>
     <use xlink:href="#DejaVuSans-68" x="54.980469"/>
     <use xlink:href="#DejaVuSans-72" x="118.359375"/>
     <use xlink:href="#DejaVuSans-58" x="159.472656"/>
    </g>
   </g>
  </g>
  <g id="axes_3">
   <g id="patch_133">
    <path d="M 87.408906 50.91875 
L 699.083906 50.91875 
L 699.083906 42.772083 
L 87.408906 42.772083 
z
" style="fill: #ffffff"/>
   </g>
   <g id="patch_134">
    <path d="M 237.076839 50.104083 
L 237.347894 50.104083 
L 237.347894 42.772083 
L 237.076839 42.772083 
z
" clip-path="url(#pd4c6827767)" style="fill: #2ca02c; opacity: 0.8"/>
   </g>
   <g id="patch_135">
    <path d="M 284.4691 50.104083 
L 285.266648 50.104083 
L 285.266648 42.772083 
L 284.4691 42.772083 
z
" clip-path="url(#pd4c6827767)" style="fill: #2ca02c; opacity: 0.8"/>
   </g>
   <g id="patch_136">
    <path d="M 286.795858 50.104083 
L 287.250963 50.104083 
L 287.250963 42.772083 
L 286.795858 42.772083 
z
" clip-path="url(#pd4c6827767)" style="fill: #2ca02c; opacity: 0.8"/>
   </g>
   <g id="patch_137">
    <path d="M 289.672553 50.104083 
L 289.986049 50.104083 
L 289.986049 42.772083 
L 289.672553 42.772083 
z
" clip-path="url(#pd4c6827767)" style="fill: #2ca02c; opacity: 0.8"/>
   </g>
   <g id="patch_138">
    <path d="M 301.96121 50.104083 
L 302.746814 50.104083 
L 302.746814 42.772083 
L 301.96121 42.772083 
z
" clip-path="url(#pd4c6827767)" style="fill: #2ca02c; opacity: 0.8"/>
   </g>
   <g id="patch_139">
    <path d="M 303.544362 50.104083 
L 303.571546 50.104083 
L 303.571546 42.772083 
L 303.544362 42.772083 
z
" clip-path="url(#pd4c6827767)" style="fill: #2ca02c; opacity: 0.8"/>
   </g>
   <g id="patch_140">
    <path d="M 335.0475 50.104083 
L 336.2173 50.104083 
L 336.2173 42.772083 
L 335.0475 42.772083 
z
" clip-path="url(#pd4c6827767)" style="fill: #2ca02c; opacity: 0.8"/>
   </g>
   <g id="patch_141">
    <path d="M 370.139604 50.104083 
L 370.498481 50.104083 
L 370.498481 42.772083 
L 370.139604 42.772083 
z
" clip-path="url(#pd4c6827767)" style="fill: #2ca02c; opacity: 0.8"/>
   </g>
   <g id="patch_142">
    <path d="M 370.736461 50.104083 
L 371.534009 50.104083 
L 371.534009 42.772083 
L 370.736461 42.772083 
z
" clip-path="url(#pd4c6827767)" style="fill: #2ca02c; opacity: 0.8"/>
   </g>
   <g id="patch_143">
    <path d="M 373.284997 50.104083 
L 373.728569 50.104083 
L 373.728569 42.772083 
L 373.284997 42.772083 
z
" clip-path="url(#pd4c6827767)" style="fill: #2ca02c; opacity: 0.8"/>
   </g>
   <g id="patch_144">
    <path d="M 374.702674 50.104083 
L 375.500222 50.104083 
L 375.500222 42.772083 
L 374.702674 42.772083 
z
" clip-path="url(#pd4c6827767)" style="fill: #2ca02c; opacity: 0.8"/>
   </g>
   <g id="patch_145">
    <path d="M 383.465025 50.104083 
L 383.697917 50.104083 
L 383.697917 42.772083 
L 383.465025 42.772083 
z
" clip-path="url(#pd4c6827767)" style="fill: #2ca02c; opacity: 0.8"/>
   </g>
   <g id="patch_146">
    <path d="M 518.396149 50.104083 
L 518.483496 50.104083 
L 518.483496 42.772083 
L 518.396149 42.772083 
z
" clip-path="url(#pd4c6827767)" style="fill: #2ca02c; opacity: 0.8"/>
   </g>
   <g id="patch_147">
    <path d="M 518.88227 50.104083 
L 519.193696 50.104083 
L 519.193696 42.772083 
L 518.88227 42.772083 
z
" clip-path="url(#pd4c6827767)" style="fill: #2ca02c; opacity: 0.8"/>
   </g>
   <g id="patch_148">
    <path d="M 519.916953 50.104083 
L 520.477366 50.104083 
L 520.477366 42.772083 
L 519.916953 42.772083 
z
" clip-path="url(#pd4c6827767)" style="fill: #2ca02c; opacity: 0.8"/>
   </g>
   <g id="patch_149">
    <path d="M 532.440583 50.104083 
L 532.825559 50.104083 
L 532.825559 42.772083 
L 532.440583 42.772083 
z
" clip-path="url(#pd4c6827767)" style="fill: #2ca02c; opacity: 0.8"/>
   </g>
   <g id="patch_150">
    <path d="M 595.048086 50.104083 
L 595.22367 50.104083 
L 595.22367 42.772083 
L 595.048086 42.772083 
z
" clip-path="url(#pd4c6827767)" style="fill: #2ca02c; opacity: 0.8"/>
   </g>
   <g id="patch_151">
    <path d="M 605.55301 50.104083 
L 606.213755 50.104083 
L 606.213755 42.772083 
L 605.55301 42.772083 
z
" clip-path="url(#pd4c6827767)" style="fill: #2ca02c; opacity: 0.8"/>
   </g>
   <g id="patch_152">
    <path d="M 688.383666 50.104083 
L 689.181214 50.104083 
L 689.181214 42.772083 
L 688.383666 42.772083 
z
" clip-path="url(#pd4c6827767)" style="fill: #2ca02c; opacity: 0.8"/>
   </g>
   <g id="matplotlib.axis_3">
    <g id="xtick_1">
     <g id="line2d_1">
      <defs>
       <path id="m0a7e84f462" d="M 0 0 
L 0 3.5 
" style="stroke: #000000; stroke-width: 0.8"/>
      </defs>
      <g>
       <use xlink:href="#m0a7e84f462" x="87.408906" y="50.91875" style="stroke: #000000; stroke-width: 0.8"/>
      </g>
     </g>
     <g id="text_4">
      <!-- 0 Mbp -->
      <g transform="translate(78.149219 62.477812) scale(0.06 -0.06)">
       <defs>
        <path id="DejaVuSans-20" transform="scale(0.015625)"/>
        <path id="DejaVuSans-70" d="M 1159 525 
L 1159 -1331 
L 581 -1331 
L 581 3500 
L 1159 3500 
L 1159 2969 
Q 1341 3281 1617 3432 
Q 1894 3584 2278 3584 
Q 2916 3584 3314 3078 
Q 3713 2572 3713 1747 
Q 3713 922 3314 415 
Q 2916 -91 2278 -91 
Q 1894 -91 1617 61 
Q 1341 213 1159 525 
z
M 3116 1747 
Q 3116 2381 2855 2742 
Q 2594 3103 2138 3103 
Q 1681 3103 1420 2742 
Q 1159 2381 1159 1747 
Q 1159 1113 1420 752 
Q 1681 391 2138 391 
Q 2594 391 2855 752 
Q 3116 1113 3116 1747 
z
" transform="scale(0.015625)"/>
       </defs>
       <use xlink:href="#DejaVuSans-30"/>
       <use xlink:href="#DejaVuSans-20" x="63.623047"/>
       <use xlink:href="#DejaVuSans-4d" x="95.410156"/>
       <use xlink:href="#DejaVuSans-62" x="181.689453"/>
       <use xlink:href="#DejaVuSans-70" x="245.166016"/>
      </g>
     </g>
    </g>
    <g id="xtick_2">
     <g id="line2d_2">
      <g>
       <use xlink:href="#m0a7e84f462" x="240.327656" y="50.91875" style="stroke: #000000; stroke-width: 0.8"/>
      </g>
     </g>
     <g id="text_5">
      <!-- 38 Mbp -->
      <g transform="translate(229.159219 62.477812) scale(0.06 -0.06)">
       <defs>
        <path id="DejaVuSans-33" d="M 2597 2516 
Q 3050 2419 3304 2112 
Q 3559 1806 3559 1356 
Q 3559 666 3084 287 
Q 2609 -91 1734 -91 
Q 1441 -91 1130 -33 
Q 819 25 488 141 
L 488 750 
Q 750 597 1062 519 
Q 1375 441 1716 441 
Q 2309 441 2620 675 
Q 2931 909 2931 1356 
Q 2931 1769 2642 2001 
Q 2353 2234 1838 2234 
L 1294 2234 
L 1294 2753 
L 1863 2753 
Q 2328 2753 2575 2939 
Q 2822 3125 2822 3475 
Q 2822 3834 2567 4026 
Q 2313 4219 1838 4219 
Q 1578 4219 1281 4162 
Q 984 4106 628 3988 
L 628 4550 
Q 988 4650 1302 4700 
Q 1616 4750 1894 4750 
Q 2613 4750 3031 4423 
Q 3450 4097 3450 3541 
Q 3450 3153 3228 2886 
Q 3006 2619 2597 2516 
z
" transform="scale(0.015625)"/>
        <path id="DejaVuSans-38" d="M 2034 2216 
Q 1584 2216 1326 1975 
Q 1069 1734 1069 1313 
Q 1069 891 1326 650 
Q 1584 409 2034 409 
Q 2484 409 2743 651 
Q 3003 894 3003 1313 
Q 3003 1734 2745 1975 
Q 2488 2216 2034 2216 
z
M 1403 2484 
Q 997 2584 770 2862 
Q 544 3141 544 3541 
Q 544 4100 942 4425 
Q 1341 4750 2034 4750 
Q 2731 4750 3128 4425 
Q 3525 4100 3525 3541 
Q 3525 3141 3298 2862 
Q 3072 2584 2669 2484 
Q 3125 2378 3379 2068 
Q 3634 1759 3634 1313 
Q 3634 634 3220 271 
Q 2806 -91 2034 -91 
Q 1263 -91 848 271 
Q 434 634 434 1313 
Q 434 1759 690 2068 
Q 947 2378 1403 2484 
z
M 1172 3481 
Q 1172 3119 1398 2916 
Q 1625 2713 2034 2713 
Q 2441 2713 2670 2916 
Q 2900 3119 2900 3481 
Q 2900 3844 2670 4047 
Q 2441 4250 2034 4250 
Q 1625 4250 1398 4047 
Q 1172 3844 1172 3481 
z
" transform="scale(0.015625)"/>
       </defs>
       <use xlink:href="#DejaVuSans-33"/>
       <use xlink:href="#DejaVuSans-38" x="63.623047"/>
       <use xlink:href="#DejaVuSans-20" x="127.246094"/>
       <use xlink:href="#DejaVuSans-4d" x="159.033203"/>
       <use xlink:href="#DejaVuSans-62" x="245.3125"/>
       <use xlink:href="#DejaVuSans-70" x="308.789062"/>
      </g>
     </g>
    </g>
    <g id="xtick_3">
     <g id="line2d_3">
      <g>
       <use xlink:href="#m0a7e84f462" x="393.246406" y="50.91875" style="stroke: #000000; stroke-width: 0.8"/>
      </g>
     </g>
     <g id="text_6">
      <!-- 76 Mbp -->
      <g transform="translate(382.077969 62.477812) scale(0.06 -0.06)">
       <defs>
        <path id="DejaVuSans-37" d="M 525 4666 
L 3525 4666 
L 3525 4397 
L 1831 0 
L 1172 0 
L 2766 4134 
L 525 4134 
L 525 4666 
z
" transform="scale(0.015625)"/>
        <path id="DejaVuSans-36" d="M 2113 2584 
Q 1688 2584 1439 2293 
Q 1191 2003 1191 1497 
Q 1191 994 1439 701 
Q 1688 409 2113 409 
Q 2538 409 2786 701 
Q 3034 994 3034 1497 
Q 3034 2003 2786 2293 
Q 2538 2584 2113 2584 
z
M 3366 4563 
L 3366 3988 
Q 3128 4100 2886 4159 
Q 2644 4219 2406 4219 
Q 1781 4219 1451 3797 
Q 1122 3375 1075 2522 
Q 1259 2794 1537 2939 
Q 1816 3084 2150 3084 
Q 2853 3084 3261 2657 
Q 3669 2231 3669 1497 
Q 3669 778 3244 343 
Q 2819 -91 2113 -91 
Q 1303 -91 875 529 
Q 447 1150 447 2328 
Q 447 3434 972 4092 
Q 1497 4750 2381 4750 
Q 2619 4750 2861 4703 
Q 3103 4656 3366 4563 
z
" transform="scale(0.015625)"/>
       </defs>
       <use xlink:href="#DejaVuSans-37"/>
       <use xlink:href="#DejaVuSans-36" x="63.623047"/>
       <use xlink:href="#DejaVuSans-20" x="127.246094"/>
       <use xlink:href="#DejaVuSans-4d" x="159.033203"/>
       <use xlink:href="#DejaVuSans-62" x="245.3125"/>
       <use xlink:href="#DejaVuSans-70" x="308.789062"/>
      </g>
     </g>
    </g>
    <g id="xtick_4">
     <g id="line2d_4">
      <g>
       <use xlink:href="#m0a7e84f462" x="546.165156" y="50.91875" style="stroke: #000000; stroke-width: 0.8"/>
      </g>
     </g>
     <g id="text_7">
      <!-- 115 Mbp -->
      <g transform="translate(533.087969 62.477812) scale(0.06 -0.06)">
       <defs>
        <path id="DejaVuSans-35" d="M 691 4666 
L 3169 4666 
L 3169 4134 
L 1269 4134 
L 1269 2991 
Q 1406 3038 1543 3061 
Q 1681 3084 1819 3084 
Q 2600 3084 3056 2656 
Q 3513 2228 3513 1497 
Q 3513 744 3044 326 
Q 2575 -91 1722 -91 
Q 1428 -91 1123 -41 
Q 819 9 494 109 
L 494 744 
Q 775 591 1075 516 
Q 1375 441 1709 441 
Q 2250 441 2565 725 
Q 2881 1009 2881 1497 
Q 2881 1984 2565 2268 
Q 2250 2553 1709 2553 
Q 1456 2553 1204 2497 
Q 953 2441 691 2322 
L 691 4666 
z
" transform="scale(0.015625)"/>
       </defs>
       <use xlink:href="#DejaVuSans-31"/>
       <use xlink:href="#DejaVuSans-31" x="63.623047"/>
       <use xlink:href="#DejaVuSans-35" x="127.246094"/>
       <use xlink:href="#DejaVuSans-20" x="190.869141"/>
       <use xlink:href="#DejaVuSans-4d" x="222.65625"/>
       <use xlink:href="#DejaVuSans-62" x="308.935547"/>
       <use xlink:href="#DejaVuSans-70" x="372.412109"/>
      </g>
     </g>
    </g>
    <g id="xtick_5">
     <g id="line2d_5">
      <g>
       <use xlink:href="#m0a7e84f462" x="699.083906" y="50.91875" style="stroke: #000000; stroke-width: 0.8"/>
      </g>
     </g>
     <g id="text_8">
      <!-- 153 Mbp -->
      <g transform="translate(686.006719 62.477812) scale(0.06 -0.06)">
       <use xlink:href="#DejaVuSans-31"/>
       <use xlink:href="#DejaVuSans-35" x="63.623047"/>
       <use xlink:href="#DejaVuSans-33" x="127.246094"/>
       <use xlink:href="#DejaVuSans-20" x="190.869141"/>
       <use xlink:href="#DejaVuSans-4d" x="222.65625"/>
       <use xlink:href="#DejaVuSans-62" x="308.935547"/>
       <use xlink:href="#DejaVuSans-70" x="372.412109"/>
      </g>
     </g>
    </g>
   </g>
   <g id="matplotlib.axis_4">
    <g id="text_9">
     <!-- Intersect -->
     <g transform="translate(46.431719 45.389635) scale(0.07 -0.07)">
      <defs>
       <path id="DejaVuSans-49" d="M 628 4666 
L 1259 4666 
L 1259 0 
L 628 0 
L 628 4666 
z
" transform="scale(0.015625)"/>
       <path id="DejaVuSans-6e" d="M 3513 2113 
L 3513 0 
L 2938 0 
L 2938 2094 
Q 2938 2591 2744 2837 
Q 2550 3084 2163 3084 
Q 1697 3084 1428 2787 
Q 1159 2491 1159 1978 
L 1159 0 
L 581 0 
L 581 3500 
L 1159 3500 
L 1159 2956 
Q 1366 3272 1645 3428 
Q 1925 3584 2291 3584 
Q 2894 3584 3203 3211 
Q 3513 2838 3513 2113 
z
" transform="scale(0.015625)"/>
       <path id="DejaVuSans-74" d="M 1172 4494 
L 1172 3500 
L 2356 3500 
L 2356 3053 
L 1172 3053 
L 1172 1153 
Q 1172 725 1289 603 
Q 1406 481 1766 481 
L 2356 481 
L 2356 0 
L 1766 0 
Q 1100 0 847 248 
Q 594 497 594 1153 
L 594 3053 
L 172 3053 
L 172 3500 
L 594 3500 
L 594 4494 
L 1172 4494 
z
" transform="scale(0.015625)"/>
      </defs>
      <use xlink:href="#DejaVuSans-49"/>
      <use xlink:href="#DejaVuSans-6e" x="29.492188"/>
      <use xlink:href="#DejaVuSans-74" x="92.871094"/>
      <use xlink:href="#DejaVuSans-65" x="132.080078"/>
      <use xlink:href="#DejaVuSans-72" x="193.603516"/>
      <use xlink:href="#DejaVuSans-73" x="234.716797"/>
      <use xlink:href="#DejaVuSans-65" x="286.816406"/>
      <use xlink:href="#DejaVuSans-63" x="348.339844"/>
      <use xlink:href="#DejaVuSans-74" x="403.320312"/>
     </g>
    </g>
   </g>
   <g id="patch_153">
    <path d="M 87.408906 50.91875 
L 699.083906 50.91875 
" style="fill: none; stroke: #000000; stroke-width: 0.8; stroke-linejoin: miter; stroke-linecap: square"/>
   </g>
  </g>
 </g>
 <defs>
  <clipPath id="pc70085a1fa">
   <rect x="87.408906" y="31.025417" width="611.675" height="8.146667"/>
  </clipPath>
  <clipPath id="p0fce27ffc0">
   <rect x="87.408906" y="19.27875" width="611.675" height="8.146667"/>
  </clipPath>
  <clipPath id="pd4c6827767">
   <rect x="87.408906" y="42.772083" width="611.675" height="8.146667"/>
  </clipPath>
 </defs>
</svg>
