<?xml version="1.0" encoding="utf-8" standalone="no"?>
<!DOCTYPE svg PUBLIC "-//W3C//DTD SVG 1.1//EN"
  "http://www.w3.org/Graphics/SVG/1.1/DTD/svg11.dtd">
<svg xmlns:xlink="http://www.w3.org/1999/xlink" width="708.456406pt" height="150.004375pt" viewBox="0 0 708.456406 150.004375" xmlns="http://www.w3.org/2000/svg" version="1.1">
 <metadata>
  <rdf:RDF xmlns:dc="http://purl.org/dc/elements/1.1/" xmlns:cc="http://creativecommons.org/ns#" xmlns:rdf="http://www.w3.org/1999/02/22-rdf-syntax-ns#">
   <cc:Work>
    <dc:type rdf:resource="http://purl.org/dc/dcmitype/StillImage"/>
    <dc:date>2024-12-21T16:25:15.235889</dc:date>
    <dc:format>image/svg+xml</dc:format>
    <dc:creator>
     <cc:Agent>
      <dc:title>Matplotlib v3.8.4, https://matplotlib.org/</dc:title>
     </cc:Agent>
    </dc:creator>
   </cc:Work>
  </rdf:RDF>
 </metadata>
 <defs>
  <style type="text/css">*{stroke-linejoin: round; stroke-linecap: butt}</style>
 </defs>
 <g id="figure_1">
  <g id="patch_1">
   <path d="M 0 150.004375 
L 708.456406 150.004375 
L 708.456406 0 
L 0 0 
z
" style="fill: #ffffff"/>
  </g>
  <g id="axes_1">
   <g id="patch_2">
    <path d="M 59.326563 83.905104 
L 677.281563 83.905104 
L 677.281563 59.551771 
L 59.326563 59.551771 
z
" style="fill: #ffffff"/>
   </g>
   <g id="matplotlib.axis_1">
    <g id="text_1">
     <!-- annot -->
     <g style="fill: #262626" transform="translate(14.905469 69.64875) scale(0.1 -0.1)">
      <defs>
       <path id="DejaVuSans-61" d="M 2194 1759 
Q 1497 1759 1228 1600 
Q 959 1441 959 1056 
Q 959 750 1161 570 
Q 1363 391 1709 391 
Q 2188 391 2477 730 
Q 2766 1069 2766 1631 
L 2766 1759 
L 2194 1759 
z
M 3341 1997 
L 3341 0 
L 2766 0 
L 2766 531 
Q 2569 213 2275 61 
Q 1981 -91 1556 -91 
Q 1019 -91 701 211 
Q 384 513 384 1019 
Q 384 1609 779 1909 
Q 1175 2209 1959 2209 
L 2766 2209 
L 2766 2266 
Q 2766 2663 2505 2880 
Q 2244 3097 1772 3097 
Q 1472 3097 1187 3025 
Q 903 2953 641 2809 
L 641 3341 
Q 956 3463 1253 3523 
Q 1550 3584 1831 3584 
Q 2591 3584 2966 3190 
Q 3341 2797 3341 1997 
z
" transform="scale(0.015625)"/>
       <path id="DejaVuSans-6e" d="M 3513 2113 
L 3513 0 
L 2938 0 
L 2938 2094 
Q 2938 2591 2744 2837 
Q 2550 3084 2163 3084 
Q 1697 3084 1428 2787 
Q 1159 2491 1159 1978 
L 1159 0 
L 581 0 
L 581 3500 
L 1159 3500 
L 1159 2956 
Q 1366 3272 1645 3428 
Q 1925 3584 2291 3584 
Q 2894 3584 3203 3211 
Q 3513 2838 3513 2113 
z
" transform="scale(0.015625)"/>
       <path id="DejaVuSans-6f" d="M 1959 3097 
Q 1497 3097 1228 2736 
Q 959 2375 959 1747 
Q 959 1119 1226 758 
Q 1494 397 1959 397 
Q 2419 397 2687 759 
Q 2956 1122 2956 1747 
Q 2956 2369 2687 2733 
Q 2419 3097 1959 3097 
z
M 1959 3584 
Q 2709 3584 3137 3096 
Q 3566 2609 3566 1747 
Q 3566 888 3137 398 
Q 2709 -91 1959 -91 
Q 1206 -91 779 398 
Q 353 888 353 1747 
Q 353 2609 779 3096 
Q 1206 3584 1959 3584 
z
" transform="scale(0.015625)"/>
       <path id="DejaVuSans-74" d="M 1172 4494 
L 1172 3500 
L 2356 3500 
L 2356 3053 
L 1172 3053 
L 1172 1153 
Q 1172 725 1289 603 
Q 1406 481 1766 481 
L 2356 481 
L 2356 0 
L 1766 0 
Q 1100 0 847 248 
Q 594 497 594 1153 
L 594 3053 
L 172 3053 
L 172 3500 
L 594 3500 
L 594 4494 
L 1172 4494 
z
" transform="scale(0.015625)"/>
      </defs>
      <use xlink:href="#DejaVuSans-61"/>
      <use xlink:href="#DejaVuSans-6e" x="61.279297"/>
      <use xlink:href="#DejaVuSans-6e" x="124.658203"/>
      <use xlink:href="#DejaVuSans-6f" x="188.037109"/>
      <use xlink:href="#DejaVuSans-74" x="249.21875"/>
     </g>
    </g>
   </g>
   <g id="patch_3">
    <path d="M 62.952375 81.469771 
L 65.772452 81.469771 
L 65.772452 59.551771 
L 62.952375 59.551771 
z
" clip-path="url(#p82f7b01838)" style="fill: #d62728; opacity: 0.6"/>
   </g>
   <g id="patch_4">
    <path d="M 66.17532 81.469771 
L 69.801132 81.469771 
L 69.801132 59.551771 
L 66.17532 59.551771 
z
" clip-path="url(#p82f7b01838)" style="fill: #d62728; opacity: 0.6"/>
   </g>
   <g id="patch_5">
    <path d="M 71.009737 81.469771 
L 71.815473 81.469771 
L 71.815473 59.551771 
L 71.009737 59.551771 
z
" clip-path="url(#p82f7b01838)" style="fill: #d62728; opacity: 0.6"/>
   </g>
   <g id="patch_6">
    <path d="M 72.218341 81.469771 
L 73.426945 81.469771 
L 73.426945 59.551771 
L 72.218341 59.551771 
z
" clip-path="url(#p82f7b01838)" style="fill: #d62728; opacity: 0.6"/>
   </g>
   <g id="patch_7">
    <path d="M 85.915855 81.469771 
L 86.318723 81.469771 
L 86.318723 59.551771 
L 85.915855 59.551771 
z
" clip-path="url(#p82f7b01838)" style="fill: #d62728; opacity: 0.6"/>
   </g>
   <g id="patch_8">
    <path d="M 93.167481 81.469771 
L 93.570349 81.469771 
L 93.570349 59.551771 
L 93.167481 59.551771 
z
" clip-path="url(#p82f7b01838)" style="fill: #d62728; opacity: 0.6"/>
   </g>
   <g id="patch_9">
    <path d="M 93.973217 81.469771 
L 99.210502 81.469771 
L 99.210502 59.551771 
L 93.973217 59.551771 
z
" clip-path="url(#p82f7b01838)" style="fill: #d62728; opacity: 0.6"/>
   </g>
   <g id="patch_10">
    <path d="M 99.61337 81.469771 
L 100.821974 81.469771 
L 100.821974 59.551771 
L 99.61337 59.551771 
z
" clip-path="url(#p82f7b01838)" style="fill: #d62728; opacity: 0.6"/>
   </g>
   <g id="patch_11">
    <path d="M 102.433446 81.469771 
L 105.656391 81.469771 
L 105.656391 59.551771 
L 102.433446 59.551771 
z
" clip-path="url(#p82f7b01838)" style="fill: #d62728; opacity: 0.6"/>
   </g>
   <g id="patch_12">
    <path d="M 106.059259 81.469771 
L 114.519488 81.469771 
L 114.519488 59.551771 
L 106.059259 59.551771 
z
" clip-path="url(#p82f7b01838)" style="fill: #d62728; opacity: 0.6"/>
   </g>
   <g id="patch_13">
    <path d="M 117.742433 81.469771 
L 118.145301 81.469771 
L 118.145301 59.551771 
L 117.742433 59.551771 
z
" clip-path="url(#p82f7b01838)" style="fill: #d62728; opacity: 0.6"/>
   </g>
   <g id="patch_14">
    <path d="M 119.756773 81.469771 
L 120.159641 81.469771 
L 120.159641 59.551771 
L 119.756773 59.551771 
z
" clip-path="url(#p82f7b01838)" style="fill: #d62728; opacity: 0.6"/>
   </g>
   <g id="patch_15">
    <path d="M 120.965377 81.469771 
L 122.173982 81.469771 
L 122.173982 59.551771 
L 120.965377 59.551771 
z
" clip-path="url(#p82f7b01838)" style="fill: #d62728; opacity: 0.6"/>
   </g>
   <g id="patch_16">
    <path d="M 124.994058 81.469771 
L 127.411267 81.469771 
L 127.411267 59.551771 
L 124.994058 59.551771 
z
" clip-path="url(#p82f7b01838)" style="fill: #d62728; opacity: 0.6"/>
   </g>
   <g id="patch_17">
    <path d="M 127.814135 81.469771 
L 130.634211 81.469771 
L 130.634211 59.551771 
L 127.814135 59.551771 
z
" clip-path="url(#p82f7b01838)" style="fill: #d62728; opacity: 0.6"/>
   </g>
   <g id="patch_18">
    <path d="M 131.439947 81.469771 
L 135.06576 81.469771 
L 135.06576 59.551771 
L 131.439947 59.551771 
z
" clip-path="url(#p82f7b01838)" style="fill: #d62728; opacity: 0.6"/>
   </g>
   <g id="patch_19">
    <path d="M 136.274364 81.469771 
L 136.677232 81.469771 
L 136.677232 59.551771 
L 136.274364 59.551771 
z
" clip-path="url(#p82f7b01838)" style="fill: #d62728; opacity: 0.6"/>
   </g>
   <g id="patch_20">
    <path d="M 137.0801 81.469771 
L 140.303045 81.469771 
L 140.303045 59.551771 
L 137.0801 59.551771 
z
" clip-path="url(#p82f7b01838)" style="fill: #d62728; opacity: 0.6"/>
   </g>
   <g id="patch_21">
    <path d="M 146.346066 81.469771 
L 147.151802 81.469771 
L 147.151802 59.551771 
L 146.346066 59.551771 
z
" clip-path="url(#p82f7b01838)" style="fill: #d62728; opacity: 0.6"/>
   </g>
   <g id="patch_22">
    <path d="M 153.597691 81.469771 
L 159.640712 81.469771 
L 159.640712 59.551771 
L 153.597691 59.551771 
z
" clip-path="url(#p82f7b01838)" style="fill: #d62728; opacity: 0.6"/>
   </g>
   <g id="patch_23">
    <path d="M 208.790617 81.469771 
L 209.193485 81.469771 
L 209.193485 59.551771 
L 208.790617 59.551771 
z
" clip-path="url(#p82f7b01838)" style="fill: #d62728; opacity: 0.6"/>
   </g>
   <g id="patch_24">
    <path d="M 209.999221 81.469771 
L 228.128284 81.469771 
L 228.128284 59.551771 
L 209.999221 59.551771 
z
" clip-path="url(#p82f7b01838)" style="fill: #d62728; opacity: 0.6"/>
   </g>
   <g id="patch_25">
    <path d="M 234.171306 81.469771 
L 241.020063 81.469771 
L 241.020063 59.551771 
L 234.171306 59.551771 
z
" clip-path="url(#p82f7b01838)" style="fill: #d62728; opacity: 0.6"/>
   </g>
   <g id="patch_26">
    <path d="M 243.437271 81.469771 
L 243.840139 81.469771 
L 243.840139 59.551771 
L 243.437271 59.551771 
z
" clip-path="url(#p82f7b01838)" style="fill: #d62728; opacity: 0.6"/>
   </g>
   <g id="patch_27">
    <path d="M 246.257348 81.469771 
L 263.580675 81.469771 
L 263.580675 59.551771 
L 246.257348 59.551771 
z
" clip-path="url(#p82f7b01838)" style="fill: #d62728; opacity: 0.6"/>
   </g>
   <g id="patch_28">
    <path d="M 265.595015 81.469771 
L 268.81796 81.469771 
L 268.81796 59.551771 
L 265.595015 59.551771 
z
" clip-path="url(#p82f7b01838)" style="fill: #d62728; opacity: 0.6"/>
   </g>
   <g id="patch_29">
    <path d="M 271.638036 81.469771 
L 282.515474 81.469771 
L 282.515474 59.551771 
L 271.638036 59.551771 
z
" clip-path="url(#p82f7b01838)" style="fill: #d62728; opacity: 0.6"/>
   </g>
   <g id="patch_30">
    <path d="M 283.32121 81.469771 
L 284.126946 81.469771 
L 284.126946 59.551771 
L 283.32121 59.551771 
z
" clip-path="url(#p82f7b01838)" style="fill: #d62728; opacity: 0.6"/>
   </g>
   <g id="patch_31">
    <path d="M 285.335551 81.469771 
L 285.738419 81.469771 
L 285.738419 59.551771 
L 285.335551 59.551771 
z
" clip-path="url(#p82f7b01838)" style="fill: #d62728; opacity: 0.6"/>
   </g>
   <g id="patch_32">
    <path d="M 286.544155 81.469771 
L 288.155627 81.469771 
L 288.155627 59.551771 
L 286.544155 59.551771 
z
" clip-path="url(#p82f7b01838)" style="fill: #d62728; opacity: 0.6"/>
   </g>
   <g id="patch_33">
    <path d="M 288.558495 81.469771 
L 289.364231 81.469771 
L 289.364231 59.551771 
L 288.558495 59.551771 
z
" clip-path="url(#p82f7b01838)" style="fill: #d62728; opacity: 0.6"/>
   </g>
   <g id="patch_34">
    <path d="M 290.169967 81.469771 
L 292.184308 81.469771 
L 292.184308 59.551771 
L 290.169967 59.551771 
z
" clip-path="url(#p82f7b01838)" style="fill: #d62728; opacity: 0.6"/>
   </g>
   <g id="patch_35">
    <path d="M 303.464614 81.469771 
L 303.867482 81.469771 
L 303.867482 59.551771 
L 303.464614 59.551771 
z
" clip-path="url(#p82f7b01838)" style="fill: #d62728; opacity: 0.6"/>
   </g>
   <g id="patch_36">
    <path d="M 305.478954 81.469771 
L 305.881822 81.469771 
L 305.881822 59.551771 
L 305.478954 59.551771 
z
" clip-path="url(#p82f7b01838)" style="fill: #d62728; opacity: 0.6"/>
   </g>
   <g id="patch_37">
    <path d="M 307.493295 81.469771 
L 308.299031 81.469771 
L 308.299031 59.551771 
L 307.493295 59.551771 
z
" clip-path="url(#p82f7b01838)" style="fill: #d62728; opacity: 0.6"/>
   </g>
   <g id="patch_38">
    <path d="M 309.104767 81.469771 
L 311.521975 81.469771 
L 311.521975 59.551771 
L 309.104767 59.551771 
z
" clip-path="url(#p82f7b01838)" style="fill: #d62728; opacity: 0.6"/>
   </g>
   <g id="patch_39">
    <path d="M 319.176469 81.469771 
L 319.579337 81.469771 
L 319.579337 59.551771 
L 319.176469 59.551771 
z
" clip-path="url(#p82f7b01838)" style="fill: #d62728; opacity: 0.6"/>
   </g>
   <g id="patch_40">
    <path d="M 321.593677 81.469771 
L 327.636698 81.469771 
L 327.636698 59.551771 
L 321.593677 59.551771 
z
" clip-path="url(#p82f7b01838)" style="fill: #d62728; opacity: 0.6"/>
   </g>
   <g id="patch_41">
    <path d="M 329.24817 81.469771 
L 336.499796 81.469771 
L 336.499796 59.551771 
L 329.24817 59.551771 
z
" clip-path="url(#p82f7b01838)" style="fill: #d62728; opacity: 0.6"/>
   </g>
   <g id="patch_42">
    <path d="M 337.305532 81.469771 
L 339.319872 81.469771 
L 339.319872 59.551771 
L 337.305532 59.551771 
z
" clip-path="url(#p82f7b01838)" style="fill: #d62728; opacity: 0.6"/>
   </g>
   <g id="patch_43">
    <path d="M 339.72274 81.469771 
L 341.334213 81.469771 
L 341.334213 59.551771 
L 339.72274 59.551771 
z
" clip-path="url(#p82f7b01838)" style="fill: #d62728; opacity: 0.6"/>
   </g>
   <g id="patch_44">
    <path d="M 345.362893 81.469771 
L 345.765761 81.469771 
L 345.765761 59.551771 
L 345.362893 59.551771 
z
" clip-path="url(#p82f7b01838)" style="fill: #d62728; opacity: 0.6"/>
   </g>
   <g id="patch_45">
    <path d="M 346.571497 81.469771 
L 348.585838 81.469771 
L 348.585838 59.551771 
L 346.571497 59.551771 
z
" clip-path="url(#p82f7b01838)" style="fill: #d62728; opacity: 0.6"/>
   </g>
   <g id="patch_46">
    <path d="M 353.017387 81.469771 
L 354.225991 81.469771 
L 354.225991 59.551771 
L 353.017387 59.551771 
z
" clip-path="url(#p82f7b01838)" style="fill: #d62728; opacity: 0.6"/>
   </g>
   <g id="patch_47">
    <path d="M 357.851803 81.469771 
L 361.477616 81.469771 
L 361.477616 59.551771 
L 357.851803 59.551771 
z
" clip-path="url(#p82f7b01838)" style="fill: #d62728; opacity: 0.6"/>
   </g>
   <g id="patch_48">
    <path d="M 371.14645 81.469771 
L 371.952186 81.469771 
L 371.952186 59.551771 
L 371.14645 59.551771 
z
" clip-path="url(#p82f7b01838)" style="fill: #d62728; opacity: 0.6"/>
   </g>
   <g id="patch_49">
    <path d="M 392.901326 81.469771 
L 393.304194 81.469771 
L 393.304194 59.551771 
L 392.901326 59.551771 
z
" clip-path="url(#p82f7b01838)" style="fill: #d62728; opacity: 0.6"/>
   </g>
   <g id="patch_50">
    <path d="M 435.202473 81.469771 
L 435.605341 81.469771 
L 435.605341 59.551771 
L 435.202473 59.551771 
z
" clip-path="url(#p82f7b01838)" style="fill: #d62728; opacity: 0.6"/>
   </g>
   <g id="patch_51">
    <path d="M 436.008209 81.469771 
L 439.634022 81.469771 
L 439.634022 59.551771 
L 436.008209 59.551771 
z
" clip-path="url(#p82f7b01838)" style="fill: #d62728; opacity: 0.6"/>
   </g>
   <g id="patch_52">
    <path d="M 451.720064 81.469771 
L 452.928668 81.469771 
L 452.928668 59.551771 
L 451.720064 59.551771 
z
" clip-path="url(#p82f7b01838)" style="fill: #d62728; opacity: 0.6"/>
   </g>
   <g id="patch_53">
    <path d="M 453.331536 81.469771 
L 454.137273 81.469771 
L 454.137273 59.551771 
L 453.331536 59.551771 
z
" clip-path="url(#p82f7b01838)" style="fill: #d62728; opacity: 0.6"/>
   </g>
   <g id="patch_54">
    <path d="M 454.540141 81.469771 
L 456.554481 81.469771 
L 456.554481 59.551771 
L 454.540141 59.551771 
z
" clip-path="url(#p82f7b01838)" style="fill: #d62728; opacity: 0.6"/>
   </g>
   <g id="patch_55">
    <path d="M 458.568821 81.469771 
L 460.180294 81.469771 
L 460.180294 59.551771 
L 458.568821 59.551771 
z
" clip-path="url(#p82f7b01838)" style="fill: #d62728; opacity: 0.6"/>
   </g>
   <g id="patch_56">
    <path d="M 460.98603 81.469771 
L 466.223315 81.469771 
L 466.223315 59.551771 
L 460.98603 59.551771 
z
" clip-path="url(#p82f7b01838)" style="fill: #d62728; opacity: 0.6"/>
   </g>
   <g id="patch_57">
    <path d="M 473.877808 81.469771 
L 474.280676 81.469771 
L 474.280676 59.551771 
L 473.877808 59.551771 
z
" clip-path="url(#p82f7b01838)" style="fill: #d62728; opacity: 0.6"/>
   </g>
   <g id="patch_58">
    <path d="M 474.683544 81.469771 
L 475.086412 81.469771 
L 475.086412 59.551771 
L 474.683544 59.551771 
z
" clip-path="url(#p82f7b01838)" style="fill: #d62728; opacity: 0.6"/>
   </g>
   <g id="patch_59">
    <path d="M 476.295016 81.469771 
L 484.352378 81.469771 
L 484.352378 59.551771 
L 476.295016 59.551771 
z
" clip-path="url(#p82f7b01838)" style="fill: #d62728; opacity: 0.6"/>
   </g>
   <g id="patch_60">
    <path d="M 487.172454 81.469771 
L 495.229816 81.469771 
L 495.229816 59.551771 
L 487.172454 59.551771 
z
" clip-path="url(#p82f7b01838)" style="fill: #d62728; opacity: 0.6"/>
   </g>
   <g id="patch_61">
    <path d="M 495.632684 81.469771 
L 496.43842 81.469771 
L 496.43842 59.551771 
L 495.632684 59.551771 
z
" clip-path="url(#p82f7b01838)" style="fill: #d62728; opacity: 0.6"/>
   </g>
   <g id="patch_62">
    <path d="M 500.064233 81.469771 
L 500.869969 81.469771 
L 500.869969 59.551771 
L 500.064233 59.551771 
z
" clip-path="url(#p82f7b01838)" style="fill: #d62728; opacity: 0.6"/>
   </g>
   <g id="patch_63">
    <path d="M 509.330198 81.469771 
L 511.747407 81.469771 
L 511.747407 59.551771 
L 509.330198 59.551771 
z
" clip-path="url(#p82f7b01838)" style="fill: #d62728; opacity: 0.6"/>
   </g>
   <g id="patch_64">
    <path d="M 520.610504 81.469771 
L 530.279338 81.469771 
L 530.279338 59.551771 
L 520.610504 59.551771 
z
" clip-path="url(#p82f7b01838)" style="fill: #d62728; opacity: 0.6"/>
   </g>
   <g id="patch_65">
    <path d="M 541.962512 81.469771 
L 544.379721 81.469771 
L 544.379721 59.551771 
L 541.962512 59.551771 
z
" clip-path="url(#p82f7b01838)" style="fill: #d62728; opacity: 0.6"/>
   </g>
   <g id="patch_66">
    <path d="M 565.731728 81.469771 
L 569.760409 81.469771 
L 569.760409 59.551771 
L 565.731728 59.551771 
z
" clip-path="url(#p82f7b01838)" style="fill: #d62728; opacity: 0.6"/>
   </g>
   <g id="patch_67">
    <path d="M 571.371881 81.469771 
L 571.774749 81.469771 
L 571.774749 59.551771 
L 571.371881 59.551771 
z
" clip-path="url(#p82f7b01838)" style="fill: #d62728; opacity: 0.6"/>
   </g>
   <g id="patch_68">
    <path d="M 576.609166 81.469771 
L 577.012034 81.469771 
L 577.012034 59.551771 
L 576.609166 59.551771 
z
" clip-path="url(#p82f7b01838)" style="fill: #d62728; opacity: 0.6"/>
   </g>
   <g id="patch_69">
    <path d="M 579.026375 81.469771 
L 579.429243 81.469771 
L 579.429243 59.551771 
L 579.026375 59.551771 
z
" clip-path="url(#p82f7b01838)" style="fill: #d62728; opacity: 0.6"/>
   </g>
   <g id="patch_70">
    <path d="M 581.040715 81.469771 
L 582.249319 81.469771 
L 582.249319 59.551771 
L 581.040715 59.551771 
z
" clip-path="url(#p82f7b01838)" style="fill: #d62728; opacity: 0.6"/>
   </g>
   <g id="patch_71">
    <path d="M 584.666528 81.469771 
L 585.069396 81.469771 
L 585.069396 59.551771 
L 584.666528 59.551771 
z
" clip-path="url(#p82f7b01838)" style="fill: #d62728; opacity: 0.6"/>
   </g>
   <g id="patch_72">
    <path d="M 585.472264 81.469771 
L 595.946834 81.469771 
L 595.946834 59.551771 
L 585.472264 59.551771 
z
" clip-path="url(#p82f7b01838)" style="fill: #d62728; opacity: 0.6"/>
   </g>
   <g id="patch_73">
    <path d="M 606.824272 81.469771 
L 608.032876 81.469771 
L 608.032876 59.551771 
L 606.824272 59.551771 
z
" clip-path="url(#p82f7b01838)" style="fill: #d62728; opacity: 0.6"/>
   </g>
   <g id="patch_74">
    <path d="M 639.053717 81.469771 
L 639.456585 81.469771 
L 639.456585 59.551771 
L 639.053717 59.551771 
z
" clip-path="url(#p82f7b01838)" style="fill: #d62728; opacity: 0.6"/>
   </g>
   <g id="patch_75">
    <path d="M 645.096738 81.469771 
L 651.945496 81.469771 
L 651.945496 59.551771 
L 645.096738 59.551771 
z
" clip-path="url(#p82f7b01838)" style="fill: #d62728; opacity: 0.6"/>
   </g>
   <g id="patch_76">
    <path d="M 652.751232 81.469771 
L 653.1541 81.469771 
L 653.1541 59.551771 
L 652.751232 59.551771 
z
" clip-path="url(#p82f7b01838)" style="fill: #d62728; opacity: 0.6"/>
   </g>
   <g id="patch_77">
    <path d="M 658.794253 81.469771 
L 660.002857 81.469771 
L 660.002857 59.551771 
L 658.794253 59.551771 
z
" clip-path="url(#p82f7b01838)" style="fill: #d62728; opacity: 0.6"/>
   </g>
   <g id="patch_78">
    <path d="M 660.808593 81.469771 
L 668.463087 81.469771 
L 668.463087 59.551771 
L 660.808593 59.551771 
z
" clip-path="url(#p82f7b01838)" style="fill: #d62728; opacity: 0.6"/>
   </g>
   <g id="patch_79">
    <path d="M 673.700372 81.469771 
L 676.923316 81.469771 
L 676.923316 59.551771 
L 673.700372 59.551771 
z
" clip-path="url(#p82f7b01838)" style="fill: #d62728; opacity: 0.6"/>
   </g>
  </g>
  <g id="axes_2">
   <g id="patch_80">
    <path d="M 59.326563 45.151771 
L 677.281563 45.151771 
L 677.281563 20.798438 
L 59.326563 20.798438 
z
" style="fill: #ffffff"/>
   </g>
   <g id="matplotlib.axis_2">
    <g id="text_2">
     <!-- ECH90 -->
     <g style="fill: #262626" transform="translate(12.553125 30.895417) scale(0.1 -0.1)">
      <defs>
       <path id="DejaVuSans-45" d="M 628 4666 
L 3578 4666 
L 3578 4134 
L 1259 4134 
L 1259 2753 
L 3481 2753 
L 3481 2222 
L 1259 2222 
L 1259 531 
L 3634 531 
L 3634 0 
L 628 0 
L 628 4666 
z
" transform="scale(0.015625)"/>
       <path id="DejaVuSans-43" d="M 4122 4306 
L 4122 3641 
Q 3803 3938 3442 4084 
Q 3081 4231 2675 4231 
Q 1875 4231 1450 3742 
Q 1025 3253 1025 2328 
Q 1025 1406 1450 917 
Q 1875 428 2675 428 
Q 3081 428 3442 575 
Q 3803 722 4122 1019 
L 4122 359 
Q 3791 134 3420 21 
Q 3050 -91 2638 -91 
Q 1578 -91 968 557 
Q 359 1206 359 2328 
Q 359 3453 968 4101 
Q 1578 4750 2638 4750 
Q 3056 4750 3426 4639 
Q 3797 4528 4122 4306 
z
" transform="scale(0.015625)"/>
       <path id="DejaVuSans-48" d="M 628 4666 
L 1259 4666 
L 1259 2753 
L 3553 2753 
L 3553 4666 
L 4184 4666 
L 4184 0 
L 3553 0 
L 3553 2222 
L 1259 2222 
L 1259 0 
L 628 0 
L 628 4666 
z
" transform="scale(0.015625)"/>
       <path id="DejaVuSans-39" d="M 703 97 
L 703 672 
Q 941 559 1184 500 
Q 1428 441 1663 441 
Q 2288 441 2617 861 
Q 2947 1281 2994 2138 
Q 2813 1869 2534 1725 
Q 2256 1581 1919 1581 
Q 1219 1581 811 2004 
Q 403 2428 403 3163 
Q 403 3881 828 4315 
Q 1253 4750 1959 4750 
Q 2769 4750 3195 4129 
Q 3622 3509 3622 2328 
Q 3622 1225 3098 567 
Q 2575 -91 1691 -91 
Q 1453 -91 1209 -44 
Q 966 3 703 97 
z
M 1959 2075 
Q 2384 2075 2632 2365 
Q 2881 2656 2881 3163 
Q 2881 3666 2632 3958 
Q 2384 4250 1959 4250 
Q 1534 4250 1286 3958 
Q 1038 3666 1038 3163 
Q 1038 2656 1286 2365 
Q 1534 2075 1959 2075 
z
" transform="scale(0.015625)"/>
       <path id="DejaVuSans-30" d="M 2034 4250 
Q 1547 4250 1301 3770 
Q 1056 3291 1056 2328 
Q 1056 1369 1301 889 
Q 1547 409 2034 409 
Q 2525 409 2770 889 
Q 3016 1369 3016 2328 
Q 3016 3291 2770 3770 
Q 2525 4250 2034 4250 
z
M 2034 4750 
Q 2819 4750 3233 4129 
Q 3647 3509 3647 2328 
Q 3647 1150 3233 529 
Q 2819 -91 2034 -91 
Q 1250 -91 836 529 
Q 422 1150 422 2328 
Q 422 3509 836 4129 
Q 1250 4750 2034 4750 
z
" transform="scale(0.015625)"/>
      </defs>
      <use xlink:href="#DejaVuSans-45"/>
      <use xlink:href="#DejaVuSans-43" x="63.183594"/>
      <use xlink:href="#DejaVuSans-48" x="133.007812"/>
      <use xlink:href="#DejaVuSans-39" x="208.203125"/>
      <use xlink:href="#DejaVuSans-30" x="271.826172"/>
     </g>
    </g>
   </g>
   <g id="patch_81">
    <path d="M 138.033983 42.716437 
L 138.437701 42.716437 
L 138.437701 20.798438 
L 138.033983 20.798438 
z
" clip-path="url(#pb47f1d8674)" style="fill: #1f77b4; opacity: 0.6"/>
   </g>
   <g id="patch_82">
    <path d="M 143.667751 42.716437 
L 144.114676 42.716437 
L 144.114676 20.798438 
L 143.667751 20.798438 
z
" clip-path="url(#pb47f1d8674)" style="fill: #1f77b4; opacity: 0.6"/>
   </g>
   <g id="patch_83">
    <path d="M 205.258036 42.716437 
L 206.062564 42.716437 
L 206.062564 20.798438 
L 205.258036 20.798438 
z
" clip-path="url(#pb47f1d8674)" style="fill: #1f77b4; opacity: 0.6"/>
   </g>
   <g id="patch_84">
    <path d="M 209.338256 42.716437 
L 210.933988 42.716437 
L 210.933988 20.798438 
L 209.338256 20.798438 
z
" clip-path="url(#pb47f1d8674)" style="fill: #1f77b4; opacity: 0.6"/>
   </g>
   <g id="patch_85">
    <path d="M 258.81282 42.716437 
L 260.817507 42.716437 
L 260.817507 20.798438 
L 258.81282 20.798438 
z
" clip-path="url(#pb47f1d8674)" style="fill: #1f77b4; opacity: 0.6"/>
   </g>
   <g id="patch_86">
    <path d="M 264.069696 42.716437 
L 266.579999 42.716437 
L 266.579999 20.798438 
L 264.069696 20.798438 
z
" clip-path="url(#pb47f1d8674)" style="fill: #1f77b4; opacity: 0.6"/>
   </g>
   <g id="patch_87">
    <path d="M 276.484519 42.716437 
L 277.305653 42.716437 
L 277.305653 20.798438 
L 276.484519 20.798438 
z
" clip-path="url(#pb47f1d8674)" style="fill: #1f77b4; opacity: 0.6"/>
   </g>
   <g id="patch_88">
    <path d="M 309.493688 42.716437 
L 310.286576 42.716437 
L 310.286576 20.798438 
L 309.493688 20.798438 
z
" clip-path="url(#pb47f1d8674)" style="fill: #1f77b4; opacity: 0.6"/>
   </g>
   <g id="patch_89">
    <path d="M 344.919718 42.716437 
L 345.965878 42.716437 
L 345.965878 20.798438 
L 344.919718 20.798438 
z
" clip-path="url(#pb47f1d8674)" style="fill: #1f77b4; opacity: 0.6"/>
   </g>
   <g id="patch_90">
    <path d="M 348.54058 42.716437 
L 349.972812 42.716437 
L 349.972812 20.798438 
L 348.54058 20.798438 
z
" clip-path="url(#pb47f1d8674)" style="fill: #1f77b4; opacity: 0.6"/>
   </g>
   <g id="patch_91">
    <path d="M 358.825125 42.716437 
L 360.009911 42.716437 
L 360.009911 20.798438 
L 358.825125 20.798438 
z
" clip-path="url(#pb47f1d8674)" style="fill: #1f77b4; opacity: 0.6"/>
   </g>
   <g id="patch_92">
    <path d="M 447.090909 42.716437 
L 447.447737 42.716437 
L 447.447737 20.798438 
L 447.090909 20.798438 
z
" clip-path="url(#pb47f1d8674)" style="fill: #1f77b4; opacity: 0.6"/>
   </g>
   <g id="patch_93">
    <path d="M 495.141572 42.716437 
L 496.67799 42.716437 
L 496.67799 20.798438 
L 495.141572 20.798438 
z
" clip-path="url(#pb47f1d8674)" style="fill: #1f77b4; opacity: 0.6"/>
   </g>
   <g id="patch_94">
    <path d="M 507.730333 42.716437 
L 508.913391 42.716437 
L 508.913391 20.798438 
L 507.730333 20.798438 
z
" clip-path="url(#pb47f1d8674)" style="fill: #1f77b4; opacity: 0.6"/>
   </g>
   <g id="patch_95">
    <path d="M 559.198167 42.716437 
L 559.59672 42.716437 
L 559.59672 20.798438 
L 559.198167 20.798438 
z
" clip-path="url(#pb47f1d8674)" style="fill: #1f77b4; opacity: 0.6"/>
   </g>
   <g id="patch_96">
    <path d="M 570.318732 42.716437 
L 571.952136 42.716437 
L 571.952136 20.798438 
L 570.318732 20.798438 
z
" clip-path="url(#pb47f1d8674)" style="fill: #1f77b4; opacity: 0.6"/>
   </g>
   <g id="patch_97">
    <path d="M 576.624395 42.716437 
L 577.824885 42.716437 
L 577.824885 20.798438 
L 576.624395 20.798438 
z
" clip-path="url(#pb47f1d8674)" style="fill: #1f77b4; opacity: 0.6"/>
   </g>
   <g id="patch_98">
    <path d="M 581.987133 42.716437 
L 583.193263 42.716437 
L 583.193263 20.798438 
L 581.987133 20.798438 
z
" clip-path="url(#pb47f1d8674)" style="fill: #1f77b4; opacity: 0.6"/>
   </g>
   <g id="patch_99">
    <path d="M 666.874332 42.716437 
L 668.521132 42.716437 
L 668.521132 20.798438 
L 666.874332 20.798438 
z
" clip-path="url(#pb47f1d8674)" style="fill: #1f77b4; opacity: 0.6"/>
   </g>
   <g id="text_3">
    <!-- chrX -->
    <g style="fill: #262626" transform="translate(59.326563 14.798438) scale(0.1 -0.1)">
     <defs>
      <path id="DejaVuSans-63" d="M 3122 3366 
L 3122 2828 
Q 2878 2963 2633 3030 
Q 2388 3097 2138 3097 
Q 1578 3097 1268 2742 
Q 959 2388 959 1747 
Q 959 1106 1268 751 
Q 1578 397 2138 397 
Q 2388 397 2633 464 
Q 2878 531 3122 666 
L 3122 134 
Q 2881 22 2623 -34 
Q 2366 -91 2075 -91 
Q 1284 -91 818 406 
Q 353 903 353 1747 
Q 353 2603 823 3093 
Q 1294 3584 2113 3584 
Q 2378 3584 2631 3529 
Q 2884 3475 3122 3366 
z
" transform="scale(0.015625)"/>
      <path id="DejaVuSans-68" d="M 3513 2113 
L 3513 0 
L 2938 0 
L 2938 2094 
Q 2938 2591 2744 2837 
Q 2550 3084 2163 3084 
Q 1697 3084 1428 2787 
Q 1159 2491 1159 1978 
L 1159 0 
L 581 0 
L 581 4863 
L 1159 4863 
L 1159 2956 
Q 1366 3272 1645 3428 
Q 1925 3584 2291 3584 
Q 2894 3584 3203 3211 
Q 3513 2838 3513 2113 
z
" transform="scale(0.015625)"/>
      <path id="DejaVuSans-72" d="M 2631 2963 
Q 2534 3019 2420 3045 
Q 2306 3072 2169 3072 
Q 1681 3072 1420 2755 
Q 1159 2438 1159 1844 
L 1159 0 
L 581 0 
L 581 3500 
L 1159 3500 
L 1159 2956 
Q 1341 3275 1631 3429 
Q 1922 3584 2338 3584 
Q 2397 3584 2469 3576 
Q 2541 3569 2628 3553 
L 2631 2963 
z
" transform="scale(0.015625)"/>
      <path id="DejaVuSans-58" d="M 403 4666 
L 1081 4666 
L 2241 2931 
L 3406 4666 
L 4084 4666 
L 2584 2425 
L 4184 0 
L 3506 0 
L 2194 1984 
L 872 0 
L 191 0 
L 1856 2491 
L 403 4666 
z
" transform="scale(0.015625)"/>
     </defs>
     <use xlink:href="#DejaVuSans-63"/>
     <use xlink:href="#DejaVuSans-68" x="54.980469"/>
     <use xlink:href="#DejaVuSans-72" x="118.359375"/>
     <use xlink:href="#DejaVuSans-58" x="159.472656"/>
    </g>
   </g>
  </g>
  <g id="axes_3">
   <g id="patch_100">
    <path d="M 59.326563 122.658438 
L 677.281563 122.658438 
L 677.281563 98.305104 
L 59.326563 98.305104 
z
" style="fill: #ffffff"/>
   </g>
   <g id="matplotlib.axis_3">
    <g id="xtick_1">
     <g id="line2d_1">
      <path d="M 59.326563 122.658438 
L 59.326563 98.305104 
" clip-path="url(#p00084f90ee)" style="fill: none; stroke: #cccccc; stroke-linecap: round"/>
     </g>
     <g id="text_4">
      <!-- 0 Mbp -->
      <g style="fill: #262626" transform="translate(42.350469 140.516719) scale(0.11 -0.11)">
       <defs>
        <path id="DejaVuSans-20" transform="scale(0.015625)"/>
        <path id="DejaVuSans-4d" d="M 628 4666 
L 1569 4666 
L 2759 1491 
L 3956 4666 
L 4897 4666 
L 4897 0 
L 4281 0 
L 4281 4097 
L 3078 897 
L 2444 897 
L 1241 4097 
L 1241 0 
L 628 0 
L 628 4666 
z
" transform="scale(0.015625)"/>
        <path id="DejaVuSans-62" d="M 3116 1747 
Q 3116 2381 2855 2742 
Q 2594 3103 2138 3103 
Q 1681 3103 1420 2742 
Q 1159 2381 1159 1747 
Q 1159 1113 1420 752 
Q 1681 391 2138 391 
Q 2594 391 2855 752 
Q 3116 1113 3116 1747 
z
M 1159 2969 
Q 1341 3281 1617 3432 
Q 1894 3584 2278 3584 
Q 2916 3584 3314 3078 
Q 3713 2572 3713 1747 
Q 3713 922 3314 415 
Q 2916 -91 2278 -91 
Q 1894 -91 1617 61 
Q 1341 213 1159 525 
L 1159 0 
L 581 0 
L 581 4863 
L 1159 4863 
L 1159 2969 
z
" transform="scale(0.015625)"/>
        <path id="DejaVuSans-70" d="M 1159 525 
L 1159 -1331 
L 581 -1331 
L 581 3500 
L 1159 3500 
L 1159 2969 
Q 1341 3281 1617 3432 
Q 1894 3584 2278 3584 
Q 2916 3584 3314 3078 
Q 3713 2572 3713 1747 
Q 3713 922 3314 415 
Q 2916 -91 2278 -91 
Q 1894 -91 1617 61 
Q 1341 213 1159 525 
z
M 3116 1747 
Q 3116 2381 2855 2742 
Q 2594 3103 2138 3103 
Q 1681 3103 1420 2742 
Q 1159 2381 1159 1747 
Q 1159 1113 1420 752 
Q 1681 391 2138 391 
Q 2594 391 2855 752 
Q 3116 1113 3116 1747 
z
" transform="scale(0.015625)"/>
       </defs>
       <use xlink:href="#DejaVuSans-30"/>
       <use xlink:href="#DejaVuSans-20" x="63.623047"/>
       <use xlink:href="#DejaVuSans-4d" x="95.410156"/>
       <use xlink:href="#DejaVuSans-62" x="181.689453"/>
       <use xlink:href="#DejaVuSans-70" x="245.166016"/>
      </g>
     </g>
    </g>
    <g id="xtick_2">
     <g id="line2d_2">
      <path d="M 213.815313 122.658438 
L 213.815313 98.305104 
" clip-path="url(#p00084f90ee)" style="fill: none; stroke: #cccccc; stroke-linecap: round"/>
     </g>
     <g id="text_5">
      <!-- 38 Mbp -->
      <g style="fill: #262626" transform="translate(193.339844 140.516719) scale(0.11 -0.11)">
       <defs>
        <path id="DejaVuSans-33" d="M 2597 2516 
Q 3050 2419 3304 2112 
Q 3559 1806 3559 1356 
Q 3559 666 3084 287 
Q 2609 -91 1734 -91 
Q 1441 -91 1130 -33 
Q 819 25 488 141 
L 488 750 
Q 750 597 1062 519 
Q 1375 441 1716 441 
Q 2309 441 2620 675 
Q 2931 909 2931 1356 
Q 2931 1769 2642 2001 
Q 2353 2234 1838 2234 
L 1294 2234 
L 1294 2753 
L 1863 2753 
Q 2328 2753 2575 2939 
Q 2822 3125 2822 3475 
Q 2822 3834 2567 4026 
Q 2313 4219 1838 4219 
Q 1578 4219 1281 4162 
Q 984 4106 628 3988 
L 628 4550 
Q 988 4650 1302 4700 
Q 1616 4750 1894 4750 
Q 2613 4750 3031 4423 
Q 3450 4097 3450 3541 
Q 3450 3153 3228 2886 
Q 3006 2619 2597 2516 
z
" transform="scale(0.015625)"/>
        <path id="DejaVuSans-38" d="M 2034 2216 
Q 1584 2216 1326 1975 
Q 1069 1734 1069 1313 
Q 1069 891 1326 650 
Q 1584 409 2034 409 
Q 2484 409 2743 651 
Q 3003 894 3003 1313 
Q 3003 1734 2745 1975 
Q 2488 2216 2034 2216 
z
M 1403 2484 
Q 997 2584 770 2862 
Q 544 3141 544 3541 
Q 544 4100 942 4425 
Q 1341 4750 2034 4750 
Q 2731 4750 3128 4425 
Q 3525 4100 3525 3541 
Q 3525 3141 3298 2862 
Q 3072 2584 2669 2484 
Q 3125 2378 3379 2068 
Q 3634 1759 3634 1313 
Q 3634 634 3220 271 
Q 2806 -91 2034 -91 
Q 1263 -91 848 271 
Q 434 634 434 1313 
Q 434 1759 690 2068 
Q 947 2378 1403 2484 
z
M 1172 3481 
Q 1172 3119 1398 2916 
Q 1625 2713 2034 2713 
Q 2441 2713 2670 2916 
Q 2900 3119 2900 3481 
Q 2900 3844 2670 4047 
Q 2441 4250 2034 4250 
Q 1625 4250 1398 4047 
Q 1172 3844 1172 3481 
z
" transform="scale(0.015625)"/>
       </defs>
       <use xlink:href="#DejaVuSans-33"/>
       <use xlink:href="#DejaVuSans-38" x="63.623047"/>
       <use xlink:href="#DejaVuSans-20" x="127.246094"/>
       <use xlink:href="#DejaVuSans-4d" x="159.033203"/>
       <use xlink:href="#DejaVuSans-62" x="245.3125"/>
       <use xlink:href="#DejaVuSans-70" x="308.789062"/>
      </g>
     </g>
    </g>
    <g id="xtick_3">
     <g id="line2d_3">
      <path d="M 368.304063 122.658438 
L 368.304063 98.305104 
" clip-path="url(#p00084f90ee)" style="fill: none; stroke: #cccccc; stroke-linecap: round"/>
     </g>
     <g id="text_6">
      <!-- 76 Mbp -->
      <g style="fill: #262626" transform="translate(347.828594 140.516719) scale(0.11 -0.11)">
       <defs>
        <path id="DejaVuSans-37" d="M 525 4666 
L 3525 4666 
L 3525 4397 
L 1831 0 
L 1172 0 
L 2766 4134 
L 525 4134 
L 525 4666 
z
" transform="scale(0.015625)"/>
        <path id="DejaVuSans-36" d="M 2113 2584 
Q 1688 2584 1439 2293 
Q 1191 2003 1191 1497 
Q 1191 994 1439 701 
Q 1688 409 2113 409 
Q 2538 409 2786 701 
Q 3034 994 3034 1497 
Q 3034 2003 2786 2293 
Q 2538 2584 2113 2584 
z
M 3366 4563 
L 3366 3988 
Q 3128 4100 2886 4159 
Q 2644 4219 2406 4219 
Q 1781 4219 1451 3797 
Q 1122 3375 1075 2522 
Q 1259 2794 1537 2939 
Q 1816 3084 2150 3084 
Q 2853 3084 3261 2657 
Q 3669 2231 3669 1497 
Q 3669 778 3244 343 
Q 2819 -91 2113 -91 
Q 1303 -91 875 529 
Q 447 1150 447 2328 
Q 447 3434 972 4092 
Q 1497 4750 2381 4750 
Q 2619 4750 2861 4703 
Q 3103 4656 3366 4563 
z
" transform="scale(0.015625)"/>
       </defs>
       <use xlink:href="#DejaVuSans-37"/>
       <use xlink:href="#DejaVuSans-36" x="63.623047"/>
       <use xlink:href="#DejaVuSans-20" x="127.246094"/>
       <use xlink:href="#DejaVuSans-4d" x="159.033203"/>
       <use xlink:href="#DejaVuSans-62" x="245.3125"/>
       <use xlink:href="#DejaVuSans-70" x="308.789062"/>
      </g>
     </g>
    </g>
    <g id="xtick_4">
     <g id="line2d_4">
      <path d="M 522.792813 122.658438 
L 522.792813 98.305104 
" clip-path="url(#p00084f90ee)" style="fill: none; stroke: #cccccc; stroke-linecap: round"/>
     </g>
     <g id="text_7">
      <!-- 115 Mbp -->
      <g style="fill: #262626" transform="translate(498.817969 140.516719) scale(0.11 -0.11)">
       <defs>
        <path id="DejaVuSans-31" d="M 794 531 
L 1825 531 
L 1825 4091 
L 703 3866 
L 703 4441 
L 1819 4666 
L 2450 4666 
L 2450 531 
L 3481 531 
L 3481 0 
L 794 0 
L 794 531 
z
" transform="scale(0.015625)"/>
        <path id="DejaVuSans-35" d="M 691 4666 
L 3169 4666 
L 3169 4134 
L 1269 4134 
L 1269 2991 
Q 1406 3038 1543 3061 
Q 1681 3084 1819 3084 
Q 2600 3084 3056 2656 
Q 3513 2228 3513 1497 
Q 3513 744 3044 326 
Q 2575 -91 1722 -91 
Q 1428 -91 1123 -41 
Q 819 9 494 109 
L 494 744 
Q 775 591 1075 516 
Q 1375 441 1709 441 
Q 2250 441 2565 725 
Q 2881 1009 2881 1497 
Q 2881 1984 2565 2268 
Q 2250 2553 1709 2553 
Q 1456 2553 1204 2497 
Q 953 2441 691 2322 
L 691 4666 
z
" transform="scale(0.015625)"/>
       </defs>
       <use xlink:href="#DejaVuSans-31"/>
       <use xlink:href="#DejaVuSans-31" x="63.623047"/>
       <use xlink:href="#DejaVuSans-35" x="127.246094"/>
       <use xlink:href="#DejaVuSans-20" x="190.869141"/>
       <use xlink:href="#DejaVuSans-4d" x="222.65625"/>
       <use xlink:href="#DejaVuSans-62" x="308.935547"/>
       <use xlink:href="#DejaVuSans-70" x="372.412109"/>
      </g>
     </g>
    </g>
    <g id="xtick_5">
     <g id="line2d_5">
      <path d="M 677.281563 122.658438 
L 677.281563 98.305104 
" clip-path="url(#p00084f90ee)" style="fill: none; stroke: #cccccc; stroke-linecap: round"/>
     </g>
     <g id="text_8">
      <!-- 153 Mbp -->
      <g style="fill: #262626" transform="translate(653.306719 140.516719) scale(0.11 -0.11)">
       <use xlink:href="#DejaVuSans-31"/>
       <use xlink:href="#DejaVuSans-35" x="63.623047"/>
       <use xlink:href="#DejaVuSans-33" x="127.246094"/>
       <use xlink:href="#DejaVuSans-20" x="190.869141"/>
       <use xlink:href="#DejaVuSans-4d" x="222.65625"/>
       <use xlink:href="#DejaVuSans-62" x="308.935547"/>
       <use xlink:href="#DejaVuSans-70" x="372.412109"/>
      </g>
     </g>
    </g>
   </g>
   <g id="matplotlib.axis_4">
    <g id="text_9">
     <!-- Intersect -->
     <g style="fill: #262626" transform="translate(7.2 108.402083) scale(0.1 -0.1)">
      <defs>
       <path id="DejaVuSans-49" d="M 628 4666 
L 1259 4666 
L 1259 0 
L 628 0 
L 628 4666 
z
" transform="scale(0.015625)"/>
       <path id="DejaVuSans-65" d="M 3597 1894 
L 3597 1613 
L 953 1613 
Q 991 1019 1311 708 
Q 1631 397 2203 397 
Q 2534 397 2845 478 
Q 3156 559 3463 722 
L 3463 178 
Q 3153 47 2828 -22 
Q 2503 -91 2169 -91 
Q 1331 -91 842 396 
Q 353 884 353 1716 
Q 353 2575 817 3079 
Q 1281 3584 2069 3584 
Q 2775 3584 3186 3129 
Q 3597 2675 3597 1894 
z
M 3022 2063 
Q 3016 2534 2758 2815 
Q 2500 3097 2075 3097 
Q 1594 3097 1305 2825 
Q 1016 2553 972 2059 
L 3022 2063 
z
" transform="scale(0.015625)"/>
       <path id="DejaVuSans-73" d="M 2834 3397 
L 2834 2853 
Q 2591 2978 2328 3040 
Q 2066 3103 1784 3103 
Q 1356 3103 1142 2972 
Q 928 2841 928 2578 
Q 928 2378 1081 2264 
Q 1234 2150 1697 2047 
L 1894 2003 
Q 2506 1872 2764 1633 
Q 3022 1394 3022 966 
Q 3022 478 2636 193 
Q 2250 -91 1575 -91 
Q 1294 -91 989 -36 
Q 684 19 347 128 
L 347 722 
Q 666 556 975 473 
Q 1284 391 1588 391 
Q 1994 391 2212 530 
Q 2431 669 2431 922 
Q 2431 1156 2273 1281 
Q 2116 1406 1581 1522 
L 1381 1569 
Q 847 1681 609 1914 
Q 372 2147 372 2553 
Q 372 3047 722 3315 
Q 1072 3584 1716 3584 
Q 2034 3584 2315 3537 
Q 2597 3491 2834 3397 
z
" transform="scale(0.015625)"/>
      </defs>
      <use xlink:href="#DejaVuSans-49"/>
      <use xlink:href="#DejaVuSans-6e" x="29.492188"/>
      <use xlink:href="#DejaVuSans-74" x="92.871094"/>
      <use xlink:href="#DejaVuSans-65" x="132.080078"/>
      <use xlink:href="#DejaVuSans-72" x="193.603516"/>
      <use xlink:href="#DejaVuSans-73" x="234.716797"/>
      <use xlink:href="#DejaVuSans-65" x="286.816406"/>
      <use xlink:href="#DejaVuSans-63" x="348.339844"/>
      <use xlink:href="#DejaVuSans-74" x="403.320312"/>
     </g>
    </g>
   </g>
   <g id="patch_101">
    <path d="M 138.033983 120.223104 
L 138.437701 120.223104 
L 138.437701 98.305104 
L 138.033983 98.305104 
z
" clip-path="url(#p00084f90ee)" style="fill: #2ca02c; opacity: 0.6"/>
   </g>
   <g id="patch_102">
    <path d="M 209.999221 120.223104 
L 210.933988 120.223104 
L 210.933988 98.305104 
L 209.999221 98.305104 
z
" clip-path="url(#p00084f90ee)" style="fill: #2ca02c; opacity: 0.6"/>
   </g>
   <g id="patch_103">
    <path d="M 258.81282 120.223104 
L 260.817507 120.223104 
L 260.817507 98.305104 
L 258.81282 98.305104 
z
" clip-path="url(#p00084f90ee)" style="fill: #2ca02c; opacity: 0.6"/>
   </g>
   <g id="patch_104">
    <path d="M 265.595015 120.223104 
L 266.579999 120.223104 
L 266.579999 98.305104 
L 265.595015 98.305104 
z
" clip-path="url(#p00084f90ee)" style="fill: #2ca02c; opacity: 0.6"/>
   </g>
   <g id="patch_105">
    <path d="M 276.484519 120.223104 
L 277.305653 120.223104 
L 277.305653 98.305104 
L 276.484519 98.305104 
z
" clip-path="url(#p00084f90ee)" style="fill: #2ca02c; opacity: 0.6"/>
   </g>
   <g id="patch_106">
    <path d="M 309.493688 120.223104 
L 310.286576 120.223104 
L 310.286576 98.305104 
L 309.493688 98.305104 
z
" clip-path="url(#p00084f90ee)" style="fill: #2ca02c; opacity: 0.6"/>
   </g>
   <g id="patch_107">
    <path d="M 345.362893 120.223104 
L 345.765761 120.223104 
L 345.765761 98.305104 
L 345.362893 98.305104 
z
" clip-path="url(#p00084f90ee)" style="fill: #2ca02c; opacity: 0.6"/>
   </g>
   <g id="patch_108">
    <path d="M 348.54058 120.223104 
L 348.585838 120.223104 
L 348.585838 98.305104 
L 348.54058 98.305104 
z
" clip-path="url(#p00084f90ee)" style="fill: #2ca02c; opacity: 0.6"/>
   </g>
   <g id="patch_109">
    <path d="M 358.825125 120.223104 
L 360.009911 120.223104 
L 360.009911 98.305104 
L 358.825125 98.305104 
z
" clip-path="url(#p00084f90ee)" style="fill: #2ca02c; opacity: 0.6"/>
   </g>
   <g id="patch_110">
    <path d="M 495.141572 120.223104 
L 495.229816 120.223104 
L 495.229816 98.305104 
L 495.141572 98.305104 
z
" clip-path="url(#p00084f90ee)" style="fill: #2ca02c; opacity: 0.6"/>
   </g>
   <g id="patch_111">
    <path d="M 495.632684 120.223104 
L 496.43842 120.223104 
L 496.43842 98.305104 
L 495.632684 98.305104 
z
" clip-path="url(#p00084f90ee)" style="fill: #2ca02c; opacity: 0.6"/>
   </g>
   <g id="patch_112">
    <path d="M 571.371881 120.223104 
L 571.774749 120.223104 
L 571.774749 98.305104 
L 571.371881 98.305104 
z
" clip-path="url(#p00084f90ee)" style="fill: #2ca02c; opacity: 0.6"/>
   </g>
   <g id="patch_113">
    <path d="M 576.624395 120.223104 
L 577.012034 120.223104 
L 577.012034 98.305104 
L 576.624395 98.305104 
z
" clip-path="url(#p00084f90ee)" style="fill: #2ca02c; opacity: 0.6"/>
   </g>
   <g id="patch_114">
    <path d="M 581.987133 120.223104 
L 582.249319 120.223104 
L 582.249319 98.305104 
L 581.987133 98.305104 
z
" clip-path="url(#p00084f90ee)" style="fill: #2ca02c; opacity: 0.6"/>
   </g>
   <g id="patch_115">
    <path d="M 666.874332 120.223104 
L 668.463087 120.223104 
L 668.463087 98.305104 
L 666.874332 98.305104 
z
" clip-path="url(#p00084f90ee)" style="fill: #2ca02c; opacity: 0.6"/>
   </g>
   <g id="patch_116">
    <path d="M 59.326563 122.658438 
L 677.281563 122.658438 
" style="fill: none; stroke: #cccccc; stroke-width: 1.25; stroke-linejoin: miter; stroke-linecap: square"/>
   </g>
  </g>
 </g>
 <defs>
  <clipPath id="p82f7b01838">
   <rect x="59.326563" y="59.551771" width="617.955" height="24.353333"/>
  </clipPath>
  <clipPath id="pb47f1d8674">
   <rect x="59.326563" y="20.798438" width="617.955" height="24.353333"/>
  </clipPath>
  <clipPath id="p00084f90ee">
   <rect x="59.326563" y="98.305104" width="617.955" height="24.353333"/>
  </clipPath>
 </defs>
</svg>
